<svg xmlns="http://www.w3.org/2000/svg" viewBox="0 0 228.66 398.22"><defs><style>.cls-1{fill:#964e29;}.cls-2{fill:#743d1d;}.cls-3{fill:#491d02;}.cls-4{fill:#ededed;}.cls-5{fill:#2e2d2c;}.cls-6{fill:#fff;}</style></defs><g id="Слой_2" data-name="Слой 2"><g id="Capa_1" data-name="Capa 1"><polygon class="cls-1" points="155.75 296.08 76.61 296.13 76.56 213.04 155.69 212.98 155.75 296.08"/><path class="cls-2" d="M76.65,271.06c23.29-16.26,39.53-18.6,79.11-18.62l0-41.5L76.61,211Z"/><path class="cls-1" d="M203.7,131.55c-1.56-.42-3.26.16-4.93,1.49V107.68c0-44.55-20-87.27-62.89-87.25l-43.16,0c-42.9,0-62.82,42.77-62.79,87.32l0,25.42c-1.68-1.37-3.41-2-5-1.54-4.61,1.23-6.29,10.5-3.75,20.7,1.81,7.25,5.26,13,8.75,15.28,0,0,34.05,79.65,83.38,79.62,62,0,85.46-79.77,85.46-79.77,3.48-2.31,6.89-8,8.68-15.25C210,142,208.31,132.78,203.7,131.55Z"/><path class="cls-3" d="M201.28,21.1,193.4,6.35l-5.81,7.79-1-9.74-6,9.2-.46-10.87-9,10.71L169.28,4l-5.78,8.62-1.13-6.93-5.85,13.65L152.31,5.57l-2.46,7.94L146,8.36l-2.22,7.07L139,0,134.2,13.33,128.17,3l-3.46,10.48L123,4.59l-7.45,9-3.18-9.08-1.06,7.86-5.92-7.85-1.88,8.45-3.11-7.4-3.5,9.37L93.6,4.16l-3,8.5L86.76,1.09,83.44,14.92l-2.5-6.05-5.79,8.35L71.86,5.35l-6.18,15.2-3.09-9.78-6.88,9L53.51,7.24,48.17,19.76,45.88,12l-4.62,9.41L39,8.15l-2.77,9L31.37,11.8l-2.25,8.45-3.73-7.41L22.61,19V38.15C16.32,84.52,33.85,144,33.85,144s18.48,3.43,13-18.7S38.18,87.4,46.17,77.6c7.31-9,18.1,1.94,47.6,3.83,0,0,7.5.27,11.56.27,36.05,0,65.93-13.91,73.91-4.1s4.79,25.54-.68,47.67,13,18.7,13,18.7S211.47,68.34,201.28,21.1Z"/><path class="cls-3" d="M183.91,196.46c-1.21,2-7.29,12.16-19.72,24.59C158.8,226.43,149,232.8,149,232.8V213.43s1-11.25-9-11.25l-22.45,0-22.46,0c-10,0-9,11.25-9,11.25V232.8S71.05,224,67.56,220.71C55.19,209.23,46.9,198.5,45.7,196.46c9.94,20.45,23,35.23,36.38,44.75C83.71,243.53,91,254,92.83,259.78c0,0,1.66-3.63,1.45-6.37,0,0,6.63,7,8.35,14.33a25.53,25.53,0,0,0-1.33-10.53c.4,1.16,2.64,7.1,7.27,9.38,4.4,2.16,7.61,6.43,8.45,9.89v.23a.42.42,0,0,0,0-.12c0,.05,0,.08,0,.12v-.23c.82-3.46,4-7.73,8.44-9.89,4.63-2.28,6.86-8.22,7.26-9.38a25.43,25.43,0,0,0-1.32,10.53c1.72-7.38,8.36-14.33,8.36-14.33-.23,2.74,1.44,6.37,1.44,6.37,1.94-6,9.85-17.31,10.95-18.86C164.35,231.46,175.74,216.83,183.91,196.46Zm-78.66,14.73h26.89c9.06,0,7.73,8.52,7.73,8.52v11.74H130c-3,0-2.65-2.68-2.77-4-.38-4.34-3.36-4.11-3.36-4.11h-10.3s-3-.23-3.37,4.11c-.11,1.35.24,4-2.76,4H97.53V219.71S96.18,211.19,105.25,211.19Z"/><path class="cls-1" d="M211.59,387V304.09a17.21,17.21,0,0,0-17.2-17.21H34.27a17.22,17.22,0,0,0-17.21,17.21V387Z"/><path class="cls-4" d="M228.66,398.07l-.06-97.41a20.21,20.21,0,0,0-20.23-20.2l-188.16.11A20.24,20.24,0,0,0,0,300.81l.06,97.41Z"/><path class="cls-5" d="M73,280.54l-52.72,0A20.22,20.22,0,0,0,0,300.81l.06,97.41L73,398.17Z"/><path class="cls-5" d="M155.62,280.49l52.73,0a20.23,20.23,0,0,1,20.24,20.2l0,97.41-72.95.06Z"/><path class="cls-1" d="M152.89,280l-38.53,0h-.07l-38.53,0c-9.53,4.12-9.52,6.17-6.43,14.41s20.35,23.15,31.93,33.18c10.28,8.9,12.68,47.93,13.09,56.65v1.76s0-.35,0-.94c0,.59,0,.94,0,.94V384.3c.39-8.72,2.75-47.76,13-56.67,11.57-10,28.82-25,31.89-33.21S162.41,284.11,152.89,280Z"/><path class="cls-6" d="M153.72,280.39s40.27-2.8,16.67,70.66c0,0-5-35.19-25.21-33.64-5.56.43-6,1.93-17.92,10.48,0,0,18.6-18.71,29-32.45C162.82,286.73,159.55,282.65,153.72,280.39Z"/><path class="cls-6" d="M74.91,280.44s-40.28-2.75-16.59,70.67c0,0,4.93-35.19,25.17-33.66,5.55.43,6,1.93,17.93,10.45,0,0-18.62-18.68-29-32.4C65.82,286.79,69.08,282.71,74.91,280.44Z"/></g></g></svg>