<svg xmlns="http://www.w3.org/2000/svg" viewBox="0 0 193.04 203.5"><defs><style>.cls-1{fill:#3f3f3f;}</style></defs><g id="Слой_2" data-name="Слой 2"><g id="Layer_1" data-name="Layer 1"><path class="cls-1" d="M62.29,153.85a7,7,0,0,1-.79-3c0-.65.06-1.36.09-2.15a6.1,6.1,0,0,0-.4-2.55,8.8,8.8,0,0,0-3.72-4.06,23.09,23.09,0,0,0-5-1.86,34.23,34.23,0,0,1-4.34-1.34,11.81,11.81,0,0,1-2.77-1.56,7,7,0,0,1-.91-.83,6.92,6.92,0,0,0,.76,1,10.14,10.14,0,0,0,2.66,2,25.78,25.78,0,0,0,4.32,1.69A22.53,22.53,0,0,1,56.92,143a7.65,7.65,0,0,1,3.38,3.47c.65,1.4.42,3,.58,4.37A6.49,6.49,0,0,0,62.11,154a6.41,6.41,0,0,0,.61.7l.23.22-.19-.26A7.11,7.11,0,0,1,62.29,153.85Z"/><path class="cls-1" d="M58.42,140.47a13.74,13.74,0,0,0-2.59-.86c-.77-.2-1.43-.28-1.89-.36l-.71-.1.68.25,1.78.65a20.82,20.82,0,0,1,2.42,1.06,9.53,9.53,0,0,1,2.4,1.72,7.07,7.07,0,0,1,1.66,2.38,10.08,10.08,0,0,1,.74,2.49,14.36,14.36,0,0,1,.18,1.87c0,.46,0,.72,0,.72s.06-.26.14-.71a9.39,9.39,0,0,0,.12-1.93,8.79,8.79,0,0,0-.54-2.72,7.79,7.79,0,0,0-1.75-2.7A10,10,0,0,0,58.42,140.47Z"/><path class="cls-1" d="M66.65,146.08c.17.61.27,1.34.41,2.12s.26,1.63.4,2.47a16,16,0,0,0,.74,2.46,7.7,7.7,0,0,0,1.13,2,5,5,0,0,0,1.17,1.08,4.87,4.87,0,0,0,.52.29,4.83,4.83,0,0,1-.42-.41,7.17,7.17,0,0,1-.89-1.22,10.36,10.36,0,0,1-.84-1.94,15.5,15.5,0,0,1-.6-2.37c-.17-.84-.35-1.67-.51-2.45a13.75,13.75,0,0,0-.67-2.13,6.88,6.88,0,0,0-.74-1.39,5.28,5.28,0,0,0-.35-.47,5.44,5.44,0,0,1,.21.55A13,13,0,0,1,66.65,146.08Z"/><path class="cls-1" d="M45,134c.54.22,1.17.51,1.87.76l2.17.77,2.22.63c.71.2,1.39.33,2,.46s1.07.19,1.41.25l.54.07-.5-.22c-.32-.13-.77-.35-1.32-.55s-1.19-.47-1.89-.7l-2.18-.73-2.2-.66c-.7-.22-1.38-.36-1.94-.52s-1.06-.24-1.39-.32l-.54-.1.48.25C44,133.58,44.46,133.81,45,134Z"/><path class="cls-1" d="M57.83,146a3.78,3.78,0,0,0-.56-.1l-.63,0L56,146a3.7,3.7,0,0,0-.92.33l-.13.09.15,0a2.55,2.55,0,0,0,.4.08c.16,0,.35.06.55.06h.61l.62-.07c.2,0,.38-.09.54-.11a2.34,2.34,0,0,0,.38-.13l.15-.06-.15-.07A2.34,2.34,0,0,0,57.83,146Z"/><path class="cls-1" d="M59.83,151.27a2.49,2.49,0,0,0-.47,0l-.52.11-.48.23a3.13,3.13,0,0,0-.38.28,1.79,1.79,0,0,0-.24.25l-.07.12h.13c.08,0,.21,0,.34,0a4.14,4.14,0,0,0,.44-.08l.48-.13.46-.19c.15,0,.28-.15.4-.2s.2-.15.27-.19l.11-.09-.13,0A1.31,1.31,0,0,0,59.83,151.27Z"/><path class="cls-1" d="M61.68,155.51a1.33,1.33,0,0,0-.28.16l-.26.23-.2.29a1.88,1.88,0,0,0-.12.3,1.48,1.48,0,0,0,0,.24v.11l.11,0a1.06,1.06,0,0,0,.23-.08,1.28,1.28,0,0,0,.28-.15l.27-.23.19-.3a1,1,0,0,0,.12-.29.92.92,0,0,0,.05-.25v-.1h-.1A1,1,0,0,0,61.68,155.51Z"/><path class="cls-1" d="M65.64,160.8l.09-.05a1.08,1.08,0,0,0,.22-.15,1.81,1.81,0,0,0,.24-.24l.21-.31.12-.35a1.64,1.64,0,0,0,0-.6l0-.11-.1,0a1.72,1.72,0,0,0-.21.15,1.36,1.36,0,0,0-.24.24l-.21.31-.12.35a1.52,1.52,0,0,0-.06.34,1.93,1.93,0,0,0,0,.26Z"/><path class="cls-1" d="M50.33,137.63a12.15,12.15,0,0,1-1.66-.51c-.39-.16-.61-.27-.61-.27s.21.13.58.32a10.51,10.51,0,0,0,1.63.65,20.22,20.22,0,0,0,2.43.54l2.8.39a20.92,20.92,0,0,1,2.75.53,10.64,10.64,0,0,1,2.27.88,7.41,7.41,0,0,1,1.43,1,5.1,5.1,0,0,1,.48.45,5.54,5.54,0,0,0-.44-.5A7.05,7.05,0,0,0,60.62,140a10.86,10.86,0,0,0-2.29-1,20.11,20.11,0,0,0-2.78-.58l-2.81-.34A19.05,19.05,0,0,1,50.33,137.63Z"/><path class="cls-1" d="M11.81,123.28c.74.29,1.25.46,1.25.46l-1.17-.64-1.22-.6-1.42-.67-1.43-.62-1.26-.51c-.75-.29-1.25-.46-1.25-.46s.46.27,1.17.64l1.22.6,1.41.67,1.43.62Z"/><path class="cls-1" d="M11.42,129.72l1.39.63c.82.35,1.39.55,1.39.55l-1.31-.72-1.34-.72L10,128.63l-1.53-.83-1.34-.72-1.32-.7s.48.36,1.22.86l1.29.82,1.52.87Z"/><path class="cls-1" d="M14.64,138.13c.79.25,1.32.39,1.32.39L14.71,138l-1.27-.58c-.47-.21-1-.44-1.46-.68s-1-.46-1.45-.69-.9-.43-1.26-.62L8,134.78s.44.33,1.14.77c.35.22.77.46,1.22.71s.95.5,1.44.74,1,.44,1.49.64S14.25,138,14.64,138.13Z"/><path class="cls-1" d="M18.24,145.48c.52,0,.87,0,.87,0l-.86-.18-.87-.15-1-.15-1-.14-.88-.11-.87-.08s.33.13.83.27l.87.21,1,.19,1,.11Z"/><path class="cls-1" d="M23.42,151.92l1.15,0,1-.06,1-.11s-.39-.05-1-.09l-1,0H23.41l-1.15,0-1,.07c-.59,0-1,.11-1,.11l1,.08,1,0Z"/><path class="cls-1" d="M28.12,158.13,29,158c.51-.07.85-.15.85-.15l-.86,0H27.1l-1,0-.89,0-.86.08s.34.06.86.12l.89.06h1Z"/><path class="cls-1" d="M34.11,162.93l.73-.44c.41-.28.67-.49.67-.49l-.77.32-.77.34-.88.38c-.3.14-.6.27-.88.38s-.54.24-.77.33l-.76.34s.33,0,.82-.15l.82-.24.91-.34Z"/><path class="cls-1" d="M40.52,165.78a6.8,6.8,0,0,0,.58-.65l-.7.5-.71.5c-.26.19-.54.38-.83.56l-.84.54-.74.46-.73.45s.33-.09.82-.28l.8-.37c.28-.16.58-.33.88-.52s.56-.4.82-.6S40.34,166,40.52,165.78Z"/><path class="cls-1" d="M43.18,170.09l.43-.38s-.22.07-.54.21l-.51.29c-.18.11-.37.24-.56.38s-.35.29-.51.44l-.41.43a3.91,3.91,0,0,0-.34.46l.47-.32.47-.34.53-.4.52-.41Z"/><path class="cls-1" d="M47.59,172.5c.19-.2.36-.38.52-.53l.5-.53a6.24,6.24,0,0,0-.63.38c-.17.13-.38.28-.59.46s-.43.38-.64.58l-.57.65-.44.61c-.23.37-.36.64-.36.64l.52-.52c.14-.16.32-.34.51-.53s.38-.41.59-.61S47.4,172.68,47.59,172.5Z"/><path class="cls-1" d="M52.28,174.87l.44-.55.43-.56a5.45,5.45,0,0,0-.56.42l-.53.49-.56.6-.49.66-.38.61c-.2.37-.31.63-.31.63l.47-.52.46-.54.52-.62C51.94,175.28,52.11,175.06,52.28,174.87Z"/><path class="cls-1" d="M56.85,176.55a5,5,0,0,0-.42.41c-.11.14-.24.3-.37.48l-.37.59-.29.63c-.07.21-.14.41-.19.58a3.72,3.72,0,0,0-.11.58l.29-.51c.08-.16.18-.33.29-.52a5.7,5.7,0,0,1,.32-.59c.1-.21.21-.41.32-.6s.19-.37.27-.53Z"/><path class="cls-1" d="M61.33,177.1l.2-.62c.1-.37.15-.62.15-.62s-.14.21-.33.54l-.29.58c-.1.22-.21.45-.31.68l-.26.69c-.08.23-.14.44-.2.62-.1.37-.16.62-.16.62s.15-.21.34-.54c.08-.17.18-.37.29-.58s.2-.45.31-.68Z"/><path class="cls-1" d="M191.54,116.41a3,3,0,0,0-1.47-.38,4.37,4.37,0,0,0-2.09.63,173.7,173.7,0,0,1-20,9,2.45,2.45,0,0,0-.38-.24,3.5,3.5,0,0,0-1.63-.38,5.12,5.12,0,0,0-.82.07,33.4,33.4,0,0,0-11.79,3.9,3.57,3.57,0,0,0-1.72-.43,3.64,3.64,0,0,0-.57,0,6.36,6.36,0,0,0-2.43,1.07l-.21.13a21.6,21.6,0,0,1-6.22,2.39l-1.65.4-2,.49a18.24,18.24,0,0,0-2.61.94l-.76.31a33.87,33.87,0,0,0-6.65,3.34,15.62,15.62,0,0,0-6.59,8.61,22.61,22.61,0,0,0-.53,3.1c-.07.6-.14,1.17-.24,1.72a4.9,4.9,0,0,1-1.34,2.93,3.5,3.5,0,0,1-1.91.71c0-.3,0-.61,0-.94,0-3.65,1.23-6.29,2.53-9.09,1.45-3.1,2.94-6.32,2.94-11,0-4.11,0-12.65-7-12.65-.93,0-2.6.4-3.33,3a24.85,24.85,0,0,0-.59,4.07c-.59,6-1.38,10.24-6.27,10.24a4.13,4.13,0,0,1-4.21-2.57l-1.46-93.55h0v0a16.88,16.88,0,0,1,4.69-11.47c2-2.07,2.48-3.09.93-4.69-1.22-1.27-4.08-4.22-1.74-19a1.1,1.1,0,0,0-.26-.89,1.09,1.09,0,0,0-.79-.35h-.07c-.17,0-1.81-.07-2.89-2.29l-.21-.42C99.32,1.49,98.6,0,97.29,0s-2,1.13-2.84,4.21L93.51,4a2.4,2.4,0,0,0-.74-1.68.73.73,0,0,0-.72-.17,2.48,2.48,0,0,0-1.76,2,2.51,2.51,0,0,0,.64,2.57.76.76,0,0,0,.72.18,2.43,2.43,0,0,0,1.43-1.14l1,.23c-.09.38-.17.77-.26,1.2-.16.77-.34,1.59-.53,2.43L92.16,9.3a2.36,2.36,0,0,0-.74-1.67.76.76,0,0,0-.72-.18,2.51,2.51,0,0,0-1.76,2A2.5,2.5,0,0,0,89.58,12a.76.76,0,0,0,.72.18A2.35,2.35,0,0,0,91.73,11l1.11.28c-.27,1.17-.57,2.38-.88,3.6l-1.15-.29A2.38,2.38,0,0,0,90.07,13a.76.76,0,0,0-.72-.18,2.53,2.53,0,0,0-1.76,2,2.49,2.49,0,0,0,.64,2.56.76.76,0,0,0,.72.18,2.35,2.35,0,0,0,1.43-1.14l1.14.28c-.31,1.21-.63,2.41-.94,3.59L89.46,20a2.36,2.36,0,0,0-.74-1.68.76.76,0,0,0-.72-.18,2.53,2.53,0,0,0-1.76,2,2.51,2.51,0,0,0,.64,2.57.73.73,0,0,0,.72.17A2.37,2.37,0,0,0,89,21.68l1.09.26-.9,3.34c0,.08,0,.16-.07.25l-1-.26a2.35,2.35,0,0,0-.73-1.67.74.74,0,0,0-.72-.18,2.49,2.49,0,0,0-1.77,2A2.53,2.53,0,0,0,85.53,28a.76.76,0,0,0,.72.18A2.37,2.37,0,0,0,87.69,27l1,.25c-.35,1.28-.67,2.49-1,3.58l-1-.24A2.34,2.34,0,0,0,86,28.92a.76.76,0,0,0-.72-.18,2.82,2.82,0,0,0-1.13,4.54.76.76,0,0,0,.72.18,2.37,2.37,0,0,0,1.44-1.14l1,.24c-.27,1.1-.49,2-.62,2.7C86.12,38.18,88,39,89.24,39.5s2.12.89,2.12,2.89l-1.27,82c-.5,1.18-1.65,2.3-4.32,2.3-3.47,0-4.4-3.7-4.89-10.53a31.53,31.53,0,0,0-.41-3.75c-.56-2.67-2.1-3.06-3-3.06-8.24,0-8.24,10.26-8.24,14.13,0,4.68,1.47,8.47,2.89,12.14,1.5,3.86,3,7.86,3,13.2a17.94,17.94,0,0,1-1,5.82,3,3,0,0,1-1-.54,4.9,4.9,0,0,1-1.34-2.93c-.1-.55-.17-1.12-.24-1.72a22.61,22.61,0,0,0-.53-3.1,15.62,15.62,0,0,0-6.59-8.61,33.87,33.87,0,0,0-6.65-3.34l-.76-.31a18.69,18.69,0,0,0-2.61-.94l-2-.49-1.65-.4a21.6,21.6,0,0,1-6.22-2.39l-.21-.13A6.43,6.43,0,0,0,42,128.64a3.64,3.64,0,0,0-.57,0,3.54,3.54,0,0,0-1.72.43,33.38,33.38,0,0,0-11.8-3.9,4.89,4.89,0,0,0-.81-.07,3.47,3.47,0,0,0-1.63.38,2.45,2.45,0,0,0-.38.24,173.7,173.7,0,0,1-20-9A4.38,4.38,0,0,0,3,116a3,3,0,0,0-1.46.38,3.13,3.13,0,0,0-1.45,3.25,4.78,4.78,0,0,0,.89,2,25.27,25.27,0,0,0,1.56,2,3,3,0,0,0-1.16,1.65,3.78,3.78,0,0,0,.6,3,28.69,28.69,0,0,0,2,2.82h0c.42.53.85,1,1.29,1.52a3.35,3.35,0,0,0-.66,1,3.82,3.82,0,0,0,0,3,6.4,6.4,0,0,0,1.11,1.71,30.63,30.63,0,0,0,4.4,4.36A2.78,2.78,0,0,0,9,144.63a3.08,3.08,0,0,0,1.2,2.67,23.2,23.2,0,0,0,6.15,3.94,3.49,3.49,0,0,0-.13,1.92,4.33,4.33,0,0,0,2.4,2.71l.15.08h0c.71.38,1.42.72,2.12,1a3.65,3.65,0,0,0-.16,3.28A4.65,4.65,0,0,0,24,162.58c1,.26,2,.48,3.05.67a3,3,0,0,0-.7,1.87,3.1,3.1,0,0,0,1.34,2.56,4.74,4.74,0,0,0,1.6.7,18,18,0,0,0,3.83.58,3.25,3.25,0,0,0,.54,1.6,4.13,4.13,0,0,0,3.3,1.61c.3,0,.6,0,.9,0v0a3,3,0,0,0,.43,2.84,2.82,2.82,0,0,0,2.28,1,4.67,4.67,0,0,0,.81-.07c.42-.08.82-.18,1.2-.29a3.84,3.84,0,0,0,1.86,2.58,3.94,3.94,0,0,0,1.95.48,5.74,5.74,0,0,0,1.06-.1l.13,0a4,4,0,0,0,.08.48,3.11,3.11,0,0,0,1.62,2.11,3,3,0,0,0,1.31.3,4.21,4.21,0,0,0,1.6-.36l.4-.18a3.22,3.22,0,0,0,1.24,1.78,3,3,0,0,0,1.69.51,3.15,3.15,0,0,0,1-.15,4.26,4.26,0,0,0,1.44-.79l.17-.12a3,3,0,0,0,1.58,1.32,2.72,2.72,0,0,0,1,.19,3.78,3.78,0,0,0,2.4-1,2.93,2.93,0,0,0,1.21,1l0,0c.34,7.61,3.41,12.83,9.38,15.93,5,2.61,11.84,3.72,22.85,3.72s17.83-1.11,22.84-3.72c6-3.1,9-8.33,9.38-16a2.9,2.9,0,0,0,1.19-1,3.76,3.76,0,0,0,2.39,1,2.77,2.77,0,0,0,1-.19,3,3,0,0,0,1.58-1.32l.16.12a4.42,4.42,0,0,0,1.45.79,3.15,3.15,0,0,0,1,.15,3,3,0,0,0,1.68-.51,3.19,3.19,0,0,0,1.25-1.78l.4.18a4.2,4.2,0,0,0,1.59.36,3,3,0,0,0,1.32-.3,3.11,3.11,0,0,0,1.62-2.11c0-.16.06-.32.08-.48l.13,0a5.74,5.74,0,0,0,1.06.1,3.94,3.94,0,0,0,2-.48,3.87,3.87,0,0,0,1.86-2.58c.38.11.78.21,1.19.29a4.84,4.84,0,0,0,.81.07,2.83,2.83,0,0,0,2.29-1,3,3,0,0,0,.43-2.84v0c.3,0,.6,0,.9,0a4.15,4.15,0,0,0,3.3-1.61,3.25,3.25,0,0,0,.54-1.6,18,18,0,0,0,3.83-.58,4.74,4.74,0,0,0,1.6-.7,3.16,3.16,0,0,0,1.34-2.56,3.07,3.07,0,0,0-.7-1.87c1-.19,2.06-.41,3-.67a4.65,4.65,0,0,0,3.27-2.33,3.65,3.65,0,0,0-.16-3.28c.7-.3,1.41-.64,2.12-1h0l.15-.08a4.29,4.29,0,0,0,2.39-2.71,3.32,3.32,0,0,0-.13-1.92,22.88,22.88,0,0,0,6.15-3.94,3.07,3.07,0,0,0,1.21-2.67,2.82,2.82,0,0,0-1.07-1.91,31.15,31.15,0,0,0,4.4-4.36,6.65,6.65,0,0,0,1.11-1.71,3.86,3.86,0,0,0,0-3,3.35,3.35,0,0,0-.66-1c.44-.48.86-1,1.28-1.52h0a28.69,28.69,0,0,0,2-2.82,3.78,3.78,0,0,0,.6-3,3.14,3.14,0,0,0-1.16-1.65,25.27,25.27,0,0,0,1.56-2,4.78,4.78,0,0,0,.89-2A3.13,3.13,0,0,0,191.54,116.41ZM102.29,14.72c0-.72.09-1.42.17-2.08s.13-1.28.22-1.86c.15-1.15.32-2.09.44-2.76l.2-1s0,.38-.12,1c0,.34-.08.74-.14,1.21s-.09,1-.15,1.57-.09,1.2-.15,1.86-.06,1.35-.11,2.07-.06,1.46,0,2.22,0,1.52.09,2.28A21.11,21.11,0,0,0,103,21.5a14.12,14.12,0,0,0,.54,2.13,9.25,9.25,0,0,0,.86,1.85,8.73,8.73,0,0,0,1.14,1.43,2.47,2.47,0,0,1,.51.7,1,1,0,0,1-.07.79,4.89,4.89,0,0,1-.76,1c-.23.25-.42.43-.55.56l-.2.19s.26-.28.69-.8a5.05,5.05,0,0,0,.68-1,.82.82,0,0,0,0-.65,2.31,2.31,0,0,0-.5-.62,9.34,9.34,0,0,1-1.23-1.43,9,9,0,0,1-.94-1.89,14,14,0,0,1-.58-2.18,21.89,21.89,0,0,1-.29-2.3c-.05-.78-.08-1.55-.07-2.31S102.26,15.45,102.29,14.72Zm-10.11-12a3.28,3.28,0,0,0-.37.33,2.84,2.84,0,0,0-.37.54A3.27,3.27,0,0,0,91.3,4l-.06.17,0,.19a2.82,2.82,0,0,0,0,1.38,2.76,2.76,0,0,0,.18.46l.08.18a.73.73,0,0,1-.17-.1,1.42,1.42,0,0,1-.39-.39,1.69,1.69,0,0,1-.29-.75,2.38,2.38,0,0,1,.05-.92L90.68,4l.09-.23A1.9,1.9,0,0,1,91,3.35a1.86,1.86,0,0,1,.61-.53,1.55,1.55,0,0,1,.52-.17h.21ZM90.83,8.08a4.47,4.47,0,0,0-.37.33,2.84,2.84,0,0,0-.37.54c0,.1-.09.22-.14.33l-.06.17,0,.2a2.66,2.66,0,0,0,0,1.37,2.25,2.25,0,0,0,.17.47l.09.18a1,1,0,0,1-.18-.11,1.42,1.42,0,0,1-.39-.39,1.64,1.64,0,0,1-.29-.75,2.38,2.38,0,0,1,0-.92l.06-.21.09-.22a2.2,2.2,0,0,1,.23-.4,1.86,1.86,0,0,1,.61-.53A1.66,1.66,0,0,1,90.79,8H91Zm-1.35,5.33a2.44,2.44,0,0,0-.37.33,2.14,2.14,0,0,0-.36.53,2.67,2.67,0,0,0-.15.34l0,.16-.06.2a2.7,2.7,0,0,0,0,1.38,2.14,2.14,0,0,0,.17.46c0,.11.09.18.09.18l-.18-.1a1.48,1.48,0,0,1-.39-.4,1.9,1.9,0,0,1-.29-.75,2.34,2.34,0,0,1,0-.91l.07-.22.08-.22a3.26,3.26,0,0,1,.24-.4,1.61,1.61,0,0,1,.6-.52,1.27,1.27,0,0,1,.53-.17.76.76,0,0,1,.2,0Zm-1.35,5.32a2.51,2.51,0,0,0-.36.33,2.15,2.15,0,0,0-.37.54,2.52,2.52,0,0,0-.15.33l0,.17,0,.19a2.6,2.6,0,0,0,0,1.38,2.86,2.86,0,0,0,.17.46,1.16,1.16,0,0,0,.09.18l-.18-.1a1.42,1.42,0,0,1-.39-.39,2,2,0,0,1-.29-.75,2.6,2.6,0,0,1,0-.92l.07-.21.09-.23a1.9,1.9,0,0,1,.23-.39,1.64,1.64,0,0,1,.6-.53,1.66,1.66,0,0,1,.53-.17h.2Zm-1.35,5.32a3.29,3.29,0,0,0-.36.33,2.44,2.44,0,0,0-.37.54,1.92,1.92,0,0,0-.14.33l-.06.17,0,.19a2.71,2.71,0,0,0,0,1.38,3.47,3.47,0,0,0,.17.47c0,.11.09.18.09.18a1,1,0,0,1-.18-.11,1.41,1.41,0,0,1-.38-.39,1.69,1.69,0,0,1-.29-.75,2.38,2.38,0,0,1,0-.92l.07-.21.09-.23a1.9,1.9,0,0,1,.23-.39,1.74,1.74,0,0,1,.6-.53,1.66,1.66,0,0,1,.53-.17,1.16,1.16,0,0,1,.21,0Zm-1.35,5.33a2,2,0,0,0-.36.33,2.16,2.16,0,0,0-.37.53,3.27,3.27,0,0,0-.14.33l-.06.17,0,.2a2.71,2.71,0,0,0,0,1.38,2.86,2.86,0,0,0,.17.46l.09.18-.18-.1a1.75,1.75,0,0,1-.67-1.15,2.34,2.34,0,0,1,0-.91l.06-.22.09-.22a1.74,1.74,0,0,1,.23-.4,1.94,1.94,0,0,1,.6-.53,1.39,1.39,0,0,1,.53-.16.84.84,0,0,1,.21,0Zm68.38,104.23c.06-.11.11-.23.16-.34l.42-.21a16.84,16.84,0,0,1,2.23-.67l2.28-.72c.72-.23,1.39-.5,2-.7s1-.43,1.37-.56l.52-.24-.56.08c-.35.07-.86.14-1.46.27s-1.3.26-2,.46l-2.31.61c-.71.24-1.45.44-2.14.75a2.14,2.14,0,0,0,.06-.35,4.33,4.33,0,0,0,0-1.11,31.15,31.15,0,0,1,11.12-3.7,3.41,3.41,0,0,1,.55-.05,1.54,1.54,0,0,1,.43.06,1.58,1.58,0,0,1,.19,1.33,4,4,0,0,1-.58,1.17,11.15,11.15,0,0,1-.91,1.2,5.34,5.34,0,0,1-1.17,1,4.54,4.54,0,0,1-1.48.56c-1,.28-2.28.4-3.37.71a16,16,0,0,0-2.87,1.1,14.64,14.64,0,0,0-1.87,1.09l-.65.49s.27-.12.76-.3,1.17-.43,2-.71,1.81-.5,2.86-.74,2.18-.31,3.42-.57a6.22,6.22,0,0,0,.92-.31,5,5,0,0,1,1.24.53,1.68,1.68,0,0,1,.48.43.56.56,0,0,1,.08.5,9,9,0,0,1-.79,1.45,3.47,3.47,0,0,1-1.15,1.22,4.27,4.27,0,0,1-1.71.44c-1.3.14-2.69.32-3.93.57a25.52,25.52,0,0,0-3.34,1,21.84,21.84,0,0,0-2.26,1l-.82.44.9-.24c.56-.16,1.38-.33,2.35-.57s2.12-.41,3.34-.62,2.23-.29,3.42-.37a1.7,1.7,0,0,1,.86.56.55.55,0,0,1,.11.35,2.18,2.18,0,0,1-.15.49,2.7,2.7,0,0,1-.27.5,6.13,6.13,0,0,1-.38.51,6.67,6.67,0,0,1-2.29,1.48,4.55,4.55,0,0,1-.61.28,3.32,3.32,0,0,1-.64.15,12.82,12.82,0,0,1-1.41.1c-.95,0-1.83.16-2.59.22s-1.39.18-1.83.23l-.69.12.7.1c.44,0,1.07.13,1.83.17s1.65.12,2.6.12a13.25,13.25,0,0,0,1.52,0,5.09,5.09,0,0,0,.82-.15,4.82,4.82,0,0,0,.79-.31l.05,0a2.64,2.64,0,0,1,1.3,1,1.63,1.63,0,0,1-.52,2.11,8.16,8.16,0,0,1-2.77,1.43,14.28,14.28,0,0,1-3.16.72c-1,.12-2,.23-2.87.26s-1.58.1-2.08.12l-.79.06.78.16c.5.07,1.21.22,2.07.28a19.16,19.16,0,0,0,3,.07,13.42,13.42,0,0,0,1.49-.18,4.09,4.09,0,0,1,.81,1.3,1.82,1.82,0,0,1-.48,1.86,3.27,3.27,0,0,1-2.17,1,24.35,24.35,0,0,1-2.73.2c-.89,0-1.73.15-2.45.21s-1.31.18-1.73.23l-.66.12.66.09c.42,0,1,.14,1.74.18s1.56.12,2.46.13H152a4.22,4.22,0,0,1,.67,1,1.69,1.69,0,0,1,.14.89,1.25,1.25,0,0,1-.39.75,3.07,3.07,0,0,1-2.11.6c-.87.08-1.74.14-2.56.15s-1.57,0-2.22,0-1.2-.11-1.58-.19l-.6-.11s.19.12.54.31a7.84,7.84,0,0,0,1.53.6,13.77,13.77,0,0,0,2.05.36,1.57,1.57,0,0,1,.38.63c.14.45-.2,1-.7,1.42a3.51,3.51,0,0,1-1.92.81,5,5,0,0,1-2.18-.09,9.92,9.92,0,0,1-1.91-.66c-.55-.26-1-.46-1.35-.63l-.52-.25.39.42a10.64,10.64,0,0,0,1.16,1,7.86,7.86,0,0,0,1.81,1c.1.13.21.28.31.43a1.83,1.83,0,0,1,.2,1.59,1.58,1.58,0,0,1-1.48.8,5.62,5.62,0,0,1-2.12-.17,8,8,0,0,1-1.82-.66,10,10,0,0,1-1.22-.73c-.29-.2-.45-.33-.45-.33s.1.18.3.48a5.78,5.78,0,0,0,1,1.1,6.34,6.34,0,0,0,1.88,1.06l.19,0a1.76,1.76,0,0,1,.37.56.92.92,0,0,1-.44,1.06,2.18,2.18,0,0,1-1.57.24,4,4,0,0,1-1.7-.55,9.18,9.18,0,0,1-1.4-.92c-.39-.33-.75-.58-1-.78l-.38-.3.22.43a7.83,7.83,0,0,0,.7,1.08,7.65,7.65,0,0,0,.93,1l.12.21a4.13,4.13,0,0,1,.51,1.49c0,.23,0,.28-.2.37a3.09,3.09,0,0,1-.81.17,3.84,3.84,0,0,1-1.79-.16,4.35,4.35,0,0,1-1.44-.74,5,5,0,0,1-.87-.85,3.47,3.47,0,0,1-.3-.39,3.25,3.25,0,0,0,.11.49,3.49,3.49,0,0,0,.62,1.19,6.23,6.23,0,0,0,.44.46,1.13,1.13,0,0,1,0,.26,1.18,1.18,0,0,1-.61.91,1.46,1.46,0,0,1-1.24.16,2.41,2.41,0,0,1-1.22-.72,6.56,6.56,0,0,1-.85-1.11c-.21-.38-.43-.7-.55-.93l-.22-.36,0,.42a5.94,5.94,0,0,0,.18,1.11l.06.18c0,.2,0,.42-.05.64a2.27,2.27,0,0,1-.19.71,23.47,23.47,0,0,0-1.35-2.75,4.37,4.37,0,0,0,.63-.57,3.17,3.17,0,0,0,.74-1.46,1.13,1.13,0,0,0,0-.18l.17.24a3.83,3.83,0,0,0,.24.63l.47.88c.2.27.41.54.61.79a5.83,5.83,0,0,0,.61.61,4.42,4.42,0,0,0,.5.38l.21.13-.09-.23c-.06-.13-.13-.34-.25-.56s-.23-.49-.4-.75-.33-.54-.49-.82l0-.06a2.7,2.7,0,0,0,1.34.17,2.51,2.51,0,0,0,1.57-1.07l.23.28.74.71a9,9,0,0,0,.71.56,6.23,6.23,0,0,0,.54.36l.23.12-.11-.23c-.08-.13-.17-.35-.32-.56s-.31-.49-.52-.74l-.66-.79a4.69,4.69,0,0,1-.5-.5,2.65,2.65,0,0,0-.07-1.44,2.53,2.53,0,0,0,.23.12,4.09,4.09,0,0,0,1.08.3,2.48,2.48,0,0,0,1.29-.17h0l.65.51,1,.63c.31.2.64.34.91.49a7.14,7.14,0,0,0,.67.29l.27.1-.18-.23a5.36,5.36,0,0,0-.5-.54c-.22-.2-.46-.46-.76-.69l-.92-.73-.51-.32a3.23,3.23,0,0,0,.76-1.45,3,3,0,0,0-.07-1.57h0a6.29,6.29,0,0,0,.75.66c.32.24.68.47,1,.69s.78.36,1.15.5a6.46,6.46,0,0,0,1.05.29c.31.07.58.07.76.1h.3l-.25-.16c-.16-.08-.38-.24-.66-.38s-.57-.34-.91-.5-.7-.37-1-.58-.53-.27-.78-.41a3.94,3.94,0,0,0,.83,0,1.74,1.74,0,0,0,.73-.32,1.58,1.58,0,0,0,.51-.62,3.06,3.06,0,0,0,.28-1.25,4.35,4.35,0,0,0-.18-1.55,7.57,7.57,0,0,0,.58.52,11.7,11.7,0,0,0,1.27.85,11.94,11.94,0,0,0,1.4.59,8.4,8.4,0,0,0,1.29.3,7.19,7.19,0,0,0,.93.06l.36,0-.33-.14c-.21-.07-.49-.22-.84-.35s-.73-.34-1.15-.51-.85-.41-1.27-.65a12.19,12.19,0,0,1-1.24-.71l-.26-.17a6,6,0,0,0,2.87-.1,2.46,2.46,0,0,0,1.4-1,1.77,1.77,0,0,0,.19-.51h0a3.93,3.93,0,0,0,.82.18l.79.13,1.57.16c.5,0,1,0,1.37,0s.75,0,1,0l.37,0L150,157c-.23-.06-.55-.19-1-.28s-.84-.22-1.34-.3l-1.55-.27c-.51-.06-1.12-.08-1.49-.17a1.18,1.18,0,0,1-.25-.1,2.58,2.58,0,0,0-.13-.42,3.62,3.62,0,0,0-1.12-1.45l.33.06a6,6,0,0,0,3.7-.57,4.22,4.22,0,0,0,.86-.73,3.8,3.8,0,0,1,.7-.06c.49,0,1.08.06,1.65.07s1.15-.06,1.68-.12a14.41,14.41,0,0,0,1.45-.25c.43-.09.77-.22,1-.29l.37-.14-.4,0c-.24,0-.61,0-1,0s-.92,0-1.44,0-1.08,0-1.64,0-1.11,0-1.68,0l-.21,0a.31.31,0,0,0,.05-.1,1.66,1.66,0,0,0,0-1.2,3.07,3.07,0,0,0-.55-.82,8.41,8.41,0,0,0-2.39-2.05l-.09-.05h.35c.72,0,1.57,0,2.46,0s1.86-.14,2.82-.22l2.79-.41c.89-.15,1.71-.35,2.41-.5s1.28-.34,1.69-.45l.63-.2L158,146c-.42,0-1,.06-1.73.14s-1.55.14-2.44.25-1.84.21-2.78.29-1.9.24-2.79.33l-.95.11a10.18,10.18,0,0,0,1.83-1.07c.26-.2.5-.41.74-.62a2.38,2.38,0,0,0,.72-.93,1.15,1.15,0,0,0,0-.8,1.89,1.89,0,0,0-.35-.51,6.8,6.8,0,0,0-.69-.64,6.24,6.24,0,0,0-.72-.5,11.5,11.5,0,0,0,1.42.21,21.74,21.74,0,0,0,2.44.07c.83-.06,1.66-.15,2.42-.26s1.48-.28,2.08-.4,1.1-.3,1.45-.39l.54-.17h-.57c-.36,0-.88,0-1.49.09l-2.09.15c-.76.07-1.57.13-2.37.14s-1.62.07-2.37,0-1.47,0-2.07-.11l-1-.12c-.21-.06-.43-.13-.63-.17a6.61,6.61,0,0,0-1.25-.15,18.44,18.44,0,0,0,3.59-1.53l.43-.28,2.22-.61c.91-.26,1.88-.53,2.85-.77s1.94-.54,2.85-.77l2.49-.66,1.77-.49.67-.19-.7,0c-.44,0-1.07.07-1.82.18s-1.64.22-2.57.42-1.92.42-2.9.67-2,.59-2.85.88l-.58.21a11.08,11.08,0,0,0,1.27-1.4,15.92,15.92,0,0,0,1-1.61C153.27,134.57,153.55,134.14,153.81,133.61ZM128.7,179.77c0-.11,0-.22,0-.32l0,.09A1.79,1.79,0,0,1,128.7,179.77Zm-4.12-12.86a4.6,4.6,0,0,0-.07-.69l-.08-.37a2,2,0,0,1-.06-.33,4.65,4.65,0,0,0,.39-.55,4.07,4.07,0,0,0,.48-1.51,1.44,1.44,0,0,0,0-.63,3.43,3.43,0,0,0,1.3.41h.32l0,0a5.72,5.72,0,0,1,.44.62l.56.64c.17.2.39.36.54.51a4.56,4.56,0,0,0,.44.32l.18.11-.05-.21a4.67,4.67,0,0,0-.2-.5,5.2,5.2,0,0,0-.34-.66l-.47-.71-.22-.25a3.34,3.34,0,0,0,2.43-1.84,3.11,3.11,0,0,0,.26-1.85.8.8,0,0,0,0-.15,3.18,3.18,0,0,0,.25.43l.51.8.57.76c.18.25.4.45.55.64s.33.32.43.43l.18.16,0-.24c-.05-.14-.08-.36-.17-.59a8.17,8.17,0,0,0-.34-.79c-.16-.27-.32-.55-.5-.84s-.41-.52-.61-.76l-.2-.2a2.17,2.17,0,0,0,.77.07,3.65,3.65,0,0,0,1.27-.35,1.91,1.91,0,0,1,.19.28c.2.26.37.7.66,1.2a4.51,4.51,0,0,0,.93,1.21l.06.25a2.83,2.83,0,0,1-.12,1.51,1.94,1.94,0,0,1-.94,1.2,2.13,2.13,0,0,1-1.55,0,5.07,5.07,0,0,1-1.43-.73,7.14,7.14,0,0,1-.93-.77,2.82,2.82,0,0,1-.34-.34,3.36,3.36,0,0,0,.16.46,4.44,4.44,0,0,0,.69,1.11,6.31,6.31,0,0,0,.58.57,4.89,4.89,0,0,1,.09.59,1.8,1.8,0,0,1,0,.65,1.09,1.09,0,0,0-.05.17,2.71,2.71,0,0,1-.22.49,1.48,1.48,0,0,1-1.1.78,1.94,1.94,0,0,1-1.42-.3,4.61,4.61,0,0,1-1.12-1c-.28-.36-.55-.67-.72-.9l-.28-.35s0,.16.09.44a6.7,6.7,0,0,0,.37,1.1,2.83,2.83,0,0,1-.23.65,3.55,3.55,0,0,1-.84,1,2.74,2.74,0,0,1-.48.36c-.19-.31-.39-.62-.6-.92l.08.09,0-.19A4,4,0,0,0,124.58,166.91Zm12.14-7.68a5.15,5.15,0,0,0-.24-.55c-.13-.21-.24-.47-.42-.72l-.54-.76a3.22,3.22,0,0,1-.49-.67l0-.08a2,2,0,0,0-.21-1.19,1.46,1.46,0,0,0-.17-.24,3.1,3.1,0,0,0,1.06,0,2.73,2.73,0,0,0,1.2-.43l.07,0a2.71,2.71,0,0,1,1,.29l1.26.42c.41.14.8.21,1.13.3s.63.11.82.15l.32,0-.26-.18c-.17-.1-.41-.28-.71-.44s-.65-.36-1-.53l-1.22-.53-.66-.19a1.55,1.55,0,0,0,.19-.36,3.73,3.73,0,0,0,.18-1.16l.49.22c.49.18,1.18.48,2,.72l1.16.32a6.09,6.09,0,0,1,.56.41,4,4,0,0,1,1.18,1.7,1,1,0,0,1,0,.83,1.59,1.59,0,0,1-.86.45,5.06,5.06,0,0,1-2.4.21,5.53,5.53,0,0,1-2-.7,6.5,6.5,0,0,1-1.27-.95,4.62,4.62,0,0,1-.44-.46,5.75,5.75,0,0,0,.27.59,4.61,4.61,0,0,0,1.08,1.33c.15.12.32.25.5.37a3.2,3.2,0,0,1,.25.68,4.57,4.57,0,0,1,0,1.77,2.35,2.35,0,0,1-.24.87.66.66,0,0,1-.52.33,6.31,6.31,0,0,1-1,.05,2.84,2.84,0,0,1-.92-.13,3.43,3.43,0,0,1-1.33-1,6.51,6.51,0,0,0-1-1l-.26-.17a3.24,3.24,0,0,0,1.52-1.41l.21.33.63.7a7.46,7.46,0,0,0,.62.56,4.23,4.23,0,0,0,.48.36l.2.12Zm8.29-8.39c-.29-.06-.7-.18-1.19-.27s-1.07-.22-1.68-.3L140.2,150a10.68,10.68,0,0,1-1.88-.25,7.49,7.49,0,0,1-1.28-.47l.22,0a8.75,8.75,0,0,0,1.11-.4,4.05,4.05,0,0,0,1.12-.68,2.25,2.25,0,0,0,.48-.69h.21c.53,0,1.29.13,2.21.23.56,0,1.19.12,1.87.11a4.36,4.36,0,0,1,1,.52,9.8,9.8,0,0,1,2,2.13,2.11,2.11,0,0,1,.37.58.62.62,0,0,1,0,.48,2.2,2.2,0,0,1-1,1,4.89,4.89,0,0,1-3,.57c-1.06-.1-2.1-.22-3-.36s-1.61-.23-2.12-.33l-.54-.09a10.13,10.13,0,0,0-.09-1.14,3.49,3.49,0,0,0-.29-.95,3.5,3.5,0,0,0,.56.24,12.26,12.26,0,0,0,2,.38l1.95.15c.62.05,1.21,0,1.71.05s.93,0,1.22,0l.46,0ZM123.54,166.2l.17-.09.11.31a4.79,4.79,0,0,0,.3.6C123.93,166.74,123.74,166.47,123.54,166.2Zm-2.36-10.56a6.93,6.93,0,0,0,2-4.14c.28-1.54.32-3.13.73-4.64a13.56,13.56,0,0,1,5.75-7.44,32.24,32.24,0,0,1,6.24-3.13,30.31,30.31,0,0,1,3.13-1.17c1.21-.31,2.42-.58,3.62-.89a23.48,23.48,0,0,0,6.81-2.63,5.27,5.27,0,0,1,1.87-.92h.24a1.68,1.68,0,0,1,.55.1,2,2,0,0,1,.15.34,2.83,2.83,0,0,1,.12.77,2.72,2.72,0,0,1-.22,1c-.14.39-.4.92-.63,1.44s-.49,1-.79,1.55a9.16,9.16,0,0,1-2.52,2.69,23.4,23.4,0,0,1-6.62,3c-1,.3-1.78.51-2.35.65l-.9.23.91-.14c.59-.09,1.42-.22,2.42-.43.77-.16,1.65-.35,2.57-.61a9,9,0,0,1,2,.46,7.76,7.76,0,0,1,2.55,1.54,6.13,6.13,0,0,1,.57.57,1,1,0,0,1,.16.23c0,.06,0,.06,0,.09a2.05,2.05,0,0,1-.46.46q-.33.28-.69.54a8.48,8.48,0,0,1-3,1.58,12.58,12.58,0,0,1-3,.35,14,14,0,0,0-2.26.18l-.12,0a2.46,2.46,0,0,0,.11-.45,3.25,3.25,0,0,0-.12-1.3,3.17,3.17,0,0,0-.39-.83,3.42,3.42,0,0,0,.79.1c.56,0,1.12-.05,1.69-.08l1.66-.21c.53-.06,1-.18,1.44-.25s.77-.19,1-.25l.39-.11-.4,0c-.25,0-.61-.06-1-.06s-.93,0-1.46,0l-1.67.1c-.57.06-1.14.15-1.64.18a4,4,0,0,1-1.33-.07l-.29-.26a3,3,0,0,0-1.36-.61,2.86,2.86,0,0,0-.55,0,2.56,2.56,0,0,1,.48.22,3.48,3.48,0,0,1,1,.85,3.62,3.62,0,0,1,.74,1.58,2.11,2.11,0,0,1,0,.9,1.14,1.14,0,0,1-.4.68,5,5,0,0,1-1.76,1,10.77,10.77,0,0,1-1.81.52,12.09,12.09,0,0,1-1.37.18,4.89,4.89,0,0,1-.53,0,4.85,4.85,0,0,0,.51.18,7,7,0,0,0,1.43.22c.22,0,.46,0,.71,0a1.66,1.66,0,0,1,.53.34,2.32,2.32,0,0,1,.46,1.49,4.43,4.43,0,0,1-.18,1.88,1.44,1.44,0,0,1-1.19,1,5.24,5.24,0,0,1-1.72,0,10.92,10.92,0,0,0-1.36-.09c-.33,0-.51.05-.51.05s.18,0,.48.17.72.3,1.25.47l.22.07a1.66,1.66,0,0,1,.33.68,1.49,1.49,0,0,1-.23,1.11,2.93,2.93,0,0,1-1,1,2.89,2.89,0,0,1-1.31.6,2.49,2.49,0,0,1-1.25,0,2.63,2.63,0,0,1-.86-.45,1.77,1.77,0,0,1-.29-.28,2,2,0,0,0,.12.41,2.39,2.39,0,0,0,.35.53,3.3,3.3,0,0,1,.07,1.09,3.08,3.08,0,0,1-.49,1.36,2.76,2.76,0,0,1-1.2,1,3.14,3.14,0,0,1-1.57.4,4.38,4.38,0,0,1-1.48-.24,6.44,6.44,0,0,1-1-.47c-.25-.14-.39-.24-.39-.24s.08.15.24.39a3.57,3.57,0,0,0,.9.87h0a1.93,1.93,0,0,1-.15.72,6.1,6.1,0,0,1-.68,1.14,2.13,2.13,0,0,1-1,.83l-.06,0-.52-.69a32.24,32.24,0,0,1-2.86-4.2,14.43,14.43,0,0,0,1.78-.42,12.3,12.3,0,0,0,2.62-1.24,10.88,10.88,0,0,0,1.61-1.24c.35-.34.53-.55.53-.55s-.23.15-.66.38a17.59,17.59,0,0,1-1.77.86,16.81,16.81,0,0,1-2.6.87,13.75,13.75,0,0,1-2,.36,13.41,13.41,0,0,1-.83-2.6A5.46,5.46,0,0,0,121.18,155.64ZM99.09,135.22l.14,0-.14,0Zm0-2.65v-.06l.16,0Zm0-2.88v-.07l.17,0Zm0-3v-.08l.19,0Zm0-3.15v-.08l.21,0ZM99,120v-.09l.23,0Zm0-3.52v-.1l.25,0Zm0-3.84v-.11l.28.06Zm0-4v-.12l.31.06Zm0-4.45V104l.35.06Zm0-4.53V99.5l.39.07Zm0-5v-.16l.43.08S99.07,94.63,98.8,94.67Zm0-5.19v-.17l.47.08Zm-.06-5.59V83.7c.33,0,.53.1.53.1Zm-.06-6v-.21c.38,0,.6.1.6.1Zm-.07-6.4v-.22a6.49,6.49,0,0,1,.66.11Zm-.08-6.68v-.25c.45.06.74.13.74.13S98.94,64.8,98.49,64.86Zm-.1-7.27v-.27c.51.06.84.13.84.13A7.81,7.81,0,0,1,98.39,57.59Zm-.1-7.67v-.24c.46.06.76.12.76.12A6.54,6.54,0,0,1,98.29,49.92Zm0-7.23a12.69,12.69,0,0,1-4.81,0,6.09,6.09,0,0,1-1.09-.3,6.09,6.09,0,0,1,1.09-.3,12.69,12.69,0,0,1,4.81,0,6.87,6.87,0,0,1,1.09.3A5.78,5.78,0,0,1,98.33,42.69Zm-5.6,7.09v0l-.11,0ZM97.56,7.24a1.29,1.29,0,0,1-1.3-1.33,1.37,1.37,0,0,1,1.36-1.33,1.29,1.29,0,0,1,1.3,1.33A1.38,1.38,0,0,1,97.56,7.24ZM98,26.67c0,1.85,0,3.7,0,5.44s0,3.35,0,4.74c0,2.32-.09,4-.1,4.48h0c0-.49,0-2.16-.1-4.48,0-1.39,0-3,0-4.74s0-3.59,0-5.44,0-3.69,0-5.43,0-3.35,0-4.74l.1-4.62.1,4.62c0,1.39,0,3,0,4.74S98,24.83,98,26.67ZM96.29,9.9a1.29,1.29,0,0,1,1.3,1.33,1.37,1.37,0,0,1-1.36,1.33,1.29,1.29,0,0,1-1.3-1.33A1.38,1.38,0,0,1,96.29,9.9Zm.44,19.33c0,1.53,0,3.06,0,4.5s0,2.77-.06,3.92-.05,2.1-.06,2.77c0,.43,0,.74,0,.91h0c0-.17,0-.48,0-.91,0-.67-.06-1.62-.07-2.77s0-2.49-.06-3.92,0-3,0-4.5,0-3.06,0-4.49,0-2.78.06-3.92.05-2.11.07-2.78,0-1.05,0-1.05,0,.38,0,1.05,0,1.63.07,2.78,0,2.48,0,3.92S96.72,27.7,96.73,29.23ZM95,15.23a1.29,1.29,0,0,1,1.3,1.33,1.37,1.37,0,0,1-1.36,1.33,1.29,1.29,0,0,1-1.3-1.33A1.38,1.38,0,0,1,95,15.23Zm.48,16.65c0,1.2,0,2.4,0,3.52s0,2.17-.06,3.07c0,1.45-.08,2.5-.09,2.86h0c0-.36-.06-1.41-.1-2.86,0-.9,0-1.94,0-3.07s0-2.32,0-3.52,0-2.4,0-3.53,0-2.17,0-3.07c0-1.8.1-3,.1-3s.06,1.2.1,3c0,.9,0,1.95.06,3.07S95.43,30.68,95.44,31.88Zm-1.8-11.32a1.28,1.28,0,0,1,1.29,1.33,1.38,1.38,0,0,1-1.36,1.33,1.3,1.3,0,0,1-1.3-1.33A1.37,1.37,0,0,1,93.64,20.56ZM94,34.72c0,.84,0,1.69,0,2.48s0,1.53,0,2.16c0,1-.07,1.67-.09,2h0c0-.3-.06-1-.09-2,0-.63,0-1.37,0-2.16s0-1.64,0-2.48,0-1.69,0-2.48,0-1.53,0-2.16c0-1.27.1-2.11.1-2.11s.06.84.1,2.11c0,.63,0,1.37,0,2.16S94,33.88,94,34.72Zm-1.69-8.83a1.28,1.28,0,0,1,1.29,1.33,1.38,1.38,0,0,1-1.36,1.33,1.3,1.3,0,0,1-1.3-1.33A1.37,1.37,0,0,1,92.31,25.89Zm.19,8.24c0-.81.1-1.36.1-1.36s.06.55.1,1.36.08,1.91.08,3,0,2.18-.08,3c0,.57-.07,1-.09,1.22h0c0-.22-.06-.65-.09-1.22,0-.81-.08-1.9-.08-3S92.46,35,92.5,34.13Zm6.52-10c0-2.16,0-4.32,0-6.35s0-3.92.06-5.54l.1-5.41.1,5.41c0,1.62,0,3.51,0,5.54s0,4.19,0,6.35,0,4.33,0,6.36,0,3.92,0,5.54c0,2.76-.09,4.73-.1,5.26h0c0-.53,0-2.5-.1-5.26,0-1.62,0-3.52-.06-5.54S99,26.34,99,24.17Zm-10.77,10c-.14.52-.26.94-.33,1.22l-.12.43.07-.44c0-.29.11-.72.21-1.25l.39-1.93c.16-.74.34-1.58.56-2.49.43-1.82.92-3.94,1.49-6.21s1.17-4.67,1.77-7.08c.31-1.21.61-2.42.9-3.6s.57-2.36.85-3.49a52.42,52.42,0,0,1,1.65-6.2,8.4,8.4,0,0,1,.58-1.25,2.6,2.6,0,0,1,.41-.53.91.91,0,0,1,.64-.29,1,1,0,0,1,.59.26,2.51,2.51,0,0,1,.34.42,7.65,7.65,0,0,1,.46.8c.24.49.4.89.52,1.15l.17.42s-.29-.56-.84-1.49a6,6,0,0,0-.5-.73c-.19-.24-.47-.52-.74-.51s-.5.36-.68.71a8.47,8.47,0,0,0-.48,1.21A59.78,59.78,0,0,0,94.8,9.48c-.24,1.15-.49,2.33-.77,3.53s-.58,2.4-.88,3.61c-.61,2.42-1.25,4.83-1.88,7.07S90,28,89.51,29.83,88.54,33.11,88.25,34.16Zm2.66-.29a1.3,1.3,0,0,1-1.3-1.33A1.38,1.38,0,0,1,91,31.21a1.29,1.29,0,0,1,1.29,1.33A1.37,1.37,0,0,1,90.91,33.87ZM40.73,131.11a1.43,1.43,0,0,1,.15-.34,1.68,1.68,0,0,1,.55-.1h.24a5.27,5.27,0,0,1,1.87.92,23.48,23.48,0,0,0,6.81,2.63c1.2.31,2.41.58,3.61.89a28.67,28.67,0,0,1,3.13,1.17,32,32,0,0,1,6.25,3.13,13.61,13.61,0,0,1,5.75,7.44c.41,1.51.45,3.1.73,4.64a6.87,6.87,0,0,0,2,4.14,4.73,4.73,0,0,0,1.61.9q-.57,1.29-1.26,2.58l-.19,0a16.67,16.67,0,0,1-2.59-.87,17.59,17.59,0,0,1-1.77-.86c-.43-.23-.67-.38-.67-.38s.19.21.54.55a10.37,10.37,0,0,0,1.61,1.24A12.2,12.2,0,0,0,71.75,160c-.37.68-.76,1.37-1.15,2.07s-.94,1.67-1.4,2.54l-.12-.14a6.1,6.1,0,0,1-.68-1.14,1.75,1.75,0,0,1-.15-.72h0a3.5,3.5,0,0,0,.89-.87,4.07,4.07,0,0,0,.25-.39s-.14.1-.39.24a6.21,6.21,0,0,1-1,.47,4.28,4.28,0,0,1-1.47.24,3.14,3.14,0,0,1-1.57-.4,2.76,2.76,0,0,1-1.2-1,3.08,3.08,0,0,1-.49-1.36,3.64,3.64,0,0,1,.06-1.09,2.48,2.48,0,0,0,.36-.53,2,2,0,0,0,.12-.41,2.53,2.53,0,0,1-.29.28,2.63,2.63,0,0,1-.86.45,2.49,2.49,0,0,1-1.25,0,3,3,0,0,1-1.32-.6,2.89,2.89,0,0,1-1-1,1.49,1.49,0,0,1-.23-1.11,1.55,1.55,0,0,1,.33-.68l.22-.07c.53-.17.94-.38,1.25-.47s.48-.17.48-.17-.18,0-.52-.05a10.89,10.89,0,0,0-1.35.09,5.24,5.24,0,0,1-1.72,0,1.44,1.44,0,0,1-1.19-1,4.27,4.27,0,0,1-.18-1.88,2.32,2.32,0,0,1,.46-1.49,1.66,1.66,0,0,1,.53-.34c.25,0,.49,0,.71,0a7,7,0,0,0,1.43-.22,4.85,4.85,0,0,0,.51-.18,5.13,5.13,0,0,1-.54,0,12.25,12.25,0,0,1-1.36-.18,10.77,10.77,0,0,1-1.81-.52,5.1,5.1,0,0,1-1.77-1,1.12,1.12,0,0,1-.39-.68,2.11,2.11,0,0,1,0-.9,3.61,3.61,0,0,1,.73-1.58,3.76,3.76,0,0,1,1-.85,3,3,0,0,1,.48-.22,2.75,2.75,0,0,0-.54,0,3,3,0,0,0-1.36.61L54,144a4,4,0,0,1-1.33.07c-.5,0-1.08-.12-1.64-.18l-1.67-.1c-.53,0-1,0-1.46,0s-.79,0-1,.06l-.4,0,.38.11c.25.06.6.17,1,.25s.91.19,1.44.25l1.66.21c.56,0,1.12.08,1.69.08a3.42,3.42,0,0,0,.79-.1,3.17,3.17,0,0,0-.39.83,3.25,3.25,0,0,0-.12,1.3,2.46,2.46,0,0,0,.11.45l-.12,0a14.2,14.2,0,0,0-2.26-.18,12.58,12.58,0,0,1-3-.35,8.48,8.48,0,0,1-3-1.58c-.24-.17-.47-.35-.7-.54a1.92,1.92,0,0,1-.45-.46s0,0,0-.09a.86.86,0,0,1,.15-.23,8.16,8.16,0,0,1,3.13-2.11,9.1,9.1,0,0,1,2-.46c.93.26,1.81.45,2.58.61,1,.21,1.83.34,2.41.43l.92.14-.9-.23c-.57-.14-1.39-.35-2.35-.65a23.4,23.4,0,0,1-6.62-3,9,9,0,0,1-2.52-2.69c-.3-.51-.55-1-.79-1.55s-.49-1-.64-1.44a3.18,3.18,0,0,1-.22-1A3.24,3.24,0,0,1,40.73,131.11Zm25.93,36a3.49,3.49,0,0,1-.24-.65,6,6,0,0,0,.38-1.1c.06-.28.09-.44.09-.44l-.29.35c-.16.23-.43.54-.72.9a4.38,4.38,0,0,1-1.11,1,1.94,1.94,0,0,1-1.42.3,1.48,1.48,0,0,1-1.1-.78,2.16,2.16,0,0,1-.22-.49A1.09,1.09,0,0,0,62,166a2.06,2.06,0,0,1,0-.65,4.83,4.83,0,0,1,.1-.59,6.31,6.31,0,0,0,.58-.57,4.44,4.44,0,0,0,.69-1.11c.11-.29.16-.46.16-.46a4.28,4.28,0,0,1-.34.34,7.89,7.89,0,0,1-.93.77,5.07,5.07,0,0,1-1.43.73,2.13,2.13,0,0,1-1.55,0,2,2,0,0,1-1-1.2,2.93,2.93,0,0,1-.11-1.51l.06-.25a4.51,4.51,0,0,0,.93-1.21c.29-.5.46-.94.65-1.2l.19-.28a3.71,3.71,0,0,0,1.28.35,2.17,2.17,0,0,0,.77-.07l-.2.2c-.2.24-.41.5-.61.76s-.35.57-.5.84a8.17,8.17,0,0,0-.34.79,5.36,5.36,0,0,0-.17.59l0,.24.18-.16c.1-.11.27-.24.43-.43s.37-.39.54-.64l.58-.76.51-.8a3.18,3.18,0,0,0,.25-.43c0,.05,0,.1,0,.15a3.2,3.2,0,0,0,.27,1.85,3.83,3.83,0,0,0,1.54,1.55,4,4,0,0,0,.88.29l-.21.25-.47.71a5.2,5.2,0,0,0-.34.66,3.21,3.21,0,0,0-.2.5l0,.21.18-.11a4.64,4.64,0,0,0,.43-.32c.16-.15.37-.31.55-.51s.37-.42.55-.64a7.35,7.35,0,0,1,.45-.62l0,0h.32a3.43,3.43,0,0,0,1.3-.41,1.44,1.44,0,0,0,0,.63,4.07,4.07,0,0,0,.48,1.51,3.72,3.72,0,0,0,.39.55.74.74,0,0,1,0,.12c-.4.78-.8,1.58-1.18,2.41A3.48,3.48,0,0,1,66.66,167.1ZM56.27,155.59a6.31,6.31,0,0,1-1.28.95,5.42,5.42,0,0,1-2,.7,5.05,5.05,0,0,1-2.4-.21,1.55,1.55,0,0,1-.86-.45,1,1,0,0,1,0-.83,3.89,3.89,0,0,1,1.18-1.7,5,5,0,0,1,.56-.41l1.16-.32c.86-.24,1.55-.54,2-.72.2-.1.36-.17.49-.22a3.73,3.73,0,0,0,.18,1.16,1.55,1.55,0,0,0,.19.36l-.66.19-1.22.53c-.39.17-.74.38-1,.53s-.54.34-.71.44l-.26.18.31,0c.2,0,.49-.07.83-.15s.72-.16,1.12-.3l1.27-.42a2.71,2.71,0,0,1,1-.29l.06,0a2.81,2.81,0,0,0,1.21.43,3,3,0,0,0,1,0,1.46,1.46,0,0,0-.17.24,2,2,0,0,0-.2,1.19s0,.05,0,.08a3.14,3.14,0,0,1-.48.67L57,158c-.18.25-.29.51-.42.72a5.15,5.15,0,0,0-.24.55l-.08.22.2-.12a5.37,5.37,0,0,0,.48-.36,7.46,7.46,0,0,0,.62-.56l.63-.7.21-.33a3.24,3.24,0,0,0,1.52,1.41l-.26.17a6.51,6.51,0,0,0-1,1,3.5,3.5,0,0,1-1.33,1,2.88,2.88,0,0,1-.92.13,6.31,6.31,0,0,1-1-.05.64.64,0,0,1-.52-.33,2.35,2.35,0,0,1-.24-.87,4.57,4.57,0,0,1,0-1.77,3.2,3.2,0,0,1,.25-.68c.18-.12.34-.25.49-.37a4.51,4.51,0,0,0,1.09-1.33,5.75,5.75,0,0,0,.27-.59A4.62,4.62,0,0,1,56.27,155.59ZM48.05,151c.29,0,.72,0,1.22,0s1.08,0,1.71-.05l2-.15a11.94,11.94,0,0,0,2-.38,3.25,3.25,0,0,0,.57-.24,3.49,3.49,0,0,0-.29.95,10.13,10.13,0,0,0-.09,1.14l-.54.09c-.51.1-1.25.18-2.12.33s-1.9.26-3,.36a4.94,4.94,0,0,1-3-.57,2.23,2.23,0,0,1-1-1,.68.68,0,0,1,0-.48,2.46,2.46,0,0,1,.38-.58,9.8,9.8,0,0,1,2-2.13,4.36,4.36,0,0,1,1-.52c.68,0,1.31-.07,1.86-.11.93-.1,1.68-.22,2.22-.23h.21a2.41,2.41,0,0,0,.47.69,4.25,4.25,0,0,0,1.13.68,8.23,8.23,0,0,0,1.11.4l.21,0a6.91,6.91,0,0,1-1.28.47,10.44,10.44,0,0,1-1.87.25l-1.94.26c-.62.08-1.19.21-1.68.3s-.9.21-1.19.27l-.44.13ZM26.67,127.19a1.54,1.54,0,0,1,.43-.06,3.29,3.29,0,0,1,.54.05,31.13,31.13,0,0,1,11.13,3.7,4.33,4.33,0,0,0,0,1.11c0,.12,0,.23.05.35-.69-.31-1.42-.51-2.13-.75L34.34,131c-.73-.2-1.44-.32-2-.46s-1.11-.2-1.46-.27l-.56-.08.51.24c.34.13.8.35,1.38.56s1.23.47,2,.7l2.28.72a16.84,16.84,0,0,1,2.23.67l.42.21.15.34c.27.53.54,1,.83,1.47a15.92,15.92,0,0,0,1,1.61,10.37,10.37,0,0,0,1.27,1.4l-.58-.21c-.91-.29-1.87-.6-2.85-.88s-2-.47-2.9-.67-1.82-.31-2.57-.42-1.39-.14-1.83-.18l-.69,0,.67.19,1.76.49,2.5.66c.91.23,1.88.49,2.85.77s1.94.51,2.84.77l2.23.61.43.28A18.44,18.44,0,0,0,47.8,141a6.52,6.52,0,0,0-1.25.15c-.2,0-.42.11-.63.17l-1,.12c-.61.07-1.32.08-2.07.11s-1.56,0-2.37,0-1.61-.07-2.37-.14L36,141.2c-.61-.06-1.13-.06-1.49-.09h-.57l.54.17c.35.09.84.26,1.45.39s1.31.3,2.07.4,1.6.2,2.43.26a21.74,21.74,0,0,0,2.44-.07,11.5,11.5,0,0,0,1.42-.21,6.24,6.24,0,0,0-.72.5,8.13,8.13,0,0,0-.7.64,2.15,2.15,0,0,0-.34.51,1.15,1.15,0,0,0,0,.8,2.38,2.38,0,0,0,.72.93c.24.21.48.42.74.62a10.18,10.18,0,0,0,1.83,1.07l-1-.11c-.89-.09-1.83-.2-2.78-.33s-1.89-.19-2.78-.29-1.73-.16-2.44-.25-1.31-.1-1.73-.14l-.66-.05.63.2c.41.11,1,.3,1.69.45s1.52.35,2.41.5l2.79.41,2.81.22c.9.05,1.75,0,2.47,0h.35l-.1.05a8.51,8.51,0,0,0-2.38,2.05,3.33,3.33,0,0,0-.56.82,1.66,1.66,0,0,0,0,1.2,1,1,0,0,0,0,.1l-.2,0c-.58,0-1.12,0-1.68,0s-1.12,0-1.64,0-1,0-1.44,0-.79,0-1,0l-.39,0,.37.14c.24.07.58.2,1,.29s.92.2,1.45.25,1.11.1,1.69.12,1.16-.07,1.65-.07a3.88,3.88,0,0,1,.7.06,4,4,0,0,0,.86.73,6,6,0,0,0,3.7.57l.32-.06a3.8,3.8,0,0,0-1.12,1.45,2.58,2.58,0,0,0-.12.42,1.18,1.18,0,0,1-.25.1c-.38.09-1,.11-1.49.17l-1.55.27c-.5.08-.95.21-1.35.3s-.71.22-.94.28l-.35.13.37,0c.24,0,.58,0,1,0s.88,0,1.38,0l1.57-.16.79-.13a4.07,4.07,0,0,0,.82-.18h0a1.52,1.52,0,0,0,.19.51,2.46,2.46,0,0,0,1.4,1,6,6,0,0,0,2.87.1l-.26.17a13.38,13.38,0,0,1-1.24.71c-.42.24-.85.46-1.27.65s-.8.38-1.15.51-.64.28-.84.35l-.33.14.36,0a7.19,7.19,0,0,0,.93-.06,8.4,8.4,0,0,0,1.29-.3,11.94,11.94,0,0,0,1.4-.59,11.7,11.7,0,0,0,1.27-.85c.21-.17.4-.35.58-.52a4.13,4.13,0,0,0-.18,1.55,3.06,3.06,0,0,0,.28,1.25,1.64,1.64,0,0,0,.5.62,1.78,1.78,0,0,0,.74.32,3.94,3.94,0,0,0,.83,0c-.25.14-.51.28-.78.41s-.7.41-1,.58-.64.37-.92.5-.49.3-.65.38l-.25.16h.29c.19,0,.46,0,.77-.1a6.46,6.46,0,0,0,1-.29c.37-.14.76-.32,1.15-.5s.71-.45,1-.69a7.19,7.19,0,0,0,.75-.66h0a2.94,2.94,0,0,0-.08,1.57A3.45,3.45,0,0,0,58.1,165l-.5.32-.92.73c-.3.23-.54.49-.77.69s-.37.41-.5.54l-.17.23.27-.1a7.14,7.14,0,0,0,.67-.29c.27-.15.6-.29.91-.49l1-.63.65-.51h0a2.46,2.46,0,0,0,1.29.17,4.09,4.09,0,0,0,1.08-.3,2.53,2.53,0,0,0,.23-.12,2.74,2.74,0,0,0-.08,1.44,4.5,4.5,0,0,1-.49.5l-.66.79c-.21.25-.36.52-.52.74s-.24.43-.32.56l-.11.23.23-.12c.12-.09.33-.19.54-.36a7.44,7.44,0,0,0,.7-.56l.75-.71.23-.28a2.51,2.51,0,0,0,1.57,1.07,2.72,2.72,0,0,0,1.34-.17l0,.06c-.16.28-.33.56-.49.82s-.28.53-.4.75-.19.43-.26.56l-.08.23.21-.13a3.68,3.68,0,0,0,.49-.38,5,5,0,0,0,.62-.61c.2-.25.4-.52.6-.79s.33-.6.47-.88a3.17,3.17,0,0,0,.25-.63l.17-.24c0,.06,0,.12,0,.18a3.2,3.2,0,0,0,.75,1.46c.07.08.16.16.24.24-.38.9-.74,1.83-1.06,2.8a2.23,2.23,0,0,1-.1-.43c0-.22,0-.44,0-.64l.06-.18a6.92,6.92,0,0,0,.18-1.11l0-.42-.22.36c-.13.23-.34.55-.55.93a6.15,6.15,0,0,1-.86,1.11,2.35,2.35,0,0,1-1.21.72A1.46,1.46,0,0,1,62,172a1.18,1.18,0,0,1-.61-.91,1.13,1.13,0,0,1,0-.26,6.23,6.23,0,0,0,.44-.46,3.68,3.68,0,0,0,.62-1.19,3.25,3.25,0,0,0,.11-.49,3.47,3.47,0,0,1-.3.39,5.44,5.44,0,0,1-.87.85,4.35,4.35,0,0,1-1.44.74,3.85,3.85,0,0,1-1.79.16,3.09,3.09,0,0,1-.81-.17c-.15-.09-.19-.14-.2-.37a4.13,4.13,0,0,1,.51-1.49l.12-.21a8.4,8.4,0,0,0,.93-1,7.83,7.83,0,0,0,.7-1.08l.22-.43-.39.3c-.22.2-.58.45-1,.78a10.29,10.29,0,0,1-1.4.92,4,4,0,0,1-1.7.55,2.22,2.22,0,0,1-1.58-.24.93.93,0,0,1-.43-1.06,1.76,1.76,0,0,1,.37-.56l.19,0a6.34,6.34,0,0,0,1.88-1.06,5.78,5.78,0,0,0,1-1.1A5,5,0,0,0,57,164s-.15.13-.44.33a10,10,0,0,1-1.22.73,8.23,8.23,0,0,1-1.82.66,5.67,5.67,0,0,1-2.13.17,1.57,1.57,0,0,1-1.47-.8,1.83,1.83,0,0,1,.2-1.59c.1-.15.21-.3.31-.43a7.77,7.77,0,0,0,1.8-1,9,9,0,0,0,1.16-1l.4-.42-.52.25c-.32.17-.8.37-1.35.63a9.92,9.92,0,0,1-1.91.66,5,5,0,0,1-2.18.09,3.48,3.48,0,0,1-1.92-.81c-.5-.43-.84-1-.7-1.42a1.46,1.46,0,0,1,.38-.63,13.4,13.4,0,0,0,2-.36,7.72,7.72,0,0,0,1.54-.6c.35-.19.54-.31.54-.31s-.22,0-.61.11-.93.12-1.57.19-1.41,0-2.22,0-1.69-.07-2.56-.15a3.07,3.07,0,0,1-2.11-.6,1.25,1.25,0,0,1-.39-.75,1.69,1.69,0,0,1,.14-.89,4.22,4.22,0,0,1,.67-1h.29c.9,0,1.74-.1,2.46-.13s1.31-.14,1.73-.18l.66-.09-.65-.12c-.42-.05-1-.17-1.73-.23s-1.56-.18-2.45-.21a24.7,24.7,0,0,1-2.74-.2,3.27,3.27,0,0,1-2.16-1A1.82,1.82,0,0,1,36,151.1a3.92,3.92,0,0,1,.81-1.3,13.42,13.42,0,0,0,1.49.18,19,19,0,0,0,3-.07c.87-.06,1.58-.21,2.08-.28l.78-.16-.79-.06c-.51,0-1.23-.09-2.08-.12s-1.84-.14-2.87-.26a14.28,14.28,0,0,1-3.16-.72,8.16,8.16,0,0,1-2.77-1.43,1.63,1.63,0,0,1-.52-2.11,2.6,2.6,0,0,1,1.3-1l0,0a4.82,4.82,0,0,0,.79.31,4.9,4.9,0,0,0,.82.15,13.25,13.25,0,0,0,1.52,0c.95,0,1.84-.09,2.6-.12s1.39-.14,1.83-.17l.7-.1-.69-.12c-.45,0-1.08-.17-1.83-.23s-1.65-.18-2.59-.22a12.82,12.82,0,0,1-1.41-.1,3.32,3.32,0,0,1-.64-.15,4.64,4.64,0,0,1-.62-.28,6.72,6.72,0,0,1-2.28-1.48c-.14-.16-.26-.34-.39-.51a3.46,3.46,0,0,1-.27-.5,2.08,2.08,0,0,1-.14-.49.55.55,0,0,1,.11-.35,1.68,1.68,0,0,1,.85-.56c1.2.08,2.33.19,3.42.37s2.38.39,3.34.62,1.8.41,2.36.57l.9.24-.82-.44a21.84,21.84,0,0,0-2.26-1,25.52,25.52,0,0,0-3.34-1c-1.24-.25-2.63-.43-3.93-.57a4.27,4.27,0,0,1-1.71-.44,3.58,3.58,0,0,1-1.16-1.22,9.68,9.68,0,0,1-.78-1.45.59.59,0,0,1,.07-.5,1.72,1.72,0,0,1,.49-.43,5.13,5.13,0,0,1,1.23-.53,6.76,6.76,0,0,0,.93.31c1.24.26,2.36.32,3.42.57s2,.46,2.86.74,1.52.51,2,.71.76.3.76.3l-.66-.49a14.4,14.4,0,0,0-1.86-1.09,16.25,16.25,0,0,0-2.87-1.1c-1.09-.31-2.32-.43-3.38-.71a4.58,4.58,0,0,1-1.47-.56,5.34,5.34,0,0,1-1.17-1,10,10,0,0,1-.91-1.2,4,4,0,0,1-.58-1.17A1.55,1.55,0,0,1,26.67,127.19Zm37.65,52.35.12-.29c0,.32,0,.65-.07,1C64.34,180,64.33,179.77,64.32,179.54Zm0-3.29c-.12.48-.26,1-.43,1.48s-.26,1-.42,1.48c-.05.14-.08.28-.12.42a11.33,11.33,0,0,1-1.4,1.46,2,2,0,0,1-1.23.61.85.85,0,0,1-.31-.06,1.56,1.56,0,0,1-.81-1.19,6.81,6.81,0,0,1-.17-1.49l.68-1.15.68-1.5a13.55,13.55,0,0,0,.45-1.37c.13-.4.17-.76.23-1l0-.4-.25.31c-.14.2-.38.48-.59.83s-.51.75-.75,1.21-.53.93-.79,1.41-.48,1-.7,1.46a5.28,5.28,0,0,0-.27.6,10.17,10.17,0,0,1-1.47,1.38,2.31,2.31,0,0,1-.79.45,1.13,1.13,0,0,1-.36.06.93.93,0,0,1-.52-.15,1.44,1.44,0,0,1-.5-1,8.35,8.35,0,0,1-.12-1.58l.06-.05c.45-.46.92-1,1.38-1.47s.84-1.09,1.21-1.61a17,17,0,0,0,.92-1.5c.26-.45.41-.86.54-1.13s.18-.45.18-.45l-.35.33c-.21.22-.54.5-.87.88s-.77.8-1.17,1.28-.85,1-1.3,1.49-.81,1-1.2,1.48a8.66,8.66,0,0,1-2.4,1.52,2,2,0,0,1-.79.2,1,1,0,0,1-.4-.09,1,1,0,0,1-.51-.72,3.15,3.15,0,0,1,0-.92c0-.67.08-1.35.13-2,.47-.37,1-.77,1.43-1.19s1-1,1.37-1.49a14.21,14.21,0,0,0,1-1.43,8.33,8.33,0,0,0,.61-1.1l.2-.43-.37.3c-.21.21-.55.48-.91.83s-.82.73-1.26,1.18-.93.9-1.42,1.34-.95.93-1.42,1.35-.86.86-1.24,1.19l-.27.26a3.81,3.81,0,0,1-.45.13,4,4,0,0,1-.69.06,1.88,1.88,0,0,1-.94-.21,2,2,0,0,1-.91-1.85c0-.46.38-1.18.42-1.67.56-.3,1.14-.62,1.71-1s1.24-.87,1.8-1.3a16.15,16.15,0,0,0,1.44-1.3,11.82,11.82,0,0,0,.93-1l.32-.42-.46.25c-.28.18-.7.39-1.17.7s-1,.61-1.61,1-1.2.78-1.84,1.15-1.22.82-1.82,1.18-1.11.75-1.59,1c-.23.14-.43.28-.61.41a8.76,8.76,0,0,1-1,.25,2.3,2.3,0,0,1-.45.05.78.78,0,0,1-.66-.26,1.07,1.07,0,0,1-.06-1,6.37,6.37,0,0,1,1.43-2.53c.52-.19,1-.4,1.56-.65A16.87,16.87,0,0,0,45,168.18a11.1,11.1,0,0,0,1.56-1.62,5.12,5.12,0,0,0,.53-.73l.35-.59c.18-.34.27-.54.27-.54l-.44.41c-.26.26-.68.6-1.15,1s-1.08.82-1.7,1.29a16.45,16.45,0,0,1-2.09,1.24,16.07,16.07,0,0,1-2.2,1l-1.25.45-.52,0c-.42,0-.83,0-1.25,0a2.14,2.14,0,0,1-1.71-.7,1.5,1.5,0,0,1,0-1.48,2.83,2.83,0,0,1,.38-.57,12.36,12.36,0,0,0,1.45-.49,16,16,0,0,0,2.59-1.55,16.22,16.22,0,0,0,1.93-1.73,17,17,0,0,0,1.2-1.37l.42-.56-.57.4-1.45,1.06c-.59.45-1.32.91-2.08,1.41a15,15,0,0,1-1.63.93l.73-.55a11.16,11.16,0,0,0,1.11-1,10.39,10.39,0,0,1-1.29.77,15.8,15.8,0,0,1-3,1.13c-1.14.3-2.31.49-3.19.63l-1.21.19q-.45-.09-.9-.21a3,3,0,0,1-.92-.38,1,1,0,0,1-.48-.84c0-.5.45-.86.85-1.15l2.59-1.86c.57-.08,1.14-.18,1.67-.3a14.81,14.81,0,0,0,2.55-.89,7.61,7.61,0,0,0,1-.48c.28-.16.52-.3.71-.43l.59-.4-.68.21c-.21.08-.47.15-.78.24l-1,.28c-.73.22-1.61.35-2.53.53a19.77,19.77,0,0,1-2.93.3,20.57,20.57,0,0,1-2.94,0h-.08c-1-.18-1.92-.37-2.86-.62a2.73,2.73,0,0,1-1.92-1.2,1.91,1.91,0,0,1,.95-2.29,3.63,3.63,0,0,1,1-.35h0a29.13,29.13,0,0,0,3.06.36,27.64,27.64,0,0,0,3.07-.16,16.87,16.87,0,0,0,2.63-.54,14,14,0,0,0,1.78-.62l.65-.3-.71.09c-.44.08-1.08.13-1.84.22s-1.65.13-2.59.2a26.51,26.51,0,0,1-3,0c-.45,0-.91,0-1.36-.06.78-.09,1.51-.18,2.12-.27l1.74-.24-1.76-.08c-1.05-.05-2.44-.13-3.82-.28a27.77,27.77,0,0,1-3.7-.64c-.53-.14-.94-.27-1.22-.36l-.07,0c-.58-.31-1.2-.7-1.35-1.34a1.61,1.61,0,0,1,.61-1.53,3.15,3.15,0,0,1,.84-.51c.25,0,.51.07.77.09,1,.09,2.15.11,3.25.1l3.2-.21c1,0,1.95-.16,2.76-.18s1.49-.05,2,0h.75s-.26-.09-.72-.22a12.53,12.53,0,0,0-2-.38,26.43,26.43,0,0,0-2.83-.16l-3.2.07a30.36,30.36,0,0,1-3.15,0l-.89,0a37.68,37.68,0,0,0,5.16-.93,37.07,37.07,0,0,1-5.39-.11,35,35,0,0,1-5-.87,20.45,20.45,0,0,1-2.8-2.1,1.19,1.19,0,0,1-.53-.91c0-.38.43-.62.78-.78a8.86,8.86,0,0,1,1.95-.62c.27.12.56.24.85.34a22.71,22.71,0,0,0,4,.89c1.4.13,2.78.18,4.06.23s2.49,0,3.51.1,1.87.1,2.47.18.94.12.94.12-.32-.13-.9-.33a18.11,18.11,0,0,0-2.45-.59c-1-.16-2.23-.35-3.51-.44s-2.65-.19-4-.37a20.56,20.56,0,0,1-3.87-.71c-.54-.16-1.05-.33-1.54-.52a21.36,21.36,0,0,0,3.16.11,19.59,19.59,0,0,1-3.93-1.26,18.1,18.1,0,0,1-3.13-1.76c-.78-.76-1.52-1.55-2.23-2.39a4.83,4.83,0,0,1-.78-1.18,1.76,1.76,0,0,1,0-1.37,1.82,1.82,0,0,1,1.66-.92h0a2.42,2.42,0,0,1,.47.05,18.23,18.23,0,0,0,1.62,1.08,29.6,29.6,0,0,0,4.5,2c1.59.52,3.16,1,4.65,1.46s2.9.77,4.11,1.06,2.25.41,3,.52l1.13.13-1.09-.34c-.69-.19-1.67-.54-2.84-.91s-2.53-.89-4-1.38-3-1-4.57-1.58A27.71,27.71,0,0,1,10.82,134c1.45.36,2.56.52,2.56.52A27.24,27.24,0,0,1,9,132.3a25.86,25.86,0,0,1-3.67-2.73,27.79,27.79,0,0,1-1.61-2.34,1.75,1.75,0,0,1-.37-1.37,1.26,1.26,0,0,1,1.24-.81h0a3.85,3.85,0,0,1,1.5.43l1.3.57.08,0c1.52.86,3.16,1.75,4.82,2.59s3.41,1.54,5,2.18,3.21,1.09,4.56,1.48,2.5.56,3.3.73l1.27.19-1.22-.4c-.77-.25-1.86-.64-3.17-1.12s-2.79-1.1-4.38-1.77-3.26-1.44-4.91-2.28-3.32-1.62-4.85-2.44l-.32-.17,2.76.83-3.65-2.2c-.92-.55-1.82-1.09-2.43-1.54-.44-.31-.73-.55-.87-.67-.27-.35-.53-.7-.78-1.06a2.83,2.83,0,0,1-.55-1.13,1.07,1.07,0,0,1,.44-1.11A.81.81,0,0,1,3,118.1a2.52,2.52,0,0,1,1.1.37,186.6,186.6,0,0,0,21.8,9.74,2,2,0,0,0,0,.42,5,5,0,0,0,.49,1.45,6.64,6.64,0,0,0,.87,1.41c-.94-.46-2-1-3.13-1.65l-3.86-2-3.95-1.79-3.49-1.44-2.52-.93-1-.32.85.56,2.3,1.38,3.32,1.83,3.86,1.95,3.95,1.79c1.27.53,2.48,1,3.54,1.39l1.38.39.08.06.22.13a4.45,4.45,0,0,0-.91.31,2.36,2.36,0,0,0-.75.53,1.36,1.36,0,0,0-.32,1.08,3.42,3.42,0,0,0,.33.95c.13.28.27.57.44.86a5.31,5.31,0,0,0,.87,1.14,24.3,24.3,0,0,1-3.08-1.48,39.43,39.43,0,0,0-4.48-2.08c-1.59-.55-3.19-1-4.65-1.5a34.5,34.5,0,0,1-4-1.39A17.32,17.32,0,0,1,9.62,130a11.14,11.14,0,0,1-1-.59s.28.31.82.81A18.18,18.18,0,0,0,12,132a34.44,34.44,0,0,0,3.91,1.82c1.47.55,3.05,1.08,4.57,1.67a37.46,37.46,0,0,1,4.43,1.86,19.49,19.49,0,0,0,4.12,1.4,8.75,8.75,0,0,0,1.55.13,2.12,2.12,0,0,0-.24.2,1.19,1.19,0,0,0-.34.72,2.62,2.62,0,0,0,.07.76,3.19,3.19,0,0,0,.27.72,4.58,4.58,0,0,0,.41.64A4.41,4.41,0,0,0,31.87,143l-.41-.08c-1.09-.16-2.37-.4-3.72-.68s-2.81-.55-4.24-.9-2.88-.63-4.21-1-2.6-.64-3.67-1-2-.53-2.6-.71l-1-.26.89.5c.59.31,1.42.73,2.45,1.2s2.26.9,3.58,1.38,2.79.83,4.25,1.19,3,.54,4.35.73,2.72.23,3.84.27h1.07a2.29,2.29,0,0,0-1.06.73,2,2,0,0,0-.46,1.56,2.69,2.69,0,0,0,.73,1.5c-.72-.11-1.51-.18-2.32-.28-1.06-.07-2.18-.17-3.3-.29s-2.25-.15-3.31-.24-2-.12-2.89-.19l-2.07-.09H17l.74.27c.48.15,1.17.36,2,.59s1.81.41,2.87.61,2.2.31,3.34.43,2.28.1,3.36.12,2.05-.09,2.88,0a5.9,5.9,0,0,1,.6,0l.43.25a11,11,0,0,0,1.63.74,12.71,12.71,0,0,0,1.59.39,3.23,3.23,0,0,0-1,1.11,2.52,2.52,0,0,0-.27,1.32,2.36,2.36,0,0,0,.1.46c-.73,0-1.59-.06-2.48-.07s-1.9,0-2.88,0-2,0-2.89,0-1.79,0-2.54,0-1.37,0-1.81,0l-.7,0,.66.23c.42.12,1,.3,1.77.48s1.61.29,2.55.42,1.95.15,3,.18,2-.1,3-.19,1.8-.24,2.54-.34l.2,0,.14.2a3.89,3.89,0,0,0,1.23,1,5.51,5.51,0,0,0,1.51.47,14.89,14.89,0,0,0,2.09.07,2.7,2.7,0,0,0-.72.77,2.61,2.61,0,0,0-.37,1,4.62,4.62,0,0,1-1,.27c-.63.18-1.37.35-2.17.5s-1.63.36-2.48.48-1.69.31-2.5.4-1.56.21-2.21.27-1.2.14-1.59.17l-.62.08.6.19c.38.09.93.21,1.6.33s1.46.14,2.31.15a24.83,24.83,0,0,0,2.65-.24,24.75,24.75,0,0,0,2.57-.68c.79-.31,1.51-.63,2.12-.93.24-.14.46-.27.67-.42a2,2,0,0,0,.48,1,2.88,2.88,0,0,0,1.31.79l.11,0a4,4,0,0,0-.47.21c-.73.4-1.44.89-2.13,1.36s-1.33,1-2,1.38-1.25.84-1.79,1.16-1,.63-1.3.81l-.49.32.58-.09c.37-.09.89-.22,1.51-.41s1.3-.51,2-.86,1.45-.83,2.17-1.31,1.32-1,1.95-1.43a6.66,6.66,0,0,1,1.68-.91q.9,0,1.77,0a1.44,1.44,0,0,0-.26.37,1.78,1.78,0,0,0-.07,1.23,2.58,2.58,0,0,0,.69,1.11,4.24,4.24,0,0,0,.62.5c-.38.25-.71.55-1.1.82s-1,.79-1.5,1.16-1,.82-1.49,1.18-.93.73-1.32,1-.71.57-.94.75l-.36.3.46-.11,1.15-.41c.45-.2,1-.46,1.54-.76s1.09-.7,1.64-1.1,1-.88,1.46-1.32.78-.93,1.09-1.19a4.75,4.75,0,0,0,1.16.37,6.08,6.08,0,0,0,1.81-.06,2.3,2.3,0,0,0-.46,2.07,2.17,2.17,0,0,0,.82,1.07c-.2.1-.43.22-.69.37s-.86.48-1.32.8l-1.49.95-1.44,1c-.47.31-.87.66-1.24.93s-.64.53-.85.7l-.31.28.4-.13c.24-.11.61-.22,1-.42s.91-.42,1.4-.71l1.52-.92,1.43-1.06c.46-.34.84-.72,1.18-1a7.38,7.38,0,0,0,.63-.64,3.41,3.41,0,0,0,1.21.38,6.34,6.34,0,0,0,1.46-.09l-.05.07a1.47,1.47,0,0,0-.21,1.05,1.69,1.69,0,0,0,.58,1c-.4.24-.83.48-1.28.81s-1,.73-1.54,1.13-1,.85-1.44,1.26-.83.84-1.17,1.19-.58.68-.77.9l-.27.36.38-.24c.23-.17.58-.38,1-.68s.85-.61,1.32-1,1-.77,1.49-1.16,1-.82,1.46-1.2.89-.78,1.25-1.07l0,0a3.45,3.45,0,0,0,1.89.33,5.35,5.35,0,0,0,1.2-.35,2,2,0,0,0-.3.84,1.52,1.52,0,0,0,.07.62c-.16.25-.35.51-.56.78-.36.47-.81.95-1.25,1.44l-1.21,1.51c-.39.48-.71,1-1,1.35s-.51.76-.67,1l-.24.39.34-.3c.21-.2.52-.47.87-.83s.76-.75,1.17-1.22.84-.95,1.28-1.44.83-1,1.2-1.54a4.58,4.58,0,0,0,.38-.63,1.37,1.37,0,0,0,.27.22,3.51,3.51,0,0,0,1.2.37,4.81,4.81,0,0,0,2.25-.35l.06,0-.19.26c-.25.38-.57.8-.85,1.27l-.91,1.5-.83,1.53c-.26.49-.47,1-.66,1.38s-.32.75-.43,1l-.15.39.27-.32c.15-.21.39-.5.64-.87s.56-.79.85-1.27l.91-1.49c.28-.53.56-1,.83-1.54s.47-1,.66-1.37c.1-.21.19-.41.26-.58a1.77,1.77,0,0,0,.68,1.34,2.47,2.47,0,0,0,1.9.49c0,.07-.1.13-.14.21a14,14,0,0,0-.8,1.7c-.19.6-.38,1.2-.55,1.76s-.31,1.09-.47,1.52-.28.81-.4,1.06l-.16.4.28-.33a8.27,8.27,0,0,0,.63-1,12.94,12.94,0,0,0,.68-1.48c.21-.55.42-1.14.64-1.72a13.08,13.08,0,0,1,.68-1.66c.14-.28.27-.54.41-.78a3.84,3.84,0,0,0,1-.89l.06-.1a2.54,2.54,0,0,0,.32,1.12c-.14.49-.27,1-.4,1.51,0-.23-.07-.43-.09-.58s-.1-.38-.1-.38l-.12.37c0,.23-.18.56-.27,1S64.37,175.77,64.27,176.25Zm58.9,14.44a12.72,12.72,0,0,1-2.91,3.56,20,20,0,0,1-8.75,4,55.49,55.49,0,0,1-10,1.25c-1.68.07-3.32.12-5,.15s-3.27,0-4.87,0a66.84,66.84,0,0,1-9.12-.8,25.25,25.25,0,0,1-7.66-2.46A13.42,13.42,0,0,1,70,191.83a15.54,15.54,0,0,1-2-4.88c-.18-.72-.27-1.38-.38-2s-.15-1.06-.18-1.47c-.06-.8-.1-1.23-.1-1.23s0,.43,0,1.24a20.89,20.89,0,0,0,.23,3.51,15.59,15.59,0,0,0,1.72,5.26,14.09,14.09,0,0,0,5,5.21A20,20,0,0,0,78,199.32c-7.31-2.41-11.6-7.32-11.6-16.89,0-16,10.91-21.59,10.91-33.64,0-10.94-5.94-16.32-5.94-25.34,0-7.6,1.51-12.06,6.17-12.06,1.12,0,1.13,3,1.42,6.48-.1-.61-.19-1.19-.28-1.73-.18-1.09-.36-2-.51-2.64s-.28-1-.28-1,0,.37,0,1,0,1.57.07,2.68.1,2.42.28,3.81a21.43,21.43,0,0,0,.36,2.15,18.41,18.41,0,0,0,.61,2.19,11.7,11.7,0,0,0,1,2.09,7,7,0,0,0,1.49,1.75,5.34,5.34,0,0,0,1.9,1.05,5.81,5.81,0,0,0,1.88.25,7.62,7.62,0,0,0,2.7-.56,5.08,5.08,0,0,0,.69-.33l.23-.13a8.47,8.47,0,0,1-1,.24,9.58,9.58,0,0,1-1.14.14,9,9,0,0,1-1.45,0,6.37,6.37,0,0,1-1.28-.28,6.2,6.2,0,0,0,1.54.18A7.57,7.57,0,0,0,90,127.59L89.86,139a1.5,1.5,0,0,0,0,.22,1.11,1.11,0,0,1-.36-.23,1.85,1.85,0,0,1-.34-.63c-.06-.22-.12-.4-.15-.52l0-.19,0,.19a3.25,3.25,0,0,0-.1.55,1.89,1.89,0,0,0,.11,1,2,2,0,0,0,.92.94,4.8,4.8,0,0,0,1.22.49c.08-8,.16-16.59.24-25.14.12-8.85.24-17.7.36-26s.28-16,.4-22.68.27-12.16.35-16,.15-6.08.15-6.08,0,2.21,0,6.08,0,9.41,0,16,0,14.38-.13,22.68-.16,17.15-.24,26-.25,17.69-.36,26-.29,16-.4,22.67c-.08,4.46-.18,8.41-.25,11.7,0,1.61,0,3.06,0,4.33,0,3.8,0,6,0,6.08h0l.1.05a.63.63,0,0,1,.19.18.44.44,0,0,1,0,.55.45.45,0,0,1-.55,0,.48.48,0,0,1-.17-.18.36.36,0,0,1,0-.1.4.4,0,0,0,0,.12.55.55,0,0,0,.08.32.59.59,0,0,0,.43.28.72.72,0,0,0,.58-.19.78.78,0,0,0,.16-.28.41.41,0,0,0,0-.16s0,0,0-.07a.16.16,0,0,0,0-.07.59.59,0,0,0-.28-.43.48.48,0,0,0-.32-.08.19.19,0,0,0-.1,0c0-.08.06-2.28.16-6.07,0-1.55.07-3.37.12-5.42h1.4v-.57H91.51c0-.27,0-.55,0-.83h1.35v-2.12H91.57c0-1,.05-2,.07-3.11l.5,0,.73,0V168l-.73,0h-.49c0-.25,0-.5,0-.75h1.21v-7.2H91.79c0-.26,0-.5,0-.76h.33l.73,0V159l-.73,0h-.33c0-2.54.1-5.21.15-8h.18l.74,0v-.31l-.74,0H92c0-.25,0-.5,0-.75h.9c0-2.34,0-4.75,0-7.2h-.8c0-.25,0-.5,0-.75h0l.76,0v-.3h-.79a2.44,2.44,0,0,1,0-.27V141l.52.09.27,0q0-2.87,0-5.79l-.12,0,.12,0c0-.88,0-1.77,0-2.66l-.13,0,.13,0c0-.93,0-1.88,0-2.82l-.14,0,.14,0c0-1,0-2,0-3a.63.63,0,0,1-.16,0l.16,0c0-1,0-2.06,0-3.09l-.17,0,.17,0c0-1.13,0-2.26,0-3.4l-.19,0,.19,0c0-1.15,0-2.3,0-3.45l-.21,0,.21,0v-.74l0-3-.24,0,.24,0c0-1.32,0-2.63,0-3.94l-.28-.06.28,0c0-1.45,0-2.9,0-4.35l-.32-.06.32-.06c0-1.47,0-2.94,0-4.41l-.36-.06.36-.07c0-1.62,0-3.24,0-4.84l-.4-.07.4-.07c0-1.64,0-3.27,0-4.87v-.18l-.45-.08.45-.08c0-1.84,0-3.65.06-5.42l-.51-.09.51-.09c0-2,0-3.9.07-5.78-.36-.05-.58-.1-.58-.1s.22,0,.58-.1c0-2.13.06-4.2.09-6.19-.38-.05-.63-.1-.67-.11h0l.67-.1c0-1.5,0-3,.06-4.37,0-.71,0-1.41,0-2.09-.37,0-.63-.1-.72-.12h0c.09,0,.35-.07.72-.12,0-2.54.07-4.89.11-7l-.82-.12v0c.11,0,.41-.08.83-.12,0-2.46.08-4.63.11-6.43,0-.32,0-.62,0-.92l-.2,0c-.32,0-.58-.07-.75-.1v-.09a5.93,5.93,0,0,1,.75-.11l.21,0c.06-3.09.09-4.82.09-4.82s0,1.73,0,4.81h.15V50L94,50c0,.3,0,.6,0,.92,0,3.87,0,9.41,0,16.06s0,14.39,0,22.7-.09,17.16-.13,26-.16,17.72-.23,26-.2,16-.28,22.69c0,2.55-.07,4.93-.11,7.12,0,1.73-.06,3.33-.08,4.8s0,2.92,0,4.14c0,3.27,0,5.35.06,5.92h0v0l.1,0a.61.61,0,0,1,.18.18.44.44,0,0,1,0,.55.45.45,0,0,1-.55,0,.48.48,0,0,1-.17-.18.36.36,0,0,1,0-.1.4.4,0,0,0,0,.12.55.55,0,0,0,.08.32.59.59,0,0,0,.43.28.71.71,0,0,0,.58-.19.78.78,0,0,0,.16-.28.75.75,0,0,0,0-.16v-.07s0-.05,0-.07a.59.59,0,0,0-.28-.43.48.48,0,0,0-.32-.08.33.33,0,0,0-.11,0c0-.57.06-2.65.12-5.92,0-1.59.06-3.46.09-5.57h1.43v-.57H93.43c0-.27,0-.55,0-.83h1.39c0-.69,0-1.4,0-2.12H93.49c0-1,0-2,0-3.06l1.28,0V168l-1.27,0c0-.24,0-.48,0-.71H94.8c0-.89,0-1.8,0-2.73,0-1.44,0-2.94,0-4.47H93.64c0-.24,0-.47,0-.71l1.13,0c0-.13,0-.26,0-.39l-1.11,0c0-2.52.07-5.16.1-7.89l1,0v-.39l-1,0c0-.23,0-.47,0-.7h1c0-2.34,0-4.75,0-7.2h-.87v-.71l.87,0v-.38h0l-.86,0v-.66l.32,0,.54,0c0-1.89,0-3.8,0-5.73l-.81-.07v-.32c.24,0,.52-.05.81-.06v-2.26L94,132.7v-.32c.24,0,.51,0,.79-.06v-2.44c-.27,0-.53,0-.76-.06v-.33l.76-.06v-2.6l-.74-.06v-.34l.73-.05v-2.71l-.71,0v-.34l.71-.06v-3l-.68,0c0-.12,0-.23,0-.35l.68,0v-3.08l-.66,0v-.36l.65,0v-3.39l-.64,0v-.35l.64-.05c0-1.2,0-2.4,0-3.59l-.64-.05v-.36l.64,0c0-1.34,0-2.68,0-4l-.63,0v-.37l.64,0c0-1.37,0-2.73,0-4.08l-.63,0v-.37l.63,0c0-1.52,0-3,0-4.52l-.63,0c0-.13,0-.25,0-.38l.62,0c0-1.57,0-3.12,0-4.66v-.08l-.62,0V89.2l.63,0q0-2.61,0-5.13l-.64,0v-.38l.64,0c0-1.87,0-3.7,0-5.49l-.67,0v-.39l.67,0c0-2,0-4,0-5.94l-.72,0v-.39l.72,0c0-1.44,0-2.86,0-4.21,0-.68,0-1.35,0-2l-.76,0v-.39l.77,0q0-3.69.07-6.8l-.86-.05v-.39l.86,0c0-2.41.06-4.54.08-6.31,0-.29,0-.57,0-.84l-1-.05V49.6l1-.05c0-3,.06-4.74.06-4.74s0,1.7,0,4.74h.17v.52h-.16c0,.27,0,.55,0,.84,0,1.77,0,3.89,0,6.3h0v.51h0c0,2.75,0,5.86,0,9.27,0,6.65.06,14.41.06,22.73s0,17.18,0,26.05-.08,17.74-.11,26.05-.11,16.08-.16,22.73q0,3.83-.07,7.13c0,1.81,0,3.5-.06,5s0,2.76,0,3.92c.06,3.87.11,6.09.11,6.09s0-2.22.08-6.09c0-1.63,0-3.56.07-5.73h1.45c0-.19,0-.38,0-.57H95.36c0-.27,0-.55,0-.83H96.8c0-.69,0-1.4,0-2.12H95.4c0-1,0-2,0-3l.88,0h.43v-.46h-.43l-.88,0c0-.22,0-.45,0-.67h1.29c0-.85,0-1.71,0-2.6,0-1.48,0-3,0-4.6H95.49c0-.23,0-.45,0-.68l.81,0h.37c0-.14,0-.3,0-.45H95.5c0-2.5,0-5.11.06-7.81h1.06v-.45h-.31l-.74,0v-.67h1c0-2.34,0-4.75,0-7.2h-.95v-.67h.95v-.45h-.94v-.56h.94c0-1.88,0-3.78,0-5.71h-.89V135h.89c0-.73,0-1.47,0-2.2h-.87v-.52h.87c0-.79,0-1.58,0-2.38h-.85v-.52h.84c0-.84,0-1.69,0-2.54h-.82v-.52h.82c0-.88,0-1.76,0-2.65H95.7v-.52h.79c0-1,0-2,0-3h-.77v-.51h.77c0-1,0-2,0-3h-.74v-.52h.73v-3.33h-.73v-.51h.73v-3.53h-.73v-.51h.73c0-1.32,0-2.64,0-4h-.72v-.52h.72v-4h-.71v-.52h.71V94.85h-.71v-.52h.7V89.65h-.7v-.52h.7c0-1.71,0-3.41,0-5.08h-.72v-.52h.72c0-1.86,0-3.67,0-5.45h-.74v-.51h.74c0-2,0-4,0-5.9H95.7v-.51h.77c0-1.43,0-2.83,0-4.17,0-.68,0-1.35,0-2h-.81c0-.17,0-.34,0-.51h.82c0-2.44,0-4.71,0-6.77h-.9V57.2h.9c0-2.41,0-4.53,0-6.3,0-.29,0-.57,0-.85l-.74,0h-.25v-.52h1c0-3,0-4.74,0-4.74s0,1.7.06,4.75h.18V50h-.18c0,.27,0,.56,0,.85,0,1.77,0,3.89.07,6.3h.06v.49h-.06c0,2.76.06,5.89.09,9.3,0,6.66.11,14.43.15,22.76s.07,17.2.1,26.08,0,17.76,0,26.08,0,16.09,0,22.75c0,2.55,0,4.94,0,7.14q0,2.9,0,5.31c0,1.34,0,2.57.06,3.66.08,3.87.15,6.09.15,6.09s0-2.22,0-6.1c0-1.66,0-3.64,0-5.88h1.49c0-.19,0-.38,0-.57H97.29v-.83h1.46c0-.69,0-1.4,0-2.12H97.3c0-1,0-2,0-3l1.36,0c0-.18,0-.35,0-.53l-1.35,0v-.64h1.35c0-.8,0-1.62,0-2.46,0-1.52,0-3.11,0-4.74H97.34v-.64l1.24,0c0-.17,0-.35,0-.52l-1.22,0c0-2.48,0-5.07,0-7.75h1.13c0-.17,0-.34,0-.51l-1.12,0c0-.22,0-.43,0-.64h1.11c0-2.34,0-4.75-.08-7.2h-1v-.64h1v-.51l-1,0v-.57c.35,0,.68,0,1-.08,0-1.88,0-3.79,0-5.72h-.11l-.86.07V135l.86.07h.11c0-.8,0-1.61,0-2.43h-.09l-.86.07v-.44l.86.07h.08c0-.86,0-1.73,0-2.6h-.06l-.87.07v-.44l.87.07h.06c0-.91,0-1.84,0-2.76h0c-.26,0-.55.06-.87.07v-.44l.87.07h0c0-.95,0-1.91,0-2.86h0l-.87.07v-.44l.87.07h0l0-3.17-.85.07v-.45l.85.07,0-3.21-.83.06v-.44l.83.06v-.37c0-1,0-2.1,0-3.16l-.82.07v-.45l.82.07c0-1.25,0-2.49,0-3.73l-.81.07v-.45l.81.06c0-1.38,0-2.76,0-4.13l-.8.06v-.45c.28,0,.55,0,.8.06l0-4.21-.79.07v-.46l.79.06c0-1.56,0-3.1,0-4.64l-.79.06v-.46l.78.06c0-1.55,0-3.09,0-4.61v-.25c-.24,0-.5,0-.78.06v-.46l.78.06c0-1.78,0-3.53,0-5.25l-.79.06v-.46c.29,0,.55,0,.79.06,0-1.92,0-3.79,0-5.62l-.81.06V77.6l.8.06c0-2.09,0-4.11,0-6.06q-.39,0-.84.06v-.47l.83.06c0-1.45,0-2.86,0-4.22V64.91q-.4,0-.87.06V64.5q.47,0,.87.06c0-2.5,0-4.82,0-6.93q-.42,0-.93.06v-.48l.93.07V50l-1,.08v-.47l1,.07V44.81s0,1.74.07,4.84h0l.17,0v.26L98,50h0c0,.3,0,.62,0,.95,0,1.79.06,3.94.09,6.38h.09v.31h-.09c0,2.11.06,4.44.1,7h0v0c0,.79,0,1.6,0,2.42.07,6.66.16,14.44.24,22.78s.14,17.22.22,26.11.1,17.78.15,26.11,0,16.11.07,22.78c0,2.55,0,4.94,0,7.14v5.62c0,1.23,0,2.36.07,3.37.1,3.87.2,6.09.2,6.09V174.89h1.52c0-.19,0-.38,0-.57H99.21v-.83h1.49c0-.69,0-1.4,0-2.12H99.21v-3l1.27,0h.14c0-.2,0-.39,0-.59h-.13l-1.27,0v-.6h1.39c0-.76,0-1.53,0-2.32,0-1.57,0-3.2-.07-4.88h-1.3v-.61l1.29,0v-.58l-1.28,0q0-3.71,0-7.69h1.2c0-.19,0-.38,0-.57l-1.19,0v-.61h1.18c0-2.34-.07-4.75-.11-7.2h-1.1v-.61h1.1v-.57l-1.1,0V141c.37-.06.73-.12,1.09-.21-.1-8-.21-16.38-.32-24.82-.09-8.9-.19-17.79-.27-26.14s-.14-16.13-.2-22.8c-.08-13.35-.14-22.25-.14-22.25s.16,8.89.39,22.24c.09,6.68.21,14.46.33,22.8s.22,17.25.33,26.14.19,17.8.28,26.15.14,16.13.2,22.8c0,2.56,0,4.95,0,7.15s0,4.19,0,6c.14,5.74.32,9.14.32,9.14s0-4.66-.07-12.3h3.54a.29.29,0,0,0,0-.57h-3.55v-.83h2.77a1.06,1.06,0,0,0,0-2.12h-2.78c0-1,0-1.92,0-2.93l3.54,0H105v-.32l0-4.47,0-4.48v-.32h-.32l-3.62,0q0-3.67-.06-7.64l3.68,0H105V151l0-4.48,0-4.48v-.32h-.32l-3.77,0c0-.36,0-.71,0-1.07a4.66,4.66,0,0,0,.83-.34h0a7.57,7.57,0,0,0,3.09,1.25,8.55,8.55,0,0,0,2.17.12,9.62,9.62,0,0,0,2.36-.42,6.92,6.92,0,0,0,2.3-1.19,7.66,7.66,0,0,0,1.74-2,13.39,13.39,0,0,0,1.64-4.71,39,39,0,0,0,.47-4.25c.08-1.24.14-2.27.22-3s.14-1.13.14-1.13-.1.4-.22,1.12-.25,1.75-.42,3a39.39,39.39,0,0,1-.74,4.17,12.71,12.71,0,0,1-1.83,4.33,6.15,6.15,0,0,1-3.48,2.46c7.38-2.86,3.9-16.84,7.22-16.84,3.62,0,5,3,5,10.58,0,8.35-5.47,11.8-5.47,20.05,0,5.89,2.6,9,5.27,12.56-.8-1-1.58-1.83-2.24-2.68a16.75,16.75,0,0,1-2.69-4.58,15.61,15.61,0,0,1-.81-3.36c-.08-.8-.11-1.23-.11-1.23s0,.43,0,1.24a14.35,14.35,0,0,0,.48,3.5,15.42,15.42,0,0,0,.89,2.38,19.67,19.67,0,0,0,1.52,2.58c1.18,1.77,2.72,3.59,4,5.73a19.82,19.82,0,0,1,2.72,7.49c.12.7.18,1.43.23,2.15,0,.36,0,.72,0,1.09v1.16a25.75,25.75,0,0,1-.46,4.51A15.42,15.42,0,0,1,123.17,190.69Zm-18.84-40.05-3.38,0v-.58h2.23a.56.56,0,0,0,.56-.56v-6.09a.56.56,0,0,0-.56-.55h-2.29v-.59l3.45,0,0,4.17Zm0,13,0,4.16-3.24,0v-.58h2.09a.56.56,0,0,0,.56-.56v-6.09a.55.55,0,0,0-.56-.55H101v-.59l3.3,0ZM191,119.32a3,3,0,0,1-.55,1.13c-.25.36-.51.71-.78,1.06-.14.12-.43.36-.87.67-.61.45-1.52,1-2.43,1.54l-3.66,2.2,2.77-.83-.32.17c-1.53.82-3.18,1.66-4.85,2.44s-3.32,1.61-4.91,2.28-3.08,1.31-4.39,1.77-2.39.87-3.16,1.12l-1.22.4,1.27-.19c.8-.17,2-.35,3.3-.73s2.93-.84,4.56-1.48,3.34-1.38,5-2.18,3.31-1.73,4.83-2.59l.08,0,1.3-.57a3.85,3.85,0,0,1,1.5-.43h0a1.26,1.26,0,0,1,1.24.81,1.83,1.83,0,0,1-.37,1.37,27.79,27.79,0,0,1-1.61,2.34,26.14,26.14,0,0,1-3.68,2.73,26.92,26.92,0,0,1-4.39,2.17s1.11-.16,2.56-.52a27.71,27.71,0,0,1-4.23,1.73c-1.54.56-3.11,1.09-4.57,1.58s-2.81,1-4,1.38-2.15.72-2.84.91l-1.09.34,1.13-.13c.72-.11,1.75-.24,3-.52s2.63-.61,4.11-1.06,3.06-.94,4.65-1.46a29.05,29.05,0,0,0,4.49-2,17.06,17.06,0,0,0,1.63-1.08,2.42,2.42,0,0,1,.47-.05h0a1.82,1.82,0,0,1,1.66.92,1.76,1.76,0,0,1,0,1.37,4.53,4.53,0,0,1-.77,1.18c-.71.84-1.45,1.63-2.23,2.39a18.5,18.5,0,0,1-3.13,1.76,19.57,19.57,0,0,1-3.94,1.26,21.49,21.49,0,0,0,3.17-.11c-.49.19-1,.36-1.55.52a20.31,20.31,0,0,1-3.86.71c-1.34.18-2.7.28-4,.37s-2.49.28-3.52.44a17.9,17.9,0,0,0-2.44.59c-.58.2-.9.33-.9.33s.34-.06.94-.12,1.45-.12,2.47-.18,2.22-.05,3.5-.1,2.67-.1,4.06-.23a22.52,22.52,0,0,0,4-.89c.3-.1.58-.22.86-.34a8.86,8.86,0,0,1,1.95.62c.35.16.74.4.78.78a1.22,1.22,0,0,1-.53.91,20.45,20.45,0,0,1-2.8,2.1,35,35,0,0,1-5,.87,37.22,37.22,0,0,1-5.4.11,38,38,0,0,0,5.17.93l-.89,0a30.33,30.33,0,0,1-3.15,0l-3.21-.07a26.23,26.23,0,0,0-2.82.16,12.53,12.53,0,0,0-2,.38c-.46.13-.72.22-.72.22h.75c.48,0,1.16,0,2,0s1.75.13,2.76.18l3.2.21c1.1,0,2.21,0,3.25-.1.26,0,.52-.06.76-.09a3.05,3.05,0,0,1,.85.51,1.61,1.61,0,0,1,.61,1.53c-.15.64-.77,1-1.35,1.34l-.08,0c-.27.09-.68.22-1.21.36a27.77,27.77,0,0,1-3.7.64c-1.38.15-2.78.23-3.83.28l-1.75.08,1.74.24c.61.09,1.34.18,2.12.27-.45,0-.91.05-1.36.06a26.51,26.51,0,0,1-3,0c-.94-.07-1.84-.08-2.59-.2s-1.4-.14-1.85-.22l-.7-.09.65.3a14,14,0,0,0,1.78.62,16.87,16.87,0,0,0,2.63.54,27.64,27.64,0,0,0,3.07.16,29.13,29.13,0,0,0,3.06-.36h0a3.63,3.63,0,0,1,1,.35,1.91,1.91,0,0,1,.94,2.29,2.69,2.69,0,0,1-1.91,1.2c-.94.25-1.9.44-2.86.62h-.08a20.58,20.58,0,0,1-2.94,0,19.77,19.77,0,0,1-2.93-.3c-.92-.18-1.8-.31-2.53-.53l-1-.28c-.31-.09-.57-.16-.78-.24l-.68-.21.59.4c.19.13.43.27.7.43a8.58,8.58,0,0,0,1,.48,14.51,14.51,0,0,0,2.55.89c.53.12,1.1.22,1.67.3l2.59,1.86c.4.29.84.65.85,1.15a1.1,1.1,0,0,1-.48.84,3,3,0,0,1-.92.38q-.45.12-.9.21l-1.21-.19a32.36,32.36,0,0,1-3.19-.63,15.55,15.55,0,0,1-3-1.13,10.39,10.39,0,0,1-1.29-.77,11.16,11.16,0,0,0,1.11,1c.21.17.47.36.73.55a16.22,16.22,0,0,1-1.64-.93c-.75-.5-1.48-1-2.07-1.41l-1.45-1.06-.57-.4.42.56a17,17,0,0,0,1.2,1.37,15.47,15.47,0,0,0,1.93,1.73,16.33,16.33,0,0,0,2.58,1.55,13.75,13.75,0,0,0,1.45.49,2.5,2.5,0,0,1,.39.57,1.5,1.5,0,0,1,0,1.48,2.16,2.16,0,0,1-1.72.7c-.41,0-.83,0-1.24,0l-.52,0-1.25-.45a16.75,16.75,0,0,1-2.21-1,17,17,0,0,1-2.08-1.24c-.62-.47-1.24-.87-1.7-1.29s-.89-.76-1.16-1l-.44-.41.27.54.36.59a5.89,5.89,0,0,0,.52.73,11.77,11.77,0,0,0,1.57,1.62,16.87,16.87,0,0,0,2.15,1.46c.52.25,1,.46,1.56.65a6.37,6.37,0,0,1,1.43,2.53,1.07,1.07,0,0,1-.06,1,.81.81,0,0,1-.67.26A2.2,2.2,0,0,1,152,174a8.76,8.76,0,0,1-1-.25l-.61-.41c-.48-.29-1-.69-1.6-1s-1.21-.76-1.81-1.18-1.26-.77-1.84-1.15-1.15-.69-1.61-1-.89-.52-1.17-.7l-.46-.25.32.42a13.26,13.26,0,0,0,.92,1,17.93,17.93,0,0,0,1.45,1.3c.56.43,1.17.87,1.79,1.3s1.15.66,1.71,1c0,.49.42,1.21.43,1.67a2,2,0,0,1-.91,1.85,1.91,1.91,0,0,1-.94.21,4,4,0,0,1-.69-.06,3.81,3.81,0,0,1-.45-.13l-.27-.26c-.38-.33-.78-.77-1.25-1.19s-.94-.88-1.41-1.35-1-.9-1.42-1.34-.9-.82-1.26-1.18-.7-.62-.92-.83l-.36-.3.19.43a11.59,11.59,0,0,0,.61,1.1,16,16,0,0,0,1,1.43c.43.49.89,1,1.37,1.49s1,.82,1.44,1.19c.05.68.09,1.36.13,2a3.15,3.15,0,0,1,0,.92,1,1,0,0,1-.52.72.9.9,0,0,1-.4.09,2,2,0,0,1-.78-.2,8.51,8.51,0,0,1-2.4-1.52c-.4-.47-.8-1-1.2-1.48s-.89-1-1.3-1.49-.84-.89-1.17-1.28-.67-.66-.87-.88l-.35-.33s.06.17.17.45.29.68.55,1.13.54,1,.91,1.5.79,1.07,1.22,1.61.93,1,1.38,1.47l.06.05a8.35,8.35,0,0,1-.12,1.58,1.44,1.44,0,0,1-.5,1,.93.93,0,0,1-.52.15,1.13,1.13,0,0,1-.36-.06,2.31,2.31,0,0,1-.79-.45,10.17,10.17,0,0,1-1.47-1.38,5.28,5.28,0,0,0-.27-.6c-.22-.47-.46-1-.7-1.46l-.79-1.41c-.24-.46-.54-.85-.75-1.21s-.46-.63-.59-.83l-.25-.31.05.4c.06.24.1.6.23,1a13.55,13.55,0,0,0,.45,1.37c.22.48.45,1,.67,1.5s.47.77.69,1.15a7.48,7.48,0,0,1-.17,1.49,1.56,1.56,0,0,1-.81,1.19.91.91,0,0,1-.32.06,2,2,0,0,1-1.22-.61,11.33,11.33,0,0,1-1.4-1.46c0-.14-.07-.28-.12-.42-.16-.47-.3-1-.43-1.48s-.3-1-.42-1.48-.27-.93-.35-1.32-.22-.72-.27-1-.12-.37-.12-.37l-.1.38c0,.17-.07.39-.11.65-.14-.5-.29-1-.46-1.45a2.58,2.58,0,0,0,.4-1.25l.06.1a3.7,3.7,0,0,0,1.05.89c.13.24.27.5.41.78a14.74,14.74,0,0,1,.68,1.66c.21.58.43,1.17.64,1.72a12.94,12.94,0,0,0,.68,1.48,7.15,7.15,0,0,0,.63,1l.28.33-.17-.4c-.11-.25-.23-.62-.39-1.06s-.29-1-.47-1.52l-.56-1.76a14,14,0,0,0-.79-1.7l-.14-.21a2.47,2.47,0,0,0,1.9-.49,1.77,1.77,0,0,0,.68-1.34c.07.17.15.37.26.58.19.4.39.88.66,1.37s.55,1,.83,1.54l.91,1.49c.29.48.6.9.85,1.27s.49.66.64.87l.26.32-.14-.39c-.11-.24-.23-.59-.43-1s-.4-.89-.66-1.38l-.83-1.53-.91-1.5c-.29-.47-.6-.89-.85-1.27l-.19-.26.06,0a4.81,4.81,0,0,0,2.25.35,3.51,3.51,0,0,0,1.2-.37,1.74,1.74,0,0,0,.27-.22,4.58,4.58,0,0,0,.38.63c.36.52.79,1,1.2,1.54l1.28,1.44c.41.47.83.86,1.17,1.22s.66.63.87.83l.34.3-.24-.39c-.16-.23-.38-.59-.67-1s-.62-.87-1-1.35L138.54,173c-.44-.49-.89-1-1.25-1.44-.21-.27-.4-.53-.56-.78a1.52,1.52,0,0,0,.07-.62,2,2,0,0,0-.3-.84,5.35,5.35,0,0,0,1.2.35,3.46,3.46,0,0,0,1.89-.33l0,0c.36.29.78.7,1.25,1.07s1,.78,1.45,1.2,1,.78,1.5,1.16.94.69,1.32,1,.74.51,1,.68l.38.24-.27-.36c-.19-.22-.43-.55-.77-.9s-.72-.79-1.17-1.19-.94-.84-1.44-1.26-1-.78-1.54-1.13-.88-.57-1.28-.81a1.69,1.69,0,0,0,.58-1,1.52,1.52,0,0,0-.21-1.05l0-.07a6.34,6.34,0,0,0,1.46.09,3.3,3.3,0,0,0,1.2-.38c.17.18.38.41.64.64s.72.68,1.17,1l1.44,1.06,1.52.92c.49.29,1,.5,1.39.71s.78.31,1,.42l.4.13-.31-.28c-.21-.17-.49-.43-.85-.7s-.77-.62-1.24-.93l-1.44-1-1.49-.95c-.46-.32-.94-.56-1.32-.8s-.5-.27-.7-.37a2.14,2.14,0,0,0,.83-1.07,2.33,2.33,0,0,0-.46-2.07,6.08,6.08,0,0,0,1.81.06,4.55,4.55,0,0,0,1.15-.37c.32.26.67.74,1.1,1.19s.94.89,1.46,1.32,1.1.77,1.64,1.1,1.08.56,1.54.76l1.15.41.45.11-.35-.3c-.23-.18-.56-.43-.94-.75s-.85-.64-1.32-1-1-.76-1.49-1.18-1-.77-1.5-1.16-.72-.57-1.1-.82a4.24,4.24,0,0,0,.62-.5,2.56,2.56,0,0,0,.68-1.11,1.73,1.73,0,0,0-.06-1.23,1.44,1.44,0,0,0-.26-.37c.58,0,1.17,0,1.76,0a6.49,6.49,0,0,1,1.68.91c.64.4,1.28.91,2,1.43s1.46.93,2.17,1.31,1.43.63,2,.86,1.14.32,1.5.41l.59.09-.5-.32c-.32-.18-.77-.46-1.29-.81s-1.16-.71-1.79-1.16-1.33-.88-2-1.38-1.4-1-2.13-1.36a4.84,4.84,0,0,0-.47-.21l.11,0a2.8,2.8,0,0,0,1.3-.79,1.82,1.82,0,0,0,.48-1c.21.15.44.28.68.42.6.3,1.33.62,2.12.93a24.1,24.1,0,0,0,2.57.68,24.83,24.83,0,0,0,2.65.24c.85,0,1.64-.08,2.31-.15s1.22-.24,1.6-.33l.59-.19-.61-.08c-.39,0-.94-.08-1.59-.17s-1.41-.13-2.21-.27-1.66-.22-2.5-.4-1.7-.29-2.48-.48-1.54-.32-2.17-.5a4.44,4.44,0,0,1-.95-.27,2.61,2.61,0,0,0-.37-1,2.84,2.84,0,0,0-.72-.77,14.94,14.94,0,0,0,2.09-.07,5.44,5.44,0,0,0,1.5-.47,3.93,3.93,0,0,0,1.24-1l.13-.2.21,0c.74.1,1.6.2,2.54.34s2,.15,3,.19,2-.09,3-.18,1.81-.28,2.55-.42,1.34-.36,1.77-.48l.66-.23-.7,0c-.44,0-1.07,0-1.81,0s-1.61,0-2.54,0-1.91,0-2.89,0-2,0-2.89,0-1.74.05-2.47.07a1.79,1.79,0,0,0,.09-.46,2.34,2.34,0,0,0-.27-1.32,3.13,3.13,0,0,0-1-1.11,13.15,13.15,0,0,0,1.59-.39,12,12,0,0,0,1.63-.74l.42-.25c.2,0,.4,0,.61,0,.82,0,1.8,0,2.88,0s2.22-.06,3.36-.12,2.28-.27,3.34-.43,2-.42,2.87-.61,1.51-.44,2-.59l.75-.27h-.79l-2.07.09c-.85.07-1.84.13-2.9.19s-2.17.18-3.3.24-2.24.22-3.3.29c-.81.1-1.6.17-2.32.28a2.69,2.69,0,0,0,.73-1.5,2,2,0,0,0-.46-1.56,2.34,2.34,0,0,0-1.06-.73h1.07c1.12,0,2.43-.14,3.84-.27s2.87-.44,4.35-.73,2.9-.77,4.24-1.19,2.56-.94,3.59-1.38,1.86-.89,2.45-1.2l.89-.5-1,.26c-.63.18-1.52.44-2.61.71s-2.31.64-3.66,1-2.77.7-4.21,1-2.88.65-4.24.9-2.63.52-3.73.68l-.4.08a4.57,4.57,0,0,0,1.17-1.07,4.48,4.48,0,0,0,.4-.64,2.77,2.77,0,0,0,.27-.72,2.31,2.31,0,0,0,.08-.76,1.25,1.25,0,0,0-.34-.72,2.12,2.12,0,0,0-.24-.2,8.75,8.75,0,0,0,1.55-.13,19.23,19.23,0,0,0,4.11-1.4,38.93,38.93,0,0,1,4.43-1.86c1.53-.59,3.1-1.12,4.58-1.67a34.44,34.44,0,0,0,3.91-1.82,18.18,18.18,0,0,0,2.49-1.77c.54-.5.82-.81.82-.81a11.14,11.14,0,0,1-1,.59,17.32,17.32,0,0,1-2.68,1.3,35.2,35.2,0,0,1-4,1.39c-1.46.48-3.06,1-4.65,1.5a38.64,38.64,0,0,0-4.48,2.08,24.3,24.3,0,0,1-3.08,1.48,5.31,5.31,0,0,0,.87-1.14c.17-.29.31-.58.44-.86a3.77,3.77,0,0,0,.33-.95,1.37,1.37,0,0,0-.33-1.08,2.22,2.22,0,0,0-.74-.53,4.45,4.45,0,0,0-.91-.31l.22-.13.08-.06,1.38-.39c1.05-.37,2.26-.86,3.54-1.39l4-1.79,3.86-1.95,3.32-1.83,2.3-1.38.85-.56-1,.32-2.52.93-3.5,1.44-3.94,1.79-3.87,2c-1.13.62-2.18,1.19-3.12,1.65a6.64,6.64,0,0,0,.87-1.41,5,5,0,0,0,.49-1.45,2,2,0,0,0,0-.42,187.35,187.35,0,0,0,21.8-9.74,2.53,2.53,0,0,1,1.09-.37.85.85,0,0,1,.44.11A1.07,1.07,0,0,1,191,119.32Z"/><path class="cls-1" d="M147.72,137.31a11.81,11.81,0,0,1-2.77,1.56,35.28,35.28,0,0,1-4.34,1.34,23.09,23.09,0,0,0-5,1.86,8.75,8.75,0,0,0-3.72,4.06,6.1,6.1,0,0,0-.4,2.55c0,.79.12,1.5.09,2.15a6.88,6.88,0,0,1-.8,3,5.94,5.94,0,0,1-.46.77l-.19.26.23-.22a7.73,7.73,0,0,0,.61-.7,6.59,6.59,0,0,0,1.23-3.09c.16-1.4-.07-3,.58-4.37a7.65,7.65,0,0,1,3.38-3.47,22.67,22.67,0,0,1,4.76-1.91,25.57,25.57,0,0,0,4.33-1.69,9.89,9.89,0,0,0,2.65-2,6.65,6.65,0,0,0,.77-1A7,7,0,0,1,147.72,137.31Z"/><path class="cls-1" d="M129.93,150.29s0-.26,0-.72a14.36,14.36,0,0,1,.18-1.87,10.08,10.08,0,0,1,.74-2.49,6.93,6.93,0,0,1,1.66-2.38,9.53,9.53,0,0,1,2.4-1.72,20.82,20.82,0,0,1,2.42-1.06l1.78-.65.68-.25-.72.1c-.45.08-1.11.16-1.88.36a13.82,13.82,0,0,0-2.6.86,10.11,10.11,0,0,0-2.65,1.76,7.79,7.79,0,0,0-1.75,2.7,9.15,9.15,0,0,0-.42,4.65C129.86,150,129.93,150.29,129.93,150.29Z"/><path class="cls-1" d="M123.71,155.08a8,8,0,0,0,1.13-2,16,16,0,0,0,.73-2.46l.41-2.47c.14-.78.24-1.51.41-2.12a9.8,9.8,0,0,1,.44-1.46,5.44,5.44,0,0,1,.21-.55s-.14.16-.36.47a8.07,8.07,0,0,0-.74,1.39,15,15,0,0,0-.66,2.13c-.16.78-.34,1.61-.52,2.45a15.49,15.49,0,0,1-.59,2.37,10.36,10.36,0,0,1-.84,1.94,7.17,7.17,0,0,1-.89,1.22,4.83,4.83,0,0,1-.42.41,4.87,4.87,0,0,0,.52-.29A5.22,5.22,0,0,0,123.71,155.08Z"/><path class="cls-1" d="M139.8,136.66c.57-.13,1.26-.26,2-.46l2.22-.63,2.18-.77c.7-.25,1.32-.54,1.87-.76s1-.46,1.3-.61l.48-.25-.54.1c-.33.08-.82.17-1.39.32s-1.24.3-1.94.52l-2.21.66-2.18.73c-.69.23-1.33.5-1.88.7s-1,.42-1.32.55l-.5.22.54-.07C138.73,136.85,139.22,136.79,139.8,136.66Z"/><path class="cls-1" d="M135.77,145.94a3.78,3.78,0,0,0-.56.1,2.94,2.94,0,0,0-.39.13l-.14.07.15.06a2.34,2.34,0,0,0,.38.13c.16,0,.34.09.54.11l.61.07H137c.2,0,.39-.05.55-.06a2.55,2.55,0,0,0,.4-.08l.15,0-.14-.09a2.71,2.71,0,0,0-.37-.17A3.16,3.16,0,0,0,137,146l-.63-.09Z"/><path class="cls-1" d="M132.87,151.33l-.13,0,.1.09c.07,0,.17.13.28.19s.25.15.4.2l.46.19.48.13a4.14,4.14,0,0,0,.44.08c.13,0,.25,0,.33,0h.14l-.08-.12a1.24,1.24,0,0,0-.23-.25,3.13,3.13,0,0,0-.38-.28l-.48-.23-.52-.11a2.51,2.51,0,0,0-.47,0A1.31,1.31,0,0,0,132.87,151.33Z"/><path class="cls-1" d="M131.64,155.67a1.64,1.64,0,0,0-.28-.16,1,1,0,0,0-.24-.08H131v.1a.92.92,0,0,0,0,.25,1,1,0,0,0,.12.29l.19.3.27.23a1.28,1.28,0,0,0,.28.15,1.06,1.06,0,0,0,.23.08l.11,0v-.11a1.48,1.48,0,0,0,0-.24,1.3,1.3,0,0,0-.13-.3l-.19-.29Z"/><path class="cls-1" d="M126.81,159.19c-.07-.07-.17-.11-.21-.15l-.1,0,0,.11a1.93,1.93,0,0,0,0,.26,1.43,1.43,0,0,0,.06.34l.12.35.21.31a1.36,1.36,0,0,0,.24.24,1.05,1.05,0,0,0,.21.15l.1.05,0-.11a1,1,0,0,0,0-.26,1.47,1.47,0,0,0-.05-.34l-.12-.35-.21-.31A1.36,1.36,0,0,0,126.81,159.19Z"/><path class="cls-1" d="M122.46,162.71l-.15-.36a1.21,1.21,0,0,0-.19-.29,1.24,1.24,0,0,0-.18-.2l-.09-.07,0,.11a1.26,1.26,0,0,0-.06.26,2,2,0,0,0,0,.35l.06.39c0,.12.1.24.14.36s.14.2.19.29a1.92,1.92,0,0,0,.19.2l.09.07,0-.11a2.61,2.61,0,0,0,.06-.26,2,2,0,0,0,0-.35Z"/><path class="cls-1" d="M131.09,141.13a7.41,7.41,0,0,1,1.43-1,10.44,10.44,0,0,1,2.27-.88,20.92,20.92,0,0,1,2.75-.53l2.8-.39a19.6,19.6,0,0,0,2.42-.54,9.74,9.74,0,0,0,1.63-.65,6.54,6.54,0,0,0,.58-.32s-.21.11-.6.27a12.15,12.15,0,0,1-1.66.51,19.05,19.05,0,0,1-2.41.44l-2.81.34a20.57,20.57,0,0,0-2.79.58,11,11,0,0,0-2.28,1,7.51,7.51,0,0,0-1.38,1.09,6.28,6.28,0,0,0-.43.5A5.1,5.1,0,0,1,131.09,141.13Z"/><path class="cls-1" d="M185.22,121.21l-1.43.62-1.42.67-1.22.6-1.17.64s.51-.17,1.25-.46l1.26-.51,1.44-.62,1.41-.67,1.22-.6c.71-.37,1.17-.64,1.17-.64s-.5.17-1.25.46Z"/><path class="cls-1" d="M181.62,129.72l1.56-.79,1.52-.87,1.29-.82c.74-.5,1.22-.86,1.22-.86l-1.32.7-1.34.72-1.53.83-1.54.83-1.33.72-1.31.72s.57-.2,1.39-.55Z"/><path class="cls-1" d="M179.72,137.64c.48-.2,1-.41,1.49-.64s1-.49,1.44-.74.86-.49,1.22-.71c.69-.44,1.14-.77,1.14-.77l-1.24.6c-.36.19-.8.4-1.26.62s-.95.46-1.45.69-1,.47-1.46.68l-1.28.58-1.25.57s.54-.14,1.33-.39C178.79,138,179.24,137.83,179.72,137.64Z"/><path class="cls-1" d="M175.69,145.43l1-.11,1-.19.87-.21c.5-.14.83-.27.83-.27l-.87.08-.88.11-1,.14-1,.15-.88.15-.85.18s.35,0,.87,0Z"/><path class="cls-1" d="M168.47,151.88l1.15,0h1.16l1,0,1-.08s-.39-.06-1-.11l-1-.07-1.15,0h-1.16l-1,0c-.59,0-1,.09-1,.09l1,.11Z"/><path class="cls-1" d="M164.92,158.13l1,.05h1l.89-.06c.52-.06.86-.12.86-.12l-.86-.08-.89,0-1,0H164l-.87,0s.34.08.86.15Z"/><path class="cls-1" d="M158.93,162.93l.88.43.91.34.82.24c.49.11.82.15.82.15l-.76-.34c-.23-.09-.49-.2-.77-.33s-.59-.24-.88-.38-.61-.25-.89-.38l-.76-.34-.77-.32s.26.21.67.49Z"/><path class="cls-1" d="M153.17,166.37c.26.2.54.41.82.6s.59.36.88.52.56.27.8.37c.49.19.82.28.82.28l-.73-.45-.74-.46q-.42-.25-.84-.54c-.29-.18-.57-.37-.83-.56l-.71-.5-.7-.5a7.47,7.47,0,0,0,.57.65C152.7,166,152.93,166.16,153.17,166.37Z"/><path class="cls-1" d="M150.31,170.45l.52.41.53.4.46.34.48.32a3.91,3.91,0,0,0-.34-.46l-.41-.43c-.16-.15-.33-.3-.51-.44s-.38-.27-.56-.38l-.51-.29c-.32-.14-.54-.21-.54-.21l.43.38Z"/><path class="cls-1" d="M145.45,172.5c.19.18.39.39.59.6s.41.41.59.61.37.37.51.53l.52.52a6.46,6.46,0,0,0-.37-.64c-.12-.18-.27-.39-.44-.61s-.37-.43-.56-.65-.43-.4-.64-.58-.42-.33-.6-.46a5.15,5.15,0,0,0-.63-.38l.51.53C145.09,172.12,145.26,172.3,145.45,172.5Z"/><path class="cls-1" d="M140.76,174.87c.17.19.34.41.51.62l.52.62.46.54.47.52s-.11-.26-.31-.63l-.38-.61-.49-.66-.56-.6-.53-.49a5.45,5.45,0,0,0-.56-.42l.42.56Z"/><path class="cls-1" d="M136.72,177.6c.11.19.22.39.32.6a5.7,5.7,0,0,1,.32.59c.11.19.21.36.29.52l.29.51a3.72,3.72,0,0,0-.11-.58c-.05-.17-.12-.37-.2-.58s-.18-.42-.29-.63l-.36-.59c-.14-.18-.26-.34-.38-.48a3.65,3.65,0,0,0-.42-.41l.26.52C136.53,177.23,136.63,177.4,136.72,177.6Z"/><path class="cls-1" d="M131.51,176.48c.06.18.12.39.2.62l.26.69c.1.23.21.46.31.68s.21.41.29.58c.19.33.33.54.33.54s-.05-.25-.15-.62c-.06-.18-.13-.39-.2-.62l-.26-.69c-.11-.23-.21-.46-.31-.68l-.29-.58c-.19-.33-.34-.54-.34-.54S131.4,176.11,131.51,176.48Z"/><path class="cls-1" d="M88.47,173.49h2.45c0-.69,0-1.39,0-2.12H88.47a1.06,1.06,0,1,0,0,2.12Z"/><path class="cls-1" d="M87.7,174.32a.29.29,0,1,0,0,.57h3.22v-.57Z"/><path class="cls-1" d="M88.88,143.43v6.09a.56.56,0,0,0,.55.56H91c0-2.34,0-4.75,0-7.2H89.43A.55.55,0,0,0,88.88,143.43Zm.77.95c.06-.57.12-.95.12-.95s.06.38.11.95.08,1.34.08,2.1,0,1.52-.08,2.09-.11,1-.11,1-.06-.38-.12-1-.08-1.33-.08-2.09S89.6,145,89.65,144.38Z"/><path class="cls-1" d="M91,150.85c-1,0-2,.06-3,.11l3,.1Z"/><path class="cls-1" d="M91.07,141.9c-1,0-2.06,0-3.1.1l3.1.1Z"/><path class="cls-1" d="M91,160.07H89.43a.55.55,0,0,0-.55.55v6.09a.56.56,0,0,0,.55.56h1.5c0-1,0-2,0-3C91,162.91,91,161.5,91,160.07Zm-1.32,5.69c0-.57-.08-1.33-.08-2.09s0-1.53.08-2.1.12-.95.12-.95.06.38.11.95.08,1.33.08,2.1,0,1.52-.08,2.09-.11,1-.11,1S89.71,166.33,89.65,165.76Z"/><path class="cls-1" d="M88,159.19l3,.1v-.2C90,159.11,89,159.14,88,159.19Z"/><path class="cls-1" d="M90.93,168.24v-.19l-3,.09C89,168.19,89.94,168.22,90.93,168.24Z"/><path class="cls-1" d="M90.94,32.54c-.57,0-1-.57-1,0a1,1,0,0,0,1,1.05A1.07,1.07,0,0,0,92,32.54C92,32,91.52,32.54,90.94,32.54Z"/><path class="cls-1" d="M91.23,27.22a1,1,0,0,0,1,1,1.07,1.07,0,0,0,1.06-1c0-.58-.46,0-1,0S91.25,26.64,91.23,27.22Z"/><path class="cls-1" d="M92.56,21.89a1,1,0,0,0,1,1,1.07,1.07,0,0,0,1.06-1c0-.58-.46,0-1,0S92.58,21.31,92.56,21.89Z"/><path class="cls-1" d="M93.89,16.56a1,1,0,0,0,1,1,1.06,1.06,0,0,0,1.06-1c0-.57-.46,0-1,0S93.9,16,93.89,16.56Z"/><path class="cls-1" d="M95.22,11.23a1,1,0,0,0,1,1,1.07,1.07,0,0,0,1.06-1c0-.57-.46,0-1,0S95.23,10.66,95.22,11.23Z"/><path class="cls-1" d="M97.59,5.91c-.57,0-1-.58-1,0a1,1,0,0,0,1,1,1.07,1.07,0,0,0,1.06-1C98.65,5.33,98.17,5.91,97.59,5.91Z"/><path class="cls-1" d="M95.93,186.87a.59.59,0,0,0-.28-.43.47.47,0,0,0-.32-.08c-.08,0-.11,0-.11,0l.1.05a.51.51,0,0,1,.18.18.44.44,0,0,1,0,.55.45.45,0,0,1-.55,0,.57.57,0,0,1-.17-.18l0-.1a.4.4,0,0,0,0,.12.55.55,0,0,0,.08.32.61.61,0,0,0,.43.28.71.71,0,0,0,.58-.19,1,1,0,0,0,.17-.28l0-.16v-.07S95.93,186.89,95.93,186.87Z"/><path class="cls-1" d="M97.94,186.87a.59.59,0,0,0-.28-.43.47.47,0,0,0-.32-.08c-.08,0-.11,0-.11,0l.1.05a.51.51,0,0,1,.18.18.42.42,0,0,1-.59.59.51.51,0,0,1-.18-.18l0-.1a.4.4,0,0,0,0,.12.55.55,0,0,0,.08.32.61.61,0,0,0,.43.28.71.71,0,0,0,.58-.19,1,1,0,0,0,.17-.28l0-.16v-.07S97.94,186.89,97.94,186.87Z"/><path class="cls-1" d="M100,186.87a.61.61,0,0,0-.27-.43.51.51,0,0,0-.33-.08c-.08,0-.11,0-.11,0l.1.05a.51.51,0,0,1,.18.18.42.42,0,0,1-.59.59.51.51,0,0,1-.18-.18l0-.1a.4.4,0,0,0,0,.12.55.55,0,0,0,.08.32.61.61,0,0,0,.43.28.71.71,0,0,0,.58-.19.81.81,0,0,0,.17-.28l0-.16v-.07S100,186.89,100,186.87Z"/><path class="cls-1" d="M102,186.87a.61.61,0,0,0-.27-.43.51.51,0,0,0-.33-.08c-.08,0-.11,0-.11,0l.1.05a.51.51,0,0,1,.18.18.42.42,0,0,1-.59.59.51.51,0,0,1-.18-.18l-.05-.1a.4.4,0,0,0,0,.12.55.55,0,0,0,.08.32.61.61,0,0,0,.44.28.7.7,0,0,0,.57-.19.81.81,0,0,0,.17-.28.76.76,0,0,0,0-.16v-.07S102,186.89,102,186.87Z"/><path class="cls-1" d="M71,166.9c-.29.57-.55,1.12-.78,1.66-.12.26-.23.52-.34.78l-.29.75c-.4,1-.66,1.83-.89,2.54s-.34,1.28-.45,1.67-.15.59-.15.59.07-.2.18-.58.28-.95.53-1.65.55-1.55,1-2.49c.1-.24.21-.48.32-.73l.37-.76c.25-.52.51-1.07.82-1.63.58-1.13,1.27-2.33,2-3.6s1.51-2.59,2.23-4c.38-.71.7-1.46,1-2.21s.64-1.54.87-2.35.44-1.65.65-2.48a23,23,0,0,0,.29-2.57,28,28,0,0,0-.27-5.11,35.05,35.05,0,0,0-1.1-4.83c-1-3.07-2.21-5.77-3.06-8.17-.44-1.19-.78-2.31-1-3.3a22.51,22.51,0,0,1-.5-2.62,14.94,14.94,0,0,1-.17-1.72l0-.61v.61a13.25,13.25,0,0,0,.08,1.73,22.73,22.73,0,0,0,.41,2.66,31.37,31.37,0,0,0,.94,3.36c.4,1.22.9,2.51,1.41,3.88s1,2.82,1.48,4.33a32.66,32.66,0,0,1,1,4.76,27.79,27.79,0,0,1,.22,5,22.49,22.49,0,0,1-.27,2.5,21.79,21.79,0,0,1-.61,2.41c-.22.8-.54,1.56-.83,2.32s-.65,1.48-1,2.18c-.7,1.42-1.45,2.77-2.14,4.05S71.58,165.74,71,166.9Z"/><path class="cls-1" d="M118.83,180.24a2.15,2.15,0,1,0-2.14,2.14A2.14,2.14,0,0,0,118.83,180.24Zm-3.8,0a1.66,1.66,0,0,1,1.66-1.66,1.64,1.64,0,0,1,1.55,1.12,1.38,1.38,0,0,0-.49-.63,1.35,1.35,0,0,0-.77-.28l-.22,0h-.07a1.35,1.35,0,0,1,.27.09,1.47,1.47,0,0,1,.56.41,1.26,1.26,0,0,1,.32.83v.11c0,.05,0,.11,0,.14s0,.15-.07.23a1.22,1.22,0,0,1-.68.68,1.57,1.57,0,0,1-.48.09,1.33,1.33,0,0,1-.83-.32,1.59,1.59,0,0,1-.41-.56c-.06-.17-.09-.28-.09-.28a1,1,0,0,0,0,.3,1.35,1.35,0,0,0,.27.77,1.59,1.59,0,0,0,.63.49A1.65,1.65,0,0,1,115,180.24Z"/><path class="cls-1" d="M112.71,173.86a2.15,2.15,0,1,0-2.14,2.14A2.14,2.14,0,0,0,112.71,173.86Zm-3.07.84a1.53,1.53,0,0,1-.41-.57c-.06-.16-.09-.27-.09-.27a1,1,0,0,0,0,.3,1.3,1.3,0,0,0,.27.76,1.53,1.53,0,0,0,.63.5,1.65,1.65,0,1,1,2.1-2.1,1.41,1.41,0,0,0-.49-.64,1.32,1.32,0,0,0-.77-.27h-.22l-.07,0a1.74,1.74,0,0,1,.27.08,1.71,1.71,0,0,1,.57.41,1.31,1.31,0,0,1,.31.84v.11s0,.11,0,.14,0,.15-.07.22a1,1,0,0,1-.27.41,1,1,0,0,1-.41.27,1.14,1.14,0,0,1-.48.09A1.32,1.32,0,0,1,109.64,174.7Z"/><path class="cls-1" d="M120.34,174.59a1.29,1.29,0,0,0-1.29-1.29l-.25,0L116,169.66a.6.6,0,0,0-.83-.1.59.59,0,0,0-.1.83l2.85,3.67a1.33,1.33,0,0,0-.12.53,1.3,1.3,0,1,0,2.59,0Zm-2.75-1.88.9.68a1,1,0,0,0-.28.13.72.72,0,0,0-.18.24Zm1.3,2.9a1,1,0,0,1-.52-.19,1,1,0,0,1-.4-.7.45.45,0,0,1,0-.12v-.11a1.84,1.84,0,0,1,.05-.25,1.3,1.3,0,0,1,.27-.43,1.12,1.12,0,0,1,.9-.31,1.05,1.05,0,0,1,.71.41,1,1,0,0,1,.18.52.8.8,0,0,1,0,.2,1.22,1.22,0,0,0,0-.19.9.9,0,0,0-.28-.38.86.86,0,0,0-1.17,0,.81.81,0,0,0-.19.29,1.13,1.13,0,0,0,0,.15.25.25,0,0,0,0,.09.22.22,0,0,0,0,.08.91.91,0,0,0,.22.57.92.92,0,0,0,.39.27.74.74,0,0,0,.18.06A.8.8,0,0,1,118.89,175.61Z"/></g></g></svg>