<svg xmlns="http://www.w3.org/2000/svg" viewBox="0 0 80.49 253.88"><defs><style>.cls-1{fill:#3f3f3f;}</style></defs><g id="Слой_2" data-name="Слой 2"><g id="Layer_1" data-name="Layer 1"><path class="cls-1" d="M30.16,216.43h3.06v-2.64H30.16a1.32,1.32,0,0,0,0,2.64Z"/><path class="cls-1" d="M29.19,218.19h4v-.71h-4a.36.36,0,0,0,0,.71Z"/><path class="cls-1" d="M33.39,178.25h-2a.7.7,0,0,0-.7.69v7.6a.7.7,0,0,0,.7.69h2C33.34,184.31,33.36,181.31,33.39,178.25Zm-1.62,8.29s-.07-.48-.14-1.19-.1-1.66-.1-2.61,0-1.9.1-2.61.14-1.19.14-1.19.08.48.14,1.19.1,1.66.11,2.61-.05,1.9-.11,2.61S31.77,186.54,31.77,186.54Z"/><path class="cls-1" d="M33.32,188.2c-1.26,0-2.52.07-3.78.13l3.78.12Z"/><path class="cls-1" d="M33.4,177l-3.86.13c1.28.06,2.57.09,3.86.13Z"/><path class="cls-1" d="M33.27,199.69H31.36a.7.7,0,0,0-.7.7V208a.7.7,0,0,0,.7.69h1.87c0-1.21,0-2.46,0-3.75C33.26,203.24,33.26,201.48,33.27,199.69ZM31.77,208s-.07-.48-.14-1.19-.1-1.66-.1-2.61,0-1.9.1-2.61.14-1.18.14-1.18.08.47.14,1.18.1,1.66.11,2.61-.05,1.9-.11,2.61S31.77,208,31.77,208Z"/><path class="cls-1" d="M33.28,198.47c-1.25,0-2.5.07-3.74.12,1.24.06,2.49.09,3.74.13Z"/><path class="cls-1" d="M33.23,209.65q-1.84,0-3.69.12,1.84.07,3.69.12Z"/><path class="cls-1" d="M66.88,191.93c0-4.56,1.53-7.86,3.16-11.34,1.8-3.88,3.67-7.89,3.67-13.68,0-5.12,0-15.78-8.78-15.78-1.15,0-3.23.5-4.14,3.79A31.9,31.9,0,0,0,60,160c-.73,7.48-1.71,12.78-7.81,12.78-1.69,0-4.27-.49-5.26-3.21L45.15,52.86v0A21.07,21.07,0,0,1,51,38.51c2.54-2.58,3.09-3.85,1.15-5.86C50.64,31.08,47.07,27.39,50,8.91a1.32,1.32,0,0,0-1.31-1.53H48.6c-.22,0-2.26-.08-3.61-2.85L44.73,4c-1-2.15-1.93-4-3.57-4s-2.52,1.41-3.55,5.25L36.44,5a3,3,0,0,0-.92-2.09,1,1,0,0,0-.9-.22,3.17,3.17,0,0,0-2.2,2.46,3.17,3.17,0,0,0,.8,3.21,1,1,0,0,0,.9.22,3,3,0,0,0,1.79-1.42l1.18.29c-.11.48-.21,1-.32,1.49-.2,1-.42,2-.66,3l-1.35-.34a3,3,0,0,0-.92-2.09,1,1,0,0,0-.9-.22,3.16,3.16,0,0,0-2.2,2.47,3.13,3.13,0,0,0,.8,3.2,1,1,0,0,0,.9.22,3,3,0,0,0,1.79-1.42l1.38.34c-.34,1.47-.71,3-1.1,4.5l-1.43-.35a3,3,0,0,0-.92-2.09.94.94,0,0,0-.9-.23,3.14,3.14,0,0,0-2.2,2.47,3.11,3.11,0,0,0,.8,3.2.94.94,0,0,0,.89.22,3,3,0,0,0,1.79-1.42l1.42.35c-.39,1.5-.78,3-1.17,4.48l-1.4-.34a2.91,2.91,0,0,0-.92-2.09,1,1,0,0,0-.9-.23A3.15,3.15,0,0,0,27.38,25a3.13,3.13,0,0,0,.79,3.2.94.94,0,0,0,.9.22A3,3,0,0,0,30.86,27l1.35.34c-.38,1.43-.76,2.82-1.12,4.16l-.08.31-1.3-.32a2.91,2.91,0,0,0-.92-2.09,1,1,0,0,0-.9-.23,3.17,3.17,0,0,0-2.2,2.47,3.15,3.15,0,0,0,.8,3.2.93.93,0,0,0,.9.22,3,3,0,0,0,1.79-1.42l1.25.31c-.43,1.61-.84,3.11-1.19,4.48L28,38.17a3,3,0,0,0-.92-2.09,1,1,0,0,0-.9-.23A3.16,3.16,0,0,0,24,38.32a3.13,3.13,0,0,0,.8,3.2.93.93,0,0,0,.9.22,3,3,0,0,0,1.79-1.42l1.19.3c-.35,1.38-.61,2.53-.77,3.37-.7,3.65,1.64,4.63,3.19,5.28s2.66,1.12,2.66,3.61l-1.6,102.26c-.62,1.48-2.05,2.88-5.38,2.88-4.34,0-5.49-4.62-6.11-13.14a38.61,38.61,0,0,0-.51-4.69c-.69-3.32-2.61-3.81-3.69-3.81C6.2,136.38,6.2,149.19,6.2,154c0,5.84,1.84,10.57,3.61,15.15,1.87,4.82,3.8,9.8,3.8,16.47,0,6.3-2.67,11.05-5.75,16.55C4.18,208.75,0,216.2,0,227.59c0,10.46,3.84,17.55,11.74,21.65,6.26,3.25,14.78,4.64,28.5,4.64s22.25-1.39,28.51-4.64c7.9-4.1,11.74-11.19,11.74-21.65,0-11.59-4.28-17.24-8.06-22.22C69.33,201.27,66.88,198,66.88,191.93ZM33.86,4.52c-.07.13-.11.28-.17.42l-.08.21-.06.24a3.36,3.36,0,0,0,0,1.72,2.89,2.89,0,0,0,.21.58l.11.22a1.32,1.32,0,0,1-.22-.12,1.93,1.93,0,0,1-.48-.5,2.06,2.06,0,0,1-.36-.93,2.93,2.93,0,0,1,.06-1.14L32.92,5,33,4.67a2.18,2.18,0,0,1,.29-.49,2.09,2.09,0,0,1,.75-.66,1.88,1.88,0,0,1,.66-.21,1.18,1.18,0,0,1,.25,0l-.2.15a3.69,3.69,0,0,0-.46.41A3.47,3.47,0,0,0,33.86,4.52Zm-1.68,6.65a3.89,3.89,0,0,0-.18.41l-.07.21-.06.24a3.36,3.36,0,0,0,0,1.72,2.89,2.89,0,0,0,.21.58c.06.14.11.23.11.23l-.22-.13a2,2,0,0,1-.49-.49,2.43,2.43,0,0,1-.36-.94,3.13,3.13,0,0,1,.06-1.14l.09-.27.1-.28a2.64,2.64,0,0,1,.29-.49,2.21,2.21,0,0,1,.76-.66,1.82,1.82,0,0,1,.66-.21,1.18,1.18,0,0,1,.25,0l-.2.15a3.09,3.09,0,0,0-.46.41A3.27,3.27,0,0,0,32.18,11.17ZM30.5,17.81a3.89,3.89,0,0,0-.18.41l-.07.21-.06.24a3.37,3.37,0,0,0,0,1.72,3.58,3.58,0,0,0,.22.58c.06.14.11.23.11.23a1.51,1.51,0,0,1-.22-.13,2,2,0,0,1-.49-.49,2.28,2.28,0,0,1-.36-.94,3.13,3.13,0,0,1,.06-1.14l.08-.27.11-.28a2.64,2.64,0,0,1,.29-.49,2.12,2.12,0,0,1,.76-.66,1.78,1.78,0,0,1,.65-.21,1.28,1.28,0,0,1,.26,0l-.2.15a3.09,3.09,0,0,0-.46.41A2.82,2.82,0,0,0,30.5,17.81Zm-1.68,6.64a3.89,3.89,0,0,0-.18.41l-.07.21-.07.25a3.47,3.47,0,0,0,0,1.72,5.6,5.6,0,0,0,.21.57l.12.23a1.91,1.91,0,0,1-.23-.13,1.86,1.86,0,0,1-.48-.49,2.15,2.15,0,0,1-.36-.94,2.93,2.93,0,0,1,.06-1.14l.08-.27.11-.28a2.64,2.64,0,0,1,.29-.49,2.18,2.18,0,0,1,.75-.66,1.88,1.88,0,0,1,.66-.21,1.29,1.29,0,0,1,.26,0l-.21.15a3.09,3.09,0,0,0-.45.41A2.82,2.82,0,0,0,28.82,24.45Zm-1.68,6.64a2.54,2.54,0,0,0-.18.41l-.07.21-.07.25a3.36,3.36,0,0,0,0,1.72,3,3,0,0,0,.21.57l.11.23-.22-.13a1.86,1.86,0,0,1-.48-.49,2.15,2.15,0,0,1-.36-.94,2.93,2.93,0,0,1,.06-1.14l.08-.27.11-.28a2.18,2.18,0,0,1,.29-.49,2.09,2.09,0,0,1,.75-.66,1.88,1.88,0,0,1,.66-.21,1.29,1.29,0,0,1,.26,0l-.21.15a3.69,3.69,0,0,0-.46.41A3.13,3.13,0,0,0,27.14,31.09Zm-1.69,6.64c-.07.13-.11.27-.18.41l-.07.21-.06.25a3.36,3.36,0,0,0,0,1.72,3,3,0,0,0,.21.57c.06.14.11.23.11.23L25.21,41a1.72,1.72,0,0,1-.48-.49,2.15,2.15,0,0,1-.36-.94,2.92,2.92,0,0,1,.05-1.14l.09-.27.11-.28a2.6,2.6,0,0,1,.28-.49,2.21,2.21,0,0,1,.76-.66,1.82,1.82,0,0,1,.66-.21,1.18,1.18,0,0,1,.25,0l-.2.15a3.09,3.09,0,0,0-.46.41A3.57,3.57,0,0,0,25.45,37.73ZM43.38,165.39v-.08l.2,0Zm.2,3.35-.18,0v-.07ZM42.4,62.28V62c.57.07.94.15.94.15S43,62.21,42.4,62.28Zm.25,18.33c.57.07.93.15.93.15s-.36.08-.92.15C42.66,80.81,42.66,80.71,42.65,80.61Zm.93,8.5s-.32.07-.83.14V89C43.26,89,43.58,89.11,43.58,89.11Zm0,8a7.22,7.22,0,0,1-.74.13V97C43.3,97,43.58,97.1,43.58,97.1Zm0,7.44s-.25.06-.66.12v-.23Zm0,7-.59.11v-.21C43.36,111.47,43.58,111.52,43.58,111.52Zm0,6.49-.53.09v-.19C43.38,118,43.58,118,43.58,118Zm0,6.21-.48.09v-.18Zm0,5.66-.44.08v-.17Zm0,5.56-.39.07v-.14Zm0,5-.35.07v-.13Zm0,4.8-.31.06v-.12Zm0,4.39-.28.06v-.11Zm0,4.34-.26.05V154Zm0,3.93-.24.05v-.09Zm0,3.82-.22,0v-.09Zm-1-89.92v-.33c.64.08,1,.17,1,.17S43.17,71.77,42.54,71.84Zm-7.21-9.71.14,0v.06ZM30.85,37.05c.54-2.26,1.15-4.92,1.86-7.74s1.46-5.83,2.22-8.84c.37-1.51.75-3,1.12-4.49s.71-2.94,1.05-4.35A63.75,63.75,0,0,1,39.17,3.9a8.93,8.93,0,0,1,.72-1.56,3.3,3.3,0,0,1,.51-.67,1,1,0,0,1,1.53,0,3.39,3.39,0,0,1,.43.52,9.78,9.78,0,0,1,.57,1c.3.61.5,1.11.65,1.45s.21.51.21.51-.36-.69-1-1.86a9.86,9.86,0,0,0-.62-.91c-.24-.29-.58-.65-.92-.63s-.63.45-.85.89a10.9,10.9,0,0,0-.6,1.5,76.87,76.87,0,0,0-1.7,7.73c-.3,1.43-.61,2.91-1,4.4s-.73,3-1.09,4.51c-.77,3-1.56,6-2.35,8.82s-1.56,5.41-2.2,7.65-1.21,4.09-1.57,5.41c-.18.65-.32,1.17-.41,1.52l-.15.54s0-.2.09-.56.13-.89.26-1.55.3-1.48.49-2.41S30.58,38.19,30.85,37.05ZM48.54,10l-.18,1.51c0,.58-.12,1.24-.18,2S48.05,15,48,15.8s-.08,1.69-.15,2.59-.07,1.82-.05,2.76.05,1.9.12,2.85a26.16,26.16,0,0,0,.33,2.82,18.15,18.15,0,0,0,.66,2.66A11.89,11.89,0,0,0,50,31.78a11,11,0,0,0,1.42,1.8,2.77,2.77,0,0,1,.64.87,1.18,1.18,0,0,1-.09,1A6.64,6.64,0,0,1,51,36.65c-.29.3-.53.53-.7.69l-.25.24s.33-.36.87-1a6,6,0,0,0,.84-1.23,1,1,0,0,0,0-.81,3,3,0,0,0-.61-.76A11.5,11.5,0,0,1,49.66,32a10.85,10.85,0,0,1-1.18-2.36,19.73,19.73,0,0,1-.72-2.72C47.59,26,47.47,25,47.39,24s-.09-1.93-.08-2.89,0-1.88.08-2.78.12-1.78.22-2.6.17-1.6.28-2.32c.18-1.43.4-2.61.55-3.44l.24-1.3ZM43.42,45c0-2-.05-4.39-.07-6.92s0-5.22,0-7.92,0-5.4,0-7.93,0-4.89.07-6.91c.07-4.05.12-6.75.12-6.75l.13,6.75c0,2,0,4.38.06,6.91s0,5.23,0,7.93,0,5.39,0,7.92,0,4.89-.07,6.92c-.06,3.44-.1,5.9-.12,6.56h0C43.53,50.9,43.48,48.44,43.42,45Zm-6.71,4.11c0-.79-.06-1.71-.07-2.7s0-2,0-3.09,0-2.11,0-3.1,0-1.91.07-2.69c0-1.58.12-2.64.12-2.64S36.9,36,37,37.53c0,.78.06,1.71.06,2.69s0,2,0,3.1,0,2.1,0,3.09S37,48.32,37,49.11c0,1.19-.09,2.08-.11,2.45h0C36.8,51.19,36.75,50.3,36.71,49.11ZM38.51,48c0-1.12,0-2.43-.07-3.84s0-2.89,0-4.39,0-3,0-4.4.05-2.71.06-3.83c.06-2.25.13-3.74.13-3.74s.07,1.49.12,3.74c0,1.12.06,2.43.07,3.83s0,2.9,0,4.4,0,3,0,4.39,0,2.72-.07,3.84c0,1.8-.09,3.11-.11,3.56h0C38.6,51.11,38.55,49.8,38.51,48Zm1.7,2.43c0-.84-.07-2-.09-3.46s0-3.1-.07-4.89,0-3.7,0-5.61,0-3.82,0-5.61.05-3.46.07-4.89.07-2.63.09-3.46,0-1.31,0-1.31,0,.47,0,1.31.07,2,.09,3.46,0,3.1.07,4.89,0,3.7,0,5.61,0,3.82,0,5.61,0,3.46-.07,4.89-.07,2.62-.09,3.46c0,.53,0,.92,0,1.13h0C40.23,51.35,40.22,51,40.21,50.43ZM35.43,50c0,.71-.08,1.25-.1,1.52h0c0-.27-.07-.81-.11-1.52,0-1-.09-2.37-.09-3.73s0-2.71.09-3.73.13-1.69.13-1.69.07.68.12,1.69.1,2.38.1,3.73S35.49,49,35.43,50Zm1,2.47a14.79,14.79,0,0,1,3-.28,15.55,15.55,0,0,1,3,.28,8,8,0,0,1,1.36.38,7.57,7.57,0,0,1-1.36.37,16.21,16.21,0,0,1-6,0,7.57,7.57,0,0,1-1.36-.37A7,7,0,0,1,36.46,52.51Zm5.38-.95c0-.6-.06-2.69-.12-5.59,0-1.73,0-3.75-.07-5.91s0-4.47,0-6.78,0-4.62,0-6.78.05-4.18.07-5.91l.13-5.77s0,2.3.12,5.77c0,1.73,0,3.75.07,5.91s0,4.47,0,6.78,0,4.61,0,6.78S42,44.24,42,46c-.06,2.9-.11,5-.12,5.59ZM41.5,9a1.62,1.62,0,0,1-1.62-1.66,1.7,1.7,0,0,1,1.7-1.66,1.6,1.6,0,0,1,1.61,1.66A1.71,1.71,0,0,1,41.5,9Zm-1.58,3.33A1.61,1.61,0,0,1,41.54,14a1.72,1.72,0,0,1-1.7,1.66A1.61,1.61,0,0,1,38.22,14,1.7,1.7,0,0,1,39.92,12.36ZM38.26,19a1.62,1.62,0,0,1,1.62,1.66,1.72,1.72,0,0,1-1.7,1.66,1.61,1.61,0,0,1-1.62-1.66A1.71,1.71,0,0,1,38.26,19ZM36.6,25.65a1.61,1.61,0,0,1,1.62,1.66A1.72,1.72,0,0,1,36.52,29a1.62,1.62,0,0,1-1.62-1.66A1.7,1.7,0,0,1,36.6,25.65ZM34.94,32.3A1.61,1.61,0,0,1,36.56,34a1.7,1.7,0,0,1-1.7,1.66A1.61,1.61,0,0,1,33.24,34,1.71,1.71,0,0,1,34.94,32.3Zm-1.66,6.64A1.61,1.61,0,0,1,34.9,40.6a1.7,1.7,0,0,1-1.7,1.66,1.62,1.62,0,0,1-1.62-1.66A1.72,1.72,0,0,1,33.28,38.94ZM2.58,227.59c0-20,13.61-26.93,13.61-42,0-13.65-7.41-20.37-7.41-31.62,0-9.49,1.88-15,7.7-15,1.4,0,1.41,3.73,1.78,8.09-.13-.76-.24-1.49-.36-2.15-.22-1.37-.44-2.51-.64-3.31s-.34-1.23-.34-1.23,0,.47,0,1.27.05,2,.09,3.35.13,3,.35,4.75a26.68,26.68,0,0,0,.44,2.68,22.65,22.65,0,0,0,.76,2.73,14.81,14.81,0,0,0,1.23,2.61,9.12,9.12,0,0,0,1.85,2.19,6.6,6.6,0,0,0,2.37,1.3,6.92,6.92,0,0,0,2.35.31,9.2,9.2,0,0,0,3.37-.69,6.49,6.49,0,0,0,.86-.41l.29-.16a10.66,10.66,0,0,1-1.23.3,13.89,13.89,0,0,1-1.42.17,12.55,12.55,0,0,1-1.82,0,8.06,8.06,0,0,1-1.59-.34,8.23,8.23,0,0,0,1.92.22,9.4,9.4,0,0,0,5.32-1.42l-.22,14.18a1.27,1.27,0,0,0,0,.28,1.35,1.35,0,0,1-.45-.29,2.19,2.19,0,0,1-.43-.79c-.08-.27-.15-.49-.18-.65l-.07-.23-.06.24a5.53,5.53,0,0,0-.13.68,2.64,2.64,0,0,0,.14,1.18A2.57,2.57,0,0,0,31.89,175a6.43,6.43,0,0,0,1.53.61c.09-10,.19-20.7.29-31.37.15-11,.31-22.08.45-32.42s.36-20,.5-28.29.33-15.18.43-20l.2-7.59s0,2.76,0,7.59,0,11.73,0,20-.06,17.94-.16,28.3-.2,21.38-.3,32.42-.31,22.08-.45,32.43-.36,20-.5,28.29c-.1,5.55-.22,10.49-.31,14.59v5.41c0,4.74,0,7.48,0,7.58h0l.12.06a.78.78,0,0,1,.23.22.53.53,0,0,1-.74.74.68.68,0,0,1-.22-.23,1.07,1.07,0,0,1-.06-.12.3.3,0,0,0,0,.14.69.69,0,0,0,.1.4.77.77,0,0,0,.54.35.87.87,0,0,0,.72-.24,1.2,1.2,0,0,0,.21-.34.71.71,0,0,0,0-.21.21.21,0,0,0,0-.08v-.1a.79.79,0,0,0-.35-.53.69.69,0,0,0-.4-.1l-.12,0c0-.11.07-2.84.19-7.58,0-1.93.1-4.2.16-6.75h1.74v-.71H33.94q0-.51,0-1h1.69c0-.85,0-1.73,0-2.64H34c0-1.24,0-2.53.08-3.87l.63,0,.9,0v-.38l-.9,0-.62,0c0-.31,0-.63,0-1h1.5V205.1c0-1.74,0-3.55,0-5.41H34.3c0-.31,0-.62,0-.94h.42l.91,0v-.37l-.91,0h-.41c.06-3.17.12-6.5.18-9.95h.23c.3,0,.61,0,.92,0v-.38l-.92,0h-.22c0-.3,0-.62,0-.93h1.12c0-2.92,0-5.92,0-9h-1c0-.31,0-.62,0-.93h0l.95,0V177l-.95,0h0c0-.12,0-.23,0-.34,0-.26,0-.54,0-.8l.64.1.33,0c0-2.38,0-4.79,0-7.22l-.15,0,.15,0c0-1.1,0-2.2,0-3.31l-.16,0,.17,0c0-1.17,0-2.35,0-3.53l-.18,0,.18,0c0-1.24,0-2.49,0-3.74l-.2,0,.2,0c0-1.28,0-2.56,0-3.85l-.22,0,.22,0c0-1.42,0-2.83,0-4.25l-.24-.05.24,0c0-1.43,0-2.87,0-4.3l-.26-.05.26-.05v-.92l0-3.77-.3-.06.3-.06c0-1.64,0-3.28,0-4.91l-.35-.07.35-.07c0-1.81,0-3.62,0-5.42l-.4-.07.4-.08c0-1.84,0-3.68.05-5.5l-.45-.08.45-.08c0-2,0-4,0-6l-.5-.09.51-.09q0-3.08,0-6.08v-.22c-.35-.05-.56-.1-.56-.1s.21,0,.56-.1c0-2.29,0-4.55.08-6.77a6,6,0,0,1-.64-.11l.64-.11q0-3.69.09-7.2c-.45-.07-.73-.13-.73-.13s.28-.06.73-.12c0-2.67.07-5.24.11-7.73-.48-.07-.78-.13-.83-.14h0s.35-.08.83-.14c0-1.87,0-3.69.07-5.45,0-.88,0-1.75,0-2.6-.46-.06-.78-.12-.9-.15v0c.12,0,.44-.08.9-.14,0-3.17.09-6.1.14-8.76-.51-.06-.88-.13-1-.16v0c.15,0,.52-.09,1-.15,0-3.07.1-5.77.13-8,0-.4,0-.78,0-1.15l-.26,0c-.39,0-.72-.09-.94-.13v-.12c.22,0,.55-.09.94-.13l.26,0c.08-3.85.12-6,.12-6s0,2.16,0,6l.19,0c0,.16,0,.32,0,.48H37V63.5c0,4.83.06,11.74,0,20s0,18,0,28.33-.1,21.41-.15,32.46-.2,22.11-.3,32.47-.25,20-.34,28.31c-.05,3.18-.09,6.15-.14,8.89,0,2.15-.07,4.15-.1,6s0,3.64,0,5.16c0,4.09.07,6.68.08,7.39h0v0l.12.06a.78.78,0,0,1,.23.22.56.56,0,0,1-.06.68.55.55,0,0,1-.68.06.59.59,0,0,1-.22-.23.64.64,0,0,1-.07-.12.45.45,0,0,0,0,.14.69.69,0,0,0,.1.4.77.77,0,0,0,.54.35.87.87,0,0,0,.72-.24,1,1,0,0,0,.2-.34.49.49,0,0,0,0-.21.21.21,0,0,0,0-.08.34.34,0,0,0,0-.1.75.75,0,0,0-.34-.53.69.69,0,0,0-.4-.1l-.14,0c0-.71.07-3.31.15-7.38,0-2,.07-4.32.12-6.95h1.77v-.71H36.35c0-.35,0-.69,0-1H38.1c0-.85,0-1.73,0-2.64H36.41q0-1.83.06-3.81l1.59,0v-.49c-.53,0-1.05,0-1.58,0,0-.29,0-.59,0-.89h1.57c0-1.1,0-2.24,0-3.4,0-1.8,0-3.66,0-5.58H36.61c0-.29,0-.58,0-.88l1.4,0v-.49l-1.39,0c0-3.14.09-6.43.13-9.84l1.23,0v-.49l-1.22,0c0-.29,0-.59,0-.88H38c0-2.92,0-5.92,0-9H36.88c0-.3,0-.58,0-.88l1.08,0v-.48h0l-1.08,0v-.83c.13,0,.26,0,.4,0s.45,0,.67,0q0-3.53,0-7.15l-1-.07v-.41l1-.07v-2.83l-1-.07v-.41l1-.08v-3L37,162v-.41l.95-.07v-3.26c-.33,0-.64,0-.92-.07v-.42l.92-.07v-3.37l-.89-.07c0-.14,0-.28,0-.42l.88-.07V150c-.3,0-.58,0-.85-.06v-.43l.85-.07v-3.83l-.82-.06v-.44q.38,0,.81-.06v-.59c0-1.22,0-2.43,0-3.65-.28,0-.55,0-.8-.06v-.44l.8-.06c0-1.49,0-3,0-4.48-.28,0-.54,0-.79-.06v-.45l.8-.05c0-1.67,0-3.34,0-5l-.8-.06v-.45l.8-.06c0-1.7,0-3.4,0-5.09l-.79,0V124l.79-.06c0-1.89,0-3.77,0-5.63l-.78-.06v-.47l.79,0c0-2,0-3.9,0-5.81v-.1l-.78,0v-.47c.25,0,.51,0,.78-.06,0-2.16,0-4.3,0-6.4l-.79,0v-.48l.79,0c0-2.34,0-4.62.05-6.86l-.83,0v-.48l.84,0q0-3.82.06-7.41l-.9-.05v-.48l.9-.06c0-1.8,0-3.56,0-5.25,0-.85,0-1.68,0-2.5-.33,0-.65,0-1-.06v-.48l1-.06c0-3.06.06-5.9.09-8.48l-1.07-.06v-.48c.33,0,.7,0,1.07-.06,0-3,.07-5.67.09-7.88,0-.37,0-.71,0-1l-1.22-.06v-.51c.38,0,.8-.05,1.23-.06l.07-5.92s0,2.13,0,5.91h.21c0,.21,0,.42,0,.64h-.19c0,.34,0,.69,0,1,0,2.21,0,4.86,0,7.86h0c0,.21,0,.42,0,.63h0c0,3.43,0,7.32.07,11.57,0,8.3.07,18,.07,28.36s0,21.43,0,32.5-.09,22.13-.13,32.5-.14,20.05-.2,28.35c0,3.18-.06,6.16-.09,8.89,0,2.27-.05,4.37-.07,6.29s0,3.43,0,4.88c.07,4.84.14,7.6.14,7.6s0-2.76.09-7.6c0-2,.05-4.43.09-7.14h1.81c0-.24,0-.47,0-.71h-1.8l0-1h1.77c0-.85,0-1.73,0-2.64H38.8c0-1.21,0-2.46,0-3.76l1.1,0h.54c0-.19,0-.39,0-.58h-.53l-1.1,0c0-.28,0-.56,0-.84h1.62c0-1,0-2.13,0-3.23,0-1.85,0-3.77,0-5.75H38.92c0-.28,0-.55,0-.84l1,0h.45v-.57h-.45l-1,0c0-3.12,0-6.38.08-9.75h1.31V188H39c0-.27,0-.55,0-.83h1.29c0-2.92,0-5.92-.05-9H39.07c0-.28,0-.56,0-.84l.86,0h.32v-.56h-.31l-.86,0v-.7h.2l1,0q0-3.51,0-7.13H39.11v-.65h1.11c0-.92,0-1.83,0-2.75H39.12c0-.21,0-.42,0-.64h1.08c0-1,0-2,0-2.95H39.14v-.65h1c0-1.06,0-2.12,0-3.18h-1c0-.22,0-.43,0-.65h1c0-1.09,0-2.19,0-3.29h-1v-.64h1c0-1.23,0-2.46,0-3.7h-1v-.65h1l0-3.75h-.92V145h.92v-.45c0-1.23,0-2.47,0-3.71h-.91v-.64h.91v-4.4h-.91v-.64h.9V130.2h-.9v-.65h.89v-5h-.89v-.64h.89v-5.57h-.89v-.64h.89c0-1.92,0-3.83,0-5.72v-.13h-.87v-.64h.87c0-2.14,0-4.26,0-6.34h-.89v-.65h.89c0-2.32,0-4.58,0-6.8H39.2v-.64h.92c0-2.53,0-5,0-7.35h-1v-.64h1c0-1.78,0-3.53,0-5.2,0-.85,0-1.69,0-2.51h-1c0-.21,0-.43,0-.64h1c0-3,0-5.87.05-8.44H39.09v-.64h1.12c0-3,0-5.65,0-7.86,0-.36,0-.71,0-1.06l-.92,0H39c0-.22,0-.44,0-.65h.32l.92,0c0-3.79,0-5.92,0-5.92s0,2.13.07,5.93h.23v.6h-.22c0,.34,0,.7,0,1.07,0,2.2,0,4.85.08,7.86h.08c0,.2,0,.41,0,.62h-.06c0,3.44.07,7.34.11,11.6,0,8.31.13,18,.18,28.39s.09,21.46.13,32.54,0,22.15,0,32.54,0,20.07,0,28.38c0,3.18,0,6.16,0,8.9q0,3.61,0,6.63c0,1.67.05,3.2.07,4.56.1,4.84.19,7.6.19,7.6s0-2.76,0-7.6c0-2.09,0-4.55,0-7.34H43c0-.24,0-.47,0-.71H41.16v-1H43q0-1.27,0-2.64H41.18c0-1.2,0-2.44,0-3.72l1.7,0c0-.22,0-.44,0-.66l-1.69,0v-.8h1.68c0-1,0-2,0-3.06,0-1.9,0-3.88-.07-5.92H41.23v-.8l1.54,0v-.65l-1.53,0c0-3.1,0-6.33,0-9.67l1.4,0V188l-1.4,0v-.8h1.39c0-2.92-.06-5.92-.09-9H41.26v-.8l1.28,0v-.64l-1.27,0v-.7l1.27-.1q0-3.53-.06-7.14h-.14c-.31,0-.68.07-1.07.09v-.55c.39,0,.76,0,1.07.09h.13c0-1,0-2,0-3h-.11c-.31,0-.68.07-1.07.09v-.55l1.07.08.11,0,0-3.24h-.08c-.32,0-.69.07-1.08.09v-.55c.39,0,.76.05,1.08.09h.08l0-3.45h-.05c-.32,0-.69.07-1.08.09v-.55c.39,0,.76.05,1.08.09h0l0-3.56h0l-1.08.09v-.56c.39,0,.76.05,1.08.09h0c0-1.32,0-2.63,0-4-.32,0-.68.07-1.07.09v-.55l1.07.08c0-1.33,0-2.67,0-4-.31,0-.66.06-1,.08V145l1,.08v-.46c0-1.32,0-2.63,0-3.94l-1,.08v-.56l1,.08,0-4.64-1,.08v-.56l1,.08q0-2.6,0-5.16l-1,.08v-.57l1,.08q0-2.64,0-5.25l-1,.08v-.56l1,.07q0-2.92,0-5.79l-1,.07c0-.19,0-.38,0-.57l1,.08q0-2.91,0-5.76v-.31l-1,.08v-.57c.35,0,.67,0,1,.07,0-2.22,0-4.41,0-6.55l-1,.07v-.58l1,.08q0-3.58,0-7l-1,.07v-.58l1,.07q0-3.9,0-7.55l-1,.07v-.58c.37,0,.72,0,1,.07,0-1.81,0-3.57,0-5.27V81l-1.08.08v-.59l1.08.07V71.9L40.82,72c0-.21,0-.4,0-.6.42,0,.81,0,1.17.08,0-3,0-5.72,0-7.95V62.33c-.37,0-.8.07-1.25.09,0-.19,0-.39,0-.58.46,0,.89,0,1.26.09,0-3.86,0-6,0-6s0,2.17.08,6h0l.22,0v.33l-.22,0h0c0,.39,0,.78,0,1.19,0,2.24.07,4.92.11,8h.12v.38H42.2c0,2.64.08,5.55.12,8.69h0v0c0,1,0,2,0,3,.08,8.32.19,18,.3,28.42s.18,21.48.27,32.57.12,22.18.18,32.58.07,20.1.1,28.42c0,3.18,0,6.17,0,8.91v7c0,1.53.06,2.94.09,4.2.12,4.84.25,7.6.25,7.6V218.19h1.89c0-.24,0-.47,0-.71H43.56v-1h1.86c0-.85,0-1.73-.05-2.64H43.56c0-1.19,0-2.41,0-3.68l1.59,0h.17c0-.24,0-.48,0-.72h-.16l-1.59,0v-.76h1.74c0-.94,0-1.9,0-2.89,0-1.95-.06-4-.09-6.09H43.53v-.76l1.61,0h0l0-.73-1.6,0c0-3.07,0-6.28,0-9.6l1.5,0c0-.24,0-.49,0-.72l-1.48,0v-.76H45c0-2.92-.08-5.92-.13-9H43.46c0-.26,0-.51,0-.76l1.37,0v-.72l-1.36,0c0-.29,0-.59,0-.88.47-.07.92-.15,1.36-.25-.13-9.93-.26-20.45-.4-31-.11-11.1-.23-22.2-.34-32.61S43.89,92,43.81,83.66c-.1-16.66-.16-27.76-.16-27.76s.19,11.1.48,27.75l.41,28.45c.13,10.41.28,21.51.42,32.61s.23,22.21.34,32.61.17,20.13.25,28.46c0,3.18,0,6.17.05,8.91s0,5.23,0,7.44c.17,7.15.4,11.4.4,11.4s0-5.82-.09-15.34h4.41a.36.36,0,1,0,0-.71H46v-1H49.4a1.32,1.32,0,1,0,0-2.64H45.93c0-1.18,0-2.39,0-3.65l4.42,0h.4v-.4l0-5.59,0-5.59v-.39h-.4l-4.51,0q0-4.59-.08-9.54l4.59,0h.4v-.39l0-5.59,0-5.59v-.39h-.4l-4.7,0c0-.44,0-.89,0-1.33a7.21,7.21,0,0,0,1-.43h0a9.72,9.72,0,0,0,3.86,1.56,11.34,11.34,0,0,0,2.7.14,11.75,11.75,0,0,0,2.95-.52A8.8,8.8,0,0,0,59,174.73a9.48,9.48,0,0,0,2.18-2.46,17,17,0,0,0,2-5.88,48.13,48.13,0,0,0,.59-5.3c.1-1.55.18-2.84.27-3.74s.18-1.42.18-1.42-.13.51-.28,1.4-.31,2.19-.52,3.72a49.17,49.17,0,0,1-.92,5.2,15.92,15.92,0,0,1-2.29,5.41,7.72,7.72,0,0,1-4.34,3.06c9.21-3.57,4.86-21,9-21,4.52,0,6.2,3.69,6.2,13.19,0,10.42-6.83,14.72-6.83,25,0,7.35,3.25,11.25,6.57,15.66-1-1.19-2-2.28-2.79-3.34a21.07,21.07,0,0,1-3.36-5.71,19.44,19.44,0,0,1-1-4.19c-.11-1-.14-1.54-.14-1.54s0,.53,0,1.55a17.7,17.7,0,0,0,.61,4.36,18.68,18.68,0,0,0,1.11,3,24.43,24.43,0,0,0,1.89,3.22c1.48,2.21,3.39,4.48,5,7.15a25,25,0,0,1,3.4,9.34c.14.88.22,1.78.28,2.68,0,.46.05.9.06,1.37v1.44a31.9,31.9,0,0,1-.57,5.63,19.27,19.27,0,0,1-1.93,5.37,15.78,15.78,0,0,1-3.62,4.45c-2.95,2.56-6.89,4-10.92,5a69.17,69.17,0,0,1-12.43,1.56c-2.1.09-4.15.15-6.23.18s-4.09,0-6.07,0a81.39,81.39,0,0,1-11.38-1,31.21,31.21,0,0,1-9.56-3.07,16.68,16.68,0,0,1-6.17-5.62,19.53,19.53,0,0,1-2.54-6.09c-.23-.9-.34-1.73-.48-2.44s-.18-1.33-.22-1.83c-.08-1-.12-1.54-.12-1.54s0,.53,0,1.54A25.93,25.93,0,0,0,4,233.34a19.27,19.27,0,0,0,2.14,6.56,17.43,17.43,0,0,0,6.29,6.5,24.72,24.72,0,0,0,4.68,2.26C7.94,245.66,2.58,239.53,2.58,227.59Zm47.36-39.65-4.21,0v-.73h2.79a.69.69,0,0,0,.7-.69v-7.6a.69.69,0,0,0-.7-.69H45.65c0-.25,0-.49,0-.73l4.3,0,0,5.2Zm0,21.44-4,0c0-.24,0-.48,0-.73h2.61a.69.69,0,0,0,.7-.69v-7.59a.7.7,0,0,0-.7-.7H45.83V199l4.11,0,0,5.19Z"/><path class="cls-1" d="M31.94,40.6a1.26,1.26,0,0,0,1.27,1.3,1.34,1.34,0,0,0,1.33-1.3c0-.72-.58,0-1.3,0S32,39.88,31.94,40.6Z"/><path class="cls-1" d="M33.6,34a1.26,1.26,0,0,0,1.27,1.3A1.34,1.34,0,0,0,36.2,34c0-.71-.58,0-1.3,0S33.62,33.24,33.6,34Z"/><path class="cls-1" d="M35.26,27.31a1.26,1.26,0,0,0,1.27,1.3,1.34,1.34,0,0,0,1.33-1.3c0-.72-.58,0-1.3,0S35.28,26.59,35.26,27.31Z"/><path class="cls-1" d="M36.92,20.66A1.26,1.26,0,0,0,38.19,22a1.34,1.34,0,0,0,1.33-1.3c0-.72-.58,0-1.3,0S36.94,19.94,36.92,20.66Z"/><path class="cls-1" d="M38.58,14a1.26,1.26,0,0,0,1.27,1.3A1.34,1.34,0,0,0,41.18,14c0-.71-.59,0-1.3,0S38.6,13.3,38.58,14Z"/><path class="cls-1" d="M41.54,7.37c-.72,0-1.29-.72-1.3,0a1.26,1.26,0,0,0,1.26,1.3,1.35,1.35,0,0,0,1.34-1.3C42.85,6.65,42.25,7.37,41.54,7.37Z"/><path class="cls-1" d="M38.51,234.09a.88.88,0,0,0,.72-.24,1,1,0,0,0,.2-.34.49.49,0,0,0,0-.21v-.08s0-.06,0-.1a.78.78,0,0,0-.34-.53.7.7,0,0,0-.4-.1.39.39,0,0,0-.15,0l.13.06a.66.66,0,0,1,.22.22.54.54,0,0,1-.05.68.56.56,0,0,1-.69.06.79.79,0,0,1-.22-.23l-.06-.12a.45.45,0,0,0,0,.14.62.62,0,0,0,.1.4A.75.75,0,0,0,38.51,234.09Z"/><path class="cls-1" d="M41,234.09a.85.85,0,0,0,.71-.24.88.88,0,0,0,.21-.34,1.3,1.3,0,0,0,0-.21v-.08s0-.06,0-.1a.81.81,0,0,0-.34-.53.72.72,0,0,0-.41-.1.37.37,0,0,0-.14,0l.12.06a.6.6,0,0,1,.23.22.53.53,0,0,1-.06.68.54.54,0,0,1-.68.06.68.68,0,0,1-.22-.23l-.06-.12a.45.45,0,0,0,0,.14.56.56,0,0,0,.1.4A.75.75,0,0,0,41,234.09Z"/><path class="cls-1" d="M43.52,234.09a.86.86,0,0,0,.72-.24.88.88,0,0,0,.21-.34,1.3,1.3,0,0,0,0-.21v-.08s0-.06,0-.1a.81.81,0,0,0-.34-.53.72.72,0,0,0-.41-.1.3.3,0,0,0-.14,0l.12.06a.68.68,0,0,1,.23.22.53.53,0,0,1-.74.74.68.68,0,0,1-.22-.23,1.07,1.07,0,0,1-.06-.12.3.3,0,0,0,0,.14.69.69,0,0,0,.1.4A.77.77,0,0,0,43.52,234.09Z"/><path class="cls-1" d="M46,234.09a.87.87,0,0,0,.72-.24,1,1,0,0,0,.21-.34,1.3,1.3,0,0,0,0-.21v-.08s0-.06,0-.1a.79.79,0,0,0-.35-.53.69.69,0,0,0-.4-.1.3.3,0,0,0-.14,0l.12.06a.68.68,0,0,1,.23.22.53.53,0,0,1-.74.74.68.68,0,0,1-.22-.23l-.06-.12a.3.3,0,0,0,0,.14.69.69,0,0,0,.1.4A.77.77,0,0,0,46,234.09Z"/><path class="cls-1" d="M5.65,215.41c.32-.87.69-1.94,1.23-3.11.12-.3.26-.6.39-.92l.47-.94c.31-.66.64-1.34,1-2,.72-1.41,1.58-2.9,2.49-4.48s1.88-3.24,2.78-5c.47-.88.87-1.82,1.31-2.76s.79-1.92,1.08-2.94a28.58,28.58,0,0,0,.81-3.09,27,27,0,0,0,.36-3.2,34.73,34.73,0,0,0-.33-6.38,43.34,43.34,0,0,0-1.37-6c-1.2-3.83-2.76-7.21-3.83-10.2-.54-1.48-1-2.87-1.3-4.12a27.44,27.44,0,0,1-.63-3.27,19.23,19.23,0,0,1-.21-2.14L9.87,154s0,.26,0,.76a18.81,18.81,0,0,0,.1,2.15,29.74,29.74,0,0,0,.51,3.33,41,41,0,0,0,1.18,4.19c.5,1.52,1.13,3.13,1.76,4.84s1.26,3.51,1.85,5.4a43.13,43.13,0,0,1,1.3,5.94,33.3,33.3,0,0,1,.27,6.24,24.25,24.25,0,0,1-.33,3.11,27.79,27.79,0,0,1-.76,3c-.27,1-.68,1.94-1,2.88s-.82,1.85-1.28,2.73c-.88,1.77-1.81,3.45-2.67,5.05s-1.7,3.13-2.39,4.56c-.37.71-.69,1.41-1,2.08-.14.33-.29.65-.43,1s-.24.63-.36.93c-.49,1.2-.82,2.29-1.11,3.17S5.09,217,5,217.45l-.19.74.23-.73C5.15,217,5.34,216.28,5.65,215.41Z"/><path class="cls-1" d="M65.36,227.53a2.67,2.67,0,1,0-2.68-2.67A2.67,2.67,0,0,0,65.36,227.53Zm0-4.74a2.06,2.06,0,0,1,1.94,1.4,1.94,1.94,0,0,0-.61-.8,1.79,1.79,0,0,0-1-.34l-.28,0-.09,0a2.33,2.33,0,0,1,.34.11,1.77,1.77,0,0,1,.7.51,1.59,1.59,0,0,1,.4,1,.61.61,0,0,1,0,.14.42.42,0,0,1,0,.17,1.72,1.72,0,0,1-.08.28,1.61,1.61,0,0,1-.34.52,1.54,1.54,0,0,1-.51.33,1.57,1.57,0,0,1-.61.11,1.67,1.67,0,0,1-1-.39,2,2,0,0,1-.51-.71,2.33,2.33,0,0,1-.11-.34,1.82,1.82,0,0,0,0,.37,1.67,1.67,0,0,0,.34,1,1.83,1.83,0,0,0,.78.62,2.07,2.07,0,0,1,.69-4Z"/><path class="cls-1" d="M57.72,219.57a2.67,2.67,0,1,0-2.67-2.67A2.67,2.67,0,0,0,57.72,219.57Zm0-4.74a2.06,2.06,0,0,1,2,1.39,1.86,1.86,0,0,0-.62-.79,1.74,1.74,0,0,0-1-.34l-.27,0-.1,0a1.64,1.64,0,0,1,.34.1,2,2,0,0,1,.71.51,1.68,1.68,0,0,1,.39,1,.65.65,0,0,1,0,.14c0,.06,0,.14,0,.18a2.22,2.22,0,0,1-.09.28,1.56,1.56,0,0,1-.85.85,1.49,1.49,0,0,1-.6.11,1.6,1.6,0,0,1-1-.4,1.77,1.77,0,0,1-.51-.7,2.89,2.89,0,0,1-.11-.34,1.38,1.38,0,0,0,0,.37,1.77,1.77,0,0,0,.34,1,1.91,1.91,0,0,0,.79.61,2.05,2.05,0,0,1-1.39-1.94A2.07,2.07,0,0,1,57.72,214.83Z"/><path class="cls-1" d="M66.83,217.15a1.62,1.62,0,1,0,1.47-1,1.55,1.55,0,0,0-.31,0l-3.55-4.56a.72.72,0,0,0-1-.13.72.72,0,0,0-.13,1Zm1.64-.7a1.28,1.28,0,0,1,.88.51,1.19,1.19,0,0,1,.23.65,1.27,1.27,0,0,1,0,.25,2.14,2.14,0,0,0-.07-.23,1.19,1.19,0,0,0-.35-.48,1,1,0,0,0-.7-.27,1,1,0,0,0-.76.3,1,1,0,0,0-.23.35c0,.07,0,.14-.06.19a.45.45,0,0,0,0,.12s0,.07,0,.1a1.16,1.16,0,0,0,.28.71,1.26,1.26,0,0,0,.48.34l.23.07s-.09,0-.25,0a1.19,1.19,0,0,1-.65-.23A1.3,1.3,0,0,1,67,218a.75.75,0,0,1,0-.15.65.65,0,0,1,0-.14,1.55,1.55,0,0,1,.06-.31,1.48,1.48,0,0,1,.33-.53A1.4,1.4,0,0,1,68.47,216.45Zm-.86-.13a1,1,0,0,0-.35.16.92.92,0,0,0-.23.29l-.55-1.3Z"/></g></g></svg>