<svg xmlns="http://www.w3.org/2000/svg" viewBox="0 0 353.22 252.76"><defs><style>.cls-1{fill-rule:evenodd;}</style></defs><g id="Слой_2" data-name="Слой 2"><g id="Layer_1" data-name="Layer 1"><path class="cls-1" d="M332.71,223.44c.25.11.07.27-.06.24S332.58,223.41,332.71,223.44Z"/><path class="cls-1" d="M341.53,177.66c-.65,1.29-.89-1.11,0,0Z"/><path class="cls-1" d="M351,137.47c.26.11.07.27-.06.23S350.82,137.44,351,137.47Z"/><path class="cls-1" d="M338.85,178.49c.23.06.12.33.12.52C338.75,179,338.86,178.68,338.85,178.49Z"/><path class="cls-1" d="M335.71,176.23c.14-.09.25.24.17.29S335.62,176.28,335.71,176.23Z"/><path class="cls-1" d="M335.23,174.13c.26.11.08.27-.05.24S335.1,174.1,335.23,174.13Z"/><path class="cls-1" d="M352.71,102.31c-.08.75-.68.62-1.34.41-.4,1.06-1.5,1.69-1.21,2.91-.38.81-1.27.75-1.28,2.16-.44.37-1.23.14-1.8.3-.57.67-.17.9-.46,1.86-.87,0-1.31.67-2.33.42q-.59.16-.75,1a1.68,1.68,0,0,1-1.4-.35c-.6-.12-.56.83-1.16.7a1.54,1.54,0,0,1-1.11-.52c-.55.08-1,.37-1,1.23-1.09,0-.57-1-1.46-1.1s-.72.78-1.4.64c-.69-.49-1.29-1.6-2.27-.81-.67-.13-.75-1.64-1.75-.92-.57-.32-.23-1.18-.88-1.45-.81-.37-1,.28-1.74.06.29-1.23-.19-2-1.7-2.15a1.67,1.67,0,0,0-1-2c.07-1.23,0-2.38-1.29-2.79,1-2,1-3.86-.54-4.83.29-.93,1.46-.43,2-1,.27-1,.56-1.93.1-2.45.41-.63,1.19-.65,1.4-1.63,1.2.14,1.51-1.21,2.2-1.93.36-.61-.18-.68.06-1.22a1.49,1.49,0,0,0,1.63.4c.34-.67,0-.91.11-1.45.68-.43.53.51,1,.75.8-.08.6.22,1.22.05.86-.22,1.13-1.41,2.09-1.46.76,0,.59.57,1.34.58s1-1.13,1.28-2.16c.92.3-.28,1.89.7,2.15.63-.05.33-1.63.93-1.75.33.6.17,1.49.76,1.92,1.81.82,1.94-1.16,3.26-1.17.31.41-.25,1.34.06,1.75.91.4,1-.56,2,0-.32.72-.11,1.12-.17,1.69,1.36.47,2.87.73,4,1.73a1.72,1.72,0,0,0,.36,2.56c.83.18,1.06-.65,2-.24-.15.74-.8.66-1.4.65a5.06,5.06,0,0,0-.17,2.68c.62.15,1.36.24,1.58.63-.31,1.24-1.54,1-1.8,2.28C351.08,101.57,352,101.85,352.71,102.31Z"/><path class="cls-1" d="M346.61,126c.15-.09.26.24.18.29S346.53,126.07,346.61,126Z"/><path class="cls-1" d="M330.46,154.41c.15-.09.25.25.17.29S330.38,154.46,330.46,154.41Z"/><path class="cls-1" d="M338.28,122.73c-.16.39-.54.43-1,.23.08-.31.15-.62.23-.93C338.14,122,337.81,122.61,338.28,122.73Z"/><path class="cls-1" d="M332.39,138.58c.15-.09.25.24.17.29S332.31,138.62,332.39,138.58Z"/><path class="cls-1" d="M328.73,141.38c.25.11.07.27-.06.23S328.6,141.35,328.73,141.38Z"/><path class="cls-1" d="M324.88,139.94c.26.11.07.26-.06.23S324.75,139.91,324.88,139.94Z"/><path class="cls-1" d="M336.89,71.21c-.1.59-.54.64-.75,1.05-.5-.16-.35-.71-.18-1.28Z"/><path class="cls-1" d="M296.68,224.19c-1.54-.6-1.4-3.23,0-3.95C298.42,220.8,298.36,223.74,296.68,224.19Z"/><path class="cls-1" d="M299.72,208.88l-.7-.18c.07-.31.15-.62.23-.93C299.54,208.06,299.9,208.3,299.72,208.88Z"/><path class="cls-1" d="M308.2,166.47a2.93,2.93,0,0,1-.07-2.73C308.89,164.21,308.49,165.37,308.2,166.47Z"/><path class="cls-1" d="M304.11,179.06c.15-.09.25.24.17.29S304,179.11,304.11,179.06Z"/><path class="cls-1" d="M288.07,206a.65.65,0,0,1-.3-.81A.66.66,0,0,1,288.07,206Z"/><path class="cls-1" d="M296.13,158.3c.52.68-.45,1.66-.58,2.33C295.1,160.08,295.87,158.78,296.13,158.3Z"/><path class="cls-1" d="M296.52,135.66c.15-.09.26.24.18.29S296.44,135.71,296.52,135.66Z"/><path class="cls-1" d="M287.77,128.06c-1.26-.07-1.09-1-.59-1.63l.7.18A2,2,0,0,1,287.77,128.06Z"/><path class="cls-1" d="M292.93,105.11a1.83,1.83,0,0,1,.06-2.21C293.74,103.17,293,104.33,292.93,105.11Z"/><path class="cls-1" d="M272.23,187c-.68-.92.9-.61,0,0Z"/><path class="cls-1" d="M291.72,107c.43,1.7-.94,1.63,0,0Z"/><path class="cls-1" d="M270.9,188.42c-.22.94-.63,1.58-1.57,1.34C269.41,188.59,270,188.26,270.9,188.42Z"/><path class="cls-1" d="M286,126.38c-.08.31-.16.62-.23.93-.62-.15-1.41-.21-1.29-.81C284.46,125.57,285.69,125.93,286,126.38Z"/><path class="cls-1" d="M285.38,127.72c.15-.09.26.24.18.29S285.3,127.77,285.38,127.72Z"/><path class="cls-1" d="M288.81,107.8a1.57,1.57,0,0,1-.52,1.11c-.75-.07-.62-.68-.41-1.34Z"/><path class="cls-1" d="M283.74,126.33c.32.18-.07.2-.11.46C283.35,126.66,283.51,126.27,283.74,126.33Z"/><path class="cls-1" d="M282.25,132.38c.53.58-.48,1.38-.69,1.81C281,133.59,282,132.71,282.25,132.38Z"/><path class="cls-1" d="M279.28,131.41c-.08.31-.15.62-.23.93-.41-.14-.56.16-1,0C277.79,131.86,278.42,131,279.28,131.41Z"/><path class="cls-1" d="M285.8,95c-.39-.16-.43-.54-.23-1A1.05,1.05,0,0,1,285.8,95Z"/><path class="cls-1" d="M287.12,87.61c-.08.31-.15.62-.23.93l-.47-.12c.08-.31.16-.62.23-.93Z"/><path class="cls-1" d="M278.24,115.58c-.15.29-.63,0-1,0l.17-.7C278.22,114.79,277.9,115.38,278.24,115.58Z"/><path class="cls-1" d="M283.52,92.16c0,.15-.07.31-.11.47-.53,0-.36-.45-.29-.82C283.29,91.9,283.29,92.1,283.52,92.16Z"/><path class="cls-1" d="M266,162.24c-.23,1.49-.86,2.29-2.21,1.93.15-.63.31-1.25.46-1.87C264.79,162.23,265.18,161.9,266,162.24Z"/><path class="cls-1" d="M275.69,117.91c-1,.09-.62-.69-1.29-.81a1.38,1.38,0,0,1,1.57-.35C276,117.5,276,117.23,275.69,117.91Z"/><path class="cls-1" d="M277.81,109.29c-.05.23-.11.47-.17.7l-.93-.23C277,109.47,277.24,109.11,277.81,109.29Z"/><path class="cls-1" d="M274.23,117.8c.25.11.07.27-.06.23S274.1,117.77,274.23,117.8Z"/><path class="cls-1" d="M271.39,122.29c-.16.94-1.92.5-1.63-.4C270.63,122.05,270.73,121.79,271.39,122.29Z"/><path class="cls-1" d="M272,114.78c.25.11.07.27-.06.23S271.88,114.75,272,114.78Z"/><path class="cls-1" d="M269.59,124.57c-.45.56-1.35.37-1.74,1.05.28.36.41.81,1,1-.58.66-1.16-.74-1.69-.17-.59,1,.63.8.35,1.57-1.55-.65-2.22.18-2.09,1.46-1.48-.37-1.87,1.06-3.38.65-.46.21-.4,1.3-.86,1.52-1.36-1-2.4,0-4.25-.81a1.32,1.32,0,0,0-1.46.88c-.86-.2-.62-1.08-1.11-1.51-.6-.22-.84.13-.93.76-.67,0-.35-.58-.81-.69-.84-.08-1.4.31-2.27.18-.36-1.15-1-2.82-2.46-3.08-1.09-.2-1.44.5-2.44.88-2-.25-1.77-1.84-1.93-3.2-.61.86-1.2,1.75-2.21,1.93-.73-.15-.48-.9-1.51-.87-2.15.29-2.15,4.1-3.24,6.13a4.78,4.78,0,0,0-1.29-1.8c.13-.55.27-1.09.4-1.64.33-.79-.68-.77-.35-1.57.5-1.35,1.57-2.57,1-4a3,3,0,0,0-2.16-.28,7.89,7.89,0,0,1-2.45-2.09c-1.3-.21-1.81-.89-3.2-1-1.38.24-1.88,1.94-2.73,3a4.75,4.75,0,0,1-1.46-1.1c-1.28.06-2.33.51-4,0-.49-.06-.43.81-.93.76-1.2-.2-1.48-1-2.1-1.51a1.84,1.84,0,0,0-.06-1.75c-1,.27-1.52-.39-2-1,.09-1,.72-1.21,1.16-1.69,0-1.31-.52-2.34-.31-3.78,1-1.07.61-2.48,1.45-3.85.16-1.09-.41-1.74-.59-2.62.59-.77.76-2.24,1.09-3.44.19-.77,1-.6,1.1-1.45,2.25-.56,4.27-1.47,6.63-1.83a3.57,3.57,0,0,1,1.93,2.21,7.61,7.61,0,0,1,2.22,1c.81.46.8-.42,1.51-.12,0,.57.53.87.93,1.22.54-.11,1-.25,1.58-.36a1.2,1.2,0,0,0-.18-1.28c.94-.3,1.68,1.23,2.27,1.8.62.16,1.36.24,1.58.64.19-.52.16-.89-.24-1,2.09.12,4.58,1.72,7.11,2.25.8,0,.33.72.76.93.81-.32-.35-1.1-.07-1.75-.45-1-1.55-1.57-.94-3.2,2.13-.31,3.71,1.12,2.92,3.19,0,.91,1.44,1,1.23,2,1.73.32,2,2.45,4,2,.17-1-.59-1.36-.13-2.5.83.49.71,1.55,1.46,2.09,2.07.69,2.65-1.08,3.9-1.75.68-.07.58.35.82.69.07.11.05.45.11.52s.4,0,.47.12c.34.49.2,1.37,1.11,1.51,1.22-.24.18-1.76.69-2.8.9,0,.1,1,.12,1.51.36,1.37.56,2.84,2.4,3.32.91-.25.77-2.23,1.62-2.57,1,1.09-1,1.75-1,3.21.58.47,1.56.27,2.22,1a2.12,2.12,0,0,0,1.81,2.67c-.81.63-.42,1.86-.11,2.44.54.24.61-.3,1.22.06-.11.46-.71.14-.69.81a24.08,24.08,0,0,0,1,3c0,.71-.48.52-.52,1.11S269.34,124.26,269.59,124.57Zm-28,1.25c-.81.55.87-.46,0,0Z"/><path class="cls-1" d="M270.39,118.34c.23.06.11.32.12.52C270.28,118.8,270.4,118.53,270.39,118.34Z"/><path class="cls-1" d="M269.34,118.57c.15-.09.26.24.18.29S269.26,118.62,269.34,118.57Z"/><path class="cls-1" d="M259.34,159.12c-.18-.42-.53-.74-.41-1.34A1,1,0,0,1,259.34,159.12Z"/><path class="cls-1" d="M252.66,183.18c-1.36-.7-1.74-2-1.58-3.61.77-.61,1.7,1.09,2.21.05.46.19.3.75.76.93C253.37,181.74,253.72,182.62,252.66,183.18Z"/><path class="cls-1" d="M250.31,194.71c0,.15-.08.31-.11.47l-.47-.12.12-.47Z"/><path class="cls-1" d="M270.65,107.28c-.62.94-1.19,2-2.44,1.87A2.86,2.86,0,0,1,270.65,107.28Z"/><path class="cls-1" d="M258.22,155.63c-.63-.08-.48-.64-.47-1.11C258.05,154.81,258.41,155.05,258.22,155.63Z"/><path class="cls-1" d="M262.07,139c-1-.41-1-1.36-.88-2.45C262.45,136.82,262.27,137.92,262.07,139Z"/><path class="cls-1" d="M254.75,161.69c-.07.87-.55,1.06-.87,1.52C253.48,162.84,254,161.18,254.75,161.69Z"/><path class="cls-1" d="M267.15,106.41c.23.07.11.33.12.53C267.05,106.87,267.16,106.61,267.15,106.41Z"/><path class="cls-1" d="M266.75,107.05c.15-.09.25.25.17.3S266.67,107.1,266.75,107.05Z"/><path class="cls-1" d="M272.47,76.83c.27.1.1.47.07.75C272.27,77.48,272.44,77.11,272.47,76.83Z"/><path class="cls-1" d="M263.53,103.05c.41.37-.17,1.87-.51,2.09C262.16,104.68,263.12,103.37,263.53,103.05Z"/><path class="cls-1" d="M255,136.54c.15-.09.26.25.18.29S254.94,136.59,255,136.54Z"/><path class="cls-1" d="M249.27,159.85a1.2,1.2,0,0,1-.18-1.28C249.6,158.73,249.45,159.28,249.27,159.85Z"/><path class="cls-1" d="M254.83,132.29c-.21.31,0,1.28-.52,1.11C253.38,133.36,254.18,131.77,254.83,132.29Z"/><path class="cls-1" d="M245.85,164.69c.26.11.07.26,0,.23S245.72,164.66,245.85,164.69Z"/><path class="cls-1" d="M240.51,186.36c.22.06.11.33.12.52C240.4,186.82,240.51,186.55,240.51,186.36Z"/><path class="cls-1" d="M238,193.41c-.88-.2.11-1.53-.53-1.86a9.06,9.06,0,0,0,1-4.2C238.94,188.87,239.55,192,238,193.41Z"/><path class="cls-1" d="M259,102.42c-.83-.49.22-2.11.28-3.14C260.41,99.74,259.77,101.91,259,102.42Z"/><path class="cls-1" d="M249.39,140.34c-.36-.44-.91-.77-.59-1.62A.92.92,0,0,1,249.39,140.34Z"/><path class="cls-1" d="M249.09,136.56c-1.45-.64-1.53-2.12-1.3-3.78A2.61,2.61,0,0,1,249.09,136.56Z"/><path class="cls-1" d="M232,203.79c.16-.62.24-1.35.64-1.58C233.18,202.59,232.9,204.05,232,203.79Z"/><path class="cls-1" d="M247.93,138.25c.26.11.09.48.06.76C247.72,138.91,247.89,138.54,247.93,138.25Z"/><path class="cls-1" d="M240.78,161.21c.15-.09.25.24.17.29S240.7,161.26,240.78,161.21Z"/><path class="cls-1" d="M238.71,170.59c-1-.18-.82-1.09-.76-1.92A4.78,4.78,0,0,1,238.71,170.59Z"/><path class="cls-1" d="M232.5,194.76c.15-.09.26.25.18.29S232.42,194.81,232.5,194.76Z"/><path class="cls-1" d="M256.92,91.78c-.55-.73-.31-1.93-.24-3,.71.36,0,1.59.76,1.92A1.6,1.6,0,0,1,256.92,91.78Z"/><path class="cls-1" d="M252.25,104.71c.4-.26,1.13.16.76.93C252.38,105.56,252,105.31,252.25,104.71Z"/><path class="cls-1" d="M234.55,180.44c0,.15-.08.31-.11.46l-.47-.11.12-.47Z"/><path class="cls-1" d="M252.25,104.71c-1.19.37-2.64-.59-2-2C251.58,102.3,252.43,103.61,252.25,104.71Z"/><path class="cls-1" d="M242.34,139.84c.48.72-.46,1.84-1.16,1.7A4.17,4.17,0,0,1,242.34,139.84Z"/><path class="cls-1" d="M249.56,103.56c-.38.82-1.32,0-1.05-.76C249.31,102.79,249.14,103.35,249.56,103.56Z"/><path class="cls-1" d="M236.56,151.27c-.75-.26-.15-1.91.46-1.86C237.83,149.77,237,151.11,236.56,151.27Z"/><path class="cls-1" d="M236.62,152c.22.06.11.33.12.52C236.51,152.49,236.62,152.22,236.62,152Z"/><path class="cls-1" d="M234.49,161.64c-.19.65-1.1.2-.87-.47C234.13,161.2,234.2,161.49,234.49,161.64Z"/><path class="cls-1" d="M266.28,31.79c-.29-.29-.65-.53-.47-1.1C266.44,30.77,266.5,31.2,266.28,31.79Z"/><path class="cls-1" d="M233.85,162.22c.53.57-.37,1.54-1,1.23C232.43,162.78,233.39,162.48,233.85,162.22Z"/><path class="cls-1" d="M231.19,167a3,3,0,0,1,1-2C232.56,165.51,232.55,167.68,231.19,167Z"/><path class="cls-1" d="M232.12,164.26l.46.12c0,.16-.08.31-.11.46l-.47-.11Z"/><path class="cls-1" d="M235.1,152.15c.15-.09.26.24.18.29S235,152.2,235.1,152.15Z"/><path class="cls-1" d="M236.19,144.75a2.74,2.74,0,0,1,.05-2.21C237,142.81,236.27,144,236.19,144.75Z"/><path class="cls-1" d="M240.21,127.45c-.1.39-.19.78-.29,1.17-.47,0-.71.35-1.28.17C237.85,127.74,239.05,126.33,240.21,127.45Z"/><path class="cls-1" d="M234,148.66l-.12.46-.93-.23.12-.46Z"/><path class="cls-1" d="M227.26,175.92a5.14,5.14,0,0,1-2.16-3.25C226.07,173.6,227.18,174.45,227.26,175.92Z"/><path class="cls-1" d="M236.86,135c-.69-.44,0-1.72-.13-2.5C238.05,132.55,237.36,134.53,236.86,135Z"/><path class="cls-1" d="M221.33,197.94c-.64-.32-1.37-1.25-.82-1.68C221.3,196.51,221.36,197.2,221.33,197.94Z"/><path class="cls-1" d="M231.72,149.83a1.57,1.57,0,0,1,.52-1.11A.62.62,0,0,1,231.72,149.83Z"/><path class="cls-1" d="M228.22,167c-.08.63-.63.48-1.1.47-.27-.44,0-1.7.81-1.28C227.74,166.65,227.8,166.94,228.22,167Z"/><path class="cls-1" d="M231.73,151.81c-.06.23-.12.46-.17.7-.77-.07-.72-.63-1.58-.64,0-.79.42-.83.75-1.05C231,151.17,231,151.7,231.73,151.81Z"/><path class="cls-1" d="M233.33,144.29a1.48,1.48,0,0,1-.29-1.8A2.21,2.21,0,0,1,233.33,144.29Z"/><path class="cls-1" d="M226.89,169.4c.47.59-.54.94-.17,1.69C225.71,170.92,226.79,169.79,226.89,169.4Z"/><path class="cls-1" d="M223,183.27c-.52-.42-.55-1.12-1.4-1.34a1.38,1.38,0,0,0-.36-1.57C222.07,180.29,224,182.2,223,183.27Z"/><path class="cls-1" d="M248.5,77.83c.15-.09.25.24.17.29S248.42,77.88,248.5,77.83Z"/><path class="cls-1" d="M225.72,167.14c.15-.1.26.24.18.29S225.64,167.19,225.72,167.14Z"/><path class="cls-1" d="M259.21,22.38a1.91,1.91,0,0,1,1-2.21,1.09,1.09,0,0,0,.64.4C261,21.69,260.47,22.62,259.21,22.38Z"/><path class="cls-1" d="M228.64,151.29c.15-.09.26.25.18.29S228.56,151.34,228.64,151.29Z"/><path class="cls-1" d="M218.06,194.17c.15-.09.26.24.18.29S218,194.22,218.06,194.17Z"/><path class="cls-1" d="M231.22,136.85c-.78-.13-.28-1-.94-1.22s-.7.59-1.51.12c-.14-1.1,1.41-1.95,2.67-1.81C231.66,135.1,230.87,135.7,231.22,136.85Z"/><path class="cls-1" d="M243.86,83.61c.15-.09.25.24.17.29S243.78,83.66,243.86,83.61Z"/><path class="cls-1" d="M215.74,196.56c.15-.09.26.24.18.29S215.66,196.61,215.74,196.56Z"/><path class="cls-1" d="M214.33,193.25c.44-.26.4-1.31,1.22-.94C215.82,192.8,215.2,193.65,214.33,193.25Z"/><path class="cls-1" d="M249.18,55c0,.51-.31.58-.46.88C248.05,55.68,248.43,54.64,249.18,55Z"/><path class="cls-1" d="M220.55,170.06c.15-.09.26.24.17.29S220.47,170.11,220.55,170.06Z"/><path class="cls-1" d="M224.8,150.84l-.12.47-.7-.18.18-.7.46.12C224.53,150.74,224.66,150.79,224.8,150.84Z"/><path class="cls-1" d="M237.31,94.11a1.33,1.33,0,0,0-.87-.47c0-.15.07-.31.11-.46.19.09.24,0,.29-.18C236.93,93.41,237.5,93.53,237.31,94.11Z"/><path class="cls-1" d="M224,147.18c.23.06.11.33.12.52C223.86,147.64,224,147.37,224,147.18Z"/><path class="cls-1" d="M222.23,148.23c.15-.09.25.24.17.29S222.15,148.28,222.23,148.23Z"/><path class="cls-1" d="M217.46,167.57c.22.06.11.33.11.52C217.35,168,217.46,167.76,217.46,167.57Z"/><path class="cls-1" d="M217.05,168.21c.15-.09.26.24.18.29S217,168.26,217.05,168.21Z"/><path class="cls-1" d="M220.78,131.06c0-.83,1-1,1.57-1.34a10.78,10.78,0,0,1,3.31-1.41c.28,0,.4.16.41.35.37,1.21-1.31,1.44-1.8,2.27C222.88,130.62,221.79,131.76,220.78,131.06Z"/><path class="cls-1" d="M215.48,167.57c-.3-.28-.16-.83-.18-1.27C215.71,166.59,215.93,167.32,215.48,167.57Z"/><path class="cls-1" d="M225.59,124.58l-.12.47-.69-.17c.05-.23.11-.47.17-.7l.46.12C225.32,124.48,225.45,124.54,225.59,124.58Z"/><path class="cls-1" d="M242,55c-.51-.62-1.65-.86-1.23-2A1.81,1.81,0,0,1,242,55Z"/><path class="cls-1" d="M220.91,136.53c-.06.24-.11.47-.17.7l-.7-.17c.06-.23.11-.47.17-.7Z"/><path class="cls-1" d="M217.89,138.75c-.09-.68,0-1.89.75-2C219.79,137.12,218.82,139,217.89,138.75Z"/><path class="cls-1" d="M243.94,35.18a.25.25,0,0,1-.11.47C243.73,35.4,243.65,35.16,243.94,35.18Z"/><path class="cls-1" d="M216,145.45c0,.16-.08.32-.11.47l-.47-.11c0-.16.08-.32.11-.47Z"/><path class="cls-1" d="M213.39,150c-.44.48-1.54-.13-1.69.82-.77-.14-1-.82-1.28.18-.21-1-.65-.75-1.75-.92.29-.58.11-.87-.53-.88.54-.47-.42-1.35-.18-2.27s1.16-.93,1.28-2.15c1.43.32,1.75-.32,2.73-.07s.94,1,1.93,1.22a19,19,0,0,0,.41,2.32C214.07,148.94,213.39,148.91,213.39,150Z"/><path class="cls-1" d="M240.29,40a.25.25,0,0,1-.12.47C239.86,40.24,240.25,40.23,240.29,40Z"/><path class="cls-1" d="M212,154.84c.15-.09.25.24.17.29S211.87,154.89,212,154.84Z"/><path class="cls-1" d="M238.45,47.42c-.8.08-.48-.51-.82-.7C237.92,46.19,238.84,46.89,238.45,47.42Z"/><path class="cls-1" d="M214.5,113.44c.15-.09.25.25.17.29S214.42,113.49,214.5,113.44Z"/><path class="cls-1" d="M216.39,103.77c-.38.25-1.07,0-1.69-.16.13-1.09.72-1.44,1.74-1.06A1.58,1.58,0,0,1,216.39,103.77Z"/><path class="cls-1" d="M237.94,13.43c0,.41-.29.39-.59.35.1-.19,0-.24-.17-.29C237.28,13.22,237.65,13.4,237.94,13.43Z"/><path class="cls-1" d="M221.67,79.37c0,.42-.29.39-.58.35a26.56,26.56,0,0,1-2.34-2.55c-.72-.89-1.82-1.55-1.76-2.91,1.47,0,2.12,2,3.27,2.79A6.67,6.67,0,0,0,221.67,79.37Z"/><path class="cls-1" d="M229.88,42.09c.25.11.07.27-.06.23S229.75,42.06,229.88,42.09Z"/><path class="cls-1" d="M204.81,142.69c.66.33-.35.45-.23.94C204,143.45,204.7,142.82,204.81,142.69Z"/><path class="cls-1" d="M218.25,85.2c-.4,1.15-.86-.34-1.4-.34-.09-.54-.51-.88-1.22-1,0-.77-1.08-.93-.77-1.92,1.21.13,1.25,1,1.58,1.63C217.64,83.71,217.45,84.76,218.25,85.2Z"/><path class="cls-1" d="M196.05,153.14c.25.11.07.27-.06.23S195.92,153.11,196.05,153.14Z"/><path class="cls-1" d="M186.62,191.35c.15-.09.26.25.18.3S186.54,191.4,186.62,191.35Z"/><path class="cls-1" d="M207.55,106.54c-.11.59-.55.63-.76,1C206.3,107.27,206.92,106.09,207.55,106.54Z"/><path class="cls-1" d="M185.52,193.8c-.31.49-1.5-.13-1.05-.75C185.06,192.68,185.25,193.42,185.52,193.8Z"/><path class="cls-1" d="M197,144.23c.25.11.07.27-.06.23S196.88,144.2,197,144.23Z"/><path class="cls-1" d="M211.79,68.28c.16-.09.26.24.18.29S211.71,68.33,211.79,68.28Z"/><path class="cls-1" d="M212.46,58.56c.32.19-.07.2-.11.47C212.07,58.9,212.23,58.5,212.46,58.56Z"/><path class="cls-1" d="M191.23,137.61c.22.07.11.33.12.53C191.12,138.08,191.23,137.81,191.23,137.61Z"/><path class="cls-1" d="M190.64,137c.16-.1.26.24.18.29S190.56,137,190.64,137Z"/><path class="cls-1" d="M190.62,92c-.26-1.23.69-3.19-.24-4,.47-.86,1.73-.41,1.74-2A7.51,7.51,0,0,0,195,84.4a5.49,5.49,0,0,1,1.45-3.85c.22-1.12-1.09-1.32-1.17-2.26a15.05,15.05,0,0,1,2-4.2,3.46,3.46,0,0,1,3.32,1.56,34,34,0,0,1-2.14,4.66c.25,1.11,1.21,1.78,1.53,2.85-.2.67-.25,1.56-.7,1.81a4.9,4.9,0,0,0,1.76,2.9c-.1.85,0,1.57.76,1.92,0,.67-.75,1.78-.28,2.16-1,1.5-1.68,3.57-3.43,3.85a25.38,25.38,0,0,1-5.76-1.67C192.6,92.9,191.31,92.62,190.62,92Z"/><path class="cls-1" d="M188.37,137.16c.16-.09.26.24.18.29S188.29,137.21,188.37,137.16Z"/><path class="cls-1" d="M212.52,39.29c-.09,1-1-.28-1.11-.52-.77-.13-1-.55-.93-1.22C211.72,37.79,211.52,38.9,212.52,39.29Z"/><path class="cls-1" d="M188,136.81c.15-.09.25.24.17.29S187.89,136.86,188,136.81Z"/><path class="cls-1" d="M190.65,118.93c0,.52-.45.36-.82.3.09-.18.29-.18.35-.41Z"/><path class="cls-1" d="M174.2,183.59c-1.42-.51.14-1.64.34-2.38C174.93,181.79,175.14,183.33,174.2,183.59Z"/><path class="cls-1" d="M174.57,172.07c.23.06.11.33.12.52C174.46,172.53,174.58,172.26,174.57,172.07Z"/><path class="cls-1" d="M173.81,171.14c.15-.09.26.24.18.29S173.73,171.19,173.81,171.14Z"/><path class="cls-1" d="M160.3,225.9c.3.51-.45,2.07-1.39,1.63C159.1,226.54,160,226.77,160.3,225.9Z"/><path class="cls-1" d="M168.93,174.88c.43,0,.1,1.41-.46.87C168.49,175.24,168.78,175.17,168.93,174.88Z"/><path class="cls-1" d="M211.24.41c-.12.58-.25,1.13-.58,1.34a4.92,4.92,0,0,1-1.28-.81C209.53-.24,210.55-.18,211.24.41Z"/><path class="cls-1" d="M202,37.93c0,.15-.08.31-.11.46l-.47-.11c0-.16.07-.31.11-.47Z"/><path class="cls-1" d="M174.44,148.55c-.34.42-1,.28-1.75.06.07-.76.85-.35.81-1.28C174,147.62,173.94,148.26,174.44,148.55Z"/><path class="cls-1" d="M169,167.72c.25.11.07.26-.06.23S168.84,167.69,169,167.72Z"/><path class="cls-1" d="M168.33,168.3c0,.16-.08.31-.11.47l-.47-.12c0-.15.08-.31.11-.46Z"/><path class="cls-1" d="M166.23,167.79c.15-.09.26.24.18.29S166.15,167.83,166.23,167.79Z"/><path class="cls-1" d="M200.79,27.74c-.27-.1-.43,0-.53.12-.55-.06-.09-.74-.53-.87.29-.29.54-.65,1.11-.47A1.58,1.58,0,0,1,200.79,27.74Z"/><path class="cls-1" d="M151.53,214.34c.23.06.11.33.12.52C151.43,214.8,151.54,214.53,151.53,214.34Z"/><path class="cls-1" d="M164.35,161.39c.23.06.11.33.12.52C164.24,161.85,164.36,161.58,164.35,161.39Z"/><path class="cls-1" d="M156.63,169.62c.32.19-.07.2-.11.46C156.24,170,156.4,169.56,156.63,169.62Z"/><path class="cls-1" d="M135.7,252.46c.15-.09.26.24.18.29S135.62,252.51,135.7,252.46Z"/><path class="cls-1" d="M169.5,112.48a2.48,2.48,0,0,1-2.21-.06C166,110,170.22,110,169.5,112.48Z"/><path class="cls-1" d="M150.35,190.07c-.27.37-.43-.07-.7-.17C149.93,189.53,150.09,190,150.35,190.07Z"/><path class="cls-1" d="M156.14,159.61c.15-.09.25.24.17.29S156.06,159.66,156.14,159.61Z"/><path class="cls-1" d="M153.64,161.71c.15-.09.26.24.18.29S153.56,161.76,153.64,161.71Z"/><path class="cls-1" d="M190,4.32c.15-.09.26.24.18.29S189.92,4.37,190,4.32Z"/><path class="cls-1" d="M140.22,189.05c-1.48-.19-1.36-3.63.34-3.37C141.67,186.25,141.48,188.71,140.22,189.05Z"/><path class="cls-1" d="M176.79,41.85c.15-.09.25.24.17.29S176.71,41.9,176.79,41.85Z"/><path class="cls-1" d="M180.91,18.14c0,.4-.32.35-.41.64C180,18.77,180.42,17.64,180.91,18.14Z"/><path class="cls-1" d="M175.13,32.54c-1.23-.11-1.41-.87-1.29-1.8C174.85,30.51,175.76,31.21,175.13,32.54Z"/><path class="cls-1" d="M139.35,170.55a1.32,1.32,0,0,0-.46.87c-.75-.14-1.41-.34-1.52-.87.06-.23.11-.46.17-.7A1.49,1.49,0,0,1,139.35,170.55Z"/><path class="cls-1" d="M118.84,240.63c.15-.09.26.25.18.29S118.76,240.68,118.84,240.63Z"/><path class="cls-1" d="M157.35,44.47c-1.14-.24-2.24-.5-2.68-1.16.14-.54.27-1.08.41-1.63,1.07-.88,3.29,0,3.67,1.15C158.56,43.83,157.77,43.85,157.35,44.47Z"/><path class="cls-1" d="M135.79,129.87c.15-.09.26.24.18.29S135.71,129.92,135.79,129.87Z"/><path class="cls-1" d="M121.73,177.82a1.14,1.14,0,0,0-.4.64c-.59-.11-1.14-.24-1-.75C120.35,176.67,121.75,177.2,121.73,177.82Z"/><path class="cls-1" d="M152,51.06c.08-.31.15-.62.23-.93A.51.51,0,1,1,152,51.06Z"/><path class="cls-1" d="M122.66,157c-.51-.15.15-1,.11-1.45A1,1,0,0,1,122.66,157Z"/><path class="cls-1" d="M119.61,169.38a10.93,10.93,0,0,1-1.44,2.86C117.92,171.39,118.67,169.37,119.61,169.38Z"/><path class="cls-1" d="M159,8.78c-.35,1.09-.68-.61-1.34-.58a1.68,1.68,0,0,1-.59-1.62C158.39,6.9,158.13,8.18,159,8.78Z"/><path class="cls-1" d="M160,2.61c.22.06.11.33.12.52C159.91,3.07,160,2.8,160,2.61Z"/><path class="cls-1" d="M129.78,125.17l-.12.47-.46-.12c0-.15.08-.31.11-.46Z"/><path class="cls-1" d="M105.73,217.62c.15-.09.26.25.18.29S105.65,217.67,105.73,217.62Z"/><path class="cls-1" d="M126.59,128.09l-.12.47c-.52,0-.36-.44-.29-.82C126.36,127.83,126.35,128,126.59,128.09Z"/><path class="cls-1" d="M126.68,119.71c.76.53-.55,1-.58.35C126.09,119.94,126.55,119.62,126.68,119.71Z"/><path class="cls-1" d="M124.21,129.73c.22.06.11.33.11.52C124.1,130.19,124.21,129.92,124.21,129.73Z"/><path class="cls-1" d="M117.37,158.45c-.13,1.21-.92,1.32-1.8,1.28C115.76,158.64,116.37,158.22,117.37,158.45Z"/><path class="cls-1" d="M133.17,92.39c-1.36-.22-1.35-1.71-.59-2.62A1.6,1.6,0,0,1,133.17,92.39Z"/><path class="cls-1" d="M111.53,172.09c.26.1.09.47.06.75C111.33,172.74,111.5,172.37,111.53,172.09Z"/><path class="cls-1" d="M114.45,155.25c.22.07.11.33.11.53C114.34,155.72,114.45,155.45,114.45,155.25Z"/><path class="cls-1" d="M120.88,128.17c-.19.69-1.54.28-1.11-.52A1.57,1.57,0,0,1,120.88,128.17Z"/><path class="cls-1" d="M98.48,206.94c0,.15-.07.31-.11.46l-.47-.11.12-.47Z"/><path class="cls-1" d="M118.14,125.27c-.33-.4-.8-.71-.65-1.4C118.39,123.92,118.43,124.49,118.14,125.27Z"/><path class="cls-1" d="M110.54,154c.15-.09.26.25.18.29S110.46,154.09,110.54,154Z"/><path class="cls-1" d="M108.93,159.58c.57.18-.13.81-.23.93C108.13,160.33,108.83,159.71,108.93,159.58Z"/><path class="cls-1" d="M111.7,131.34c.47,0,.07,1.15-.41.64l.12-.46C111.59,131.61,111.65,131.48,111.7,131.34Z"/><path class="cls-1" d="M104,155.4c-.55-.5.62-.91.81-1.28C105.81,154.75,104.29,154.87,104,155.4Z"/><path class="cls-1" d="M106.05,149.23c.15-.09.25.24.17.29S106,149.28,106.05,149.23Z"/><path class="cls-1" d="M98.55,172.59c-1.23-.18-2-.67-2.1-1.51.12-1.22.93-1.29,1.45-1.86a5,5,0,0,1,1.92,1.21C99.7,171.65,99,171.93,98.55,172.59Z"/><path class="cls-1" d="M96.9,166.25c-.47-.18.19-1-.18-1.28-.41,0-.39-.29-.35-.58-.68-.47-.36.71-1.05.24,1-1.35.76-2.84,2-4,.9.28,1.33-.2,2-.24a2.74,2.74,0,0,1,.77,4.89C99.11,165.75,97.62,165.36,96.9,166.25Z"/><path class="cls-1" d="M97.4,177.25c.23.07.11.33.12.53C97.29,177.71,97.41,177.45,97.4,177.25Z"/><path class="cls-1" d="M102.49,148.6a2.61,2.61,0,0,1-2.32,1.4c0,.92-.56,1.05-.69,1.81a6.27,6.27,0,0,1-2.62.59c-1.06-.55-1.37-1.55-1-3,.23,0,.25-.24.35-.4,1.2-.2,2.05-1,3.25-1.18,1.08,0,1,.75,1.46,1.1C101.55,149,101.8,148.43,102.49,148.6Z"/><path class="cls-1" d="M114.55,94.72a.66.66,0,0,1-.81.29C113.73,94.15,114.29,94.3,114.55,94.72Z"/><path class="cls-1" d="M87.76,202.31c.41.6-.58,1.64-1,2C86.21,203.45,87.57,203,87.76,202.31Z"/><path class="cls-1" d="M96.38,166.37c-.21.42-.65.46-.76,1-1,.27-1.59,1.07-2.55,1.35-.76.5-1.12,1.64-2.5,1.11.82-1.16,2.4-1,3.07-2.45C94.73,167.37,95.31,166.45,96.38,166.37Z"/><path class="cls-1" d="M103.89,130.9c.26.11.08.26,0,.23S103.76,130.87,103.89,130.9Z"/><path class="cls-1" d="M102.73,131.6c-.34.69-.69.15-1.22,0,.16-.29.5-.27.64-.59C102.43,131.12,102.41,131.46,102.73,131.6Z"/><path class="cls-1" d="M96.57,153.56c-.61-.73,1.05-.74,0,0Z"/><path class="cls-1" d="M107.08,106c-.55,0-.23-.52-.59-.63C106.73,104.78,107.4,105.55,107.08,106Z"/><path class="cls-1" d="M104.14,116.87c0,.47-1.14.08-.64-.41l.47.12C103.87,116.77,104,116.82,104.14,116.87Z"/><path class="cls-1" d="M101.21,128.75c-.33.66-.44-.34-.93-.23C100.46,128,101.08,128.65,101.21,128.75Z"/><path class="cls-1" d="M102.47,120.66c-.25.45-.49.4-.76.06,0-.16.08-.31.11-.47l.47.12C102.2,120.55,102.33,120.61,102.47,120.66Z"/><path class="cls-1" d="M101.72,122.7c0,.43-1.41.09-.88-.47C101.27,122.31,101.26,122.64,101.72,122.7Z"/><path class="cls-1" d="M70.44,229.43c.43,0,.09,1.41-.47.88C70.05,229.88,70.38,229.89,70.44,229.43Z"/><path class="cls-1" d="M66.66,232.7c.15-.09.26.25.18.29S66.58,232.75,66.66,232.7Z"/><path class="cls-1" d="M85,158.37c-.89-.12-1.32-.52-1.17-1.27.47.11.46-.57,1-.24C84.9,157.38,85.3,157.67,85,158.37Z"/><path class="cls-1" d="M66.32,233.11c.15-.09.25.24.17.29S66.23,233.16,66.32,233.11Z"/><path class="cls-1" d="M69.05,214c-.62-.75.92-.95,0,0Z"/><path class="cls-1" d="M95.94,100c.37.92-.64-.75,0,0Z"/><path class="cls-1" d="M53.54,204.75c-.31-.55-.36-1.24-.82-1.69-1.89-.31-2.41-1.45-3.68-2.14a2.1,2.1,0,0,0,.06-2.21c-1.07-.46-1.59,0-2.62-.4.23-.82.92-.88,1.15-1.69s-1.25-.7-2-1c-.46-.93,1.18-.48,1.16-1.69a6.64,6.64,0,0,0-.76-2.91c1-1,.66-2.21,1.21-3.9a10,10,0,0,0,1.79-4.26,8.09,8.09,0,0,1,3-1.23,6.34,6.34,0,0,1,1.62-2.56l1.87.46c2.65-.75,5.94-.46,9.72.66a4.62,4.62,0,0,0,1.46,1.11,3.34,3.34,0,0,0,1.05,1.74c.49.43.25,1.31,1.11,1.51-.17.9.76,1.13.47,2.09a9.58,9.58,0,0,1,2,2c.16,1.35.11,2.84.19,4.24a13.44,13.44,0,0,1-1.86,3.5c-.27,1.36-.9,2.93-.74,4a20,20,0,0,0-1.16,2.68,11.08,11.08,0,0,1-5,2.23,1.38,1.38,0,0,0-.88-.46c-.8-.13-.93.86-1.69.82-.37-.24-1.43-.06-1.34-.58-.87-.14-1.09.82-2.26.18-.8.09-.48-.51-.82-.7C54.81,204.22,54.45,204.94,53.54,204.75Z"/><path class="cls-1" d="M69.76,180.07c-.91-.19-1.27.53-2.27.19a2.73,2.73,0,0,1-1.29-2.8A3.3,3.3,0,0,1,68.06,176c.49-1.06,1.1-1.9,2.21-1.93,1.56.11,1.47,1.22,2,2a3.65,3.65,0,0,1-1.45,1.87C70.72,179,70.1,179.33,69.76,180.07Z"/><path class="cls-1" d="M76,159.86c-.19.87-1.11.57-1.86.53C74.35,159.56,75.13,159.64,76,159.86Z"/><path class="cls-1" d="M64.56,173.1c-1.73.3-3.33-.79-2.28-2.78a4,4,0,0,0,1.1-.47C65.45,170,65.83,172,64.56,173.1Z"/><path class="cls-1" d="M61.86,167c0,.16-.07.31-.11.47l-.47-.12.12-.46Z"/><path class="cls-1" d="M57.55,165.44c.93.3,1.19,1,2.16,1.28.23,1.07.62,1.43.18,2.27-.88,1.66-4.19.6-3.85-1.45C56.49,166.75,57.13,166.28,57.55,165.44Z"/><path class="cls-1" d="M60.62,160c-.32-.39-1-1-.41-1.34A1,1,0,0,1,60.62,160Z"/><path class="cls-1" d="M55.63,166.21c.15-.1.26.24.18.29S55.55,166.25,55.63,166.21Z"/><path class="cls-1" d="M43.27,215.31a2.83,2.83,0,0,1-2.15,1.7C41.73,216.26,42.09,215.11,43.27,215.31Z"/><path class="cls-1" d="M51,164.07a12.47,12.47,0,0,1-2.16-2.27c.16-.88-.13-1.59.11-2.44a5.32,5.32,0,0,1,2.14-2.69c.7.39.81-.19,1.28-.18,1.06.09,1.22.72,2.27.81.49,1,1.6,1.55,1.82,2.67C56.54,163.39,53.94,164.71,51,164.07Z"/><path class="cls-1" d="M52.75,174.89c-.36.45-1.12-.5-1-1C52.45,174,52.45,174.54,52.75,174.89Z"/><path class="cls-1" d="M59.24,147.57c.18.76-1.21.42-.7-.18Z"/><path class="cls-1" d="M51.48,179c-.86-.07-.37-1-1.23-1,0-.8.73-.33.93-.76A14.69,14.69,0,0,1,51.48,179Z"/><path class="cls-1" d="M51.58,173.61a.66.66,0,0,1-.29-.81A.66.66,0,0,1,51.58,173.61Z"/><path class="cls-1" d="M37.72,208.75c-.72,1.67-2.25,2-3.43,2.87-.19-1.21,1.8-1.61,2.38-2.63C37.14,209.1,37.12,208.43,37.72,208.75Z"/><path class="cls-1" d="M31.61,228.5c.33.22-.05.25-.29.18S31.36,228.43,31.61,228.5Z"/><path class="cls-1" d="M30.73,151.91c.07-.77.85-.36.81-1.29.2-1-.46-1.57-.06-2.73a12.49,12.49,0,0,1,2.09-.48c.38-.47.49-1.37.93-1.75a3,3,0,0,0,2.27-.18,7,7,0,0,0,3.2.05c1.64.53,1.92,1.88,3.61,2.38.57,1,.5,2.48,1.41,3.31a8.26,8.26,0,0,0-.46,2.85c-.51,1-1.39,1.42-1.85,2.51a10,10,0,0,1-7.74.32c-1.11-.52-1.24-1.63-2.74-1.91C31.67,154,31.59,152.71,30.73,151.91Z"/><path class="cls-1" d="M47.45,137.24c.25.11.07.27-.06.24S47.32,137.21,47.45,137.24Z"/><path class="cls-1" d="M34.81,97.29c.37.92-.64-.75,0,0Z"/><path class="cls-1" d="M1.14,218.76A.62.62,0,0,1,0,218.24C.73,218.21.55,218.72,1.14,218.76Z"/><path class="cls-1" d="M21.51,124.17c.22.06.11.33.12.52C21.4,124.63,21.52,124.36,21.51,124.17Z"/><path class="cls-1" d="M27.34,71.47c-1.05.36-2.8-.55-2.28-1.8A4.16,4.16,0,0,1,27.34,71.47Z"/><path class="cls-1" d="M17.92,94.61c-.34,1-1.29-.58,0,0Z"/><path class="cls-1" d="M315.39,121.28c.31.16-.08.42-.34.41-.32.73.12,2,.88,1.45.71.44-.16.71.12,1.52.71.32.83-.26,1.16.28a1.69,1.69,0,0,1-.81.3c.26.83.31,1.79,1.46,2.09.2.88-.87,1.3.35,1.57-.32,1-2.32,3-.92,3.73-.08.51-.85-.1-1.22-.06-.2.74-.8,1.31.06,1.75-.34.69-.69.15-1.22-.06s-1.05,1.29-.63,1.58c-1,.1-2.5,0-2.1,1.46-.57-.18-.81.18-1.1.47-.56-.06-.09-.74-.53-.87-.61.52-1.13,1.18-2,1.23-.69-.31-.83-1-1.4-1.34-.5,0-.62.51-.93.76a1.31,1.31,0,0,1-.7-1.16,6.33,6.33,0,0,0-1.34.41,21.75,21.75,0,0,1-.92,4.72,30,30,0,0,1-.9,7.68c-.08,1.37.34,2.44.3,3.79-.33,0-.47.32-.82.29-.79,0-.33-.72-.75-.93,2.05-4.72,1.44-9.43,1.06-13.33a1.57,1.57,0,0,1,.52-1.11,15.48,15.48,0,0,0-.3-2.79c-.83-.14.37,1-.46.87-1.09-.07-.51-1.15-1.11-1.51-1.13.2-2,0-2.51-.86-.67,0-1.37-.08-1.45.87-.34-.71.5-2.15-.07-2.73-.76-.39-1,.12-1.69-.17-.32-.55.25-.39.29-1.17a8.6,8.6,0,0,0-1.4-2.32c.4-1-.08-1.4-.24-2,0-.75.45-.79.58-1.34,0-.57-.53-.87-.94-1.22-1.36.11-.58,1.76-1,2.22-1.13-.24-.67-1.45-.94-2.21-.94-.13-1.25.78-2.15.7-.38,1.29-.62,2.49.82,2.68-.21,1.07-1,1.42-1.68.82,1.41-1.53-1.81-1.84-.13-3.49-.51-.2-.89-.16-1.05.23-.45-.45-.51-1.14-.82-1.68-2.38-1-3-3.07-4.55-4.59.18-.83.29-1.62-.24-2,.18-.38,1.06-1.27.64-1.58,1.11-1.65,3-2,3.94-4,.53.21.79.59,1.58.64.75-.17.93-1.3,1.62-1.58.85.34,1,.56,1.51-.12.65.49.68.1,1.63.4.4.56.07,1.55.77,1.92l.7.18c.6-.11.94-.62,1.1-1.46a8,8,0,0,0,3-2.22c.7.29,1-.06,1.34-.42a1.14,1.14,0,0,0,1.56-.35,1.6,1.6,0,0,0,1.11.52c.27,0,.28-.42.58-.35,1.24.4,2,1.43,3.27.8.67.59.37,1.76,2,1.74,0,1-.1,2.58,1.17,2.27-.4,1.2,0,1.19.94,1.22-.3.5-.93.43-1.22.93-.19.71.26,1,.35,1.57-1,.92.19,1.54-.57,2.33,0,.27.42.28.35.59a4.8,4.8,0,0,0,2.09-.48c.81-.52,1.8-.73,2.38-1.63.47.11.45-.57,1.05-.24a13.71,13.71,0,0,1,4.06-3.45,4,4,0,0,1,2.21-1.92c.68-1.61,1.84-2.43,2.84-3.51.13-.54.27-1.08.4-1.63.83,0,1.05-1.11,2.15-.7-.53,2.06-2.07,2.47-3.13,3.68s-2.26,2.16-3.13,3.67c-.67.09-1,.73-1.69.82-1.14,1.93-3,2.67-3.94,5-.52-.09-.64.47-.75,1s.41.94.35,1.57A1.89,1.89,0,0,0,315.39,121.28Zm-1.08,8.39c.09,0,0-.38-.17-.29S314.17,129.76,314.31,129.67Z"/><path class="cls-1" d="M288.69,105.3c.48-.65.14.74-.35.41.33.51-.17.81-.87.52C287.41,105.16,288.31,105.66,288.69,105.3Z"/><path class="cls-1" d="M246.47,158.17c-.67-.35-.6.53-1.28.17-.44.7-1.47.41-1.8,1.29-.7-.63-1.27-.19-2.15-.28-.68,0-.36-.58-.82-.7-1-.3-2.27-.48-2.1-1.51l-.93-.23c.58-1-.62-1.38.23-1.92-.39-.69-.11-1.79-.36-2.56.88-.17.88-.83.92-1.75.71.29.87-.31,1-1,.77-.06,1.9-1.21,2.56-.36a3.77,3.77,0,0,1,2.5-.12c.51,0,.63-.59,1,0A4.73,4.73,0,0,0,246.5,148c.18-.57-.19-.81-.18-1.28a1.69,1.69,0,0,1-1.4-.35c0-.75.45-.79.58-1.34.59.12.83-.26,1.17.29a7.74,7.74,0,0,0,1.39-2.62,1.14,1.14,0,0,1,.75-.07c.35-.67,0-.9.11-1.45.17.51.52.79.76-.06.43.07.42.41.88.46a1.73,1.73,0,0,0,.63-.58c.8.32,1.38.64,2,0,.29.49,1.33.53,2,.75a2.77,2.77,0,0,0,.94,2.21,2.66,2.66,0,0,0,.71,2.15c-.16.73-.9.49-.87,1.52.15.64.85-.53,1.33-.41.24-1,1-1.21,1.1-2.45.62-.51,1.68-.29,2.39-.65,1.21.58,2.57.43,3.38,1.33.39-.7-.49-.63-.47-1.11.45-1,1.13-1.63,1.27-3.14a4.88,4.88,0,0,1,1.57-.36,1.82,1.82,0,0,1,1.92-1.75c.14-.54-.24-.78.11-1.45.59-.11,1-.62,1.8-.3a2.07,2.07,0,0,0-.58,1.34,8.6,8.6,0,0,1,2.39.34c.6.22.41-.86,1.11-.47-.25,1.23.95,1.4,1.86,1.45,0,.52.15,1,1,1,.41.68.18,1.74,1.22,2-.38.89-.22,1.46.59,1.63-.76.9-.62,1.15-.28,2.16,0,.65-1.05,1.28-.46,1.86a1.33,1.33,0,0,1-1.17.7c-.32,1.77-1.73,1.72-2.43,2.86l-.7-.17c-.6-.13-.59.78-1,1-.34-.6-.85-.86-1.22-.05-.29-.16-.26-.5-.58-.64-1,.29-1.2-.06-2.22,0,.13-.74-1.06-.68-1.74-.93,0-.67-.84-.82-.59-1.63-.4-.15-1.23-.05-.82-.69-.41.51-1,.69-1.16,1.69-.71-.2-.87.53-1,1.22-.49,0-.72-.22-.59-.63-.92-.2-1,.83-1.74.06a.67.67,0,0,0-.64.58c-.47-.31-.38-1-.65-1.39-1.08-.2-.8-1.24-1.57-1.63-.79.88-.83,3-1.33,4.37-.16.83-1,.58-1.27,1.17.11.46.23.92,1,1a1.7,1.7,0,0,1-1.8,1.28c.17-.57.61-.61.29-1.16a1.34,1.34,0,0,1-1,0c-.34,0-.34.54-.47.88-1.55.25-2,.95-2.2,2.91-.71-.3-.38-1.22-.53-1.86-1-.15-.9,1-1.45-.11-.68-.35-.61.53-1.28.18-.35.67,0,.91-.12,1.45-.88.68-.18,2.06-1.68,1.81C246.16,159.8,247,159.57,246.47,158.17Z"/><path class="cls-1" d="M236,151.62c.46.27-.14,1.49-.41,1.63.64,1,1.54,1.85,1.7,3.14-.17.7-.34,1.4-.52,2.1a2.23,2.23,0,0,0-1.1,1.46c-1.43-.51-2,.35-3.26.18-.53,1.51-.09,2.44-.16,3.67-.76.93-1.24,2.31-2.55,2.33-.46-1.24,1.06-1.61,1.74-2,0-.32-.32-.47-.3-.81-.77-.18-1.15,1.28-1.8.29-.08.32-.16.63-.23.94-1-.69-1.1-.17-1.63.58-.58-.92-1.2-.06-1.22.94-.46-.18.2-1.05-.47-1.11-.7-.29-1,.06-1.34.42-.44-.25-.28-.82-.87-.47-.36.29-.81.41-1,1-.75.38.58-.91.06-1.23-1.71,0-2.12.24-3.9-.22-.44-.07-.34.75-.7.82-.45.33-1.1-.74-1.34.41l-.93-.23c-.51,0-.35,1.16-1.16.7a1,1,0,0,0,.24,1c-.59.53-.56-1-.65-1.4-.58,0-.4-.55-1.11-.52-.52-.09-.64.47-.75,1.05-.45-.52-.24-1.44-1.34-1.56.22,1.31,1.41,2,1.64,3.37-.95-.16-1-.87-1.11-1.51-.89-.06-.77-.73-1.52-.87-.6,0-.74.75-1,1.22-.47.12-.92.24-1,1-.6-.22-.84.13-.93.76a2.73,2.73,0,0,0-2.91.76,2.75,2.75,0,0,0-2.21-.05,21,21,0,0,1-3.14.71c-1.11,1.71-1.24,4.61-2.95,6-.1.38-.19.77-.29,1.16-.18.68-.74.73-1.22.94-.59,1.31-1.24,2.53-1.91,3.73-.37,1.46-.82,2.79-1.79,3.26-1.33-.55.17-3.19,1.21-2.91.12-.47.23-.93.35-1.4-.08-.5.54-.43.63-.58.43-.71.44-1.54.81-2.28.06-.11.6-.5.64-.58.14-.27.07-.68.23-.93s.76-.38.87-.53c.59-.74.9-2.3,1.56-3.32a12.28,12.28,0,0,1,.58-3.32c-.27-.44-.18-1.08-.65-1.4a4.68,4.68,0,0,0-1.86.53c-.67-.06,0-.92-.47-1.1-.89-.28-1.05.66-1.51,1.11-.56,0-.54-1.37-.93-.23-.4-.42.08-1.37-.59-1.63s-1.1.37-1.63.59c-.11.46-.23.93-.34,1.4s-.55.63-.75,1c-.2.66-.25,1.55-.7,1.8-.31.92-.27,2.4-1.27,2.16-.42-1.76,2.07-3,.92-4.72-.62.74-1.92.34-2.15,1.7-.81,0-.14-.84-.47-1.11-1.11-.29-1.43.7-2.39.65.2-.51.16-.89-.23-1.05-1-.32-1.4,1.39-2.1.48-.66.42-1.08,1.27-1.68,1.81.07.66-.21,1.82-1.33,1.4-.31-1,.66-.82,1.1-1.46.64-1.91.2-3.17-1-4-.5-.06-.32,1-.76,1-.6-.22-.1,1.36-.93.76a9.54,9.54,0,0,1,1.33-2.39c-.52-.7-1.5-.1-2.27-.81-.65.13-.94.85-1.33,1.4-.64-.46.45-.73.34-1.39-.53-.7-2.29-1.36-2.85-.46-.44-.35.8-1.31-.36-1.57-.31.33-.11,1-.75.06-.35.08,0,.65-.52,1.11-.52-.68-.09-1.93-1.46-2.09.35-1.58-1.54-3.21-2.4-2.32-.37-.28.07-.44.17-.7-.76-.07-.71-.63-1.57-.64a7.69,7.69,0,0,0-3,4.2c-.71-.66.12-1.21.28-2.15-.69-.05-1,.44-1.45.87-.29-.28-.65-.53-.47-1.1-.73-.22-.93.43-1.75.06.72-.57-.21-1.48-1.05-1.74.93-.66-.56-2.36-1.23-2-.36-.25,0-.57.35-.41-.65-1.06-1.31.65-2.09.47A5.16,5.16,0,0,0,151.6,159c-.45-.6-.52-1.55-1.52-.87-.16-1-.89-.81-2-1a7.26,7.26,0,0,0-2.38,2.63c-1,.11-1.43,1.13-2,2-.56-.94.77-1.55.86-2.5-.86-.22-1.2.42-1.68.82a1.84,1.84,0,0,0-1.75.06c-.7-.11-.59-.7-1.28-.81-.6-.33-.59.35-1.05.24-1.25.23-1.6,1.94-3,2,.08-.62.33-1,.93-.76-.46-.63,1-1,.46-1.86-.61-.13-.5.94-1.34.41.38-.76-.13-1,.17-1.69-1.3-.31-1.89.44-2.27-.8-.66-.11-.88.51-1.22.93-.51-.16-.36-.71-.18-1.28-1.39-.65-2.84,0-3.73-.92a6.74,6.74,0,0,1-4.78-.68c-1,.12-1.9.57-3.25.18-.59,0-.82.62-1.4.65-.44.37-.48,1.39-1.45.87.19-1.2,1-1.48,1.5-2.1,0-.31-1.39-.14-2.09-.51-.73-.11-.63,1.15-1.28,1.16-1-.16,0-.51,0-1-.13-1.12-2.27-1-2.45-2.09-.1.39-.2.77-.29,1.16-1-.24-.65,1.78-2,1,.37-.81,1.17-.92,1.63-1.58,0-.33-.32-.47-.3-.81a10,10,0,0,1-2-2.73c-1.31-.61-2.66,0-3.5-.86a12,12,0,0,0-3.31.41c-1.71-.33-1.57-1-3.21-1,0-.85.5-.91.81-1.28.09-.52-.46-.64-1-.75-1.63.14-2.78,1.07-4.48,1.12-1.15.17-1.74,1.27-3.37.65,0-.95.77-.69,1-1.23-.51-.62-.29-1.67-.64-2.38-1.26.33-2.51-1.15-3.61-.4-.36,1.08-.38,1.95.41,2.33-.11.46-.23.93-.35,1.4.47.64.38,1.62.94,2.21-.24,2.33.69,3.94.72,6.11.21.93,1.29,1.34,1.7,2.15a6,6,0,0,1-.35,2.38,23,23,0,0,0-2.09,1.46,6.12,6.12,0,0,1-3.73-1.91c.21-.65.35-1.26-.41-1.33,1.35-2.07-.12-3.62-.6-5.59-.45,0-.8-.92-1.16-.29a14.65,14.65,0,0,1-.6-3.6c-.11-.4-.67-.53-1-.76a8,8,0,0,0-2.28-3.77,6,6,0,0,0-1.82-4.65c-2.85-.58-4.49.88-7.62-.15,0-.5-.52-.62-.47-1.11,0-.71.47-.52.52-1.11,1.8-.62,4.45.16,5.23-2.17,1.89.18,2.86-1.17,4-2.22,1.76.4,2.37-1.11,4.13-.71.42-.19,1-.06,1.34-.42a19.6,19.6,0,0,0,6.75.68,9.85,9.85,0,0,0,1.4-.64,3.77,3.77,0,0,1,2.44,1.1,22.59,22.59,0,0,0,6.47.85.67.67,0,0,0,.64-.59c.69.18.64.81,1.22,1,.85.2.8-1.09,1.86-.53.2-.78-.56-1-.29-1.8,1.1-.53,1.43.74,1.92,1.21,1-.27,1.43.45,2.56.63.42-1-1.77-.38-1.11-1.5a8.65,8.65,0,0,0,2.39.34c0,.39.69.38.24,1,1.38.11,2-1.08,3.43-.88a3.76,3.76,0,0,1,0-2c-1.67-.31-2.64-1-2.62-2.38,1.46.18,1.84,1,3.14,1.27-.15,1.15.52,2.65,1.64,2.39.34-1-.37-1.37-.18-2.27,1.27-.47,1.71,1,2.33,1.56-.37-.63-.3-1.54-.7-2.15.67-.53.53.79.7,1.16a4.2,4.2,0,0,0,.88,1.45c.58-.46-.28-1.28.51-2.09.45.32,1.26.23,2,.75a4,4,0,0,0,1.52,1.85c.34,0,.34-.53.47-.87.67.37,2.76,1.37,3.32.57.54.38,1.46.8,1.92.23.29.28.15.83.18,1.28,1.61.15,1.15,1.55,2.5,1.85-.24.75,0,1.19.65,1.4,0,.92-.39,2.09.07,2.73-.18.7-.35,1.4-.52,2.1,0,.47.86.41.47,1.11a3.35,3.35,0,0,1,2.39,1.33c.61.35.68-.18,1.22,0,.76.47.92,1.29,2.39,1.33.73,0,.05-.78.29-1.16.59.17.71.63,1,1,.52.21.43-.61.87-.52a8.67,8.67,0,0,1,4,2.72c.61.36.68-.18,1.22.06a5.09,5.09,0,0,1,1.52,1.85c.16.34,0,.93.18,1.28s.81.61.47,1.11c.88-.23,1.33.73,1.8-.3.5.56,2.24,1.42,2.91,1.21.56.34.3,1,.65,1.4.55.6,1.45.4,2.62.4.31-.69,1.16-.49,1.33-1.4a1.93,1.93,0,0,0,2-.24c.82.87,1.65.6,2.39,1.33.8-.78-1.06-.9-.23-1.05.27-1,.16,0,.46.12a.67.67,0,0,0,.59.64,4.66,4.66,0,0,0,.47,2.09c.87-.16,3.09,1,3.61-.59.66.28.35.39,1,0a3.79,3.79,0,0,0,1.28-1.17l1.4.34c.07-.37.33-.86,0-1,.29-.64.27.45.64.41,1.22.33,1.35.09,2.5-.13.13-.54.27-1.08.4-1.63,1,.34,0,1.86,1.52,1.86.52.09.65-.46.76-1.05a3.62,3.62,0,0,0,2.33.58c0-.91.71-1.14.4-1.63-.83-.18-1.21.4-2,.23-.59-.85.91-1.23.46-1.86-.12-.59-1.44-.45-2-.75.25-1.07-.16-1.76-.07-2.74a7.84,7.84,0,0,0,.81-2.27c.81.24,1-.6,1.63-.59.19-1.87,1.65-1.64,2.73-2,.67.44.63.08,1.11.52,1.91.25,1.7.63,3.49.86.16.83,1.13,1.17.94,2.21.26.1.43.05.53-.12.52.48-.47,1.17-.64,1.58.22,1-.47,1.25-.28,2.15-.63.07-.58,1.24-1.46.88,0,.79-.53.64-.93.76-.1.26,0,.42.12.52-.8,0-1.55-.28-2.15.71-.75,0-.59-.58-1.34-.58.47,1.23,1.63.88,2.39.34.8,0,.33.72.76.93a1.51,1.51,0,0,0,2.15-.71c.63.48.86,1.2,2.16,1.28a1.79,1.79,0,0,0,.64-.59c.5-1.23-.76-1.39-.36-2.56,1.58,0,.77,1.38.94,2.21a5.08,5.08,0,0,1,.88,3.43l1.16.29c.46-.23.54-1.09,1.05-1.22.76,0,.29.75,1.05.75.47-.24,0-1.34.87-1.52.52.21,0,1.08.41,1.34.66.49.44-.47.69-.82.07-.08,1.17-.69.82-1.28,0,0-.47-.09-.47-.11.08-.54.46-.24.64-.59-1.39-.88-1.95-2.26-2.86-3.42.32-.66.44.34.93.23.22-1.32.46-1.69-.07-2.74-.61-.09.22.48-.23.93-.95-.88-1.61,1.18-3.08.48-.58,0-.82.62-1.4.64s-.63-.54-1.05-.75c.4-1.07,1-1.26.87-2.51.49.06.43-.81.93-.76-.15-1.22.53-.76.75-2,.73,1.17,1.79-.78,2.09.52.29,0,.31-.38.41-.64,1,.33.11,1.78,1.52,1.86-.7.75-.29,1.49,0,2.21.8.34.88-.52,1-1.23.23.05.25-.24.35-.4s.61-.14.81-.3c.4-.31.14-.49.87-.52.55,0,.6-.43.93-.76,1.73.44,2.48-.36,3.5.86a.65.65,0,0,0,.81-.3c.27.11.09.48.06.76.52.61.79,1.38,1.52,1.86a24.56,24.56,0,0,0,0,4.19c-1.1-.22-.41,1.26-.7,1.81-.39,0-.34-.32-.64-.41-.13.55-.57.59-.57,1.34-.52-.19-.89-.16-1.05.24.3.84,1.38.62,2.68,1.15.53.21.78.59,1.57.64a.67.67,0,0,0,.64-.58c-.09,1.11,1.1,1.45,1.7,2.14,1.63-.18-.13-2.09,1.68-1.8.44.59-.75,1.19-.23,1.92.93,0,1.34-.85,1.68-1.81,1,.89,1.91-.71,2.57.63.9-.22,2.13-.65,3,0a1.62,1.62,0,0,0,1.74-2c1.41.69,1.93-.09,2.09-1.46.52-.34.54.33,1.39.34,1.06.1,1.47-.86,2.27-1.17.66.4-.42.55-.46.87a3.71,3.71,0,0,1,2.56.64c.85.12.73-.5,1.46.11.56.06.63-.7,1.33-.41-.29.7.11,1,.13,1.51.47,0,1,.16,1.1-.47,1.53.24,2.39-.65,3.84-.54C235.69,152.71,235.54,152.45,236,151.62ZM94.63,146.41A4.68,4.68,0,0,1,97,146c.3-.81,1.47-.18,1.74-1.06a10.32,10.32,0,0,0-5.18.95C93.88,146.52,94.32,145.87,94.63,146.41Zm84.94,23.43c.08-.05,0-.38-.18-.29S179.42,169.93,179.57,169.84Zm-61.06-38.05c.08,0,0-.39-.18-.3S118.36,131.87,118.51,131.79Zm-7.39,1.88a.66.66,0,0,0,.81-.29C111.56,133.31,111.14,133.15,111.12,133.67Z"/><path class="cls-1" d="M285.92,95.47c.46.87-.55-.81,0,0Z"/><path class="cls-1" d="M241,169.42c-.55,0-.22-.53-.59-.64C240.43,168.35,241.3,169,241,169.42Z"/><path class="cls-1" d="M231.35,144.3c.14-.55-.23-.78.12-1.46,1,.28,1.09,1.07.7,2.16-.46-.12-.14-.71-.82-.7a4.57,4.57,0,0,0,1.06,3.72c-.46,1.1-1.69.92-2,2.22a1.3,1.3,0,0,0-1.68.82,4.08,4.08,0,0,0-2.62-.4c.42-.72-.14-.84-.76-.93a4.82,4.82,0,0,0-.65-2.38c.19-1.32,2.07-2.61,1.33-3.38,1-.18,2.32.74,3-.24.42.21.26.77,1,.75C230.75,144.83,230.68,144,231.35,144.3Z"/><path class="cls-1" d="M240.3,100s.24-.65.35-.41-1.6,1.52-.87.53C239.86,100,240.19,100.12,240.3,100Z"/><path class="cls-1" d="M237.11,103c-.8.21-1.4-1.39-2-2,.3-.71-.22-.92.17-1.69.78.59,1.48,1.23,1.11,2.5A2.13,2.13,0,0,0,237.11,103Z"/><path class="cls-1" d="M220.58,141.89c.1.73-1.38,1.65-2.38,1.64C218.55,142.26,219.87,142.57,220.58,141.89Z"/><path class="cls-1" d="M214,137.54c.88-1.49,2.67-1.48,4.18-1.93.28-.09.38-.48.82-.29-.83.82-1.89,1.25-2.73,2C215.35,137.17,215,137.88,214,137.54Z"/><path class="cls-1" d="M207.45,170c.58.67-.88.71-1,1.23C206,170.82,207.22,170.45,207.45,170Z"/><path class="cls-1" d="M192.93,140.75c-.3.11-1.3-1.06-1.29-1.8C192.51,139.29,192.26,140.29,192.93,140.75Z"/><path class="cls-1" d="M189.18,133.9c-.1.29-1.39-.33-1-1C188.94,133,188.65,133.69,189.18,133.9Z"/><path class="cls-1" d="M186.78,129.59c-.37.21-1.12-1-1.05-1.74C186.77,128,186,129.26,186.78,129.59Z"/><path class="cls-1" d="M174.8,170.15c.58-.48-.07.39-.17.69C174.25,170.57,174.7,170.41,174.8,170.15Z"/><path class="cls-1" d="M170.42,165.85c.86-.46-.81.55,0,0Z"/><path class="cls-1" d="M160.43,2c-.3.64-.28-.45-.65-.41C160.2.84,160.18,1.93,160.43,2Z"/><path class="cls-1" d="M111.31,157.94c.58-.47-.07.4-.17.7-.58-.07-1.39,1.18-1.63.59C109.9,158.45,110.89,158.66,111.31,157.94Z"/><path class="cls-1" d="M109.44,155.5c-.2.32-.49.51-.69.82-.65-.14-.38-.5-.94-.23C107.52,155.8,108.92,155.54,109.44,155.5Z"/><path class="cls-1" d="M83.57,166.18c.87-.46-.81.55,0,0Z"/><path class="cls-1" d="M82.18,166.82c.54.3-.52.63-.7.82C80.8,167.1,82,167.08,82.18,166.82Z"/><path class="cls-1" d="M62.26,221.48c.87-.46-.81.56,0,0Z"/><path class="cls-1" d="M54.76,166.73c.68-.38-.42.44-.81.3-.58.36-1,.95-1.92.76C52.47,166.67,53.72,166.87,54.76,166.73Z"/></g></g></svg>