<svg xmlns="http://www.w3.org/2000/svg" viewBox="0 0 371.02 247.29"><defs><style>.cls-1{fill-rule:evenodd;}</style></defs><g id="Слой_2" data-name="Слой 2"><g id="Layer_1" data-name="Layer 1"><path class="cls-1" d="M310,247.27c-1.31.17-.82-1-1.74-1.17C308.64,245,310.59,246.16,310,247.27Z"/><path class="cls-1" d="M325.32,26.53c.16,1.29-1.07.77-1.57,1.21,1.2,2.19-2.11,3.28-.71,5.58-.89,1.91-2.77,2.55-3,5.27-1.78,1.3-4.26,1.7-6,3a11.21,11.21,0,0,1,.57,2.91c-1.69-.23-.68-2.55-3-2.27-2-.61-2.09,1.26-3.48,1.44-3.25-.84-4-1.54-6.91-1.35-1,.65-2.31,1-2.67,2.49-2.19.25-4.62.16-6.28,1.09-.23-1.36-2.39-1.22-4.06-1.46-.95-.08-1.07-1.09-1.68-1.63s-1.39-.69-1.74-1.17c-.47-.65-.2-1.48-.63-2.44s-1.24-1.08-1.15-2a32.21,32.21,0,0,1,4-8.93c1.7.57,2.33-.24,2.56-1.56,1.56.57,2-.27,2.9-.58.48-1.76-.54-2.37.07-4.23a3.07,3.07,0,0,0,2.38-.17c.81-1.89-.49-2.13-.51-3.37,1.05,1.29,3,.75,2.56-1.56,1.89-.45,4.25-.28,4.18-3.25,2.38,1.79,5.74.71,5.93-2.07,1.47.25,1.34,1.75,2.55,2.21,1.11,0,1.83-.51,3.31-.05,1.48,0,1.07,1.41,2.14,1.69,2.23.09,3.09,1.23,5.52,1.17.76,1.64-.25,4.66,2.71,4.6C322.28,24.14,323.46,25.6,325.32,26.53Z"/><path class="cls-1" d="M309.28,8c-.33.66-.84,1.08-1.16,1.74C306.45,9.6,305.37,9,305,7.9,305.29,5.3,308.89,6.29,309.28,8Z"/><path class="cls-1" d="M283.5,188.22c-3,.1-3-2.13-5.34-2.56-1-1.46-3.53-1.73-2.72-4.59,4.71.4,5.53,3.81,8.24,5.76C283.61,187.3,283.56,187.76,283.5,188.22Z"/><path class="cls-1" d="M280.74,150.6l-.12.93-.93-.12.12-.93Z"/><path class="cls-1" d="M260.4,232.47q0,.47-.12.93l-.92-.12.12-.93Z"/><path class="cls-1" d="M276.63,42a2.38,2.38,0,0,1-1.56,1.22L274.71,46c-.37,1.68-2.08,1.64-1.93,4-1.61-.28-1.67,1.45-2.61,2-2-.58-2.68.51-3.49,1.44-1.14-.61-3-1.21-3.77,0-.53-.73-2.25-2-2.79-.35-.93-.25-.77-1.36-1.16-2-2.55.84-2.22-2.7-3.59-1.4a32.51,32.51,0,0,0-2.2-5c1.27-2-.5-4,.43-7,1.33.65,1-.93,1.16-1.74,1.83-.33,3.52-.85,3.72-3.3,2.58.63,3.77-.54,5.35-1.2,1.76.63,4.22,1.37,6,.76-.12,1.86,1.65,2.24,3.08,1.81l-.24,1.86c.2,1,1.08,1.39,2.15,1.69C275.27,39.18,273.94,42.16,276.63,42Z"/><path class="cls-1" d="M252.23,100.26c.16-1.3-1.4.94-.81-1,1.46.26,2.73.67,2.55,2.21-1.36.21-1.12-.81-2.26-.77C251.67,100.26,252,100.25,252.23,100.26Z"/><path class="cls-1" d="M231.27,79.66c1.71-1.26,2.74,1.51,0,0Z"/><path class="cls-1" d="M215.39,93.21c.53.14.28.89.28,1.45C215.14,94.52,215.39,93.77,215.39,93.21Z"/><path class="cls-1" d="M213.33,101.91c.27-.21.55.42.41.53S213.19,102,213.33,101.91Z"/><path class="cls-1" d="M207.64,128.08c.65.29-.1.41-.12.93A.47.47,0,0,1,207.64,128.08Z"/><path class="cls-1" d="M223,.28c.52.16.2.5-.06.47C222.4.59,222.71.25,223,.28Z"/><path class="cls-1" d="M205.85,127.38c.44.07.28.61.34,1C205.74,128.3,205.9,127.76,205.85,127.38Z"/><path class="cls-1" d="M198.09,117.9l-.18,1.39-1.86-.23C195.78,117.45,196.89,117.62,198.09,117.9Z"/><path class="cls-1" d="M176.19,175c.27-.21.55.41.4.53S176,175.15,176.19,175Z"/><path class="cls-1" d="M161.46,190.62c.27-.21.55.41.41.52S161.32,190.73,161.46,190.62Z"/><path class="cls-1" d="M160.82,192c.27-.21.55.41.41.52S160.68,192.06,160.82,192Z"/><path class="cls-1" d="M142.61,160.85c-2.41-1.49-4.7-3.06-4.87-6.28C140.25,156,142.7,157.43,142.61,160.85Z"/><path class="cls-1" d="M151.27,29.84c.27-.21.55.41.4.53S151.12,30,151.27,29.84Z"/><path class="cls-1" d="M116.19,160.79c-1.89.07-1.11-1.94-1-3.43A9.29,9.29,0,0,1,116.19,160.79Z"/><path class="cls-1" d="M115,155.44c.54.15.29.9.29,1.46C114.74,156.75,115,156,115,155.44Z"/><path class="cls-1" d="M121.43,52.94c.1,2.11-1,2.71-1.05,4.58C119.84,57,119.8,52.49,121.43,52.94Z"/><path class="cls-1" d="M120.1,26.35c.09,1-.78.79-1.51.75.14-.37.52-.41.58-.87C119.48,26.26,119.79,26.31,120.1,26.35Z"/><path class="cls-1" d="M111.69,47.92c.27-.21.55.41.4.52S111.55,48,111.69,47.92Z"/><path class="cls-1" d="M91.63,138.79c1,1.2-1,3-1.46,4.06C89,141.43,91.72,140.56,91.63,138.79Z"/><path class="cls-1" d="M100.1,64.85c.27-.21.55.41.4.52S100,65,100.1,64.85Z"/><path class="cls-1" d="M78.24,129.06c-.89.83-1.52,2-3.08,2C75.4,129.4,76.92,127.62,78.24,129.06Z"/><path class="cls-1" d="M72,63.62c.07,1-.48,1.19-.71,1.8-.65-.19,0-1.41-.75-1.51,0-.41.24-.42.53-.41Z"/><path class="cls-1" d="M62.82,94.54c-2.1,1.62-5.72,1.26-8.31,2.25-2.8-.49-6.45-.31-7.78-1.93.87-2.13,4.27-1,5.93-2.08C57.18,93.2,59.34,94.11,62.82,94.54Z"/><path class="cls-1" d="M62.14,33.12a4.31,4.31,0,0,1-3.24-.41C60.08,31.7,61.14,32.24,62.14,33.12Z"/><path class="cls-1" d="M55.34,64.34c-.57,2.21-6,1.82-7.08,0C48.74,62.14,53.89,63.59,55.34,64.34Z"/><path class="cls-1" d="M44.91,57.35c0,.55-.21.81-.59.87-1.63-.41-2.32-1.56-4.52-1.52-1.26-2.24-5.69-2-5.45-5.41C40.37,51.37,41.44,55.28,44.91,57.35Z"/><path class="cls-1" d="M32.73,101.09c.52.15.2.5-.06.46C32.16,101.4,32.47,101.06,32.73,101.09Z"/><path class="cls-1" d="M221.57,29.83c2.1.05.67,2.83,1.9,3.54,1.89.36,2.44,1.75,4.47,2,2.2,3.45,5.7,5.91,9.85,7.86a19,19,0,0,1,4.05,9c-.58,1.13-1.09,2.53,0,3.3-1.55,2.15-2.22,5.43-4.6,6.5l-.3,2.32c-2.23-.54-2.41,1.57-4,1.85-1.14,4.66-4.75,6.11-7.68,8.46-.71,1.67,1.64,1,1.09,2.5-2.88.26-3.89-2.63-6.43-1.3-.59,1.85,1.29,1.79.45,3.83-4.82-.88-7.67,2-7,6.67-2.51-.58-4.29,1.19-5.17-.19-1.19.44-1.74,1.71-2.27,3-2.53,0-3.19,2.36-5.52,2.6-3,4.2-7.23,6.88-9.55,12-1,.2-1.39,1.08-1.69,2.14-3.19.92-5.14,3.45-8.14,4.63-2,.06-3.09-.22-4.23-.07-2,1.24-3.73,2.76-6.11,3.47.15-2.15,2-2.14,2.8-3.42-.38-1.52-.91-2.93-3.42-2.8,0-1.14,1-.89.76-2.26,0-2.26-3.31-1.9-2.19-5-2.52-.86-4.3,1.35-6.1-.31-1.82.72-2.86,2.43-4.25,3.71a11.24,11.24,0,0,0-4.24,3.7,2.61,2.61,0,0,1-1.92.23c-.81,1.12-1,3.07-3.14,2.43-.13-1.24.4-1.65,1.57-1.21,1-2.29,3.52-2.67,4.42-5.1l1.4.17a84.36,84.36,0,0,1,7.44-6.6c.14-1.78-3.39-.72-4-1.92-1.74.29-3.86,2.3-5.75.68a6.66,6.66,0,0,0-3.2,2.9c-2.66-.38-3.24,1.93-5.46,2.13,0,1.78-1.19,2.07-1.81,3.08-1.15-.09-2.24-.22-2.72-.82-2,.86-3.05,2.91-5.58,3.06-1.13,2.69-2.84,4.63-4.2,7,.41,1.91,1.91,3,2.72,4.59-.95,2.3-.39,6.21-1.24,9.75-1.1,1.64-2.78,2.54-3.44,4.75-4.5,1.93-8.09,5.05-13.48,5.83a13.32,13.32,0,0,0-8.42-.6c-2.06-1.89-5.39-2.8-9-3.5-1.26-2.23-4-3.29-6-5a11.86,11.86,0,0,1-10-3.15c-1.73-.43-2.24.71-3,1.5-1.32-.57.46-1.46.29-2.32-1-2.49-3.1-2.94-5.86-2.17-.71-1.08,1-2.28,1.4-3.59.18-3,1.94-5.63,1.07-8.36.18-2.23,1.11-5-.16-6.15-1.53,0-1.72,1.74-3.08,2-1.66-.25-2.59-1.06-4.07-1.46-2.19,0-4.25.39-5.51-1.17.37-2.59,2.7-2.65,4.25-3.71.5-1.34.93-2.77,2.27-3,.15-2,1.11-2.89,1.93-4,0-1.11-1.51-1.07-1.1-2.5.81.21,2.38-.17,1.74,1.17a9.66,9.66,0,0,0,3.14-2.43c-1.27-4.14,2.92-4,2.92-8.13-.33-.86-1.32-1.21-2.67-1.28.15-2.35-2.74-2.34-2.19-5,2.18-.29,1.66,1.51,3.59,1.4,1.33-.09,1.53-1.63,2.21-2.55-1.66-.88-4-.31-5.39-2.1-.75-1.23,1.72-1.78,3.08-2,2.16.29,2,2.33,3.36,3.26,3.44-1.14,6.12-3.26,10.34-3.4.76-1.82.32-2.7.13-4.7-1.52-2.17-3.43-4-4.34-6.69,1.4-1.09,1.69.82,2.67,1.29.79.78,2.32,1,2.55,2.21,1.46-.15,1.63.69,2.72.82-.16,2.05-1.65-.16-2.32-.3-.8,2.16,1.57,1.86,2,3.08,3-.52,3.57,1.17,6.9,1.36,1.47-.21,1.29-1.17,2.85-.11,1.49-.6,2.48-1.85,3.67-2.84-.24-1.5-1.28-2.36-1.39-4,1.94.86,3,2.26,1.79,4.48,4.75,2.7,8.92-2.39,13.64.32,1.42-.15,2.08-1.29,3.08-2,2-.45,4.11-.82,5.46-2.14a23.73,23.73,0,0,0,3.66.94c1.32.09,2-.61,3.37-.52,1.69.1,2.13,1.15,3.59,1.41,1.52-.38,2.93-.91,2.8-3.42,1.8-1.1,3.88-1.84,4.36-4.63.25-2.85-2.69-3.22-3.58-5.18-1.65-1.38-4-2.2-6.21-3.15-3.43,0-6.66.47-9.22-1.65-2.42.93-7.12-1-8.88-.66-1.71-1-6.57.65-7.32-1.87.44-1.42,2.79-.37,3.89-.92,1.07.29,2,.73,2.15,1.69,1.09-.94,3.16,0,5.16.18,1,.12,2.24.3,3.26.42.65.07,1.3.18,1.85.23A6,6,0,0,0,132,43.9c1.09.13,1.26,1,2.72.82a2.3,2.3,0,0,0,2.45-.63A30.25,30.25,0,0,0,144,46.37c.46,4.29,5.13,5.48,9.16,5.88A5.54,5.54,0,0,0,155,48.72c-.1-2.55-2.74-3.52-4.23-3.84-1.32-.1-1-1.46-1.62-2.1a9.38,9.38,0,0,1-3.08-1.8c-3.62,1-9.34.05-11-2.82-3.82-1.68-8-1-10.45-3.21.21-1.54,2.69-.14,3.43-1,1.37.43,2.47,1.47,4,1.92,2.12.63,4.54.29,6.51.83,1.43.4,2.37,1.64,3.54,1.87,1.71,0,2.32-1.32,3.13-2.43,2-.18,3.2-1.28,4.94-1.73A31.78,31.78,0,0,0,163,33.7l2.33.3c3.45,2.76,9.94,3.18,16,3.92,1.15-.5,1.73-1.72,2.67-2.49,0-3.32-1.75-5.34-.67-9.52.73.23.85-.34,1.45-.29,2.24.36,1.47,3.06,1.21,5.35a14.14,14.14,0,0,0,1.85,4c2.9.4,3.65,2.46,5.68,3.55a8.56,8.56,0,0,0,3.48-1.44c1.74-.09,1.66,1.23,3.13,1.34,2.41.53,3.73-1.18,5.64.25,1.8.35,1.94-1.46,3.89-.92l-.36,2.78c0,1.11,2,.71,2.15,1.69,2.86-1,3.85-4.4,6.4-5.79,1.21,1.25-1.19,2.39-1,4.12,4.11,2.78,6.36-3.36,3.55-5.68-.38-.14-.46.12-.52.4C220.2,34.07,219.58,30.46,221.57,29.83ZM223.69,65a7.47,7.47,0,0,0,.4,4.3,2.65,2.65,0,0,1,1.8.7C228,68.63,226.11,65.43,223.69,65Zm.86,8.13a1.77,1.77,0,0,0-2.1,1.62,3.06,3.06,0,0,0,2.27.76A3.08,3.08,0,0,0,224.55,73.14ZM215.74,42.3a3,3,0,0,0,.16,2.38c1.73.6,1.93-.76,2.56-1.56C218,42.51,216.89,42.38,215.74,42.3Zm-89.51,69.28c.89,0,1,.66,1.8.7.23-.61.77-.8.7-1.8C127.54,110.39,126.33,110.27,126.23,111.58Z"/><path class="cls-1" d="M222.79,79.53c-.19-2.53,1.48-.37,0,0-.13.65-.24,1.3.29,1.45-.33.65-.84,1.08-1.17,1.74-.1.77-.2,1.54-.29,2.32s-.56.89-.53.4C221.44,83.19,221.39,80.42,222.79,79.53Z"/><path class="cls-1" d="M160.12,193.75c.35-1.71,1,1.51-.12.93C159.09,195.67,160.06,194.51,160.12,193.75Z"/><path class="cls-1" d="M136,42.52c1.71.36-1.52,1-.93-.12-1.27-.25-4.42,1.79-4.64-.59C133.58,42.4,133.75,41.44,136,42.52Z"/><path class="cls-1" d="M84.43,36c-.44,1-1.43-1.08-1.68-1.63-.56-.87-2.52-1.77-1-3C83.14,32.5,82.89,34.92,84.43,36Z"/><path class="cls-1" d="M.06,151.22c-.28-.94.47-.86.32-1.66,2.25-.44,3.87-1.48,7-1.07.42,1.14-.66,1.26-1.31,1.67a9.28,9.28,0,0,1-4.64,1.38C.8,151.59.69,151.14.06,151.22Z"/><path class="cls-1" d="M7.4,152.81c0-.33,0-.67,0-1,2.63-.45,5.2-2.7,8-1.08,0,1.3-1.78.89-2.31,1.69-1.86-.17-2.94.41-4.32.71C8,153.28,7.85,152.91,7.4,152.81Z"/><path class="cls-1" d="M10.26,172.07c0-.22,0-.44,0-.66h.66c0,.22,0,.44,0,.66Z"/><path class="cls-1" d="M38.84,202.38c0-.34,0-.67,0-1a46.39,46.39,0,0,0,5.59-5.71c.85,0,1.16-.62,1.65-1,.93.72-1,1.38-1,2.34-.77.23-.88,1.12-1.65,1.35s-.51,1.48-1.65,1.35a7.45,7.45,0,0,1-.64,2A5.61,5.61,0,0,1,38.84,202.38Z"/><path class="cls-1" d="M41.94,180.39a.33.33,0,0,1,0-.66C42.14,180,42.34,180.32,41.94,180.39Z"/><path class="cls-1" d="M43.22,78.28v-.67h1.32c0,.22,0,.44,0,.66Z"/><path class="cls-1" d="M50.74.37c-.17.18-.43-.23-.34-.33S50.83.28,50.74.37Z"/><path class="cls-1" d="M52.67,124.41c-.28-1.26,1.57-.44,2.33-.69,1.19-.21,1.61.37,2.33.64C55.67,125.12,54.27,124.37,52.67,124.41Z"/><path class="cls-1" d="M57.33,91.77c1-.26.65.9,1.67.64C58.77,93.65,57.21,92.83,57.33,91.77Z"/><path class="cls-1" d="M60.63,186.86c-.82-1.11,1.12.79,0,0Z"/><path class="cls-1" d="M62.65,189.16c-.82-1.1,1.12.8,0,0Z"/><path class="cls-1" d="M62.22,49.48c1.21,0,1.47,1,1.35,2.31A2.33,2.33,0,0,1,62.22,49.48Z"/><path class="cls-1" d="M66.94,120.94c.33-1.52,4.06-1.17,5.31-.72C71,121.42,69.09,120.34,66.94,120.94Z"/><path class="cls-1" d="M67.84,143.88c-.3-1.06.51-1,.65-1.67,2.52.39,3.33-.91,5.31-1.05C72.56,142.79,70.38,143.51,67.84,143.88Z"/><path class="cls-1" d="M69.73,101.62c1.39-.18,1.84.59,2.68,1,.64-.67,1.89-.23,2.66,0-1,1.67,1.85.88,1.69,2.65-2.44-1.37-4.7-.82-7-2.26C69.74,102.5,69.74,102.06,69.73,101.62Z"/><path class="cls-1" d="M72.59,152.81c-.17.17-.43-.24-.34-.33S72.68,152.72,72.59,152.81Z"/><path class="cls-1" d="M73,189.06c.69-.15.88.22,1.33.32A.69.69,0,1,1,73,189.06Z"/><path class="cls-1" d="M73.56,150.47c.16-2.22,2.84-4.49,5-2.71A3.72,3.72,0,0,1,73.56,150.47Z"/><path class="cls-1" d="M73.21,84c-.17.18-.42-.23-.33-.32S73.3,83.86,73.21,84Z"/><path class="cls-1" d="M72.94,57.68c-.34-.34.15-.51.33-.33C73.62,57.69,73.13,57.87,72.94,57.68Z"/><path class="cls-1" d="M74.85,146.8c-.11-.88.45-1.1,1.32-1C75.89,146.28,75.92,147.08,74.85,146.8Z"/><path class="cls-1" d="M74.71,100.57c0-.33,0-.67,0-1,.79.32,2.11.09,2,1.31C75.7,101.13,75.73,100.32,74.71,100.57Z"/><path class="cls-1" d="M75.79,140.8c0-.22,0-.44,0-.66-.11-2.09,2.06-1.94,3-3,1.48-.52,2.19-1.8,4.3-1.7,0,1.55-1.07,2-2.3,2.35C79.88,139.55,78.24,140.57,75.79,140.8Z"/><path class="cls-1" d="M78.16,144.77c-.17.17-.43-.24-.34-.33S78.25,144.68,78.16,144.77Z"/><path class="cls-1" d="M77.55,117.5c.3-.82,1.31.42,1.34,1C78.21,118.39,78,117.83,77.55,117.5Z"/><path class="cls-1" d="M78.07,103.2c0-.22,0-.45,0-.67h.66c0,.23,0,.45,0,.67Z"/><path class="cls-1" d="M81.32,193.29c-.18.18-.43-.23-.34-.32S81.41,193.2,81.32,193.29Z"/><path class="cls-1" d="M82.36,230.54c.37-.82.31-1.85.64-2.67.21-.52.76-.53,1-1s.11-1.19.31-1.67a13.66,13.66,0,0,0,.65-1.33,11.43,11.43,0,0,1,.32-1.34c.07-.15.6-.21.66-.34.28-.6.17-1.64,1-2-.25-1,.56-1,.31-2,.17-.13.48-1.62.66-.67,1.16-.31.58,1.08.35,1.32a1.46,1.46,0,0,0-.65,1.34c-1.81,2.52-2.14,6.47-4.24,8.69C83.31,229.71,83.3,230.57,82.36,230.54Z"/><path class="cls-1" d="M83.21,215.56c0-.22,0-.44,0-.67-.17-1,.4-1.36,1-1.67.31-1.45.56-3,2-3.35a45.31,45.31,0,0,1-1.6,5.68Z"/><path class="cls-1" d="M84.81,177.29c-.17.18-.43-.23-.34-.32S84.9,177.2,84.81,177.29Z"/><path class="cls-1" d="M83.19,51.26c.43-.85,2.17-.23,1.67,1C84.34,51.87,84.16,51.16,83.19,51.26Z"/><path class="cls-1" d="M84.7,101.13c2.22-.28,4.49.9,4,2.29C86.48,103.57,84.88,103.08,84.7,101.13Z"/><path class="cls-1" d="M86.8,176.28c0-.34,0-.67,0-1a18.1,18.1,0,0,0,1.64-2.35c.48-.65.69-1.88,2-1.68C89.69,173.41,89.42,176,86.8,176.28Z"/><path class="cls-1" d="M90.69,134c3.3,1.37-.31,6.84-3,4.35A4,4,0,0,1,90.69,134Z"/><path class="cls-1" d="M90.7,200.52c-.38-.06-.19-.34,0-.34C91.08,200.24,90.89,200.52,90.7,200.52Z"/><path class="cls-1" d="M89.79,111.39c0-.33,0-.66,0-1,1.24-.36,1,.82,2,.65C91.79,112,90.22,111.84,89.79,111.39Z"/><path class="cls-1" d="M92.63,96.06c1.85,0,3.08.67,3,2.63C93.7,99,92.19,97.08,92.63,96.06Z"/><path class="cls-1" d="M100.38,171.15c.27,1.25-.39,1.59-.31,2.66-2.34,2.21-2.87,6.18-5.9,7.71-.07-.26-.34-.32-.34-.66-.21-.29-.41-.59,0-.66.8-1.63,2.12-2.75,3-4.36-.38-2.12.79-2.74,1.29-4C99.28,172.05,99.33,171.1,100.38,171.15Z"/><path class="cls-1" d="M93.25,156.59c-.16-1.26.64-1.57,1-2.34C95.39,154.47,94.44,156.68,93.25,156.59Z"/><path class="cls-1" d="M97.26,159.21a16.79,16.79,0,0,1-1.63,2.68C93.62,161.39,95.79,159.24,97.26,159.21Z"/><path class="cls-1" d="M95.86,151.91c.13-.64.1-1.44,1-1.35C97,151.43,97,152.23,95.86,151.91Z"/><path class="cls-1" d="M95.74,107.34c0-.33,0-.67,0-1a3.09,3.09,0,0,1,3,2.3A22.6,22.6,0,0,0,95.74,107.34Z"/><path class="cls-1" d="M95.32,34.51c.51-1.49.92.16,1.34.65C96.1,36.33,96,34.33,95.32,34.51Z"/><path class="cls-1" d="M96.33,100.35c1.24.3,2.34.75,2.35,2.3C97.62,102.17,96.23,102,96.33,100.35Z"/><path class="cls-1" d="M97.68,167.19c-.07-.73.26-1.07,1-1C98.73,166.9,98.4,167.24,97.68,167.19Z"/><path class="cls-1" d="M99.64,196.77c-.71-1.05,1.23-2.3,1-4,.93-.74,1.09-2.23,1.63-3.35.88-.67.19-2.88,1.63-3,.62.93-.84,2.1-1.3,3C102.27,192.54,100.81,194.51,99.64,196.77Z"/><path class="cls-1" d="M99.34,167.17c-.17.17-.43-.24-.34-.33S99.43,167.08,99.34,167.17Z"/><path class="cls-1" d="M99.49,148.87c-.38-.05-.19-.33,0-.33C99.86,148.6,99.67,148.87,99.49,148.87Z"/><path class="cls-1" d="M100.36,168.82c-.17.17-.43-.24-.34-.33S100.45,168.73,100.36,168.82Z"/><path class="cls-1" d="M101.26,94.65c-.32,0-.26-.41-.34-.67C101.24,94,101.18,94.39,101.26,94.65Z"/><path class="cls-1" d="M101.36,104.29c.18-.92.33-1.87,1.65-1.68-.06.38.07.59.33.66A1.2,1.2,0,0,1,101.36,104.29Z"/><path class="cls-1" d="M103,105.27c-.24-1.24,2.51-.84,2,.31C103.86,106.18,104.21,105.37,103,105.27Z"/><path class="cls-1" d="M103,100.28c1.23-.13,1.89,1.34,1.35,2C103.54,102,102.69,101.7,103,100.28Z"/><path class="cls-1" d="M108.13,213.31c-.26,1.16.51,1.27.35,2.32-.5.83-.37,2.27-1.64,2.35C106.29,216.66,106.5,213.56,108.13,213.31Z"/><path class="cls-1" d="M105.34,103.25c-.32-1.3,1.15-.85.64-2.34a3.59,3.59,0,0,1,2,2.65c-1,.29-1.26-.28-1.67-.65A1.53,1.53,0,0,1,105.34,103.25Z"/><path class="cls-1" d="M108.61,97.56c1,.06,1.37.85,2,1.31,0,.73-.83.73-1.66.68A2.78,2.78,0,0,1,108.61,97.56Z"/><path class="cls-1" d="M110.59,96.21c1.24,1-1,1.13,0,0Z"/><path class="cls-1" d="M112.79,214.26c-.17.17-.42-.24-.33-.33S112.88,214.17,112.79,214.26Z"/><path class="cls-1" d="M113,166.7c0,.91.56.66,0,1.33A.71.71,0,1,1,113,166.7Z"/><path class="cls-1" d="M111.61,33.34c-.39-.05-.29-.6-.34-1s0-.67,0-1C112,31.38,111.41,32.76,111.61,33.34Z"/><path class="cls-1" d="M113.92,97.18c1.08-.18,1.81,1.71,1,2.31C113.9,99.45,114,98.19,113.92,97.18Z"/><path class="cls-1" d="M115.15,86.52c-.18.17-.43-.24-.34-.33S115.24,86.43,115.15,86.52Z"/><path class="cls-1" d="M117.37,174c1.46,1.75.47,3.95.39,6a4.29,4.29,0,0,0,.35,1.33c0,.51-.64,2.55-.29,4-.43.41-.52.14-1,0-.73-.68,0-1.07.32-1.66C117.4,180.1,116.67,177.31,117.37,174Z"/><path class="cls-1" d="M116.53,157.35c1.62-.08,3,.12,2.69,2C117.92,160.13,115.7,158.64,116.53,157.35Z"/><path class="cls-1" d="M116.15,87.18c-.17.17-.43-.24-.34-.33S116.24,87.08,116.15,87.18Z"/><path class="cls-1" d="M117.33,72.86c.63-1.54,1.67.83,1.69,2C117.57,75.09,118.29,73.12,117.33,72.86Z"/><path class="cls-1" d="M119.39,176.61c.77.08.78.88.35,1.33C118.77,177.66,119.36,177.44,119.39,176.61Z"/><path class="cls-1" d="M120.91,194.89c1.77.32,1.69,1.67,1,3A1.75,1.75,0,0,1,120.91,194.89Z"/><path class="cls-1" d="M123.57,194.53c1.27-.09,1.68,1.81,1,2.65C123.46,196.62,123.11,196,123.57,194.53Z"/><path class="cls-1" d="M123.79,86.43c0-.33,0-.66,0-1,1.06-.29,1.27.28,1.67.65C125.16,87.2,124.84,86.25,123.79,86.43Z"/><path class="cls-1" d="M125.75,179.87c1,.72-.37,2.13,0,0Z"/><path class="cls-1" d="M126.1,182.53c.59.3,1.17.6,1,1.65C126.19,184.24,126.15,183.37,126.1,182.53Z"/><path class="cls-1" d="M127.14,88.73a11.16,11.16,0,0,1,.29-4C130.81,84.53,129.81,90,127.14,88.73Z"/><path class="cls-1" d="M128.85,93c-.78-1,.2-3.08,1.3-3.34C129.88,91,129.18,91.82,128.85,93Z"/><path class="cls-1" d="M132.44,86.68c.15,1.46-.38,2.25-1.64,2.34C130,87.67,131.13,86.89,132.44,86.68Z"/><path class="cls-1" d="M133.55,162.49c.06-1,.84-1.36,1.31-2a1.57,1.57,0,0,0,1,.32c0,.55,0,1.11,0,1.66A2.07,2.07,0,0,1,133.55,162.49Z"/><path class="cls-1" d="M133.11,87c-.06-.83.51-1,.65-1.67A1.5,1.5,0,0,1,135.12,88C134.41,87.69,134.12,87,133.11,87Z"/><path class="cls-1" d="M134.3,170.47c1.83-.07,2,1.56,2.68,2.63,1,.66,1.49,1.85,1.37,3.65-2.67.37-2.74-1.91-4-2.95Z"/><path class="cls-1" d="M133.91,67.37c1.1.11.54,1.91.69,3a4.39,4.39,0,0,1,0,3.32C132.65,72.62,135.31,69.68,133.91,67.37Z"/><path class="cls-1" d="M138.57,165.44c1.78-.14,1.69,1.63,2,3,.76.72,1.37,2.28.36,3-2.33,0-2.1-2.56-3.36-3.63C137.7,166.78,137.77,165.75,138.57,165.44Z"/><path class="cls-1" d="M140.76,151.78c1.57.58-.2,1.75,0,3-.65,1.27.06-1.59-.68-1.32C140.05,152.62,140.62,152.41,140.76,151.78Z"/><path class="cls-1" d="M141.14,156.43c-.17.18-.43-.23-.34-.33S141.23,156.34,141.14,156.43Z"/><path class="cls-1" d="M141.49,158.09c1.62.47,1.86,2.36,2,4.3C141.45,162.53,140.64,159.86,141.49,158.09Z"/><path class="cls-1" d="M141.93,136.13c1-.13.7,1.08,1,1.66.5.27.49,1.06.69,1.65C142.45,139,142,137.7,141.93,136.13Z"/><path class="cls-1" d="M142.79,155.08c1.1.8-.91,1.6,0,0Z"/><path class="cls-1" d="M147.18,161.69c1-.25,1.21.33,2,.31,0,1,.2,2.18-.31,2.67C147,164.93,146.51,163.08,147.18,161.69Z"/><path class="cls-1" d="M145.56,3.39c-.17.18-.42-.23-.34-.33S145.65,3.3,145.56,3.39Z"/><path class="cls-1" d="M147.24,168c0-.33,0-.66,0-1h1.33C148.91,168.11,148.11,168.09,147.24,168Z"/><path class="cls-1" d="M148.29,205.58c2-.2,2.4,2.37,1.37,3.31C148,209,147.86,206.72,148.29,205.58Z"/><path class="cls-1" d="M149.83,193.59c-.39-.05-.28-.6-.34-1C149.88,192.65,149.78,193.2,149.83,193.59Z"/><path class="cls-1" d="M149.59,72.2c-.48-.14,0-.29,0-.67A.34.34,0,0,1,149.59,72.2Z"/><path class="cls-1" d="M150.72,118.08c.08-.58.57-.76,1.33-.67,0,.33,0,.66,0,1C151.36,118.55,151.17,118.19,150.72,118.08Z"/><path class="cls-1" d="M152.79,158c-.27-1.15.36-1.41.65-2C154.15,156.28,153.92,158.39,152.79,158Z"/><path class="cls-1" d="M155.4,153c-1-.21.31-.71,0-1.33C156.22,151.67,155.5,152.75,155.4,153Z"/><path class="cls-1" d="M160.09,123.31c-.61-.25.2-.36.66-.34a1.59,1.59,0,0,0,1-2c.91-.32,1.82-.63,2-1.69.67.11,1-.08,1-.67,1,.06,1.69-.1,2-.69a15.27,15.27,0,0,0,4.33.62,16,16,0,0,0,2.35,2.64c.31,1.25.32,2.81.71,4-.87.36-1.08,1.37-1,2.67a4.71,4.71,0,0,0-3.3,2.37,3,3,0,0,0-3.33,0c-.77-.44-1.12-1.33-2.67-1a1.57,1.57,0,0,1-.34-1c-1-.55-1.14-2-2-2.64-.14-.8.6-.73.32-1.67C161.47,123.47,160.68,123.49,160.09,123.31Z"/><path class="cls-1" d="M161.22,201.13c.67,1,2.73.56,2.68,2.3C162.2,203.48,161.64,202.38,161.22,201.13Z"/><path class="cls-1" d="M165,217.38c-.17.18-.42-.23-.33-.32S165.13,217.29,165,217.38Z"/><path class="cls-1" d="M164.45,94.66a.33.33,0,0,1,0-.66C164.93,94.14,164.42,94.29,164.45,94.66Z"/><path class="cls-1" d="M169.38,186.41c.17.75.68,1.69,0,2.33C167.54,188.91,166.35,185.79,169.38,186.41Z"/><path class="cls-1" d="M167.14,97.3c-.17.17-.43-.24-.33-.33S167.23,97.2,167.14,97.3Z"/><path class="cls-1" d="M174.25,109.53c1.92,2.29-.69,4.15-2.28,5-1.42-.45-3.37-.36-4.33-1.28C167.54,109.15,171.34,109.2,174.25,109.53Z"/><path class="cls-1" d="M172.18,200c-.17.17-.42-.24-.33-.33S172.27,199.92,172.18,200Z"/><path class="cls-1" d="M174.06,155.43c.3,5.29,1.61,9.55,1.48,15.28-2-1.9-1.22-6.59-1.43-10.29C174.17,158.72,172,156.15,174.06,155.43Z"/><path class="cls-1" d="M174.88,138.46c.38,3.53,1.09,6.72,1.1,10.63-1.13-1.64-1-4.61-1.07-7.3C174.61,141,174.24,139.21,174.88,138.46Z"/><path class="cls-1" d="M176.57,173.7c1.48-.17.09,2.59,1,3-.33,1.54.64,2.87,0,3.66C176.71,178.71,177.15,175.68,176.57,173.7Z"/><path class="cls-1" d="M182.5,135.39c.58.3,1.16.6,1,1.65C182.47,137.2,182.44,136.34,182.5,135.39Z"/><path class="cls-1" d="M194.77,164.2c1.37-1,1.65,1.89,3.34,1.63.11.78.53,1.24.35,2.32C196.33,167.76,196.09,165.42,194.77,164.2Z"/><path class="cls-1" d="M193.83,7.56c0-.34,0-.67,0-1h1c0,.33,0,.66,0,1Z"/><path class="cls-1" d="M198.06,161.5a2,2,0,0,1-2,2C195,162.34,196.86,160.43,198.06,161.5Z"/><path class="cls-1" d="M203.6,182.73c0-.22,0-.44,0-.66h1c0,.33,0,.66,0,1h-.66C204,182.78,203.8,182.75,203.6,182.73Z"/><path class="cls-1" d="M206.4,196.34c-.39-.05-.28-.6-.34-1C206.45,195.4,206.35,196,206.4,196.34Z"/><path class="cls-1" d="M211.47,73.56c-.25-1,.33-1.21.31-2a13.19,13.19,0,0,1,6.31-1.06c.75.12,1.27.88,2,.65,2.13-.77,5.08-.73,7.3-1.41.39.49.43,1.36,1,1.65-1.49,1.29-3.93,1.65-6.64,1.73-1.27.4-1.86,1.47-3,2a24.63,24.63,0,0,0-5.32.39c0-.67,0-1.33,0-2C212.41,73.39,212.17,74.28,211.47,73.56Z"/><path class="cls-1" d="M214.25,150.7h1c-.07.59.35,1.66-.65,1.33A1.86,1.86,0,0,1,214.25,150.7Z"/><path class="cls-1" d="M215.14,42.93c.05-.39.61-.29,1-.35.12.67-.06,1-.66,1-.06-.28.13-.32.33-.34C215.8,42.93,215.4,43,215.14,42.93Z"/><path class="cls-1" d="M225.81,175.85c-.17.18-.42-.23-.33-.32S225.9,175.76,225.81,175.85Z"/><path class="cls-1" d="M226.35,130.28c-.17.18-.43-.23-.34-.33S226.44,130.19,226.35,130.28Z"/><path class="cls-1" d="M228.75,72.39c0-.33,0-.67,0-1a1.86,1.86,0,0,1,1.32-.34c.49-.3,1.06-.51,1-1.35,1.25.13,1.51-.71,2-1.35,2.36-.49,4.16-3.56,7-3.06.19,2.5-2.63,2-3.29,3.69C233.49,69.57,231.24,71.1,228.75,72.39Z"/><path class="cls-1" d="M233.22,216.69c-.38-.06-.19-.33,0-.33C233.59,216.41,233.4,216.69,233.22,216.69Z"/><path class="cls-1" d="M234,159.47c-.17.18-.42-.23-.33-.32S234.05,159.38,234,159.47Z"/><path class="cls-1" d="M237.74,171.41c-.39,0-.28-.6-.34-1C237.79,170.47,237.69,171,237.74,171.41Z"/><path class="cls-1" d="M238.4,171.07c-.17.17-.42-.24-.33-.33S238.5,171,238.4,171.07Z"/><path class="cls-1" d="M241.37,135.45c.07-.58.56-.76,1.32-.68,0,.67,0,1.33,0,2C241.58,137,242.15,135.55,241.37,135.45Z"/><path class="cls-1" d="M240.42,10.07c.72-.06.16,1.18.35,1.66C239.65,11.44,240.6,11.12,240.42,10.07Z"/><path class="cls-1" d="M242.74,140.1c-.37-.07-.18-.34,0-.34C243.12,139.82,242.93,140.09,242.74,140.1Z"/><path class="cls-1" d="M248.76,13c.3,4.42.1,7.75.45,11.64-1.29-.69-.24-3.78-1-5-.24-1.45.39-3.77-.38-4.65C247.78,14,247.73,13,248.76,13Z"/><path class="cls-1" d="M253.28,162.27c-.38-.06-.19-.33,0-.33C253.66,162,253.47,162.27,253.28,162.27Z"/><path class="cls-1" d="M255.18,217.46c-.33,0-.27-.4-.34-.66C255.16,216.8,255.1,217.2,255.18,217.46Z"/><path class="cls-1" d="M253.81,51.18c-1.24-1,1-1.13,0,0Z"/><path class="cls-1" d="M256.49,150.93c.63.75-.36,2.7.05,4.32h-1C255,154.11,256.48,152.57,256.49,150.93Z"/><path class="cls-1" d="M260.19,154.88c-.38-.06-.19-.33,0-.33C260.56,154.61,260.38,154.88,260.19,154.88Z"/><path class="cls-1" d="M262.27,130.58c1.4-.27,1.15,1.77,0,1.66A2.08,2.08,0,0,1,262.27,130.58Z"/><path class="cls-1" d="M261.37,75.05a.92.92,0,0,1,1-.68C262.52,75.08,261.89,75,261.37,75.05Z"/><path class="cls-1" d="M262.41,144.22c-.1-.54.31-.58.32-1,1.92-.56,5.15-.64,5.68,1.93C267,147.56,263.64,145.16,262.41,144.22Z"/><path class="cls-1" d="M265.48,152.17c-.17.17-.42-.24-.33-.33S265.58,152.07,265.48,152.17Z"/><path class="cls-1" d="M268.27,164.78c1.68-.25,2.29.57,3.34,1-.92,1.27.76,2.21.37,4a9.19,9.19,0,0,1-5-1.61C267,166.58,268.08,166.12,268.27,164.78Z"/><path class="cls-1" d="M269.52,188.71c-.82-1.11,1.12.79,0,0Z"/><path class="cls-1" d="M268.21,93.6c0-.66,0-1.33,0-2C269.09,91.89,269.63,93.51,268.21,93.6Z"/><path class="cls-1" d="M270.33,73.29a1.25,1.25,0,0,1,0,1.67C269,75.13,268.4,72.94,270.33,73.29Z"/><path class="cls-1" d="M277,140.41c0-.44,0-.89,0-1.33h1.33C278.59,140.21,278.15,140.66,277,140.41Z"/><path class="cls-1" d="M278,140.73a1.68,1.68,0,0,1,1,3C277.23,144,276.88,141.55,278,140.73Z"/><path class="cls-1" d="M281.52,94.13a10.45,10.45,0,0,1-1.62,4.34c-.73-.58-2.15.06-2.33-.31C276.9,96.12,279.19,94.31,281.52,94.13Z"/><path class="cls-1" d="M277,73.89c-.11-.87.45-1.09,1.32-1,0,.33,0,.66,0,1Z"/><path class="cls-1" d="M282.75,214.19c-.17.17-.43-.24-.34-.33S282.84,214.09,282.75,214.19Z"/><path class="cls-1" d="M282.73,147.67c-.32,0-.26-.41-.33-.66C282.72,147,282.65,147.41,282.73,147.67Z"/><path class="cls-1" d="M284.23,163.62a2.12,2.12,0,0,1,1.66-.35,1.64,1.64,0,0,1,0,2l-1.33,0C284.7,164.47,284,164.56,284.23,163.62Z"/><path class="cls-1" d="M285.47,89.77c0-.56,0-1.11,0-1.66,1.36-.22,1.67-2.81,3-2a24.76,24.76,0,0,1-1.29,3.67Z"/><path class="cls-1" d="M288.67,174.88a2.13,2.13,0,0,1,.31-1.67C289.52,173.15,289.67,175.38,288.67,174.88Z"/><path class="cls-1" d="M290.19,63.78c-.17.17-.43-.24-.34-.33S290.28,63.68,290.19,63.78Z"/><path class="cls-1" d="M294.54,66.73c0-.34,0-.67,0-1,2.15-1.85,3.56-4.42,6.94-5.06-.21,1.88-1.54,2.66-2,4.34-2,.17-2,2.21-4,2.37A2.27,2.27,0,0,0,294.54,66.73Z"/><path class="cls-1" d="M297.34,144.86c-.17.17-.43-.24-.34-.33S297.43,144.77,297.34,144.86Z"/><path class="cls-1" d="M300.94,204.69c1.33-.13,1.5.93,1.36,2.31C300.59,208.3,298.94,205.26,300.94,204.69Z"/><path class="cls-1" d="M305.1,58.64c0-.34,0-.67,0-1h1c0,.33,0,.66,0,1Z"/><path class="cls-1" d="M324.1,159.88c.51-.7.57-1.85,1.64-2A1.64,1.64,0,0,1,324.1,159.88Z"/><path class="cls-1" d="M328.49,198.75c-.17.18-.43-.23-.34-.33S328.58,198.66,328.49,198.75Z"/><path class="cls-1" d="M329.56,173.46c-.25-1.29,1.16,0,1.66,0,.67.33,1.43.56,1.68,1.31,1,.36,2.25.39,2.34,1.64C333.12,175.66,331.57,174.33,329.56,173.46Z"/><path class="cls-1" d="M48.09,164.37c0-1.1.94-1.28,2-1.35a18.28,18.28,0,0,1,5-2.72c.06.38.33.19.33,0,.89.38-.86.88-1,1.34-.71.3-1,1-2,1C51,163.25,49.91,164.17,48.09,164.37Z"/><path class="cls-1" d="M57,160c-.39-.83,1.47-2.27,2.63-2.69C59.23,158.6,57.75,158.9,57,160Z"/><path class="cls-1" d="M78.82,144.43c-1-.34,2-2.34,1.65-1C79.62,143.46,79.32,144,78.82,144.43Z"/><path class="cls-1" d="M81,163.7c-.07-1.28,1.54-.91,1.31-2.34H83c1.94-1.61,3.75-3.35,5.61-5,.93.83-1.6,1-1.65,2-1,1.85-3.08,2.68-3.94,4.69C82,162.93,82,163.77,81,163.7Z"/><path class="cls-1" d="M94.77,111a5.32,5.32,0,0,0,3.65-1.7c2,.09,2.93-.86,4.31-1.38a2.83,2.83,0,0,1-1.36-2.31c1.07.25,1.55,1.1,2.35,1.64a6.39,6.39,0,0,0,3.62-3.37c.54-.09.58.31,1,.33a3.72,3.72,0,0,0,2-3.35c.84.84.83-.85,1.31-1.34.94.26.86-.48,1.66-.35a2.72,2.72,0,0,1,1,2.31,1.79,1.79,0,0,1-2.32.36c.63,1.16,2.22.45,3,.3,1-.29.71-1.94,1.64-2.34,1.19.36,1.6,1.5,3,1.63,2.81,0,4.16-1.41,5.63-2.72,2,.17,2.68-.88,4.65-.71,2.14-1.63,4.77-2.79,6.94-4.39.47,0,.94,0,1-.35.86,0,.49,1.55,1.34.65,0-1.33-1.75-.9-3-1a7.62,7.62,0,0,1-1.36-3.65,7.12,7.12,0,0,1,2.68,2,12,12,0,0,1,7.68,2.92,1.8,1.8,0,0,1,1.32-.35,1.59,1.59,0,0,0,1-2c1.46.45,2.53.26,2.31-1.68,1.34-.25,1.91.3,3,.3.69-.09.08-1.46.65-1.67,1.21.66,1.47,2.16,3.34,1.3.65.67.65,2,2.34,1.63,1.38,1.51,2.55,3.22,4.37,4.28a23.25,23.25,0,0,0,1.39,6.31c-1,2.54-2.34,4.73-2.57,8-1.19.27-2.23.67-2.31,2-1.85-.12-2-.31-3,.69-.15,1.39,1,1.46.7,3-2.72.26-.38-2.9-2.7-3.3-1.43,0-1.21,1.67-2.64,1.69,0-.44,0-.89,0-1.33-2.08.38-4.29.63-4.3,3-.28,1.59,1.78,2,.7,3.32-1.71,0-1.42-2.13-2.68-2.64a1.89,1.89,0,0,1-1.33.35c.22,2.42-.57,3.82.38,5.32.41-1.11,2.48-.23,3.32-1s.46-.4,1.66,0c1.1-.11,1.65-1.17,2.33,0a8.71,8.71,0,0,1,2.65-1c-.49.61-1.38.84-1.64,1.68,2.2.21,3,1.89,4.35,3-.3,1.87.48,2.65,1,3.65,0,1.42-.64,2.44,0,3.65-.6,1.5-2.15,2.07-2.62,3.69-.8-.13-.72.61-1.66.35-.21,1.22.73,1.27.69,2.32-.64.15-.59,1-1.66.68-.68.32-.26,1.72-1.31,1.68,0-1.39,1.13-1.65.3-3-1.23-.22-.82,1.18-1.31,1.68-.54-.46-.37-1.64-1-2a6.2,6.2,0,0,1-3.65.71c0-.45,0-.89,0-1.33-.84-.05-1,.52-1.33,1-.49-1.18-.49-3.5-2.35-2.31,0-1.83-.66-2.9-2-3.3-3.8,1.38-1,6.45.09,8.64-.21,1.44-1.26,2.06-1.63,3.35.05,1.42.69,2.43,0,3.65-1.21.24-1.28-.7-2.34-.64-1.4.27-1.75,1.57-2.63,2.36a4.16,4.16,0,0,1-.62,4c.34,1.55,1.68,2.08,2,3.63,0,1.66-1.57,1.76-2.3,2.69-1.58-.68-.21-2.86-1.38-4.31-1.33.23-.94,2.15-1,3.67-1-.58-3-.1-3.67-1-.68-2.65,1.68-2.31,1.62-4.34,1.14-.26.44,1.34,1.67,1,.73-1.43-.45-3.78-1-5-3.89-.22-7.13-1.7-10.65-.56-.84.28-.45,1.76-1,2.34-.36-.08-.23-.66-.67-.66-1.81,1.88-3.32,4.92-1.58,7.67-.94.28-.5,1.92-2,1.68-1.56-3,1.44-7-.77-10-.59,0-.69.42-1.33.35-.34-.44-.33-1.22-.68-1.66-1.81-.9-4.4.62-6,.06-1.24-.44-1.33-1.49-2-2.64a2.54,2.54,0,0,1-2.33.69c.12-1.86,1.4-2.58,2.63-3.35-.22-.9-1.4-.82-1.35-2l1.33,0c-.23-1.22-1.24-1.64-2-2.3-2.5-.16-2.87,1.79-3.62,3.36-1.86.37-3,1.48-5,1.71-1,.74-1.77,1.77-3,2.36l-2,0c-.38-.73-1.12-1.09-1.35-2-.09-1.41,1-1.7,1.3-2.68a8.19,8.19,0,0,0,4-1.7c3.25-.21,4.94-2,4.93-5.37a4.28,4.28,0,0,1-3.66-.3c0-.66,0-1.33,0-2,1.17-.3.81-.05,2-.35.18-1.2-.4-1.61-.69-2.32a6.08,6.08,0,0,1,1.62-4c-.3-1.7-.89-3.12-2.36-3.64-1.66,1.18-6.3.77-5.34-1.61,1.75-.21,2.86.22,4.33.29,2.06-.64,2.87-3.4,2.27-5.67-.08-.48-1.65.32-2.66,0a2.49,2.49,0,0,1,.64-2.33c1.07-.2,1.67.08,2,.64,1.15-.87-.43-1.77-1-2C94.18,110.63,95.56,113.66,94.77,111ZM95.68,134c-.1.09.16.5.33.33S95.85,133.77,95.68,134Zm44.51-5.45c-.21,0-.4.06-.33.34,1.12.31,0,2.94,1.36,3,.08-2.23-.39-1.83-.7-3.65,1.18,0,.74-1.69,2-1.69-.36-1.23.82-1,.65-2-1.81.83-1.76-.74-2.68-1.63C140.19,124.9,139.71,126.53,140.19,128.5Z"/><path class="cls-1" d="M110.23,93.89c-.92-1,1,.89,0,0Z"/><path class="cls-1" d="M113.13,84.88c.06-.57,1.59.14,1.34,1C113.8,85.77,113.58,85.2,113.13,84.88Z"/><path class="cls-1" d="M122.56,161c.19,1.28-.84,1.37-1,2.33-.62.84,0-.55,0-1C122.1,162,121.48,160.66,122.56,161Z"/><path class="cls-1" d="M149.69,147.36c-.49-.93.74-3,1.63-3.67a3.11,3.11,0,0,1,1-2.34c.07,1.05-.87,1.12-.64,2.34-.27.06-.33.33-.66.33C151,145.56,150.07,146.19,149.69,147.36Z"/><path class="cls-1" d="M264.24,127.9c-.47-.06.5-2.46-.37-3-1.32.79-3.25,1-5,1.38-.8.31-.87,1.35-1,2.34-1.17.4-1.79,1.33-3.31,1.36-2-.2-2.71-1.71-4.35-2.28a48.94,48.94,0,0,1-5.64,1.39c-1.23-1.32-4-1-4.69-2.95-1.45,0-1.86-1-3.66-.62a6.55,6.55,0,0,1-1.35-1.65c-1-.47-1.13.28-2-.32-.23-1.89-1.66-2.56-4-2.28-.24,1.14,1.35.41,1,1.65-2.59.12.17,3.6-1.62,4.67-2,.08-1.36-1.24-1.68-2.31-1.67.13-2,1.51-3.31,2A3.34,3.34,0,0,1,222,125c-3.18.46-4.75-5.06-8-1.58,1.44,1,2.66,2.21,4.68,2.61.57,1.77,2.61,2,3.37,3.62,1.44.88,2.49,2.17,4,3a1.63,1.63,0,0,0,.65-1.67,7.22,7.22,0,0,1,1.69,2.65c1.7.5,2.62,1.8,4,2.62-.08,1.77,1.17,2.17,1.37,3.64a29.46,29.46,0,0,1,3.38,5c.44.33,1.23.31,1.67.65-.18,1.23,1,1.91.36,2.65-1.66-.09-2.29-1.25-2.69-2.63q-4-5-7.76-10.23c-2-.19-2.79-1.62-5-1.61a31,31,0,0,0-5-3.28c-1.06-1.05-1.76-2.46-3-3.29-.88.15-1.11,1.27-1.33-.32-1.25-.34-.52,1.25-1.66,1-.12-1.33-.92-2-1.36-3-1.56.44-1.93.9-3-.3a4.74,4.74,0,0,0-1.65,1.68,48.23,48.23,0,0,1,4,4.62c0,4.69,4.59,4.72,5.08,8.92-2.59.08-2.7-2.4-3.7-3.95-1.33-1.11-1.87-3-3.37-4-1.08-.18-1.54.25-2.32.36-.89-.54-1-1.89-2.35-2-1.24-.34-1.06.71-1.65,1-.68.11-.64.91-1.32,1-1.91.1-2-2.51-3.68-1.63-.55-1.79-2.54-2.11-2.7-4.3-4.61.23-5.28-3.56-9-4.23-1,.3.77.49.34,1.33.74,0,.16,1.41.36,2-.39,3-5.53,3-6,.06,0-2.41,1.4-3.46,3.28-4a5.09,5.09,0,0,1-1.36-3,31.47,31.47,0,0,1-3-4.29c-2.1.23-2.86-.89-4-1.63-.1-1,.74-1,.64-2-.17-.49-.5-.83-.68-1.32-.65-.34-1.33-.66-2-1a4.31,4.31,0,0,0-1.37-3.64c0-1,.69-1.31,1-2-1.56-3.34-1.44-6.21-1.11-10.63.5-.83,1.29-1.37,1.31-2.68,2.12-1.42,3.14-3.94,5.26-5.37.33-.44.32-1.23.65-1.67,2.54-.37,3.15-2.62,6-2.72,2-1.82,3.77-3.77,8-3.41.88-.23,1.2-1,1.64-1.68a11.65,11.65,0,0,1,4.33,0c1.79-.3,3.36-3.3,5.3-1.39.14,1.46-1,1.61-2,2a6.44,6.44,0,0,1-1.31,2.34c.43,1.13,1.91,1.19,3.34,1.3.75-.15,0-1.77.65-2,1.73,0,2.93-1.3,4.65-.38,1.46-.21,2-2,3.65-1-.07,1.26-2.58,1.85-3.31,1.36a14.13,14.13,0,0,0-3,2.69c.56,2,3.18,1.91,4.35,3.28a11.84,11.84,0,0,0,3.66,0c1.11-.23,1.62-1.05,2.65-1.36,2.14-.05,2.65,1.55,5,1.28.51.61,1.4.81,1.68,1.64,1.48-.8,2.74.23,4.66,0,2-.44,3.48-1.42,5.64-1.72,1.36-1.25,2.64-.76,3.63-2-.36-.75-2.09-.1-3-.3,1-1.12,3-1.26,4.64-1.71.26-1.83-1.7-1.4-2-2.64-.19-5.9,1.82-9.63,7.22-10.05a30.7,30.7,0,0,1,5,1.28c.69.64.54,2.14,1,3,0,.94,2-.29,2,.65.92,1-.21,2-.3,3a10.14,10.14,0,0,1-.28,5.66c.64,1,2.31,1,3.34,1.63a23.93,23.93,0,0,0,6-2.72c4.38-.16,9.61-1.65,15-.82a2.32,2.32,0,0,0,2-1.35c.72.39,1.82.39,2,1.31-.21,2-2.65,1.79-3.62,3a.91.91,0,0,0-1.33,0c-1.29,0-1.33-1.33-2.35-1.64-2,.68-5.12.25-7.65.41a16.34,16.34,0,0,1-6,2.06,9.3,9.3,0,0,0-3.29,4c.22,1.62,1.26,2.07.71,3.66a8.38,8.38,0,0,0,2.66.63c.68,1.67,1.46,3.23,4,3,.71,2.62,2.94,5.14,5.07,7.26,1.66.21,2.57-.33,4-.37-.08,1.09,1.29.69,1.34,1.65-.46,3.72-2.62,5.77-4.57,8,.72,1.72,3,1.83,4,3.28a7.31,7.31,0,0,1,3,.3c.55,1.68,1.44,3,2,4.64.12,1.22-.25,3,.37,3.65.45,1.23,2.5.82,3.34,1.63a22.93,22.93,0,0,1,2.69,2c.31,1.25,1,2.14,1,3.65.27,1.18,1.64,1.24,2,2.31.2,1.07-.21,1.55-.31,2.33-1.26.69-2.54.09-4,0a9.19,9.19,0,0,1-7.32-.26,8.22,8.22,0,0,1-3.32.37,5.26,5.26,0,0,1-1.38-4.64c-1.08-1.25-2.76-1.89-4.35-2.62C266.33,126.22,264.93,126.71,264.24,127.9ZM237.17,82.61c-2.24-.32-2.41,1.38-4.65,1-.39,1.7-2.82,1.4-3.29,3a4.81,4.81,0,0,1,2,2.31c.78,0,1-.58,2-.35,1.14,1.3,1.86,3,3.36,4,2.45.31,3.69-.56,5.65-.73-1.5-2.79-.37-5.5-.43-9.31-1.17.2-.83-1.16-2-1A8.71,8.71,0,0,0,237.17,82.61Zm2.77,10.62c-.57-.59-1.11.3-2.33,0,.06.39-.05,1,.34,1C238.14,93.44,240.1,94.38,239.94,93.23Z"/><path class="cls-1" d="M248.56,58.22c-.07-.73.26-1.06,1-1-.12-.67,0-1,.65-1C249.69,56.91,249.63,58.05,248.56,58.22Z"/><path class="cls-1" d="M264.85,155.5c.63-.73,1.58,1.06,2.34,1.31,1.12.32,1.17,1.72,2.35,2,1.41,1.48,3.17,2.59,4.37,4.28,3.52,1.33,5.45,4.29,8.38,6.23a15.86,15.86,0,0,0,3,3.3c1,1.08,1.78,2.43,3.35,3A9.22,9.22,0,0,0,292,178.5a4.66,4.66,0,0,0,1.68,1.65c.05,1,1.42.56,1.34,1.65.26,1.27-1.22.39-1.32,0a2.93,2.93,0,0,1-1.35-1.32c-.94.07-.84-.93-1.34-1.31-1,.17-1-.83-1.35-1.32-1.77-1.77-4-3.05-5.37-5.26-5.23-3.3-9.29-7.77-13.43-12.17C268.38,159.3,266.89,157.12,264.85,155.5Z"/><path class="cls-1" d="M306.38,183.68c.37-.88,1.3.43,1.67.65.4.49,1.39.37,1.35,1.31,1.89.53,2.76,2.11,4.35,3a1.89,1.89,0,0,1,.35,1.33c2.34.3,3.51,1.79,4.36,3.61a6.27,6.27,0,0,1-3.36-3c-2.53-1.33-4.25-3.49-6.7-4.92C308.27,184.44,307.24,184.14,306.38,183.68Z"/><path class="cls-1" d="M336.92,177.38h-.67c.06-.29-.13-.32-.33-.33,1.18-.64,2.73,1.23,4,1.62,1.41.58,2.48,1.5,4,2,2.38,1.59,5.5,2.44,8,3.9,1.32.67,2.11,1.88,4,2,.52,1.48,2.66,1.31,3.35,2.62a24.78,24.78,0,0,1,8,3.91c1.76.11,3.44.31,3.68,2-2.78-.07-3.86-1.88-6.34-2.26-.39-1.06-2-.91-2.68-1.64s-2.2-.44-2.34-1.64a79.14,79.14,0,0,1-11.7-5.2c-.57-.87-1.87-1-2.68-1.63s-1.36-1.52-2.67-1.64C341,179.51,338.48,178.92,336.92,177.38Z"/></g></g></svg>