<svg xmlns="http://www.w3.org/2000/svg" viewBox="0 0 770.95 152.22"><defs><style>.cls-1{fill-rule:evenodd;}</style></defs><g id="Слой_2" data-name="Слой 2"><g id="Layer_1" data-name="Layer 1"><path class="cls-1" d="M78.13.73c-.2-.36.28-.88.38-.69C78.71.39,78.24.92,78.13.73Z"/><path class="cls-1" d="M85.06,0h2.31C87.41,1.68,82.7.43,85.06,0Z"/><path class="cls-1" d="M92,1.41c-.19-.35.28-.87.39-.68C92.57,1.08,92.09,1.6,92,1.41Z"/><path class="cls-1" d="M82,2.78c-.2-.35.28-.87.38-.68C82.56,2.45,82.08,3,82,2.78Z"/><path class="cls-1" d="M82.75,2.78c.06-.8.7-.57,1.15-.68C83.84,2.9,83.2,2.68,82.75,2.78Z"/><path class="cls-1" d="M87.75,2.78c-.2-.35.28-.87.39-.68C88.33,2.45,87.86,3,87.75,2.78Z"/><path class="cls-1" d="M87.37,2.78c-.85,2.1-2.47-.79,0,0Z"/><path class="cls-1" d="M88.52,3.47c-.2-.36.28-.88.38-.69C89.1,3.14,88.63,3.66,88.52,3.47Z"/><path class="cls-1" d="M83.52,4.84c-.2-.36.27-.87.38-.69C84.1,4.51,83.62,5,83.52,4.84Z"/><path class="cls-1" d="M589.62,6.21c-.19-.35.28-.88.39-.69C590.21,5.88,589.73,6.4,589.62,6.21Z"/><path class="cls-1" d="M80.44,7.58c0-.66.47-.53.77-.69C81.2,7.56,80.74,7.43,80.44,7.58Z"/><path class="cls-1" d="M113.92,7.58c-.2-.36.28-.87.39-.69C114.51,7.25,114,7.77,113.92,7.58Z"/><path class="cls-1" d="M22.32,7.58c.48.3.79.88.77,2.06C21.76,10.23,21.77,8.58,22.32,7.58Z"/><path class="cls-1" d="M78.9,8.26c0-.66.47-.53.77-.68C79.66,8.25,79.2,8.11,78.9,8.26Z"/><path class="cls-1" d="M76.2,9c0-1.51,1.64-.29,2.31-.69C78.19,9.58,76.83,10.12,76.2,9Z"/><path class="cls-1" d="M74.66,9.64c.07-.81.71-.58,1.16-.69C75.76,9.75,75.12,9.53,74.66,9.64Z"/><path class="cls-1" d="M117.77,9.64c0-.67.47-.54.77-.69C118.53,9.62,118.07,9.48,117.77,9.64Z"/><path class="cls-1" d="M117,10.32c-.2-.36.28-.87.39-.68C117.58,10,117.11,10.51,117,10.32Z"/><path class="cls-1" d="M119.31,10.32c-.2-.36.28-.87.38-.68C119.89,10,119.42,10.51,119.31,10.32Z"/><path class="cls-1" d="M75.05,11.69c1.17-2.53,1.3,2.08,0,0Z"/><path class="cls-1" d="M125.85,11c-.84,2.09-2.46-.79,0,0Z"/><path class="cls-1" d="M126.24,11.69c-.2-.35.28-.88.38-.68C126.82,11.36,126.34,11.88,126.24,11.69Z"/><path class="cls-1" d="M552.68,11.69c0,1.52-1.64.29-2.31.69C550.88,11.4,552.08,10.56,552.68,11.69Z"/><path class="cls-1" d="M79.28,12.38c-.2-.36.28-.88.39-.69C79.87,12.05,79.39,12.57,79.28,12.38Z"/><path class="cls-1" d="M80.82,12.38c.07-.81.7-.58,1.16-.69C81.92,12.49,81.27,12.27,80.82,12.38Z"/><path class="cls-1" d="M305.2,12.38c.07-.81.7-.58,1.16-.69h1.54C307.73,13.23,306,12,305.2,12.38Z"/><path class="cls-1" d="M375.25,12.38c0-.67.47-.54.77-.69C376,12.36,375.55,12.22,375.25,12.38Z"/><path class="cls-1" d="M131.24,13.06c-.2-.35.28-.87.38-.68C131.83,12.73,131.35,13.25,131.24,13.06Z"/><path class="cls-1" d="M310.59,13.06c-.2-.35.28-.87.39-.68C311.18,12.73,310.7,13.25,310.59,13.06Z"/><path class="cls-1" d="M311.36,13.06c-.2-.35.28-.87.39-.68C312,12.73,311.47,13.25,311.36,13.06Z"/><path class="cls-1" d="M373.33,14.43c-1.44,1.79-5.05-.31-6.55,1.37,1.1,2.43,2.68-.24,4.24,1.37,1.16.45,1.31,2.69,2.31,3.43.54-.06,1.09-.11,1.15.69,1-.43,3,.87,3.46-.69,1.29,1.59,3.55,1.45,5.78,1.37-1,2.72-5.17-.06-6.16,2.74-6.86.23-11.71-.69-16.93-.68-.95.6-1.42,2-3.08,1.37-.15-1.17.3-1.29.77-1.37-.74-2.81-3.66-1.72-4.62-4.12-4.47-.72-9.31-.79-12.7-3.42,1.3-1.34,4.06-.07,4.62-2.74,1.37.74,3,1.07,4.23,2.05,1.09.57,1-1,1.92-.68,4.27,2.56,10,.22,13.86.68.31-.59,1.05-.4,1.15-1.37-.11-1.1.37-1.18.39-2C370,11.69,371.09,14.08,373.33,14.43Zm-11.16,3.43h-2.31c-.48-.22-2.38.11-1.16.69,2.77.2,5.39,2.71,7.7,0C364.67,18.88,363.51,18.2,362.17,17.86Z"/><path class="cls-1" d="M372.17,13.06c.06-.8.7-.58,1.16-.68h1.54C374.7,13.91,373,12.65,372.17,13.06Z"/><path class="cls-1" d="M517.65,13.06c0-.66.47-.53.77-.68C518.41,13,518,12.91,517.65,13.06Z"/><path class="cls-1" d="M197.82,13.75c0-.67.48-.53.77-.69C198.58,13.73,198.12,13.59,197.82,13.75Z"/><path class="cls-1" d="M161.65,14.43c-.2-.35.28-.87.38-.68C162.23,14.1,161.75,14.62,161.65,14.43Z"/><path class="cls-1" d="M139.71,15.12c0-.67.47-.53.77-.69C140.47,15.1,140,15,139.71,15.12Z"/><path class="cls-1" d="M142.79,15.12c0-.67.47-.53.77-.69C143.55,15.1,143.09,15,142.79,15.12Z"/><path class="cls-1" d="M157,15.12c0-.67.47-.53.77-.69C157.79,15.1,157.33,15,157,15.12Z"/><path class="cls-1" d="M160.49,15.12c-.2-.36.28-.88.39-.69C161.08,14.79,160.6,15.31,160.49,15.12Z"/><path class="cls-1" d="M164.73,15.12c0-.67.47-.53.76-.69C165.48,15.1,165,15,164.73,15.12Z"/><path class="cls-1" d="M137.78,15.8c-.19-.35.28-.87.39-.68C138.37,15.47,137.89,16,137.78,15.8Z"/><path class="cls-1" d="M146.64,15.8c.06-.8.7-.58,1.15-.68H149C148.9,16.63,147.31,15.41,146.64,15.8Z"/><path class="cls-1" d="M158.18,15.8c0-.66.47-.53.77-.68C158.94,15.78,158.48,15.65,158.18,15.8Z"/><path class="cls-1" d="M187.82,15.8c-.85,2.09-2.47-.79,0,0Z"/><path class="cls-1" d="M190.9,16.49c-.2-.36.27-.88.38-.69C191.48,16.16,191,16.68,190.9,16.49Z"/><path class="cls-1" d="M195.52,16.49c-.2-.36.27-.88.38-.69C196.1,16.16,195.62,16.68,195.52,16.49Z"/><path class="cls-1" d="M490.33,16.49c-1.59,1.42-4.38-.87-6.93,0-1-1.22,2.26-.5,3.08-.69C488.12,15.4,489,16.3,490.33,16.49Z"/><path class="cls-1" d="M665.83,16.49c-.2-.36.28-.88.38-.69C666.41,16.16,665.94,16.68,665.83,16.49Z"/><path class="cls-1" d="M670.83,15.8c-.84,2.09-2.46-.79,0,0Z"/><path class="cls-1" d="M167.42,17.17c1.17-2.53,1.3,2.09,0,0Z"/><path class="cls-1" d="M169.34,16.49c.63-.19.67.65,1.16.68C170.65,18.5,168.75,18.17,169.34,16.49Z"/><path class="cls-1" d="M693.16,17.17c-.21-.35.27-.87.38-.68C693.74,16.84,693.26,17.36,693.16,17.17Z"/><path class="cls-1" d="M694.31,17.17c-.2-.35.28-.87.38-.68C694.89,16.84,694.42,17.36,694.31,17.17Z"/><path class="cls-1" d="M57.73,17.86c0-.67.47-.53.77-.69C58.49,17.84,58,17.71,57.73,17.86Z"/><path class="cls-1" d="M74.66,17.86c-.19-.35.28-.88.39-.69C75.25,17.53,74.77,18.05,74.66,17.86Z"/><path class="cls-1" d="M285.57,17.86c.12-.93,1-.57,1.55-.69C287,18.1,286.15,17.74,285.57,17.86Z"/><path class="cls-1" d="M287.5,17.86c-.2-.35.28-.88.38-.69C288.08,17.53,287.6,18.05,287.5,17.86Z"/><path class="cls-1" d="M614.26,17.86c-.2-.35.27-.88.38-.69C614.84,17.53,614.36,18.05,614.26,17.86Z"/><path class="cls-1" d="M615.41,17.86c0-.67.47-.53.77-.69h2.31C618.2,18.72,616.33,17.44,615.41,17.86Z"/><path class="cls-1" d="M625.42,18.55H622C622.51,17.94,625.31,15.56,625.42,18.55Z"/><path class="cls-1" d="M634.27,17.86c-.2-.35.28-.88.39-.69C634.85,17.53,634.38,18.05,634.27,17.86Z"/><path class="cls-1" d="M697,17.86c1.44-2.39,2,1.87,0,0Z"/><path class="cls-1" d="M74.66,18.55a3.63,3.63,0,0,1-3.07,1.36C72.12,18,73.57,17.7,74.66,18.55Z"/><path class="cls-1" d="M187.82,17.86c-.66,2.25-3.24,1.08-5,1.37-1.39.5-1.39-1.18,0-.68h2.7C186.42,18.56,186.64,17.36,187.82,17.86Z"/><path class="cls-1" d="M610,17.86h2.31C611.53,19.81,605.53,17.68,610,17.86Z"/><path class="cls-1" d="M613.49,18.55c-.2-.36.28-.88.38-.69C614.07,18.21,613.59,18.73,613.49,18.55Z"/><path class="cls-1" d="M67.74,19.23c-.2-.36.28-.87.38-.68C68.32,18.9,67.84,19.42,67.74,19.23Z"/><path class="cls-1" d="M68.51,19.23c.06-.8.7-.58,1.15-.68C69.6,19.35,69,19.12,68.51,19.23Z"/><path class="cls-1" d="M244.78,19.23c0-.67.47-.53.77-.68h1.15C246.77,20,245.34,18.86,244.78,19.23Z"/><path class="cls-1" d="M304.82,19.23c-.2-.36.28-.87.38-.68C305.4,18.9,304.92,19.42,304.82,19.23Z"/><path class="cls-1" d="M409.89,18.55c-.46,2.08-2-.75,0,0Z"/><path class="cls-1" d="M59.65,19.91c-.19-.35.28-.87.39-.68C60.24,19.59,59.76,20.1,59.65,19.91Z"/><path class="cls-1" d="M61.58,19.91c-.2-.35.28-.87.38-.68C62.16,19.59,61.69,20.1,61.58,19.91Z"/><path class="cls-1" d="M93.91,19.91c0-.66.47-.53.77-.68C94.67,19.89,94.21,19.76,93.91,19.91Z"/><path class="cls-1" d="M305.59,19.91c-.2-.35.28-.87.38-.68C306.17,19.59,305.69,20.1,305.59,19.91Z"/><path class="cls-1" d="M310.59,19.23c-1,1.79-1.66,1-3.85,1.37C307.29,18.73,308.61,19.72,310.59,19.23Z"/><path class="cls-1" d="M311,19.91c0-.66.47-.53.77-.68C311.74,19.89,311.27,19.76,311,19.91Z"/><path class="cls-1" d="M411.81,19.91c.06-.8.71-.57,1.16-.68C412.91,20,412.27,19.81,411.81,19.91Z"/><path class="cls-1" d="M671.22,19.23c-.85,2.09-2.47-.79,0,0Z"/><path class="cls-1" d="M312.52,20.6c-.2-.35.27-.88.38-.69C313.1,20.27,312.62,20.79,312.52,20.6Z"/><path class="cls-1" d="M708.94,19.91c.74-.27.56,3.13-.39,2.06V20.6C708.88,20.73,708.91,20.33,708.94,19.91Z"/><path class="cls-1" d="M55.42,21.29c-.2-.36.28-.88.39-.69C56,21,55.53,21.48,55.42,21.29Z"/><path class="cls-1" d="M172,21.29c0-.67.47-.54.77-.69C172.8,21.27,172.34,21.13,172,21.29Z"/><path class="cls-1" d="M175.5,21.29c-.2-.36.28-.88.39-.69C176.09,21,175.61,21.48,175.5,21.29Z"/><path class="cls-1" d="M52,22c0-.67.47-.53.77-.68C52.72,22,52.26,21.82,52,22Z"/><path class="cls-1" d="M53.11,22c0-.67.47-.53.77-.68H55C55.1,22.77,53.67,21.59,53.11,22Z"/><path class="cls-1" d="M722,22c-.2-.36.28-.87.39-.68C722.6,21.64,722.13,22.16,722,22Z"/><path class="cls-1" d="M39.26,22c-.85,2.09-2.47-.79,0,0Z"/><path class="cls-1" d="M40.41,22.65c.06-.8.7-.57,1.16-.68h1.15C42.67,23.48,41.09,22.26,40.41,22.65Z"/><path class="cls-1" d="M46.57,22.65c0-.66.47-.52.77-.68C47.33,22.64,46.87,22.5,46.57,22.65Z"/><path class="cls-1" d="M184.74,22.65c-.2-.35.28-.87.38-.68C185.32,22.33,184.84,22.84,184.74,22.65Z"/><path class="cls-1" d="M43.11,23.34c0-.66.47-.53.76-.69C43.86,23.32,43.4,23.19,43.11,23.34Z"/><path class="cls-1" d="M200.52,23.34c1.14-2,3.17.26,4.62,0C204,25.33,202,23.08,200.52,23.34Z"/><path class="cls-1" d="M698.93,22.65c.62-.19.66.65,1.15.69C700.24,24.67,698.33,24.34,698.93,22.65Z"/><path class="cls-1" d="M409.12,24c.06-.81.7-.58,1.15-.69C410.21,24.14,409.57,23.92,409.12,24Z"/><path class="cls-1" d="M444.53,24c-.2-.36.28-.88.38-.69C445.11,23.7,444.63,24.22,444.53,24Z"/><path class="cls-1" d="M46.19,24.71c-.2-.35.27-.87.38-.68C46.77,24.38,46.29,24.9,46.19,24.71Z"/><path class="cls-1" d="M185.89,24.71c0-.66.48-.53.77-.68C186.65,24.69,186.19,24.56,185.89,24.71Z"/><path class="cls-1" d="M441.83,24.71c0-.66.48-.53.77-.68C442.59,24.69,442.13,24.56,441.83,24.71Z"/><path class="cls-1" d="M459.92,24.71c-.2-.35.28-.87.39-.68C460.51,24.38,460,24.9,459.92,24.71Z"/><path class="cls-1" d="M649.66,24.71c.07-.8.71-.58,1.16-.68h1.54C652.19,25.56,650.46,24.3,649.66,24.71Z"/><path class="cls-1" d="M294.43,25.4c-2,2.62-6.71,2.5-9.62,1.37C287.33,23.83,290.44,26,294.43,25.4Z"/><path class="cls-1" d="M349.85,25.4c.06-.81.7-.58,1.15-.69h1.16C352.11,26.22,350.52,25,349.85,25.4Z"/><path class="cls-1" d="M468,24.71c-.85,2.09-2.47-.79,0,0Z"/><path class="cls-1" d="M481.86,25.4c-.2-.36.28-.88.39-.69C482.44,25.07,482,25.59,481.86,25.4Z"/><path class="cls-1" d="M483,25.4c0-.67.48-.53.77-.69h1.16C485,26.2,483.57,25,483,25.4Z"/><path class="cls-1" d="M511.49,26.08c0-.66.48-.53.78-.68.65.14,1-1.17,1.15,0,3.72.45,8.46-.91,11.55.68a5,5,0,0,0-3.47.69c-.12-.85-1-.68-1.54-.69C517.4,26.05,514.89,26.22,511.49,26.08Z"/><path class="cls-1" d="M298.27,25.4c-.84,2.09-2.46-.79,0,0Z"/><path class="cls-1" d="M317.13,26.08c.07-.8.71-.58,1.16-.68h1.15C319.4,26.91,317.81,25.69,317.13,26.08Z"/><path class="cls-1" d="M503.8,26.08c.06-.8.7-.58,1.15-.68C504.89,26.2,504.25,26,503.8,26.08Z"/><path class="cls-1" d="M505.34,26.08c.05-1.51,1.63-.29,2.31-.68H510C509.17,27,506.76,25.64,505.34,26.08Z"/><path class="cls-1" d="M525.35,26.08c0-1.51,1.63-.29,2.31-.68H530C529.19,27,526.77,25.64,525.35,26.08Z"/><path class="cls-1" d="M532.66,26.08c0-.66.47-.53.77-.68C533.42,26.06,533,25.93,532.66,26.08Z"/><path class="cls-1" d="M534.2,26.08c-.2-.35.28-.87.39-.68C534.79,25.75,534.31,26.27,534.2,26.08Z"/><path class="cls-1" d="M535,26.08c0-.66.47-.53.77-.68C535.73,26.06,535.27,25.93,535,26.08Z"/><path class="cls-1" d="M536.9,26.08c0-.66.47-.53.77-.68h3.46C540.47,27,538.19,25.65,536.9,26.08Z"/><path class="cls-1" d="M564.22,26.08c.06-.8.7-.58,1.16-.68C565.32,26.2,564.68,26,564.22,26.08Z"/><path class="cls-1" d="M693.93,31.56c-1.95-2.57-4.35-.08-7.32-.68-.73-1.2.67-2.38-1.15-2.06-.26-2.67,1.46.35,2.69-.68a3.45,3.45,0,0,0,1.54-2.74c1.37.72,5.38.31,6.93,2.74,3.15-1.84,6.82.4,8.85,2.74-.36,2.67-2.41.82-3.08,0-3,.07-5.81-.16-8.08-1.37C693.44,29.89,694.77,30.58,693.93,31.56Z"/><path class="cls-1" d="M192.43,26.77c.51-1.24,2.09.86,3.09-.69h3.84c2,.42-.77,1-1.54.69-1.08-.57-1,1-1.92.68H189c-.61-.05-1.47.33-1.54-.68h5Z"/><path class="cls-1" d="M568.84,26.08c.74,1.29.7-.4,1.93,0C571.35,28.19,568.25,28.19,568.84,26.08Z"/><path class="cls-1" d="M573.08,26.77c-2.39,2.52-2-1.44,0,0Z"/><path class="cls-1" d="M207.83,27.45c0-.66.47-.53.77-.68C208.59,27.43,208.13,27.3,207.83,27.45Z"/><path class="cls-1" d="M546.13,27.45c-.19-.35.28-.87.39-.68C546.72,27.12,546.24,27.64,546.13,27.45Z"/><path class="cls-1" d="M667.37,27.45c2.72-2.43,2.56,1.43,0,0Z"/><path class="cls-1" d="M671.6,27.45c-.2-.35.28-.87.39-.68C672.19,27.12,671.71,27.64,671.6,27.45Z"/><path class="cls-1" d="M214.37,27.45c.63-.19.67.65,1.16.69C215.68,29.47,213.78,29.14,214.37,27.45Z"/><path class="cls-1" d="M582.31,27.45c.93-.28.84,1.25,1.93.69C584.3,29.26,581.72,29.52,582.31,27.45Z"/><path class="cls-1" d="M216.68,28.14h1.16C217.94,30,214.44,28.13,216.68,28.14Z"/><path class="cls-1" d="M351.77,28.82c.07-.8.7-.57,1.16-.68h1.15C354,29.65,352.45,28.43,351.77,28.82Z"/><path class="cls-1" d="M355.62,28.14c-.45,2.08-2-.74,0,0Z"/><path class="cls-1" d="M574.23,28.82c-.07-1.11,2.52-1.38,1.92.69C575.07,30.08,575.16,28.54,574.23,28.82Z"/><path class="cls-1" d="M581.16,28.82c-.2-.35.28-.87.38-.68C581.74,28.49,581.26,29,581.16,28.82Z"/><path class="cls-1" d="M38.1,28.82c.62-.19.66.65,1.16.69C39.41,30.84,37.5,30.51,38.1,28.82Z"/><path class="cls-1" d="M288.27,30.2c-3.06,1.62-4.91,1.91-8.08.68C282.43,27.53,286.25,29.9,288.27,30.2Z"/><path class="cls-1" d="M298.27,29.51c0-.67.48-.53.78-.69C299,29.49,298.57,29.36,298.27,29.51Z"/><path class="cls-1" d="M391.41,28.82c-.84,2.1-2.46-.79,0,0Z"/><path class="cls-1" d="M393,29.51c-.19-.35.28-.88.39-.69C393.54,29.18,393.06,29.7,393,29.51Z"/><path class="cls-1" d="M408,29.51c-.19-.35.28-.88.39-.69C408.55,29.18,408.07,29.7,408,29.51Z"/><path class="cls-1" d="M508,31.56c-1.83,2.74-5-.79-7.31,1.38.2,1.91,1.85,1.26,2.69,2.05-3.45,1.74-8.37-.09-11.16,0,0-1.29,1.27-.48,1.16-2.05-2.93,0-5-1.71-7.7-2.06.59-2.16,2.8-1.4,4.23-2.06.81-.29,1,.48,1.54.69h9.62c.63-.19.67.65,1.16.69C504.4,30.27,506.93,29.65,508,31.56Z"/><path class="cls-1" d="M191.67,30.2c-.2-.36.27-.88.38-.69C192.25,29.86,191.77,30.39,191.67,30.2Z"/><path class="cls-1" d="M193.59,30.2c-.2-.36.28-.88.39-.69C194.18,29.86,193.7,30.39,193.59,30.2Z"/><path class="cls-1" d="M279.8,30.2c-1.29,1.93-2.3.6-4.23.68-.39.44-.4,1.57-1.16,1.37-.79-3.7,2.1-.83,2.31-2.74C278.15,29,278.37,30.68,279.8,30.2Z"/><path class="cls-1" d="M514.57,30.2c-.2-.36.28-.88.39-.69C515.16,29.86,514.68,30.39,514.57,30.2Z"/><path class="cls-1" d="M524.2,30.2c.87-1.51,3.76-.81,4.23.68,1.44.73,1.1-1.7,2.31-1.37.93,1.67,2,.39,2.69,1.37h3.47c1.17,1,2.53-2.07,2.31.68.41-.17.26-1.36.77-1.36,4.54.24,9.33-.05,14.24.68-1.18,1.88-2.74,1.27-4.24,1.37s-3.43-.07-5.39,0c-1.08.57-1-1-1.92-.69a34.6,34.6,0,0,0-5,2.74c-.14-3.51-1.32-1.59-2.31-2.74C531.81,32.11,527.31,32.23,524.2,30.2Z"/><path class="cls-1" d="M197.82,30.2h1.54c-.06.8-.7.57-1.15.68,0,.67.47.53.77.68-.06.81-.7.58-1.16.69Z"/><path class="cls-1" d="M288.65,30.88c-.2-.36.28-.87.39-.68C289.24,30.55,288.76,31.07,288.65,30.88Z"/><path class="cls-1" d="M298.66,30.88c0-.67.47-.53.77-.68C299.42,30.86,299,30.73,298.66,30.88Z"/><path class="cls-1" d="M409.12,30.88c-.2-.36.28-.87.38-.68C409.7,30.55,409.23,31.07,409.12,30.88Z"/><path class="cls-1" d="M508.42,30.88c0-.67.47-.53.77-.68h1.15C510.41,31.68,509,30.51,508.42,30.88Z"/><path class="cls-1" d="M510.73,30.88c-.2-.36.27-.87.38-.68C511.31,30.55,510.83,31.07,510.73,30.88Z"/><path class="cls-1" d="M521.12,30.2c.82,2.86-3,.24-3.85,1.36-.72.66-1.29-2-1.54,0-1.23-2.25,4-1.63,4.62-.68C520.8,31,521,30.73,521.12,30.2Z"/><path class="cls-1" d="M522.27,30.88c1.23-2.41,2.06,1.41,0,0Z"/><path class="cls-1" d="M514.57,31.56c-.2-.35.28-.87.39-.68C515.16,31.23,514.68,31.75,514.57,31.56Z"/><path class="cls-1" d="M472.24,32.25c-.2-.35.28-.87.38-.69C472.82,31.92,472.34,32.44,472.24,32.25Z"/><path class="cls-1" d="M307.13,32.94c-.2-.36.28-.88.38-.69C307.71,32.6,307.23,33.13,307.13,32.94Z"/><path class="cls-1" d="M471.85,33.62c-.2-.36.28-.87.39-.68C472.44,33.29,472,33.81,471.85,33.62Z"/><path class="cls-1" d="M543.82,33.62c-.19-.36.28-.87.39-.68C544.41,33.29,543.93,33.81,543.82,33.62Z"/><path class="cls-1" d="M433,34.3c0-.66.47-.53.77-.68C433.74,34.29,433.28,34.15,433,34.3Z"/><path class="cls-1" d="M545.75,34.3c.06-.8.7-.57,1.15-.68C546.84,34.42,546.2,34.2,545.75,34.3Z"/><path class="cls-1" d="M719.71,34.3c.06-.8.7-.57,1.16-.68H722C722,35.13,720.39,33.91,719.71,34.3Z"/><path class="cls-1" d="M291.35,35c1.35-2.59,2,1.88,3.85.69C295.9,36.91,291.46,36.75,291.35,35Z"/><path class="cls-1" d="M445.3,35c-.2-.35.28-.87.38-.69C445.88,34.66,445.4,35.18,445.3,35Z"/><path class="cls-1" d="M558.06,35c0-.66.48-.53.77-.69C558.82,35,558.36,34.84,558.06,35Z"/><path class="cls-1" d="M10.78,35.68C7.6,37.34,3.42,37.21,0,38.42,2.42,35.69,7.8,35.2,10.78,35.68Z"/><path class="cls-1" d="M16.16,35.68c1.25.79-1,.77-1.54.68-1.17-.5-1.13,1.18-2.31.69-.06-.81-.7-.58-1.15-.69C12,33.14,14.31,36.45,16.16,35.68Z"/><path class="cls-1" d="M45.8,35.68c0-.67.47-.54.77-.69C46.56,35.66,46.1,35.52,45.8,35.68Z"/><path class="cls-1" d="M434.14,37.73c-1.24,1.68-4,1.12-6.93,1.37-.91,0-1.14-1.18-2.31-.68C427,35.24,431.08,37,434.14,37.73Z"/><path class="cls-1" d="M469.93,38.42c.12-.93,1-.57,1.54-.69C471.36,39.32,470.44,39.31,469.93,38.42Z"/><path class="cls-1" d="M58.11,39.79c.07-.81.71-.58,1.16-.69C59.21,39.9,58.57,39.68,58.11,39.79Z"/><path class="cls-1" d="M486.48,40.47c-.2-.35.28-.87.38-.68C487.06,40.14,486.58,40.66,486.48,40.47Z"/><path class="cls-1" d="M48.11,42.53c1.22.58-.69.9-1.16.68-.71.11-.23,2.32-.76,2.75-1.49.36-1.88-1.23-3.47-.69-.07-1.49,1.37-.31,1.92-.68-1.24-1.84-2-.51-3.84-.69-.63.19-.67-.65-1.16-.69H37.33c-1.39.29-.53-1.25.39-.68H42c.85-.78,1.57-1.77,3.08-1.37C46.19,41.37,46.4,43.28,48.11,42.53Z"/><path class="cls-1" d="M58.5,41.84c-.2-.35.28-.87.38-.68C59.08,41.51,58.61,42,58.5,41.84Z"/><path class="cls-1" d="M59.65,41.84c-.19-.35.28-.87.39-.68C60.24,41.51,59.76,42,59.65,41.84Z"/><path class="cls-1" d="M755.89,41.84c0-.66.47-.53.77-.68h1.15C757.88,42.65,756.45,41.47,755.89,41.84Z"/><path class="cls-1" d="M57,42.53c0-.67.47-.53.77-.69C57.72,42.51,57.26,42.38,57,42.53Z"/><path class="cls-1" d="M350.23,42.53c-.2-.36.28-.87.39-.69C350.82,42.2,350.34,42.72,350.23,42.53Z"/><path class="cls-1" d="M59.65,43.21c-.19-.35.28-.87.39-.68C60.24,42.88,59.76,43.4,59.65,43.21Z"/><path class="cls-1" d="M52.34,43.21c.33-.12.37.27.39.69C56.49,43,52.64,46.66,52.34,43.21Z"/><path class="cls-1" d="M61.58,43.9c.06-.8.7-.58,1.15-.69C62.67,44,62,43.79,61.58,43.9Z"/><path class="cls-1" d="M56.58,44.59c0-.67.47-.54.77-.69C57.34,44.57,56.87,44.43,56.58,44.59Z"/><path class="cls-1" d="M48.49,45.27c.07-.8.7-.58,1.16-.68H50.8C50.75,46.1,49.17,44.88,48.49,45.27Z"/><path class="cls-1" d="M48.11,45.27c-.17.84-.49,1.41-1.16,1.37C47.12,45.8,47.45,45.23,48.11,45.27Z"/><path class="cls-1" d="M762.43,46c-.84,2.09-2.46-.8,0,0Z"/><path class="cls-1" d="M43.11,47.33c-.37,2.12-3.19-.6-3.08.68C38.69,45.77,42.58,46.66,43.11,47.33Z"/><path class="cls-1" d="M31.94,48.7c0-.67.48-.54.77-.69h1.16C33.93,49.5,32.5,48.32,31.94,48.7Z"/><path class="cls-1" d="M49.26,48.7c-.2-.36.28-.88.39-.69C49.85,48.36,49.37,48.89,49.26,48.7Z"/><path class="cls-1" d="M50.8,48.7c.67-2.22,1.58.59.39.68A.48.48,0,0,1,50.8,48.7Z"/><path class="cls-1" d="M56.58,49.38c-1.23,2.41-2.06-1.41,0,0Z"/><path class="cls-1" d="M38.1,50.07c.06-.81.7-.58,1.16-.69h1.15C40.36,50.9,38.78,49.67,38.1,50.07Z"/><path class="cls-1" d="M50.42,50.07c-.85,2.09-2.47-.79,0,0Z"/><path class="cls-1" d="M51.19,50.75c0-.67.47-.53.77-.68h1.15C53.18,51.55,51.75,50.38,51.19,50.75Z"/><path class="cls-1" d="M282.5,50.75c-.2-.35.27-.87.38-.68C283.08,50.42,282.6,50.94,282.5,50.75Z"/><path class="cls-1" d="M36.56,51.44c-.84,2.09-2.46-.79,0,0Z"/><path class="cls-1" d="M758.58,53.49c0-.66.47-.53.77-.68h1.16C760.57,54.3,759.14,53.12,758.58,53.49Z"/><path class="cls-1" d="M760.89,54.18c.07-.8.7-.58,1.16-.69C762,54.3,761.35,54.07,760.89,54.18Z"/><path class="cls-1" d="M615.8,63.09c-.2-.36.27-.88.38-.69C616.38,62.76,615.9,63.28,615.8,63.09Z"/><path class="cls-1" d="M618.49,62.4c-.85,2.1-2.47-.79,0,0Z"/><path class="cls-1" d="M607.33,64.46c.09-.87.76-.69.77,0C607.76,64.88,607.41,65.28,607.33,64.46Z"/><path class="cls-1" d="M611.56,64.46c-.2-.36.28-.88.39-.69C612.15,64.13,611.67,64.65,611.56,64.46Z"/><path class="cls-1" d="M612.33,64.46c-.2-.36.28-.88.39-.69C612.92,64.13,612.44,64.65,612.33,64.46Z"/><path class="cls-1" d="M620,65.14c.06-.8.7-.57,1.16-.68C621.12,65.26,620.48,65,620,65.14Z"/><path class="cls-1" d="M752.43,65.14A9.73,9.73,0,0,0,757,66.51C756.88,68.26,752.39,68.08,752.43,65.14Z"/><path class="cls-1" d="M758.58,65.83c-.2-.36.28-.88.39-.69C759.17,65.5,758.69,66,758.58,65.83Z"/><path class="cls-1" d="M759.35,65.83c0-.67.47-.53.77-.69C760.11,65.81,759.65,65.68,759.35,65.83Z"/><path class="cls-1" d="M763.59,65.14c-.85,2.1-2.47-.79,0,0Z"/><path class="cls-1" d="M770.52,65.83c-.2-.36.27-.88.38-.69C771.1,65.5,770.62,66,770.52,65.83Z"/><path class="cls-1" d="M621.19,66.51c.06-.8.69-.57,1.15-.68C622.28,66.63,621.64,66.41,621.19,66.51Z"/><path class="cls-1" d="M364.47,67.2c-.2-.36.28-.87.39-.69C365.06,66.87,364.58,67.39,364.47,67.2Z"/><path class="cls-1" d="M588.47,69.94c3.62,1.41,6.55-.21,10,1.37-2.89,1.81-6.5-.18-9.24.69C589,71.3,588.35,71.29,588.47,69.94Z"/><path class="cls-1" d="M753.19,71.31c-.19-.35.28-.88.39-.69C753.78,71,753.3,71.5,753.19,71.31Z"/><path class="cls-1" d="M754,71.31c-.19-.35.28-.88.39-.69C754.55,71,754.07,71.5,754,71.31Z"/><path class="cls-1" d="M754.74,71.31c-.07-1.49,1.36-.31,1.92-.69C756.62,72.37,755.23,72.24,754.74,71.31Z"/><path class="cls-1" d="M757.81,72c-1.43-1.73,1.47-1.45,2.31-1.38,1-.08.66.84,0,.69H758.2C757.87,71.18,757.84,71.58,757.81,72Z"/><path class="cls-1" d="M376.79,72.68c-.2-.35.28-.87.38-.68C377.37,72.35,376.9,72.87,376.79,72.68Z"/><path class="cls-1" d="M586.93,73.37c-.2-.36.28-.88.38-.69C587.51,73,587,73.56,586.93,73.37Z"/><path class="cls-1" d="M565.76,73.37c-.84,2.09-2.46-.79,0,0Z"/><path class="cls-1" d="M588.09,74.05c.11-.93,1-.57,1.53-.68C589.52,75,588.6,74.94,588.09,74.05Z"/><path class="cls-1" d="M630.8,74.05c-.19-.35.28-.87.39-.68C631.39,73.72,630.91,74.24,630.8,74.05Z"/><path class="cls-1" d="M756.66,74.05c-.2-.35.28-.87.38-.68C757.24,73.72,756.77,74.24,756.66,74.05Z"/><path class="cls-1" d="M591.55,74.74c.61-1.7,2.69-.28,3.46,0C594.58,76.11,592,75.52,591.55,74.74Z"/><path class="cls-1" d="M614.26,75.42c-.91,2.65-3.37.75-5,.69C611.09,74.88,612.61,73.68,614.26,75.42Z"/><path class="cls-1" d="M632,74.05c2.29,1.06,4.72.24,6.54.69-.38,1.15-2.25.74-3.46.68S631.83,76.35,632,74.05Z"/><path class="cls-1" d="M642,74.74c.06-.81.7-.58,1.15-.69C643.06,74.86,642.42,74.63,642,74.74Z"/><path class="cls-1" d="M737.42,74.74c-.2-.36.27-.88.38-.69C738,74.41,737.52,74.93,737.42,74.74Z"/><path class="cls-1" d="M615.8,75.42c.07-.78.38-.38.38,0C616.11,76.2,615.8,75.8,615.8,75.42Z"/><path class="cls-1" d="M734.34,74.74h.76v1.37h-.76Z"/><path class="cls-1" d="M757.81,75.42c0-.66.47-.53.77-.68h1.16C759.8,76.22,758.37,75.05,757.81,75.42Z"/><path class="cls-1" d="M372.17,76.11a1.43,1.43,0,0,0,1.16.68c.05,2.16-1,2.36-1.93,2.74C371.57,78.23,372.23,77.81,372.17,76.11Z"/><path class="cls-1" d="M712.4,76.11c-.85,2.09-2.47-.79,0,0Z"/><path class="cls-1" d="M757.43,78.17c-.2-.36.28-.88.38-.69C758,77.83,757.53,78.35,757.43,78.17Z"/><path class="cls-1" d="M760.51,78.17c-.85,2.09-2.47-.8,0,0Z"/><path class="cls-1" d="M594.63,79.53c0-1,2.85-1.5,2.31.69C596.48,79.43,595.58,79.45,594.63,79.53Z"/><path class="cls-1" d="M757.43,81.59c.06-.8.7-.58,1.15-.68C758.52,81.71,757.88,81.48,757.43,81.59Z"/><path class="cls-1" d="M78.13,83c0-.66.47-.53.77-.69C78.89,82.94,78.43,82.81,78.13,83Z"/><path class="cls-1" d="M79.28,83c-.2-.35.28-.87.39-.69C79.87,82.63,79.39,83.15,79.28,83Z"/><path class="cls-1" d="M203.21,83c-.2-.35.28-.87.39-.69C203.8,82.63,203.32,83.15,203.21,83Z"/><path class="cls-1" d="M485.71,84.33c-3.27,1.35-4.55,0-8.47.69,0-1.74,2.25-2.78,2.31-2.06A9,9,0,0,1,485.71,84.33Z"/><path class="cls-1" d="M68.89,83.65c0-.67.47-.54.77-.69C69.65,83.63,69.19,83.49,68.89,83.65Z"/><path class="cls-1" d="M77.36,83.65c-.2-.36.28-.88.38-.69C77.94,83.31,77.46,83.84,77.36,83.65Z"/><path class="cls-1" d="M407.58,83.65c1.93-1.59,5.51-.24,8.08-.69-.85,2.82-4.47.73-6.54,1.37C408.43,84.42,408.31,83.49,407.58,83.65Z"/><path class="cls-1" d="M448,84.33a3.83,3.83,0,0,1-3.46,1.37c-2.3-3-7.25,0-9.62-1.37C439.88,82.87,442.89,83.22,448,84.33Z"/><path class="cls-1" d="M347.15,84.33c-1.76,1.54-5.83.66-1.92-.68A1.71,1.71,0,0,0,347.15,84.33Z"/><path class="cls-1" d="M371.79,84.33c-.2-.36.27-.87.38-.68C372.37,84,371.89,84.52,371.79,84.33Z"/><path class="cls-1" d="M376.79,84.33c-.2-.36.28-.87.38-.68C377.37,84,376.9,84.52,376.79,84.33Z"/><path class="cls-1" d="M428.36,83.65c-.81,1.75-2.84,1.34-4.62,1.37C424.1,82.45,426.84,84.12,428.36,83.65Z"/><path class="cls-1" d="M735.49,84.33c-.2-.35.28-.87.39-.68C736.08,84,735.6,84.52,735.49,84.33Z"/><path class="cls-1" d="M141.63,85c0-.67.47-.53.77-.69C142.39,85,141.93,84.86,141.63,85Z"/><path class="cls-1" d="M142.79,85c.06-.81.7-.58,1.15-.69C143.88,85.14,143.24,84.91,142.79,85Z"/><path class="cls-1" d="M481.09,89.81c-.09,3-3.76-.3-3.85,2.75-.68-.62-1.12-1.66-1.92-2.06h-3.85c-1.45-.55-2.72-2.16-4.24-.69,0-2-1.81-.87-2.31-2-3.36.5-5.53-1.12-8.85-.69,4.25-3.95,10.26.14,14.63,0a10.33,10.33,0,0,1,5-.68c0,.66.47.53.77.68,1-.12.94,1.54,1.54,2.06A4.34,4.34,0,0,0,481.09,89.81Z"/><path class="cls-1" d="M740.49,85.7c0-.66.47-.53.78-.68C741.25,85.68,740.79,85.55,740.49,85.7Z"/><path class="cls-1" d="M744,85c-.85,2.09-2.47-.79,0,0Z"/><path class="cls-1" d="M745.5,85.7c.06-.8.7-.58,1.15-.68C746.59,85.82,746,85.6,745.5,85.7Z"/><path class="cls-1" d="M206.68,86.39c0-.67.47-.54.77-.69C207.43,86.37,207,86.23,206.68,86.39Z"/><path class="cls-1" d="M718.56,86.39c-.2-.36.28-.88.38-.69C719.14,86.06,718.66,86.58,718.56,86.39Z"/><path class="cls-1" d="M719.33,86.39c.06-.8.7-.58,1.15-.69C720.42,86.51,719.78,86.28,719.33,86.39Z"/><path class="cls-1" d="M721.63,87.07c-1.23-.77.38-1.95,1.16-1.37,1.68,0,.06,1.18-.77.69C721.69,86.26,721.66,86.65,721.63,87.07Z"/><path class="cls-1" d="M450.69,87.07c.06,1.49-1.37.31-1.93.69C449.11,86.57,450.11,86,450.69,87.07Z"/><path class="cls-1" d="M745.11,87.07c0-.66.47-.53.77-.68C745.87,87.05,745.41,86.92,745.11,87.07Z"/><path class="cls-1" d="M434.14,87.07h2.69C437.13,90.27,434.1,89.26,434.14,87.07Z"/><path class="cls-1" d="M481.09,87.76c.06-.81.7-.58,1.16-.69C482.18,87.88,481.54,87.65,481.09,87.76Z"/><path class="cls-1" d="M754,87.76c.08-.78.39-.38.39,0C754.27,88.54,754,88.14,754,87.76Z"/><path class="cls-1" d="M118.54,88.44c-.2-.35.28-.87.38-.68C119.12,88.11,118.65,88.63,118.54,88.44Z"/><path class="cls-1" d="M119.31,88.44c-.2-.35.28-.87.38-.68C119.89,88.11,119.42,88.63,119.31,88.44Z"/><path class="cls-1" d="M131.24,89.13c0-.67.47-.53.77-.69C132,89.11,131.54,89,131.24,89.13Z"/><path class="cls-1" d="M142.79,89.13c-.2-.36.27-.88.38-.69C143.37,88.8,142.89,89.32,142.79,89.13Z"/><path class="cls-1" d="M346.77,89.13c-.2-.36.28-.88.38-.69C347.35,88.8,346.88,89.32,346.77,89.13Z"/><path class="cls-1" d="M352.93,89.13c-.2-.36.28-.88.38-.69C353.51,88.8,353,89.32,352.93,89.13Z"/><path class="cls-1" d="M665.83,89.13c0-.67.47-.53.77-.69C666.59,89.11,666.13,89,665.83,89.13Z"/><path class="cls-1" d="M758.58,89.81c0-.66.47-.53.77-.68C759.34,89.8,758.88,89.66,758.58,89.81Z"/><path class="cls-1" d="M102.38,90.5c-.2-.36.27-.87.38-.69C103,90.17,102.48,90.69,102.38,90.5Z"/><path class="cls-1" d="M486.48,90.5c-.2-.36.28-.87.38-.69C487.06,90.17,486.58,90.69,486.48,90.5Z"/><path class="cls-1" d="M719.71,89.81c1.13.77-.49,2.23-1.15,2.06C718.44,90.29,719.67,91.11,719.71,89.81Z"/><path class="cls-1" d="M742.8,90.5c1.3-1.66-.93,2.3,0,0Z"/><path class="cls-1" d="M714.32,91.18c0-.66.47-.53.77-.68C715.08,91.17,714.62,91,714.32,91.18Z"/><path class="cls-1" d="M721.63,91.18c-.19-.35.28-.87.39-.68C722.22,90.85,721.74,91.37,721.63,91.18Z"/><path class="cls-1" d="M744.34,91.18c-.2-.35.28-.87.39-.68C744.93,90.85,744.45,91.37,744.34,91.18Z"/><path class="cls-1" d="M94.68,91.87c-.2-.35.28-.88.38-.69C95.26,91.54,94.79,92.06,94.68,91.87Z"/><path class="cls-1" d="M757,91.87c.7-1.64,3-.38,3.85,0C760,93.94,758.39,91.35,757,91.87Z"/><path class="cls-1" d="M75.44,92.56c0-.67.47-.54.76-.69C76.19,92.54,75.73,92.4,75.44,92.56Z"/><path class="cls-1" d="M695.08,92.56c.06-.81.7-.58,1.15-.69C696.17,92.67,695.53,92.45,695.08,92.56Z"/><path class="cls-1" d="M71.59,93.24c-.2-.35.27-.87.38-.68C72.17,92.91,71.69,93.43,71.59,93.24Z"/><path class="cls-1" d="M429.13,93.24c-.07-.58.15-.65.39-.68.31.12.38.68.77.68h8.85c-.06.81-.7.58-1.16.69h-3.46a14.23,14.23,0,0,0-2.69.68c-1.09.57-1-1-1.93-.68h-5.77c-.59-.37,0-.72.38-.69h4.62Z"/><path class="cls-1" d="M77.36,93.93c-.2-.36.28-.88.38-.69C77.94,93.6,77.46,94.11,77.36,93.93Z"/><path class="cls-1" d="M176.27,93.93c0-.67.47-.54.77-.69C177,93.91,176.57,93.77,176.27,93.93Z"/><path class="cls-1" d="M182,93.93c.07-.81.71-.58,1.16-.69C183.14,94.05,182.5,93.82,182,93.93Z"/><path class="cls-1" d="M184.74,93.93c0-1.52,1.63-.29,2.31-.69h2.69C188.83,94.82,186.29,93.49,184.74,93.93Z"/><path class="cls-1" d="M190.13,93.93c0-.67.47-.54.77-.69C190.89,93.91,190.43,93.77,190.13,93.93Z"/><path class="cls-1" d="M191.67,93.93c0-.67.47-.54.76-.69C192.43,93.91,192,93.77,191.67,93.93Z"/><path class="cls-1" d="M194.74,93.24c-.84,2.09-2.46-.79,0,0Z"/><path class="cls-1" d="M195.52,93.93c.06-.81.7-.58,1.15-.69h1.54C198,94.77,196.31,93.52,195.52,93.93Z"/><path class="cls-1" d="M199.36,93.93c-.2-.36.28-.88.39-.69C200,93.6,199.47,94.11,199.36,93.93Z"/><path class="cls-1" d="M202.44,93.24c-.84,2.09-2.46-.79,0,0Z"/><path class="cls-1" d="M417.59,93.24h2.31C419.94,94.88,415.23,93.63,417.59,93.24Z"/><path class="cls-1" d="M422.59,93.24c-.85,2.09-2.47-.79,0,0Z"/><path class="cls-1" d="M423,93.93c-.2-.36.27-.88.38-.69C423.56,93.6,423.08,94.11,423,93.93Z"/><path class="cls-1" d="M440.29,93.93c0-.67.48-.54.77-.69h3.47C443.87,94.81,441.59,93.49,440.29,93.93Z"/><path class="cls-1" d="M448.38,93.93c.06-.81.7-.58,1.15-.69C449.47,94.05,448.83,93.82,448.38,93.93Z"/><path class="cls-1" d="M457.61,93.24c-.84,2.09-2.46-.79,0,0Z"/><path class="cls-1" d="M757.81,93.93c1.83-1.43,4.51-.5,5.78,0C762.33,97.29,758.62,93.81,757.81,93.93Z"/><path class="cls-1" d="M83.9,94.61c-.2-.35.28-.87.39-.68C84.49,94.28,84,94.8,83.9,94.61Z"/><path class="cls-1" d="M84.67,94.61c-.2-.35.28-.87.39-.68C85.26,94.28,84.78,94.8,84.67,94.61Z"/><path class="cls-1" d="M152.79,94.61c0-.67.48-.53.77-.68C153.55,94.59,153.09,94.46,152.79,94.61Z"/><path class="cls-1" d="M154.33,94.61c0-.67.47-.53.77-.68C155.09,94.59,154.63,94.46,154.33,94.61Z"/><path class="cls-1" d="M157.41,94.61c-.2-.35.28-.87.39-.68C158,94.28,157.52,94.8,157.41,94.61Z"/><path class="cls-1" d="M159.72,93.93h1.16C160.66,95.89,156.87,93.69,159.72,93.93Z"/><path class="cls-1" d="M161.65,94.61c.06-.8.7-.58,1.15-.68C162.74,94.73,162.1,94.5,161.65,94.61Z"/><path class="cls-1" d="M167.8,94.61c-.2-.35.28-.87.39-.68C168.39,94.28,167.91,94.8,167.8,94.61Z"/><path class="cls-1" d="M77.74,95.3c0-.67.47-.54.77-.69C78.5,95.28,78,95.14,77.74,95.3Z"/><path class="cls-1" d="M115.85,94.61c.23.2,1.48,1.7,1.54,0C119.13,95.77,115.18,97.39,115.85,94.61Z"/><path class="cls-1" d="M123.54,94.61A2.59,2.59,0,0,1,120.85,96,2.59,2.59,0,0,1,123.54,94.61Z"/><path class="cls-1" d="M125.47,94.61c1.19.9,1.1-.18,2.69,0C128.08,95.75,125.3,97.36,125.47,94.61Z"/><path class="cls-1" d="M128.93,95.3c0-.67.47-.54.77-.69C129.69,95.28,129.23,95.14,128.93,95.3Z"/><path class="cls-1" d="M130.09,95.3c0-.67.47-.54.77-.69C130.84,95.28,130.38,95.14,130.09,95.3Z"/><path class="cls-1" d="M131.24,95.3c.07-.78.39-.38.38,0C131.55,96.07,131.24,95.68,131.24,95.3Z"/><path class="cls-1" d="M132,96c-.31-2.6,1.82-.87,2.69-1.37,1.82-.33.94,1.24-.38.69C133.41,95.28,133.19,96.48,132,96Z"/><path class="cls-1" d="M136.25,95.3c1.55-1.39,5.11,0,7.31-.69C141.13,96.37,139,95.84,136.25,95.3Z"/><path class="cls-1" d="M144.71,95.3c.06-.81.7-.58,1.16-.69h1.54C147.24,96.14,145.51,94.89,144.71,95.3Z"/><path class="cls-1" d="M148.17,95.3c.07-.81.71-.58,1.16-.69C149.27,95.41,148.63,95.19,148.17,95.3Z"/><path class="cls-1" d="M151.64,95.3c0-.67.47-.54.77-.69C152.4,95.28,151.94,95.14,151.64,95.3Z"/><path class="cls-1" d="M155.87,95.3c-.2-.36.28-.88.39-.69C156.46,95,156,95.49,155.87,95.3Z"/><path class="cls-1" d="M366.4,95.3c0-.67.47-.54.77-.69C367.16,95.28,366.7,95.14,366.4,95.3Z"/><path class="cls-1" d="M110.84,96c0-1.51,1.64-.29,2.31-.68h2.31C114.68,96.87,112.27,95.55,110.84,96Z"/><path class="cls-1" d="M119.69,96c-.19-.35.28-.87.39-.68C120.28,95.65,119.8,96.17,119.69,96Z"/><path class="cls-1" d="M743.57,96c-.2-.35.28-.87.39-.68C744.16,95.65,743.68,96.17,743.57,96Z"/><path class="cls-1" d="M102.38,96.67c-.2-.36.27-.88.38-.69C103,96.34,102.48,96.86,102.38,96.67Z"/><path class="cls-1" d="M103.14,96.67c-.19-.36.28-.88.39-.69C103.73,96.34,103.25,96.86,103.14,96.67Z"/><path class="cls-1" d="M106.22,96c-.84,2.09-2.46-.79,0,0Z"/><path class="cls-1" d="M107.38,96.67c-.2-.36.28-.88.38-.69C108,96.34,107.49,96.86,107.38,96.67Z"/><path class="cls-1" d="M600.4,96c-.84,2.09-2.46-.79,0,0Z"/><path class="cls-1" d="M600.79,96.67c.06-.81.7-.58,1.15-.69h1.54C603.31,97.51,601.58,96.26,600.79,96.67Z"/><path class="cls-1" d="M94.68,97.35c-.2-.35.28-.87.38-.68C95.26,97,94.79,97.54,94.68,97.35Z"/><path class="cls-1" d="M96.22,97.35c0-.67.47-.53.77-.68h1.15C98.21,98.15,96.78,97,96.22,97.35Z"/><path class="cls-1" d="M740.49,96.67c-.37,1.39-1.47,1.48-2.69,1.37C738.38,97,739.49,96.93,740.49,96.67Z"/><path class="cls-1" d="M88.52,98c-.2-.36.28-.88.38-.69C89.1,97.71,88.63,98.23,88.52,98Z"/><path class="cls-1" d="M91.6,98c-.2-.36.28-.88.38-.69C92.18,97.71,91.71,98.23,91.6,98Z"/><path class="cls-1" d="M78.51,98.72c-.2-.35.28-.87.39-.68C79.1,98.39,78.62,98.91,78.51,98.72Z"/><path class="cls-1" d="M79.67,98.72c0-.66.47-.53.77-.68C80.43,98.7,80,98.57,79.67,98.72Z"/><path class="cls-1" d="M84.29,98.72c.06-.8.7-.58,1.15-.68C85.38,98.84,84.74,98.62,84.29,98.72Z"/><path class="cls-1" d="M734,98.72c-.2-.35.28-.87.39-.68C734.54,98.39,734.06,98.91,734,98.72Z"/><path class="cls-1" d="M744.34,98.72c.12-.93,1-.56,1.54-.68C745.76,99,744.92,98.61,744.34,98.72Z"/><path class="cls-1" d="M70.43,99.41c0-.67.47-.53.77-.69C71.19,99.39,70.73,99.25,70.43,99.41Z"/><path class="cls-1" d="M73.89,98.72c-.84,2.1-2.46-.79,0,0Z"/><path class="cls-1" d="M633.11,99.41c0-.67.48-.53.77-.69H635C635.1,100.21,633.67,99,633.11,99.41Z"/><path class="cls-1" d="M743.19,99.41c-.2-.36.28-.88.38-.69C743.77,99.08,743.29,99.6,743.19,99.41Z"/><path class="cls-1" d="M58.11,100.09s0-.68,0-.68c1.38.33-.68,2.2-1.15,1.37C56.68,100.28,57.93,100.12,58.11,100.09Z"/><path class="cls-1" d="M58.88,100.78c.74-2.34,3.53-1,5.39-1.37s.93,1.23-.38.68h-2.7C60.29,100.08,60.06,101.27,58.88,100.78Z"/><path class="cls-1" d="M68.89,100.09c-.2-.35.28-.87.39-.68C69.48,99.76,69,100.28,68.89,100.09Z"/><path class="cls-1" d="M637.73,100.09c-.2-.35.28-.87.39-.68C638.32,99.76,637.84,100.28,637.73,100.09Z"/><path class="cls-1" d="M643.51,100.09c0-.66.47-.53.77-.68C644.27,100.07,643.8,99.94,643.51,100.09Z"/><path class="cls-1" d="M645.05,100.09c-.2-.35.27-.87.38-.68C645.63,99.76,645.15,100.28,645.05,100.09Z"/><path class="cls-1" d="M141.25,130.25c-.2-.36.28-.88.38-.69C141.83,129.92,141.35,130.44,141.25,130.25Z"/><path class="cls-1" d="M121.23,152.18c-.19-.36.28-.88.39-.69C121.82,151.84,121.34,152.37,121.23,152.18Z"/><path class="cls-1" d="M97,2.1c-3.12-1.75,2.54,1.19,0,0Z"/><path class="cls-1" d="M162.8,19.23c-.06.8-.7.58-1.15.68,2.91,1.93,5.47.28,9.23.69.84-.23.58,1.12,1.16,1.37,2,.85,5-.73,6.15.68-.65,1.58-2.93.26-4.23.69.29,1.55,2.16.27,3.08.69-.07.55-.38.68-.38,1.37,2.79-.06,5.69,2.17,8.08.68-.84,3.64-4-1.11-5.39,1.37,1.24,1.82,3.37,2,4.23,1.37.86-.37.55,1.31,1.16,1.38.87.49,3-1.24,2.69,1.36-1.22-.11-2.83-1.6-3.85,0,.25,1.63,2.37-.1,2.7,1.38,5.66-1.81,10.07-.06,15,1.36,1.25-.4.72-1.43,1.15-2,3.23-.49,5.49.74,8.47.69.85-1,2.87.08,3.08-2.06,2.87.38,6.82,2.46,9.23,1.37.74.29,1,1.47,1.93,1.37,1.17-.43,3.31.88,3.85-.68,1.18,0,2,2.51,3.08.68-.37-2.78-3.76-.17-4.24-2.74h-2.31c-1.05.5-.77-1.36-1.53-1.37-1.38.38-3.77,1.53-5,0,0-3.07,2.78-2.05,3.85-1.37,1.32-.86,3.16-.77,3.46-3.43,6-.76,8.26.31,15-.68,1.46.64,1.81,0,2.7.68h6.16c-.43.84-.34,1.41.38,1.37-2.83,2.27-7.32,1.58-11.16,2.06,1,3.08,4.35,2.27,6.93,2.06,2.08-.18,7.46,1,8.85-1.38.08-2.88-2.49-1-3.08-2.74.2-2.61,2.27-1.9,3.85-2,1.95-.28,2.37.27,3.08-1.38-1-2.29-4-1.12-5.39-2.74-.56.38-2-.8-1.92.69-.38,0-.3-.84-.39-1.37-.83,1.27-2.82.46-4.23.68,1.22-2,3.53-1,5.77-1.36,2.9-.52,8.58-1.59,12.32-1.38,1.18-.51.74,1.89,1.92,1.38,3.13-.14,5.08-2.39,8.08-2.75,3.58.39,3.77.5,7.32.69-.48,1.44-2.32.44-2.7,2.06-.11,2.47,1.69,1.56,2.31,2.74,3.42-.78,8,.35,11.55,1.36-4,2.09-9.93.3-12.7,2.75-7.67-.63-13.81,1.46-20.4,2.74.07,3.3,2.9,1.69,4.62,2.06a10.23,10.23,0,0,0-2.7,3.42c-2.54.42-3.8-1.46-5.39-2.74-2.86,1.16-5.87-.42-7.69,1.37-.29,2.34,1.42,1.13,1.54,2.74a5.1,5.1,0,0,1,4.61,1.37c3,.74,6.19-.69,8.86-.68,1.73,0,3.82.5,6.16,0,1.09-.24,2.07-1.36,3.07-1.38,2.19,0,4.78.72,6.55.69.9,0,1.13-1.18,2.31-.69,2.19,1.35,5.41.87,7.69,2.06,1.4-.65.4,3,1.16,3.43,3.44-.48,6.24.89,8.85,0,.82-.32.73,1,.77,2.05,2.1-1.68,3.63-.27,6.16-1.37,1.36-.2-1.36-1.85,0-2,2.21-1.62,5,.13,6.16-2.06-.78-1.5-3-.35-1.93-3.42-1.2-.15-2.82.46-3.46-.69,1-1.07,1.62.19,4.23,0,1.36-.37.95,2.43,2.31,2,2.41-1.35,4.48.78,6.16-1.36-1.05-2.06-2.54.91-4.24,0,.41-2.49,3.12-.85,3.85-2.74,1.2.89,1.1-.19,2.7,0,.39-1.2-1.3-4.53-3.08-4.12,3.58-.55,9.48-.86,14.24-1.37.61.53.57,2.18,1.54,2.06,1.28.21,1.45-1.52,2.31-2.06a47.32,47.32,0,0,0,11.16,0,4.11,4.11,0,0,0,0,3.43c-1.05-.5-.78,1.36-1.54,1.37.81,1.51,2.1,1.35.77,3.43,6.82,1.62,17.52,2.1,25.4,4.11-.53-2.26-2.17-2.53-3.46-3.43.06-.8.7-.58,1.15-.68-.66-1.12-1.4-2.08-2.69-2.06-.49.17-.39,1.36,0,1.37-1.21,1-4-1-5.39-2.05-2.29.18-3.94-.75-5.77-1.38,5.67-2.37,12.59,1.54,17.32-2.05a50,50,0,0,0,9.23,2.05c-2.91,1.21-6.89.51-9.23,2.74.31,1.73,2,1,2.69,2.06,5.07-.58,8.76,1.3,12.31,3.43,8.15.71,15.14.78,22.33,2.05.83,1.32-2.82.44-3.85.69,1.89,1.92,2.66,1.63,5.39,2.05,2.16-.52,4.52-1.4,6.93-1.37,5.88.09,12.2,1.79,18.08,2.06,1.51-1.66,4.4-.85,6.16-2.06-1-3.24-3.15-.64-5.77-1.37-.8.29-1-.47-1.54-.68h-2.31c-1.22-.58.68-.91,1.15-.69h4.62c1-1.16,3.3-.07,4.24-1.37,3.6.68,8.79-1.49,11.16,1.37-2.55,1.11-5.24.35-8.85.69.22,2.72,2.71,2.16,3.85,1.37,4.86,1.92,11-1.82,15.77,1.37,5.46-2.36,11.53.48,17.32,1.37-.25.7-.88.71-.77,2.06,1.22,1.12,2.91-1.89,4.62-2.06,1.43-.43,4,1.11,4.24-1.37s-1.14-2.08-2.31-2.06c-.07-1.48,1.36-.31,1.92-.68,1,.49,1.31,2.23,2.31,2.74,2.09.52,3-1.09,5-.69.37-3.11,3.35-3.29,5-2-.1.74-.77.46-.77,1.37,3.16,1.4,7.32-1,11.16-.69-1.55-2.19-2.84-.68-5-1.37,1.53-1.56,5-.67,6.15.69,3.07-1.63,8.42.83,10-3.43-.06-.8-.7-.58-1.15-.69.26-1.08,3.48-1.68,2.69,1.38,5.11-.23,7.46-.73,13.09,0,.64.08,1.4.69,1.92.68,1.71,0,3.6-1.34,5.39-1.37,3.55-.05,7.52,1.33,11.93.69,1-.11,1.19,1.07,1.92,1.37,4.75-1.7,10.63.22,14.24-2.06-.34-1.21-1.7-1.13-.76-2.74,1.61.11,3.63,1.65,3.46-.69,1.44-.73,1.1,1.7,2.31,1.38,1.13.61,2-.51,3.08-.69a62.89,62.89,0,0,1,8.08-.69c1.54,0,3.09,1.33,4.62,1.38.65,0,1.26-.73,1.92-.69,2.57.18,5.06,0,7.7,0,.76,0,1.55.71,2.31.69,3.46-.14,8.31-.63,13.08.68,2.14-.16,4.07-.57,6.16.68,6.13.08,12.21-.46,17.71,0,9,.76,17.9.12,26.55.69,3.66.24,6.69.68,10-1.37,2,1.17,3.8,2.82,6.16,3.43,1.63-1.2,4.33-.51,6.54-.69.87-.31,1.77-3,.38-3.42.93-.95,3.21,1.57,4.62,2.05,1.78,0,3.77-.3,5,.69a16.35,16.35,0,0,1,5-.69c1.15,0,1.31,1.78,2.31,2.06,2.39-.68,3.35.14,6.16,0,2.21-1.55,5-2,7.69-2.75.4,1.59,1.77,1.42,3.08,1.38-.8-1.54-1.6-3.09-3.08-3.43.46-1,.34-3.06,1.54-2.74-.77-2.06-2.69-2.06-3.08-4.8,3.58-3,3.61,5.18,6.16,6.17.15,1.64-1.75-.38-1.15,2.06,1.19,2.72,2.38-3.93,3.46-1.38s-1.52,2.88-1.92,4.8c.64,1,1-.28,2.31.69.89.46.56,3.11,1.53,3.42,1.6-.27.23-2,1.55-2-.18-2.67-1.76-2.81-2.7-4.12,1.42-2.26,3.22.64,3.85,2.06a5.7,5.7,0,0,0,3.85-.68c1.15-.46-.37-1.47,0-2.74,1.92.57,2.3-.12,4.62,0,.11-1.81-.81-1.77-1.54-2.06,1.16-1.57,4.21-.67,5,.68.69.09.81-.83,1.54-.68,1.07,1.3,3.82-.4,3.85,2.74-1.29-1.25-3.55.74-5.77,0-.19,2.16,1.76.51,1.92,2.06,2.37-.34,3.68,1.21,6.16.68-.64,1.75-2.2,1.84-1.93,3.43-1.72.59-3.17,1.66-5.39,1.37.06,2,1.61,1.25,2.7,1.37-1,1.1.56,2.3.77.68,1,.62-.81,1.66-1.15,2.06,1,1.58,3.71.24,5.38.69-.56,2.6,1.72.13,1.16,2.74-2.74-2-4.19,1.42-7.31.68.39,2.26,4-1.27,3.84,2.06-1.6-1.62-5.88,2-7.31-1.37-1.83.42-2.87.91-4.23-.69.34,1.8-.1,2,1.15,2.74.95.57,2.35-.73,3.08.69,1.78-.25,2.22-.84,3.85,0-.17,1.53-1.9.28-2.69.68.32,1,1.24,1,1.92,1.37,0,2.22-1.07,2.67-1.92,3.43.09,2.2,2.17-2.18,1.92,1.37-1.27,0-1.92,1.16-3.46.69.28,1.54,2.15.26,3.07.68-.12,2.23-3.15,1.57-3.84.69a2.94,2.94,0,0,1-3.47.68c1,2.49,3.94,1.67,5.78,2.74-.22,3.93-2.71,1.52-4.24,1.37-1.77-.17-3.46,0-4.62-.68-2.45,1.15-3.62.72-6.92.68,6.37,3.54,12.77.72,20.39,2.06.89,1.62-3.46-.26-3.85,1.37.11,1.42,1.7.19,1.93,1.37-.17,1.53-1.9.28-2.69.69.18,2.64,3.11.39,3.08,3.42,1.36-.31,2.22-1.52,3.84-1.37-2.33,1.89.94,1.62,1.93,2.06a11.51,11.51,0,0,1-5.77,1.37c.42,3.62,2.72-.32,3.07,3.43-1.15.79-2.71-.07-4.62.68.93,1.13,4.39,1.29,3.47,3.43-.71,4-2.94-.54-5,1.37,0-.67.47-.54.76-.69-3.65-2.3-6.5-1.83-11.16-2,.17-1.54,2,0,2.32-1.38-.54-1.56-2.68-.25-3.85-.68,1.35,1.51,0,.89-.39,2.74-1-.17.53-1.18,0-2.74-.72,0-3-.37-4.62-.68.12.93,1,.56,1.54.68-1.08,2.24-2.53.8-3.85,0,.11-1.41,1.71-.16,1.54-2.06a17.46,17.46,0,0,1-6.54-.68c-.85-.38-.55,1.31-1.16,1.37-.67.39-2.26-.83-2.31.69-1.11-1,.65-2.43,1.55-2.06-3.41-1.39-6.87-4.57-10-2.74A9.49,9.49,0,0,0,704.32,72c-2.54-1.53-4.1-.54-7.32-.69,1.63,1.67,4.7.78,6.16,2.74,1.19-1.43,3.8-.68,4.62.69-2.93,1.56-6.92-.92-10.78,0-.77-.24-1.2.14-1.15,1.37-.83-1,.27-1.68-.39-3.43-.13.77-2,2.23-.38,2.06-1.44,1.84-4.12,0-5.78,0-.2-1.42-1.81-.17-.76-2.06-.56-.36-.94,2.67-1.16.69-1.39.27-.86,3.93-3.08,2.74.12.93,1,.57,1.54.68-2.2,2.43-4.41.85-6.93.69-2.82-.19-5.93.42-8.85,0-2.25-.32-4.36-1.76-6.54-2.06-2.52-.35-5,.81-7.31-.68-.5,1-1.82.42-2.31,1.37-6.26-3.93-15.57-2.43-22.71-4.8-1.64,0-2.69,1.15-4.62.69a13.67,13.67,0,0,1-1.92-1.38c-5.49-1-10.27.17-16.17-.68-2.12-.3-4.24-1.8-6.15-2.06s-3.75.73-5.39.69c-1,0-2.1-1.1-3.47,0-1.5-.75-3.58-.47-5-1.37-3.31,1.52-4.47-.55-8.47,0-1.17,0-1.49-1.45-2.31-2.06-1.33-.55-1.48,1-2.69.69-.94-.61-1.41-2.06-3.08-1.37-.27,1.84.8,1.32,1.16,2.05,1,0,.46.51.38,1.37,2.23.51,6,1.53,8.08,0,1,1.13,3.14.35,3.47,2.74a49.22,49.22,0,0,0-9.62,2.75c1.92,3.84,6-.23,8.85,2,1.07-.1,1.25,1.94.77,2.75,2.69,1.48,4-2.94,6.54,0,.35,2.68-2,.49-2.31,2a1.85,1.85,0,0,0,2.31,1.37A6,6,0,0,0,593.86,85c4-1,7.15.53,11.16-.69-1.29-1.29-1.51-.5-1.54-3.42-2.5.89-3-.26-5.39-.69-.14-2.08,1.26-1.42,1.93-2h2.69c1.73-2.07,3.44-4.25,6.16-2.75-.58,2-2.27,1.91-3.85,2.06.53,2.53,1.58-.13,2.31,2,1.18.5,1.4-.7,2.31-.68C621.51,80.51,631.25,80,642,81.59c1.69.25,3.6,1.56,5.38,0h2.7c-.15,1.64,1.75-.38,1.15,2.06-1-1.78-.3,1.1-1.54.68-.95.09-1.85.11-2.31-.68-.69.81-3-.8-4.23.68.25,3.21,3.33,1.38,4.62,2.74h6.16c-.66-1.11-2.21-.63-1.93-3.42,12.94-1.12,25.37.22,38.11,1.37,2.56.24,5.72-.61,7.69.68,3.2-.81,5.1.12,9.62-1.37,2.26,1.46,5.59,1,8.09,2.06-6.57,2-10.81.07-18.86,2.74-4.75-1.6-11.38-3.49-16.55-2.06-.62,2.7,1.66.24,1.54,2.06,2.24-.49,6,.12,8.08,2.05h5c-.78,1.58-3.19.25-4.61.69-.81-.29-1,.47-1.54.69-7.56-.48-14.17-2.64-21.56-3.43,0-1.3,1.28-.48,1.16-2.06-.38-3.19-3.14-1.87-4.62-1.37-.57.81-1.72.6-1.54,2.74-7.63-2.67-17,1.77-24.63,0-2,.3-3.38,1.76-5.39,2.06,3.51,3.34,9.45-.67,11.93,2.74.27-1.35,2.15.17,2.31-1.37,3.21,1.55,8.54,2.37,11.93,1.37,2.2.44,6,1.61,8.08,0,1,2.56,4.72.28,6.16,2.06.94-1.53,2.75-1.51,4.62-1.37,7.62,4.21,17.58,2.08,25.78,2,3.76.86,5.85,1.88,8.86,0,1.88.93,4.13,0,6.16-.68,1.47-.13.14.56.38,2,2.43.21,4.62-2.08,6.54-.68a22.75,22.75,0,0,1,8.09-1.37c.06-.88,2.35-.88,1.15,0-.68.38-1.6.35-1.92,1.37-2.46.46-3.06,0-5,1.37-7.68,1.65-16.34-.79-22.7.68-6.92-1.08-13.92,1.9-20.79,0-6.7-.6-12.45-.34-20-1.37-2.22-.3-4.48-1.74-6.54-2-1.49-.23-2.81.17-4.24,0-22.14-2.65-44.27-2.43-68.12-5.49.14,2.28,2.22,1.08,3.47,1.37a5.73,5.73,0,0,0,3.84.69,21.66,21.66,0,0,1,1.54,3.43c-1.28,1.79-3.87.06-5-.69a8.94,8.94,0,0,1-5.77.69c-4.92,3.28-10.89-1-16.55-.69q-.36-3.81-3.08-3.43c-.21-1,1.5-1.67.38-2.05-1-1-1.93,2.57-4.23,2.05a15.63,15.63,0,0,1-1.54,2.75c-1.44.73-1.1-1.71-2.31-1.37-5.25,2-10-2.76-14.62-1.38-.87-.38.46-1.06-.39-2.05-3.48.72-6.72-1.54-8.85.68-2.88-2.66-5,.75-6.93-2.74-.36-2.47,1.52-.95,2.31-1.37-1-3.62-5.17-.54-6.93-2,.42,2,1.83,2.22,3.47,2-.49,1.72.19,2.15-.39,2.74-.15,1.65,1.75-.38,1.16,2.06-3.11,1.31-6.32-2.83-10.4-2.06-.51-1.14-1.71-1.06-2.31-2-2.22.73-3.93-1.89-5,.68-.22,2.46,2.3,0,1.93,2.74-.84-.12-1.23.57-1.16,2.06-2.89.58-3.52-2.87-5.77-3.43a1.7,1.7,0,0,1,1.92-1.37c-2-2-6.48.59-8.46-1.37a3.93,3.93,0,0,1-4.24,0H488.4c-.44.11-.68-.15-.77-.68H493c1.15,0,1.31-1.79,2.31-2.06,2.59-.46,4.34.92,6.16,0-.27-2.48-2.81-.95-4.24-1.37-.88-.71-2.32-.43-3.07-1.37h-5.39c-1.09-.35-1.64-1.66-2.7-2-1.52.47-4.26-1.2-4.61,1.36-1.22.34-.88-2.1-2.31-1.36-1.34-.55-1.48,1-2.7.68-7.34,0-18.93-3.88-25,2.06-8.38-1.54-16.63-3.31-25.41-4.12-1,.12-.93-1.53-1.54-2.05-3.72-1.11-7.91-.16-13.08-.69-4.41-.44-8.88,0-13.47,0-7.2,0-14-1.45-20-1.37.12-1.8-1.49-.54-1.15-2.74-.73,1.54-1.89-2.36-3.08,0-.13,4,2.13-.46,1.92,3.43-.35-.42-1.41-1.6-1.15.68-.9-.89-.86.35-1.54-1.37-2.35.15-2.81.6-4.62-.68-3.53,1.89-7.94-1.49-11.54.68-5,0-8.27-2.58-11.94,0a6.61,6.61,0,0,0-3.07-1.37c-17.56,1.18-35.24,2.15-52.35,4.11-1.11,1-2.89,1.25-2.69,2.75,2.08,1.62,5.93.51,7.7-.69,7.46,1,14.55-1.35,21.17,0,2.1.43,6,.2,8.85,2-1.47,1.5-2.63,3.55-5.39,2.74.05,1.52,1.63.3,2.31.69-1.45,2.24-.65,5.77,1.15,6.85.07,1.49-1.36.31-1.92.69.13,1.66,2.91-.32,1.54,2.06a30,30,0,0,1,5.77.68c1.24-.71,1.68-.1,2.69-2.06-1.09-1.47-3.21-1.12-4.23-2.74.66-1.56,2.94-.25,4.23-.68,1.81,1.12,3,3.43,4.62,4.8h1.16c1.34-.84.38-2.58,1.54-2.75a6.34,6.34,0,0,0-3.08-3.42c2.63-1.84,5.42.39,8.08-.69a25.53,25.53,0,0,0,3.46,2.74c-1.51,2.1-4.73,1.17-7.31,1.37-1,.91,1,2.26.77,4.12,3.48-1.23,7.16,1.9,8.47-3.43,1.49.08,1.94,2,2.69,3.43h12.32c.74-.29,1.39.47.77.68h-1.92c-2.09,1.32-5.41.43-8.09.69-1.53,1-3.48.63-4.23,1.37-11.66-1.34-25.46,1.64-36.18-2.74.66-1.34,2-1.48,3.46-1.37,1.12-.14,1-1.07,2.7-1.38-.24-2.32-2.46-1.09-2.31-4.11,1.8.18.54-.81,1.15-2.74,0-1-2.28-1-.38-1.37-.66-1.57-2.94-.25-4.23-.69-3.52-1-9.21-1.18-12.71,0h-3.84c-1.09-.56-1,1-1.93.69-4.81,0-9.83-.27-13.85.69-4.8,1.13-9.22-2.21-13.86-2.06-1,.11-1.19-1.08-1.92-1.37-3,.57-6.82-.12-9.62.69-1.52.43-3.06,1-3.85,2.74-10.09,0-17.2,1.83-25.41.68A1.71,1.71,0,0,1,225.53,83c-4.47,2.53-8.78-.62-14.24,0-.84-1.42.34-2.21-.38-3.43-3.17-1-6.17,1.09-8.85,1.38-1.5.15-3-.77-4.62-.69-8.66.42-17.86-.37-26.94,0-12.82-.23-25.46,1-34.64,1.37-.88-.49-2-.61-2.69-1.37-4.78.44-7-1.51-10.4.69-2-1.73-6.12.39-8.08-1.38-4,.81-9.49,1.84-13.85,0-.81,1.09-2.56.48-3.47,1.38-.15-.87-1.81.45-2.31-1.38-.81,2.25-2,.57-3.46.69a19.81,19.81,0,0,1-4.62,0c-.93-.11-2.12.8-3.08.69-4.92-.61-11.55,2.36-18.09.68-.5.7-1.42.67-1.92,1.37-11.2.87-18.68-4.13-28.1-4.79-.17-3.59-2.94-2.53-2.69-6.86H31.17c.48-1.22,2.24-.14,1.54-3.43,2.3,0,3.35-2.25,5-3.42,5.1-.77,8.77-1.9,13.85-2.06,1.09.13.9-2.58,1.93-.68.45-1.7,1.39-2.54,3.08-2.06-.34-2.63-.9-1.66-2.31-1.37-1.63.52-4.56-1.26-5,1.37-.55-.48.27-.89-.38-1.37s-1.67.27-2.69,0c1-1.75-.53-1.36-1.55-1.37,0-1.87.65-1.38,0-2.74H41.57c1.08-2.45,3.2-1.3,5-1.37,4.56-.18,10.22.17,13.47-2.74-.09-.88-1.15-.9-1.16,0-1.13-1.41,1.65-1.59,2.7-1.37-1-2-2.84.39-4.23,0,.67-2.46,3.76-.61,5-2.06-1,2.26.77,1,1.54.69-.24.61-.47,1.22,0,1.37,1.52.11-.12-1.05.77-2.06,1.17.5,1.4-.7,2.31-.68,1.68-.5-.31,1.36.77,1.37,3.52-.73,7-1.06,11.54-2.06.07-1.12-2.37-1.12-2.31,0-1.18.51-.74-1.88-1.92-1.37-1.13-.18-1.18,1.55-2.31,1.37-.68-.38-1.6-.35-1.92-1.37-.84-.44-1.23,1.94-1.16-.69-2.15,2.63-4.44-.29-6.54.69.75-1.62,2.55-1.39,4.23-1.37,0,.67-.47.53-.77.68.35,1.86,1.35-.69,1.93-.68-2.48-1.84-5.78.24-8.09-.69.2-2.38,2.52-1,3.85-1.37,1.57-1.09,3.88-.87,5-2.74,1.21-.33,1.36,1.24,2.69.69,1.25.84.3-2.22,1.54-1.37.28,1.22.7.1,1.15,0-2.18-1.83-5.17-.1-6.54-2.06-.68,1.08-2.46.19-2.69,2.06-1,.09-1.86.1-2.31-.69-.64,1.15-2.26.55-3.47.69-.7-.54.24-.74.77-.69H62c1,.32,2.18-2.42,2.7-.68a3.53,3.53,0,0,1,1.54-2.74c4.54,0,7.31-.11,11.54-1.38-.15-1.54-2.4.11-1.15-2-.45.11-.68-.15-.77-.69-.61-.05-1.47.33-1.54-.68C64.85,30.34,55,28.9,47,30.88,44.52,30,42.84,31,40,30.2c6.1-.56,11.41-2.53,17.7-2.75.6-.24-.34-1.2.38-1.37,1.89.36,4.16.29,6.16.69C65.45,25.89,67,25.7,67.74,24h4.62c.15-1.64-1.76.38-1.16-2.06,2.64-1.88,4.29-.93,7.31-.68-.12-2.3-1.74-1.93-3.07-2.06-1.19-1.29,2.22-.08,2.3-1.37,0,1.05,1.82-.34,2.31-.69C80,15,78.79,14.86,77.36,15.12c.06-.81.7-.58,1.15-.69,1.31-.73-1.07-.21-.38-2,2.46,1.41,5.94,3.36,8.08,0-1.66-1.61-4.16-1.74-6.54-2.06.67-2.22,3.76-1.45,5-.68A4.92,4.92,0,0,1,88.52,11c2.2-.5,3.44.73,5.39.68C90.85,8.78,87.83,10,84.67,7.58c0-2,2.85,1,2.31-2.06.8-.29,1,.48,1.54.69,2.1-4.17,5.77-2.35,9.24-1.37.44.12.73-.7.77-.69.41.12.9,1.25,1.15,1.37a36.36,36.36,0,0,0,9.62,2.74c-1.07-.83-2.22-1.51-2.69-3.42,1.7-1.86,3.27,2.38,5.77,1.37-.21,1.52.74,1,.77,2.05.73.31,2.32-.93,1.93,1.38A1.54,1.54,0,0,1,116.62,9c0,.67-.48.53-.77.69,1.34,2.63,4.85,1.4,6.92,2.74-.06.8-.7.57-1.15.68,1.61,3.78,6.83.68,10,2.74.33.13.37-.26.39-.68a.36.36,0,0,1,0,.68c5.64,2.37,11.83,1.64,19.24.69,1.75.76,3.48,1.26,5,.68.53,1.33,2,1,2.69,2.06ZM92,13.75c-.23,0-.45-.1-.38-.69,2.2.07.25-.84-.39-1.37C90.89,13.09,91.55,16,92,13.75Zm1.16.68c-.11-.19-.58.33-.39.69C92.86,15.31,93.34,14.79,93.14,14.43Zm-.77.69c-.11-.19-.58.33-.39.68C92.09,16,92.57,15.47,92.37,15.12Zm8.08,1.37c-2.45,2-4.07-2.92-5.39,0,1.28.23,1.71,2,3.47,1.37-.6,2.44,1.3.41,1.15,2.05.69-.87,3.74-1.06,2.7-2.74C102.08,17.53,99.22,18.19,100.45,16.49ZM80.82,15.8c-.1-.19-.58.33-.38.69C80.54,16.68,81,16.16,80.82,15.8Zm3.85,6.85c.66,0,1-.52,1.16-1.36C85.22,21.35,84.49,21.19,84.67,22.65Zm1.16.69c.6,1.47,3.23.79,3.46-.69-.79.61-1.46-2.25-.77-2,1.41,1.37,4.8-.77,5,2.74a3.73,3.73,0,0,0,2.31-2.05c-2.11-.64,1-1.26,1.16-2.06-1.74-.42-2.28-.44-3.47-2.74-3.74-1.13-6.1,2.9-9.23.68-1.63.63-2.2-.41-3.08,2.06C83.77,18.55,86.47,19.11,85.83,23.34Zm18.47-6.17c-2-.74-.45,2.09,0,0ZM107,20.6c1.15,0,1.62-1.23,1.93-2.74-1.32,1.18-2.91-1.21-4.24.69C106.39,17.57,105.69,20.86,107,20.6Zm-25.78,0c-.11-.19-.59.33-.39.69C80.93,21.48,81.41,21,81.21,20.6ZM266.72,22c1.56.65,4,1.49,4.61-1.37C269.67,20.83,267.3,19.82,266.72,22ZM84.67,24H83.52c-.3.15-.76,0-.77.68C83.31,24.34,84.74,25.51,84.67,24Zm93.91,3.42c-.3.16-.76,0-.77.69C178.11,28,178.57,28.12,178.58,27.45ZM52.73,29.51c1,0,3.42-.69,2.69-1.37C54,29.1,53.36,27.16,52.73,29.51Zm5-1.37c-.3.15-.76,0-.77.68C57.26,28.67,57.72,28.8,57.73,28.14Zm20.4,0c-.3.15-.76,0-.77.68C77.66,28.67,78.12,28.8,78.13,28.14Zm1.92.68c-1.84-1.9-.93,2.25,0,0Zm1.16,0c-.3.16-.76,0-.77.69C80.74,29.36,81.2,29.49,81.21,28.82Zm2.31,0H82.36C80.12,28.82,83.62,30.67,83.52,28.82Zm98.91,2.06c-1.84-1.91-.93,2.25,0,0Zm152.41,0c-.11-.19-.59.33-.39.68C334.56,31.75,335,31.23,334.84,30.88Zm1.92,0c-.45.11-1.09-.12-1.15.68C336.06,31.46,336.7,31.68,336.76,30.88Zm36.57,0c-.94,1.11,2.4,2.07.77,0,0,0,0,.68,0,.68C373.91,31.55,373.39,30.8,373.33,30.88ZM319.06,35c-.11-.19-.58.33-.39.69C318.78,35.87,319.26,35.35,319.06,35Zm271.72,0c-.11-.19-.59.33-.39.69C590.5,35.87,591,35.35,590.78,35Zm.77,0c-.11-.19-.59.33-.39.69C591.27,35.87,591.75,35.35,591.55,35Zm146.64,2.74c-.46.11-1.1-.12-1.16.69C737.48,38.31,738.12,38.54,738.19,37.73Zm-668.14.69c-.11-.19-.59.33-.39.68C69.77,39.29,70.25,38.77,70.05,38.42Zm239.39.68c-.3.16-.76,0-.77.69C309,39.63,309.43,39.77,309.44,39.1Zm1.54,0c-.11-.19-.59.33-.39.69C310.7,40,311.18,39.46,311,39.1Zm-19.25,1.37c-.3.16-.76,0-.77.69C291.26,41,291.72,41.14,291.73,40.47Zm.77,0c-.1-.19-.58.33-.38.69C292.22,41.35,292.7,40.83,292.5,40.47Zm16.94,0c-.11-.19-.59.33-.39.69C309.16,41.35,309.64,40.83,309.44,40.47Zm1.15,0c-.3.16-.76,0-.77.69C310.12,41,310.58,41.14,310.59,40.47Zm1.16,0c-.3.16-.76,0-.77.69C311.27,41,311.74,41.14,311.75,40.47Zm24.63,0c-.11-.19-.59.33-.39.69C336.1,41.35,336.58,40.83,336.38,40.47Zm40.41.69c.11,1.56-.09,2.58-.77,2.74-2.25-2.71-4.64-.2-6.16,2.06,2.34,1,4.68,2,7.31.68,1.16,1.33,3.6,2.12,4.62,0-.89-1-.58-1.67-.38-3.43-.56-.37-2,.8-1.93-.68,1.09-.69-1.22-.65,0-2.06C378.15,39.93,378,41.49,376.79,41.16Zm-35.79,0c-.46.11-1.1-.12-1.16.68C340.3,41.74,340.93,42,341,41.16Zm6.92,2.05h2.7c.56,0,3.15.26,1.92-.68-2,.07-1.31-.31-.38-1.37-2.19.45-5.38-.9-6.93.68C346.64,41.39,346.71,43.33,347.92,43.21Zm5.78-1.37c0,.69-.31.82-.39,1.37.76.21.77-.92,1.16-1.37,0,2.07,3.14,2.13,2.69-.68-1.42.44-3.83-.89-4.62.68Zm21.55-.68h-1.54c-.45.11-1.09-.12-1.15.68C373.35,41.43,375.09,42.69,375.25,41.16Zm-304.82.68c-.11-.18-.58.33-.38.69C70.15,42.72,70.63,42.2,70.43,41.84Zm253.25,2.75c1.33-.14,3,.24,3.08-2.06-2-1.4-5.62,1.5-6.93,1.37C320.56,45.12,322.37,44.4,323.68,44.59Zm9.23-2.75c-2-.74-.45,2.09,0,0Zm3.85,0c-.1-.18-.58.33-.38.69C336.48,42.72,337,42.2,336.76,41.84Zm398.73,3.43C737.07,45.2,737,48,739,47.33c.1-2.91-2.4-1.21-2.3-4.12-1.54.22-1.94-1.58-3.47-1.37C733.28,44.18,734.91,43.78,735.49,45.27ZM79.28,43.21c-.49,0-.53-.87-1.15-.68C77.53,44.22,79.44,44.54,79.28,43.21ZM80.44,46c-.17-1.3.52-4.13-.77-3.43C80.24,44.54,79.23,45.07,80.44,46Zm1.15-3.43c-.3.15-.76,0-.77.68C81.12,43.06,81.58,43.2,81.59,42.53Zm210.91.68c-3.77,1.68-5.29-2-7.69.69a.37.37,0,0,1,0,.69c-.1-1.2-1.44,1-1.93,1.37.29,1.09,1.89-.16,1.54,2,3.21-.44,5.51-2.52,9.24-2C294,43.75,292.39,45,292.5,43.21Zm-8.85,0c.09.54,0,1.36.39,1.38C284,44.05,284,43.23,283.65,43.21Zm13.09-.68c.2,1.35-2.27,1.82-.39,2.06,1.3-.44,3.58.88,4.23-.69-.68-.33.17-.73.39-1.37C299.29,42,297.4,43.38,296.74,42.53Zm-1.16,0c.09.53.32.8.77.68C296.27,42.68,296,42.42,295.58,42.53ZM312.9,43.9h.77V42.53h-.77Zm45.42-1.37c-.11-.19-.59.33-.39.68C358,43.4,358.52,42.88,358.32,42.53Zm1.15,0c-.11-.19-.58.33-.39.68C359.19,43.4,359.67,42.88,359.47,42.53Zm-286.73.68c-.3.16-.76,0-.77.69C72.27,43.75,72.73,43.88,72.74,43.21ZM267.1,50.75c.91,1.58,3.46.25,5,.69.76-3.95,3.87-2.35,5.39-3.43.93-.28.84,1.25,1.93.69,1.06-.4,1.6-1.71,2.69-2.06.05-3.06-1.86-2.63-3.08-3.43-1,.67-1.49,2.37-2.69,2.75-1.13-2.8-4.87-2.46-6.55-.69a2.49,2.49,0,0,1,2.31,1.37c-1.57-.07-3.15-.13-4.23.69-1.57-1.35-3-.79-4.23-1.37-.87,1.2-2.9.32-3.85,1.37-.73.3-2.32-.94-1.93,1.37,3.57,1,7-.73,9.63.68C267.19,49.53,267,50,267.1,50.75Zm45-7.54c-.11-.19-.58.34-.38.69C311.85,44.09,312.33,43.57,312.13,43.21Zm3.08,0c-.45.11-1.09-.11-1.15.69C314.51,43.79,315.15,44,315.21,43.21Zm2.69,0c-.1-.19-.58.34-.38.69C317.62,44.09,318.1,43.57,317.9,43.21Zm1.16,0c-.11-.19-.58.34-.39.69C318.78,44.09,319.26,43.57,319.06,43.21Zm43.11,0H361c-.3.16-.76,0-.77.69C360.8,43.52,362.23,44.7,362.17,43.21Zm5.38,0c-.1-.19-.58.34-.38.69C367.28,44.09,367.75,43.57,367.55,43.21Zm110.85,0c-.56.38-2-.8-1.93.69C477.05,45,478.05,44.41,478.4,43.21Zm266.33,0c-.11-.19-.59.34-.39.69C744.45,44.09,744.93,43.57,744.73,43.21Zm1.15,2.06c2.37.44,4.42,1.3,6.16-.68C749.92,44.76,746.86,41,745.88,45.27Zm-663.52,0c1.08-1.76-.81-1.82-1.15-.68C80.94,45.47,81.75,46.27,82.36,45.27ZM304.05,43.9c-.45.11-1.09-.12-1.16.69C303.35,44.48,304,44.7,304.05,43.9Zm.77,0c-.11-.19-.58.33-.39.69C304.54,44.78,305,44.25,304.82,43.9Zm107.76,3.43c.95-.1,1.86-.11,2.31.68.62-1.63,2.66-.74,2.7-3.42-1.08-.83-2.66-.76-4.24-.69C412.61,45.6,413.73,46.34,412.58,47.33ZM317.9,44.59c-.1-.19-.58.33-.38.68C317.62,45.46,318.1,44.94,317.9,44.59Zm34.64,0c-.1-.19-.58.33-.38.68C352.27,45.46,352.74,44.94,352.54,44.59ZM405.27,46a34.5,34.5,0,0,0-10.39-.69c-.47.15-.24.76,0,1.37,2.7,0,5.27.21,6.93,2.06,2.32-2.45,6.28,0,8.08-2.06C409.38,44.29,406.39,45.28,405.27,46ZM388,46.64c.39-2.35-2.89-1.63-3.08-.68C385.43,47,386.84,46.56,388,46.64ZM383.72,46c-.11-.19-.59.33-.39.68C383.44,46.83,383.92,46.31,383.72,46Zm.77.68c-.11-.19-.59.33-.39.69C384.21,47.52,384.69,47,384.49,46.64Zm220.53,0c-.3.16-.76,0-.77.69C604.55,47.17,605,47.31,605,46.64ZM379.48,50.75c-8.24-.74-15.8.08-24.63-.68-2.81-.24-5.59-1.52-8.08-1.37a59.65,59.65,0,0,1-15-.69,14.52,14.52,0,0,0-2.7.69c-8.94-3.33-16.26.58-24.63-.69-.76.16-2-.2-2.69,0-1.41.42-.66.4-1.16,1.37-.39,2.3,1.2,1.07,1.93,1.37a2.47,2.47,0,0,0,2.31,1.37c5-1.64,11-1.47,16.16-2.74,1.22-.33,1.51,1,2.31,1.37,1.67-2.23,1.81-.56,3.85,0a12.48,12.48,0,0,1,5.77.69c.93.28.84-1.26,1.93-.69,4.8,1.68,11.76,2.58,16.93,1.37a22.54,22.54,0,0,0,3.85,1.37c2.37-1.06,7.15-1.59,8.08,2.06-.41,1.55-3.37.64-2.31,2.74,3.8,4.67,10.93,3.38,16.94,4.11,1.29,1.36,3.3,1.44,5,2.06,4.69-.71,8,.94,12.7.68a6.62,6.62,0,0,0,2.31-4.79c-1.56.94-1.21-1.49-2.31-1.37s-1.49-1.45-2.31-2.06c-1.76,1.23-4.53-1.53-5.77-2.06-1.74-.51.59,1.89-1.15,1.37-1.09.57-1-1-1.93-.68-.8,1.11-4,2.84-4.23.68,1.22,1.81,2-1.91,1.92-2.74,1.87-.27,5.39.89,5-1.37,1-1.79-3.59.49-3.85-1.37a1.71,1.71,0,0,0,1.54-1.37c-1.13-1-4.67-1.25-5.78,0a13.87,13.87,0,0,1,3.85,2.06C381.13,52.37,380.88,49.41,379.48,50.75Zm355.24-3.42c-.3.15-.76,0-.77.68C734.25,47.86,734.71,48,734.72,47.33ZM66.2,48c-.11-.19-.59.33-.39.69C65.92,48.89,66.4,48.36,66.2,48Zm186.28,0c-.11-.19-.59.33-.39.69C252.2,48.89,252.67,48.36,252.48,48Zm171.26,0h-1.15c-.3.15-.76,0-.77.69C422.38,48.32,423.81,49.5,423.74,48Zm3.47,2.06c2-1.65,4.74,2.09,5.39-2.06-2.43,1.43-4.72-1.13-6.93.69C426.43,48.7,426.16,50.57,427.21,50.07Zm6.93-.69A1.71,1.71,0,0,0,435.68,48C435,48.17,433.75,47.32,434.14,49.38ZM610.79,48c-.1-.19-.58.33-.38.69C610.51,48.89,611,48.37,610.79,48Zm127,1.37c2-.93,3.94,1.63,5,0C741.37,49.23,738.27,47,737.8,49.38ZM292.89,48.7c-.11-.19-.59.33-.39.68C292.61,49.57,293.09,49.05,292.89,48.7Zm1.54,0c-.46.1-1.1-.12-1.16.68C293.73,49.27,294.36,49.5,294.43,48.7Zm3.84,0c-2.46-.8-.84,2.09,0,0Zm-16.16,2c-.38,0-.46-.55-.77-.68-.49,2.65,4.6,1.31,3.47.68-.58-.11-1.43.25-1.54-.68.47.22,2.37-.11,1.15-.69-.8.41-2.53-.85-2.69.69C282,50.11,282.18,50.17,282.11,50.75Zm122-1.37c-.11-.19-.59.33-.39.69C403.84,50.26,404.32,49.74,404.12,49.38Zm1.54.69c.83.49,2.45-.7.77-.69-.79-.58-2.4.6-1.16,1.37C405.29,50.34,405.33,49.94,405.66,50.07Zm16.54-.69c-.45.11-1.09-.12-1.15.69C421.5,50,422.14,50.18,422.2,49.38Zm.78,0c-.11-.19-.59.33-.39.69C422.7,50.26,423.17,49.74,423,49.38ZM65,50.07c-.45.1-1.09-.12-1.15.68C64.34,50.65,65,50.87,65,50.07Zm229.39,0h-1.54c-.45.1-1.1-.12-1.16.68C292.53,50.34,294.26,51.6,294.43,50.07Zm1.15,0c-.1-.19-.58.33-.38.68C295.3,50.94,295.78,50.42,295.58,50.07Zm2.31,0c-2.46-.79-.84,2.09,0,0Zm.77,0c-.11-.19-.58.33-.39.68C298.38,50.94,298.86,50.42,298.66,50.07Zm1.54,0c-.3.15-.76,0-.77.68C299.73,50.6,300.19,50.73,300.2,50.07Zm147.41,0c-.11-.19-.59.33-.39.68C447.33,50.94,447.8,50.42,447.61,50.07Zm-386.42.68c-.29.16-.75,0-.77.69C60.72,51.28,61.18,51.42,61.19,50.75Zm361.4.69h-1.15c-.3.15-.76,0-.77.68C421.22,51.75,422.65,52.92,422.59,51.44Zm6.54.68c-2.45-.94-5-1.3-6.15,1.37,2.4-.63,3.64.83,5.38,1.37,1.45-1.3,4.33-.06,5.78-1.37.8,1.2,2.82,2.25,3.46,0A10.37,10.37,0,0,0,429.13,52.12Zm162,3.43c0-1.1,3.31,1.34,3.85-.69-2-.42-.4-1.35,0-2.74-1.41-.75-2.78.38-4.23.69C591.27,54.52,590.58,55,591.16,55.55ZM117.77,52.12c-.11-.19-.58.34-.38.69C117.49,53,118,52.48,117.77,52.12Zm20.78,0c-.1-.19-.58.34-.38.69C138.27,53,138.75,52.48,138.55,52.12Zm2.31,0c-.32.46.71.64.77.69C142.73,53.79,141.25,51.57,140.86,52.12Zm321.37,2.06c1.59.59,5.38,3,6.54,0C466.86,52.72,464,51.17,462.23,54.18ZM119.69,52.81c-.1-.19-.58.33-.38.68C119.42,53.68,119.89,53.16,119.69,52.81Zm4.24,0c-.11-.19-.59.33-.39.68C123.65,53.68,124.13,53.16,123.93,52.81ZM396,54.18c-.68-.33.17-.73.39-1.37-1.93.44-4.87-.9-6.16.68C392,53.7,394.3,56.32,396,54.18Zm-273.26,0c-.45.11-1.09-.12-1.15.68C122.07,54.76,122.71,55,122.77,54.18Zm3.85,0c-.1-.19-.58.33-.38.68C126.34,55.05,126.82,54.53,126.62,54.18Zm8.85,0c-.1-.19-.58.33-.38.68C135.2,55.05,135.67,54.53,135.47,54.18Zm25,0c-.3.15-.76,0-.77.68C160,54.71,160.48,54.84,160.49,54.18Zm447.61.68c-.12,1.35.52,1.36.77,2.06-.79-.41-2.68,1.11-2.31-1.37h-3.85c-.12,2.8.53-.12,1.54.68-.32,1.94.54,1.78.38,3.43,1.69.22,2.87,0,2.7-1.37.95-.09,1.85-.1,2.31.69.3-2.44,1.8-2.74,2.69-4.12C611.39,53.54,609.11,54.21,608.1,54.86Zm-489.56,0c-.3.16-.76,0-.77.69C118.07,55.4,118.53,55.53,118.54,54.86Zm-72.35.69c-.11-.19-.59.33-.39.68C45.91,56.42,46.38,55.9,46.19,55.55Zm408.34,0c-2.46-.79-.84,2.09,0,0Zm.39,1.37c1.6.35,3.1,1.15,4.62,0C458.81,55.68,455.46,54.24,454.92,56.92Zm147.41-1.37c-.11-.19-.59.33-.39.68C602.05,56.42,602.52,55.9,602.33,55.55Zm-6.16,2.05c1.66,1.74,4.34.2,5.39-1.37C599.82,56.79,596.71,54.91,596.17,57.6Zm-538.44.69c-.3.15-.76,0-.77.69C57.26,58.82,57.72,59,57.73,58.29Zm303.28,0c-.11-.19-.58.33-.38.69C360.73,59.17,361.21,58.65,361,58.29ZM59.27,59c-.3.15-.76,0-.77.68C58.8,59.51,59.26,59.64,59.27,59Zm-2.69,1.37c-.46.1-1.1-.12-1.16.68C55.87,60.92,56.51,61.15,56.58,60.35Zm426.05,0c-.56,0-3.15-.26-1.92.68.45.11,1.09-.11,1.15.69-1-.2-1.65.25-1.54,2.05,1.84-.25,2.79,1.48,3.85-.68C484,61.51,482.48,62.43,482.63,60.35ZM478,61c.07,1.95-2.52-.82-1.92,2.06,1.24-.3,3.33.9,3.46-1.37A1.55,1.55,0,0,1,478,61Zm26.56.69c-.87-1.28-4.1-.94-5,0H496.1c-.91.21-.72,2.38-1.92,2.05-.94-.57-2.5-1.06-2.7,1.37,2.72,0,2.86-.36,5-1.37,2.68-.3,3,1,4.61,0-.56,2.61,1.72.14,1.16,2.74,1.18.51.74-1.88,1.92-1.37,1.68,0,3.48.26,4.24-1.37C508.38,61,505.87,60.07,504.57,61.72ZM520,61c-.45.11-1.09-.11-1.15.69C519.26,61.61,519.9,61.84,520,61Zm2.31.69c2,1.87,1.44-2.39,0,0Zm107,1.37c.23,0,.45.1.38.68-2.94-.32-5.78-2.64-8.85-.68.08-.86.6-1.4-.38-1.37H615.8c-.5,0-.54-.88-1.16-.69h-5.77c-1.54,1.76-3.44-1.26-3.85,2.06.68.38,1.6.35,1.92,1.37-1.47,1.69-5.12-1.66-6.92.68,3,1,3.29,1.28,6.15.69,4.39,2,10.68,2.16,15.4,1.37.61.06.3,1.75,1.15,1.37a18.75,18.75,0,0,0,4.62-1.37c.45-1.56-.2-2,1.16-2.74.91.47,3.44,1.58,4.23,0-1.47-1.19,1.5.05,1.15-1.37C632.89,60.39,629.79,63,629.27,63.09Zm112-1.37c-.27-.54-2.15-1.53-2.32,0C739.63,61.53,740.87,63.65,741.27,61.72ZM132.78,63.77h.77V62.4h-.77ZM638.89,62.4c-.11-.19-.59.33-.39.69C638.61,63.28,639.09,62.76,638.89,62.4Zm.77,0c-.11-.19-.59.33-.39.69C639.38,63.28,639.86,62.76,639.66,62.4Zm-514.58.69c-.45.1-1.09-.12-1.15.68C124.38,63.67,125,63.89,125.08,63.09Zm510.73.68c1.9.38-.4.36-.39,1.37.74,1.29,1,.08,1.93,0,.56,0,3.15.26,1.92-.68-.57-.12-1.42.24-1.54-.69a.36.36,0,0,0,0-.68C637.92,64.81,636,61.44,635.81,63.77Zm-68.51,0c-.64,1.59-3.45-.65-3.08,2.74,1.83-.39,3.55-1,5.78-.68C570,63.49,568.57,63.8,567.3,63.77Zm32.33.69c-.11-.19-.58.33-.38.68C599.35,65.33,599.83,64.81,599.63,64.46Zm-469.93.68c-.1-.19-.58.33-.38.69C129.42,66,129.9,65.5,129.7,65.14Zm232.85,1.37c2-.06,1.31.31.38,1.37a12.53,12.53,0,0,1,5.78.69c1.58-1.42,2.32-.08,3.08-2.74C368.43,66,365.68,65,362.55,66.51Zm136.63-1.37c-2.47-.79-.85,2.1,0,0Zm97,0c-.11-.19-.59.33-.39.69C595.89,66,596.37,65.5,596.17,65.14Zm2.31,0c-.11-.19-.59.33-.39.69C598.2,66,598.68,65.5,598.48,65.14Zm-218.23,4.8c-.54,0-1.47.15-.77.68,1.18-1.32,3.08-1.37,3.85-3.42-3.15-.25-8.17-3.19-10.77,0C374.31,69.56,378.11,68.27,380.25,69.94Zm256.33-3.43c-2.47-.79-.85,2.1,0,0Zm-274,.69c-.11-.19-.58.33-.38.68C362.27,68.07,362.75,67.55,362.55,67.2Zm369.09,6.85c-1.1-.13-2.1-.08-1.92,2.06,2.09,1,1.87-2.15,3.46-2.06-.12,1.62-1.33,1.28-1.15,3.43,2,.79,3.82-1.43,5,0,.12-1.35-.52-1.36-.77-2.06,1.34-.55,1.48,1,2.69.69-1.45-3.92,2.84-.59,3.08-3.43-4-.94-7.65-2.36-11.93-2.74.6-1.68-1.31-2-1.15-.68C729.34,71.75,731.67,70.81,731.64,74.05Zm8.08-4.79c-.29.15-.76,0-.77.68C739.25,69.79,739.71,69.92,739.72,69.26Zm-362.16.68c-.11-.19-.58.33-.39.68C377.28,70.81,377.76,70.3,377.56,69.94Zm348.31,0c-.11-.19-.59.33-.38.68C725.59,70.81,726.07,70.3,725.87,69.94Zm-595.78.68c-.11-.19-.59.34-.39.69C129.81,71.5,130.29,71,130.09,70.62Zm1.92,0c-.11-.19-.58.34-.39.69C131.73,71.5,132.21,71,132,70.62Zm250.17,0c-.11-.18-.59.34-.39.69C381.9,71.5,382.38,71,382.18,70.62Zm179.35,2.06c-2.23-.63-5.63.37-7.7,2.06-2.79.48-4.43-1.88-6.54.68.64,1.15,2.26.55,3.46.69,1,.42,1,2.86,2.31,2.74.73-.3,1-1.48,1.93-1.37,1.41-.51,2.13,1.68,3.07,0,.61.52.58,2.17,1.54,2a5.77,5.77,0,0,1,3.85-.68c.15-1.18-.57-1.76,0-2.06.76-.93,2.2-.65,3.08-1.37-.35-4.36,3-1.54,2.7-4.11C566.32,69.75,563.81,71.27,561.53,72.68Zm184-1.37c-.11-.19-.59.33-.39.69C745.22,72.19,745.7,71.67,745.5,71.31Zm-.39,1.37c-1.17.5-1.13-1.18-2.31-.68C742.09,75.19,745.25,74.47,745.11,72.68Zm-174,1.37c.8-.41,2.53.85,2.69-.68C573.33,72.43,571.16,72.06,571.15,74.05ZM534.2,75.42c.24,0,.46.1.39.69-2.75.4-4.25-1.21-6.16.68,2.4.43,6.24,3.17,7.7-.68C535.63,74.48,534.53,74.74,534.2,75.42Zm4.24,2.75c1.55,1.53,4.1-.23,4.62-2.75C541.68,74.68,537.78,73.23,538.44,78.17Zm7.31-3.43c-.11-.19-.59.33-.39.68C545.47,75.61,546,75.09,545.75,74.74Zm36.18.68c-.11-.19-.59.33-.39.69C581.65,76.3,582.13,75.78,581.93,75.42Zm-35.8,2.06c-2.46-.79-.84,2.09,0,0Zm195.52,0c-.64.08-3.49-.38-2.31.69a5.18,5.18,0,0,1,3.85,1.36c-1.55.44-4.09-.89-5,.69,3.59.59,7.39,2.11,10.39-1.37A13.53,13.53,0,0,1,741.65,77.48Zm-14.24.69c-.11-.19-.59.32-.39.68C727.13,79,727.61,78.52,727.41,78.17Zm6.54,0c.12,1.81-2.16-.65-1.54,2,1.84-1.56,4,1.59,5-1.37A4.94,4.94,0,0,0,734,78.17Zm-200.52,2c.62-1.91-1.66-1.89-1.54-.69C532.41,79.75,532.63,80.51,533.43,80.22Zm1.93-.69c-2.47-.79-.85,2.1,0,0Zm42.33,1.38c0,.83.12,1.62.77,1.36,1.21,1.44,3.53-1,4.62-2C580.79,80.85,579.27,80.16,577.69,80.91Zm170.89-.69c-.11-.19-.59.33-.39.69C748.3,81.1,748.78,80.57,748.58,80.22Zm-244.4,1.37c-.47.08-.91.21-.77,1.37.09.54.32.8.77.69A6.41,6.41,0,0,1,509.57,85c2.57-1.83,5.85,2,8.08-1.37C512.71,82.25,508.63,83.28,504.18,81.59Zm65.05,0c-.3.15-.76,0-.77.68C568.76,82.12,569.22,82.26,569.23,81.59Zm43.49,2.06c.09-2.94-3.71-2.5-4.62-1.38C609.66,82.69,610.51,84.38,612.72,83.65ZM742.8,82.27c-.1-.18-.58.34-.38.69C742.52,83.15,743,82.63,742.8,82.27Zm1.16,0c-.11-.18-.59.34-.39.69C743.68,83.15,744.16,82.63,744,82.27ZM615.41,83c-.1-.19-.58.33-.38.69C615.13,83.84,615.61,83.31,615.41,83Zm.77,0c-.11-.19-.58.33-.38.69C615.9,83.84,616.38,83.31,616.18,83Zm15,1.37c.47.08.91.21.77,1.37,1.33.56,1.63-1.28,2.31,0C634.32,81.51,632.53,83.38,631.19,84.33Zm7.7-.68c-.21,3.43,2.48,1.12,3.08,0A2.3,2.3,0,0,0,638.89,83.65ZM567.3,85c-.1-.19-.58.33-.38.68C567,85.89,567.5,85.37,567.3,85Zm3.47,0h-1.16c-.3.15-.76,0-.77.68C569.4,85.33,570.83,86.5,570.77,85Zm82.74,0c-.3.15-.76,0-.77.68C653,85.55,653.5,85.68,653.51,85Zm1.16,2c.45-1.3,1.89.94,2.69-.68-1.13.14-2.55-2.71-3.46-.69C654.41,85.71,654.25,86.9,654.67,87.07Zm24.24-.68c-.1-.19-.58.33-.38.68C678.64,87.26,679.11,86.74,678.91,86.39Zm.77,0c-.1-.19-.58.33-.38.68C679.41,87.26,679.88,86.74,679.68,86.39Zm0,1.37c-.1-.19-.58.33-.38.68C679.41,88.63,679.88,88.11,679.68,87.76ZM610,89.13c-.1-.19-.58.33-.38.68C609.74,90,610.22,89.48,610,89.13Zm-43.87.68c-2.47-.79-.85,2.1,0,0Zm.77,0c-.11-.18-.59.33-.39.69C566.64,90.69,567.12,90.17,566.92,89.81Zm5.77.69c-1.23-.14-3.59-1.79-4.62,0C569.07,91.05,571.8,92,572.69,90.5Zm45-.69c-.11-.18-.59.33-.39.69C617.44,90.69,617.92,90.17,617.72,89.81Zm7.7,0c-.11-.18-.59.33-.39.69C625.14,90.69,625.62,90.17,625.42,89.81Zm2.69.69c-.09-1-.63-.1-.77.68,1.59-.08,2.41,1.19,4.23.69C631.72,89.09,629.18,91.11,628.11,90.5Zm-1.92,0c-.11-.19-.59.33-.39.68C625.91,91.37,626.39,90.85,626.19,90.5Z"/><path class="cls-1" d="M586.55,4.84c-.81-1.69,1.37.5,2.3,0C589.85,6.2,587,5.27,586.55,4.84Z"/><path class="cls-1" d="M337.15,14.43c2,.43-.9,1.36-.77,2.74-1.18-.49-1.4.7-2.31.69-.39.67-.78,1.35-1.16,2.05-5.14,1.17-8.32-2.24-14.24-1.36.57-2.2,2.43-2.08,3.47-3.43,4,.51,7.27-1.41,9.62,1.37,1,.1,1.19-1.08,1.92-1.37C334.56,15.57,336.91,16.89,337.15,14.43Z"/><path class="cls-1" d="M172.81,15.12c.54.24,0,1.21-.39,1.37.79,1.56,3.33,0,4.24,1.37-1.46,2.1-3.36-.85-5.39,0C171.39,16.25,172.46,16.33,172.81,15.12Z"/><path class="cls-1" d="M34.25,22c.68-2,2,.4,3.08,0C36.72,23.89,35.6,21,34.25,22Z"/><path class="cls-1" d="M185.89,26.77c-.06-.05-1.09-.23-.77-.69S187,27.74,185.89,26.77Z"/><path class="cls-1" d="M409.5,29.51c2.19-3.64,9,.89,11.17-2.74,6.69,2.54,14.53.71,23.09.68,8.37,0,17.42,1.15,26.17,1.37-1.56,1.8-4.56,1-6.54,2.06-.07.58.15.65.38.68-.17,1-.34-.07-.77,0-.91-.89-2.66-.29-3.46-1.36-9.05,2.26-19.91-1.86-28.87,1.36-1.38.18-1.41-2-2.69-2-2.19,1.48-3.78.24-5.78,1.37-3.77.57-7.71-1.19-10,.68A2.3,2.3,0,0,0,409.5,29.51Z"/><path class="cls-1" d="M36.56,29.51c-1.42-2.53.78.15.77,0C37.41,30.82,36.6,29.57,36.56,29.51Z"/><path class="cls-1" d="M554.6,31.56c.32-1.29,2.86,1.35,3.85-1.36,3.34,1.07,7.2-.42,10.39,2.05a1.74,1.74,0,0,1,1.93-.69h1.92c.95-.08.65.84,0,.69h-1.92c-.63-.19-.67.65-1.16.69-1.87.68-3.68-1.18-4.62,0-1.31.46,1.7,2.27.39,2.74-1.47.55-1.18-2-2.31-2.06.09-.75.76-.46.77-1.37C560.85,31.86,557,33.08,554.6,31.56Z"/><path class="cls-1" d="M506.49,35c.47-1,.15-.06,0,.69-.8-.41-2.53.84-2.69-.69Z"/><path class="cls-1" d="M63.12,39.1c-1-1.69-1.89.67-3.47,0C60.32,38.7,63.05,36.18,63.12,39.1Z"/><path class="cls-1" d="M42,50.75c.52-1.58,1.69-2,2.31-3.42,1-.2,1.66.25,1.54,2.05.56-1.06,2-.6,3.08-.68-.42.9-2.49,2.35-3.08.68-.69-.19-.79.65-.39.69A2.57,2.57,0,0,1,42,50.75Z"/><path class="cls-1" d="M374.1,54.18c-1.37-1.37,2.45,1.44,2.69-.69.34.43.69.83.77,0,1,1.12,2.29,1.87,2.69,4.11-3.8-.19-6.27-.54-8.46.69,0-2.91,3.43.17,3.46-2.74C375.16,54.56,374.1,55.31,374.1,54.18Z"/><path class="cls-1" d="M613.49,74.05c-1.24-.77.36-2,1.15-1.37H617c3.35,1.53,7.39.16,10,0,.64.91,2.45-.25,2.31,2.06-1.42-1.11-2.79-1.69-4.24,0-3.55-1.94-7.85.76-10.77-1.37C613.81,73.26,613.57,73.52,613.49,74.05Z"/><path class="cls-1" d="M640.81,74.74c.48-.49.85-.72.39,0S640.29,75.28,640.81,74.74Z"/><path class="cls-1" d="M734,87.76c.36,1.27-2.2.42-.77,1.37a50.73,50.73,0,0,1-10.77,1.37c-1-1.35-2.17-2.55-4.24-2.06.8-3.62,4.29,1.4,5.77-1.37,1-.09.66.84,0,.69,1.07,1.41,2.89-1.69,4.24-2.06,1.78,1.24,2.41,1.1,4.62.69C733,87.23,733.29,87.8,734,87.76Zm-5.39-.69c-.1-.19-.58.33-.38.69C728.28,88,728.76,87.43,728.56,87.07Zm3.85.69c-.1-.19-.58.33-.38.68C732.13,88.63,732.61,88.11,732.41,87.76Z"/><path class="cls-1" d="M738.19,87.07c-.25.7-.89.71-.77,2.06h-1.93c-1.22-.58.68-.91,1.16-.69-.07-.8-.71-.57-1.16-.68-1.47-1.18,1.5,0,1.16-1.37.37,0,.29.84.38,1.37A1.42,1.42,0,0,1,738.19,87.07Z"/><path class="cls-1" d="M743.57,87.07c.47-1,.15-.06,0,.69-1-.43-3.05.87-3.46-.69Z"/><path class="cls-1" d="M745.88,92.56a3.42,3.42,0,0,1-1.15,1.37C743.76,93.63,745.37,92.45,745.88,92.56Z"/><path class="cls-1" d="M526.12,93.93c.46-1,.15-.06,0,.68C524.33,95.1,524.33,93.44,526.12,93.93Z"/><path class="cls-1" d="M613.49,94.61c.09-1.76.66.94,1.54,0C615,96.31,613.72,94.81,613.49,94.61Z"/><path class="cls-1" d="M124.31,95.3c-1.48-1.53,1,.3.77.68C124.69,96.55,124.39,95.38,124.31,95.3Z"/><path class="cls-1" d="M595.78,96c-1.27.08.43-3,.39-.68h2.31c-.12.93-1,.57-1.54.68S595.94,94.81,595.78,96Z"/><path class="cls-1" d="M77.74,98c-.09.74-.76.46-.77,1.37C74.11,99.56,76.66,98.35,77.74,98Z"/><path class="cls-1" d="M67.35,98.72c2.44,1.55-2.93,1.83,0,0Z"/><path class="cls-1" d="M139.32,130.25c1.17-1.87-1,2.08,0,0Z"/><path class="cls-1" d="M115.08,143.27c-.54-.83,0-.27.38,0C115.73,146.46,114.8,146.46,115.08,143.27Z"/></g></g></svg>