<svg xmlns="http://www.w3.org/2000/svg" viewBox="0 0 746.97 107.1"><defs><style>.cls-1{fill-rule:evenodd;}</style></defs><g id="Слой_2" data-name="Слой 2"><g id="Layer_1" data-name="Layer 1"><path class="cls-1" d="M52.18.34a38.92,38.92,0,0,1-8.83.81C45.59-.18,49.08-.22,52.18.34Z"/><path class="cls-1" d="M56.19,1.55c0-.39.49-.31.8-.4C57,1.54,56.5,1.46,56.19,1.55Z"/><path class="cls-1" d="M61,2.35c-.21-.21.29-.51.4-.4S61.12,2.46,61,2.35Z"/><path class="cls-1" d="M55.79,2.75c1.49-.28,1.72.69,3.21.4C58.34,4,56.13,4.17,55.79,2.75Z"/><path class="cls-1" d="M61.41,3.15c1.28-1.41,2.15.83,0,0Z"/><path class="cls-1" d="M65.82,5.56c-1.57.53-4.08,1-5.62.4C60.53,3.85,64,5.64,65.82,5.56Z"/><path class="cls-1" d="M289.38,7.57c-1.06-.55-1.52-1.69-2.81-2C287.69,3.43,289.06,6.4,289.38,7.57Z"/><path class="cls-1" d="M61.41,8c-.21-.21.29-.51.4-.4S61.52,8.08,61.41,8Z"/><path class="cls-1" d="M661.44,14.39c-.21-.21.28-.51.4-.4S661.55,14.5,661.44,14.39Z"/><path class="cls-1" d="M87.9,15.19c-.21-.2.29-.51.4-.4S88,15.3,87.9,15.19Z"/><path class="cls-1" d="M90.71,14.79c-.88,1.23-2.57-.46,0,0Z"/><path class="cls-1" d="M92.31,15.59c1.29-1.41,2.15.83,0,0Z"/><path class="cls-1" d="M649.8,15.19a1.12,1.12,0,0,1-1.21.81A1.12,1.12,0,0,1,649.8,15.19Z"/><path class="cls-1" d="M732.88,16c-.16-.78,1.83-.59,1.2.4h-.8C733.35,16.06,733.12,16,732.88,16Z"/><path class="cls-1" d="M668.66,16.4c-.21-.21.29-.52.4-.4S668.77,16.51,668.66,16.4Z"/><path class="cls-1" d="M93.92,16.8c-.21-.21.29-.51.4-.4S94,16.91,93.92,16.8Z"/><path class="cls-1" d="M617.69,16.8c-.21-.21.29-.51.4-.4S617.8,16.91,617.69,16.8Z"/><path class="cls-1" d="M426.24,17.2c-.21-.21.29-.51.4-.4S426.35,17.31,426.24,17.2Z"/><path class="cls-1" d="M463.57,17.2c-.21-.21.29-.51.4-.4S463.68,17.31,463.57,17.2Z"/><path class="cls-1" d="M624.91,17.2c.07-.47.73-.34,1.21-.4C626.05,17.27,625.38,17.14,624.91,17.2Z"/><path class="cls-1" d="M612.07,18c0-.39.49-.31.8-.4C612.86,18,612.38,17.91,612.07,18Z"/><path class="cls-1" d="M636.15,18c-.21-.21.29-.51.4-.4S636.26,18.11,636.15,18Z"/><path class="cls-1" d="M645.78,18.8c-.21-.2.29-.51.4-.4S645.89,18.92,645.78,18.8Z"/><path class="cls-1" d="M121.61,19.21h.8c.19.85-.57.76-1.2.8C121.29,19.68,121.61,19.61,121.61,19.21Z"/><path class="cls-1" d="M337.94,19.61c-.21-.21.29-.52.4-.4S338.05,19.72,337.94,19.61Z"/><path class="cls-1" d="M664.64,20c-.2-.21.3-.51.41-.4S664.76,20.12,664.64,20Z"/><path class="cls-1" d="M594,20.41c-.48,1.22-2.13-.44,0,0Z"/><path class="cls-1" d="M630.53,20.81c.07-.47.73-.34,1.2-.4h1.61C633.17,21.31,631.36,20.57,630.53,20.81Z"/><path class="cls-1" d="M706,20.81c-.21-.21.29-.51.4-.4S706.1,20.92,706,20.81Z"/><path class="cls-1" d="M36.12,21.21c-.2-.2.29-.51.4-.4S36.23,21.32,36.12,21.21Z"/><path class="cls-1" d="M634.14,21.21c0-.39.49-.31.81-.4C634.94,21.2,634.46,21.12,634.14,21.21Z"/><path class="cls-1" d="M635.35,21.21c-.21-.2.29-.51.4-.4S635.46,21.32,635.35,21.21Z"/><path class="cls-1" d="M638.16,21.21c1.49-1.4,2,1.1,0,0Z"/><path class="cls-1" d="M673.07,21.21c.35-1.17,1.3.24,2,0C674.74,22.39,673.79,21,673.07,21.21Z"/><path class="cls-1" d="M695.15,21.21c.74-1.22,1.91.47,3.21,0,1.3.46-1.08.46-1.61.4,1.09.93,3.87.15,5.62.41h1.21c.73.31-.24.43-.81.4a9,9,0,0,0-2.4.8c-1.07,0-2.3.15-2.81-.4-2.1.74-4.16.16-6.43,0-.92-.32,2.91-.81,0-1.21,1.24-.95,3.52.49,5.22.41A1.1,1.1,0,0,0,695.15,21.21Z"/><path class="cls-1" d="M645.78,21.61c.5-1.22,1.38.44,2.41,0C647.78,22.75,646.49,21.5,645.78,21.61Z"/><path class="cls-1" d="M565.91,22.42c-.2-.21.29-.51.4-.4S566,22.53,565.91,22.42Z"/><path class="cls-1" d="M623.71,22.42c-.21-.21.29-.51.4-.4S623.82,22.53,623.71,22.42Z"/><path class="cls-1" d="M720,22.42c.08-.46.41-.23.4,0C720.36,22.87,720,22.64,720,22.42Z"/><path class="cls-1" d="M722.44,22c-.88,1.22-2.57-.47,0,0Z"/><path class="cls-1" d="M276.54,22.82c0-.39.49-.31.8-.4C277.33,22.81,276.85,22.73,276.54,22.82Z"/><path class="cls-1" d="M315.87,22.42c.8.66,1.86,1.07,2,2.41-1.05-.55-2.73-.48-4-.81C314.38,23.33,315.77,23.53,315.87,22.42Z"/><path class="cls-1" d="M653.81,22.82c-.21-.21.29-.51.4-.4S653.92,22.93,653.81,22.82Z"/><path class="cls-1" d="M711.2,22.42H712c.18.85-.58.76-1.21.8C710.88,22.89,711.21,22.82,711.2,22.42Z"/><path class="cls-1" d="M731.67,22.82c-.81.92-3.33.14-4.81.4C728.41,22.19,729.58,22.79,731.67,22.82Z"/><path class="cls-1" d="M397.74,23.22c-.06-.87,1.43-.18,2-.4,1.14-.33,1,.56,2,.4h2c-.07.47-.74.34-1.21.4h-3.21C398.63,23.67,398.5,23.13,397.74,23.22Z"/><path class="cls-1" d="M633.34,23.22c-.21-.21.29-.51.4-.4S633.45,23.33,633.34,23.22Z"/><path class="cls-1" d="M647.39,23.22c-.21-.21.29-.51.4-.4S647.5,23.33,647.39,23.22Z"/><path class="cls-1" d="M312.66,23.62c-.21-.21.29-.51.4-.4S312.77,23.73,312.66,23.62Z"/><path class="cls-1" d="M575.14,23.62c-.2-.21.29-.51.41-.4S575.25,23.73,575.14,23.62Z"/><path class="cls-1" d="M708.39,23.62c0-.39.49-.31.81-.4C709.19,23.61,708.71,23.53,708.39,23.62Z"/><path class="cls-1" d="M289.38,25.63c.1,1.14-1,.34-1.61.4a23.67,23.67,0,0,1-5.62.4c-2.45-.77-7.67-1.13-11.63-1.6-.72.11-.83-.38-.41-.41,2.43-.61,5,.59,8,.81C281.62,25.48,285.66,25.43,289.38,25.63Z"/><path class="cls-1" d="M318.28,24c.72-.05.84.49,1.6.4-.45.5-.35.83.4.81-.67.79,0,.51,0,1.6-.68-.15-.75.31-.8.8.39.82,1.54.87,2.81.81,0,1.49-1.79,1.15-3.21,1.2-.56-1.05-2.61-.6-3.21-1.6,1.16-.9,2.44-.51,3.21-2.41C319.07,24.83,318,25.12,318.28,24Z"/><path class="cls-1" d="M715.22,24.42c-.21-.2.29-.51.4-.4S715.33,24.54,715.22,24.42Z"/><path class="cls-1" d="M716.82,24.42c-.21-.2.29-.51.4-.4S716.93,24.54,716.82,24.42Z"/><path class="cls-1" d="M725.25,24.83a16.88,16.88,0,0,1-5.62,1.2c-.49-.12-1.38,1.16-.4,1.2-.43.91-2.52.16-3.61.4,0-.71-.49-.84-.4-1.6,2.24.23,3.83-.18,4.81-1.2a3.33,3.33,0,0,1,2.41.4A2.17,2.17,0,0,1,725.25,24.83Z"/><path class="cls-1" d="M736.09,24.42c.7.1.91.69.8,1.61C735.68,26.43,736.18,25.13,736.09,24.42Z"/><path class="cls-1" d="M147.3,25.23c-.21-.21.29-.52.4-.4S147.41,25.34,147.3,25.23Z"/><path class="cls-1" d="M171,25.23c-.21-.21.29-.52.4-.4S171.09,25.34,171,25.23Z"/><path class="cls-1" d="M305.43,24.83a2.69,2.69,0,0,0,2,.4C307.51,25.88,304.81,26,305.43,24.83Z"/><path class="cls-1" d="M223.56,26.83c-1.71-.3-3.52-.5-5.22-.8-.18-.66,2.19-.66,2,0,.35-.18.71-.35.8-.8h1.2C221.76,26.75,224.15,25.31,223.56,26.83Z"/><path class="cls-1" d="M259.68,25.63c-.21-.21.29-.51.4-.4S259.79,25.74,259.68,25.63Z"/><path class="cls-1" d="M260.48,25.63c0-.39.49-.31.8-.4C261.27,25.62,260.79,25.54,260.48,25.63Z"/><path class="cls-1" d="M726.46,25.63c.06-.47.73-.34,1.2-.4C727.59,25.7,726.93,25.57,726.46,25.63Z"/><path class="cls-1" d="M351.59,26c-.21-.21.29-.51.4-.4S351.7,26.14,351.59,26Z"/><path class="cls-1" d="M352.79,26c0-.39.49-.31.81-.4h1.2C354.87,26.5,353.38,25.81,352.79,26Z"/><path class="cls-1" d="M498.89,25.63c3.49,0,4.55.77,7.62,0-.26.41-.92.41-.8,1.2-1.12-.94-2.71.12-4,0C500.79,26.75,499.05,26.76,498.89,25.63Z"/><path class="cls-1" d="M557.48,26c-.06-.87,1.43-.18,2-.4h2.41C561.21,26.55,558.83,25.78,557.48,26Z"/><path class="cls-1" d="M661,26c.06-.47.73-.34,1.2-.4C662.17,26.1,661.51,26,661,26Z"/><path class="cls-1" d="M359.62,26.43c1.1-1.21,2.78.4,4,.4,1.55.22,2-.71,3.61-.4a67.4,67.4,0,0,0,10.44.4c1.28.35,1.24-.63,2-.8,1.6.68,4.24.31,6.42.4-.27,2.08-2.4.75-4,.8h-5.22c-1.46-.26-1.54.87-2.81.81-2.71-.55-5.1.26-8-.41a15.79,15.79,0,0,0-4.42,0C360.9,27.29,360.52,26.6,359.62,26.43Z"/><path class="cls-1" d="M392.13,26.43c.11.65-.38.69-.41,1.2-1.87-.4-4.75.21-5.21-1.6C388.66,26.42,389.9,26.17,392.13,26.43Z"/><path class="cls-1" d="M420.62,26.43c-.2-.21.29-.51.4-.4S420.73,26.54,420.62,26.43Z"/><path class="cls-1" d="M488.45,26.43c.1-.94,1.76-.23,2,0C490.36,27.37,488.69,26.66,488.45,26.43Z"/><path class="cls-1" d="M492.46,26.43c0-.39.5-.31.81-.4C493.26,26.42,492.78,26.34,492.46,26.43Z"/><path class="cls-1" d="M708,26.43c.13-.54,1-.33,1.61-.4C709.48,27,708.53,27,708,26.43Z"/><path class="cls-1" d="M224,26.83c-.21-.2.29-.51.4-.4S224.07,26.94,224,26.83Z"/><path class="cls-1" d="M736.49,26.83c-.21-.2.29-.51.4-.4S736.6,26.94,736.49,26.83Z"/><path class="cls-1" d="M33.71,26.83c-.46,1.09-.19,1,0,2.41-1.3.66-2.48.16-3.61-.4C31.35,28.21,31.27,26.26,33.71,26.83Z"/><path class="cls-1" d="M272.92,27.23c-.88,1.23-2.57-.46,0,0Z"/><path class="cls-1" d="M273.32,27.63c.07-.47.74-.33,1.21-.4C274.46,27.7,273.8,27.57,273.32,27.63Z"/><path class="cls-1" d="M281,27.63c-.21-.2.29-.51.4-.4S281.06,27.75,281,27.63Z"/><path class="cls-1" d="M282.15,27.63c1.14-1.23,2.77.42,4.42,0C285.9,28.41,282.87,28.15,282.15,27.63Z"/><path class="cls-1" d="M287.77,28c0-.39.49-.32.81-.41C288.56,28,288.09,28,287.77,28Z"/><path class="cls-1" d="M348,28c-3.89.93-9.5.13-14.05.4.89-1.65,4.66-.43,6.82-.81C343.28,27.64,346,27.48,348,28Z"/><path class="cls-1" d="M348.38,28.44c-.21-.21.29-.52.4-.4S348.49,28.55,348.38,28.44Z"/><path class="cls-1" d="M29.3,28.84c-.21-.21.29-.51.4-.4S29.41,29,29.3,28.84Z"/><path class="cls-1" d="M455.54,28.84c-.16-.78,1.83-.59,1.2.4h-.8C456,28.9,455.79,28.86,455.54,28.84Z"/><path class="cls-1" d="M709.2,28.84c-1.58,1.06-2.58.27-4.82.4-1.27-.34.71-.53,1.2-.4A3.87,3.87,0,0,1,709.2,28.84Z"/><path class="cls-1" d="M175,29.24c-.21-.21.29-.51.4-.4S175.1,29.35,175,29.24Z"/><path class="cls-1" d="M231.58,28.84c1.11.12.85,1.39-.4,1.2a1.76,1.76,0,0,0,1.61.8c-.5,1.23-1.38-.43-2.41,0,.25-.35.48-.71,0-.8C230.26,29.12,231.54,29.6,231.58,28.84Z"/><path class="cls-1" d="M262.09,28.84c-.88,1.22-2.58-.46,0,0Z"/><path class="cls-1" d="M274.53,29.24c-.21-.21.29-.51.4-.4S274.64,29.35,274.53,29.24Z"/><path class="cls-1" d="M488.05,29.24c-.21-.21.29-.51.4-.4S488.16,29.35,488.05,29.24Z"/><path class="cls-1" d="M362.83,29.64c-.21-.21.29-.51.4-.4S362.94,29.75,362.83,29.64Z"/><path class="cls-1" d="M410.59,29.64c1.34-1-1,1.35,0,0Z"/><path class="cls-1" d="M376.07,30c.07-.47.73-.34,1.21-.4h1.2C378.43,30.53,376.78,29.81,376.07,30Z"/><path class="cls-1" d="M381.29,30c.06-.47.73-.34,1.2-.4h1.21C383.65,30.53,382,29.81,381.29,30Z"/><path class="cls-1" d="M387.71,29.64h1.21C389,30.72,385.38,29.64,387.71,29.64Z"/><path class="cls-1" d="M390.12,30c.06-.47.73-.34,1.2-.4h1.21C392.48,30.53,390.82,29.81,390.12,30Z"/><path class="cls-1" d="M409.38,30c-.2-.2.29-.51.4-.4S409.49,30.15,409.38,30Z"/><path class="cls-1" d="M349.58,30.44c-1.08.95-3.69,2.27-4.81.81C346.17,30.27,347,30.59,349.58,30.44Z"/><path class="cls-1" d="M235.6,30.84c-.88,1.23-2.57-.46,0,0Z"/><path class="cls-1" d="M354.8,30.84c1.58-.37,1,1.4,2.81.81-1.72,1.45,1.54.91,2.81,1.2-.3.91-2.25.16-3.21.4C356.75,32.1,354.43,32.82,354.8,30.84Z"/><path class="cls-1" d="M565.91,31.25c-.2-.21.29-.52.4-.41S566,31.36,565.91,31.25Z"/><path class="cls-1" d="M567.52,30.84h2.41C570,31.8,565.06,31.07,567.52,30.84Z"/><path class="cls-1" d="M526.18,33.25a32.28,32.28,0,0,1-6.82.81c-2.42-.07-5.05-.88-7.63-.81-1.2,0-2.41.44-3.61.41-5.64-.16-11.62-1.45-18.06-1.21,6.87-2.14,16.36-.07,23.68-.8,2.07.31,2.87,0,4.81.8C521.72,31.58,523.54,32.34,526.18,33.25Z"/><path class="cls-1" d="M707.59,31.65c0-.89,1.7-.17,2.41-.4C709.77,32.57,708.48,31.82,707.59,31.65Z"/><path class="cls-1" d="M226.37,31.65c.64-.12.69.38,1.2.4C227.73,32.83,225.74,32.64,226.37,31.65Z"/><path class="cls-1" d="M488.05,32.45c-.21-.21.29-.51.4-.4S488.16,32.56,488.05,32.45Z"/><path class="cls-1" d="M527.38,32.45c-.2-.21.29-.51.4-.4S527.49,32.56,527.38,32.45Z"/><path class="cls-1" d="M536.61,32.45c-.2-.21.29-.51.41-.4S536.72,32.56,536.61,32.45Z"/><path class="cls-1" d="M380.49,32.85c-.21-.21.29-.51.4-.4S380.6,33,380.49,32.85Z"/><path class="cls-1" d="M381.29,32.85c-.21-.21.29-.51.4-.4S381.4,33,381.29,32.85Z"/><path class="cls-1" d="M472.4,32.85c0-.39.49-.31.8-.4h1.2C474.47,33.32,473,32.63,472.4,32.85Z"/><path class="cls-1" d="M554.27,32.45c-.88,1.23-2.57-.46,0,0Z"/><path class="cls-1" d="M555.08,32.85c-.21-.21.29-.51.4-.4S555.19,33,555.08,32.85Z"/><path class="cls-1" d="M556.28,32.85c-.21-.21.29-.51.4-.4S556.39,33,556.28,32.85Z"/><path class="cls-1" d="M557.89,32.85c-.21-.21.29-.51.4-.4S558,33,557.89,32.85Z"/><path class="cls-1" d="M715.62,33.66c-.21-.21.29-.52.4-.41S715.73,33.77,715.62,33.66Z"/><path class="cls-1" d="M223.56,34.46c-.07-.87,1.42-.18,2-.4h2C227,35,224.78,34.21,223.56,34.46Z"/><path class="cls-1" d="M305,34.06h4.42C309,34.72,305.26,35.74,305,34.06Z"/><path class="cls-1" d="M244.43,34.86c.06-.47.73-.34,1.2-.4h1.21C246.78,35.34,245.13,34.63,244.43,34.86Z"/><path class="cls-1" d="M494.47,35.66c-.43.91-2.52.16-3.61.4-1,0-.68-.49,0-.4h1.6A2.51,2.51,0,0,1,494.47,35.66Z"/><path class="cls-1" d="M487.65,35.66c-.88,1.23-2.57-.46,0,0Z"/><path class="cls-1" d="M486.85,38.47c0-.39.49-.31.8-.4C487.64,38.46,487.16,38.38,486.85,38.47Z"/><path class="cls-1" d="M504.91,40.08c0-.39.49-.31.8-.4h3.21C508.36,40.59,506.13,39.83,504.91,40.08Z"/><path class="cls-1" d="M512.13,40.48c-.21-.21.29-.51.4-.4S512.24,40.59,512.13,40.48Z"/><path class="cls-1" d="M746.52,40.48c-.2-.21.29-.51.4-.4S746.63,40.59,746.52,40.48Z"/><path class="cls-1" d="M10.84,41.28c-.87,1-3,.72-3.61,2C6.24,42,8.74,40.8,10.84,41.28Z"/><path class="cls-1" d="M71.44,42.89c.07-.47.73-.34,1.21-.4h1.6C74.08,43.38,72.27,42.65,71.44,42.89Z"/><path class="cls-1" d="M725.25,44.89c-.21-.2.29-.51.4-.4S725.36,45,725.25,44.89Z"/><path class="cls-1" d="M730.47,44.89c-.21-.2.29-.51.4-.4S730.58,45,730.47,44.89Z"/><path class="cls-1" d="M727.26,45.29c-.21-.2.29-.51.4-.4S727.37,45.41,727.26,45.29Z"/><path class="cls-1" d="M726.46,45.69c-.45,1.11-3.32,1.22-4,.81C723,45.26,725.54,45.5,726.46,45.69Z"/><path class="cls-1" d="M716.42,46.1c.07-.47.73-.34,1.2-.41C717.56,46.17,716.89,46,716.42,46.1Z"/><path class="cls-1" d="M720.84,46.5a5.5,5.5,0,0,1-4.82.8c.37-1.35.75-.2,2-.4C718.82,46.52,719.94,45.59,720.84,46.5Z"/><path class="cls-1" d="M718.43,48.51c1.18.57-.48,1.61-1.61,1.2C716.18,48.13,718.55,49.57,718.43,48.51Z"/><path class="cls-1" d="M724.05,48.91c-.21-.21.29-.51.4-.4S724.16,49,724.05,48.91Z"/><path class="cls-1" d="M126.43,49.31a1.1,1.1,0,0,1,.8,1.2A1.1,1.1,0,0,1,126.43,49.31Z"/><path class="cls-1" d="M127.63,49.71c.07-.47.73-.34,1.21-.4C128.77,49.78,128.1,49.65,127.63,49.71Z"/><path class="cls-1" d="M133.25,50.11c0-.39.49-.31.8-.4C134,50.1,133.56,50,133.25,50.11Z"/><path class="cls-1" d="M561.5,50.11c0-.39.49-.31.8-.4C562.29,50.1,561.81,50,561.5,50.11Z"/><path class="cls-1" d="M233.59,50.51c.06-.47.73-.34,1.2-.4C234.73,50.58,234.06,50.45,233.59,50.51Z"/><path class="cls-1" d="M709.6,50.51c.1-.5.8-.4.8,0C710.22,51.1,710.05,50.47,709.6,50.51Z"/><path class="cls-1" d="M704.38,50.51c.84-.17,1.06.28,1.61.4C706.11,51.62,703.74,51.63,704.38,50.51Z"/><path class="cls-1" d="M720.43,52.12c-3.12,0-3.1,3.05-6.42,2.81,0-.39.49-.31.81-.4-2.22-.82-6.35-.64-8-.81.69-1.2,1.46-.44,2.81-.4,1.7-1,4.66-.69,6-2C717.07,52.61,718.5,51.43,720.43,52.12Z"/><path class="cls-1" d="M562.3,52.92c-.06.88-1,.86-2,.8C559.88,52.38,561.54,53.1,562.3,52.92Z"/><path class="cls-1" d="M3.61,54.53c0-.39.49-.32.81-.41C4.4,54.51,3.92,54.44,3.61,54.53Z"/><path class="cls-1" d="M4.82,54.53c0-.39.49-.32.8-.41C5.61,54.51,5.13,54.44,4.82,54.53Z"/><path class="cls-1" d="M732.88,54.53c1.34-1-1,1.34,0,0Z"/><path class="cls-1" d="M2,54.93c0-.39.49-.31.8-.4C2.8,54.92,2.32,54.84,2,54.93Z"/><path class="cls-1" d="M554.27,54.93c0,.88-1.7.17-2.41.4A1.61,1.61,0,0,1,554.27,54.93Z"/><path class="cls-1" d="M562.3,54.53c1.05-.12,1.73.14,1.61,1.2C563.61,55.09,561.94,55.82,562.3,54.53Z"/><path class="cls-1" d="M708.39,54.53c-.28,1-2.33,2.66-2.4.4C707.21,55.22,707.17,54.24,708.39,54.53Z"/><path class="cls-1" d="M564.31,55.73c-.21-.21.29-.51.4-.4S564.42,55.84,564.31,55.73Z"/><path class="cls-1" d="M475.61,56.13c-.21-.21.29-.51.4-.4S475.72,56.24,475.61,56.13Z"/><path class="cls-1" d="M557.89,56.13c.07-.46.4-.22.4,0C558.21,56.59,557.88,56.35,557.89,56.13Z"/><path class="cls-1" d="M1.21,56.13a1.11,1.11,0,0,1-1.21.8A1.11,1.11,0,0,1,1.21,56.13Z"/><path class="cls-1" d="M710,56.53c-.21-.2.29-.51.4-.4S710.11,56.64,710,56.53Z"/><path class="cls-1" d="M727.66,58.14c-1.91.71-2.11-.25-4-.4-.88-.22-.57.76-1.2.8-1-.32-3.89-.9-4.82,0-1.3-1.06,1.8-.45.41-2C722.07,57.08,726.36,54.91,727.66,58.14Zm-6.82-1.21c-.48.07-1.14-.07-1.21.41C720.1,57.27,720.77,57.41,720.84,56.93Z"/><path class="cls-1" d="M684.71,56.53a3.59,3.59,0,0,1-2.81.81A3.57,3.57,0,0,1,684.71,56.53Z"/><path class="cls-1" d="M731.27,56.53c-.4.95-1.2,2.69-2.41,1.61A3.75,3.75,0,0,1,731.27,56.53Z"/><path class="cls-1" d="M15.25,57.34c.07-.48.73-.34,1.21-.41C16.39,57.41,15.73,57.27,15.25,57.34Z"/><path class="cls-1" d="M713.21,56.93a5.46,5.46,0,0,1-3.21.81C710.41,56.81,711.84,56.91,713.21,56.93Z"/><path class="cls-1" d="M473.2,57.74c.17-.9,2.13-.32,2.41,0C475.2,58.87,473.9,57.63,473.2,57.74Z"/><path class="cls-1" d="M520.16,58.54c-.21-.21.29-.51.4-.4S520.27,58.65,520.16,58.54Z"/><path class="cls-1" d="M526.18,59.34c.26-1.2.86.38,1.6,0,0,.88-1,.86-2,.81,0-.4.49-.32.8-.41C526.65,59.4,526.42,59.37,526.18,59.34Z"/><path class="cls-1" d="M654.61,60.15c0-.4.49-.32.8-.41h1.21C656.69,60.61,655.2,59.92,654.61,60.15Z"/><path class="cls-1" d="M666.65,60.54c-.21-.2.29-.51.4-.39S666.76,60.66,666.65,60.54Z"/><path class="cls-1" d="M734.08,60.54c-.11.94-1.07.93-1.61.41C732.59,60,733.55,60,734.08,60.54Z"/><path class="cls-1" d="M657,61c-.21-.21.29-.52.4-.41S657.13,61.06,657,61Z"/><path class="cls-1" d="M668.26,61c.82-.93,3.46-.28,4.41,0C672,61.72,669,61.46,668.26,61Z"/><path class="cls-1" d="M722.84,61c-.2-.21.29-.52.4-.41S723,61.06,722.84,61Z"/><path class="cls-1" d="M659,61.35c-.34.59-1.29.58-2,.8C657.08,61.27,658,61.29,659,61.35Z"/><path class="cls-1" d="M730.47,61.75c-.21-.21.29-.51.4-.4S730.58,61.86,730.47,61.75Z"/><path class="cls-1" d="M649,67c.07-.47.73-.34,1.21-.4C650.13,67,649.46,66.91,649,67Z"/><path class="cls-1" d="M41.74,67.77c-.21-.21.29-.51.4-.4S41.85,67.88,41.74,67.77Z"/><path class="cls-1" d="M43.35,68.57c0-.39.49-.31.8-.4C44.14,68.56,43.66,68.48,43.35,68.57Z"/><path class="cls-1" d="M77.86,77c-.75,1.3-1.83,0-3.21.8-3.42-1.12-7.23-1.86-10.83-2.8-1.79-.32-2.41.53-4,.4-1.29.08-1-1.44-1.6-2-1.35-.26-2.06-1.15-4-.8-1.3-1.24-3.28-1.8-4.81-2.81.17-.63,1.26-.35.8-1.61h3.21c1.78,1.7,4,2.91,6,4.42H61c.89-.22.57.76,1.2.8,2.12.39,3.79-.3,6,.8,1,0,.49.3.4.81C71.89,75.48,75.24,75.88,77.86,77Z"/><path class="cls-1" d="M711.2,70.58c.08-.45.41-.22.41,0C711.53,71,711.2,70.8,711.2,70.58Z"/><path class="cls-1" d="M127.63,75c-.21-.21.29-.52.4-.41S127.74,75.11,127.63,75Z"/><path class="cls-1" d="M88.7,77.8c-.21-.2.29-.51.4-.4S88.81,77.92,88.7,77.8Z"/><path class="cls-1" d="M360,77.8a1.76,1.76,0,0,1,.8,1.61C359.57,79.6,359.39,78.4,360,77.8Z"/><path class="cls-1" d="M481.23,78.21c1.49-1.41,2,1.09,0,0Z"/><path class="cls-1" d="M670.26,77.8c1.09.36-.33,1.79-.8.81C669.56,78.17,670.26,78.34,670.26,77.8Z"/><path class="cls-1" d="M180.61,79.81c-1.88.94-5.69.35-7.22-.4.09-.58,1.19-.14,1.2-.8,1.17.16,2.7-.21,4,0S180.73,78.77,180.61,79.81Z"/><path class="cls-1" d="M668.66,79c-.21-.21.29-.51.4-.4S668.77,79.12,668.66,79Z"/><path class="cls-1" d="M183.82,80.21c.07-.47.73-.34,1.21-.4h1.2C186.18,80.7,184.53,80,183.82,80.21Z"/><path class="cls-1" d="M91.91,81c-.21-.2.29-.51.4-.4S92,81.13,91.91,81Z"/><path class="cls-1" d="M194.26,80.61h2.41C196.71,81.57,191.8,80.84,194.26,80.61Z"/><path class="cls-1" d="M197.07,81c-.21-.2.29-.51.4-.4S197.18,81.13,197.07,81Z"/><path class="cls-1" d="M197.87,81c-.21-.2.29-.51.4-.4S198,81.13,197.87,81Z"/><path class="cls-1" d="M424.23,81.42c0-.39.5-.32.81-.41C425,81.41,424.55,81.33,424.23,81.42Z"/><path class="cls-1" d="M435.87,83c-2.89,1-5.16-.54-8,.81,2.3,1,6,.7,8.83,1.2-1.38.83-5,.44-6.43,0-2.62,1.49-6-.57-10,0,.1-.44.8-.27.8-.8a5.23,5.23,0,0,0-4.81-.4,5.65,5.65,0,0,0-4-.81c-.49-1.3,1.3-.31.81-1.6,3.74.08,5.76-.34,7.62,1.2,2.53.22,3.7-.7,5.22.4C428.26,81.73,432.48,82.92,435.87,83Zm-12.44,1.21c-.31.09-.79,0-.8.4C422.94,84.54,423.42,84.62,423.43,84.23Z"/><path class="cls-1" d="M458.35,82.22c-1.62,1-4.76,1-6.82.4-.89-.22-.58.77-1.21.8-3,.23-7.05-.33-8.83,0-1.77-.84-3.49.62-4-1.6.7.36,2,.14,2.41.8.73-.61,2.25-.42,2.81-1.2,1.89.53,2.37,1.18,4,1.2.84.17,1.06-.27,1.6-.4,2.46-.22,3.81.25,5.22-.4.39,0,.31.49.41.8.39,0,.31-.49.4-.8C454.93,83.28,456.44,81.76,458.35,82.22Z"/><path class="cls-1" d="M171.38,82.22c0-.39.49-.31.8-.4C172.17,82.21,171.69,82.13,171.38,82.22Z"/><path class="cls-1" d="M172.58,82.22c.07-.47.73-.34,1.21-.4C173.72,82.29,173.06,82.16,172.58,82.22Z"/><path class="cls-1" d="M375.67,82.22c0-.39.49-.31.8-.4C376.46,82.21,376,82.13,375.67,82.22Z"/><path class="cls-1" d="M458.75,82.22c.08-.46.4-.22.4,0C459.08,82.68,458.75,82.44,458.75,82.22Z"/><path class="cls-1" d="M659.43,82.22c0-.39.49-.31.8-.4C660.22,82.21,659.74,82.13,659.43,82.22Z"/><path class="cls-1" d="M336.74,82.62c-.21-.21.29-.51.4-.4S336.85,82.73,336.74,82.62Z"/><path class="cls-1" d="M339.15,82.62c-.21-.21.29-.51.4-.4S339.26,82.73,339.15,82.62Z"/><path class="cls-1" d="M340,82.62c0-.39.49-.31.8-.4C340.74,82.61,340.26,82.53,340,82.62Z"/><path class="cls-1" d="M435.47,82.62c-.11-.64,2.17-.56,1.21.4C436.83,82.87,435.47,82.59,435.47,82.62Z"/><path class="cls-1" d="M163,83c-.21-.21.29-.51.4-.4S163.06,83.13,163,83Z"/><path class="cls-1" d="M151.31,83.42c-.21-.2.29-.51.4-.4S151.42,83.53,151.31,83.42Z"/><path class="cls-1" d="M152.52,83.42c0-.39.49-.31.8-.4C153.31,83.41,152.83,83.33,152.52,83.42Z"/><path class="cls-1" d="M348.38,83.42c0-.39.49-.31.8-.4C349.17,83.41,348.69,83.33,348.38,83.42Z"/><path class="cls-1" d="M657.82,83.42c0-.39.49-.31.8-.4C658.61,83.41,658.13,83.33,657.82,83.42Z"/><path class="cls-1" d="M666.65,83c.84-.17,1.06.28,1.61.4-.63.31-.6,1.28-1.61,1.21Z"/><path class="cls-1" d="M364.43,84.23c-.21-.21.29-.52.4-.4S364.54,84.34,364.43,84.23Z"/><path class="cls-1" d="M448.72,85c0-.39.49-.31.8-.4C449.51,85,449,84.94,448.72,85Z"/><path class="cls-1" d="M450.72,85c.07-.47.74-.34,1.21-.4h1.2C453.08,85.51,451.43,84.8,450.72,85Z"/><path class="cls-1" d="M314.26,85.83c-.21-.21.29-.51.4-.4S314.37,85.94,314.26,85.83Z"/><path class="cls-1" d="M198.67,86.23c.07-.47.73-.34,1.21-.4C199.81,86.3,199.14,86.17,198.67,86.23Z"/><path class="cls-1" d="M200.28,86.23c-.21-.2.29-.51.4-.4S200.39,86.34,200.28,86.23Z"/><path class="cls-1" d="M244.83,86.23c.06-.47.73-.34,1.2-.4C246,86.3,245.3,86.17,244.83,86.23Z"/><path class="cls-1" d="M282.15,87.44c-.55.91-2.79.15-4,.4-1.59.07.13-.62-.8-1.21a71.48,71.48,0,0,1-11.24,0c-.89-.22-.57.77-1.2.81-5.73,1.18-14.26.83-20.88,2-1-.71-2.76-.71-4-1.2.05-.89,1.7-.17,2.41-.4.25-1.29-1.44-.55-.4-1.61,1.58-.51,1,1.1,1.6,1.61,4.6-.52,7.32.92,12.45-.4.79-.25,1.55.46,2.4.4s3.46-.86,4-1.61c5.78.17,11.09-.14,16.45-.4C280.46,85.93,280.64,87.34,282.15,87.44Z"/><path class="cls-1" d="M194.66,86.63c-.21-.2.29-.51.4-.4S194.77,86.75,194.66,86.63Z"/><path class="cls-1" d="M495.68,86.63c-.21-.2.29-.51.4-.4S495.79,86.75,495.68,86.63Z"/><path class="cls-1" d="M501.7,86.63c-.21-.2.29-.51.4-.4S501.81,86.75,501.7,86.63Z"/><path class="cls-1" d="M643,86.23h1.21V87H643Z"/><path class="cls-1" d="M645,86.63c-.21-.2.29-.51.4-.4S645.09,86.75,645,86.63Z"/><path class="cls-1" d="M238.81,86.63c-.92.47-2.65,1.4,0,1.21-.21,1.66-3.61.13-4.42,1.2-1.67-.17-4,.17-5.62-.4-.42-.15-1.57-.49-1.2-1.2,3.11.46,5.68-1,8,0A3.55,3.55,0,0,1,238.81,86.63Z"/><path class="cls-1" d="M248.44,87c-.21-.21.29-.52.4-.41S248.55,87.15,248.44,87Z"/><path class="cls-1" d="M328.71,87c-2.33,1.47-4.73.38-8,.8C321.87,86.14,326.5,86.45,328.71,87Z"/><path class="cls-1" d="M329.51,87c.07-.47.74-.34,1.21-.41C330.65,87.11,330,87,329.51,87Z"/><path class="cls-1" d="M527,87c0-.39.49-.32.8-.41C527.77,87,527.29,87,527,87Z"/><path class="cls-1" d="M307,87.44c.12-.55,1-.33,1.6-.4-.22,1.38-1.38,1.82-3.21,1.6C305.28,87.78,308.2,88,307,87.44Z"/><path class="cls-1" d="M396.94,87.44c1.64-.43,5.05.83,7.23,1.2,1.06.12,1-.84,1.2-1.6,1.5-.43,1.14,1,2.41.8,2.37-.29,3.19.07,6,0,.95.52,2.77.17,3.61.8,1,.33,3.46-.78,3.21.8-2.39-.54-6.5,0-9.23.4-1.07,0-2.29.16-2.81-.4-8.78,1.14-12.72-.41-20.47,0-1.3-.46,1.08-.45,1.61-.4,1.42,0-.86-1.32.4-1.2,3.5-.21,4.75-.3,7.62.4C397.89,87.56,397.43,87.48,396.94,87.44Zm13.65.8c-.11-.11-.61.19-.4.4S410.8,88.45,410.59,88.24Z"/><path class="cls-1" d="M403.77,87h.8v.8h-.8Z"/><path class="cls-1" d="M553.87,87c0,.39-.49.31-.8.4C553.08,87,553.56,87.13,553.87,87Z"/><path class="cls-1" d="M164.15,87.84c0-.39.5-.31.81-.4C165,87.83,164.47,87.75,164.15,87.84Z"/><path class="cls-1" d="M274.93,87.84c.07-.47.73-.34,1.2-.4C276.07,87.91,275.4,87.78,274.93,87.84Z"/><path class="cls-1" d="M314.66,87.84c1.22-1.48,1.36,1.22,0,0Z"/><path class="cls-1" d="M317.87,87.84c-.2-.21.3-.52.41-.4S318,88,317.87,87.84Z"/><path class="cls-1" d="M239.21,88.24c-.21-.21.29-.51.4-.4S239.32,88.35,239.21,88.24Z"/><path class="cls-1" d="M388.51,88.24c-.2-.21.29-.51.41-.4S388.62,88.35,388.51,88.24Z"/><path class="cls-1" d="M433.87,88.24c-.21-.21.29-.51.4-.4S434,88.35,433.87,88.24Z"/><path class="cls-1" d="M305,88.24c.06,1.66-2.79.42-4,.8a40.85,40.85,0,0,1-10,.4C295.08,87.9,300.56,88.53,305,88.24Z"/><path class="cls-1" d="M370.05,89c-2.48,1.48-2.07-.84,0,0Z"/><path class="cls-1" d="M421,89.44c.06-1.15,1.68-.73,2.81-.8s.69.49,0,.4h-1.6A1.9,1.9,0,0,1,421,89.44Z"/><path class="cls-1" d="M428.65,88.64c-.88,1.23-2.57-.46,0,0Z"/><path class="cls-1" d="M437.48,89c0-.39.49-.31.8-.4C438.27,89,437.79,89,437.48,89Z"/><path class="cls-1" d="M561.5,88.64h2.41c-1.29.37-2.27,2.56-3.62,1.61C560.17,89.19,561.85,89.93,561.5,88.64Z"/><path class="cls-1" d="M290.58,89c-3.47,1.61-9.62.55-13.64,1.61h-6C277,89.37,284.94,89.68,290.58,89Z"/><path class="cls-1" d="M374.87,90.65c-1.23,1.33-1.85-1.34-3.62-.81,1.1-.45,3.36-1.16,4.42-.4,1.09.25,3.18-.51,3.61.4h-4C374.81,90,374.25,90.55,374.87,90.65Z"/><path class="cls-1" d="M380.89,89.44c.09-.51,1.2-.52,1.2,0a10.13,10.13,0,0,1,4-.4c1-.33,1.85.57.41.4h-2C383.06,89.63,382.18,90.1,380.89,89.44Z"/><path class="cls-1" d="M430.66,89.44c-.21-.2.29-.51.4-.4S430.77,89.55,430.66,89.44Z"/><path class="cls-1" d="M364.83,89.44c.25,1.59-2.2.48-3.21.81C361.38,88.66,363.83,89.77,364.83,89.44Z"/><path class="cls-1" d="M365.64,89.84c-.21-.2.29-.51.4-.4S365.75,90,365.64,89.84Z"/><path class="cls-1" d="M366.44,89.84c-.21-.2.29-.51.4-.4S366.55,90,366.44,89.84Z"/><path class="cls-1" d="M485.24,89.84c-.21-.2.29-.51.4-.4S485.35,90,485.24,89.84Z"/><path class="cls-1" d="M487.65,89.84c0-.39.49-.31.8-.4h1.2C489.72,90.31,488.23,89.63,487.65,89.84Z"/><path class="cls-1" d="M329.92,89.84c.38,1.46-1.74.41-2,1.21-.65.11-.69-.38-1.2-.4-3.22,1.11-5.37.4-8.84.8,1.25-1.58,2.95-.24,5.22-.8C326,89.75,327.33,90.14,329.92,89.84Z"/><path class="cls-1" d="M357.61,90.25c-.21-.21.29-.52.4-.41S357.72,90.36,357.61,90.25Z"/><path class="cls-1" d="M492.46,89.84c-.47,1.23-2.12-.43,0,0Z"/><path class="cls-1" d="M269.31,90.25c1.38,1-2.06,1,0,0Z"/><path class="cls-1" d="M502.5,90.25c-1.15,1.33-2.47.29-4.42.4C497.32,89.86,501.3,90.41,502.5,90.25Z"/><path class="cls-1" d="M502.9,90.65c-.21-.21.29-.51.4-.4S503,90.76,502.9,90.65Z"/><path class="cls-1" d="M597.62,90.65c.07-.47.73-.34,1.2-.4C598.76,90.72,598.09,90.59,597.62,90.65Z"/><path class="cls-1" d="M314.66,90.65c.42,1.35-1.24.62-2,.8C312.72,90.57,313.67,90.59,314.66,90.65Z"/><path class="cls-1" d="M583.57,91.05c0-.39.49-.31.81-.4C584.36,91,583.88,91,583.57,91.05Z"/><path class="cls-1" d="M614.88,91.05c-.21-.21.29-.51.4-.4S615,91.16,614.88,91.05Z"/><path class="cls-1" d="M264.09,91.45c-.2-.21.29-.51.4-.4S264.2,91.56,264.09,91.45Z"/><path class="cls-1" d="M311.85,91.05c-2.79,1.84-7-.21-10,1.2-3,.08-3.26-.72-6,0-.41-1.87,3,.08,3.21-1.2h12.84Z"/><path class="cls-1" d="M315.07,91.45c0-.39.49-.31.8-.4h1.2C317.14,91.92,315.65,91.23,315.07,91.45Z"/><path class="cls-1" d="M590,91.05h1.21C591.31,92.13,587.66,91.05,590,91.05Z"/><path class="cls-1" d="M598.42,91.45c-.21-.21.29-.51.4-.4S598.53,91.56,598.42,91.45Z"/><path class="cls-1" d="M617.29,91.45c-.21-.21.29-.51.4-.4S617.4,91.56,617.29,91.45Z"/><path class="cls-1" d="M232.39,91.45h1.2C233.36,92.6,229.41,91.31,232.39,91.45Z"/><path class="cls-1" d="M277.34,93.86c-1,0-.49-.3-.4-.8-.81.13-1.26-.09-1.21-.81,3.79-1.21,9.1.52,12-.8H291c-.15,2.12-4.08.47-5.21,1.61-.36-.25-.72-.49-.81,0-.79,0-.51-1.1-1.6-.81-1.85,0-4,1.87-5.62.81C277.11,93.2,278.09,93.76,277.34,93.86Z"/><path class="cls-1" d="M612.47,91.85c-.21-.21.29-.51.4-.4S612.58,92,612.47,91.85Z"/><path class="cls-1" d="M614.08,91.85c-.21-.21.29-.51.4-.4S614.19,92,614.08,91.85Z"/><path class="cls-1" d="M615.68,91.85c.07-.47.73-.34,1.2-.4C616.82,91.92,616.15,91.79,615.68,91.85Z"/><path class="cls-1" d="M623.71,91.85c-.21-.21.29-.51.4-.4S623.82,92,623.71,91.85Z"/><path class="cls-1" d="M632.94,91.85c0-.39.49-.31.8-.4C633.73,91.84,633.25,91.76,632.94,91.85Z"/><path class="cls-1" d="M255.66,92.25c-1.11,1.62-2.95,1-4.41.81a18.63,18.63,0,0,1-4.82.4c-1.53.23-2.74,1.21-3.61,0,.83-.61,3-1.23,4-.4.7.39,1-.8,1.2-.81s.82.8.8.81c.52-.09.67-.66,1.21-.81C251.76,91.79,253.7,92.24,255.66,92.25Z"/><path class="cls-1" d="M256.47,92.25c0-.39.49-.31.8-.4h1.2C258.54,92.72,257.05,92,256.47,92.25Z"/><path class="cls-1" d="M293,92.25c-.21-.21.29-.51.4-.4S293.1,92.37,293,92.25Z"/><path class="cls-1" d="M342.36,92.25c-.21-.21.29-.51.4-.4S342.47,92.37,342.36,92.25Z"/><path class="cls-1" d="M344.36,92.25c-.2-.21.29-.51.41-.4S344.47,92.37,344.36,92.25Z"/><path class="cls-1" d="M345.17,92.25c-.21-.21.29-.51.4-.4S345.28,92.37,345.17,92.25Z"/><path class="cls-1" d="M491.26,92.25c0-.39.49-.31.8-.4C492.05,92.24,491.57,92.16,491.26,92.25Z"/><path class="cls-1" d="M626.12,92.25c-.21-.21.28-.51.4-.4S626.23,92.37,626.12,92.25Z"/><path class="cls-1" d="M409.38,92.65c-.2-.2.29-.51.4-.4S409.49,92.76,409.38,92.65Z"/><path class="cls-1" d="M403.77,92.65c1,.17,0,1.56-.81,1.21C402.74,93,403.73,93.29,403.77,92.65Z"/><path class="cls-1" d="M412.59,93.06c.1-.58,3.31-.94,2.81.4C414.17,92.72,413.6,93.82,412.59,93.06Z"/><path class="cls-1" d="M418.21,93.06c.7-1.3,1.65.34.41.4C418.39,93.47,418.07,93.31,418.21,93.06Z"/><path class="cls-1" d="M488.85,92.65a2,2,0,0,1-.8,2c-.86.19-.77-.57-.8-1.2H486A3.65,3.65,0,0,1,488.85,92.65Z"/><path class="cls-1" d="M242.42,93.06c-.18,1.91-1.56.31-2.41,1.2h-4c-.73-.31.24-.43.8-.4h1.61A36.46,36.46,0,0,1,242.42,93.06Z"/><path class="cls-1" d="M411,93.46c.06-.47.73-.34,1.2-.4C412.13,93.53,411.46,93.39,411,93.46Z"/><path class="cls-1" d="M417.41,93.06c-.88,1.22-2.57-.47,0,0Z"/><path class="cls-1" d="M272.12,93.86c.06-.47.73-.34,1.2-.4C273.26,93.93,272.59,93.8,272.12,93.86Z"/><path class="cls-1" d="M484.84,93.46c-.35,1-1.78.9-1.61,2.41-3.74-.13-6.34.81-9.23-.41,1-.75,2.62-.86,4.42-.8.46-.14,1-.71.4-.8C480,92.93,483,93.72,484.84,93.46Z"/><path class="cls-1" d="M260.08,95.06c-.21-.2.29-.51.4-.4S260.19,95.17,260.08,95.06Z"/><path class="cls-1" d="M359.62,95.06c0-.39.49-.31.8-.4C360.41,95.05,359.93,95,359.62,95.06Z"/><path class="cls-1" d="M124.82,103.49c-3.93-.32-10.34-.69-12.44-.4-1.4-.34-2.14-1.34-4-1.2-1-1.64-3.7-1.66-4.42-3.62-.91.12-1.51-.09-1.6-.8-1.08-.26-2.51-.17-3.21-.8-.49-.53-.16-.63,0-1.21.35-.24.71-.48.8,0a88.5,88.5,0,0,1,16.86,3.21c-.1,1.71,2.5.71,2.4,2.41C121.39,101.57,124.89,100.75,124.82,103.49Z"/><path class="cls-1" d="M224,95.06h.8v.81H224Z"/><path class="cls-1" d="M256.47,95.46c-.21-.2.29-.51.4-.4S256.58,95.58,256.47,95.46Z"/><path class="cls-1" d="M490.86,95.46c-1.39.8-3.07-.4-6,0-.67-.7,1.61-.43,2.81-.4A10,10,0,0,1,490.86,95.46Z"/><path class="cls-1" d="M112.38,96.27c.07-.47.73-.34,1.2-.4C113.52,96.34,112.85,96.2,112.38,96.27Z"/><path class="cls-1" d="M210.71,96.67c-.21-.21.29-.52.4-.4S210.82,96.78,210.71,96.67Z"/><path class="cls-1" d="M298.61,96.67c-.21-.21.29-.52.4-.4S298.72,96.78,298.61,96.67Z"/><path class="cls-1" d="M313.06,96.67c-.21-.21.29-.52.4-.4S313.17,96.78,313.06,96.67Z"/><path class="cls-1" d="M317.87,96.67c.07-.47.74-.34,1.21-.4h1.2C320.23,97.15,318.58,96.44,317.87,96.67Z"/><path class="cls-1" d="M322.29,96.67c0-.39.49-.31.8-.4h1.21C324.36,97.14,322.87,96.45,322.29,96.67Z"/><path class="cls-1" d="M324.7,96.67c-.21-.21.29-.52.4-.4S324.81,96.78,324.7,96.67Z"/><path class="cls-1" d="M325.9,96.67c-.21-.21.29-.52.4-.4S326,96.78,325.9,96.67Z"/><path class="cls-1" d="M385.7,96.67c-.2-.21.29-.52.4-.4S385.82,96.78,385.7,96.67Z"/><path class="cls-1" d="M203.09,96.67c-.48,1.22-2.13-.44,0,0Z"/><path class="cls-1" d="M305.43,97.07c-.2-.21.29-.51.4-.4S305.54,97.18,305.43,97.07Z"/><path class="cls-1" d="M307.84,97.07c0-.39.49-.31.8-.4C308.63,97.06,308.15,97,307.84,97.07Z"/><path class="cls-1" d="M321.09,97.07c-.21-.21.29-.51.4-.4S321.2,97.18,321.09,97.07Z"/><path class="cls-1" d="M199.07,97.47c-.2-.21.29-.51.4-.4S199.18,97.58,199.07,97.47Z"/><path class="cls-1" d="M201.08,97.47c-.21-.21.29-.51.4-.4S201.19,97.58,201.08,97.47Z"/><path class="cls-1" d="M299.81,97.47c-.2-.21.29-.51.41-.4S299.92,97.58,299.81,97.47Z"/><path class="cls-1" d="M284.56,97.87c.13-.54,1-.33,1.61-.4C286,98,285.16,97.8,284.56,97.87Z"/><path class="cls-1" d="M278.54,98.27c.07-.47.73-.33,1.21-.4C279.68,98.34,279,98.21,278.54,98.27Z"/><path class="cls-1" d="M142.88,98.67c-.2-.2.29-.51.41-.4S143,98.79,142.88,98.67Z"/><path class="cls-1" d="M143.69,98.67c-.21-.2.29-.51.4-.4S143.8,98.79,143.69,98.67Z"/><path class="cls-1" d="M116.8,105.5c-.21-.21.29-.51.4-.4S116.91,105.61,116.8,105.5Z"/><path class="cls-1" d="M118.8,105.5c-.21-.21.29-.51.4-.4S118.91,105.61,118.8,105.5Z"/><path class="cls-1" d="M118,105.5a1.1,1.1,0,0,1,.8,1.2A1.1,1.1,0,0,1,118,105.5Z"/><path class="cls-1" d="M117.2,106.3c-.21-.21.29-.51.4-.4S117.31,106.41,117.2,106.3Z"/><path class="cls-1" d="M111.58,21.61c.56-.14,0-.7-.4-.8,1.47-.66,6-1,6.42.8-1,1.34-3.16-.8-3.61.81,2.34.58,5.59,1.07,8,.4-.43-.38-.12-1.48-1.2-1.21,2-.93,2.81-.54,5.22-.8,3.08.4,4.39,2.57,5.62,4.82,1.84,0,2.6,1.14,4,1.6,6.4-.09,9.17,0,15.25,1.61,2.21-.35,2.52-.45,4.41.4,6.1.15,8.94,1.17,15.26,1.2a9.35,9.35,0,0,1,2.41.81c4.69-.76,8.9,2.13,12.44,0a49.79,49.79,0,0,0-9.23-1.61c4.86-.71,10.33,1.44,15.65,1.61.18-1.52-2.1-.58-2.41-1.61a26.15,26.15,0,0,1-6.42-.8h-2.81c-2.79-1-6.22-1.27-8.43-2.81.14-1.33,2.31-.63,3.61-.8,1.09.25,3.19-.51,3.61.4.52-.55,1.75-.4,2.82-.4,1.29.58,3.36.38,5.21.4.95-.06,1.37.93,2.41,1.2,1.4.36,3.15-.37,4.41.4a2,2,0,0,0,2-.8c3,1,6.93,1.2,9.23,0,3.08.9,6.37.14,9.64.8,1.25.26,2.31,1,3.61,1.21,3.33.58,6.66.23,8.83,2,.59,0,3.28-.15,2,.4h-2.8c-1.84.29-4.08-.45-4.82,0,.39.82,1.54.87,2.81.81-.05.89-1.7.17-2.41.4-.89.22-.57-.77-1.2-.8-2.79-.16-4.94-.95-7.63-1.21-1.66-.05-2.51.7-4.41.4a2.78,2.78,0,0,0,1.2.81c-1.92,1.23-4.45-.36-6.82,0-1.88-.05.43-.59,0-1.61h-2c-.12,1.45,1.12,1.55,1.2,2.81h2c-.24,1.44,2.4,0,2,1.61,8.21-.75,15.12,1.7,23.68,1.2.07-.87-1.43-.18-2-.4.11-.83,1.5-.38,1.61-1.2,1.15,0,2.62-.22,3.21.4,4-.25,6.37.7,8.83.4,1,0,1.4.73,2,1.2,1.63-.43,2.52.18,4.82,0,.19-.85-.57-.76-1.2-.8,2.31-1.25,6,.43,8-.4a9,9,0,0,1,2.41.8c1.59.15,3.85-.37,4.82.4,1.4-1.24,3.81,1,4.41-.8-.44-1-3.1.16-3.61-.8.1-.44.8-.27.8-.81-.92-1.48-3.66-1.15-6-1.2-1-.06-1.24.63-2,.8-6.07.71-12.15-1.43-15.66-.8-.09-2.72-4-1.65-5.62-2.81,1.86-.72,4.4.53,6.83-.4,1.82.72,4.8.28,7.22.4a28,28,0,0,0,6.42.4c1.23,0,2.09,1.47,3.21.4.54-1.13-2.12-1-.8-1.6,1.08.59,1.93-.46,1.2.8,2.17.38,2.6,2.49,4.82,2.81,1,0,.09-1.33-.4-1.21.28-.79,1.07-1.06,2-1.2-.05-.89-1.71-.17-2.41-.4s0-.42.4-.4h4.42c.91-.11,1.5.1,1.6.8.78-1.72,3.81-.13,4.82-.8a1.12,1.12,0,0,1-1.21.8c5.63.71,13.84,0,17.66,3.21a2.65,2.65,0,0,1,2-.4c.74-.06.25-1.36.8-1.61,3.13,0,6.43.69,10.44.81,1.23-.3.77,1.1,2,.8,1.64.17,1.63-1.32,3.62-.8.58-.35,1.27-.6,1.2-1.61,2.07,1.36,4.45-.06,6.42,1.21,1.51-.37,2.84-.91,4.42-1.21.37-.43,1.48-.12,1.2-1.2,2.09.76,4.57.52,7.23.8s4.89.81,6.82.8c1.48.26,2.39,1.09,4.41.81a1.87,1.87,0,0,0-.4,1.2,2,2,0,0,1,2,.8c2.16.25,5.47-.65,6.42.81,0,1.36-1.49,1.18-2.81,1.2-.07,1.14,2.63-.48,2,1.2.36-.24.71-.48.8,0A43.28,43.28,0,0,0,360,35.26c1.57.56,4.09-.12,5.62-.8-1.73-.86.72-1.43,1.6-2,1.2,1.23,2.31,2.76,4.42,2,0-.39-.49-.31-.81-.4,1.57-.76,4,1,6,1.2,3.48-.07,5,0,7.23-.8,4.55.13,9.63.55,14.45-.4-1-1-4.27.25-4.82-1.21-4,.5-5.14-.31-8.83.4-.67-.53-2.55.15-2.41-1.2,6.59,1,20.54-1.51,29.7-.4,9.68-1.46,23,.75,33.72-1.21.94.53,2.77.17,3.61.81,7.83-.19,13.94-.06,20.87,1.2-.24,1.37-2.34.87-3.61,1.21.9,1.51,4.05,2,6,1.2a7.7,7.7,0,0,0,4.41,0c3.14.48,4.3.82,6.83.4.15,1.63-2.51.44-3.62.8-.72,0-.84-.49-1.6-.4-2.76.85-7.49-.26-9.23,1.61,0,.76,1.32.27,1.2,1.2,3-.78,4.58.89,7.22-.4,1-.06,1.25.63,2,.8,8.75,1,16.24.85,24.89,1.61,1-.06,1.24.63,2,.8a8.15,8.15,0,0,1,4.82.4c1.25,0,1.15-1.26,2.81-.8.23.83,1.15,1.3.4,2,1-.07,1.24.63,2,.8,2.55.17,4.39-2.16,6.42-1.2-.13.54-1,.33-1.61.4.07,1.93,3,1,4.82,1.2a8.54,8.54,0,0,0,6,0v-1.6c-1.72-1.55-3.44-1-5.22-2-1.74,0-3.61.13-4.81-.4-.69-.15-.76.31-.81.8-.87-1.4-4.49-.05-5.21-1.61-1.5.34-2.18,1.16-4,.41a3,3,0,0,1-1.2-.81c-4.83.14-8.65-.71-13.65-.4-.66-.94-.25-3-2.41-2.41,3.21-.94,8.2-.1,10.84-1.6,2.35,1.18,6.81.53,10.84.8.68.05,1.41.42,2,.4,5.37-.15,12,.24,18.07-1.2-2-1.22-5.29-1.14-7.63-2,1.08-.92,3.87-.14,5.62-.4a1.87,1.87,0,0,0-.4,1.2c1.32,0,2.84.17,2.81-1.2,4.79.71,8.14-.13,12.84.4,1-.07,1.26.62,1.6,1.21,1.91-.53,3.9.7,6,.8,1.42.06,2.56-.63,4-.4,1-.21,1.43-1,2-1.61,3.11.27,9.32-.32,12,.4,1.77-.22,2.81,0,3.61-.4.38-1.59-2.54.52-3.21-.8h-3.21c-.94-.13-1.51-.63-2.81-.4,2.36-1.39,8.31.82,10-1.21-3.14-.82-5.22-.36-8.43-.8-1.12,0,1,1.1-.8.8-1.92.15-.34-.69-1.6-1.2-1.07,0-2.37.22-2.41-.8-.33.34-1.1.23-1.21.8-.9-1.24-4.35.08-3.61-2.81.24-.23,1.91-.94,2,0,1.57-1,4-1.05,6.42-1.2-.08-1.53-1.82-1.39-2.81-2,1.44-.88,5,.75,6.42,0,.19.85-.57.76-1.2.8.51,1.65,3,.28,4,0h4c1.1-.29.81.8,1.61.8,9.23-1.77,15.79.32,24.88,0,1,.07,1.25-.63,2-.8,9.76-.62,18.82,1,28.1.4,5,1.65,12.51.87,18,2,1.48-.14,1.84-1.37,2.41-2.41,0-1.33-2.26-.41-2.81-1.2.83-.93,2.54.65,3.62.8,1.39.32,1.54-.6,2.81-.4,1.71.83,4.35.73,5.62,2a71.66,71.66,0,0,0,8.42,0c-1.31-1.5-4.77-.85-6.42-2-.47-.61,3.65.64,2.41-.4,2.37-.87,6.29,1.31,8.83.4-.53-1.08-3.21,0-3.21-1.61,2.13-.73,3.67,1.71,6.82,1.21.09-1.29-1.43-1-2-1.61.06-.66,1.68.42,2.82,0-.23,2.37,1.68,2.6,3.61,2.81a1.4,1.4,0,0,1-2.41.8c-1.3-.49-.31,1.3-1.61.81-.9-1.78-4.27-1.08-6.82-1.21v1.61c8,0,18.33,2,28.1.4-1.24.9-3.18,1.11-4,2.41.1,1.24,1.71,1,2,2h1.6c-.12.55-1,.34-1.6.4.39.82,1.54.87,2.81.81.25,1.36,1.78,1.43,2.41,2.41.72,0,.84-.49,1.6-.4-.26,1.06,1,1.33,2,1.6a15.82,15.82,0,0,0,4.81.4c1.46-.29,1.46.69,0,.4h-1.2c0,.39-.49.32-.8.4-1.5.25-2.54-1-3.61,0,1.2,1.61,4.46,1.16,5.61,2.81.72.06.85-.49,1.61-.4.39.41.8.81,1.2,1.21a8.58,8.58,0,0,1,3.62-.4c1.45-.29,1.72-1.76,4-1.21-.95-1.15-3-2.08-4.42-1.6-.15-1.59-2.2-1.28-2.4-2.81,1.51-.31,1.92.49,3.21.4a1.87,1.87,0,0,0-.4,1.2c1.61-.28,2.29.39,3.61.4,1.14-.21-.65-.59-.8-.8.76-1.6,1.77-.57,3.2-1.2-.37-1.64-2.3-1.71-4-2,.08-.32.41-.4.41-.8-1.24-.11-1.81-.87-2.82-1.21,1.3-.51.37-1.76-1.2-1.6-.07-1.21,3.39-.61,1.2-1.61,1.82-1.08,5.42,1.45,8,.4,1.22.49-.28,1.53-.4,2,.11.47,1.77,1.67,0,1.6,1,1.74,2.33.67,4.42,1.21-.42,1.19-1.68,1.54-1.61,3.21-1.76.07-2.06-1.3-3.61-.4.68,1.46,3.34.93,4.41,2-.43,1.33-2.52-1.28-2,1.2-1.5-.51-2.74-2-4.42-1.2.6.73,1.67,1,2,2,1.43-.09,2.4.27,2.81,1.21a8.13,8.13,0,0,1,4.81,1.2c1,.58,1.59,2.27,3.62,1.61.83-1.13-2.36-1.64-2.82-2.81-1.74-.17-3.23-1.21-3.2-2,1.86-.79,3.59,2,6.42,1.61,1,.76,1.68,1.79,3.61,1.6-.26,1.76-2,2.52,0,3.61a3.26,3.26,0,0,1-2.41.8c.15,1.76-1.15,2.07-1.2,3.62-1.08-.28-.78.83-1.21,1.2-1,1.18-2.85,1.43-3.21,3.21-1.39,0-1.89.79-2.81,1.21-1.11-.27,1.12-2.11-1.2-1.61.62-1.42,1.78.21,2.81-.8-.77-2.51-5-.54-5.62.8-1.93-.13-3.36,1-4.41-.4.78-.56,1.89-2,2.8-1.2.79-1.09,1.42-2.33,3.21-2.41-.55-.92,1-1.51,0-1.61-.18-1.11,2.19.32,2-.8.06-1,1.36-.12,1.61,0-.4.54-1.36.52-1.61,1.2.43.92,2.53.16,3.61.41,1.06-.28.85-1.83,2-2,0-1-1.87-.58-.8-1.61-.89-2-4.27-1.61-5.62-3.21-1.17-.1-1.23.91-2.41.81-1.24.49-3-1.55-3.21.4-.78-2.49-4.07-.39-6.42-.8.8.4.91,1.49,1.6,2-1.19,1.76-3.78,1-5.21,0-1.84-.23-2.5.71-4.42.4-1.73,0-1.35,2.13-3.61,1.61-.17,1,.73.87.4,2a21.14,21.14,0,0,0-9.63,2.81,2,2,0,0,0,2,.81c-1.38.57-4.21,1.37-5.21,0-1.81.6-4.79,0-6,1.2-3.63-.15-6.16.79-9.24,1.2-.94.13-.89,1.25-1.6,1.61-3.13.4-4.81-.23-7.63.4-.18.86.58.77,1.21.8.16,1-1.83-.22-1.21,1.21-1.83,0-3.49.25-4.41,1.2-.67-.67-2.36-.32-3.61-.4v-1.6c-1.71-.5-2.16-.15-4,0-.75,0-.25,1.35-.81,1.6a2.58,2.58,0,0,0-2-.4c-.37,1.45,1.58.56,2.41.8,0,.89-1.7.17-2.41.4-.89.22-.57-.76-1.2-.8s-1.53.19-1.61-.4c-.79,0-.51,1.09-1.6.8-.19,1-1.27,1.14-2,1.61,2.69,1,6.83,2.35,9.64,2a9.41,9.41,0,0,1,2.4.81c2.63-.32,4.28-1.61,7.23-1.61.4,1.21-.9.71-1.61.8,1.9,1.21,3.82-1,5.62-1.2-.3-.76-1.2-.28-.4-1.21,1.82-.25,1.82.28,2,.81h2c.19-.86-.57-.77-1.2-.81,3.22-.34,6.75-.11,10.43-.8,1.78-1,3.13-2.49,6.43-2,1-.07,1.24.63,2,.8,2.88.34,4.33-.76,6-1.61-.61,1.53-2.31,2-4,2.41-.68.66-1.81.87-2.41,1.61h-1.6c-1.38,1.3-3.68,1.67-4.82,3.21a3.85,3.85,0,0,0,2.81-1.61,6.22,6.22,0,0,0,6-1.6c4.88.83,9.25-2.23,14.45-2.41-1.06,1.21-2.86,1.69-5.22,1.61-1.22.13-2.82,2-4,.8-1,1.6-3.81,1.27-4.82,2.81-2.32-.75-5,1.36-7.63,1.6-.81-.12.09,1.16.41,1.21-.6.82-3.49.56-3.62-.4-2.72,1-4.76,2.73-8,3.21.09.7.69.91,1.6.8-2.13.28-3.5,1.32-5.62,1.6-.46.15-1,.71-.4.81.13,1.06-2.25-.38-1.6,1.2-3.48.1-4.29.44-7.63.4-1.26-.19-.91,1.23-2.41.81-1.4.46-1.71,2-3.61,2,2.08,2.6,5.09.28,7.23,2.41-.54.8-1.79.89-2.82,1.2.05-.75,1.33-.27,1.21-1.2a48,48,0,0,1-11.64,2,1.1,1.1,0,0,0,1.2.8c-.76,1.75-2-1.36-2.4,0-1-1.23,2.37-1.63,4-1.61.61-.35-.11-.6.4-1.6a10.35,10.35,0,0,1,3.21.8c-.55-.92-1.65-1.29-2.41-2-.59.75-2.07.61-2,2a6.65,6.65,0,0,0-5.22,2c.34.59,1.29.58,2,.8-.1.44-.8.27-.8.8.25.82,1.87.27,2,1.21.76.17,2.42-.55,2,.8-2,.09-3-.71-5.22-.4-2.92-1.09-4-.14-6.42-1.2-1.75.65-4.11.71-6,1.2.79.68,2.5.44,3.61.8a2.6,2.6,0,0,1,.4,2c1.35.09,4.74-.53,3.21,1.2-.58-.18,0-.35,0-.8a3.65,3.65,0,0,0-2,1.6c-1.9-.61-5.18.46-6.83-.4-.25,1.36-2.84.37-3.61,1.21-1.75-.65-5.13-.62-6.42.4-.21-1.09-.29-.11-1.61-.8H622.1c-1.12,0,1,1.09-.8.8-.36-1.1-1.78.78-.8-.8-2.14-.1-2.16,2.26-2.41,0a14.87,14.87,0,0,1-6.82-.41c-.84.23.59,1.21-.81.41a.41.41,0,0,0,0,.8c-.05.89-1.7.17-2.4.4.12-.55,1-.33,1.6-.4-.23-1-1.52-.89-2.41-1.21-.07.61-1,1.63-2.81,1.61V89.84a3,3,0,0,0-.8,1.21c0-1.36-1.93-.74-2-2-.83.27-2.74,1.5-3.61.4-1.22.83-1.26.53-2.81,1.21.5-1.12-1.3-1.12-.8,0-.25-1.36-2.84-.37-3.61-1.21-.71.5-1.17,1.25-2,1.61-1.26.19-1.57-.57-2.41-.8-1,.24-2.91-.51-3.21.4-.53-.14-.63-.71-1.2-.81-5.09-.25-6.47-.88-11.24-.8a52.36,52.36,0,0,1-6.42.8c-.46-1.26.63-1,.8-1.6-.51-1.59-3.08,1.21-2.81-.8a1.87,1.87,0,0,1-1.2.4c-.56.4.17.66-.81,1.2-.87.26-1.27-1.13-1.2.4-.39,0-.31-.49-.4-.8-.39,0-.31.49-.4.8-2.74-.53-3.2-.85-6-1.2-.19-1.65.85.16,2-.4-.58-1.77-1.37-1.78-2.81-2-.64-.17-1.34,1.5-.4,1.61-.79,1-2.66.81-4.41.8-.69.15-.76-.31-.8-.8-2.79-.3-2.76,0-5.62-.81-3.92.74-8.44.32-10.44-2-1,.42-2.33-.44-3.61-.4-.62,0-.73.43-1.21.4-1.26-.09-2.81-.8-4-.8-.62,0-.73.45-1.2.4-.9-.1-1.8-.67-2.81-.81-1.37-.19-3,.09-4.42,0-5.84-.33-12.37-1.26-17.66-.8-2.9-.46-3.35-.91-6.82-.8-2.37,1.44-6.15-.17-9.23,1.2-4.47-2.55-10.23-1.33-15.65-2.81a3.28,3.28,0,0,1,2.4-.8c-.62-1.52-3.34-.94-4.81-1.61-2.57,1.34-5.49-.29-9.23,0a10.71,10.71,0,0,1-3.22-1.2,6,6,0,0,1-3.21,0c1.59-1.14,3.16-.49,5.22-.4,1.11.14,2.82-1.15,3.62,0,.4-.26.41-.92,1.2-.8.8-.14,1.25.08,1.2.8,1.46-.67,3.65.35,6.83,0,1.44.45,3.3,1.9,4.41.4-1-1.16-3.81-.47-4.82-1.6-3.3-.18-7.36.41-10-.41a7.47,7.47,0,0,0-3.21.41c-4.71-1.82-10.18,0-14.45,0-.08,1.82,3.6-.12,3.21,2a10,10,0,0,1-6.42-.8c-.53.41-1.48.39-2,.8-2.81-1.08-6.25,0-8.43.8,1.42,1.21,2.77.11,5.22.41.65-.12.69.38,1.21.4h4.81c.95.52,2.78.17,3.61.8,1.12.36,3.77-.82,3.62.8-4.35-.91-9.82-.08-13.65.8-1.08.28-.78-.82-1.2-1.2-3.67-.87-8.22.71-12.85-.4.56-1.19,2.91-.57,4-1.2-.15-.69.31-.76.8-.81-.08-.53-1.67-.74,0-.8-4.24-1.4-9.88.86-13.65,0-1.36.11-2.3.64-4,.4-1.28.45-.76-.08-1.2.8-2.34-1-5.7-1-8.43-1.6a9,9,0,0,0-2.41.8c-2.58-1.41-6.84,1.28-8.83-.8-1.5.51-2.37,1.64-4.82,1.2,2.41,1.85,7.81,2.49,11.24,2a1.1,1.1,0,0,0-1.2-.8c3.29-.75,8.5,0,12,.4a1.77,1.77,0,0,0,1.6-.8c.87.33,1.37,1,2.81.8a2.58,2.58,0,0,1,.4,2c1,0,.49.3.41.81-1.08-1.51-5.67-2-5.62.8-1.69.06-2.25-.73-3.62,0,1.42,1.21,3-.15,4.42,1.21h4.41c.78-.17,1.45.27.81.4H390.92c-.94-.13-1.5-.64-2.81-.4.46-1.27-.63-1-.8-1.61-1.18-.11-1.23.91-2.41.8-3.39-.78-8.27-3.35-12-1.2-3.54.09-4.7.21-7.63-.4-1.4-.33-1.23-2.25-3.61-1.61-1.27-.55,1.42-.4,2-.4a9,9,0,0,0,2.41-.8c2,0,4.23.21,5.62-.4-.17-.84.27-1.07.4-1.61-.27-1.46-2.76-.73-3.21,0-2.12.24-3.45-.3-5.22-.4-.78-.77.42-1.62.4-2.81-5,.23-10-.35-13.24.4.4,1.13,1.7-.11,2.4,0,1.26-.29,2,2,2.41,1.21,1.49,1.12-1.87.77-2.81.8h-4a7.48,7.48,0,0,0-3.21-.4c.26-.41.92-.42.8-1.21-1.5-1.64-6.73-1.47-9.23-.8a79.84,79.84,0,0,0-11.64.4c-1.37.18-2.33-.43-3.61-.4-.77,0-1.15.31-2,.4-1.29.14-3.21-.56-4,.8.69,1.72,4.79,0,6,1.21,1.2-.81,3.79-.23,5.62-.4-.05.75-1.33.27-1.21,1.2,2.5,1.2,5.26-.06,8,0s5.9,1,8.83,1.2a48.39,48.39,0,0,0,10.44-.4c1.64.1,2.26,1.22,4,1.21.3,1.37-1.63.51-1.21,2a30.59,30.59,0,0,0-7.22,0c-.35-1.28,1-.83,1.2-1.6-.61-1.79-2.5-.14-3.21.4h-2.81c0,.39.49.31.81.4-2.83.32-6.87,1.34-9.23.8-1,.89-3.08.67-3.22,2.41a6.38,6.38,0,0,0-4,1.21,170,170,0,0,1-32.11-.81,25.08,25.08,0,0,0-2.81.41c-7.18-.57-14.11.74-21.67,1.6-1.39.32-1.54-.6-2.81-.4-2.7.74-6.84-.39-10.44,0-1,.11-2.11.75-3.21.8-2,.09-4.23-.88-6.42-.4-.89.22-.57-.77-1.2-.8-10.58,1.11-20.12-.06-30.5.8.12.95,1.9.24,1.6,1.61-2.53.12-4.83,0-6-1.21-5-.33-7.14.78-11.24,0,3.22-1.07,8.33-.24,10.84-2-.5-1.51-3.69-.33-4.42-1.61-1.29.58-3.36.38-5.21.4-.21-1.8-2.53-1.49-4-2,3.65-.63,7.09-1.47,11.64-1.2a34.87,34.87,0,0,1,6.83-1.61c-.56-1-2.19-1-3.62-1.2-3-.32-7.22.35-9.23,0-2.66.81-6.73.22-10,.4-8.82.84-18.11-.07-27.69-.4-.95,0-1.19-.69-2.41-.4a1.93,1.93,0,0,1-1.21.4c-.45.08-.22.4,0,.4-1.18.83-2.89,1.12-4.41,1.61a3.36,3.36,0,0,0-.4,2.4c-4.42,0-7.68.6-10.84.81.57.59,1.28.86-.4.8.12.55,1,.33,1.6.4.74.31-.24.43-.8.4h-1.6a10.17,10.17,0,0,1-4,.41,63.38,63.38,0,0,0-7.22,2c-.39,0-.31.49-.4.8-5,.83-12.12.41-18.47.81-2.71.17-5.52.39-7.62,1.6-3.27-.69-9-.87-10.84,1.21-1.39,0-1.89-.79-2.81-1.21-4.64,0-9.44-.07-12.84,1.21-.89.22-.57-.77-1.21-.81-3.73-.47-9.7-.18-12-.8,1.65-.8-.41-1.37-2-1.2-1.23-.62,1.74-.36,2.41-.4,1-.61,3.11-.1,4-.81C73.68,84.8,72.26,85,71,85c.25-1.36,2.7-.51,3.61-1.2,6.43,1.66,13.12-1.8,19.27-.41,2.88-.91,5.08,0,7.22-1.6-.25-1.49-2.25-1.23-4-1.21-.75-.09-2.66-1-3.21,0-.25-.68-1.21-.66-1.61-1.2-3.94.33-6.48-.74-10-.8.62-1.52,3.85-.44,5.22-1.21,1.47.94,3.81,1,5.62,1.61a11.56,11.56,0,0,0,4-1.61c-.44-.82-1.93-1.64-.8-2.81-.79.34-.92-.71-1.21-.8-1.43-.44-3.42.31-4.81.4.45.48,1.14.73.8,2-2.69.41-3.34-1.21-5.62-1.2.53-.67,1.78-.63,2.41-1.21-2.67-.67-4.29-2.4-7.63-2.41-.54,1.14,2.13,1,.8,1.61-.45.07-.22.4,0,.4-1.63,1.47-4.71-.34-7.62,0-2.11-1.24-5.4-1.29-7.63-2.41H62.61a44.07,44.07,0,0,0-13.24-4.81c.11-.65-.38-.7-.4-1.21H45.76c-.63.14.35.71-.41.8a1.1,1.1,0,0,0-1.2.81c-6.79,1-9.62-3.95-16-2-1.21-.48-2.92-.45-3.22-.8-.62.14.36.7-.4.8-1.81.3.62-1.1-1.2-.8.28-1.08-.83-.78-1.21-1.21a10.29,10.29,0,0,1,.41-2.81c-.69-.78-2.08-.86-3.62-.8-.72-1,.18-1.21-.4-2.41-1.64-.39-1.62,0-3.61,0-1,0-.49-.3-.4-.8-1.49-.23-2.33,1.24-3.21.4a3.67,3.67,0,0,0,1.6-2.41c-1.56-.58-3.78-.49-5.21-1.2,2.45-1.2,3-.34,6-.4a4.06,4.06,0,0,0,2.41-1.21c1.18-.28,2.83-.11,3.21-1.2-1-1.13-3.54-1.57-5.22-.8-.87.58-1.25-.75-2-.81-1.53-.11-3.4,1.19-4.41,2H4a1.73,1.73,0,0,0-.8-1.6,14.39,14.39,0,0,1,6-2.41c.41-.39.81-.8,1.21-1.21,2.29.39,3.68,1.67,6.82,1.21a12.18,12.18,0,0,1,3.61-1.61c1.68-.38,3.83.62,4.82-.8-.41-.53-.38-1.49-1.21-1.6.16-1-1.83.22-1.2-1.21,2.16.32,5.76,0,8.83,0,1.88-.8,2.93-2.42,4.81-3.21-2.79-1.47-6.81-1.09-10.43-.8,0,.59,2.38.58.4.8.31,1,2.59.09,2.41,1.6-1.61-.29-6-.24-6.42,2-1.83.09-2.81-.67-4-1.2.81-2.14,4.1-1.79,5.22-3.62h2c1.41-.17.82-1.72,1.2-2a13.79,13.79,0,0,1,7.23.8,47.24,47.24,0,0,0,6.82-.8c2.45.13,4.48,1.57,5.62,0,1.78,0,2.36,1.12,4.42.8-.07-.47.08-.71.39-.8.19-1.26-.85-1.29-2-1.21-1.28-.55,1.42-.39,2-.4a5.58,5.58,0,0,0-2-2c-1.32.43-3.29.2-4.42.81-1.62-.39-2.46-1.56-4.41-1.61,1.55-2.05-1.18-2.66-.8-4.81-1.3.09-1.7-.71-3.22-.4a3.38,3.38,0,0,1,.41-2.41c1.9,1,4.25,1.68,5.62.4.49-1.3-1.3-.31-.81-1.61,1-.91,2.83-.16,3.62.4-.45-.57-.44-1,.4-1.2-.56-1.49-2.79-.29-4-.8a5.61,5.61,0,0,1-1.6-2,16.83,16.83,0,0,1-4.82-.4c-1.08-.72-.77,1.77-1.2.4-1,0-.68-.49,0-.4.56-1.53-2.67-1.3-1.61-2,0-1.3,2.43-1.47,3.21-.8.67-.8,0-.51,0-1.61,1.23-.29,1.18.7,2.41.41.89-.45,1.09-1.59,2-2,5.29-.59,8.11-3.66,14.05-3.61,1.08-1.29-1-1.42,0-2.81,3-.42,3.07,2,5.21,2.41,0,1.09-.67.8,0,1.6,1.39.32,1.55-.6,2.81-.4C65,10.56,69,11,73.45,11.18c4.19,1.57,9.41,2.09,14,3.21-1.9,1.47-5.33-1.07-7.23.4-1-.89-2.86-.88-4.81-.8.58,1.64,2.13-.18,2.81,1.2h2.4a14.52,14.52,0,0,0,6,2c-.09.43-.79.27-.8.8,2.22,1.67,6.75,1,9.63,2,.18-1.52-2.09-.58-2.4-1.61-1.19-.6,1.71.35,2.8,0C100.5,20,104.74,21.49,111.58,21.61Zm61,4c-.11-.11-.61.19-.4.4S172.79,25.84,172.58,25.63ZM729.26,38.87c-.64,1.12,1.74,1.11,1.61.4C730.33,39.15,730.11,38.7,729.26,38.87ZM40.94,16.4c.58-.22,2.07.47,2-.4-.48-.07-1.14.06-1.21-.41.22,0,.46-.32,0-.4C41.65,15.76,41.08,15.87,40.94,16.4ZM49.77,20c-.11-.11-.61.19-.4.4S50,20.22,49.77,20Zm-3.21,1.2c-.11-.11-.61.2-.4.4S46.77,21.42,46.56,21.21Zm1.6.81h-1.6C43.43,22,48,23.13,48.16,22Zm53.38.8c-.11-.11-.6.19-.4.4S101.75,23,101.54,22.82Zm2.41,0c-.53-.05-2.9-.06-1.6.4,1.85-.37,3.28,2.55,4.41.4A15.38,15.38,0,0,0,104,22.82ZM125.62,24a1.75,1.75,0,0,0,1.61-.8C126.52,23.31,125.22,22.82,125.62,24Zm-14.44-.4c-.32.09-.8,0-.81.4C110.69,23.93,111.17,24,111.18,23.62Zm18.46,0c-.47.06-1.14-.07-1.21.4C128.91,24,129.57,24.09,129.64,23.62Zm-16.06,2.81c.56-.65,1.42-1,1.21-2.41-1,.25-2.91-.5-3.21.4C113.21,24.13,112.93,25.74,113.58,26.43ZM571.93,24c-.11-.11-.61.2-.4.4S572.14,24.23,571.93,24Zm9.23,0c-.11-.11-.6.2-.4.4S581.37,24.23,581.16,24Zm80.28.4c-1.39.33-1.7-.75-2.41,0-.3,1.24,1.1.78.8,2,1.71-.35,3.56,1.23,4.81,0A4.24,4.24,0,0,1,661.44,24.42Zm-560.7.81a1.79,1.79,0,0,0,1.61-.81C101.64,24.52,100.34,24,100.74,25.23Zm8.43,0c2.67.83,2.84-1.43,0,0Zm8.83-.4c-.71.23-2.36-.49-2.41.4C116.11,25.78,118,25.92,118,24.83Zm1.6.4a.4.4,0,0,0-.8,0C119.25,25.19,119.43,25.81,119.6,25.23Zm545-.4c-.1-.12-.6.19-.4.4S664.85,25,664.64,24.83Zm2.82.8c-.64-.17-.35-1.26-1.61-.8C665.43,25.84,667.2,26.6,667.46,25.63Zm-70.24-.4c-.11-.11-.61.19-.4.4S597.43,25.44,597.22,25.23Zm70.64.8c.93,1.13,5,2,5.61,0C671.43,25.94,669.26,24.51,667.86,26Zm-552.67-.4c-.11-.11-.61.19-.4.4S115.4,25.84,115.19,25.63Zm14.05,1.2c.53.52,1.49.53,1.6-.4C130.31,25.91,129.35,25.9,129.24,26.83Zm447.91,1.61c-.11-.11-.61.19-.4.4S577.36,28.64,577.15,28.44Zm6.42.4c-.45,0-.62-.58-.8,0C582.77,29.24,583.47,29.34,583.57,28.84Zm50.57-.4c-.31.09-.79,0-.8.4C633.65,28.75,634.13,28.83,634.14,28.44Zm-363.22,1.2a.41.41,0,0,0-.81,0C270.56,29.6,270.74,30.22,270.92,29.64Zm-78.67,1.61c2.6-.37,4.26.73,5.22,0C196.1,31,193,29.56,192.25,31.25Zm507.31.4c1.09-.25,3.19.51,3.62-.4C702,31.26,700,30.05,699.56,31.65Zm-512.93-.4c-.11-.11-.61.19-.4.4S186.84,31.46,186.63,31.25Zm152.92.8c-.11-.11-.61.19-.4.4S339.75,32.26,339.55,32.05Zm248.44,0c-.31.09-.79,0-.81.4C587.5,32.36,588,32.44,588,32.05Zm37.32.4c1.22,1.1-1.09-1.22,0,0Zm-328.71,2a14,14,0,0,0-4-1.61c-.53,0-.37.71-.8.81-.69-.92-3.07-.15-4.42-.41a6.46,6.46,0,0,1-2.81.81c-2.49-.45-4.64-1.25-7.22-1.61-1.11.63-2.88.61-4,1.21,4,2,9.63-.18,13.25,2,.94,0,1.18-.69,2.41-.4a9,9,0,0,0,2.4.8c1.71-.49,2.17-.14,4,0,.43.38.12,1.48,1.2,1.21,2.23-.11,3,.64,4.82,0,1.05.12.31-1.56,1.6-1.21a6.54,6.54,0,0,0,2.81.81c.85-.5,1.57-1.12,2.41-1.61,3,.74,7.21.29,10.44.8,0-1.72-2.41-1.07-4-1.2-1.13-.6-1.71.09-3.21-.4.51-.6,1.64-1.21.8-2-2.75.94-4.59.48-8,.4-.52,1,1.18,1.67,0,2C302.41,34,299.07,34.67,296.6,34.46Zm120.81-2h-1.2c-.31.09-.79,0-.81.4C416,32.63,417.48,33.32,417.41,32.45Zm163.75,0c-.47.06-1.14-.07-1.2.4C580.43,32.79,581.1,32.92,581.16,32.45Zm3.62.4c0-.22-.33-.45-.4,0C584.37,33.08,584.7,33.31,584.78,32.85Zm1.6-.4c-.11-.11-.61.19-.4.4S586.59,32.66,586.38,32.45Zm12.44.4c0-.22-.32-.45-.4,0C598.42,33.08,598.75,33.31,598.82,32.85Zm106.76-.4c-.31.09-.79,0-.8.4C705.09,32.76,705.57,32.84,705.58,32.45ZM452.73,34.06c-.86-.75-2.94-.27-4.42-.4-1.08-.88-1-.45-2.4-.81-2.93,1.35-5.55-1.39-7.23,1.21C443.49,35,450.8,34.3,452.73,34.06Zm-40.94-.81c-.11-.11-.61.2-.4.41S412,33.46,411.79,33.25Zm176.2.41c.48-.42.09-.29-.4,0S587.52,34.06,588,33.66Zm4-.41c-.47.07-1.14-.07-1.2.41C591.27,33.59,591.94,33.72,592,33.25Zm-386.1.41c-.11-.12-.61.19-.41.4S206.1,33.86,205.9,33.66Zm222.35.4c-1.59.14-2.46-1-3.21.4C425.9,34.35,429.32,34.77,428.25,34.06Zm24.88-.4c-.13,2.66,3.86-.92,0,0Zm4.82,1.2c1.71-.57,1.7.23,3.61-.4h3.21c.42,0,.32-.52-.4-.4h-1.61c-.51,0-.55-.52-1.2-.4-1.32.24-3.81,1.1-5.62,0C455.32,35.34,458,33.72,458,34.86Zm-45.36-.8c-.31.09-.79,0-.8.4C412.1,34.37,412.58,34.45,412.59,34.06Zm2.81,0c-.31.09-.79,0-.8.4C414.91,34.37,415.39,34.45,415.4,34.06Zm3.62,0c-.11-.12-.61.19-.4.4S419.22,34.26,419,34.06Zm2.4,0c-.58.22-2.07-.47-2,.4A1.29,1.29,0,0,0,421.42,34.06Zm11.24,0c-.11-.12-.61.19-.4.4S432.87,34.26,432.66,34.06Zm22.88.4c-.11-.11-.61.19-.4.4S455.75,34.67,455.54,34.46Zm89.9,0h-2.81c-.31.09-.79,0-.8.4C542.92,34.61,545,35.37,545.44,34.46Zm-314.26.4c-.31.09-.79,0-.8.4C230.69,35.17,231.17,35.25,231.18,34.86Zm.8,0c-.11-.11-.6.19-.4.4S232.19,35.07,232,34.86Zm97.53,0c-1.13.07-2.75-.35-2.8.8h5.61C332.65,34.14,330.43,35.15,329.51,34.86Zm8,0c-.11-.11-.61.19-.4.4S337.75,35.07,337.54,34.86Zm1.21,1.2c0-.42-.19-1-.41-.4C338.33,36.09,338.53,36.68,338.75,36.06ZM649,35.26c-.31.09-.79,0-.8.4C648.5,35.57,649,35.65,649,35.26Zm27.7,0c-.11-.11-.61.19-.4.4S676.89,35.47,676.69,35.26Zm-357.21.4c-.11-.11-.61.2-.4.4S319.69,35.87,319.48,35.66Zm17.26,0c-.11-.11-.61.2-.4.4S337,35.87,336.74,35.66Zm346,0c-.11-.11-.61.2-.41.4S682.91,35.87,682.71,35.66Zm-352,.4c-.47.07-1.14-.07-1.21.4C330,36.4,330.65,36.53,330.72,36.06Zm342.75,0c-.11-.11-.6.2-.4.4S673.68,36.27,673.47,36.06ZM468,36.46c-.31.09-.79,0-.8.41C467.49,36.78,468,36.86,468,36.46Zm59.4,0h-4.81C522.81,38.52,526.8,37.61,527.38,36.46ZM56.19,38.07c-.11-.11-.61.19-.4.4S56.4,38.28,56.19,38.07Zm6,.8c.86.73,2.19.36,2.41.81.8.81-.18.78-.4,1.6a7.48,7.48,0,0,0,3.21.4c.55-1.75-1.56-.85-1.2-2.41.62,0,1.39.06,1.2-.8C65.06,38.86,63.32,37.59,62.21,38.87Zm7.63-.4c-.11-.11-.61.2-.4.4S70.05,38.68,69.84,38.47Zm37.72,1.61c.11.94,1.78.24,1.61-.4-1.61.27-2.29-.39-3.61-.41C104.94,41,107.1,40.58,107.56,40.08Zm28.1.4c.6-.07,1.48.14,1.6-.4-.53,0-.36-.71-.8-.81C136.58,40.06,135.92,40.07,135.66,40.48Zm-30.5-.8c-.12-.11-.61.19-.41.4S105.36,39.88,105.16,39.68Zm4.81,0c-.11-.11-.61.19-.4.4S110.18,39.88,110,39.68Zm32.51,0c-1.09,0-.8.66-1.6,0C140.25,40.88,143.11,40.88,142.48,39.68Zm-67,.8c0,1.41-.59.11-1.61.8a7.48,7.48,0,0,0-3.21-.4c-.82.78-2.65.56-2.81,2,.21.59.59,1,.8,1.6,2.18.44,2.53-1,4-1.2,2,.52,2-1,3.61-.8,0,.75,1.33.27,1.2,1.2a3.44,3.44,0,0,0-.4,2.41c2.52.56,8.36,1.19,9.23-1.21.58-1.74-1.37-1.84-.4-2.8-1-.8-3.59.11-4.41-.81.6-.07,1.48.14,1.6-.4C81,40,77,40.92,75.46,40.48Zm-15.66.8c-.39,1.62,2.4,1.62,2,0A2.51,2.51,0,0,0,59.8,41.28Zm75.06,1.21c-.25,0-.48-.06-.4-.4.31-.1.79,0,.8-.41-1.22.12-1.56-1.28-2.41-.4C132.69,42.28,134.78,43,134.86,42.49ZM540.63,52.92c-3.84,1.12-10.18-.28-14,.8-3.32-1.09-8.39,0-13.24-.4-.82.12-.79,1.09-1.61,1.21-1-.53-2.27-.67-3.21-1.21-11.27.74-23.1,1.63-32.11,1.21-.75.09.23.66-.4.8H473.6c-.7.9-3.09.12-3.21,1.6-.29,1.09,1.89-.28,1.61.81-1.15.94-2-1-3.22-1.21-3.91.43-7.61-1.26-10.43.4,4.85,2.5,12.9,3.52,19.27,3.22,1.24,0,1.14,1.26,2.8.8.51-1.74-2.67-1.85-1.6-2.81,3.3-2,10.05-1.55,14.05-1.61.94-.12.74-1.39,2-1.2a33.91,33.91,0,0,1,10.84,2.41l-2,2c1.95,1,5.53.36,6,2.81,4.26.16,6.53,2.31,9.64,3.62,1.39-.33,1.54.59,2.81.4s1.63.94,2-.4c-1-.25-2.91.5-3.21-.41.38-.69,1.48-.65,1.21-2a6.44,6.44,0,0,0-4.82-.4c.11-1.23-1.29-1.57-.4-2.41a3.44,3.44,0,0,0,2.41.4,9,9,0,0,1,5.21-2c.13.93-1.16.45-1.2,1.2,3.75.42,7.65-.81,11.64-.8,5.4,0,11,.91,16,.41.74-.08,1.58-.71,2.41-.81,2.21-.26,3.55-.13,4.82-.8,2.43.71,5.43-.66,8,.4a19.88,19.88,0,0,1,4-1.2c1.32.12,2,1.39,2.81,0-1-1.75-3.24-.71-4.82-1.21a1.12,1.12,0,0,1-.8,1.21c.68-2.29-1.64-1.57-2.41-2.41.41-1.18,1.25-1.3,1.2-2,2.09.21,3.22-.53,4.82-.8,0-1.52-2.35-.6-2.41-2a21,21,0,0,0,2.41-.8c-5.85-1.45-15.81-.68-20.07-2.41.9-1.29,3,0,4.82,0,3.15-1,6.52.83,8.83.4.24-2.51-2.52-2-4.42-2.41-.91-.95-2.44-1.3-4.41-1.2-1.06-1.35-4-.79-5.22-2-3.46,0-5.66-1.31-9.23-1.21,0,1.72,1.91,1.57,1.2,4,1.41,1,1.27-1.25,2,.4-1.32,1-3.21,0-4.82,0-1,.16-1.21,1.2-2.4,1.21a17.49,17.49,0,0,0-10-.4c-1.76-.09-4.3-1.19-4.81.8a13.11,13.11,0,0,0,8.83,1.61c1.94,1.66,7.42-.2,8.83,2-1.48,1.47-5.57-.4-7.63,1.21,3.9,2.19,11.16-1.08,15.25,1.2,3.14-.72,8.11-2,10,.4-2.92.32-5.44-.34-8,1.21.25.68,1.21.66,1.6,1.2-2.6-.5-5.17-1.23-8-.4.27-.71.44-1.24,0-1.61C543.12,54.39,541.49,53,540.63,52.92ZM51.77,42.49c-.48-.09-.24-.45,0-.81-.87-.22-3.28-1-4,0C49.58,41.85,50.88,43.56,51.77,42.49Zm36.53.4c.83-.24,2.64.49,2.81-.4-.31-.09-.47-.34-.4-.81C89.15,41.33,89,42.35,88.3,42.89Zm53.78-1.21h-1.2c-.48.06-1.14-.07-1.21.41C140.38,41.85,142,42.57,142.08,41.68Zm601.63,0c-.11-.11-.61.2-.4.41S743.92,41.89,743.71,41.68Zm-676.28.41c-.31.08-.79,0-.8.4C66.94,42.39,67.42,42.47,67.43,42.09Zm653.41,0c-2.57-.47-.88,1.22,0,0Zm-663.44.4c-.32.08-.8,0-.81.4C56.9,42.8,57.38,42.88,57.4,42.49Zm67.82,10c1.67-.57,3.1,1.14,4,0-.6-.07-1.48.14-1.61-.4,1.74.13,2.12-1.09,2.81-2,1.37,0,2.8-.12,3.21.8-.6.07-1.48-.14-1.6.41.24.55,1.54.06,1.6.8-.53-.06-2.9-.06-1.6.4,1.9-.16,2.89.85,4.41,0,.63-1.43-1.36-.24-1.2-1.2-.21-.6-.6-1-.8-1.61,0-.63,1-.32.8-1.2-.19-2.22-3.7-1.12-5.22-2,1.54.07.15-.33.4-1.21-4.1.54-8.12.91-12.44,0,.59,0,3.28.16,2-.4-1.28.35-1.53-.35-2-.8-1.15,1-4.39-.11-5.62.8,0-.51.51-.55.4-1.2-6.52-.5-11.51-.87-16.86-1.2-1.32.68-3.13.87-4,2-.53-.05-2.9-.06-1.6.4a19.55,19.55,0,0,1,6.42.8c3.84.22,6.47-.36,8.83.81-1.48,0-1.78,1.17-2.41,2,5.75.93,12.5.88,19.26.8-1.09,1.11.59.37.81,1.2a11.4,11.4,0,0,0-4.42.81c.6.07.37,1,.4,1.6A7.92,7.92,0,0,0,125.22,52.52Zm16.86-9.63c-.53,0-2.21-.76-1.2,0C141.35,42.94,141.79,43.6,142.08,42.89Zm576.75-.4c-.31.08-.79,0-.8.4C718.34,42.8,718.82,42.88,718.83,42.49Zm-567.92.4c-.47.06-1.14-.07-1.2.4C150.18,43.22,150.85,43.36,150.91,42.89Zm-102.75,2c1.13-2.06-1.9-1,0,0Zm102.35-1.2c-.31.09-.79,0-.8.4C150,44,150.5,44.08,150.51,43.69Zm-30.91.4c-.11-.11-.6.19-.4.4S119.81,44.3,119.6,44.09ZM49,45.29c1.45.15,1.91,1.3,4,.81C52.69,44.24,50.19,44.29,49,45.29Zm111.17-.8c-.11-.11-.61.2-.4.4S160.35,44.7,160.14,44.49Zm7.23.4c-.71,0-1.39-.41-2-.4-1.58,0-3.1.8-4.82,0,.12.79-.54.8-.8,1.2,2.65.66,5,3.75,8,1.61.92,1.08,2.46,1.56,4.41,1.61,1.08-1-.49-1.21-.4-2.41.53-.4,1.49-.38,1.61-1.21A14.32,14.32,0,0,0,167.37,44.89Zm-103.95,0c-.11-.11-.61.2-.41.4S63.62,45.1,63.42,44.89Zm1.2,1.21c.71-.23,2.36.48,2.41-.41C66,45.39,65.18,45.1,64.62,46.1Zm-.8-.41c-.11-.11-.61.2-.4.41S64,45.9,63.82,45.69Zm25.68,0c-2.26-.25-2.93,1.08-4.41,1.61,2.11.52,3.23,0,5.62-.8A1.12,1.12,0,0,1,89.5,45.69Zm-67.83.41c-.31.09-.79,0-.8.4C21.18,46.41,21.66,46.49,21.67,46.1Zm.81,0c-.11-.11-.61.19-.41.4S22.68,46.3,22.48,46.1Zm152.91,2c1.9,0,3.81.07,4.42-1.2C178.36,46.2,175.22,45.36,175.39,48.1Zm346-1.6a2.57,2.57,0,0,0-2-.4C518.74,47.31,521.43,47.15,521.36,46.5Zm-384.5,1.2c1.17-.11,1.38.1.81.81,1.28-.35,1.24.63,2,.8.62-1,3.3.08,3.21-1.61-1.68-.14-3.78-.31-3.61-1.2C139,48.28,137.11,45.92,136.86,47.7Zm-118-.8c-.11-.11-.6.19-.4.4S19.07,47.11,18.86,46.9Zm3.62,0H20.07C17.61,47.13,22.52,47.86,22.48,46.9Zm74.25,2c3.11-.7,4.2.45,6-.81C102.19,46.5,96.17,45.85,96.73,48.91Zm49-1.21c.23,0,.46.33,0,.4s-3.28-.15-2,.41c4.63-.59,7.69,1.45,10-.81A10.89,10.89,0,0,0,145.69,47.7ZM181,47.3c-.11-.11-.61.2-.4.4S181.22,47.51,181,47.3Zm1.61,0c-1.47.11-1.17.24-.4.4-.72-.15,2.38.85,3.21,0C184,47.65,183.88,47.21,182.62,47.3Zm-163.76.4h-1.2c-.31.09-.79,0-.8.4C17.44,47.88,18.93,48.57,18.86,47.7Zm74.26.81c-.38.82-2.07.33-2,1.6,1.16.87,3.6.33,4.41-.4.09-.76-.45-.89-.4-1.61C94,47.77,94.08,48.67,93.12,48.51Zm-4,0c-.11-.11-.61.19-.4.4S89.31,48.71,89.1,48.51Zm1.21,0c-.12-.11-.61.19-.41.4S90.51,48.71,90.31,48.51Zm114.78.8c0,.88,1.71.17,2.41.4-.24-1.37-2.34-.87-3.61-1.2h-.8C202.68,49.85,204.34,49.13,205.09,49.31Zm-182.61-.4c-.11-.12-.61.19-.41.4S22.68,49.12,22.48,48.91Zm81.87,0c-.11-.12-.61.19-.4.4S104.56,49.12,104.35,48.91Zm134.06,1.6c-.91-.22.48-.63-.41-1.2-2.21.07-2.81-1-4.41.4,0-.72-.4-.94-1.2-.8-1.29.05-1.2,1.48-2.41,1.6-3.75-.49-6.53-1.91-10.44-1.2a2.63,2.63,0,0,1-1.6,2c1.71-.12,2,1.16,2.81,2a7.64,7.64,0,0,1,3.21.4c3.62-2.26,11.52-.25,15.25-2.4C238.08,51.31,240.17,50.22,238.41,50.51Zm1.2-1.6c-.11-.12-.61.19-.4.4S239.82,49.12,239.61,48.91ZM244,52.52c1.81.07,3.57.09,4-1.2a1.1,1.1,0,0,1-1.2-.81c1-1.09,4.89.61,5.21-1.2-.68-1.26-2.81.45-3.21-.4-.09.31,0,.79-.4.8a5.38,5.38,0,0,0-5.22,0c-.79-.18-2.48-1.49-3.21-.4.8.27.92,1.22,1.61,1.6,1.39.3,3.8-.44,4,0A2.23,2.23,0,0,0,244,52.52Zm10-3.61c-.11-.12-.61.19-.4.4S254.27,49.12,254.06,48.91Zm-232.79.4c-2.57-.47-.88,1.22,0,0Zm197.07,0c-.11-.11-.61.19-.4.4S218.55,49.51,218.34,49.31Zm51,1.2c.83-.24,2.64.5,2.81-.4-.59-.21-1-.59-1.6-.8C270.64,50.23,269.36,49.75,269.31,50.51Zm-29.3-.8c-.11-.11-.61.19-.4.4S240.22,49.92,240,49.71Zm23.28,1.2c2.39,0,3.78.64,5.22-.8-2.92.24-5.05-.31-7.63-.4C260.74,51.06,262.62,50.38,263.29,50.91Zm309-1.2c-.31.09-.79,0-.8.4C571.84,50,572.32,50.1,572.33,49.71Zm-470.39.4c-.11-.11-.6.19-.4.4S102.15,50.32,101.94,50.11Zm10,0c-.47.06-1.14-.07-1.21.4C111.25,50.45,111.91,50.58,112,50.11Zm.8,0c-.11-.11-.61.19-.4.4S113,50.32,112.78,50.11Zm36.12,0c-.68.92-3.06.15-4.41.4-.61,1-3.46-.24-4,.81,1.67,0,.09.26,0,.8,2.31.1,5.12-.3,6.83.4.59-.21,1-.59,1.6-.8.76-.18,2.42.54,2-.81C151.32,49.56,149.66,50.29,148.9,50.11Zm7.63.4c-1,1.15-4.84-.55-5.22,1.21,3.91-.41,8.59.81,14.05-.4-.31-.1-.79,0-.8-.41.47-.06,1.13.07,1.2-.4A81.18,81.18,0,0,0,156.53,50.51Zm10,0c-.11-.11-.61.2-.4.4S166.77,50.72,166.56,50.51Zm8.43.81c1.09-.68,1.88.63,2.41-.81C176.57,50.75,174.61,49.86,175,51.32Zm-76.66-.41c-.31.09-.79,0-.8.41C97.84,51.22,98.32,51.3,98.33,50.91Zm.81,0c-.12-.11-.61.2-.41.41S99.34,51.12,99.14,50.91Zm16.85,0c-.11-.11-.61.2-.4.41S116.2,51.12,116,50.91Zm.81,0c-.11-.11-.61.2-.41.41S117,51.12,116.8,50.91Zm99.13.81c0-.23-.32-.46-.4,0C215.53,51.94,215.85,52.17,215.93,51.72Zm1.21-.4c-.32.08-.8,0-.81.4C216.64,51.63,217.12,51.71,217.14,51.32Zm33.71,0h-1.21c-.31.08-.79,0-.8.4C249.43,51.5,250.92,52.19,250.85,51.32Zm5.22.8c.77-.17,3.35,1.15,4-.4C259.05,50.89,256.9,51.51,256.07,52.12Zm-177.8-.4c-.32.09-.8,0-.81.4C77.77,52,78.25,52.11,78.27,51.72Zm60.6,0c-.11-.12-.61.19-.4.4S139.08,51.92,138.87,51.72Zm1.2,0c-.31.09-.79,0-.8.4C139.58,52,140.06,52.11,140.07,51.72Zm-44.95.4h-1.2c-.31.09-.79,0-.8.4C93.7,52.3,95.19,53,95.12,52.12Zm74.65.8c.92.11,1.51-.1,1.61-.8C170.67,52.21,169.37,51.71,169.77,52.92Zm173.79,0c1.77.09,2.76.63,4-.4C346.85,52,343.7,51.61,343.56,52.92Zm-240.41-.4c-2.57-.46-.88,1.22,0,0Zm27.29,0c-.31.09-.79,0-.8.4C130,52.83,130.43,52.91,130.44,52.52Zm.8,0c-.11-.11-.6.19-.4.4S131.45,52.73,131.24,52.52Zm22.08,0a26.36,26.36,0,0,0-3.21,2.41c1.37,1,4,.82,6.42.8-.23-1.83,1.78-1.43,2-2.81C156.69,52.9,154.61,53.1,153.32,52.52Zm14.85.8h.8v-.8h-.8Zm169.37-.8c-.11-.11-.61.19-.4.4S337.75,52.73,337.54,52.52Zm5.22,0c-.11-.11-.61.19-.4.4S343,52.73,342.76,52.52Zm-247.24.4h-1.2c-.47.06-1.14-.07-1.2.4C93.82,53.09,95.47,53.81,95.52,52.92Zm3.21.8c1.23-.62-1.74-.35-2.4-.4,0-.24-.06-.47-.41-.4C95.6,54.45,97.82,53.43,98.73,53.72Zm66.63.81c.22,0,.45.32,0,.4s-1.53.09-.8.4c2.19-.19,3.82,1,5.62,0,.08-1.83-2.34-1.14-2.81-2.41C167.65,54.41,165.65,53.61,165.36,54.53Zm40.54-.41a20.84,20.84,0,0,1-7.23-.8c-4-.06-6.12.21-9.63,0-1-.16-.87.73-2,.4-4.28-1.77-10.52,0-15.65.81.75,0,.85.3.4.8.6.07,1.48-.15,1.61.4-.42.92-2.87-.19-3.21.8,1.53-.07.14.33.4,1.21,3.32.1,7.41-1.15,10.43,0-.76.08-4-.28-2.81.4,2-.34,4.52,1.1,2.81,2,2.07-.34,3.61.45,4.82-1.21.17-1.37-2.16-2.64-3.61-3.61a71.23,71.23,0,0,1,14.45-.8c.81.1,2.37,1.54,4,2,1.23-2.48,5.52.5,7.22-1.6C207.19,54.71,206.24,54.72,205.9,54.12Zm-105.56,0c.72-.48,2.33-.07,2.81-.8C102.24,53.61,100,52.6,100.34,54.12Zm119.2.41c.54.12.77.57,1.61.4C221.25,53.75,219.59,53.39,219.54,54.53Zm408.58-.41c0-.22-.32-.45-.4,0C627.72,54.35,628.05,54.58,628.12,54.12ZM128.43,55.33h3.22c-.84.8.29,1.4.8,2,1.26.2,1.57-.88,2.41,0,.31-1.16,1.94-1,2.81-1.61,4.05-.32,7.14.72,10-.4-.71-.2.17-.43.4-.8-2.7-.05-7.44-1.17-7.63.8h-3.21c-2.18-1.37-6.61-1.07-8.42-.8C129.55,54.72,128.66,55,128.43,55.33ZM165,54.12c-.11-.11-.61.2-.4.41S165.17,54.33,165,54.12Zm209.51,0c-.12-.11-.61.2-.41.41S374.67,54.33,374.47,54.12Zm-212.32.81c-.11-.11-.61.19-.4.4S162.36,55.13,162.15,54.93Zm-64.22.4c-.11-.11-.61.19-.4.4S98.14,55.54,97.93,55.33Zm156.93,0h-1.2c-.31.09-.79,0-.81.4C253.44,55.51,254.93,56.2,254.86,55.33Zm-239.61.4c-.11-.11-.61.19-.4.4S15.46,55.94,15.25,55.73Zm76.66,0c-.11-.11-.61.19-.4.4S92.12,55.94,91.91,55.73Zm2.41,1.2c.51-1.58-.95-1.19-2-1.2C92.17,57,93.62,56.56,94.32,56.93Zm93.92-1.2c.12.79-.55.8-.81,1.2h3.21c-.23-1.48,1.7,0,2.41-1.2ZM86.69,56.93c-.28-1.09,1.9.29,1.61-.8C87.48,55.9,85.29,56.25,86.69,56.93Zm27.3-.4c-.12-.11-.61.2-.41.4S114.19,56.74,114,56.53Zm1.2,0c-.11-.11-.61.2-.4.4S115.4,56.74,115.19,56.53Zm13.65,0c-.32.09-.79,0-.81.4C128.35,56.84,128.83,56.92,128.84,56.53Zm63.41,0c-.11-.11-.61.2-.4.4S192.46,56.74,192.25,56.53Zm470,0c-.31.09-.79,0-.8.4C661.75,56.84,662.23,56.92,662.24,56.53Zm-557.89.81c-.11-.12-.61.19-.4.4S104.56,57.54,104.35,57.34Zm.81,1.2c.36-.06.2-2.22-.41-.8C104.65,58,104.92,58.58,105.16,58.54Zm218.74-.8c-1.72,1.11-4.24-1.05-5.22.8.51,0,.55.51,1.2.4,2.84-.61,5.74,2.24,7.63,0A11.28,11.28,0,0,0,323.9,57.74Zm165.35.4c.25,0,.48.06.4.4-2.86.29-4.43-.35-6.42.4,1.77,1.08,3.86,1.37,5.22,0a3,3,0,0,0,2.81.8c-.12-.78.54-.79.8-1.2C490.48,59.28,490,56.93,489.25,58.14ZM106,58.14c-.11-.11-.61.19-.4.4S106.17,58.34,106,58.14Zm45,1.6c-.44.1-1,.67-.4.8.16-.9,2.5.07,1.2-1.2,1.29-.56-1.64-.17-1.2-1.2a22.13,22.13,0,0,0-7.63.8c-2.15.12-5.12-.58-5.21,1.6C142.22,62.25,146.49,58.17,150.91,59.74Zm13.65-.4c.63,0,1.39-.05,1.2.81,1-.44,2.69-.26,3.21-1.21-.75-.09.23-.66-.4-.8C167.73,59,165.4,58.45,164.56,59.34Zm96.32-1.2c-.47.06-1.14-.07-1.2.4C260.15,58.48,260.82,58.61,260.88,58.14Zm386.51.8c.63,0,1.39.05,1.2-.8h-.8C647.79,58.54,647.46,58.62,647.39,58.94Zm2,.4h-2c.57,2.38,1.69-.35,3.21.81-.17-.77-.15-1.73-1.21-1.61Zm2-.8c-.31.09-.79,0-.8.4C650.91,58.85,651.39,58.93,651.4,58.54ZM122.82,63c-.48.07-1.14-.07-1.21.41C122.08,63.29,122.75,63.42,122.82,63Zm-1.21.81c-.28-1.4-2.22.08-2.81-1.61.38-.34.27-1,.4-2.41-2-.68-3.39.28-6,0-.69-1-2.66-.81-4.41-.8-.73.34-1.11,1-2,1.21-1.23.29-1.18-.7-2.41-.41h-3.21c-1.58.83-4.49.33-5.22,2,2.35.59,4.35,1.54,6.83,2,.33-1.14-.57-1-.4-2,2.27-.41,5.39-2.09,8-.8-1.37-.17-2.28.12-2,1.6,2.76-.34,4.84,1.18,6.82.4-.12.93,1.16.45,1.2,1.21,1.31-.23,1.87.27,2.81.4h3.62c.51,0,.55-.52,1.2-.4h1.2c.43,0,1-.19.4-.4Zm371.66-4.42c2,1.1,1.49-1.4,0,0Zm-332.33,0c-.11-.11-.6.2-.4.4S161.15,59.55,160.94,59.34Zm-11.23.81c-.11-.12-.61.19-.41.39S149.91,60.35,149.71,60.15ZM356.4,61c-.56,0-1.53.09-.8.4.71-.23,2.36.48,2.41-.4-.31-.09-.79,0-.8-.41.24,0,.47,0,.4-.39-.6.06-1.48-.15-1.61.39C356.25,60.57,356.48,60.61,356.4,61Zm18.87-.8c-.47.06-1.14-.07-1.21.39C374.54,60.48,375.2,60.62,375.27,60.15Zm1.2,0c-.11-.12-.61.19-.4.39S376.68,60.35,376.47,60.15Zm269.31,0H643c-.47.06-1.14-.07-1.2.39h1.61c.51,0,.55.52,1.2.41.76-.75,1-.05,2,0C646.88,59.19,645.79,61.27,645.78,60.15ZM134.86,61c0-.23-.33-.46-.4,0C134.45,61.17,134.78,61.4,134.86,61Zm1.2-.41c-.31.1-.79,0-.8.41C135.57,60.86,136.05,60.94,136.06,60.54ZM348,61a.41.41,0,0,0-.81,0C347.62,60.91,347.8,61.53,348,61Zm29.3-.41c-2.07,1,1.38,1,0,0Zm1.2,0c-.11-.11-.61.2-.4.41S378.69,60.75,378.48,60.54Zm1.2,0c-.11-.11-.61.2-.4.41S379.89,60.75,379.68,60.54ZM130.84,62.15c1.79.61,1.62-1.6,2.81-.4.31-1.41-3.31-.94-3.61-.4C130.53,61.4,131,61.47,130.84,62.15ZM333.93,61c-.11-.11-.61.19-.4.4S334.14,61.16,333.93,61Zm2.41,0c-.31.09-.79,0-.8.4C335.85,61.26,336.33,61.34,336.34,61Zm0,1.2a1.1,1.1,0,0,0,1.2-.8A1.1,1.1,0,0,0,336.34,62.15Zm18.46.8c-1.17-1.08-5-2.91-5.62,0,.53.94,1.79,1.15,2.81,1.61a3.19,3.19,0,0,0,3.21,1.2c1.49-2.39,6.82-.94,9.63-2C361.1,63.78,359.34,62.79,354.8,63Zm281.75-1.6c-.11-.11-.61.19-.4.4S636.76,61.56,636.55,61.35Zm11.64.8h.8v-.8h-.8Zm-7.63.4c-.45,0-.62-.58-.8,0A.4.4,0,0,0,640.56,62.55Zm14.85,1.61c-1.27.06-1.76.91-3.2.8-.27,1.6,1.52,1.15,2.8,1.21-.35-1.88,1,.55,1.21-.81-1.87-.77.38-.56.8-1.2-1.77-.64-3-1.78-5.62-1.61,0-.62-1.17-.28-.4,0C652.31,63.25,654.62,62.94,655.41,64.16ZM181,63.36c.59-.22,2.08.46,2-.41C182.51,62.41,181.05,62.33,181,63.36Zm464.37.8H649c-.21-1.52-2.49-1-3.61-1.61Zm4.82-1.61c-.11-.11-.61.2-.4.4S650.41,62.76,650.2,62.55ZM40.94,63c-.11-.11-.61.2-.4.41S41.15,63.16,40.94,63Zm152.11,0c-.47.07-1.14-.07-1.2.41C192.32,63.29,193,63.42,193.05,63Zm5.22,0c-.11-.11-.61.2-.4.41S198.48,63.16,198.27,63Zm443.5,1.21c-.91.29-3.13-.72-2.81.8,1.89-.38,3.86-.69,5.22-1.6C642.77,62.61,642.86,63.66,641.77,64.16Zm-514.94-.4c0-.23-.33-.46-.4,0C126.43,64,126.75,64.21,126.83,63.76Zm19.26.4c1.2,1.61,4.87-.12,8.43.8a23,23,0,0,0,2.81-1.2A43.22,43.22,0,0,0,146.09,64.16Zm16.06-.8h-1.21C158,63.22,161.92,64.51,162.15,63.36Zm489.25.4c-.51,0-.56-.52-1.2-.4C649.57,64.34,651.56,64.54,651.4,63.76Zm-513.73,0c-.32.09-.8,0-.81.4C137.17,64.07,137.65,64.15,137.67,63.76Zm4.81,0c-.11-.11-.61.19-.4.4S142.69,64,142.48,63.76Zm.81.4c0-.22-.33-.46-.41,0C142.88,64.38,143.21,64.61,143.29,64.16Zm2.4,0c-2.07-.84-2.48,1.47,0,0Zm492.87,0c-.76.09-.89-.45-1.61-.4C636.31,64.88,638.69,64.87,638.56,64.16Zm-148.5,2c2.88,1.52,6.51.93,9.23.8.49,0,1.35.41,2,.4,3.75-.05,8.09-.72,11.63,0,1.14.33,1-.57,2-.4h2.41c.65-.13,0-.57-.8-.4h-2c-.76-.72-2.65-.3-4-.4-.72-.23-1.67-.21-2-.81-5.89.74-10.89-.9-17.26-.4-1.32,0-1.53-1.14-3.21-.8a15.52,15.52,0,0,0-1.61.8c-1.32,0-2-.68-3.61-.4-1.12.21-2.08.59-3.21.8-1.57.3-4.59-.84-4.41,1.21C481.25,66.17,486,67.59,490.06,66.17Zm154.92-2c-.31.09-.79,0-.8.4C644.49,64.47,645,64.55,645,64.16Zm-273.32,1.2h-2.41c-.71.23-2.36-.48-2.41.4C368.32,65.51,370.84,66.28,371.66,65.36Zm276.53,1.21c-2.08-1.62-4.52,1.75-5.62,0,.08,1.28-1.75.65-1.61,2,2,.47,3.5-1,4.82,0,.09-.31,0-.79.4-.8.79.89,2.67-.53,4.42,0,0-.8,1.09-.51.8-1.6-.47-.07-1.14.06-1.2-.41.31-.09.79,0,.8-.4C649.45,65.49,648.09,65.82,648.19,66.57Zm4.42,0c-.32.09-.8,0-.81.4C652.11,66.88,652.59,67,652.61,66.57Zm-12.05.8h-1.2c-.31.09-.79,0-.8.4C639.14,67.55,640.63,68.24,640.56,67.37ZM72.24,68.57c-3.38-.38.47,1.32.81.4C72.74,68.88,72.26,69,72.24,68.57ZM468,72.19c-1.22-.6-1.56.13-2.41-.41C465.54,73.26,467.58,73.17,468,72.19ZM166.56,73c-.11-.11-.61.19-.4.4S166.77,73.19,166.56,73Zm.81,0c-.12-.11-.61.19-.4.4S167.57,73.19,167.37,73Zm.8,0c-.11-.11-.61.19-.4.4S168.38,73.19,168.17,73Zm1.6.8c1.22.13,2.07.23,1.61-.8C170.26,73.66,166.71,73.47,169.77,73.79Zm2.81-.8c-.11-.11-.61.19-.4.4S172.79,73.19,172.58,73Zm301,.8c1.49-.25,4.13.65,4.41-.8C476.26,73,474.39,72.84,473.6,73.79Zm13.65.8c-1.63.56-1.27-.87-2.41-.8-3.17-.49-3.89,1.46-6,2,1.64-.12.21.83.4,1.6-1.59-.28-6-.91-2.81-2.4-.71.22-2.36-.49-2.41.4.9,2.2-3.79-.13-5.22,1.2,1.43,1,5.08-.26,6,1.2-.95.66-2.3.91-3.21,1.61,4.88.88,10.76.75,15.26,2,.06-.48-.07-1.14.4-1.21.79.83.79.38,0,1.21,1.57.63.83-1,1.6-1.21,3.84.58,6.06-.62,9.63-1.2,1.22.53,3.21.27,4.42.8h4c1.22-.12,3.12.45,3.21-.8-.83-.77-2.74-.47-3.61-1.21a3.7,3.7,0,0,0,2.81-1.2c-.49,0-.95-.12-.8-.8-3,.23-5.16-.46-7.63-.8-3.26.37-8.22.26-10-2-.59,1.08-3.48-1-4.42.4C487,73.79,486.27,74.05,487.25,74.59Zm-358.41,0c-2.35-.85-4.74-1.64-6.43-.4,1,.47,1.35,1.6,2.81,1.61,1.78-.9,5.39,0,6-2C130,73.56,129.23,73.91,128.84,74.59ZM163,73.39c-.11-.11-.61.19-.4.4S163.16,73.6,163,73.39Zm204.69,0c-1.22.11-2.74-.06-2.81,1.2,2,0,4.68-.68,6,.41-.12-.93,1.16-.45,1.21-1.21A11.66,11.66,0,0,1,367.64,73.39ZM377.28,75c1.7-.71,4.51-.3,6.82-.41.87.23,2.82,1.42,3.21.81-1.47-.87,2.24.15,2-.81-1.61,0-2.41-.8-4-.8-3.14,1-7.79-1-10.83.4A15.15,15.15,0,0,0,377.28,75Zm101.94-1.61c-.11-.11-.61.19-.4.4S479.43,73.6,479.22,73.39Zm1.2,0c-.31.09-.79,0-.8.4C479.93,73.7,480.41,73.78,480.42,73.39ZM114,73.79c-.32.09-.8,0-.81.4C113.49,74.1,114,74.18,114,73.79Zm60.2,0c-.11-.11-.61.19-.4.4S174.4,74,174.19,73.79Zm129.24.8c.87.23,3.28,1,4,0C306,74.46,304.11,73.26,303.43,74.59Zm46.95-.8c-.11-.11-.6.19-.4.4S350.59,74,350.38,73.79ZM245.23,75a1.79,1.79,0,0,0,1.61-.81C246.12,74.28,244.83,73.79,245.23,75Zm6.82-.81c-.11-.11-.61.2-.4.4S252.26,74.4,252.05,74.19ZM113.58,75.4c.6.06,1.49-.15,1.61.4-2-.52-2,1-3.61.8a9,9,0,0,0-2.41-.8H106c-1.94,1.13-4.09.27-4.82,2,2.22-.27,5.87.79,8,.81,1.39-.35,3.43-.34,5.62-.81.51.69,2.4,0,2.41,1.21-.53-.05-2.91-.06-1.61.4a81.18,81.18,0,0,1,9.23,0c3.8.1,7.37.66,9.23-1.2-2.86-.89-7-2.62-10.43-1.61.6.07,1.48-.14,1.6.4-1.55.71-4,.38-5.62,0,0-1.16-2.26-1-1.2-2C116.54,74.82,115.42,74.26,113.58,75.4Zm25.29,0c-.09.31-.34.46-.8.4-.09-.31,0-.79-.4-.8C137,76.64,140.42,76.35,138.87,75.4ZM478,75c-.47.06-1.13-.07-1.2.4C477.28,75.33,478,75.46,478,75Zm-8.42,4c-.67-.67-2.36-.32-3.61-.4C466.09,79.81,469.33,80.4,469.59,79ZM107.16,79c-.31.09-.79,0-.8.4C106.67,79.32,107.15,79.4,107.16,79Zm1.21,0c-.31.09-.79,0-.81.4C107.88,79.32,108.36,79.4,108.37,79Zm.8,0c-.11-.11-.61.19-.4.4S109.38,79.22,109.17,79Zm42.54.4c.07.47-.07,1.14.4,1.2.1-.31,0-.79.41-.8v.8c.6-.07,1.48.15,1.6-.4-.49,0-1-.12-.8-.8.31-.09.79,0,.8-.4C152.9,78.72,152.94,79.7,151.71,79.41Zm3.21-.4c-.11-.11-.6.19-.4.4S155.13,79.22,154.92,79Zm-49.36.8a2.28,2.28,0,0,1-1.61-.4C103.31,80.53,105.69,80.52,105.56,79.81Zm5.62-.4c-.11-.11-.61.19-.41.4S111.38,79.62,111.18,79.41Zm35.32.8c0-.66,1.11-.22,1.2-.8C146.88,79.07,145.21,79.76,146.5,80.21Zm4.81-.8c-.11-.11-.61.19-.4.4S151.52,79.62,151.31,79.41Zm-44.15.4c-.11-.11-.61.19-.4.4S107.37,80,107.16,79.81Zm28.9.4c.12.79-.54.8-.8,1.21.75,0,.85.3.4.8.84-.91,5.06-.54,3.61-2.41C138.59,80.38,137.4,79.61,136.06,80.21Zm4.82,0c1.55-.83,1.73,1.68,2.41.4-1.74-.75,3.33,0,1.6-.8C143.81,80,140,79.44,140.88,80.21Zm250,.4h1.21v-.8h-1.21Zm267.7-.8c-.31.09-.79,0-.8.4C658.13,80.12,658.61,80.2,658.62,79.81Zm1.21,0c-.31.09-.79,0-.8.4C659.34,80.12,659.82,80.2,659.83,79.81Zm-519.36.8c-.11-.11-.6.2-.4.4S140.68,80.82,140.47,80.61Zm1.61,0c-.47.07-1.14-.07-1.2.4C141.35,81,142,81.08,142.08,80.61Zm228.37,0c-2.57-.46-.88,1.23,0,0Zm244.43.4c-.11-.11-.61.2-.4.41S615.09,81.22,614.88,81Zm4.81,0c-.11-.11-.6.2-.4.41S619.9,81.22,619.69,81Zm-4,.81c-1.1,1.22,1.22-1.1,0,0Zm4.82-.4c-.12-.12-.61.19-.4.4S620.7,81.62,620.5,81.42Zm2.41,0c-.12-.12-.61.19-.41.4S623.11,81.62,622.91,81.42Zm-487.65.4c-.11-.11-.61.19-.4.4S135.47,82,135.26,81.82Zm502.09,0c-.11-.11-.61.19-.4.4S637.56,82,637.35,81.82ZM651.8,83c-.11-.11-.61.2-.4.4S652,83.23,651.8,83ZM548.25,85c-.11-.11-.61.19-.4.4S548.46,85.24,548.25,85Zm72.25.8c-.12-.11-.61.2-.4.4S620.7,86,620.5,85.83ZM555.08,87c-.12-.12-.61.19-.4.4S555.28,87.24,555.08,87Zm85.48,0c-.1-.12-.6.19-.4.4S640.77,87.24,640.56,87Zm-3.21,1.2c0-.22-.32-.46-.4,0C637,88.46,637.28,88.7,637.35,88.24Zm3.61,0c-.1-.11-.6.19-.4.4S641.17,88.45,641,88.24Zm1.21,0c-.11-.11-.61.19-.4.4S642.38,88.45,642.17,88.24Zm-55.79.8c-.45,0-.62-.58-.8,0A.4.4,0,0,0,586.38,89Zm57.4-.4c-.32.09-.8,0-.81.4C643.28,89,643.77,89,643.78,88.64Zm-56.19.4c-.11-.11-.61.2-.41.4S587.79,89.25,587.59,89Zm9.63,0c-.11-.11-.61.2-.4.4S597.43,89.25,597.22,89Zm10.84,0c-.12-.11-.61.2-.41.4S608.26,89.25,608.06,89Zm1.2,0c-.11-.11-.61.2-.4.4S609.47,89.25,609.26,89Zm5.22.8h.8V89h-.8Zm3.61-.8c-.11-.11-.61.2-.4.4S618.3,89.25,618.09,89Zm1.2,0c-.11-.11-.61.2-.4.4S619.5,89.25,619.29,89Zm.81.4c-.12-.11-.61.2-.41.4S620.3,89.65,620.1,89.44Zm8.83,0c-.12-.11-.62.2-.41.4S629.13,89.65,628.93,89.44Zm-39.74.4c-.31.1-.79,0-.8.41C588.7,90.16,589.18,90.24,589.19,89.84Zm16.86,0c-.11-.11-.61.2-.4.41S606.26,90.05,606.05,89.84Z"/><path class="cls-1" d="M68.63,7.57c-.24-.24,2.78-.41,2.41.8A9,9,0,0,1,68.63,7.57Z"/><path class="cls-1" d="M701.17,10c.75-1,0,.66,0,1.2C700.46,10.89,701.11,10.45,701.17,10Z"/><path class="cls-1" d="M734.48,12.78c.07-.46-.09-.71-.4-.8-.07-.87,1.42-.18,2-.4a1.1,1.1,0,0,0,0,1.61C735.74,14.37,735.77,12,734.48,12.78Z"/><path class="cls-1" d="M120,19.61c.49-.29.88-.42.4,0S119.46,19.92,120,19.61Z"/><path class="cls-1" d="M666.25,21.61c.7-1.3,1,1.05,2.41.41C669.53,22.93,666.53,22.09,666.25,21.61Z"/><path class="cls-1" d="M686.32,21.61c.6-1.08,1.73.64,2.41.81C688.4,23.22,687.08,21.7,686.32,21.61Z"/><path class="cls-1" d="M649,22.42c-1.08-.35.85-1.28,1.21-.4,1.37-.33,2.29.59.4.4C649.85,22.8,649.26,21.21,649,22.42Z"/><path class="cls-1" d="M663.84,22.42c-.91-.4,2.21-.73,1.61.4C664.73,22.87,664.6,22.33,663.84,22.42Z"/><path class="cls-1" d="M487.25,25.63c.38,1.45-1.74.41-2,1.2-1.71-.16-4.14.39-5.22-.4-2,.78-4.45-.49-6,1.2-1.42-1.47-3.51.16-4.81-1.2-1.52.85-2.51-.15-4.42,0-1.24,0-1.14,1.26-2.81.8,2-1.6-2.87-.52-3.21.4-.91-.22.49-.62-.4-1.2-.86,0-2.9,0-2.81,0-.06,0-.58.8-.4.8-.56,0-.11-.62-.4-.8-.9-.56-2.87,1.25-3.21-.8-2.45.9-5.48.17-6.43.8-.32-.34-1.09-.24-1.2-.8-2.5.94-4.41.08-6.82,1.2-2-1.48-6.11-.44-8-.4-1,.06-1.24-.63-2-.8-2.33.7-3.45.26-5.62.8.07-.47-.08-.71-.4-.8-2.15-.33-3.29.81-4.81,0-1.55.05-1.86,1.36-3.62,1.2a5.45,5.45,0,0,1-2.4,2c-.59-.18,0-.35,0-.8-1.54.47-2.55,1.47-4,2a28.59,28.59,0,0,1-5.21-1.6c-.19-.86.57-.77,1.2-.81-.06-.87-1-.86-2-.8.08.88-.33,1.28-1.2,1.21-1.11-.09-1.14-1.28-2-1.61-1.46.84-4.16.23-4.81,0,3.87-.71,5.42,0,10-.4.59-.35,1.55-.32,1.2-1.61,3.88,1.65,8.4-.3,12,.41,1,.06,1.25-.63,2-.81,2.33.32,5.2,1.43,7.63.4.84-.17,1.06.28,1.6.41,1.86-.51,2.52-.07,4.82-.41a1.73,1.73,0,0,0,1.6-.8c.33.62.76,0,.81,0,.76.06.79.32,2,.8.62,0,1.32-1.09,0-.8,1.25-.42,6.39-1.31,6.43.8a10.74,10.74,0,0,1,4.41-.8c1,0,.49.3.4.8,1.8-.47,3.1-1.45,5.62-1.2.44-.1.27-.8.8-.8,2.94.31,7.05,1.76,9.64,0,1.48,1.65,5.89,1.35,9.63,1.6a76.36,76.36,0,0,0,10.83.4c-.11.72.38.83.41.41.45.07.22.4,0,.4C484.34,26.13,486.29,25.38,487.25,25.63Zm-48.57-2c-.11-.11-.61.19-.4.4S438.89,23.83,438.68,23.62ZM482,24.83c-.71.23-2.36-.49-2.41.4C480.85,25.07,481.67,26.28,482,24.83Zm-73,2.4c.92.11,1.51-.09,1.61-.8A1.8,1.8,0,0,0,409,27.23Zm-2.41-.4c-.31.09-.79,0-.8.4C406.08,27.14,406.56,27.22,406.57,26.83Z"/><path class="cls-1" d="M142.88,24c1.18-1.41,2.41.51,3.62.4C147.19,25.29,143.59,24.34,142.88,24Z"/><path class="cls-1" d="M310.65,26c-.68-.13-1.8-.54-2.41,0C306.68,25.47,311.15,24.3,310.65,26Z"/><path class="cls-1" d="M494.07,26.43c-1.28-.55,1.57-.55,1.61,0,1.43-.15,1.47-1.08,2.8-.4C497.52,27.18,495.59,26.75,494.07,26.43Z"/><path class="cls-1" d="M531,26.43c.22-.83.62-.85,1.2-.4a16.83,16.83,0,0,1,4.82-.4c1.46.57,1.8-.23,2.8.8,1.45-.83,4.34-.21,6.43-.4,1.09-.29.8.8,1.6.8,2.21-1.28,5.87,1.59,9.23.4-.22.38-1.11.61-.4.81-.29.71-.73.05-1.2,0-1,.24-2.91-.51-3.21.4-1-1-3.4-.62-4.82-1.21-1.47-.26-1.54.87-2.81.81-1.16-.86-4.58-1.57-5.62-1.21C535.32,26.9,534.78,26.28,531,26.43Z"/><path class="cls-1" d="M508.52,26.43c-.09,0-1.2.06-1.21,0-.11-.69.23-.56,1.21-.4-.32-.05,1.3.58,1.2.4s-1,1.2-.8,1.2C508.23,27.62,508.88,26.61,508.52,26.43Z"/><path class="cls-1" d="M510.12,26.83c1.37-1.21,3.45.29,5.22,0,1.47.38-2.24.86-2,0C512.42,27.09,510.91,27.63,510.12,26.83Z"/><path class="cls-1" d="M6,38.07c.17,1.11-1.49.38-1.6,1.2C3.45,38.92,5.29,38.05,6,38.07Z"/><path class="cls-1" d="M515.74,40.48c1.22-1.1-1.09,1.22,0,0Z"/><path class="cls-1" d="M692.74,54.12c.64,0,1.53-.19,1.61.41.64,1.57-1.74.14-1.61,1.2C691.71,55.63,693.29,55,692.74,54.12Z"/><path class="cls-1" d="M659.43,60.54c-1.08-.74.69.33,1.61,0,1.28-.27.75-1.33,1.2-1.6,1.13-.06,1.15,1,1.2,2-.35.18-.72.35-.8.8A17.94,17.94,0,0,1,659.43,60.54Z"/><path class="cls-1" d="M737.29,58.94h1.21c0,1.22-1.41,1-2.41,1.21-.58,1.18-.31-.94.8-.41C737.28,59.73,737.2,59.25,737.29,58.94Z"/><path class="cls-1" d="M16.86,59.74c1.22-1.09-1.1,1.22,0,0Z"/><path class="cls-1" d="M655.41,83.42c-1.28-.58,1.26.1,1.21,0C657.06,84.19,655.21,83.33,655.41,83.42Z"/><path class="cls-1" d="M331.12,84.63c.08-.46.4-.23.4,0,.11-.77,4.41,0,4.42,0,1.06-1.33,8.5-.47,12-.4.54,0,1.38.41,2,.4,3.86-.07,10.22-.25,14.45.4,1.05-.16,1.12-1.29,2.81-.8,1.76-.3-.32.79.8.8,6.26-.47,9.62,1,13.25-.4-.45.49-.35.82.4.8s.85.49,1.61.4a8.38,8.38,0,0,0,2.8.4c-.85.76-3,.26-3.61,1.21-1,.06-1.24-.64-2-.81-6.09.59-14.24-.81-20.87.81-2.74,0-4.36-.69-6.83,0-3.57-.92-6.56-.2-10-.81-3.51,1.36-7.09-.37-10.84.41C331.23,86.06,333.11,85.26,331.12,84.63Zm4.42.8h-1.21c-.31.09-.79,0-.8.4C334.11,85.61,335.6,86.3,335.54,85.43Zm2,0c-2.57-.46-.88,1.23,0,0Zm22.48.4c-.11-.11-.61.2-.4.4S360.22,86,360,85.83Z"/><path class="cls-1" d="M360.82,89c.94.29-1,1.89-1.61.8C358.93,88.76,361.11,90.13,360.82,89Z"/><path class="cls-1" d="M330.32,89.84c5.51-.14,11.33.94,16.45-.4,3.84.07,5,.34,8.83.4,1.45-.29,1.45.7,0,.41h-7.22c-.84-.17-1.07.27-1.61.4a3.45,3.45,0,0,1-2.41-.4c-.87-.08-1.27.33-1.2,1.2a1.11,1.11,0,0,0-1.61,0,10.06,10.06,0,0,1-4.81-.8h-3.61C332.21,90.35,330,91.37,330.32,89.84Z"/><path class="cls-1" d="M288.58,97.87c-1.29-.56,1.64-.17,1.2-1.2a2,2,0,0,0,2.41,0h3.61c1.89-.2,1,.72-.4.4-.65-.11-.69.38-1.21.4A13.45,13.45,0,0,0,288.58,97.87Z"/><path class="cls-1" d="M120.41,105.9a8.16,8.16,0,0,1,5.21-.8v1.2c-2.51.13-2.72.12-4.41.8C122,106.28,121.05,106.3,120.41,105.9Z"/></g></g></svg>