<svg xmlns="http://www.w3.org/2000/svg" viewBox="0 0 511.03 512.03"><defs><style>.cls-1{fill:#060505;}.cls-2{fill:#505050;}.cls-3{fill:#838383;}.cls-4{fill:#9f9f9f;}.cls-5{fill:#696969;}.cls-6{fill:#b8b8b8;}.cls-7{fill:#edb07b;}.cls-8{fill:#edaf7b;}.cls-9{fill:#d14141;}.cls-10{fill:#58bb8a;}.cls-11{fill:#ecaf7b;}</style></defs><g id="Слой_2" data-name="Слой 2"><g id="Слой_1-2" data-name="Слой 1"><path class="cls-1" d="M105.59,512c-11.52-4-14.51-13.2-15-24.15-1-21.58-1.78-43.15,1.14-64.63,3.75-27.64,13-53,34.79-71.63,7.78-6.64,17.37-11.43,26.69-15.89,11.91-5.71,24.67-9.64,36.54-15.42,14.05-6.83,23.82-17.82,26.95-33.66,1.51-7.63-.2-14.07-6.5-19.57A76.14,76.14,0,0,1,186,227.9c-.77-3-1.63-4.51-5.27-3.54-2.59.69-5.57.28-8.32-.05-3.58-.44-7.42-3.15-9.86,2.17-.26.55-3.53.61-4.31-.18-1-1-1.7-3.57-1.1-4.67,1.83-3.34.49-5.53-1-8.52-1.94-3.88-2.74-8.39-3.54-12.72-.37-2-.59-2.75-2.89-2.47-5.59.7-11.22,1.19-16.85,1.47-4.87.24-6.7-2.24-4.51-6.47,9-17.36,13.09-36.39,18.91-54.82,5.4-17.12,13.05-32.85,25.53-46.76-2.37.61-4.89.86-7.06,1.87-7.33,3.41-14.46,7.25-21.84,10.55-1.73.77-4.13,0-6.22,0,.16-1.95-.4-4.45.6-5.75,11-14.24,23.07-27.47,38.58-37,13.09-8,27.22-12.78,42.76-12.71.8,0,1.59-.14,3.53-.32-10.18-7.7-20.24-13.66-32.1-14.78-6.9-.65-14,1.09-21,1.44-1.85.09-4.3-.48-5.45-1.71-.68-.72.06-4.1,1.18-5,22.5-17.67,47.4-28.72,76.73-25.09,28,3.45,45.81,19.92,55.41,45.8,1.82,4.91,4,8.21,9,11,21.4,12.21,32.15,32.15,37.77,55.38,3.85,15.91,4.59,32.14,4.77,48.41,0,3.09.22,5.29,4.16,4.3A2.93,2.93,0,0,1,355,168c6.67,2,13.28,4.67,20-.33.61-.45,3.9,1.09,4.16,2.15.37,1.48-.6,4.62-1.59,4.89-6.33,1.76-5.81,5.17-4.55,10.59,1,4.14-.57,9.14-1.95,13.44-.91,2.83-1.32,4.51,1.7,5.76.45.18,1.07.46,1.19.84.61,1.84,1.07,3.73,1.59,5.6-1.88.42-4.59,1.84-5.5,1.08-4.28-3.56-7.73-2.68-12.29-.21-3.6,1.95-8.25,2.32-12.48,2.59-2.89.19-4.07.89-4.46,3.78-2.72,20-12,36.56-26.93,50.13a8.71,8.71,0,0,0-2.59,5.85c.25,14.31,7.94,25.05,18.81,32.87,11.37,8.18,23.73,15.07,36.07,21.78a106.67,106.67,0,0,1,47,49.74C424,402,427.31,426.8,424.75,452.3c-1.3,13-4.1,25.83-6.44,38.7a37.13,37.13,0,0,1-3.14,9.38c-2.54,5.24-6.72,8.56-12.78,9-3,.19-6,.42-8.94.44q-81.43.68-162.87,1.32a22.76,22.76,0,0,0-4.45.93H206.21l-10.93-.82H158.44l-13,.83ZM160.8,86.11c10.21-2,20.4-4.11,30.67-5.66,2-.3,5.52,1.25,6.27,2.89,1.42,3.11-1.77,4.25-4.23,5.45A64.08,64.08,0,0,0,184,94.13c-12.6,9.07-20.3,21.83-25.33,36.09-7,19.81-13.26,39.88-19.8,59.85-.06.18.27.49.7,1.25,8.6-1.47,17.52-2.46,26.15-4.6,8.8-2.2,17.68-4.75,25.91-8.5,30.33-13.82,51.85-35.26,57.6-69.6.45-2.68,1.29-6,4.71-4.9,1.75.56,3.6,3.67,3.81,5.78a162.76,162.76,0,0,1-5.21,61,33.7,33.7,0,0,0-.55,4.37c1.56-1,2.41-1.49,3.15-2.09,34.92-28.06,47-64.54,39.15-108-2.94-16.37-10-31-23.21-41.72C255.58,10.62,237.57,8,218.44,11.39A93.21,93.21,0,0,0,186,23.75c2.28.45,3.73.74,5.18,1s3,.44,4.4.75c18.59,3.9,32.66,15.65,46.75,27.25,1.05.87,1.54,4.34.82,5-1.25,1.16-3.71,1.63-5.57,1.44-7-.72-14.05-2.83-21-2.61-23.17.73-41,12.56-56.45,28.79l-.5,1Zm64.47,193.54c.28,10.25-3.4,20-9.58,29-6.71,9.73-16.12,16-26.45,21.28-1.62.82-3.7,2.69-3.83,4.22a280.58,280.58,0,0,0,3,70.42c3.14,18.83,13.17,32.54,31.63,38.63,8.74,2.88,18,4.54,27.09,5.92,7.75,1.18,8,.65,7.85-7-.25-15.76-.63-31.52-1-47.28-.07-3,.45-5.55,4-5.56,3.24,0,3.92,2.38,4,5.15.25,6.64.79,13.26.9,19.9.16,10.62.07,21.24.09,31.86,0,1.77-.52,3.65,2.59,3.42,12.79-.94,24.88-3.87,35.33-11.76,13.8-10.41,19.73-25.47,23.73-41.42,5.91-23.57,8.26-47.66,9.9-71.85.19-2.87-.78-4.38-3.1-6-13.94-9.78-25.2-21.59-28-39.33-.67-4.23-3-1.85-4.54-1-13.48,7-27.9,10.12-42.83,8.4C245.74,285.34,235.6,282,225.27,279.65Zm24.47-143.57a108.85,108.85,0,0,1-35.59,39.12,136.3,136.3,0,0,1-48.94,19.9c-3.82.78-5.21,2.62-4.61,6.1.49,2.82,1.45,5.55,2.37,8.94,1.83-1.7,2.74-3.15,4-3.54s3.51-.44,4.49.37a4.88,4.88,0,0,1,1.06,4.28c-1.46,4.84-1.15,5.63,4.09,5.49a22.09,22.09,0,0,0,7.17-1.62c5.87-2.25,7.35-1.57,8.59,4.46.23,1.13.51,2.26.77,3.39,10.31,44.94,58,69.5,101,48.47,24.08-11.79,36.42-32.42,39.3-58.89.7-6.5,1.18-6.56,7.85-6.35,4.44.14,8.91-.58,13.37-.91l0-1.53c-1.31-.63-3-.95-3.84-2-1.19-1.45-1.75-3.42-2.57-5.17,1.94-.68,3.86-1.81,5.84-1.91,1.48-.07,3.18,1,4.5,1.91,3.44,2.46,5,.77,5.92-2.44a12.8,12.8,0,0,0,.89-4.36,61.84,61.84,0,0,0-1.35-7.19l-5.16,2.47c-.45.21-1,.64-1.36.56-1.62-.33-3.91-.35-4.61-1.38s-.22-3.33.36-4.83c.43-1.1,1.85-1.81,2.83-2.69a14.69,14.69,0,0,0-7.15.07c-6,1.71-7.26.75-7.52-5.61-.51-12.6-.8-25.21-1.84-37.77-1.42-17.08-6.18-33.22-16-47.51-5.17-7.53-11.22-14.21-20.26-19,.39,3.74.78,6.63,1,9.54,3.08,46.9-14.17,83.77-54.1,109.37-2.59,1.65-5.88,5.24-8.65,2-1.48-1.75-.76-6.19.17-9C246.29,164.87,249.46,150.76,249.74,136.08Zm92.91,189.35c-.37,4.09-.74,7.38-1,10.68-1.69,23.52-4.44,46.89-11.12,69.58-8.24,28-25.68,46.31-55.4,51.13-15.45,2.51-30.77,1.31-45.89-2.4-31.71-7.79-46.47-23.62-49.75-55.78-2-19.74-2-39.69-2.63-59.56-.1-2.94-.18-4.1-3.4-2.69a85.49,85.49,0,0,1-10.72,3.94c-2.89.84-3.78,2.35-3.89,5.32a1144.86,1144.86,0,0,0,5.38,154.59c.28,2.73,1.4,3.25,3.76,3.19,5.47-.14,10.95-.12,16.43-.16q79.41-.61,158.82-1.13c3.4,0,4.43-.88,4.69-4.31,1-13.39,2.45-26.75,3.71-40.13q3.3-35.16,6.59-70.33c1.46-15.68,3-31.36,4.21-47.07.14-1.71-.8-4.38-2.12-5.2C354.88,331.71,349.08,328.87,342.65,325.43Zm28,15.57c-.5,5.44-.9,10-1.33,14.6q-6.69,71.52-13.44,143c-.25,2.64.35,3.45,3.05,3.4,13.26-.25,26.53-.22,39.79-.53,6.83-.16,8.83-1.47,10.49-8.3a321.51,321.51,0,0,0,6.61-32.56c3.57-26.19,1.77-51.91-9.08-76.45C399,366.69,387.69,352.16,370.67,341Zm-220.1,4.58c-1.37.61-2.25,1-3.1,1.38-20.53,10.16-32.82,27.3-40.75,48.12-6.59,17.3-8.49,35.44-8.86,53.71-.28,13.6.28,27.23.93,40.82.52,11,4.31,14.37,15.19,14.37,12.61,0,25.23-.32,37.85-.21,3.68,0,4.89-.78,4.41-4.69-1.17-9.55-2-19.14-2.76-28.73-3.16-39.76-3.7-79.58-2.91-119.43C150.6,349.32,150.57,347.71,150.57,345.58Z"/><path class="cls-2" d="M145.44,512l13-.83a7.55,7.55,0,0,0-.05.83Z"/><path class="cls-3" d="M169.39,511.21h13c0,.27,0,.55,0,.82h-13C169.35,511.76,169.37,511.49,169.39,511.21Z"/><path class="cls-4" d="M182.3,512c0-.27,0-.55,0-.82h12.94c0,.27,0,.55,0,.82Z"/><path class="cls-5" d="M169.39,511.21c0,.28,0,.55,0,.82h-11a7.55,7.55,0,0,1,.05-.83Z"/><path class="cls-6" d="M195.25,512c0-.27,0-.55,0-.82l10.93.82Z"/><path class="cls-7" d="M225.27,279.65c10.33,2.39,20.47,5.69,30.85,6.89,14.93,1.72,29.35-1.44,42.83-8.4,1.57-.81,3.87-3.19,4.54,1,2.82,17.74,14.08,29.55,28,39.33,2.32,1.63,3.29,3.14,3.1,6-1.64,24.19-4,48.28-9.9,71.85-4,15.95-9.93,31-23.73,41.42-10.45,7.89-22.54,10.82-35.33,11.76-3.11.23-2.59-1.65-2.59-3.42,0-10.62.07-21.24-.09-31.86-.11-6.64-.65-13.26-.9-19.9-.11-2.77-.79-5.16-4-5.15-3.58,0-4.1,2.6-4,5.56.38,15.76.76,31.52,1,47.28.12,7.66-.1,8.19-7.85,7-9.13-1.38-18.35-3-27.09-5.92-18.46-6.09-28.49-19.8-31.63-38.63a280.58,280.58,0,0,1-3-70.42c.13-1.53,2.21-3.4,3.83-4.22,10.33-5.25,19.74-11.55,26.45-21.28C221.87,299.64,225.55,289.9,225.27,279.65Z"/><path class="cls-8" d="M249.74,136.08c-.28,14.68-3.45,28.79-8.05,42.68-.93,2.82-1.65,7.26-.17,9,2.77,3.27,6.06-.32,8.65-2,39.93-25.6,57.18-62.47,54.1-109.37-.19-2.91-.58-5.8-1-9.54,9,4.83,15.09,11.51,20.26,19,9.83,14.29,14.59,30.43,16,47.51,1,12.56,1.33,25.17,1.84,37.77.26,6.36,1.53,7.32,7.52,5.61a14.69,14.69,0,0,1,7.15-.07c-1,.88-2.4,1.59-2.83,2.69-.58,1.5-1.08,3.74-.36,4.83s3,1,4.61,1.38c.4.08.91-.35,1.36-.56l5.16-2.47a61.84,61.84,0,0,1,1.35,7.19,12.8,12.8,0,0,1-.89,4.36c-.94,3.21-2.48,4.9-5.92,2.44-1.32-.94-3-2-4.5-1.91-2,.1-3.9,1.23-5.84,1.91.82,1.75,1.38,3.72,2.57,5.17.84,1,2.53,1.35,3.84,2l0,1.53c-4.46.33-8.93,1.05-13.37.91-6.67-.21-7.15-.15-7.85,6.35-2.88,26.47-15.22,47.1-39.3,58.89-43,21-90.71-3.53-101-48.47-.26-1.13-.54-2.26-.77-3.39-1.24-6-2.72-6.71-8.59-4.46a22.09,22.09,0,0,1-7.17,1.62c-5.24.14-5.55-.65-4.09-5.49a4.88,4.88,0,0,0-1.06-4.28c-1-.81-3.11-.81-4.49-.37s-2.15,1.84-4,3.54c-.92-3.39-1.88-6.12-2.37-8.94-.6-3.48.79-5.32,4.61-6.1a136.3,136.3,0,0,0,48.94-19.9A108.85,108.85,0,0,0,249.74,136.08Z"/><path class="cls-9" d="M160.09,85.38c15.44-16.23,33.28-28.06,56.45-28.79,7-.22,14,1.89,21,2.61,1.86.19,4.32-.28,5.57-1.44.72-.67.23-4.14-.82-5-14.09-11.6-28.16-23.35-46.75-27.25-1.45-.31-2.94-.48-4.4-.75s-2.9-.55-5.18-1a93.21,93.21,0,0,1,32.46-12.36c19.13-3.38,37.14-.77,52.64,11.73,13.25,10.69,20.27,25.35,23.21,41.72,7.83,43.44-4.23,79.92-39.15,108-.74.6-1.59,1.06-3.15,2.09a33.7,33.7,0,0,1,.55-4.37,162.76,162.76,0,0,0,5.21-61c-.21-2.11-2.06-5.22-3.81-5.78-3.42-1.1-4.26,2.22-4.71,4.9-5.75,34.34-27.27,55.78-57.6,69.6-8.23,3.75-17.11,6.3-25.91,8.5-8.63,2.14-17.55,3.13-26.15,4.6-.43-.76-.76-1.07-.7-1.25,6.54-20,12.8-40,19.8-59.85,5-14.26,12.73-27,25.33-36.09a64.08,64.08,0,0,1,9.51-5.34c2.46-1.2,5.65-2.34,4.23-5.45-.75-1.64-4.28-3.19-6.27-2.89C181.2,82,171,84.16,160.8,86.11Z"/><path class="cls-10" d="M342.65,325.43c6.43,3.44,12.23,6.28,17.7,9.67,1.32.82,2.26,3.49,2.12,5.2-1.24,15.71-2.75,31.39-4.21,47.07q-3.28,35.17-6.59,70.33c-1.26,13.38-2.68,26.74-3.71,40.13-.26,3.43-1.29,4.29-4.69,4.31q-79.41.42-158.82,1.13c-5.48,0-11,0-16.43.16-2.36.06-3.48-.46-3.76-3.19a1144.86,1144.86,0,0,1-5.38-154.59c.11-3,1-4.48,3.89-5.32a85.49,85.49,0,0,0,10.72-3.94c3.22-1.41,3.3-.25,3.4,2.69.65,19.87.61,39.82,2.63,59.56,3.28,32.16,18,48,49.75,55.78,15.12,3.71,30.44,4.91,45.89,2.4,29.72-4.82,47.16-23.16,55.4-51.13,6.68-22.69,9.43-46.06,11.12-69.58C341.91,332.81,342.28,329.52,342.65,325.43Z"/><path class="cls-11" d="M370.67,341c17,11.16,28.35,25.69,36.09,43.2,10.85,24.54,12.65,50.26,9.08,76.45a321.51,321.51,0,0,1-6.61,32.56c-1.66,6.83-3.66,8.14-10.49,8.3-13.26.31-26.53.28-39.79.53-2.7,0-3.3-.76-3.05-3.4q6.81-71.52,13.44-143C369.77,351,370.17,346.44,370.67,341Z"/><path class="cls-11" d="M150.57,345.58c0,2.13,0,3.74,0,5.34-.79,39.85-.25,79.67,2.91,119.43.77,9.59,1.59,19.18,2.76,28.73.48,3.91-.73,4.72-4.41,4.69-12.62-.11-25.24.21-37.85.21-10.88,0-14.67-3.36-15.19-14.37-.65-13.59-1.21-27.22-.93-40.82.37-18.27,2.27-36.41,8.86-53.71,7.93-20.82,20.22-38,40.75-48.12C148.32,346.54,149.2,346.19,150.57,345.58Z"/><path class="cls-9" d="M160.8,86.11l-1.21.24.5-1Z"/></g></g></svg>