<svg class="c29edcec40--container--wOtqt c29edcec40--display_inline-block--DEn9_ c29edcec40--color_gray_icons_100--d0JFJ" aria-hidden="true" viewBox="0 0 16 16" fill="none" xmlns="http://www.w3.org/2000/svg"><path fill-rule="evenodd" clip-rule="evenodd" d="M0 5.2C2.2 3.1 5 2 8 2s5.8 1.1 8 3.2l-1.4 1.5C12.8 4.9 10.5 4 8 4s-4.8.9-6.6 2.6L0 5.2ZM11.5 10C10.6 9 9.3 8.5 8 8.5c-1.3 0-2.6.5-3.5 1.5L3.1 8.6c1.3-1.4 3-2.1 4.9-2.1 1.9 0 3.6.7 4.9 2.1L11.5 10ZM8 14a1.5 1.5 0 1 0 0-3 1.5 1.5 0 0 0 0 3Z" fill="currentColor"/></svg>