<svg class="c29edcec40--container--wOtqt c29edcec40--display_inline-block--DEn9_ c29edcec40--color_gray_icons_100--d0JFJ" aria-hidden="true" viewBox="0 0 16 16" fill="none" xmlns="http://www.w3.org/2000/svg"><path fill-rule="evenodd" clip-rule="evenodd" d="M7.602 3.085c.266 1.355-.396 2.626-1.48 2.84-1.084.212-2.179-.713-2.445-2.068s.396-2.626 1.48-2.839c1.084-.213 2.179.712 2.445 2.067Zm4.805.772c.267-1.354-.396-2.625-1.48-2.838C9.843.805 8.75 1.73 8.483 3.086c-.267 1.355.396 2.626 1.48 2.839 1.084.213 2.178-.713 2.444-2.068ZM3.14 8.214c.718-.414.852-1.525.3-2.482-.553-.956-1.582-1.396-2.3-.982-.718.414-.85 1.526-.3 2.482.553.957 1.582 1.397 2.3.982Zm9.423-2.481c-.552.956-.418 2.067.3 2.482.717.414 1.746-.026 2.298-.982.553-.957.419-2.068-.299-2.482-.717-.415-1.747.025-2.299.982Zm-9.871 5.21 2.132-2.788c1.6-2.093 4.754-2.093 6.355 0l1.946 2.545a2.588 2.588 0 0 1-3.34 3.82l-.855-.489a2 2 0 0 0-1.886-.052l-1.303.651a2.455 2.455 0 0 1-3.049-3.687Z" fill="currentColor"/></svg>