<svg class="c29edcec40--container--wOtqt c29edcec40--display_inline-block--DEn9_ c29edcec40--color_gray_icons_100--d0JFJ" aria-hidden="true" viewBox="0 0 16 16" fill="none" xmlns="http://www.w3.org/2000/svg"><g fill="currentColor"><path d="M11.207 1.507 9 3.714v8.572l2.207 2.207-1.414 1.414L8 14.114l-1.793 1.793-1.414-1.414L7 12.286V3.714L4.793 1.507 6.207.093 8 1.886 9.793.093l1.414 1.414Z"/><path d="m3.98 1.976.809 3.015 7.423 4.286 3.015-.808.517 1.932-2.449.656.656 2.45-1.931.517-.808-3.015-7.424-4.286-3.015.808-.517-1.932 2.449-.656-.656-2.45 1.932-.517Z"/><path d="m.773 8.469 3.016.808 7.423-4.286.808-3.015 1.931.518-.656 2.449 2.45.656-.518 1.932-3.015-.808-7.423 4.286-.808 3.015-1.932-.518.656-2.449-2.45-.656.518-1.932Z"/></g></svg>