<svg xmlns="http://www.w3.org/2000/svg" viewBox="0 0 76.2 57.5"><g id="Слой_2" data-name="Слой 2"><g id="Слой_1-2" data-name="Слой 1"><path d="M76.2,40.65c-.2,1.45-.34,2.9-.6,4.33a41.23,41.23,0,0,1-4,11.91.93.93,0,0,1-1,.61q-32.52,0-65,0A.91.91,0,0,1,4.65,57,36.73,36.73,0,0,1,.33,43.45a37.65,37.65,0,0,1,5-24.59C11.3,8.93,20,2.72,31.43.62a37.86,37.86,0,0,1,41,21.08,37.46,37.46,0,0,1,3.68,13.77c0,.24.09.48.13.72ZM38.13,52.78v0c9.73,0,19.45,0,29.17,0a1.51,1.51,0,0,0,1.64-1.07A33.61,33.61,0,0,0,34,4.93,32.45,32.45,0,0,0,11.06,18.61a32.63,32.63,0,0,0-6.32,21A35,35,0,0,0,7.53,52a1.12,1.12,0,0,0,1.22.79Q23.44,52.77,38.13,52.78Z"/><path d="M27.72,10.08c3.52,6.7,7,13.3,10.49,20,.18-.33.33-.57.45-.82q4.71-9.19,9.4-18.4a3.37,3.37,0,0,1,.61-.65,4.36,4.36,0,0,1,.46.69Q55.88,28.25,62.61,45.6c.21.55.46.77,1.06.73.88-.06,1.77,0,2.69,0v2.87H46.2V46.34h4L46.17,35,38.23,49.23C35.46,44.45,32.74,39.78,30,35l-4,11.31h4v2.9H9.61V46.32c.94,0,1.9,0,2.85,0a1,1,0,0,0,1.13-.75q6.87-17.37,13.79-34.72C27.47,10.64,27.57,10.42,27.72,10.08Z"/></g></g></svg>