<svg class="c29edcec40--container--wOtqt c29edcec40--display_inline-block--DEn9_ c29edcec40--color_gray_icons_100--d0JFJ" aria-hidden="true" viewBox="0 0 16 16" fill="none" xmlns="http://www.w3.org/2000/svg"><g fill="currentColor"><path d="M2 2a1 1 0 0 1 1-1h10a1 1 0 0 1 1 1v1H2V2Zm4 8a2 2 0 1 1 4 0l-.25.125a1.677 1.677 0 0 1-1.5 0L8 10a2.236 2.236 0 0 0-2 0Z"/><path fill-rule="evenodd" clip-rule="evenodd" d="M2 14a1 1 0 0 0 1 1h10a1 1 0 0 0 1-1V5H2v9Zm3-4a3 3 0 1 1 6 0 3 3 0 0 1-6 0Z"/></g></svg>