<svg xmlns="http://www.w3.org/2000/svg" viewBox="0 0 511.03 511.03"><defs><style>.cls-1{fill:#050505;}.cls-2{fill:#fdd8c3;}.cls-3{fill:#5a5c6c;}.cls-4{fill:#5a5c6b;}.cls-5{fill:#595b6b;}.cls-6{fill:#fad6c0;}.cls-7{fill:#cf4141;}.cls-8{fill:#d04141;}.cls-9{fill:#595b6a;}.cls-10{fill:#f4d1bc;}.cls-11{fill:#8d95a3;}.cls-12{fill:#040405;}.cls-13{fill:#030304;}.cls-14{fill:#9098a7;}</style></defs><g id="Слой_2" data-name="Слой 2"><g id="Слой_1-2" data-name="Слой 1"><path class="cls-1" d="M261,1c6.79,12.8,13.7,25.54,15.4,40.3a129.31,129.31,0,0,1,1.21,18.86c-.06,1.76-.36,3.17,2.08,4.24,25.46,11.17,40.82,31.37,50,56.87,5.28,14.66,7.35,29.9,7.15,45.44,0,3.23.41,5.27,4.18,5.77,2.58.34,4.9,1.9,7.06,3.48,3.07,2.24,5.28,6.56,10.43,3.79,1.26-.67,3,1,3.58,2.77a3.44,3.44,0,0,1-2,4.52c-2.54,1-2.36,2.49-2,4.67a23.62,23.62,0,0,1-6.37,20.58,5.18,5.18,0,0,0-1.37,5.64c1.46,5.73-.31,10.91-4.64,14.91s-9.61,4.55-14.8,2.24c-2.86-1.28-3.34,0-4,2-3.82,11.53-9.64,21.81-19,29.79-1.77,1.51-1.93,3.32-2,5.33-.89,16.13,6.54,28.69,17.22,39.78,4.73,4.9,9.55,11.4,15.61,12.65s11.25-5.67,17-8.74c3.8-2,7.4-4.41,11.1-6.62,1.86-1.11,3.75-2.36,6-.89s2,3.67,1.76,5.83a160.43,160.43,0,0,1-5.21,28.83c-.42,1.52-1.67,3.13-.15,4.58,1.75,1.66,3-.42,4.35-1a63.86,63.86,0,0,1,24.64-5.11c6.59,0,8,2.29,4.85,8.29s-6.19,11.71-9.26,17.57c-2.15,4.11.39,8.57,5.07,9.11,5.27.62,10.55,1.18,15.78,2,4.77.79,6.48,4.17,3,7.24-9.58,8.58-8.55,18-5.74,29.32,4.41,17.73,2.37,36,.11,54-1,7.55-1.45,15.18-3.5,22.58-2.66,9.65-8.72,15.31-18.78,16.53-12.56,1.52-25.2,1-37.79,1.43-66.72,2-133.46,1.59-200.18.12q-19.66-.43-39.3-1.59c-10.73-.62-15.7-5.48-15.38-16.05.86-29.35,2.12-58.7,10.33-87.19a6,6,0,0,0-1.3-6.27c-3.37-3.88-6.51-8-9.59-12.07-3.22-4.29-2.11-7.12,3.18-8s10.5-1.48,15.77-2.07c4.75-.52,7-5.08,4.33-9.08-3.77-5.65-7.67-11.22-11.38-16.91-3-4.62-1.55-7.4,4-7.85,8.33-.66,16.62-.4,24.62,2.21a5.28,5.28,0,0,0,6.13-1.41c2.19-2.07.42-3.71-.14-5.35-2.14-6.26-4.45-12.46-6.82-18.64-1-2.52-1.35-4.9.91-6.82,2.06-1.76,4.31-1.15,6.53-.1,7.63,3.59,15.26,7.18,22.93,10.71,1.4.65,2.67,1.75,4.54.52,10.4-6.84,21-13.37,28.09-24.09a49.65,49.65,0,0,0,7.35-20.37c1.13-7.48.15-13.55-6.1-19-6.87-6-11.19-14.32-14.63-22.83-1.07-2.64-1.94-3.39-5-2.17-5.08,2-10.27,1.35-14.31-2.63s-6.24-8.86-4.45-14.4c1.15-3.56-1.08-5-2.57-7.24-1.71-2.57-3.24-3.72-6.39-2.15-2,1-3.94-.25-4.81-2.34s-.08-4.33,2-4.92c3.75-1.08,4-3.35,3.71-6.65a16,16,0,0,1,1.06-6.31c1.16-3.48,3.34-6.7,0-10.34-1.25-1.37-.15-3.18,1.26-4.28s3.5-1.4,4.51,0c2.18,3,3.91.8,6.21.39,8.71-1.53,8.07-7.55,8.35-14.17,1.06-24.92,6.13-48.69,22.76-68.48,8.81-10.48,19.37-18.63,32.77-22.29,3.6-1,4.65-2.79,4.87-6.15,1.41-21.46,10.14-40.61,19-59.7A14.12,14.12,0,0,1,257,1Zm46.69,315.64a16.73,16.73,0,0,0-2.22,1.05,81.44,81.44,0,0,1-34.9,13.4c-7.57,1-7.53,1.23-7.85,9.22a24.74,24.74,0,0,1-.43,3.94c-.72,3.53.55,4.81,4.18,4.42a91.23,91.23,0,0,0,32.69-9.54,4.53,4.53,0,0,0,2.7-2.68c2-6.48,5.12-12.58,6.31-19.32.33-.3.63-.63.1-1C308.22,316.11,307.89,316.47,307.69,316.64Zm-62,129c.28.4.31,1.39,1,1s.06-1-.47-1.39c-1.83-4.61-3.61-9.24-5.5-13.83-11.17-27.11-23.46-53.77-33.22-81.46-3.38-9.61-5.62-19.54-8.55-30.16a237.64,237.64,0,0,1-27.31,40.1c-3.36,3.93-3.29,4.18,1.65,5.6,11.14,3.21,22.3,6.33,33.4,9.65,5.63,1.69,6.37,4.82,2.28,9-3.47,3.56-7.07,7-10.61,10.51-5.21,5.15-5.23,5.18.45,9.56a389.93,389.93,0,0,1,42.74,38C242.77,443.42,243.8,445,245.67,445.6ZM184.76,325.27c-5.81,3.48-11.61,7-17.45,10.44a107.08,107.08,0,0,0-42.73,46.57c-8,16.58-12.49,34.16-15.11,52.28A423.51,423.51,0,0,0,105.34,492c0,5.71,1.49,7.7,6.55,8,10.76.55,21.54.79,32.31,1.22,2.24.09,3.33-.56,3.36-3,.16-10.77,1-21.57.53-32.32-.42-9.95-.38-19.9-.71-29.84-.09-2.79.65-5.29,3.8-5.32,2.94,0,4.17,2.08,4.26,5,.59,20.72,1.55,41.45.29,62.18-.2,3.28.94,4,3.84,4q45.3.45,90.6,1.1c3,.05,4-.87,4-3.93-.16-9.63-.08-19.25,0-28.88a5.54,5.54,0,0,0-1.4-4.07c-4.81-5.26-9.38-10.76-14.35-15.86a443.49,443.49,0,0,0-46.07-41c-8.34-6.46-8.67-11.76-1.05-19.24,2.66-2.61,5.65-4.89,9.21-7.93-2.78-1-3.84-1.45-4.93-1.77-11.28-3.33-22.58-6.56-33.84-10-5.05-1.53-5.85-4.36-2.65-8.53,1-1.32,2.24-2.46,3.31-3.72,8.59-10.12,16.9-20.45,23.2-32.21.54-.43.95-1.12.41-1.55C185.24,323.88,185.07,324.83,184.76,325.27ZM276.82,71.78c-.39,2-.67,3.23-.9,4.52a88.54,88.54,0,0,1-8.36,25.88c-6.38,12.15-16.83,12.37-24,.68a54.36,54.36,0,0,1-7.42-23c-.32-3-1-3.51-4-2.51-14.47,4.93-25.12,14.53-33.28,27.08-10,15.42-14.1,32.74-15.06,50.86-1.37,26.12-1.1,52.14,8.53,77,6.59,17,17.65,30.23,34.86,37.52,1.31.55,2.78,2.23,4.37.14,5.71-7.48,13.87-12.29,20.54-18.74,6.06-5.86,11.47-5.49,16.15,1.48a142.89,142.89,0,0,0,12.74,15.82c2.05,2.27,3.46,3,6.58,1.67,14.48-6.3,24.41-16.8,30.1-31.39s7.77-29.77,9.59-45.07c3.27-27.53,2.67-54.67-9.53-80.35C309.06,95,296.23,80.57,276.82,71.78ZM314.3,392.63c4.19,3.41,7.39,6.32,10.88,8.8,10.17,7.22,10.1,7.93.68,15.91-20.24,17.16-40.28,34.56-60.47,51.8a8.4,8.4,0,0,0-3.32,7.26c.22,7.13.29,14.28,0,21.41-.19,4.07.93,5.39,5.18,5.29,23.39-.51,46.78-.73,70.18-1.05q6.72-.09,13.44-.13c2,0,3.51-.29,3.8-2.82,1.61-13.65,3.49-27.26,5-40.92,1.33-12.35,2.24-24.75,3.43-37.11.27-2.82,1.4-5.62,4.81-5.05,3.14.52,3.78,3.27,3.5,6.23-2.44,25.21-4.74,50.45-8.39,75.52-.41,2.81.34,3.59,3,3.44,6.62-.39,13.26-.47,19.87-.71,10.13-.37,14.26-5.76,15.69-14.63,3-18.85,5-37.79,4.06-56.93-1.14-22.39-9.4-41.73-24.36-58.43-14-15.63-31.35-27-48.15-39.15-.38-.28-.91-.39-1.38.57A219.21,219.21,0,0,1,349,370.07c1.67,4.82,1,7.59-3.88,9.22-1.88.64-3.67,1.54-5.5,2.33Zm1.28-70.47L268.71,454.37c17.73-14,34.56-28.41,51.42-42.82,1.7-1.45,1.74-2.42-.14-3.79a107,107,0,0,1-14.12-12.53c-3.81-4-3.47-6.26,1.63-8.55,8.16-3.67,16.42-7.1,24.6-10.7,8.93-3.93,9-4,5.55-13A184.25,184.25,0,0,0,315.58,322.16ZM215.1,273.05c-.61,10.23-2.39,19.95-7.78,28.63-1.09,1.76,0,2.66,1.13,3.67a76.37,76.37,0,0,0,97.13,2.53c1.54-1.2,2.2-2.09,1-4a55.63,55.63,0,0,1-9-29.31c-5.71,2.51-12.36,3.23-11.76,11.61.09,1.21-.69,2.53-1.22,3.73-4.52,10.26-11.07,19.17-18.27,27.66-1.76,2.07-3.71,2.55-6.15,1.26-4.53-2.4-9.3-4.4-13.6-7.16-11.13-7.12-19.31-16.23-18.55-30.62a2.75,2.75,0,0,0-1.92-3C222.55,276.49,219,274.82,215.1,273.05Zm0,74.17c11.68,32.16,25.31,62.15,38.33,92.39.36-25.55.36-50.93.34-76.3,0-1.32-.4-2.63-.44-3.95-.05-1.86-.93-2.62-2.75-2.72C238.56,356,227.17,352.66,215.13,347.22Zm43.65-332.6C253.6,25.54,249.4,36,246.65,46.85c-4.18,16.53-4.84,33,2.3,49,1.41,3.16,3,7.21,6.75,7.18s4.66-4.28,6-7.23a95.06,95.06,0,0,0,7-51.46C267.33,34.25,265,24.27,258.78,14.62Zm4.82,429.69c11.19-31.56,22.27-62.76,33.42-94.19-2.55-.36-4.07.75-5.73,1.31-8,2.74-16.18,5.05-24.69,5.1-4.18,0-4.83,1.72-4.8,5.36.23,25.73.25,51.45.38,77.18C262.19,440.65,261.66,442.41,263.6,444.31ZM236,282.93a15.75,15.75,0,0,0,1.41,7.44c4.47,10.16,13.44,15.11,22.83,19.56,1.66.78,2.43-.42,3.25-1.43a105.25,105.25,0,0,0,13.25-20.36c2.56-5.24,2.33-10.37-1.95-14.69-4.79-4.84-9.38-9.8-12.75-15.79-1.11-2-2.49-2.39-4.38-.71C252,262,246.23,267,240.51,272A13.17,13.17,0,0,0,236,282.93ZM207.2,315.4c.22,6.47,2.27,11.89,3.48,17.47.51,2.34,1.92,3.55,3.92,4.69,10.5,6,21.84,9.15,33.74,10.87,4.63.67,6.43-.42,5.88-5.2a45.91,45.91,0,0,1,.06-8c.16-2.59-1-3.41-3.47-3.56a76,76,0,0,1-30.71-9C215.91,320.56,211.87,318.07,207.2,315.4ZM345.38,184.2a38,38,0,0,0-3.93-2.88c-2.81-1.54-4.9-2.37-5.1,2.55-.28,6.76-1.47,13.49-2.21,20.24-.11,1-1,2.21.51,3,6,3.32,11.48,1.47,14.3-5a17.7,17.7,0,0,0,1.5-6.72c.05-2.9-.43-4.34-3.93-2.9-3.83,1.58-7-.56-6.42-3.81C340.55,186.21,342.89,185.71,345.38,184.2Zm-183,5.67c.46,2.95-1.87,5.48,1.4,6.72,4,1.51,4.84,3.69,2.14,7.08-.39.49-1.17.94-.65,1.61,1.25,1.57,2.56,4.8,4.62,3.15,2.32-1.85,8,1.62,7.32-4.67-.71-6.59-1.27-13.2-1.79-19.81-.33-4.29-1.07-4.61-4.9-2.56-3.44,1.84-1.09,3.3,0,4.86,1.47,2,2.58,4.19.34,6.19s-4.56,1.36-6.47-.87A23.3,23.3,0,0,0,162.41,189.87Zm203.3,129.44L346.4,331c4.62,3.3,8.54,6,12.37,8.87,1.78,1.32,2.7,1.29,3.31-1.09A123.46,123.46,0,0,0,365.71,319.31Zm-29.84-91.1c4.18,0,6.94-2.88,6.86-6.7s-3.18-6.52-7.38-6.3c-5.78.3-3.67,5.4-4.42,8.31C330,227.33,333.54,227.73,335.87,228.21Zm-159.65,0c2.09-.35,5.62-.48,4.73-3.7s.85-8.24-4.31-9.25c-3.39-.67-6.92,2.71-7.08,6.1A6.77,6.77,0,0,0,176.22,228.22ZM377.36,354.08l9.24,9.72L393.82,350A44.24,44.24,0,0,0,377.36,354.08Zm-259-3.19c2.38,3.55,4.53,6.78,6.71,10,.42.62,1.06,1.87,1.75,1.07,2.35-2.71,4.47-5.63,6.56-8.54.49-.68-.36-1.13-.94-1.4a4.35,4.35,0,0,0-1-.24C127.37,350.92,123.24,350.12,118.37,350.89Zm42.68-21.28-14.88-6.92c.61,2,.91,3.08,1.28,4.13C151.31,337.78,151.32,337.78,161.05,329.61Zm-55,56.17c2,2.5,3.43,4.35,5.27,6.7l3-7.47C111.59,384.37,109.27,385.42,106.06,385.78Zm295.82-.69c.53,1.62.91,3.78,2.33,4.06,1.72.35,2.31-1.82,3.13-3.27A9.06,9.06,0,0,0,401.88,385.09Z"/><path class="cls-2" d="M276.82,71.78c19.41,8.79,32.24,23.25,41,41.62,12.2,25.68,12.8,52.82,9.53,80.35-1.82,15.3-3.93,30.58-9.59,45.07s-15.62,25.09-30.1,31.39c-3.12,1.36-4.53.6-6.58-1.67a142.89,142.89,0,0,1-12.74-15.82c-4.68-7-10.09-7.34-16.15-1.48-6.67,6.45-14.83,11.26-20.54,18.74-1.59,2.09-3.06.41-4.37-.14-17.21-7.29-28.27-20.5-34.86-37.52-9.63-24.86-9.9-50.88-8.53-77,1-18.12,5-35.44,15.06-50.86,8.16-12.55,18.81-22.15,33.28-27.08,2.91-1,3.64-.52,4,2.51a54.36,54.36,0,0,0,7.42,23c7.15,11.69,17.6,11.47,24-.68a88.54,88.54,0,0,0,8.36-25.88C276.15,75,276.43,73.74,276.82,71.78Z"/><path class="cls-3" d="M185.55,326c-6.3,11.76-14.61,22.09-23.2,32.21-1.07,1.26-2.3,2.4-3.31,3.72-3.2,4.17-2.4,7,2.65,8.53,11.26,3.41,22.56,6.64,33.84,10,1.09.32,2.15.77,4.93,1.77-3.56,3-6.55,5.32-9.21,7.93-7.62,7.48-7.29,12.78,1.05,19.24a443.49,443.49,0,0,1,46.07,41c5,5.1,9.54,10.6,14.35,15.86a5.54,5.54,0,0,1,1.4,4.07c-.06,9.63-.14,19.25,0,28.88.06,3.06-.93,4-4,3.93q-45.3-.68-90.6-1.1c-2.9,0-4-.76-3.84-4,1.26-20.73.3-41.46-.29-62.18-.09-3-1.32-5.07-4.26-5-3.15,0-3.89,2.53-3.8,5.32.33,9.94.29,19.89.71,29.84.45,10.75-.37,21.55-.53,32.32,0,2.47-1.12,3.12-3.36,3-10.77-.43-21.55-.67-32.31-1.22-5.06-.26-6.59-2.25-6.55-8a423.51,423.51,0,0,1,4.13-57.48c2.62-18.12,7.1-35.7,15.11-52.28a107.08,107.08,0,0,1,42.73-46.57c5.84-3.46,11.64-7,17.45-10.44ZM202.2,437.61c.11-10.24-9.51-19.68-20.3-19.9-10.53-.22-17.91,7-18,17.54-.11,10.85,8.53,20.48,18.69,20.82S202.08,447.63,202.2,437.61Z"/><path class="cls-4" d="M314.3,392.63l25.35-11c1.83-.79,3.62-1.69,5.5-2.33,4.84-1.63,5.55-4.4,3.88-9.22a219.21,219.21,0,0,0-17.35-38.14c.47-1,1-.85,1.38-.57,16.8,12.12,34.15,23.52,48.15,39.15,15,16.7,23.22,36,24.36,58.43,1,19.14-1,38.08-4.06,56.93-1.43,8.87-5.56,14.26-15.69,14.63-6.61.24-13.25.32-19.87.71-2.63.15-3.38-.63-3-3.44,3.65-25.07,5.95-50.31,8.39-75.52.28-3-.36-5.71-3.5-6.23-3.41-.57-4.54,2.23-4.81,5.05-1.19,12.36-2.1,24.76-3.43,37.11-1.49,13.66-3.37,27.27-5,40.92-.29,2.53-1.81,2.81-3.8,2.82q-6.72,0-13.44.13c-23.4.32-46.79.54-70.18,1.05-4.25.1-5.37-1.22-5.18-5.29.31-7.13.24-14.28,0-21.41a8.4,8.4,0,0,1,3.32-7.26c20.19-17.24,40.23-34.64,60.47-51.8,9.42-8,9.49-8.69-.68-15.91C321.69,399,318.49,396,314.3,392.63Zm29.57,61.51c.11-12.47-10-23.81-21.22-23.84S300.82,441.17,300.73,453c-.09,11.64,9.73,21.93,21.13,22.13C333.67,475.37,343.77,465.72,343.87,454.14Z"/><path class="cls-5" d="M315.58,322.16A184.25,184.25,0,0,1,337.65,363c3.5,9,3.38,9.07-5.55,13-8.18,3.6-16.44,7-24.6,10.7-5.1,2.29-5.44,4.58-1.63,8.55A107,107,0,0,0,320,407.76c1.88,1.37,1.84,2.34.14,3.79-16.86,14.41-33.69,28.86-51.42,42.82Z"/><path class="cls-5" d="M245.66,445.61c-1.86-.59-2.89-2.19-4.14-3.48a389.93,389.93,0,0,0-42.74-38c-5.68-4.38-5.66-4.41-.45-9.56,3.54-3.51,7.14-7,10.61-10.51,4.09-4.2,3.35-7.33-2.28-9-11.1-3.32-22.26-6.44-33.4-9.65-4.94-1.42-5-1.67-1.65-5.6a237.64,237.64,0,0,0,27.31-40.1c2.93,10.62,5.17,20.55,8.55,30.16,9.76,27.69,22.05,54.35,33.22,81.46,1.89,4.59,3.67,9.22,5.5,13.83Z"/><path class="cls-6" d="M215.1,273.05c3.88,1.77,7.45,3.44,11.06,5a2.75,2.75,0,0,1,1.92,3c-.76,14.39,7.42,23.5,18.55,30.62,4.3,2.76,9.07,4.76,13.6,7.16,2.44,1.29,4.39.81,6.15-1.26,7.2-8.49,13.75-17.4,18.27-27.66.53-1.2,1.31-2.52,1.22-3.73-.6-8.38,6.05-9.1,11.76-11.61a55.63,55.63,0,0,0,9,29.31c1.18,1.87.52,2.76-1,4a76.37,76.37,0,0,1-97.13-2.53c-1.17-1-2.22-1.91-1.13-3.67C212.71,293,214.49,283.28,215.1,273.05Z"/><path class="cls-5" d="M215.13,347.22c12,5.44,23.43,8.76,35.48,9.42,1.82.1,2.7.86,2.75,2.72,0,1.32.44,2.63.44,3.95,0,25.37,0,50.75-.34,76.3C240.44,409.37,226.81,379.38,215.13,347.22Z"/><path class="cls-7" d="M258.78,14.62c6.17,9.65,8.55,19.63,9.88,29.76a95.06,95.06,0,0,1-7,51.46c-1.3,3-2.31,7.19-6,7.23s-5.34-4-6.75-7.18c-7.14-16-6.48-32.51-2.3-49C249.4,36,253.6,25.54,258.78,14.62Z"/><path class="cls-5" d="M263.6,444.31c-1.94-1.9-1.41-3.66-1.42-5.24-.13-25.73-.15-51.45-.38-77.18,0-3.64.62-5.33,4.8-5.36,8.51,0,16.67-2.36,24.69-5.1,1.66-.56,3.18-1.67,5.73-1.31C285.87,381.55,274.79,412.75,263.6,444.31Z"/><path class="cls-8" d="M236,282.93A13.17,13.17,0,0,1,240.51,272c5.72-5,11.5-10,17.19-15.05,1.89-1.68,3.27-1.25,4.38.71,3.37,6,8,10.95,12.75,15.79,4.28,4.32,4.51,9.45,1.95,14.69a105.25,105.25,0,0,1-13.25,20.36c-.82,1-1.59,2.21-3.25,1.43-9.39-4.45-18.36-9.4-22.83-19.56A15.75,15.75,0,0,1,236,282.93Z"/><path class="cls-5" d="M207.2,315.4c4.67,2.67,8.71,5.16,12.9,7.35a76,76,0,0,0,30.71,9c2.49.15,3.63,1,3.47,3.56a45.91,45.91,0,0,0-.06,8c.55,4.78-1.25,5.87-5.88,5.2-11.9-1.72-23.24-4.86-33.74-10.87-2-1.14-3.41-2.35-3.92-4.69C209.47,327.29,207.42,321.87,207.2,315.4Z"/><path class="cls-9" d="M308.18,317.14c-1.2,6.73-4.33,12.83-6.32,19.31a4.53,4.53,0,0,1-2.7,2.68,91.23,91.23,0,0,1-32.69,9.54c-3.63.39-4.9-.89-4.18-4.42a24.74,24.74,0,0,0,.43-3.94c.32-8,.28-8.21,7.85-9.22a81.44,81.44,0,0,0,34.9-13.4,16.73,16.73,0,0,1,2.22-1.05C307.85,316.81,308,317,308.18,317.14Z"/><path class="cls-10" d="M345.38,184.2c-2.49,1.51-4.83,2-5.28,4.55-.58,3.25,2.59,5.39,6.42,3.81,3.5-1.44,4,0,3.93,2.9a17.7,17.7,0,0,1-1.5,6.72c-2.82,6.45-8.27,8.3-14.3,5-1.52-.84-.62-2-.51-3,.74-6.75,1.93-13.48,2.21-20.24.2-4.92,2.29-4.09,5.1-2.55A38,38,0,0,1,345.38,184.2Z"/><path class="cls-10" d="M162.41,189.87a23.3,23.3,0,0,1,2.06,1.7c1.91,2.23,4.2,2.9,6.47.87s1.13-4.17-.34-6.19c-1.14-1.56-3.49-3,0-4.86,3.83-2,4.57-1.73,4.9,2.56.52,6.61,1.08,13.22,1.79,19.81.68,6.29-5,2.82-7.32,4.67-2.06,1.65-3.37-1.58-4.62-3.15-.52-.67.26-1.12.65-1.61,2.7-3.39,1.84-5.57-2.14-7.08C160.54,195.35,162.87,192.82,162.41,189.87Z"/><path class="cls-11" d="M365.71,319.31a123.46,123.46,0,0,1-3.63,19.45c-.61,2.38-1.53,2.41-3.31,1.09C354.94,337,351,334.28,346.4,331Z"/><path class="cls-11" d="M335.87,228.21c-2.33-.48-5.92-.88-4.94-4.69.75-2.91-1.36-8,4.42-8.31,4.2-.22,7.3,2.55,7.38,6.3S340.05,228.23,335.87,228.21Z"/><path class="cls-11" d="M176.22,228.22a6.77,6.77,0,0,1-6.66-6.85c.16-3.39,3.69-6.77,7.08-6.1,5.16,1,3.43,6.08,4.31,9.25S178.31,227.87,176.22,228.22Z"/><path class="cls-11" d="M377.36,354.08A44.24,44.24,0,0,1,393.82,350L386.6,363.8Z"/><path class="cls-11" d="M118.37,350.89c4.87-.77,9,0,13.12.87a4.35,4.35,0,0,1,1,.24c.58.27,1.43.72.94,1.4-2.09,2.91-4.21,5.83-6.56,8.54-.69.8-1.33-.45-1.75-1.07C122.9,357.67,120.75,354.44,118.37,350.89Z"/><path class="cls-11" d="M161.05,329.61c-9.73,8.17-9.74,8.17-13.6-2.79-.37-1.05-.67-2.13-1.28-4.13Z"/><path class="cls-11" d="M106.06,385.78c3.21-.36,5.53-1.41,8.28-.77l-3,7.47C109.49,390.13,108,388.28,106.06,385.78Z"/><path class="cls-11" d="M401.88,385.09a9.06,9.06,0,0,1,5.46.79c-.82,1.45-1.41,3.62-3.13,3.27C402.79,388.87,402.41,386.71,401.88,385.09Z"/><path class="cls-3" d="M184.76,325.27c.31-.44.48-1.39,1.2-.84.54.43.13,1.12-.41,1.55Z"/><path class="cls-5" d="M246.19,445.17c.53.36,1,1,.47,1.39s-.71-.56-1-1C245.84,445.46,246,445.32,246.19,445.17Z"/><path class="cls-9" d="M307.69,316.64c.2-.17.53-.53.58-.49.53.35.23.68-.1,1C308,317,307.85,316.81,307.69,316.64Z"/><path class="cls-12" d="M202.2,437.61c-.12,10-9.45,18.8-19.62,18.46s-18.8-10-18.69-20.82c.1-10.58,7.48-17.76,18-17.54C192.69,417.93,202.31,427.37,202.2,437.61ZM181.42,426c-5.81-.06-9.2,3.1-9.28,8.64-.1,7.19,4.66,13.05,10.75,13.21,5.76.16,11.14-4.81,11.26-10.39C194.27,431.54,188.18,426.05,181.42,426Z"/><path class="cls-13" d="M343.87,454.14c-.1,11.58-10.2,21.23-22,21-11.4-.2-21.22-10.49-21.13-22.13.09-11.86,10.6-22.76,21.92-22.73S344,441.67,343.87,454.14Zm-35.16-.93c0,7,6.76,13.92,13.58,13.89s13.61-6.56,13.67-13.18c.07-7.5-6.72-15.49-13.27-15.61S308.74,445.92,308.71,453.21Z"/><path class="cls-14" d="M181.42,426c6.76.07,12.85,5.56,12.73,11.46-.12,5.58-5.5,10.55-11.26,10.39-6.09-.16-10.85-6-10.75-13.21C172.22,429.08,175.61,425.92,181.42,426Z"/><path class="cls-14" d="M308.71,453.21c0-7.29,7.3-15,14-14.9S336,446.42,336,453.92c-.06,6.62-6.82,13.15-13.67,13.18S308.68,460.19,308.71,453.21Z"/></g></g></svg>