<svg xmlns="http://www.w3.org/2000/svg" viewBox="0 0 62.68 104.83"><defs></defs><g id="Слой_2" data-name="Слой 2"><g id="Layer_1" data-name="Layer 1"><path class="cls-1" d="M58.11,11.68c-3.33,0-7,3.05-8.13,6.66-.74,2.48-1.91,5.49-3,8.4-1,2.69-2,5.23-2.54,7a14.57,14.57,0,0,1-1.29,3,8.82,8.82,0,0,0-5.55-2,8.07,8.07,0,0,0-3.1.61,5.82,5.82,0,0,0-1-1.23,7.88,7.88,0,0,0-5.81-2.07A9.41,9.41,0,0,0,20,36,17.32,17.32,0,0,1,17.61,30c-.94-4.95-2.67-14.15-3.71-22.78C13.26,1.9,10,0,7.13,0A7.11,7.11,0,0,0,2.29,2,7.29,7.29,0,0,0,0,7.52c.15,5.74,2.55,25.85,4,32.56C5.2,45.3,5.37,48.14,5.89,56.57c.1,1.49.2,3.15.32,5,.5,7.78,3.84,12.84,6.28,16.53,1.63,2.48,2.92,4.43,2.83,6.24-.28,5.85.79,18,.83,18.53a2.21,2.21,0,0,0,2.27,1.93h30a2.2,2.2,0,0,0,2.27-2L51.59,84c.19-3.87,1.23-8.19,2.81-14.72l.29-1.21a37.84,37.84,0,0,0,.45-13.81c-.16-1.41-.3-2.74-.32-3.93a31,31,0,0,1,1.94-12.38c.43-1.25.85-2.41,1.24-3.52a88.81,88.81,0,0,0,4.48-15.53c.46-2.59.11-4.55-1-5.82A4.41,4.41,0,0,0,58.11,11.68Zm-19,25.44a6.64,6.64,0,0,1,2.05.92,2.06,2.06,0,0,1,.25.62c-.51-.11-1.05-.19-1.6-.26a22.09,22.09,0,0,0-3.56-.15,22.13,22.13,0,0,1,3.35.91A10.81,10.81,0,0,1,41.5,40c-.09,4.85-4.28,15.16-4.76,16.8a3.91,3.91,0,0,1-.39.84,15.65,15.65,0,0,1-2.09-.3,15.43,15.43,0,0,1-3.06-1.06s.3.26.8.61a14.67,14.67,0,0,0,2,1.18,12.66,12.66,0,0,0,1.6.69,21.79,21.79,0,0,1-2.42,2.42c-.13-.12-.25-.25-.39-.37-.33-.3-.66-.59-1-.87-.68-.56-1.4-1.08-2.12-1.59-.53-.37-1.06-.72-1.6-1.07a13.73,13.73,0,0,0,2.9-3.55c1.74-3,3.09-11.39,3.73-16a5.85,5.85,0,0,1,2.92-.8A5.94,5.94,0,0,1,39.08,37.12ZM32,35.78c-.29-.1-.59-.21-.89-.3a21.55,21.55,0,0,0-2.94-.7,20.23,20.23,0,0,1,2.56,1.41,18.63,18.63,0,0,1,2.12,1.6c-.15.93-.37,1.9-.59,2.83a7.37,7.37,0,0,0-.55-1.44A8.13,8.13,0,0,0,28.86,36a6.45,6.45,0,0,0-2.1-.88,4.93,4.93,0,0,0-2.41.06,3.49,3.49,0,0,0-.93.4,6.93,6.93,0,0,1,4.28-1.39A5.47,5.47,0,0,1,32,35.78ZM2.27,7.47A5.12,5.12,0,0,1,7.13,2.1H7.2c3.17.24,4.27,6.48,3.6,10.75a2,2,0,0,1-.29.11l-1.17.36-3.21,1L9.5,14.1,10.75,14h.13c.64,1.4,2.55,6,2.13,10.48-.58.26-1.32.57-2.1.83a28.76,28.76,0,0,1-3.56,1,28.24,28.24,0,0,0,3.77-.21c.77-.08,1.53-.22,2.17-.35a30.6,30.6,0,0,1,2.4,12.68,21.49,21.49,0,0,1-2.13,1.17,23.72,23.72,0,0,1-2.89,1.12,24.56,24.56,0,0,0,3.17-.38c.75-.14,1.5-.33,2.07-.49.28.65.75,1.75,1.34,3.07a5.92,5.92,0,0,1-1,.82c-.12.09-.26.16-.38.24l-.43.24c-.14.08-.33.21-.48.31s-.3.22-.44.34a7.35,7.35,0,0,0-1.44,1.62,12.13,12.13,0,0,0-1.45,3.75l-.41,1.85c-.07.3-.14.61-.21.88s-.17.6-.27.88c-.37,1.15-.82,2.32-1.26,3.48l0-3.33L8.28,58.3c-.38-6-.57-9.42-.94-12.45a8.92,8.92,0,0,0,1.35.74c.47.2.79.31.79.31s-.26-.21-.6-.55A7.51,7.51,0,0,1,7.79,45a7.86,7.86,0,0,1-.73-1.45c0-.08,0-.15-.07-.22-.2-1.17-.43-2.35-.73-3.7A298.54,298.54,0,0,1,2.27,7.47Zm15.32,77a6.28,6.28,0,0,0-.1-1.37l.22.12a26.19,26.19,0,0,0,2.54,1.16,23.85,23.85,0,0,1-2-1.78c-.58-.57-1.1-1.17-1.42-1.55-1.6-3.47-5.25-7.19-7.17-13.26a19.61,19.61,0,0,0,2,2.36c.6.6,1,1,1,1s-.36-.44-.83-1.12a18.63,18.63,0,0,1-1.5-2.61,18.24,18.24,0,0,1-1-2.75c-.12-.4-.19-.73-.25-1,.19-.76.42-1.53.68-2.29.4-1.18.84-2.35,1.28-3.54s.9-2.36,1.3-3.6q.15-.48.27-.93c.09-.34.15-.64.22-.95l.4-1.83a12.14,12.14,0,0,1,1-2.83l2.45.68-1.8-1.67a5.25,5.25,0,0,1,.73-.76,2.78,2.78,0,0,1,.34-.26,2,2,0,0,1,.36-.23l.43-.26.46-.28a10.64,10.64,0,0,0,2.86-3c.06-.09.12-.19.19-.28a2.08,2.08,0,0,0,.32.51,4.41,4.41,0,0,0,1.51,1.14,12.43,12.43,0,0,0,1.65.72,3.7,3.7,0,0,0,1.93.15,2.58,2.58,0,0,0,1.53-.95A7.92,7.92,0,0,0,28,42c.82-1.43,1.29-2.43,1.29-2.43s-.79.81-1.84,2.11a13,13,0,0,1-.85,1,2,2,0,0,1-.5.37l-.14.07-.15,0a1.77,1.77,0,0,1-.29.07,3,3,0,0,1-1.37-.2,12.66,12.66,0,0,1-1.47-.68,3.81,3.81,0,0,1-1.19-.84,1.29,1.29,0,0,1-.35-1.05,2.25,2.25,0,0,1,.08-.24c.34-.5.68-1,1.05-1.43a17.69,17.69,0,0,1,1.26-1.38,2.93,2.93,0,0,1,1.32-.83,4,4,0,0,1,3.18.63,6.59,6.59,0,0,1,2.31,2.55c.42,3.31-2.19,8.5-6.61,11.51l-5.11,1.89,2.79,0,0,.51c0,.41,0,1,0,1.7,0,1.4.2,3.21.19,5,0,.45,0,.89,0,1.32s-.07.86-.13,1.28-.14.81-.2,1.19-.17.73-.24,1.06c-.18.65-.33,1.2-.47,1.58l-.19.6s.11-.21.31-.56.46-.86.77-1.49c.14-.32.29-.66.46-1s.31-.76.44-1.17.27-.85.39-1.29.23-.9.32-1.36.13-.72.19-1.08c1.16.91,3.21,1,5.49,1.48a8.13,8.13,0,0,1,.38,1.2,10.19,10.19,0,0,1,.26,2.07,10.17,10.17,0,0,0,.59-2.1,7.64,7.64,0,0,0,.1-.82,11.11,11.11,0,0,1,3.32,1.66l0,0,.43.48a5.83,5.83,0,0,1,.61.84h0l.07.11a8.51,8.51,0,0,1,.91,2.23A12.38,12.38,0,0,1,35.77,69a15.78,15.78,0,0,1,0,2.48,10.68,10.68,0,0,0,.24-1.23c0-.42.1-.84.11-1.26a12.76,12.76,0,0,0-.12-2.54c0-.17-.07-.35-.11-.52a11.14,11.14,0,0,1,1.18,2,11.14,11.14,0,0,0-.43-2.32,8.75,8.75,0,0,0-.42-1.16c2.38-2.83,4-7.21,5-11.52l2.49.41-2.12-1.39c.43-1.12.83-2.29,1.19-3.49a10.84,10.84,0,0,0,2-.16,10.62,10.62,0,0,0,2-.55c.52-.2.85-.37.85-.37a8.41,8.41,0,0,1-.92.13,10.28,10.28,0,0,1-2,0,10,10,0,0,1-1.66-.31,25.8,25.8,0,0,0,.93-7.72,19,19,0,0,0,2.47-5.11c1-3.59,4.1-10.51,5.57-15.42.83-2.79,3.8-5.12,5.94-5.12a2.27,2.27,0,0,1,.65.09c1.83.46,2.13,6.31-.93,10.9l-4.12-.42,3.95,1.81a10.94,10.94,0,0,1-.21,3c-.22.64-.44,1.28-.67,1.93a7.24,7.24,0,0,1-1.67,2.24l-3.6-.63,3.31,1.85a19.44,19.44,0,0,1-3.82,9c-.19,0-.39,0-.59-.08A12.15,12.15,0,0,1,48.33,43a12.39,12.39,0,0,0,1.78,1.26l.46.25c-.8,2.65-.76,9.08-.58,13.13.32,7.32-1.44,18.82-4.81,24.33h0a15.44,15.44,0,0,1-1.41,1.35,16.2,16.2,0,0,1-1.63,1.2A18.36,18.36,0,0,0,44.19,84h0a13.32,13.32,0,0,1,.71,3.29c.24,2.27-.71,12.7-1,15.5H18.42S17.31,90.25,17.59,84.47ZM53.11,67c-.32,1.52-.72,3.07-1.08,4.66s-.75,3.2-1.08,4.81-.66,3.24-.87,4.84-.27,3.19-.35,4.74c-.18,3.08-.35,6-.49,8.43s-.3,4.53-.39,6-.17,2.26-.17,2.26,0-.82.06-2.26.1-3.51.18-6,.2-5.36.32-8.44c.07-1.54.11-3.15.32-4.78s.49-3.25.83-4.88.74-3.23,1.12-4.81.79-3.15,1.12-4.65a30.8,30.8,0,0,0,.66-4.38,35.71,35.71,0,0,0,.05-4c-.1-2.46-.35-4.51-.45-5.95,0-.72-.07-1.29-.07-1.68s0-.59,0-.59l0,.59c0,.39.07.95.15,1.67.14,1.43.5,3.47.66,5.95A30,30,0,0,1,53.11,67Z"/><path class="cls-1" d="M35.59,74.69c-.27.43-.61.9-1,1.4s-.76,1-1.2,1.54-.83,1-1.25,1.5-.8.92-1.17,1.28-.63.7-.85.92l-.32.36.46-.2c.28-.15.68-.36,1.14-.64s.94-.68,1.46-1.1,1-1,1.44-1.49.8-1.15,1.14-1.7.55-1.13.73-1.61.27-.9.34-1.19l.07-.47-.28.39C36.14,73.93,35.9,74.29,35.59,74.69Z"/><path class="cls-1" d="M32,87.47c-.67,0-1.44-.06-2.27-.1s-1.72-.12-2.6-.23-1.76-.21-2.58-.35-1.59-.26-2.24-.41L20.69,86l-.6-.13.57.23c.36.13.88.34,1.53.52s1.39.41,2.22.58,1.72.31,2.61.42,1.8.15,2.64.17,1.64,0,2.31-.06,1.23-.13,1.62-.18l.61-.09h-.62C33.19,87.5,32.63,87.48,32,87.47Z"/></g></g></svg>
