<?xml version="1.0" standalone="no"?>
<!DOCTYPE svg PUBLIC "-//W3C//DTD SVG 20010904//EN"
 "http://www.w3.org/TR/2001/REC-SVG-20010904/DTD/svg10.dtd">
<svg version="1.0" xmlns="http://www.w3.org/2000/svg"
 width="1416.000000pt" height="1416.000000pt" viewBox="0 0 1416.000000 1416.000000"
 preserveAspectRatio="xMidYMid meet">
<metadata>
Created by potrace 1.14, written by Peter Selinger 2001-2017
</metadata>
<g transform="translate(0.000000,1416.000000) scale(0.100000,-0.100000)"
fill="#000000" stroke="none">
<path d="M3689 14146 c-2 -3 -31 -7 -63 -10 -32 -4 -63 -9 -69 -13 -6 -4 -21
-8 -32 -9 -36 -4 -109 -25 -122 -36 -7 -6 -13 -7 -13 -3 0 4 -6 2 -13 -4 -8
-6 -17 -8 -20 -4 -4 3 -7 1 -7 -5 0 -7 -7 -12 -15 -12 -20 0 -137 -62 -198
-106 -26 -19 -50 -34 -53 -34 -6 0 -76 -63 -132 -120 -62 -63 -183 -223 -188
-250 0 -3 -9 -23 -19 -45 -10 -22 -20 -43 -21 -47 -1 -5 -2 -9 -4 -10 -1 -2
-3 -10 -5 -18 -2 -8 -7 -26 -11 -40 -8 -33 -14 -242 -6 -255 3 -5 7 -16 8 -25
3 -30 12 -66 28 -110 9 -25 16 -52 16 -61 0 -9 7 -22 15 -29 9 -7 14 -15 11
-17 -9 -9 110 -233 187 -351 26 -40 47 -77 47 -82 0 -6 5 -10 10 -10 6 0 10
-6 10 -14 0 -8 4 -16 8 -18 4 -1 49 -68 100 -148 50 -80 97 -152 105 -160 7
-8 26 -35 42 -60 41 -61 167 -224 177 -228 4 -2 8 -8 8 -13 0 -5 8 -17 18 -28
9 -10 51 -56 92 -101 95 -106 227 -237 315 -315 38 -33 76 -67 85 -75 8 -9 34
-29 55 -45 22 -17 42 -33 45 -36 27 -33 439 -316 535 -368 22 -12 47 -26 55
-31 38 -26 211 -119 232 -125 13 -4 25 -11 28 -14 7 -9 135 -71 355 -171 46
-21 93 -41 105 -45 17 -6 52 -21 97 -41 28 -13 56 -24 61 -24 5 0 29 -8 53
-19 52 -22 81 -34 92 -36 4 -2 9 -4 12 -5 3 -1 8 -3 13 -5 4 -1 20 -7 35 -13
16 -7 33 -12 38 -12 5 0 17 -4 27 -9 16 -9 46 -21 67 -27 19 -5 320 -107 340
-114 42 -16 83 -30 185 -60 58 -17 116 -35 130 -40 20 -7 92 -28 120 -35 3 0
32 -9 65 -19 33 -10 65 -19 70 -21 6 -1 17 -5 25 -8 8 -3 35 -11 60 -17 25 -6
54 -15 65 -20 11 -5 47 -15 80 -24 33 -8 123 -33 200 -56 77 -23 147 -43 156
-45 9 -2 48 -13 88 -25 l71 -21 -6 -127 c-7 -174 -17 -282 -29 -342 -3 -14 -7
-45 -10 -70 -3 -25 -7 -52 -10 -60 -2 -8 -7 -29 -10 -47 -3 -18 -12 -63 -20
-100 -9 -37 -18 -81 -21 -98 -3 -16 -12 -48 -19 -70 -7 -22 -23 -74 -35 -115
-12 -41 -28 -92 -36 -112 -7 -21 -11 -38 -8 -38 4 0 2 -6 -3 -12 -5 -7 -20
-42 -33 -78 -13 -36 -28 -78 -35 -95 -7 -16 -22 -55 -34 -85 -12 -30 -26 -64
-31 -75 -19 -40 -33 -80 -32 -87 1 -5 -3 -8 -8 -8 -6 0 -10 -8 -10 -17 0 -10
-8 -31 -18 -48 -10 -16 -25 -48 -34 -70 -9 -22 -44 -98 -78 -170 -34 -71 -79
-166 -100 -210 -21 -44 -62 -129 -91 -190 -29 -60 -53 -112 -54 -115 -1 -3
-10 -23 -20 -45 -10 -22 -19 -42 -20 -45 0 -3 -11 -27 -24 -55 -13 -27 -25
-55 -26 -60 -2 -6 -12 -32 -24 -57 -11 -26 -21 -49 -21 -51 0 -3 -8 -22 -17
-43 -9 -22 -17 -41 -18 -44 -1 -3 -5 -12 -8 -20 -4 -8 -25 -71 -48 -140 -23
-69 -61 -176 -85 -238 -24 -63 -44 -120 -44 -128 0 -8 -5 -14 -11 -14 -5 0 -8
-4 -5 -8 3 -5 -1 -20 -9 -35 -8 -15 -12 -27 -9 -27 2 0 -2 -13 -11 -29 -8 -17
-17 -38 -18 -48 -2 -10 -8 -27 -12 -38 -32 -79 -43 -114 -38 -119 4 -3 1 -6
-5 -6 -7 0 -11 -3 -10 -7 1 -5 -9 -39 -22 -78 -13 -38 -25 -74 -27 -80 -1 -5
-27 -81 -57 -168 -30 -86 -56 -161 -57 -165 -1 -4 -3 -11 -5 -17 -16 -48 -146
-463 -149 -475 -3 -14 -13 -47 -81 -280 -14 -47 -27 -94 -29 -104 -3 -10 -9
-33 -15 -51 -6 -18 -12 -41 -15 -51 -2 -10 -16 -62 -31 -114 -14 -52 -28 -104
-31 -115 -2 -11 -5 -24 -7 -30 -2 -5 -6 -23 -10 -40 -5 -16 -16 -59 -27 -95
-10 -36 -20 -76 -23 -90 -2 -14 -23 -97 -45 -185 -22 -88 -42 -171 -45 -185
-2 -14 -12 -56 -21 -95 -9 -38 -18 -79 -19 -90 -1 -12 -5 -26 -9 -31 -3 -6 -9
-25 -12 -42 -3 -18 -12 -61 -20 -97 -9 -36 -13 -70 -10 -75 3 -5 1 -11 -4 -14
-7 -4 -14 -36 -22 -93 -1 -2 -7 -31 -16 -65 -8 -35 -17 -74 -19 -88 -2 -14 -7
-36 -9 -50 -10 -49 -15 -75 -20 -100 -3 -14 -7 -34 -9 -45 -6 -33 -45 -238
-51 -270 -3 -16 -7 -41 -10 -55 -8 -44 -44 -254 -49 -285 -3 -16 -12 -70 -20
-118 -8 -49 -15 -92 -14 -95 0 -4 -1 -9 -2 -12 -1 -3 -3 -16 -5 -30 -2 -14 -6
-43 -10 -65 -7 -47 -11 -71 -21 -140 -3 -27 -8 -59 -10 -70 -4 -19 -12 -87
-19 -150 -2 -16 -4 -30 -5 -30 -2 0 -3 -9 -14 -100 -4 -27 -8 -59 -10 -70 -29
-141 -27 -558 3 -637 5 -14 7 -28 5 -31 -3 -3 2 -19 11 -36 8 -17 13 -31 10
-31 -10 0 37 -107 77 -175 47 -79 174 -209 234 -240 21 -11 41 -22 44 -25 3
-4 21 -13 40 -22 145 -66 194 -82 330 -108 25 -5 57 -12 73 -15 105 -20 219
-30 372 -29 121 0 214 6 275 19 14 3 36 7 49 10 107 21 247 81 345 147 71 48
178 154 221 218 16 25 33 47 36 50 11 10 86 167 106 225 23 64 59 198 68 255
3 19 8 42 10 50 2 8 7 47 11 85 7 83 10 105 18 165 3 25 8 65 10 90 2 25 7 61
10 80 10 64 17 115 21 155 3 22 7 56 10 75 3 19 8 53 11 75 3 22 7 51 10 65 2
14 7 43 10 65 3 22 9 63 14 90 6 28 12 66 14 85 3 19 8 49 11 65 3 17 7 44 10
60 3 17 7 41 10 55 3 14 7 39 10 55 2 17 7 41 10 55 3 14 8 41 11 60 3 19 12
64 20 100 13 62 18 89 31 155 8 46 11 60 13 60 1 0 3 11 6 25 2 14 11 57 20
95 8 39 17 84 20 100 3 17 17 75 30 130 14 55 27 109 28 120 2 11 6 27 9 35 4
8 9 26 11 40 3 14 17 70 31 125 14 55 28 109 30 120 2 11 15 63 30 115 26 95
31 115 40 147 2 10 11 43 20 73 9 30 22 78 30 105 46 166 60 211 64 215 4 3 6
10 6 15 0 6 9 37 19 70 10 33 19 65 21 70 1 6 5 17 8 25 3 8 17 53 32 100 14
47 27 90 29 95 2 6 4 13 5 17 1 4 27 81 58 170 30 90 56 168 58 173 2 10 7 25
28 80 7 17 12 32 13 35 0 3 3 12 7 20 3 8 18 51 33 95 14 44 31 86 36 93 6 6
8 12 4 12 -3 0 4 24 15 53 12 28 22 58 22 65 0 6 3 12 7 12 3 0 13 23 20 51 8
27 18 52 22 55 4 3 8 12 8 21 0 8 7 29 15 46 22 49 57 146 53 150 -2 2 3 11
10 19 7 9 14 24 17 34 2 11 14 42 26 69 13 28 23 55 24 60 1 6 6 21 12 35 6
14 32 77 57 140 26 63 56 135 68 160 11 25 21 50 23 55 3 14 31 81 72 173 9
20 18 42 19 47 2 9 155 355 194 440 10 22 29 65 43 95 52 115 147 320 204 440
105 219 114 239 111 244 -2 2 5 13 15 23 9 11 14 23 10 26 -3 4 -1 7 5 7 7 0
12 5 12 11 0 13 233 482 243 490 5 3 8 9 8 13 -1 6 14 36 136 276 26 52 51 97
56 98 4 2 7 12 7 22 0 10 3 20 8 22 4 2 22 32 39 68 18 36 54 106 81 155 26
50 74 140 106 200 33 61 71 133 86 160 15 28 38 70 51 95 13 25 25 47 28 50 4
3 18 30 34 60 15 30 42 82 60 115 19 33 51 92 72 130 21 39 70 126 108 195 38
69 82 148 97 175 15 28 44 78 63 113 20 34 34 62 32 62 -3 0 3 9 12 20 17 20
94 156 113 200 6 13 15 27 19 30 4 3 22 34 40 70 19 36 36 67 40 70 3 3 21 34
40 70 18 36 38 71 44 79 6 7 12 20 13 29 2 8 9 19 16 23 7 5 9 9 5 9 -5 0 0
16 12 36 12 19 21 42 21 50 0 8 5 14 10 14 6 0 9 3 8 8 -1 4 5 23 14 42 14 29
39 93 84 215 4 11 8 25 9 30 1 6 3 12 4 15 2 3 4 12 6 20 2 8 12 49 24 90 11
41 23 89 26 105 2 17 7 39 9 50 14 74 20 160 20 295 0 133 -6 197 -28 305 -4
21 -31 106 -45 140 -19 49 -86 175 -93 175 -4 0 -8 5 -8 11 0 11 -57 85 -96
123 -40 41 -122 106 -133 106 -6 0 -11 3 -11 8 0 7 -4 10 -82 49 -90 45 -205
84 -253 87 -11 1 -24 4 -30 7 -34 19 -411 17 -450 -2 -5 -2 -25 -4 -42 -4 -18
0 -33 -2 -33 -5 0 -3 -10 -6 -22 -7 -23 -1 -55 -8 -88 -18 -10 -3 -27 -8 -37
-10 -10 -2 -88 -25 -173 -50 -85 -25 -163 -48 -172 -51 -10 -2 -26 -6 -35 -9
-195 -53 -283 -76 -303 -80 -14 -3 -40 -9 -57 -14 -18 -5 -33 -8 -33 -6 0 2
-18 -2 -40 -10 -22 -8 -43 -14 -45 -14 -11 0 -97 -17 -137 -27 -13 -3 -32 -6
-43 -8 -11 -2 -60 -11 -110 -20 -49 -10 -101 -19 -115 -21 -80 -12 -97 -15
-120 -20 -14 -3 -45 -8 -70 -10 -45 -5 -69 -8 -145 -19 -94 -13 -262 -25 -423
-31 -63 -2 -116 -6 -119 -9 -3 -3 -14 -1 -24 5 -13 7 -19 6 -19 -1 0 -7 -6 -8
-16 -2 -9 5 -33 6 -55 2 -21 -4 -41 -5 -44 -2 -3 3 -51 6 -107 8 -153 3 -351
21 -448 39 -9 2 -43 7 -75 11 -65 9 -74 10 -77 14 -2 1 -16 4 -33 6 -26 3
-194 39 -220 48 -5 1 -23 6 -40 10 -31 8 -190 54 -213 61 -7 3 -13 4 -15 4 -1
0 -26 9 -54 20 -29 11 -53 18 -53 15 0 -4 -6 -2 -12 4 -7 6 -43 21 -79 35
-177 67 -413 181 -569 276 -19 11 -50 28 -67 38 -18 9 -33 20 -33 25 0 4 -5 8
-12 8 -10 0 -204 125 -218 140 -3 3 -36 28 -75 55 -38 27 -72 51 -75 54 -3 4
-39 33 -80 66 -41 32 -77 62 -80 65 -3 3 -18 16 -34 28 -62 48 -218 194 -381
357 -93 94 -191 185 -217 203 -97 67 -190 110 -323 151 -53 17 -81 23 -160 38
-33 5 -281 13 -286 9z"/>
</g>
</svg>
