<svg xmlns="http://www.w3.org/2000/svg" viewBox="0 0 243.49 404.62"><defs><style>.cls-1{fill:#f8b887;}.cls-2{fill:#e69457;}.cls-3{fill:#a5151b;}.cls-4{fill:#373958;}.cls-5{fill:#be1622;}</style></defs><g id="Слой_2" data-name="Слой 2"><g id="Capa_1" data-name="Capa 1"><rect class="cls-1" x="105.2" y="248.63" width="62.75" height="79.78"/><path class="cls-2" d="M105.24,304.34c18.47-15.6,31.35-17.83,62.75-17.83V246.67H105.24Z"/><path class="cls-1" d="M235.15,404.53v-82.9a17.21,17.21,0,0,0-17.2-17.2H57.83a17.2,17.2,0,0,0-17.21,17.2v82.9Z"/><path class="cls-1" d="M226.21,198.43c0,38.75-52,85.72-90.63,85.77-28.26,0-88.65-47-88.65-85.77V116.6a70.15,70.15,0,0,1,70.15-70.15h39a70.15,70.15,0,0,1,70.15,70.15Z"/><path class="cls-3" d="M214.92,61.26c14.06,14.58,30.88,45.46,28.3,85.44-4.53,70.41-19.55,80.81-38.6,97.79,0,0,21.1-31.4,14.41-56.1S134.1,115.81,157.27,75.16C178.92,37.15,205.73,51.73,214.92,61.26Z"/><rect class="cls-4" x="40.7" y="341.52" width="194.53" height="63.09"/><rect class="cls-4" x="74.66" y="304.98" width="8.96" height="45.29"/><rect class="cls-4" x="192.32" y="304.98" width="8.96" height="45.29"/><path class="cls-5" d="M226.48,89.23c-.71-8.64-7.51-37.36-44.56-50.38a35.92,35.92,0,0,1,18.41,2.5S188,28.65,173.91,32.43c0,0-11.32-19.56-36.37-28.82,0,0,9.64,6.44,14.34,16.35C140.77,10.44,121.36.9,87.85,0c0,0,24.33,2.86,33.26,10.42,0,0-60.11-15.28-107.51,42.48C17.81,48.49,28,40.25,49.35,34.09c0,0-53.49,42.7-49.09,111.81,0,0,3.43-37.44,21.81-61.69,0,0-35.77,83.75,14.08,144.11,0,0-28.31-44.79-17-78.3,0,0,7.19,66.84,50,98.11,0,0-11.26-45.87-11.41-91.22C171.06,158.15,226.48,89.23,226.48,89.23Z"/><path class="cls-5" d="M13.6,52.9A19.68,19.68,0,0,0,11.09,56C11.92,54.91,12.76,53.92,13.6,52.9Z"/></g></g></svg>