<svg xmlns="http://www.w3.org/2000/svg" viewBox="0 0 228.75 441.43"><defs><style>.cls-1{fill:#f8b887;}.cls-2{fill:#e69457;}.cls-3{fill:#ededed;}.cls-4{fill:#2e2d2c;}.cls-5{fill:#904531;}.cls-6{fill:#fff;}</style></defs><g id="Слой_2" data-name="Слой 2"><g id="Capa_1" data-name="Capa 1"><rect class="cls-1" x="76.86" y="258.83" width="73.74" height="93.75"/><path class="cls-2" d="M76.92,324.31c21.7-18.33,36.84-21,73.73-21l0-46.82-73.74,0Z"/><path class="cls-3" d="M228.66,441.29l-.06-97.41a20.23,20.23,0,0,0-20.24-20.22l-188.16.13A20.21,20.21,0,0,0,0,344l.06,97.41Z"/><path class="cls-4" d="M73.05,323.75l-52.72,0A20.24,20.24,0,0,0,.12,344l.07,97.41,73-.05Z"/><path class="cls-4" d="M155.73,323.7l52.73,0a20.22,20.22,0,0,1,20.22,20.22l.07,97.41-72.94,0Z"/><path class="cls-1" d="M212.51,166.92c-1.76-.47-3.69.18-5.57,1.68V140c0-50.27-22.56-89.27-71-89.23l-48.68,0c-48.4,0-70.88,39.06-70.85,89.31l0,28.68c-1.89-1.54-3.84-2.22-5.63-1.74-5.2,1.4-7.09,11.86-4.23,23.36,2,8.18,5.94,14.66,9.89,17.24,0,0,38.4,89.86,94.06,89.83,69.9-.05,96.42-90,96.42-90,3.91-2.61,7.77-9.06,9.79-17.2C219.6,178.76,217.7,168.31,212.51,166.92Z"/><path class="cls-5" d="M209.06,83.15c-3-15.74-8.51-30.67-18.15-41.46,0,0,2.4,10.61-2.51,12.75-.63-.59-1.29-1.15-1.94-1.73-3.9-5.71-17.24-22.63-45-34.28,0,0,9,9.89-.42,7.59C125.67,17.81,113,9.6,112.56.16V0s0,.05,0,.08V.16C112.1,9.6,99.45,17.83,84.1,26.07c-9.4,2.29-.44-7.6-.44-7.6C55.92,30.15,42.6,47.09,38.71,52.8c-.66.58-1.32,1.13-1.94,1.73-4.91-2.13-2.51-12.75-2.51-12.75C24.6,52.58,19.11,67.52,16.15,83.27,10.56,94.86,7.72,106,8,113.17c.52,13.45,7.28,50.73,8.77,58.86,2.17,1.19,5.12,1.64,8-1.61a2.86,2.86,0,0,0,.29-.42c2.35-2.52,3.9-7.77,3.89-17.49,0-7.37,2.94-13.9,7.92-19.55a103.05,103.05,0,0,1,16.35-12.31c15.61-8.26,59.38-12.94,59.39-12.94h0c1.37-.2,43.76,4.62,59.4,12.86a102.24,102.24,0,0,1,16.37,12.3c5,5.64,7.93,12.17,7.93,19.54,0,9.72,1.55,15,3.91,17.48a3.13,3.13,0,0,0,.29.42c2.91,3.25,5.86,2.79,8,1.6,1.49-8.12,8.2-45.43,8.7-58.86C217.53,105.91,214.66,94.74,209.06,83.15Z"/><path class="cls-1" d="M149.62,323.22l-38.53,0H111l-38.52,0c-9.53,4.12-9.52,6.18-6.43,14.42S86.41,360.83,98,370.87c10.27,8.89,12.67,47.92,13.08,56.64v1.77s0-.35,0-.95c0,.6,0,.95,0,.95v-1.77c.39-8.72,2.75-47.76,13-56.67,11.58-10,28.81-25,31.9-33.22S159.15,327.32,149.62,323.22Z"/><path class="cls-6" d="M150.46,323.6s40.28-2.8,16.68,70.65c0,0-5-35.18-25.21-33.62-5.56.42-6,1.93-17.93,10.47,0,0,18.61-18.71,29-32.45C159.57,330,156.29,325.87,150.46,323.6Z"/><path class="cls-6" d="M71.66,323.65s-40.28-2.76-16.59,70.67c0,0,4.92-35.19,25.16-33.66,5.57.43,6,1.93,17.94,10.46,0,0-18.62-18.69-29-32.41C62.57,330,65.83,325.92,71.66,323.65Z"/></g></g></svg>