<svg xmlns="http://www.w3.org/2000/svg" viewBox="0 0 228.59 430.25"><defs><style>.cls-1{fill:#fac18a;}.cls-2{fill:#d19f6c;}.cls-3{fill:#2e2d2c;}.cls-4{fill:#575756;}</style></defs><g id="Слой_2" data-name="Слой 2"><g id="Capa_1" data-name="Capa 1"><rect class="cls-1" x="76.89" y="247.72" width="73.74" height="93.75"/><path class="cls-2" d="M76.94,313.18c21.7-18.32,36.85-21,73.74-21V245.41H76.94Z"/><path class="cls-3" d="M228.59,430.25V332.84a20.21,20.21,0,0,0-20.21-20.22H20.23A20.22,20.22,0,0,0,0,332.84v97.41Z"/><path class="cls-1" d="M212.62,155.87c-1.77-.48-3.69.18-5.57,1.67V128.93c0-50.25-22.49-89.27-70.89-89.27H87.47c-48.41,0-70.9,39-70.9,89.27v28.69c-1.9-1.55-3.84-2.23-5.63-1.75-5.2,1.39-7.1,11.85-4.24,23.35,2,8.18,5.92,14.67,9.87,17.24,0,0,38.35,89.89,94,89.89,69.9,0,96.47-89.94,96.47-89.94,3.92-2.59,7.78-9,9.8-17.19C219.7,167.72,217.81,157.26,212.62,155.87Z"/><path class="cls-1" d="M149.64,312.13H72.5C63,316.25,63,318.3,66.08,326.54S86.41,349.7,98,359.73c10.27,8.91,12.64,47.94,13,56.67v1.76s0-.35,0-.94c0,.59,0,.94,0,.94V416.4c.4-8.73,2.78-47.76,13-56.67,11.58-10,28.82-25,31.91-33.19S159.16,316.25,149.64,312.13Z"/><path class="cls-4" d="M150.47,312.52s40.29-2.79,16.63,70.66c0,0-4.94-35.19-25.19-33.64-5.55.42-6,1.93-17.93,10.46,0,0,18.63-18.7,29-32.43C159.57,318.86,156.31,314.78,150.47,312.52Z"/><path class="cls-4" d="M71.67,312.52S31.39,309.73,55,383.18c0,0,4.94-35.19,25.19-33.64,5.55.42,6,1.93,17.92,10.46,0,0-18.61-18.7-29-32.43C62.57,318.86,65.84,314.78,71.67,312.52Z"/><path class="cls-3" d="M29.71,59.75s10.44-41.83,54-52.39c0,0-14.57,7.18-21.26,22.88,0,0,23.84-31.57,81.84-30.2,0,0-26.42,5.49-38.78,16.82,0,0,43.58-19.56,85.45,4.12,0,0-28.14-6.86-44.27-1.72,0,0,65.54,5.49,74.12,65.2,0,0-15.1-32.6-34-37.75,0,0,33.46,25,30.46,55.22s-7.12,58.71-7.12,58.71-1,1.37-5.85,1.71-8.23-13.72-8.23-24.35c0-7.2,2-32.32-23-42.22-12-4.75-109.72-6.7-125.59,1.37-18.87,9.61-28.82,23.68-22.64,45.3,0,0,15.94,17.9-7.44,19.49a10.27,10.27,0,0,1-.64-1S-24.34,62.66,29.71,59.75Z"/><path class="cls-3" d="M204.12,162.35s-.26-3-.18-2.32c-7.82-32.54-2.62-77.29-41.6-77.29H84.61c-34.06,0-51.66,5.08-61.77,31.14,10.26-6.38,21.36-1,49.16,24.45C120,182.32,204.12,162.35,204.12,162.35Z"/></g></g></svg>