<svg xmlns="http://www.w3.org/2000/svg" viewBox="0 0 79.17 249.73"><defs><style>.cls-1{fill:#3f3f3f;}</style></defs><g id="Слой_2" data-name="Слой 2"><g id="Layer_1" data-name="Layer 1"><path class="cls-1" d="M65.78,188.79c0-4.49,1.51-7.73,3.11-11.16,1.78-3.81,3.62-7.75,3.62-13.45,0-5,0-15.52-8.64-15.52-1.14,0-3.18.49-4.08,3.73a31,31,0,0,0-.73,5c-.72,7.36-1.69,12.57-7.69,12.57-1.65,0-4.2-.47-5.17-3.16L44.41,52v0a20.76,20.76,0,0,1,5.76-14.08c2.5-2.53,3-3.78,1.14-5.76-1.5-1.55-5-5.18-2.14-23.35a1.3,1.3,0,0,0-1.29-1.51H47.8c-.21,0-2.22-.08-3.55-2.81L44,3.93C43,1.82,42.1,0,40.48,0S38,1.38,37,5.17l-1.16-.29a2.88,2.88,0,0,0-.9-2,.93.93,0,0,0-.89-.22A3.09,3.09,0,0,0,31.89,5a3.07,3.07,0,0,0,.79,3.15.92.92,0,0,0,.88.22A2.92,2.92,0,0,0,35.32,7l1.16.29-.31,1.47c-.2,1-.41,2-.65,3l-1.33-.33a2.92,2.92,0,0,0-.9-2.05.94.94,0,0,0-.89-.22,3.09,3.09,0,0,0-2.16,2.42A3.07,3.07,0,0,0,31,14.71a.92.92,0,0,0,.89.22,2.9,2.9,0,0,0,1.76-1.39l1.36.33c-.34,1.44-.71,2.92-1.09,4.43L32.53,18a2.9,2.9,0,0,0-.9-2.06.94.94,0,0,0-.88-.22,3.1,3.1,0,0,0-2.17,2.42,3.11,3.11,0,0,0,.79,3.16.91.91,0,0,0,.88.21A2.9,2.9,0,0,0,32,20.07l1.39.34c-.38,1.48-.76,2.95-1.15,4.41l-1.37-.34a2.94,2.94,0,0,0-.9-2.06,1,1,0,0,0-.89-.22,3.1,3.1,0,0,0-2.16,2.43,3.09,3.09,0,0,0,.78,3.15,1,1,0,0,0,.89.22,3,3,0,0,0,1.76-1.4l1.33.33c-.38,1.41-.75,2.78-1.11,4.09l-.08.31L29.23,31A2.92,2.92,0,0,0,28.32,29a.89.89,0,0,0-.88-.22,3.08,3.08,0,0,0-2.17,2.42,3.09,3.09,0,0,0,.79,3.15.92.92,0,0,0,.88.22,2.92,2.92,0,0,0,1.76-1.4l1.23.31c-.42,1.57-.82,3.06-1.17,4.4l-1.19-.3a2.88,2.88,0,0,0-.9-2,.94.94,0,0,0-.89-.22,3.09,3.09,0,0,0-2.16,2.42,3.09,3.09,0,0,0,.78,3.15.94.94,0,0,0,.89.22,2.92,2.92,0,0,0,1.76-1.4l1.17.29c-.34,1.36-.6,2.49-.76,3.32-.68,3.59,1.62,4.56,3.14,5.2s2.61,1.1,2.62,3.55L31.65,152.61c-.61,1.45-2,2.83-5.3,2.83-4.26,0-5.4-4.55-6-12.93a37.32,37.32,0,0,0-.5-4.61c-.68-3.27-2.57-3.75-3.63-3.75-10.11,0-10.11,12.6-10.11,17.34,0,5.74,1.8,10.4,3.55,14.9,1.84,4.74,3.74,9.64,3.74,16.2,0,6.2-2.62,10.87-5.66,16.28C4.11,205.34,0,212.66,0,223.87c0,10.29,3.78,17.26,11.55,21.29,6.15,3.2,14.54,4.57,28,4.57s21.89-1.37,28-4.57c7.77-4,11.55-11,11.55-21.29,0-11.4-4.21-17-7.92-21.86C68.2,198,65.78,194.8,65.78,188.79ZM33.31,4.45c-.07.13-.11.27-.17.41a3.18,3.18,0,0,0-.14.46c0,.13-.07.3-.09.44a3.4,3.4,0,0,0,0,.45A2.86,2.86,0,0,0,33,7a3,3,0,0,0,.21.57l.11.22-.22-.13a2.14,2.14,0,0,1-.48-.48,2.24,2.24,0,0,1-.35-.92,2.63,2.63,0,0,1,0-.56c0-.2,0-.37.09-.58s.11-.34.19-.53a2.31,2.31,0,0,1,.28-.48,2.21,2.21,0,0,1,.74-.65,1.84,1.84,0,0,1,.65-.21h.25l-.2.14a4.49,4.49,0,0,0-.45.4A3.05,3.05,0,0,0,33.31,4.45ZM31.66,11c-.07.13-.12.27-.18.41l-.07.21-.06.24a3.36,3.36,0,0,0,0,1.69,5.6,5.6,0,0,0,.21.57c.07.13.11.22.11.22l-.21-.13a1.66,1.66,0,0,1-.48-.48,2.11,2.11,0,0,1-.35-.92,3.08,3.08,0,0,1,.05-1.13l.08-.26.11-.28a2.92,2.92,0,0,1,.29-.48,2.13,2.13,0,0,1,.74-.65,1.9,1.9,0,0,1,.64-.2,1.28,1.28,0,0,1,.26,0l-.2.14a3.1,3.1,0,0,0-.9,1.06ZM30,17.51c-.07.13-.11.27-.17.41l-.07.21-.07.24a3.35,3.35,0,0,0,0,1.69,3,3,0,0,0,.21.57,1.77,1.77,0,0,0,.11.22l-.22-.13a1.78,1.78,0,0,1-.47-.48,2.07,2.07,0,0,1-.36-.92A2.83,2.83,0,0,1,29,18.2l.08-.27.11-.27a2.15,2.15,0,0,1,.28-.49,2.33,2.33,0,0,1,.74-.65,2,2,0,0,1,.65-.2,1.18,1.18,0,0,1,.25,0l-.2.14a3.71,3.71,0,0,0-.45.41A3.24,3.24,0,0,0,30,17.51Zm-1.65,6.54c-.07.12-.12.27-.18.4a3.71,3.71,0,0,0-.13.46,2.11,2.11,0,0,0-.09.45,3.42,3.42,0,0,0,0,.44,2.75,2.75,0,0,0,.1.79,3.63,3.63,0,0,0,.2.57l.11.22a1.09,1.09,0,0,1-.21-.12,1.86,1.86,0,0,1-.48-.49,2.06,2.06,0,0,1-.35-.92,2.6,2.6,0,0,1,0-.56,4.19,4.19,0,0,1,.09-.57,3.69,3.69,0,0,1,.18-.53,2.27,2.27,0,0,1,.29-.48,2,2,0,0,1,.74-.65,1.78,1.78,0,0,1,.65-.21,1.18,1.18,0,0,1,.25,0l-.2.14a3.8,3.8,0,0,0-.45.41A2.73,2.73,0,0,0,28.35,24.05Zm-1.66,6.53a3.89,3.89,0,0,0-.17.41,3.18,3.18,0,0,0-.14.46,4.25,4.25,0,0,0-.09.44,3.37,3.37,0,0,0,0,.44,2.77,2.77,0,0,0,.09.79,2.56,2.56,0,0,0,.21.57,1.77,1.77,0,0,0,.11.22,1.32,1.32,0,0,1-.22-.12A1.85,1.85,0,0,1,26,33.3a2.07,2.07,0,0,1-.36-.92,2.6,2.6,0,0,1,0-.56,4.1,4.1,0,0,1,.08-.57c.05-.16.11-.34.19-.53a2.31,2.31,0,0,1,.28-.48,2.21,2.21,0,0,1,.74-.65,1.84,1.84,0,0,1,.65-.21,1.18,1.18,0,0,1,.25,0l-.2.15a4.49,4.49,0,0,0-.45.4A3.05,3.05,0,0,0,26.69,30.58ZM25,37.11c-.07.13-.12.27-.18.41a3.27,3.27,0,0,0-.13.46,3.12,3.12,0,0,0-.09.44,3.42,3.42,0,0,0,0,.45,2.85,2.85,0,0,0,.1.79,3,3,0,0,0,.21.57,2.08,2.08,0,0,0,.11.21,1,1,0,0,1-.22-.12,1.8,1.8,0,0,1-.48-.48,2.1,2.1,0,0,1-.35-.93,2.51,2.51,0,0,1,0-.55,4.09,4.09,0,0,1,.09-.58,3.69,3.69,0,0,1,.18-.53,2.92,2.92,0,0,1,.29-.48,2,2,0,0,1,.74-.65,1.78,1.78,0,0,1,.65-.21h.25l-.2.14a3.61,3.61,0,0,0-.45.4A2.73,2.73,0,0,0,25,37.11ZM75.62,232.83a17.76,17.76,0,0,1-2.65,5,17.17,17.17,0,0,1-4,3.77,27.39,27.39,0,0,1-9.12,3.87,54.84,54.84,0,0,1-8.27,1.29c-2.48.22-4.65.3-6.43.34s-3.19,0-4.15,0H39.58l1.47,0c1,0,2.36,0,4.14-.13s4-.21,6.41-.48a59,59,0,0,0,8.2-1.42,27.08,27.08,0,0,0,8.92-3.91,17.15,17.15,0,0,0,3.78-3.69,18,18,0,0,0,2.52-4.9,29.54,29.54,0,0,0,1.15-11.54,27.1,27.1,0,0,0-3.26-11.45l-.75-1.32c-.27-.43-.56-.84-.83-1.26-.54-.85-1.18-1.65-1.76-2.48-1.22-1.61-2.45-3.24-3.54-5a21.29,21.29,0,0,1-2.44-5.53,12.35,12.35,0,0,1-.3-1.47,14.75,14.75,0,0,1-.23-1.46c0-.5-.05-1-.08-1.47a10.34,10.34,0,0,1,0-1.47c0-.48,0-.95.08-1.43l.18-1.43a22.59,22.59,0,0,1,.63-2.76,35.87,35.87,0,0,1,2-5.05,39.87,39.87,0,0,0,3.5-9.15,32.34,32.34,0,0,0,.36-8.27,16.26,16.26,0,0,0-1.33-6.22,4.73,4.73,0,0,0-2.29-2.3c-.28-.09-.53-.19-.76-.24l-.62-.12-.46,0-.37,0,.37,0,.46,0,.63.11c.23.05.48.14.77.23a4.49,4.49,0,0,1,.84.47,4.82,4.82,0,0,1,1.54,1.81A16.56,16.56,0,0,1,70,160.12c.11,1.24.15,2.57.18,4,0,.71,0,1.43-.08,2.16s-.15,1.49-.32,2.25a39.86,39.86,0,0,1-3.42,9.29,25.75,25.75,0,0,0-2.74,10.48,11.1,11.1,0,0,0,0,1.41l.09,1.43a11.2,11.2,0,0,0,.23,1.41,13.74,13.74,0,0,0,.29,1.42,20.88,20.88,0,0,0,2.38,5.34c2.13,3.34,5,6.37,6.94,10a27.72,27.72,0,0,1,3.31,11.77A30.1,30.1,0,0,1,75.62,232.83ZM2.51,222.51a35.63,35.63,0,0,1,.17-3.85,37.11,37.11,0,0,1,1.12-5.9,40.62,40.62,0,0,1,2.81-7.29c1.25-2.58,2.81-5.25,4.39-8.06a39.34,39.34,0,0,0,3.93-9.14c.11-.41.21-.83.29-1.25s.16-.84.21-1.27a11.16,11.16,0,0,0,.13-1.27,11.15,11.15,0,0,0,.06-1.32,33.06,33.06,0,0,0-.37-5.32A44.33,44.33,0,0,0,12,167.33a59.4,59.4,0,0,1-3.77-10.82,27.35,27.35,0,0,1-.41-2.86c0-.48-.07-1-.07-1.45v-1.4a47.6,47.6,0,0,1,.39-5.49A17.86,17.86,0,0,1,9.62,140a7.72,7.72,0,0,1,1.65-2.3,5.68,5.68,0,0,1,2.5-1.38,6.38,6.38,0,0,1,1.36-.2h.68a4.18,4.18,0,0,1,.75.09,1.66,1.66,0,0,1,.86.56,2.56,2.56,0,0,1,.42.69,5.93,5.93,0,0,1,.37,1.26,37.08,37.08,0,0,1,.38,4.5,49.9,49.9,0,0,0,.76,7.6,10.51,10.51,0,0,0,2.41,5.2A6.18,6.18,0,0,0,25,157.81a7.88,7.88,0,0,0,1,.14l.35,0H26a8.41,8.41,0,0,1-1,0,6.19,6.19,0,0,1-3.53-1.59,11,11,0,0,1-2.9-5.3,43,43,0,0,1-1.22-7.71,36.76,36.76,0,0,0-.56-4.29,6.48,6.48,0,0,0-.31-.94c-.13-.28-.29-.39-.3-.38h-.43a4.35,4.35,0,0,0-.52,0,5,5,0,0,0-1,.18,4.73,4.73,0,0,0-2.95,2.87,17,17,0,0,0-1.18,4.77,45.48,45.48,0,0,0-.26,5.27v.65l0,.69c0,.47.05.86.08,1.3a26.09,26.09,0,0,0,.4,2.63A58.29,58.29,0,0,0,14,166.5a46.27,46.27,0,0,1,3.28,11,30.19,30.19,0,0,1,.32,5.69,13.86,13.86,0,0,1-.09,1.4,13.11,13.11,0,0,1-.18,1.42c-.06.46-.15.92-.25,1.38s-.21.9-.34,1.34a38,38,0,0,1-4.38,9.45C10.72,201,9.06,203.57,7.72,206a45,45,0,0,0-3.15,7,37,37,0,0,0-1.48,5.72c-.25,1.62-.4,2.91-.46,3.8l-.09,1.35S2.53,223.4,2.51,222.51ZM30.35,36.45c.53-2.23,1.12-4.84,1.82-7.62s1.44-5.74,2.19-8.7l1.1-4.41c.35-1.46.7-2.9,1-4.28a61,61,0,0,1,2-7.61,9.31,9.31,0,0,1,.71-1.53,2.62,2.62,0,0,1,.5-.65,1.13,1.13,0,0,1,.78-.37,1.16,1.16,0,0,1,.72.33,3.88,3.88,0,0,1,.43.51,9.27,9.27,0,0,1,.55,1c.31.6.5,1.09.64,1.42l.22.51s-.36-.68-1-1.83a9.57,9.57,0,0,0-.61-.9c-.24-.29-.57-.64-.9-.61s-.62.43-.84.86A12.67,12.67,0,0,0,39.1,4a75.53,75.53,0,0,0-1.67,7.6c-.3,1.41-.6,2.87-1,4.33L35.41,20.4c-.76,3-1.53,5.92-2.31,8.68s-1.54,5.32-2.16,7.52-1.2,4-1.54,5.32c-.18.64-.32,1.15-.42,1.49l-.14.54.09-.55c.05-.35.13-.87.26-1.53s.29-1.45.48-2.37S30.08,37.56,30.35,36.45ZM47.74,9.86c0,.41-.1.91-.17,1.48s-.11,1.22-.18,1.92-.12,1.47-.19,2.28-.08,1.67-.14,2.55S47,19.88,47,20.81s.05,1.86.11,2.8.17,1.87.33,2.77A16.73,16.73,0,0,0,48.1,29a12.08,12.08,0,0,0,1.06,2.26A11.62,11.62,0,0,0,50.56,33a3.08,3.08,0,0,1,.63.85,1.19,1.19,0,0,1-.09,1,6,6,0,0,1-.93,1.2c-.28.3-.52.52-.68.68l-.25.23s.33-.35.86-1a5.78,5.78,0,0,0,.83-1.21A1,1,0,0,0,51,34a2.9,2.9,0,0,0-.6-.76,10.58,10.58,0,0,1-1.51-1.75,10.14,10.14,0,0,1-1.16-2.33A17.74,17.74,0,0,1,47,26.47c-.17-.93-.28-1.87-.36-2.82s-.09-1.91-.08-2.84.05-1.86.08-2.74.11-1.75.21-2.56.17-1.58.27-2.28c.19-1.41.4-2.57.55-3.39s.23-1.28.23-1.28Zm9.52,160.21a4.28,4.28,0,0,0,.6-.67,4.44,4.44,0,0,0,.55-.74c.16-.27.35-.52.49-.8l.42-.86a16.18,16.18,0,0,0,.67-1.8c.2-.6.35-1.21.49-1.8.27-1.19.5-2.31.64-3.28s.29-1.79.39-2.36l.15-.89s0,.33,0,.91,0,1.4-.13,2.38-.19,2.14-.41,3.37c-.13.61-.25,1.25-.45,1.88a19.17,19.17,0,0,1-.67,1.88l-.46.91a9.38,9.38,0,0,1-.54.85c-.09.14-.18.29-.28.42l-.33.37a5.64,5.64,0,0,1-.68.7l-.73.59c-.26.17-.53.31-.79.45l-.37.21a3.71,3.71,0,0,1-.39.14l-.75.27a9.79,9.79,0,0,1-1.35.25,4.8,4.8,0,0,1-1,.05h-.91l.9-.13a4.92,4.92,0,0,0,1-.18c.37-.12.82-.19,1.26-.37l.69-.3c.11-.06.24-.1.35-.17l.34-.22c.23-.15.47-.29.7-.47Zm6.68,38.35s.24.19.56.5a11.79,11.79,0,0,1,1.08,1.23,12.77,12.77,0,0,1,.93,1.35c.22.39.35.67.35.67s-.24-.19-.57-.5a14.49,14.49,0,0,1-1.08-1.23,12.59,12.59,0,0,1-.92-1.36A7.22,7.22,0,0,1,63.94,208.42ZM33.16,141.84c.15-10.86.3-21.71.44-31.89s.35-19.68.49-27.83.33-14.92.43-19.67.19-7.47.19-7.47,0,2.72,0,7.47,0,11.54,0,19.69-.06,17.65-.15,27.83-.2,21-.3,31.9-.3,21.71-.44,31.89-.35,19.68-.49,27.82-.33,14.93-.43,19.68-.2,7.47-.2,7.47,0-2.72,0-7.47c0-2,0-4.4,0-7.09l-1.17,0c-1,0-1.84-.11-2.42-.14-.3,0-.53-.07-.63.07a.3.3,0,0,0-.09.21.31.31,0,0,1,.06-.24.4.4,0,0,1,.26-.15l.4,0c.58,0,1.42-.1,2.42-.13l1.17-.05v-3.38h-3a1.3,1.3,0,0,0-1.3,1.3,1.1,1.1,0,0,1,0-.24,1.2,1.2,0,0,1,.21-.68,1.43,1.43,0,0,1,1-.65c.44-.06.86-.1,1.36-.14s1.14-.1,1.78-.14v-3l-3.63,0h-.38v-.39l0-5.5,0-5.49V195h.38l3.68,0c0-3,0-6.13.05-9.37l-3.73,0h-.38v-.38l0-5.5,0-5.5v-.39h.38l3.81,0v-.15C33,163.56,33.06,152.7,33.16,141.84Zm9.55-97.58c0-2-.05-4.31-.07-6.8s0-5.14,0-7.8,0-5.3,0-7.79,0-4.81.07-6.8c.07-4,.12-6.64.12-6.64L43,15.07c0,2,0,4.31.07,6.8s0,5.14,0,7.79,0,5.31,0,7.8S43,42.27,43,44.26c-.06,3.39-.11,5.8-.12,6.45h0C42.81,50.06,42.77,47.65,42.71,44.26ZM48.63,214c-.58,0-1.42.1-2.42.13l-1,0v-.48l1,0c1,0,1.84.1,2.42.13l.92.07Zm-1.25-9.75,0-3.4,0-3.4H45.09v-.64l2.63,0h.34v.34l0,3.73,0,3.74v.34h-.34l-2.57,0v-.65Zm0-21.09,0-3.4,0-3.4H44.91c0-.22,0-.43,0-.65h3.16V176l0,3.74,0,3.73v.35H45v-.65Zm-2.49-8.75v-.3l4.62.15C48,174.32,46.43,174.36,44.89,174.4Zm4.62,10.85c-1.51.06-3,.1-4.52.14v-.29C46.49,185.14,48,185.18,49.51,185.25Zm0,10.1c-1.48.06-3,.1-4.44.14v-.29C46.55,195.24,48,195.28,49.51,195.35Zm0,11c-1.45.06-2.9.1-4.35.14v-.28C46.61,206.24,48.06,206.28,49.51,206.34Zm-4.19,3.54c2,.17,3.28.41,3.28.41H45.18v-.43Zm-2.65-47.19v-.08l.2,0Zm.2,3.28-.18,0v-.07ZM41.71,61.26V61c.56.08.92.16.92.16S42.27,61.19,41.71,61.26Zm.25,18c.56.07.91.15.91.15s-.35.08-.91.15Zm.91,8.36s-.31.07-.82.14v-.28C42.55,87.58,42.87,87.65,42.87,87.65Zm0,7.86a7.3,7.3,0,0,1-.73.13v-.25C42.59,95.45,42.87,95.51,42.87,95.51Zm0,7.32s-.25.06-.65.12v-.23Zm0,6.87s-.22,0-.58.1v-.21Zm0,6.38-.53.09V116C42.67,116,42.87,116.08,42.87,116.08Zm0,6.11s-.18,0-.48.08v-.17Zm0,5.56s-.16,0-.43.08v-.16Zm0,5.47a3.7,3.7,0,0,1-.39.08v-.15Zm0,5-.34.07v-.13Zm0,4.72-.31.06v-.12Zm0,4.33-.28.05v-.11Zm0,4.26-.26,0v-.1Zm0,3.87-.24,0v-.1Zm0,3.75-.22,0v-.08Zm-1-88.44v-.33c.62.08,1,.16,1,.16S42.47,70.59,41.84,70.67Zm-3.79-9.24c0,.33,0,.67,0,1,0,2.17,0,4.78.06,7.74h0c0,.21,0,.42,0,.62h0c0,3.38.05,7.2.06,11.38,0,8.17.07,17.69.07,27.9s0,21.08,0,32-.09,21.76-.13,32-.14,19.72-.2,27.88c0,3.13,0,6.06-.08,8.75,0,4.33-.1,8-.13,11-.06,4.76-.1,7.48-.1,7.48s0-2.72-.06-7.48c0-2.08,0-4.56,0-7.36l-1.74,0c0-.22,0-.44,0-.66l1.72,0c0-1,0-2.14,0-3.28H35.82c0-.22,0-.46,0-.69h1.63c0-1,0-1.93,0-2.94l-1.56,0V206l1.55,0c0-.41,0-.82,0-1.25l-1.53,0v-.34l1.52,0c0-.81,0-1.63,0-2.46,0-1.48,0-3,0-4.6l-1.41,0c0-.12,0-.23,0-.34l1.4,0c0-.42,0-.83,0-1.25l-1.38,0V195l1.37,0c0-3,0-6.2,0-9.49l-1.21,0c0-.22,0-.43,0-.65l1.2,0c0-.41,0-.83,0-1.25l-1.18,0v-.35l1.17,0c0-2.31,0-4.66,0-7.06l-1.08,0v-.35l1.08,0v-1.25l-1.07,0c0-.22,0-.43,0-.65l1.06,0v-7.7l-1-.08v-.39l1-.08c0-.92,0-1.85,0-2.78l-1-.07v-.4l1-.08v-3l-.94-.08v-.4l.94-.08v-3.19l-.91-.07v-.42l.9-.07v-3.32c-.31,0-.6,0-.87-.06v-.42l.87-.07V147.5l-.83-.06V147l.83-.06v-3.77l-.81-.06v-.44l.8-.05v-.58c0-1.2,0-2.39,0-3.59l-.79-.06V138l.79-.05c0-1.47,0-2.94,0-4.41l-.78-.05V133l.78-.05c0-1.65,0-3.29,0-4.92-.27,0-.53,0-.78-.06,0-.15,0-.29,0-.44l.78-.06c0-1.68,0-3.34,0-5l-.78-.06V122l.78,0c0-1.87,0-3.72,0-5.55l-.77,0v-.46l.77-.06c0-1.92,0-3.83,0-5.71V110l-.77,0v-.47l.77,0q0-3.19,0-6.29l-.79-.05c0-.16,0-.32,0-.47l.78,0c0-2.3,0-4.55.05-6.75l-.83,0v-.47l.83,0q0-3.77.06-7.29l-.88,0v-.47c.28,0,.58,0,.89-.06,0-1.77,0-3.51,0-5.17l0-2.46-.94,0V79.2l.94,0c0-3,.06-5.81.09-8.35-.37,0-.73,0-1.05-.06v-.47c.32,0,.68,0,1.06-.06,0-3,.06-5.57.08-7.75,0-.36,0-.7,0-1l-1.2-.07v-.49l1.2-.07C38,57.08,38,55,38,55s0,2.1,0,5.82h.21c0,.2,0,.42,0,.63Zm-5.7,168a1.07,1.07,0,0,0,.06.12.68.68,0,0,0,.22.23.52.52,0,0,0,.72-.73.66.66,0,0,0-.22-.22l-.12-.06s0,0,.14,0a.66.66,0,0,1,.39.1.71.71,0,0,1,.34.52s0,.06,0,.1v.08a.48.48,0,0,1,0,.2.83.83,0,0,1-.91.57.79.79,0,0,1-.53-.34.69.69,0,0,1-.1-.4A.37.37,0,0,1,32.35,229.38Zm2.58-15.14-1.55,0c0-.19,0-.37,0-.55l1.54-.05h.15c0-1.06,0-2.16,0-3.31h-1.6c0-.2,0-.4,0-.6l.77,0,.81,0c0-1,0-1.93,0-2.94l-.89,0h-.62c0-.24,0-.48,0-.72h.61l.89,0v-1.27l-1.47,0v-.2l1.47,0v-2.69c0-1.45,0-3,0-4.49h0l-1.33,0V197l1.33,0h0v-1.27H33.76c0-.23,0-.47,0-.71h1.3v-9.41H34c0-.24,0-.47,0-.71h1.11c0-.42,0-.84,0-1.27h0l-1.08,0v-.23l1.07,0h0q0-3.53,0-7.18h0l-1,0v-.23l1,0h0v-1.28l-.93,0h-.05c0-.24,0-.47,0-.71h1v0q0-3.87,0-7.88L35,166l.14,0c0-1.09,0-2.18,0-3.27l-.16,0,.16,0c0-1.16,0-2.31,0-3.47l-.18,0,.18,0c0-1.22,0-2.44,0-3.67l-.2,0,.2,0c0-1.26,0-2.52,0-3.79l-.22,0,.22,0c0-1.39,0-2.78,0-4.18l-.24,0,.24,0c0-1.41,0-2.82,0-4.23l-.26,0,.26-.05V142c0-1.24,0-2.48,0-3.71l-.3-.06.3-.05c0-1.62,0-3.23,0-4.84l-.34-.07.34-.06c0-1.79,0-3.56,0-5.34l-.39-.07.39-.07c0-1.82,0-3.62,0-5.41l-.44-.08s.16,0,.44-.08c0-2,0-4,.05-5.94l-.49-.09.5-.09c0-2,0-4,0-6v-.21l-.55-.1s.21,0,.55-.1c0-2.26.05-4.48.07-6.66l-.62-.11.63-.11c0-2.41,0-4.78.09-7.08-.45-.07-.72-.13-.72-.13s.27-.06.72-.12c0-2.62.07-5.16.1-7.6-.46-.06-.77-.13-.81-.14h0l.81-.14c0-1.83,0-3.63.07-5.35,0-.88,0-1.73,0-2.57-.45,0-.77-.12-.88-.14v0c.11,0,.43-.08.88-.14,0-3.12.09-6,.14-8.62-.5-.06-.87-.12-1-.15v0a9.66,9.66,0,0,1,1-.15c.05-3,.1-5.68.13-7.89,0-.39,0-.76,0-1.13l-.24,0c-.39,0-.71-.09-.93-.13v-.11c.22,0,.53-.09.93-.13l.25,0c.08-3.79.12-5.93.12-5.93s0,2.13,0,5.91h.18c0,.15,0,.31,0,.47h-.17c0,.36,0,.73,0,1.12,0,4.75.05,11.55,0,19.71s0,17.66,0,27.86-.1,21.06-.16,31.93-.19,21.74-.28,31.93-.25,19.71-.35,27.86c0,3.12-.08,6.05-.13,8.74-.07,4.32-.14,8-.19,11l-.14,7.47s0-2.71,0-7.47c0-2,0-4.47,0-7.21ZM34.76,61.12a.42.42,0,0,1,.13,0v0Zm.05,168.26.07.12a.56.56,0,0,0,.21.23.54.54,0,0,0,.67-.06.53.53,0,0,0,.06-.67.66.66,0,0,0-.22-.22l-.13-.06s.05,0,.15,0a.66.66,0,0,1,.39.1.77.77,0,0,1,.34.52s0,.06,0,.1v.08a1.42,1.42,0,0,1,0,.2.83.83,0,0,1-.91.57.74.74,0,0,1-.53-.34.69.69,0,0,1-.1-.4A.59.59,0,0,1,34.81,229.38ZM36.11,48.3c0-.77-.06-1.68-.07-2.65s0-2,0-3l0-3c0-1,.05-1.88.07-2.66,0-1.55.12-2.59.12-2.59s.07,1,.12,2.59c0,.78.06,1.68.07,2.66s0,2,0,3,0,2.07,0,3-.05,1.88-.07,2.65c0,1.18-.09,2.05-.11,2.41h0C36.2,50.35,36.15,49.48,36.11,48.3Zm1.77-1.09c0-1.1-.05-2.39-.07-3.77s0-2.85,0-4.32,0-2.95,0-4.33,0-2.66.06-3.77c.06-2.2.13-3.68.13-3.68s.07,1.48.12,3.68c0,1.11.06,2.39.07,3.77s0,2.86,0,4.33,0,2.94,0,4.32,0,2.67-.07,3.77c0,1.78-.1,3.06-.11,3.5h0C38,50.27,37.92,49,37.88,47.21Zm1.67,2.39c0-.82-.07-2-.09-3.4s0-3.05-.06-4.81,0-3.64,0-5.52,0-3.75,0-5.51,0-3.41.06-4.82.07-2.58.09-3.4,0-1.29,0-1.29,0,.47,0,1.29.07,2,.09,3.4,0,3.05.06,4.82,0,3.63,0,5.51,0,3.76,0,5.52,0,3.4-.06,4.81-.07,2.58-.09,3.4c0,.53,0,.91,0,1.11h0C39.57,50.51,39.56,50.13,39.55,49.6Zm2.21,2.79a15.72,15.72,0,0,1-2.95.28,15.08,15.08,0,0,1-3-.28A7.64,7.64,0,0,1,34.52,52a7.64,7.64,0,0,1,1.34-.37,15.08,15.08,0,0,1,3-.28,15.72,15.72,0,0,1,2.95.28,7.61,7.61,0,0,1,1.35.37A7.61,7.61,0,0,1,41.76,52.39Zm-6.91-3.16c0,.69-.08,1.22-.1,1.48h0c0-.26-.06-.79-.1-1.48,0-1-.1-2.34-.1-3.67s.05-2.67.1-3.67.12-1.67.12-1.67.07.67.12,1.67.1,2.33.1,3.67S34.9,48.22,34.85,49.23Zm6.31,1.48c0-.59-.06-2.64-.12-5.49,0-1.7,0-3.69-.07-5.82s0-4.4,0-6.67,0-4.54,0-6.66S41,22,41,20.25l.12-5.68s.05,2.27.12,5.68c0,1.7,0,3.69.07,5.82s0,4.39,0,6.66,0,4.54,0,6.67-.05,4.12-.07,5.82c-.06,2.85-.1,4.9-.11,5.49ZM40.82,8.88a1.58,1.58,0,0,1-1.59-1.63A1.68,1.68,0,0,1,40.9,5.62a1.58,1.58,0,0,1,1.59,1.63A1.68,1.68,0,0,1,40.82,8.88Zm-1.56,3.27a1.59,1.59,0,0,1,1.6,1.64,1.69,1.69,0,0,1-1.68,1.63,1.58,1.58,0,0,1-1.59-1.63A1.69,1.69,0,0,1,39.26,12.15Zm-1.63,6.54a1.58,1.58,0,0,1,1.59,1.63A1.68,1.68,0,0,1,37.55,22,1.58,1.58,0,0,1,36,20.32,1.68,1.68,0,0,1,37.63,18.69ZM36,25.23a1.58,1.58,0,0,1,1.59,1.63,1.68,1.68,0,0,1-1.67,1.63,1.58,1.58,0,0,1-1.59-1.63A1.68,1.68,0,0,1,36,25.23Zm-1.63,6.54A1.58,1.58,0,0,1,36,33.4,1.68,1.68,0,0,1,34.29,35,1.58,1.58,0,0,1,32.7,33.4,1.68,1.68,0,0,1,34.37,31.77Zm-1.63,6.54a1.58,1.58,0,0,1,1.59,1.63,1.68,1.68,0,0,1-1.67,1.63,1.58,1.58,0,0,1-1.59-1.63A1.68,1.68,0,0,1,32.74,38.31Zm6.08,191.18a.69.69,0,0,1,0,.2.78.78,0,0,1-.21.33.82.82,0,0,1-.7.24.74.74,0,0,1-.53-.34.62.62,0,0,1-.1-.4.59.59,0,0,1,0-.14,1.07,1.07,0,0,0,.06.12.68.68,0,0,0,.22.23.52.52,0,0,0,.73-.73.68.68,0,0,0-.23-.22l-.12-.06s0,0,.14,0a.69.69,0,0,1,.4.1.77.77,0,0,1,.34.52.33.33,0,0,1,0,.1A.21.21,0,0,1,38.82,229.49Zm0-15.21h-.74v-.72h1.77c0-1,0-2.14,0-3.28H38.16c0-.24,0-.48,0-.72l1.68,0c0-1,0-2,0-3h-.54l-1.08,0c0-.19,0-.39,0-.58l1.07,0h.53c0-.41,0-.82,0-1.24h-.52l-1.06,0v-.45l1.06,0h.52c0-.73,0-1.48,0-2.24,0-1.52,0-3.11,0-4.72h-.47l-1,0v-.45h1.46c0-.42,0-.83,0-1.25H38.29v-.57h1.44c0-3.06,0-6.26-.07-9.57H38.37V185h1.29c0-.41,0-.83,0-1.25h-.37l-.9,0v-.45l.9,0h.37c0-2.27,0-4.6,0-7h-.33l-.85,0v-.45l.85,0h.32v-1.25H38.44V174h1.15c0-2.53,0-5.1,0-7.7H38.47v-.63h1.09c0-.9,0-1.79,0-2.7H38.48c0-.21,0-.42,0-.63h1.06c0-1,0-1.93,0-2.91h-1v-.64h1c0-1,0-2.08,0-3.13h-1c0-.21,0-.42,0-.64h1c0-1.08,0-2.16,0-3.25h-1v-.64h1c0-1.2,0-2.42,0-3.63h-.94v-.63h.94c0-1.23,0-2.46,0-3.69h-.91c0-.21,0-.42,0-.64h.9V138.5h-.9v-.63h.9c0-1.45,0-2.89,0-4.33h-.89v-.63h.89v-4.84h-.88v-.64h.88c0-1.66,0-3.3,0-4.94h-.87v-.63h.87v-5.48h-.87v-.64h.87c0-1.89,0-3.77,0-5.62V110h-.86v-.63h.87v-6.23h-.87v-.64h.87c0-2.28,0-4.51,0-6.69h-.91V95.2h.91c0-2.49,0-4.9,0-7.23h-.95v-.64h.95c0-1.76,0-3.47,0-5.12V79.76h-1v-.64h1c0-3,0-5.78,0-8.31h-1.1v-.63h1.1c0-3,0-5.55,0-7.72,0-.37,0-.71,0-1l-.91,0h-.3c0-.21,0-.43,0-.63h.31l.92,0c0-3.73,0-5.83,0-5.83s0,2.1.07,5.83h.23c0,.19,0,.39,0,.59h-.21c0,.34,0,.68,0,1,0,2.17.05,4.77.08,7.73h.07v.61h-.06c0,3.39.07,7.22.1,11.41,0,8.18.13,17.71.19,27.93s.08,21.11.12,32,0,21.79,0,32,0,19.75,0,27.92c0,3.13,0,6.06,0,8.75,0,4.34-.05,8.06-.06,11,0,4.77,0,7.49,0,7.49s0-2.72-.09-7.49c0-2.13,0-4.67-.08-7.55Zm.89,15.1.06.12a.68.68,0,0,0,.22.23.55.55,0,0,0,.67-.06.53.53,0,0,0,0-.67.66.66,0,0,0-.22-.22l-.12-.06s0,0,.14,0a.7.7,0,0,1,.4.1.73.73,0,0,1,.33.52.31.31,0,0,1,0,.1.21.21,0,0,1,0,.08.48.48,0,0,1,0,.2.83.83,0,0,1-.91.57.79.79,0,0,1-.53-.34.69.69,0,0,1-.1-.4A.37.37,0,0,1,39.75,229.38Zm.73-15.11c0-.23,0-.46,0-.7l1.8,0c0-1.05,0-2.16,0-3.3H40.5c0-.23,0-.46,0-.69l1.45.05.27,0c0-1,0-2,0-3.11l-1.67,0v-.5l1.67,0c0-.41,0-.83,0-1.25l-1.64,0v-.53l1.63,0c0-.67,0-1.34,0-2,0-1.57,0-3.19-.06-4.85l-1.53,0v-.53l1.53,0c0-.41,0-.82,0-1.24l-1.51,0v-.5l1.51,0c0-3.08-.07-6.31-.1-9.65l-1.38,0V185L42,185c0-.41,0-.83,0-1.24l-1.36,0v-.53l1.35,0c0-2.25,0-4.55-.07-6.89l-1.27,0v-.53l1.27,0c0-.41,0-.82,0-1.24l-1.25,0V174l1.25,0c0-2.58,0-5.21-.07-7.87h-.13l-1.06.09v-.55c.39,0,.75.05,1.06.09h.13c0-1,0-2,0-3h-.11c-.31,0-.68.07-1.06.09v-.54l1.06.08h.1c0-1.05,0-2.12,0-3.18h-.08l-1.06.08v-.54l1.06.08h.07l0-3.39h0l-1.07.08v-.54l1.07.08h0l0-3.51h0c-.31,0-.68.07-1.07.09v-.54l1.07.08h0l0-3.89c-.31,0-.67.07-1,.09V147c.38,0,.73.05,1,.09l0-3.95-1,.08v-.54l1,.08v-.46c0-1.29,0-2.58,0-3.87l-1,.08v-.55l1,.08,0-4.57-1,.08V133l1,.08,0-5.08-1,.08v-.56l1,.08,0-5.16-1,.07v-.55l1,.07q0-2.87,0-5.7l-1,.08v-.56l1,.07c0-1.9,0-3.8,0-5.66v-.3l-1,.07v-.56c.35,0,.66,0,1,.07,0-2.18,0-4.34,0-6.45l-1,.08c0-.19,0-.38,0-.57l1,.07c0-2.35,0-4.65,0-6.89l-1,.07v-.57l1,.07q0-3.84,0-7.43l-1,.07v-.58l1,.08c0-1.78,0-3.52,0-5.18,0-.89,0-1.75,0-2.6l-1.06.07v-.58l1.06.07v-8.5c-.35,0-.73.06-1.14.08,0-.2,0-.39,0-.59.41,0,.8,0,1.15.08v-9c-.37,0-.79.07-1.24.09,0-.19,0-.39,0-.57.46,0,.88.05,1.25.09V55s0,2.14.08,6h0l.22,0v.33l-.22,0h0c0,.38,0,.77,0,1.17,0,2.2.06,4.84.1,7.84h.12v.37h-.11c0,2.6.07,5.46.11,8.55h0v0c0,1,0,1.95,0,3,.09,8.18.2,17.73.3,28s.18,21.14.27,32.05.12,21.81.18,32,.07,19.77.09,28c0,3.14,0,6.07,0,8.77v18.51L42.4,222c0-2.19-.06-4.81-.1-7.78Zm1.74,15.11.06.12a.64.64,0,0,0,.21.23.54.54,0,0,0,.67-.06.53.53,0,0,0,.06-.67.66.66,0,0,0-.22-.22l-.12-.06s0,0,.14,0a.66.66,0,0,1,.39.1.71.71,0,0,1,.34.52s0,.06,0,.1v.08a1.42,1.42,0,0,1,0,.2.83.83,0,0,1-.91.57.79.79,0,0,1-.53-.34.69.69,0,0,1-.1-.4A.37.37,0,0,1,42.22,229.38Zm.62-15.14v-.64l1.85.06c0-1.08,0-2.2-.06-3.37H42.84v-.59l1.78.11c0-1.07,0-2.17,0-3.31H44.4l-1.56,0v-.41l1.56,0h.16c0-.43,0-.85,0-1.28h-1.7v-.61h1.69l0-1.84c0-1.61,0-3.29-.08-5h-1.6v-.61h1.59l0-1.28-1.58,0v-.41l1.58,0c0-3.12-.09-6.38-.14-9.77l-1.47,0V185l1.46,0c0-.42,0-.85,0-1.28H42.78v-.61h1.44q0-3.36-.1-6.84H42.75v-.61H44.1c0-.42,0-.84,0-1.27h0l-1.35,0v-.41l1.34,0c-.13-10.14-.27-20.93-.4-31.73s-.23-21.84-.34-32.08-.17-19.79-.24-28L42.93,55s.19,10.92.47,27.3l.41,28c.13,10.24.27,21.16.41,32.08s.23,21.84.34,32.08.17,19.8.24,28c0,3.14,0,6.07.05,8.77.07,11.39.12,18.53.12,18.53s-.11-5.9-.27-15.53C44.11,214.2,43.49,214.23,42.84,214.24Zm1.84,15.14.06.12a.68.68,0,0,0,.22.23.54.54,0,0,0,.67-.06.53.53,0,0,0,.06-.67.76.76,0,0,0-.22-.22l-.13-.06.14,0a.67.67,0,0,1,.4.1.77.77,0,0,1,.34.52s0,.06,0,.1v.08a1.42,1.42,0,0,1,0,.2.83.83,0,0,1-.91.57.74.74,0,0,1-.53-.34.69.69,0,0,1-.1-.4A.59.59,0,0,1,44.68,229.38Zm22.64-16a1,1,0,0,0-.75.3,1,1,0,0,0-.22.34,1,1,0,0,0-.06.19.45.45,0,0,0,0,.12.25.25,0,0,0,0,.09,1.12,1.12,0,0,0,.27.7,1.23,1.23,0,0,0,.47.34l.23.07s-.08,0-.25,0a1.22,1.22,0,0,1-.63-.23,1.23,1.23,0,0,1-.5-.86s0-.09,0-.15v-.14a1,1,0,0,1,.07-.3,1.45,1.45,0,0,1,.32-.53,1.38,1.38,0,0,1,1.11-.38,1.28,1.28,0,0,1,.86.5,1.16,1.16,0,0,1,.23.64.72.72,0,0,1,0,.25,2.14,2.14,0,0,0-.07-.23,1.13,1.13,0,0,0-.34-.47A1,1,0,0,0,67.32,213.33Zm-3,5.82a2,2,0,0,1,1.91,1.37,1.79,1.79,0,0,0-.6-.78,1.62,1.62,0,0,0-.95-.33.7.7,0,0,0-.27,0h-.09a2.51,2.51,0,0,1,.33.11,1.76,1.76,0,0,1,.7.5,1.66,1.66,0,0,1,.39,1c0,.05,0,.11,0,.14s0,.14,0,.17l-.08.28a1.53,1.53,0,0,1-.34.5,1.29,1.29,0,0,1-.5.33,1.49,1.49,0,0,1-.6.11,1.64,1.64,0,0,1-1-.39,1.81,1.81,0,0,1-.5-.69,2.33,2.33,0,0,1-.11-.34,1.82,1.82,0,0,0,0,.37,1.69,1.69,0,0,0,.33.94,1.79,1.79,0,0,0,.78.6,2,2,0,0,1-1.37-1.91A2,2,0,0,1,64.29,219.15Zm1.87-6.21a.81.81,0,0,0-.22.29l-.54-1.29,1.11.84A.93.93,0,0,0,66.16,212.94Zm-.76.39s-.24-.19-.57-.51a13.08,13.08,0,0,1-1.08-1.23,14.22,14.22,0,0,1-.92-1.35,6.54,6.54,0,0,1-.35-.67,7.24,7.24,0,0,1,.56.51,13.14,13.14,0,0,1,2,2.58C65.27,213.05,65.4,213.33,65.4,213.33Zm-8.62-2a2,2,0,0,1,1.91,1.36,1.76,1.76,0,0,0-.6-.77,1.72,1.72,0,0,0-1-.34l-.27,0-.09,0a1.68,1.68,0,0,1,.33.1,1.76,1.76,0,0,1,.7.5,1.69,1.69,0,0,1,.39,1s0,.1,0,.14,0,.13,0,.16-.05.19-.08.28a1.57,1.57,0,0,1-.34.51,1.41,1.41,0,0,1-.5.33,1.68,1.68,0,0,1-.6.11,1.7,1.7,0,0,1-1-.39,1.81,1.81,0,0,1-.5-.69,2.89,2.89,0,0,1-.11-.34,1.77,1.77,0,0,0,0,.36,1.69,1.69,0,0,0,.33.95,1.79,1.79,0,0,0,.78.6,2,2,0,0,1,.67-3.94Z"/><path class="cls-1" d="M32.84,176.09,31.26,176c0,.08.07.52.13,1.15s.1,1.64.1,2.57,0,1.87-.1,2.57-.12,1.07-.13,1.15l1.53-.06Q32.8,179.83,32.84,176.09Z"/><path class="cls-1" d="M32.79,183.56l-1.94-.08h.4c0-.08-.08-.52-.13-1.15s-.1-1.64-.1-2.57,0-1.87.1-2.57.12-1.07.13-1.15l-.4,0,2-.07c0-.44,0-.88,0-1.32l-3.41,0,0,5.11,0,5.11,3.34,0C32.78,184.45,32.78,184,32.79,183.56Z"/><path class="cls-1" d="M32.69,204.65l-1.84-.07.4,0c0-.07-.08-.51-.13-1.15s-.1-1.63-.1-2.57,0-1.87.1-2.57.12-1.07.13-1.15h-.4l1.88-.07v-1.33l-3.29,0,0,5.11,0,5.11,3.24,0C32.68,205.54,32.69,205.09,32.69,204.65Z"/><path class="cls-1" d="M32.72,197.18l-1.46-.06c0,.08.07.52.13,1.15s.1,1.64.1,2.57,0,1.87-.1,2.57-.12,1.07-.13,1.15l1.43-.05c0-1,0-1.94,0-2.94C32.71,200.15,32.72,198.68,32.72,197.18Z"/><path class="cls-1" d="M31.42,39.94a1.24,1.24,0,0,0,1.25,1.27A1.32,1.32,0,0,0,34,39.94c0-.71-.58,0-1.28,0S31.44,39.23,31.42,39.94Z"/><path class="cls-1" d="M33.05,33.4a1.24,1.24,0,0,0,1.25,1.28,1.33,1.33,0,0,0,1.31-1.28c0-.71-.57,0-1.28,0S33.07,32.69,33.05,33.4Z"/><path class="cls-1" d="M34.68,26.86a1.24,1.24,0,0,0,1.25,1.28,1.32,1.32,0,0,0,1.31-1.28c0-.7-.57,0-1.28,0S34.7,26.16,34.68,26.86Z"/><path class="cls-1" d="M36.31,20.32a1.25,1.25,0,0,0,1.25,1.28,1.32,1.32,0,0,0,1.31-1.28c0-.7-.57,0-1.28,0S36.33,19.62,36.31,20.32Z"/><path class="cls-1" d="M38,13.79a1.23,1.23,0,0,0,1.24,1.27,1.31,1.31,0,0,0,1.31-1.27c0-.71-.57,0-1.28,0S38,13.08,38,13.79Z"/><path class="cls-1" d="M40.86,7.25c-.71,0-1.26-.71-1.28,0a1.24,1.24,0,0,0,1.24,1.28,1.32,1.32,0,0,0,1.31-1.28C42.15,6.54,41.56,7.25,40.86,7.25Z"/></g></g></svg>