<svg id="Слой_1" data-name="Слой 1" xmlns="http://www.w3.org/2000/svg" viewBox="0 0 168.21 29.43"><g id="Слой_2" data-name="Слой 2"><g id="Слой_1-2" data-name="Слой 1-2"><path d="M64.68,6.83c-2.69.5-4.82,1.33-6.82,0A3.38,3.38,0,0,1,56,4.07,3.22,3.22,0,0,1,58.12,1c4.28-2.14,8.54.38,8.63,5.23.12,6.49,0,13,.18,19.48.09,3-1.21,3.64-3.87,3.63q-25.47-.11-51,0c-3,0-3.66-1.17-3.59-3.88.16-6,0-12,0-17.92-1.68-1.22-3.24.65-4.83,0S0,6.4,0,4.09,1.66,1,3.56.57c4.37-1,7.15,1,7.24,5.6.09,4.82.13,9.66,0,14.48-.07,2.59.85,3.48,3.44,3.43,6.83-.15,13.66-.07,20.49,0,1.66,0,3-.21,3-2.34-.12-4.8.34-9.61-.34-14.73a34.8,34.8,0,0,1-5.59-.12,3.14,3.14,0,0,1-2.8-3c-.08-1.78,1.08-2.65,2.56-3.28,4.32-1.82,8.12.57,8.2,5.3q.12,7.5,0,15c-.06,2.37.8,3.22,3.19,3.18,6.32-.12,12.65-.1,19,0,2.2,0,2.9-.91,2.87-3C64.63,16.58,64.68,12.09,64.68,6.83Z"/><path d="M110.11,22.58V5.11c0-4.75,0-4.81,4.52-4.82h49c4.69,0,4.64.06,4.56,4.78-.1,6.16-.06,12.33-.17,18.49-.09,4.74-3.77,7.06-8.17,5.26-1.51-.62-2.63-1.69-2.58-3.33,0-1.45,1.31-2.15,2.5-2.85,2-1.17,3.9-.07,6,0,.71-4.49,0-9,.39-13.42.22-3-1.1-3.58-3.78-3.56-13.83.1-27.67,0-41.5,0-2,0-4,.1-6,0-2.22-.12-2.86.88-2.82,3,.11,4.83.08,9.66,0,14.5-.07,5.05-3.14,7.28-7.81,5.82-1.56-.49-2.75-1.39-2.94-3s1.18-2.54,2.52-3.32C105.82,21.46,107.75,22.6,110.11,22.58Z"/><path d="M87,10.38c-2.62-.76-5.43-1.42-7-4-.43-.7-1.07-1.51-.46-2.27a1.87,1.87,0,0,1,2.61-.4l.08.06c2.49,2.69,5.2,2.88,8.57,1.84,2.2-.67,3.2,1.1,1.93,3.28C90,13.69,87.54,18.55,87,24.15c-.16,1.48-1.13,1.91-2.49,1.64s-1.32-1.32-1.2-2.31a35.68,35.68,0,0,1,2.08-8.19C85.85,13.72,87,12.4,87,10.38Z"/><path d="M133.74,23.27a22,22,0,0,1,2.09-6.9c.59-1.3.44-2.15-1.11-2.59a5.52,5.52,0,0,1-3.51-2.56,1.53,1.53,0,0,1-.06-1.83,1.23,1.23,0,0,1,1.73-.21h.05a6,6,0,0,0,6.35,1.41c1.48-.44,2.72.57,1.7,2.34a34.68,34.68,0,0,0-4.52,11.47c-.16.91-.7,1.53-1.7,1.35C133.38,25.53,133.53,24.48,133.74,23.27Z"/></g></g></svg>