<svg xmlns="http://www.w3.org/2000/svg" viewBox="0 0 623.6 779.34"><defs><style>.cls-1{fill:#1d1d1b;}.cls-2{fill:#fff;}.cls-3{fill:#e31f21;}</style></defs><g id="Слой_2" data-name="Слой 2"><g id="Created_By_Vectorportal.com" data-name="Created By Vectorportal.com"><path class="cls-1" d="M553.59,476.81c2,1.81-11.7-22.51-9.75-24.37s16.21,6.35,14.69,4.12c-4.82-7.07-22.65-24.41-20.82-26.29,2.21-2.28,33.06,17.94,35.09,15.51,2.27-2.71,4.56-5.64,6.83-8.77,1.85-2.54-35.15-26.76-33.43-29.38S588.35,424,590,421.24c2.09-3.54,4.14-7.27,6.14-11.16,1.43-2.79-27.3-21-26-23.84S602.78,395.91,604,393c1.38-3.32,2.72-6.73,4-10.24,1.07-2.94-16.81-13-15.85-16s20.75,1.15,21.59-1.87q1.06-3.8,2-7.7c.76-3.05-16.7-10.63-16.07-13.7s19.37-1.64,19.9-4.73c1.25-7.42,1.6-7.19,2.22-15.08.24-3.13-27.6-16-27.46-19.18s28.85-4.41,28.88-7.55c.06-8.8.88-22.74,0-32-.29-3.14-28-2.3-28.41-5.43s25.31-5.34,24.8-8.46c-.3-1.82-.62-3.64-1-5.48-.57-3.08-12.34-1.39-13-4.45s9.77-10.87,9-13.91c-.22-.86.18-6.33,0-7.19-.79-3-35.28,3.82-36.16.81s26.33-25.06,25.36-28c-3.38-10.32-2.55-7-7.3-17.68-1.28-2.87-32.67-1.44-34-4.28s27.31-9.94,25.87-12.74q-1.1-2.15-2.23-4.3c-1.47-2.78-21.4,4.22-22.94,1.47s10.81-22.76,9.3-25.2c-.91-1.46-1.84-2.92-2.77-4.36-1.71-2.63-23.59,9-25.4,6.45s12.73-24.29,11.8-25.48c-2-2.48-16.67,5.24-18.71,2.84s8.6-14.94,6.48-17.27-4.4-4.71-6.65-7-29.63,19.48-31.91,17.34,14-33.78,11.93-35.5c-2.45-2-17.59,12.87-20.11,11s3.62-27.53,3.3-27.75c-2.58-1.79-29.19,21.74-31.83,20S488,46.42,485.32,44.82a283.81,283.81,0,0,0-34.13-17.19c-2.92-1.24-11.63,10.68-14.58,9.54s-.17-15.35-3.16-16.41Q424.6,17.64,415.57,15c-3-.88-9.07,4.69-12.14,3.9s-3.17-8-6.26-8.68c-3.5-.82-7-1.57-10.55-2.28C383.54,7.35,370,29.38,367,28.83s4.22-23.65,1.12-24.11c-9.94-1.5-19.94-2.62-29.94-3.39-3.12-.24-6.27,18.72-9.39,18.54S322.51.39,319.38.28Q308.7-.09,298.07,0c-3.15,0-5.34,27.29-8.48,27.39S278.3.64,277.86.66c-3.08.16-6,10.33-9,10.72S261,.28,259.52,3c-2.3,4.19-3.57,18.5-6.26,18.78-3.12.33-8.17-18.34-11.3-18a509,509,0,0,0-63,11.8c-3.06.77-.78,22-3.82,22.82s-11.41-18.69-14.44-17.79q-10.37,3.09-20,6.5c-3,1.06-1,13.93-3.92,15.06s-10.9-9.49-13.82-8.29q-7,2.88-13.37,5.87c-2.84,1.33,6.4,23.63,3.6,25.06C110.89,66,101.71,54.76,95.55,47.7c-1.85-2.12,2.65,15.87,0,16.83s-16.29-7.7-16.62-7.47c-2.59,1.8,7.89,20.48,5.46,22.48s-17.82-12.71-20-10.47c-.46.46,12.92,20.85,11.54,23.44S52.7,83.9,54.75,86c34.52,35.31,66.43,107.56,66.43,117.37-10.85,7.07-74.53,74.37-69.81,96.07a22.05,22.05,0,0,0,2.54,6.17s-.66,7.57,1.55,9.45C48.22,345.88-6.18,367.53.58,396.3c.63,10.07,28,9.44,30.5,13.21,1.89,5.66-5,35.85,1.89,41.51l3.77,2.83s-.31,16.36,1.58,17.93,9.12,0,9.12,0,7.23,4.4,8.8,4.09,6.61-3.46,7.86-2.83,6.29,3.14,7.24,2.83,4.72-2.52,4.72-2.52S89.58,507,87.69,513.29s-15.09,7.23-16,10.06,1.26,7.23,1.26,7.23-14.56,10.51-8.81,20.76c5,6.29,17.93,5.35,11,19.19s-16.51,22.64-9.9,40.25c2.79,7.45,9.9,15.41,24.68,17.92s110.07-23,123.28-15.41,27.26,28.7,34.28,65.42c5.34,28,22,18.86,51.57,100.63,33-2.83,213.22-184,204.73-220.77-26.5-1.75-54.72-37.57-51.89-85.68,7.52-14.1,68.87-25.95,101.73,3.92"/><path class="cls-2" d="M130.15,341.9c-29.81,15.72-31.77,48.11-29,88.37s28.09,69.81,24.32,91.83,0,46.54-31.45,64.78-4.17,30.89,14.15,33.33c-19.41,5-46.86-5.74-37.42-29.09s17-20.52,24.29-26.65,29.48-49.29,19.81-72.88S79.2,406.37,55.93,402.91C73.85,396,76.37,396,72.28,390s-9.75-23.9-6.92-29.56,41.83-27.36,51-24.53,13.84,6,13.84,6"/><path class="cls-2" d="M39.89,413.29c-1.26,3.45-5.66,21.38-3.46,22.64s22.33-1.57,27.36,0c16-9.12-20.13-25.48-23.9-22.64"/><path class="cls-2" d="M44.29,450.87c-1.07,2.82-3.3,14.15,0,15.25s6.29.63,6.76,0,.16-13.84-1.25-15.25-4.89-1.63-5.51,0"/><path class="cls-2" d="M53.73,451.49c-.63,1.26-.79,13.43,2.67,15.29s6.76,1.44,6.92,0S61,452.91,60,451.49s-5.19-2.2-6.29,0"/><path class="cls-2" d="M64.1,451.65S66,469.1,69.45,469.73a10.34,10.34,0,0,0,6.29-.94s-4.09-20.91-11.64-17.14"/><path class="cls-2" d="M131.72,206.67c-9.91,4.72-71,71.7-65.57,81.37,4.87,3.3,34-4.48,34.43-12.5s23.59-58.49,31.14-68.87"/><path class="cls-2" d="M82.66,296.3s-1.89,6.92,0,8.18,23.27,5.66,23.9,10.06,10.69-20.44-23.9-18.24"/><path class="cls-2" d="M110.33,316.42c0,6.29,24.53,4.41,25.16,0-2.83-5-12.58-2.82-12.58-2.82s-3.14,6.91-12.58,2.82"/><path class="cls-2" d="M116.31,325.23c2.83,3.46,12.58,9.44,16,6.29s5.66-7.23,3.14-7.23-13.21,3.14-19.18.94"/><path class="cls-2" d="M77,320.47c-2.83,3.5-.71,8.19.86,7.88S95.4,331,101.06,327s-3-6.49-3-6.49-17.93,4.67-21.07,0"/><path class="cls-2" d="M71.65,542.22c-.71-4,5.43-13.21,7.08-13.44s25.94-15.33,27.83-23.59-8.73-25-5.19-22.41,9.67,13,10.14,16.51-6.84,19.34-8,23.83S99,550.71,71.65,542.22"/><path class="cls-2" d="M59.15,328.35a41.91,41.91,0,0,1-2,4.63c-.74,1.51-1.56,3-2.42,4.43a98.22,98.22,0,0,1-5.6,8.41q-3,4-6.24,7.88c-1.08,1.28-2.16,2.55-3.27,3.8s-2.21,2.5-3.35,3.72c-2.24,2.46-4.54,4.87-6.83,7.27l-6.9,7.11c-2.28,2.37-4.56,4.73-6.7,7.14-1.06,1.21-2.11,2.42-3,3.65-.45.63-.88,1.25-1.24,1.86a6.93,6.93,0,0,0-.75,1.68l0-.67a14.22,14.22,0,0,0,.48,2.15c.11.35.24.69.38,1s.3.66.46,1a9.71,9.71,0,0,0,.56.94c.2.32.44.6.66.9a11.52,11.52,0,0,0,1.6,1.6,12.3,12.3,0,0,0,1.93,1.3,16.59,16.59,0,0,0,2.17,1,20.29,20.29,0,0,0,4.81,1.19,14.36,14.36,0,0,1-2.54.22,16,16,0,0,1-2.58-.18,16.82,16.82,0,0,1-2.58-.58,15,15,0,0,1-2.48-1.07,14.45,14.45,0,0,1-2.28-1.57,10.37,10.37,0,0,1-1-1,11.81,11.81,0,0,1-.91-1.08c-.27-.38-.55-.77-.79-1.18A12.45,12.45,0,0,1,8,392.72a16.8,16.8,0,0,1-1-2.64L7,389.84l0-.43a10.46,10.46,0,0,1,.86-3A23.27,23.27,0,0,1,9.12,384a48,48,0,0,1,2.94-4.31c1-1.36,2.09-2.69,3.18-4s2.19-2.57,3.31-3.8c2.24-2.5,4.53-4.91,6.82-7.32s4.63-4.76,7-7.11l7-7c2.3-2.35,4.61-4.7,6.88-7.09s4.5-4.8,6.7-7.26,4.29-5,6.28-7.71"/><path class="cls-2" d="M518.61,101.71c2.11,2-6.89,15.34-4.84,17.46s13.14-4.26,15.06-2.13-10.25,18.56-8.41,20.76c.87,1.06,20.63-4.88,22.32-2.59s-6.08,21.32-4.48,23.66c.88,1.28,14.79-1.46,15.65-.16,1.42,2.16-43.52,24.58-42.14,27,.71,1.27,54-7.12,54.67-5.85,1.35,2.49-42,18.34-40.76,20.87,1.16,2.28,43.17-17.22,52-19,.11-2.1,1.22-2.76,0-5.29s-47.37,6.36-48.64,3.84,37.55-26.31,36.84-27.58c-1.38-2.47-21.21,4.46-22.65,2s10.16-20.23,8.74-22.39q-1.29-1.95-2.6-3.87c-1.61-2.34-22.19,8-23.88,5.73s12-21.57,11.09-22.63c-1.84-2.2-15.68,4.65-17.6,2.52s8.1-13.27,6.09-15.34-4.13-4.18-6.24-6.2S491,109.89,488.8,108,502,78,500,76.45c-2.31-1.77-16.54,11.44-18.91,9.75s4.09-20.29,3.79-20.48c-2.43-1.59-27.33,23.66-29.81,22.15S472.53,58.11,470,56.68A273.89,273.89,0,0,0,437.9,41.42c-2.75-1.1-10.93,9.48-13.71,8.47s-.16-13.64-3-14.57q-8.33-2.77-16.81-5.09c-2.86-.78-8.54,4.17-11.42,3.46s-3-7.08-5.89-7.71c-3.29-.72-6.6-1.4-9.92-2-2.89-.55-9.8,19-12.71,18.55s-1.81-21-4.73-21.44c-9.35-1.33-17.24-.87-26.64-1.55-2.93-.22-7.41,15.16-10.35,15s-5.85-17.3-8.79-17.4c-6.71-.22-8.13.79-14.78.85-3,0-10.28,23.17-13.24,23.25s-10.61-23.78-11-23.76c-2.89.14-5.61,9.17-8.49,9.52s-7.36-9.87-8.76-7.46c-2.15,3.71-3.35,16.42-5.88,16.67-2.94.3-7.69-16.28-10.62-15.94A506.22,506.22,0,0,0,181.9,30.74c-2.88.69-.74,19.52-3.6,20.26-2.41.63-8.35-11.52-11.87-14.93-4.29-8.91-8.54-18.83-7.91-20.88l-1.8-.55c-.84,2.75,3.52,12.84,7.3,20.78-6.25,1.77-12.3,3.62-18.11,5.56a1.11,1.11,0,0,0-.19.09c-4.44-9.15-9-19.74-8.38-21.87l-1.81-.55c-1,3.2,5.07,16.31,9.07,24.43-.86,3.6-.24,10.51-2.38,11.28-2.78,1-10.24-8.44-13-7.36q-6.55,2.55-12.57,5.21c-2.68,1.18,7.19,24.33,4.57,25.61-2.14,1-11.73-9.72-17.51-16C102,60,106,73.34,103.48,74.19s-15.32-6.84-15.63-6.64c-2.43,1.6,7.42,18.2,5.14,20s-16.76-11.29-18.84-9.3c-.43.41,9.91,18.83,8.62,21.14s-15.82-6.1-17.9-5.9c-.08-.1,13.91,10.23,20.93,13.93,1.63,1.92,3.76,4.54,6.21,7.67,5.53,7,12.64,16.68,19.31,26.61,3.33,5,6.54,10,9.41,14.83,1.43,2.4,2.76,4.77,4,7s2.33,4.42,3.29,6.45,1.79,3.91,2.45,5.61,1.18,3.2,1.56,4.45c.18.63.33,1.19.47,1.68s.19.92.27,1.26c.14.69.22,1.06.22,1.06s-.06-.37-.18-1.06c-.06-.35-.11-.78-.22-1.28s-.25-1.07-.4-1.71c-.34-1.27-.78-2.8-1.39-4.52s-1.36-3.66-2.24-5.73-1.92-4.29-3.05-6.61-2.39-4.74-3.73-7.21c-2.69-5-5.72-10.15-8.86-15.27-6.31-10.23-13.07-20.17-18.35-27.49-1.91-2.65-3.61-4.94-5-6.8-1.53-5.68-9.09-19.68-8.73-20,2.08-2,14.59,12.42,16.87,10.64S90.1,78.58,92.53,77c.31-.21,13.15,7.48,15.63,6.63s-1.5-14.23.24-12.35c4.64,5,11.74,13,15.46,15.34l1.09,1.3c.61.79,1.29,1.64,2,2.58s1.39,1.93,2.08,3,1.39,2.17,2.1,3.3,1.37,2.31,2,3.5,1.3,2.39,1.87,3.6l.87,1.78.79,1.78c.54,1.16,1,2.32,1.39,3.4s.75,2.15,1.09,3.12.54,1.88.77,2.68.38,1.51.5,2.1c.23,1.17.37,1.84.37,1.84s-.08-.68-.21-1.87c-.07-.6-.15-1.32-.32-2.14s-.28-1.77-.54-2.77-.47-2.1-.83-3.23-.66-2.35-1.1-3.56c-.22-.61-.43-1.24-.65-1.86l-.72-1.89c-.48-1.28-1-2.54-1.59-3.81s-1.15-2.52-1.74-3.75-1.22-2.42-1.86-3.55-1.25-2.24-1.87-3.27-1.25-2-1.82-2.86c-.48-.68-.91-1.31-1.34-1.88-1.13-6.65-7-21.55-4.83-22.5q6-2.66,12.56-5.21c2.76-1.07,10.22,8.36,13,7.36s.88-12.44,3.69-13.37c6-2,9.88-3.25,16.38-5.08,2.52-.71,11.93,17.68,16,21.26l.21.47c.47,1.08,1,2.22,1.45,3.42,1,2.38,2,5,3,7.53s2,5.14,3,7.55,1.95,4.63,2.82,6.52c.46.94.86,1.8,1.25,2.55s.75,1.4,1.05,1.92l1,1.62L196,96.49c-.26-.55-.54-1.23-.88-2s-.65-1.67-1-2.63c-.71-1.94-1.48-4.23-2.25-6.7s-1.57-5.11-2.37-7.76-1.59-5.31-2.38-7.79c-.38-1.25-.78-2.45-1.17-3.59-.19-.59-.39-1.17-.59-1.73.72-6.87-1-23.56,1.29-24.12a412.47,412.47,0,0,1,53.55-9.78c2.49-.29,9.78,12.12,13.74,15.72,2.29,10.56,4.47,31.07,4.74,39.82l.94,0a314.79,314.79,0,0,0-4.55-39,1.18,1.18,0,0,0,.62.14c2.53-.25,4.57-14.39,6.72-18.11,1.39-2.4,5.89,7.8,8.76,7.46s2.07-7.76,5-7.9c.43,0,7.9,24.93,10.85,24.84s8.73-27,11.69-27c6.65-.07,8.82-.12,15.52.1,2,.06,5,8.9,7.68,14.65l-.07,0,.12.4c.09.26.21.65.33,1.09.27.92.62,2.31,1,4,.72,3.38,1.45,8,2.09,12.61s1.21,9.28,1.66,12.77c.23,1.74.44,3.19.63,4.2a11.08,11.08,0,0,0,.26,1.17,1.59,1.59,0,0,0,.16.38,1.32,1.32,0,0,1-.12-.39c-.05-.27-.1-.67-.14-1.18-.09-1-.15-2.48-.2-4.23-.1-3.51-.24-8.2-.37-12.88s-.44-9.39-.82-12.95c0-.25-.06-.49-.08-.73,3-3.09,7.43-18.07,10-17.88,9.4.69,11.07-.1,20.42,1.23,2.1.29,3.13,11.92,4.62,18.6h0s0,.5.14,1.37c0,.41.08.91.12,1.49s.07,1.27.11,2c.13,3,.22,7,.32,10.94s.25,8,.49,11c0,.75.14,1.44.2,2s.16,1.14.22,1.57.16.76.2,1,.08.35.08.35l0-.35c0-.24-.08-.57-.09-1s0-1,0-1.57,0-1.29.05-2c.11-3,.44-7,.81-10.92s.75-7.94,1-11c0-.35,0-.69.07-1,4.43-3.46,14.43-18.3,16.95-17.82,3.32.63,3.33.58,6.62,1.3,2.91.64,4.67,8.69,7.56,9.4s10.18-5.21,13-4.43c5.65,1.55,3.77.85,9.32,2.7,2.11.7,1.77,8.78,2.63,13.22q-.07.81-.18,1.77c-.16,1.6-.37,3.47-.63,5.48-.13,1-.23,2-.4,3.08l-.45,3.18c-.29,2.14-.72,4.24-1,6.24-.16,1-.41,1.94-.59,2.85s-.39,1.76-.56,2.55-.41,1.49-.58,2.12l-.49,1.64-.43,1.42.58-1.37c.18-.44.41-1,.66-1.57s.58-1.29.82-2.07l.84-2.49c.29-.89.64-1.81.91-2.79.54-2,1.21-4,1.72-6.14.27-1.06.54-2.11.81-3.14s.5-2.06.74-3.06c.43-1.78.81-3.46,1.13-4.94,4.62-1.06,16.25-8.46,18.68-7.49,11,4.41,8.37,3.64,18.71,9.43,2.54,1.42-17,36.51-14.5,38S475,77,477.45,78.6c.3.2-5.44,13.4-3.07,15.1s16.33-8.74,18.64-7c2,1.53-14.54,27.22-12.39,29.13s35.9-16.14,38-14.16"/><path class="cls-2" d="M604.32,290A225.29,225.29,0,0,0,603.2,266c-.28-2.79-22.55-1.78-22.93-4.56s21.14-9.35,20.66-12.12c-.28-1.61.94-4.65.62-6.28-.53-2.73-13.11.17-13.74-2.55s9.19-9.65,8.47-12.35c-.2-.76-.41-1.52-.62-2.28-.75-2.7-32.74,2.23-33.58-.45s24.92-25.19,24-27.84c-3-8.5-37,28.2-39.85,34.36-2.6,1.05-5.32,2.21-8,3.43a124.48,124.48,0,0,0-15.1,7.89c-1,.63-1.86,1.23-2.6,1.81-.38.28-.72.56-1,.84a10.37,10.37,0,0,0-.82.77,4.92,4.92,0,0,0-.59.68,2.89,2.89,0,0,0-.38.55l-.26.49.29-.47a3.28,3.28,0,0,1,.42-.51,4.23,4.23,0,0,1,.64-.62,8.34,8.34,0,0,1,.86-.7c.32-.25.68-.5,1.07-.75.78-.51,1.69-1,2.71-1.59a123.62,123.62,0,0,1,15.5-6.64c4.46-1.61,9-3.08,12.82-4.2,10.88-1.18,33.52-6.09,34.09-4,.21.77.89,2.94,1.1,3.7.71,2.7-8.8,8.21-8.18,10.93s14.8-.89,15.33,1.85c.31,1.63.43.62.71,2.23.48,2.77-31,11.54-30.66,14.31s32.27,5.23,32.55,8c.82,8.23,1.23,8.46,1.17,16.28,0,2.47-31.37,7.07-38.61,10-4.55-.6-10.61-1.33-16.69-1.82a127.83,127.83,0,0,0-16.82-.49q-1.72.11-3.12.3l-1.29.21-1.08.26a9.69,9.69,0,0,0-1.47.52l-.49.24.51-.2a8.24,8.24,0,0,1,1.48-.4l1.08-.17,1.29-.12c.93,0,2-.07,3.1,0a127.86,127.86,0,0,1,16.58,1.77c6,1,11.95,2.14,16.41,3.09l3,.64c10,5,35.36,14.09,35.18,16.32,0,0-.15,3.54-1.15,4.18-2.35,1.51-21.1-2.49-21.7.24s19,9.7,18.29,12.41c-.61,2.31-.87,4-1.54,6.22s-16.4-1.17-23.55-1.38c-3.2-1.36-7-2.91-10.89-4.36-2.41-.9-4.83-1.77-7.14-2.5-1.14-.38-2.27-.71-3.33-1s-2.07-.58-3-.81-1.8-.43-2.58-.57-1.43-.3-2-.35l-1.75-.21,1.72.37c.55.1,1.21.31,2,.53s1.59.46,2.49.8,1.88.65,2.9,1.07,2.09.83,3.19,1.31c2.21.93,4.52,2,6.83,3.12,3,1.44,5.92,2.94,8.54,4.33,3,4,22.08,14.8,21.17,17.16q-1.8,4.67-3.74,9.09c-1.13,2.57-30.63-8.54-31.86-6S568,375.78,566.6,378.26c-1.87,3.45-2.16,7.1-4.12,10.26-1.12,1.78-19-5.64-28.91-8.65-.78-.54-1.7-1.17-2.76-1.88-1.59-1.06-3.46-2.27-5.48-3.53l-3.14-1.91c-1.09-.63-2.17-1.29-3.29-1.9s-2.22-1.24-3.34-1.8-2.21-1.14-3.3-1.63l-1.59-.75-1.55-.65c-1-.44-2-.79-2.88-1.09-.45-.16-.88-.32-1.29-.45l-1.2-.31a12.43,12.43,0,0,0-1.95-.44l-1.72-.25,1.69.41a13.4,13.4,0,0,1,1.88.61l1.14.42c.4.16.81.36,1.23.56.86.38,1.79.8,2.73,1.33l1.46.78,1.49.88c1,.59,2.05,1.23,3.09,1.91s2.07,1.37,3.11,2.08,2.05,1.45,3.06,2.16l2.91,2.16c1.16.89,2.26,1.75,3.29,2.56-.42,3,17.82,18.2,16.14,20.39-2.15,2.78-2.2,3.8-4.33,6.21-1.57,1.76-15.81-4-22.07-5l-35-17.64,32.76,20.4c2.42,5.18,10.82,16.27,14.42,21.27,1.43,2-10.9-1.33-12.73.32s13.68,14.86,16.55,15.5c-1.91-1.44-5-10.8-3.18-12.45s9.56,1.52,8.13-.46c-4.53-6.29-15.61-17.56-13.89-19.23,2.07-2,15.47,5.43,17.39,3.27,2.13-2.41,4.93-8.38,7.07-11.16,1.74-2.26-7.43-11-5.81-13.37s20.63,8.58,22.13,6.17c2-3.15,4.49-11.52,6.37-15,1.34-2.48-11.62-10.21-10.38-12.74s24.42,12.29,25.55,9.72c1.29-2.95,5.45-15.22,6.64-18.33,1-2.61-15.52-10.44-14.62-13.09s15,3.15,15.8.47c.67-2.25,3.88-8.93,4.49-11.24.7-2.7-15.78-7.57-15.18-10.3s17,7,17.51,4.29c1.18-6.59,1.33-4.47,1.91-11.47.23-2.79-27.84-13.38-27.71-16.17s29.2-6.71,29.22-9.5"/><path class="cls-2" d="M188.71,198.29l-19.54-42.84c-2,.61-4.22-.33-5.66-3.47a7.51,7.51,0,0,1,.56-7.71l-1.91-4.19a7,7,0,0,1-2.13-2.83c-1.33-2.91,1.44-6.71,3.77-7.77,4.31-2,7.58-.64,8.41,3.34l.59,1.28c5-6.23,10.93-14.27,24-20.21,10.83-4.94,18.48-2.67,21.93,4.91,5.84,12.8-5.27,35.31-29.38,51.22l10.83,23.76a6.52,6.52,0,0,1,2.66,2.44c1.91,4.19.94,5.76-5.58,8.73-4,1.81-7,.38-8.22-2.3a5.64,5.64,0,0,1-.3-4.36m-3.8-37.93c19-12.32,26.51-27,23.31-33.69-1.16-2.57-4.9-3.67-10.49-1.13-7.34,3.35-13.68,9.19-20.14,18.75Z"/><path class="cls-2" d="M249.63,164.16l-9.89-56.34c-3-3.89-.55-8.35,4.36-9.21,5.29-.93,6.79,3.87,7.21,6.27l10.22,58.23a10.72,10.72,0,0,0,11.21,4.65c16.64-2.92,22.93-15.19,22.33-18.6l-8.78-50a3.66,3.66,0,0,1-1.65-2.69c-.62-3.53,2.11-6.48,6.65-7.28,2.77-.48,6,.77,6.58,4.17a4.38,4.38,0,0,1-.06,2.61L307.13,149c.44,2.51-1.75,10.05-6.36,14.88-6.68,7.8-15.29,12.82-26.63,14.81-16.13,2.83-23-7-24.51-14.53"/><path class="cls-2" d="M332.08,97.37a7.86,7.86,0,0,1-.56-3.93c.38-3.18,2.92-6.1,7.74-5.53,5.34.64,6.67,2.47,6.29,5.65-.31,2.66,1.25,8,3.23,13,2.8,6.77,8.82,16.89,14.82,25,5.33,7.21,10.21,15,11.65,19.16l.25,0c1.56-16.44,3.52-33,5.54-50-.16-.79-1-2.19-.86-3.58.5-4.2,3.73-5.36,6.78-5,3.55.42,7.3,2.54,6.92,5.72a9,9,0,0,1-1.5,3.95l-8,67.35a5.18,5.18,0,0,1,1.12,3.61c-.38,3.18-2.3,4.11-7.51,3.49-3.93-.47-5.21-3.84-6.3-7.7-2.27-7-10.08-20.4-15.41-27.61-6.77-9.18-12.89-19.57-14.95-26.12l-.25,0c-1.55,15.28-3.29,31.05-5.16,46.81a7.24,7.24,0,0,1,.82,4c-.46,3.81-2.59,5.49-6.91,5s-7.7-2.46-7.15-7a6.16,6.16,0,0,1,1.93-3.26Z"/><path class="cls-2" d="M409,176.7a4.33,4.33,0,0,1-.36,3.71c-2.28,4.59-6.44,4-9.73,2.26-3.51-1.85-5.89-5.57-3.75-9.36a4.87,4.87,0,0,1,3.15-2.68l29.42-55.81a4.43,4.43,0,0,1,.58-3.31c2.09-4,6.1-4.16,9-2.61,2.6,1.37,6,4.77,4,8.62a6.17,6.17,0,0,1-2.52,2.58l-8.58,16.3.22.12a37.13,37.13,0,0,1,9-2.61l26.31-4.36c2.85-2.12,4.93-2.76,7.76-1.27,1.47.78,5.17,4.46,3.2,8.2-1.2,2.26-5.07,4.41-8.14,3.09l-33,5.48,14,52.21c2.38,1.25,3.17,4.42,2.27,6.12-1.31,2.49-6.28,4.5-10.69,2.17-3.51-1.84-4.2-4.38-3.18-6.31L426.62,157.5c-1.21-4.83-1.66-8.1-1.54-10.79l-.23-.12Z"/><path class="cls-2" d="M285.14,290.34a7.72,7.72,0,0,1,2.84,3.9c.76,3-1.68,6.89-6.27,8.06s-8.2-.57-9.21-4.54a7.68,7.68,0,0,1,.61-4.9L258.2,234.07a4.28,4.28,0,0,1-2.4-3.22c-1.14-4.47,2.11-8.33,6.82-9.52s7.58,1.77,8.4,5a8.08,8.08,0,0,1-.73,5.46Z"/><path class="cls-2" d="M359.65,226.29c-.09,2.81-1.7,5.32-5.93,5.19-5.11-.16-7.22-2.27-7.15-4.7-1.34-2.09-5.13-3.75-10.5-3.92-13.69-.42-26.3,9.94-26.58,19-.15,4.61,2.1,6.34,5.43,6.45,3.58.11,8.47-.76,15.31-2.47,6.58-1.59,12.25-2.69,18.77-2.49,10.75.33,19,6.1,18.66,17.61a28.91,28.91,0,0,1-7.77,19.22c-9.82,11.34-27.55,17.32-42.26,16.87-16.5-.52-22-12.59-21.88-16.82s2.92-7.46,7.27-7.32,5,5.4,6.39,8.39c1.69,3.51,4.57,5.39,9.43,5.54,10.11.31,23.2-4.66,30.34-12.12,4.21-3.71,5.5-8.15,5.67-13.39.17-5.51-2.59-7.38-7.84-7.54-5.62-.18-10.52.82-17.23,2.41a60,60,0,0,1-17.87,2.51c-9.08-.28-15.61-4.58-15.26-16,.45-14.2,19.27-30.77,41.53-30.08,11.64.36,21.63,8.22,21.47,13.6"/><path class="cls-2" d="M225,356.54a7.82,7.82,0,0,1-1.53-3.67c-.42-3.17,1.32-6.63,6.14-7.27,5.33-.71,7.07.74,7.49,3.91.35,2.66,3.18,7.45,6.35,11.81,4.39,5.86,12.73,14.18,20.54,20.5,6.95,5.66,13.61,12,16,15.68l.26,0c-2.56-16.31-4.76-32.81-7-49.81-.35-.72-1.54-1.86-1.72-3.25-.56-4.19,2.28-6.12,5.33-6.52,3.55-.48,7.7.65,8.12,3.82a9,9,0,0,1-.47,4.2l8.95,67.23a5.12,5.12,0,0,1,2,3.22c.43,3.17-1.2,4.55-6.4,5.25-3.93.52-6-2.43-8-5.91-3.92-6.19-14.82-17.26-21.77-22.92-8.83-7.22-17.33-15.77-21-21.61l-.25,0c2.28,15.19,4.5,30.9,6.59,46.63a7.16,7.16,0,0,1,1.78,3.64c.51,3.8-1.14,6-5.46,6.53s-8.06-.47-8.67-5a6.25,6.25,0,0,1,1.06-3.63Z"/><path class="cls-2" d="M374.19,370.06c1,28-17.81,49.55-41.72,50.41-20.72.75-28.07-18.33-28.57-32.52-.93-25.58,17.84-55.71,40.35-56.52,14.71-.53,28.91,9.72,29.94,38.63M316.63,386c.42,11.77,5.49,24.65,17.77,24.21,13.94-.5,27.82-17.14,27-39.26-.72-19.95-7.59-29.57-18.21-29.18-13.3.47-27.3,24.28-26.58,44.23"/><path class="cls-2" d="M416.48,410.38a6.23,6.23,0,0,1,.94,3.27c-.23,3.45-2.71,6-8.83,5.57-3.83-.25-5.64-2-5.4-5.74a11,11,0,0,1,1.07-4.42l3.91-59L393,352a7.69,7.69,0,0,1-4,1c-3.58-.24-5.73-2.57-5.5-6,.25-3.71,2.86-6.35,5.66-6.17A6,6,0,0,1,392.8,342L410,339.8c1.94-2.05,7.22-2.47,9.31-1.05l19.51-2.18a8.49,8.49,0,0,1,4-.62c3.32.22,5.48,2.54,5.22,6.37-.21,3.19-2.44,6-5.89,5.76a8.06,8.06,0,0,1-3.89-1.28L420.55,349Z"/><path class="cls-2" d="M153.09,501.1l12.78-63.35a10.41,10.41,0,0,1,0-4.32c.45-2.25,3.35-4.93,8.61-3.87,4.52.91,5.27,4.33,4.11,6.83a56.2,56.2,0,0,1,26.9-.7c15.56,3.13,24.59,19.84,21.76,33.89a52.38,52.38,0,0,1-22.65,33.94c-15.12,9.62-35.91,11.68-47.57,9.33-5.15-1-7.15-3.4-6.42-7,.51-2.51,1.29-3.79,2.52-4.72m12.12,1.4c10.09,1.12,22.59-.66,32.51-7.8,8.55-6.76,14.38-15,16.71-26.52,1.85-9.16-3.25-20.77-13.79-22.89a48.3,48.3,0,0,0-24.27,1.89Z"/><path class="cls-2" d="M240.86,521l34,9.9a5.43,5.43,0,0,1,4.5-.39c4.09,1.5,5.58,5.6,4.66,8.12-1.9,5.16-5.62,4.89-12,2.55l-34.76-10c-1.36.73-4.11.8-7.6-.48s-5.61-4.38-4.11-8.46a11.12,11.12,0,0,1,3.5-4.71l8.3-22.58a7.69,7.69,0,0,1-.13-6.32,9.2,9.2,0,0,1,4.19-4.73l7.06-19.23a5.31,5.31,0,0,1-.8-5.61c.84-2.28,2.13-3.58,3.52-4a2.86,2.86,0,0,1,.11-2.14c.93-2.52,4.59-3.22,8.32-1.86,4,1.46,5.42,4.18,4.49,6.7l29.51,8a9.57,9.57,0,0,1,5.11-.18c4.56,1.68,5.87,5.16,4.81,8.05-1.54,4.2-5.36,6.07-9.57,4.52a9.69,9.69,0,0,1-3.72-2.46l-29.8-8-7.38,20.06,24,5.55a8.52,8.52,0,0,1,4.95-.09,6.86,6.86,0,0,1,4.31,8.67c-1.55,4.2-4.89,5.15-9.34,3.52a6,6,0,0,1-2.45-1.86l-25.13-5.82Z"/><path class="cls-2" d="M316,532.25c-12.46,9-14.95,10.68-16.24,12.32A43,43,0,0,0,297,549.5c-1.31,2.5-4,4-9.18,1.28-4.2-2.19-4.6-5.58-3.18-8.3,1.3-2.5,5.59-5.45,14.05-11.72l40-28.51c4.69-3.19,7.24-5.32,8.88-7.35,2-4,6.35-6.36,10.54-4.17,3.86,2,4.66,5.46,3.65,7.39s-2.15,2.19-3,3.78c-1.83,3.52-1.43,27.11-2,34.77-.54,21.51-1.36,35.81-3.42,39.78-2.2,4.2-6.11,5.33-10.19,3.2-3.52-1.83-5.07-4.95-3.77-7.45,1-1.81,2.28-2.71,2.81-3.73.89-1.7,1.71-6,2.69-23.42Zm29.66,2.34,1.7-25.67L325.09,525.6Z"/><path class="cls-2" d="M361.86,579.49,401,528.08a10.36,10.36,0,0,1,1.84-3.9c1.4-1.83,5.17-3,9.44.27,3.67,2.79,2.85,6.19.71,7.94a56.36,56.36,0,0,1,24.51,11.11c12.63,9.62,13.46,28.59,4.77,40a52.36,52.36,0,0,1-35.19,20.65c-17.8,2-37.4-5.17-46.87-12.38-4.17-3.18-4.94-6.18-2.69-9.13,1.55-2,2.81-2.85,4.32-3.14M372.15,586c8.59,5.41,20.61,9.26,32.65,7.18,10.64-2.36,19.48-7.2,26.62-16.57,5.66-7.43,6.13-20.09-2.42-26.61a48.28,48.28,0,0,0-22.66-8.89Z"/><path class="cls-3" d="M186,193.89,166.45,151c-2,.62-4.23-.32-5.66-3.46a7.53,7.53,0,0,1,.56-7.72l-1.91-4.19a6.82,6.82,0,0,1-2.13-2.82c-1.33-2.91,1.44-6.71,3.77-7.77,4.31-2,7.58-.64,8.41,3.34l.58,1.28c5-6.24,10.94-14.27,24-20.22,10.83-4.93,18.48-2.66,21.93,4.91,5.84,12.81-5.28,35.32-29.38,51.23l10.83,23.75a6.62,6.62,0,0,1,2.66,2.45c1.91,4.19.94,5.76-5.58,8.73-4,1.81-7,.38-8.22-2.3a5.64,5.64,0,0,1-.3-4.36M182.19,156c19-12.32,26.51-27,23.31-33.7-1.17-2.56-4.9-3.67-10.49-1.12-7.34,3.35-13.68,9.19-20.15,18.75Z"/><path class="cls-3" d="M246.91,159.75,237,103.41c-3-3.88-.56-8.34,4.36-9.21,5.29-.93,6.79,3.88,7.21,6.28l10.22,58.22A10.72,10.72,0,0,0,270,163.36c16.64-2.92,22.93-15.2,22.33-18.6l-8.79-50a3.67,3.67,0,0,1-1.64-2.7c-.62-3.53,2.11-6.47,6.65-7.27,2.77-.49,6,.77,6.58,4.17a4.46,4.46,0,0,1-.06,2.61l9.31,53.06c.44,2.52-1.74,10-6.35,14.89-6.68,7.8-15.29,12.82-26.63,14.81-16.13,2.83-23.06-7-24.51-14.54"/><path class="cls-3" d="M329.36,93A7.86,7.86,0,0,1,328.8,89c.37-3.18,2.91-6.1,7.74-5.53,5.34.63,6.67,2.47,6.29,5.64-.32,2.67,1.24,8,3.23,13,2.8,6.78,8.82,16.9,14.82,25,5.33,7.2,10.21,15,11.65,19.16l.25,0c1.56-16.44,3.52-33,5.54-50-.16-.8-1-2.19-.86-3.59.49-4.19,3.73-5.35,6.77-5,3.56.42,7.31,2.54,6.93,5.72a8.85,8.85,0,0,1-1.5,3.94l-8,67.35a5.11,5.11,0,0,1,1.12,3.62c-.37,3.17-2.29,4.11-7.5,3.49-3.94-.47-5.22-3.84-6.3-7.71-2.27-7-10.08-20.4-15.42-27.6-6.77-9.18-12.88-19.57-14.94-26.13l-.25,0c-1.56,15.28-3.3,31.06-5.16,46.81a7.2,7.2,0,0,1,.81,4c-.45,3.81-2.58,5.49-6.9,5s-7.7-2.46-7.16-7a6.26,6.26,0,0,1,1.93-3.25Z"/><path class="cls-3" d="M406.26,172.3a4.33,4.33,0,0,1-.37,3.71c-2.27,4.59-6.44,4-9.72,2.25-3.51-1.85-5.89-5.56-3.75-9.35a4.87,4.87,0,0,1,3.15-2.68L425,110.42a4.39,4.39,0,0,1,.58-3.31c2.09-4,6.1-4.16,9.05-2.61,2.6,1.37,6,4.77,4,8.61a6.15,6.15,0,0,1-2.52,2.59L427.5,132l.23.11a37.13,37.13,0,0,1,9-2.61l26.31-4.36c2.85-2.11,4.92-2.75,7.76-1.26,1.47.78,5.17,4.46,3.2,8.2-1.2,2.26-5.08,4.41-8.14,3.08l-33,5.48,14,52.22c2.37,1.25,3.17,4.42,2.27,6.12-1.31,2.49-6.28,4.5-10.69,2.17-3.51-1.85-4.2-4.38-3.19-6.31L423.9,153.1c-1.21-4.84-1.66-8.11-1.54-10.8l-.23-.12Z"/><path class="cls-3" d="M282.42,285.93a7.82,7.82,0,0,1,2.84,3.9c.75,3-1.69,6.9-6.28,8.06s-8.19-.56-9.2-4.53a7.68,7.68,0,0,1,.6-4.9l-14.91-58.8a4.31,4.31,0,0,1-2.4-3.22c-1.13-4.46,2.12-8.32,6.83-9.51s7.58,1.77,8.4,5a8.14,8.14,0,0,1-.73,5.46Z"/><path class="cls-3" d="M356.93,221.88c-.09,2.82-1.71,5.33-5.93,5.2-5.11-.16-7.22-2.28-7.15-4.71-1.34-2.09-5.13-3.74-10.51-3.91-13.68-.42-26.29,9.94-26.58,19-.14,4.61,2.11,6.34,5.44,6.44,3.58.12,8.47-.76,15.31-2.47,6.58-1.58,12.25-2.69,18.77-2.48,10.74.33,19,6.09,18.66,17.6a28.94,28.94,0,0,1-7.77,19.22c-9.83,11.35-27.55,17.33-42.26,16.87-16.5-.51-22-12.59-21.89-16.81s2.92-7.46,7.28-7.33,4.95,5.41,6.39,8.39c1.69,3.52,4.57,5.4,9.43,5.55,10.1.31,23.19-4.66,30.34-12.12,4.21-3.71,5.5-8.15,5.66-13.4.17-5.5-2.58-7.37-7.83-7.54-5.63-.17-10.52.83-17.23,2.41a59.74,59.74,0,0,1-17.88,2.52c-9.08-.28-15.6-4.58-15.25-16,.45-14.2,19.27-30.77,41.52-30.09,11.64.37,21.64,8.23,21.48,13.6"/><path class="cls-3" d="M222.26,352.14a7.81,7.81,0,0,1-1.52-3.67c-.42-3.17,1.31-6.63,6.13-7.28,5.33-.7,7.07.74,7.5,3.91.35,2.67,3.18,7.46,6.34,11.81,4.4,5.87,12.74,14.19,20.55,20.51,6.95,5.65,13.6,12,16,15.68l.26,0c-2.56-16.31-4.76-32.8-7-49.8-.36-.73-1.54-1.86-1.73-3.26-.55-4.18,2.29-6.11,5.33-6.52,3.55-.47,7.71.66,8.13,3.83a8.81,8.81,0,0,1-.48,4.19l9,67.24a5.1,5.1,0,0,1,2,3.22c.42,3.17-1.2,4.55-6.4,5.24-3.93.52-6-2.43-8-5.9-3.92-6.19-14.82-17.27-21.77-22.93-8.83-7.21-17.33-15.76-20.95-21.61l-.25,0c2.28,15.18,4.5,30.9,6.59,46.63a7.13,7.13,0,0,1,1.78,3.63c.5,3.81-1.15,6-5.46,6.54s-8.07-.47-8.67-5a6.1,6.1,0,0,1,1.06-3.63Z"/><path class="cls-3" d="M371.47,365.65c1,28-17.81,49.56-41.73,50.42-20.71.74-28.06-18.33-28.57-32.53C300.25,358,319,327.84,341.53,327c14.71-.53,28.91,9.72,29.94,38.62m-57.56,15.9c.42,11.77,5.49,24.65,17.77,24.21,13.94-.51,27.81-17.14,27-39.26-.72-20-7.59-29.57-18.21-29.19-13.3.48-27.3,24.29-26.58,44.24"/><path class="cls-3" d="M413.76,406a6.23,6.23,0,0,1,.94,3.27c-.23,3.44-2.71,6-8.84,5.57-3.83-.26-5.63-2-5.39-5.75a11,11,0,0,1,1.06-4.42l3.92-59-15.14,1.95a7.69,7.69,0,0,1-4,1c-3.58-.24-5.73-2.56-5.5-6,.24-3.7,2.85-6.35,5.66-6.16a6,6,0,0,1,3.65,1.14l17.2-2.2c1.93-2.05,7.22-2.47,9.3-1.05l19.52-2.17a8.62,8.62,0,0,1,4-.63c3.32.22,5.48,2.55,5.22,6.38-.21,3.19-2.45,6-5.89,5.76a8.21,8.21,0,0,1-3.9-1.28l-17.71,2.16Z"/><path class="cls-3" d="M150.37,496.7l12.78-63.35a10.41,10.41,0,0,1,0-4.32c.45-2.26,3.34-4.93,8.61-3.87,4.52.91,5.26,4.32,4.11,6.83a56.2,56.2,0,0,1,26.9-.71c15.56,3.14,24.59,19.84,21.75,33.89a52.36,52.36,0,0,1-22.64,33.95c-15.13,9.61-35.91,11.68-47.58,9.33-5.14-1-7.14-3.4-6.41-7,.51-2.51,1.29-3.79,2.52-4.71m12.12,1.4c10.08,1.12,22.59-.67,32.51-7.8,8.55-6.76,14.38-15,16.71-26.53,1.85-9.15-3.25-20.76-13.79-22.88a48.19,48.19,0,0,0-24.27,1.89Z"/><path class="cls-3" d="M238.13,516.64l34,9.9a5.42,5.42,0,0,1,4.5-.39c4.09,1.5,5.58,5.59,4.65,8.12-1.89,5.16-5.61,4.89-12,2.55l-34.75-10c-1.36.72-4.12.8-7.6-.48s-5.62-4.38-4.11-8.46a11.16,11.16,0,0,1,3.5-4.72l8.3-22.58a7.73,7.73,0,0,1-.14-6.32,9.26,9.26,0,0,1,4.2-4.73l7.06-19.22a5.32,5.32,0,0,1-.8-5.61c.84-2.28,2.13-3.58,3.52-4a2.81,2.81,0,0,1,.11-2.14c.92-2.53,4.59-3.23,8.31-1.86,4,1.46,5.42,4.18,4.5,6.7l29.51,8a9.57,9.57,0,0,1,5.11-.17c4.56,1.68,5.87,5.16,4.81,8-1.54,4.21-5.36,6.07-9.57,4.53a9.93,9.93,0,0,1-3.73-2.46l-29.8-7.95-7.37,20.06,24,5.55a8.56,8.56,0,0,1,4.94-.1,6.87,6.87,0,0,1,4.32,8.67c-1.55,4.21-4.9,5.16-9.34,3.53a6.22,6.22,0,0,1-2.46-1.86l-25.12-5.82Z"/><path class="cls-3" d="M313.27,527.85c-12.46,8.94-14.95,10.68-16.24,12.32a42.31,42.31,0,0,0-2.72,4.93c-1.3,2.5-4,4-9.18,1.28-4.19-2.19-4.59-5.58-3.17-8.3,1.3-2.5,5.58-5.46,14.05-11.72l40-28.52c4.69-3.18,7.25-5.31,8.89-7.34,1.95-4,6.34-6.36,10.54-4.17,3.86,2,4.66,5.45,3.65,7.38s-2.15,2.2-3,3.79c-1.83,3.52-1.43,27.1-2,34.76-.53,21.52-1.35,35.81-3.42,39.78-2.19,4.2-6.1,5.34-10.18,3.21-3.52-1.84-5.07-5-3.77-7.45.95-1.82,2.28-2.71,2.81-3.73.89-1.7,1.71-6,2.69-23.42Zm29.66,2.34,1.7-25.68L322.36,521.2Z"/><path class="cls-3" d="M359.14,575.08l39.15-51.4a10.5,10.5,0,0,1,1.85-3.9c1.4-1.84,5.17-3,9.44.27,3.67,2.79,2.85,6.19.71,7.94A56.18,56.18,0,0,1,434.8,539.1c12.62,9.62,13.46,28.59,4.77,40a52.36,52.36,0,0,1-35.19,20.66c-17.8,2-37.4-5.17-46.87-12.38-4.17-3.18-4.94-6.18-2.7-9.13,1.56-2,2.82-2.85,4.33-3.15m10.29,6.55c8.58,5.42,20.61,9.27,32.65,7.18,10.64-2.35,19.48-7.2,26.61-16.56,5.66-7.43,6.14-20.1-2.41-26.61a48.4,48.4,0,0,0-22.66-8.9Z"/><path class="cls-3" d="M203.66,252.27a14.08,14.08,0,1,1-14.08-14.07,14.08,14.08,0,0,1,14.08,14.07"/><path class="cls-3" d="M236.12,315.13A7.13,7.13,0,1,1,229,308a7.13,7.13,0,0,1,7.13,7.13"/><path class="cls-3" d="M451.67,271.77a19.31,19.31,0,1,1-19.31-19.31,19.3,19.3,0,0,1,19.31,19.31"/><path class="cls-3" d="M166.47,383.09a18.87,18.87,0,1,1-18.87-18.87,18.87,18.87,0,0,1,18.87,18.87"/><path class="cls-3" d="M375.13,460.54a10.86,10.86,0,1,1-10.86-10.86,10.85,10.85,0,0,1,10.86,10.86"/><path class="cls-3" d="M206.56,566.75a8.18,8.18,0,1,1-8.17-8.18,8.17,8.17,0,0,1,8.17,8.18"/><path class="cls-3" d="M329.1,633.42a17.3,17.3,0,1,1-17.3-17.3,17.31,17.31,0,0,1,17.3,17.3"/><path class="cls-3" d="M411.29,655.43a5.66,5.66,0,1,1-5.66-5.66,5.66,5.66,0,0,1,5.66,5.66"/><path class="cls-3" d="M499.66,244.72a7.55,7.55,0,1,1-7.55-7.54,7.55,7.55,0,0,1,7.55,7.54"/></g></g></svg>