<svg xmlns="http://www.w3.org/2000/svg" viewBox="0 0 160.48 390"><defs><style>.cls-1{fill:#fff;}.cls-2{fill:#272727;}</style></defs><g id="Слой_2" data-name="Слой 2"><g id="Layer_1" data-name="Layer 1"><path class="cls-1" d="M12.37,343.1s19.19-18.61,19.75-18.92c2.59-1.41,6.25.87,8.16,5.09s1.36,8.8-1.24,10.21C38.29,339.89,12.37,343.1,12.37,343.1Z"/><path class="cls-2" d="M9.91,344.28l1.86-1.8c8.79-8.53,19.39-18.76,19.94-19.06a4.66,4.66,0,0,1,3.75-.24,10.41,10.41,0,0,1,5.61,5.74c2.13,4.69,1.42,9.67-1.61,11.32-.74.4-15.08,2.24-27,3.72Zm22.67-19.36c-.89.72-10.46,9.94-17.75,17,9.78-1.22,22.6-2.89,23.85-3.23,2.12-1.22,2.49-5.34.81-9.06-1.07-2.38-2.83-4.22-4.58-4.8A2.92,2.92,0,0,0,32.58,324.92Z"/><polygon class="cls-2" points="12.37 343.1 40.85 330.77 39.04 339.48 12.37 343.1"/><path class="cls-1" d="M151.09,341.13s-17-20.65-17.49-21c-2.42-1.7-6.31.15-8.69,4.13s-2.34,8.59.08,10.29C125.69,335,151.09,341.13,151.09,341.13Z"/><path class="cls-2" d="M153.4,342.58l-2.52-.61c-11.65-2.8-25.7-6.25-26.39-6.74-2.82-2-3-7-.32-11.43,1.6-2.68,3.92-4.57,6.22-5.06a4.58,4.58,0,0,1,3.7.66c.51.36,9.89,11.72,17.67,21.18Zm-28-8.8c1.2.48,13.75,3.58,23.34,5.9-6.45-7.83-14.92-18.08-15.72-18.89a2.91,2.91,0,0,0-2.31-.36,8.79,8.79,0,0,0-5.09,4.26C123.56,328.19,123.47,332.33,125.44,333.78Z"/><polygon class="cls-2" points="151.09 341.13 124.17 325.67 124.99 334.52 151.09 341.13"/><path class="cls-1" d="M29.54,387.07l5.51-133.89C21.42,241.73,26,230.68,24.22,222.3c-1.43-6.83-9.57-18.75-10.2-30.7s-.41-40.09.56-53.44-.25-41.63-1.24-48.74-1-13.37-.41-28.3c.73-17.45,3.38-31.3,12.07-32.69,11.82-1.88,14.3,11.82,13.67,24.39s2.39,21.09,3.09,26.92.31,18.55,2.37,22.82l67.4-9.68S115,70.5,116.36,61.09s4.66-19.43,4.89-24.93-.8-34.43,12.1-35.2,17.88,14.54,17.29,35.59-2.76,42.09-7.56,59.79a113.67,113.67,0,0,0-3.44,34.53s14.06,13.92,16.69,21c3.45,9.27-3.45,22.75-9.07,31.79s-4.27,13.93-8.14,21-10.57,14.48-13.18,22.3-4.63,17.07-1.34,41.48S138.9,390,138.9,390Z"/><path class="cls-2" d="M43.44,385.37c.16-20.42,2-52.62,11.56-63.1,0,0-15.85-50.28-15-55.87s-2,0-2,0L35.52,382.75s-.17,1.79-.14,4.28A45.12,45.12,0,0,1,43.44,385.37Z"/><path class="cls-2" d="M63.73,324.22a37.55,37.55,0,0,0-8.59,2.29c-.69.27-1.37.56-2,.86l-2.05.89a13,13,0,0,0-1.82,1A3.46,3.46,0,0,0,48,330.39l-2.25-1.64a6.09,6.09,0,0,1,2.27-1.65,15.6,15.6,0,0,1,2.28-.81l2.19-.57c.73-.2,1.47-.38,2.21-.54A38.64,38.64,0,0,1,63.73,324.22Z"/><path class="cls-2" d="M60.47,329.53a66.81,66.81,0,0,0-8.12,2.6,20.9,20.9,0,0,0-6.84,4.38l-1.8-2.13a22.72,22.72,0,0,1,8.21-3.57A64.91,64.91,0,0,1,60.47,329.53Z"/><path class="cls-2" d="M57.79,335.46A32.87,32.87,0,0,0,50.94,338a33.5,33.5,0,0,0-6,3.89l-1.52-2.34a36.48,36.48,0,0,1,7-2.85A34,34,0,0,1,57.79,335.46Z"/><path class="cls-2" d="M55.38,341.39a49.11,49.11,0,0,0-6,2.29,15.86,15.86,0,0,0-4.92,3.41L42.64,345A17.73,17.73,0,0,1,49,342.37,49.5,49.5,0,0,1,55.38,341.39Z"/><path class="cls-2" d="M53.11,347.31a41.74,41.74,0,0,0-4.77,2.1,15.47,15.47,0,0,0-4,2.88l-1.72-2.19a17.16,17.16,0,0,1,5.22-2A41.66,41.66,0,0,1,53.11,347.31Z"/><path class="cls-2" d="M50.9,353.25a43.06,43.06,0,0,0-4.15,2,18.75,18.75,0,0,0-3.59,2.57l-1.55-2.31A20.29,20.29,0,0,1,46.25,354,44.77,44.77,0,0,1,50.9,353.25Z"/><path class="cls-2" d="M49.58,359a24.45,24.45,0,0,0-6,3.9l-1.44-2.38A25.61,25.61,0,0,1,49.58,359Z"/><path class="cls-2" d="M49,364.48A24.59,24.59,0,0,0,43.42,368l-1.31-2.46A26,26,0,0,1,49,364.48Z"/><path class="cls-2" d="M48.75,370a26.91,26.91,0,0,0-6,3.44l-1.18-2.52A28,28,0,0,1,48.75,370Z"/><path class="cls-2" d="M47.35,375.46a27,27,0,0,0-6,3.45l-1.18-2.53A28.42,28.42,0,0,1,47.35,375.46Z"/><path class="cls-2" d="M46.9,380a27,27,0,0,0-6,3.45l-1.17-2.53A27.89,27.89,0,0,1,46.9,380Z"/><polygon class="cls-2" points="75.19 308.49 80.08 360.5 71.5 308.97 75.19 308.49"/><path class="cls-1" d="M2.72,320.35s25.44-8.24,26.07-8.27c2.95-.12,5.23,3.53,5.08,8.17s-2.65,8.49-5.61,8.61C27.41,328.9,2.72,320.35,2.72,320.35Z"/><path class="cls-2" d="M28.29,329.73c-.93,0-14.56-4.65-25.85-8.56L0,320.32l2.46-.79c11.65-3.78,25.67-8.29,26.3-8.31a4.52,4.52,0,0,1,3.47,1.44c1.67,1.65,2.61,4.5,2.51,7.61-.16,5.16-3,9.31-6.44,9.46ZM5.45,320.38c9.32,3.21,21.56,7.37,22.84,7.61,2.44-.16,4.59-3.69,4.72-7.77a8.79,8.79,0,0,0-2-6.33,2.89,2.89,0,0,0-2.07-.94h-.06C27.76,313.2,15.1,317.26,5.45,320.38Z"/><path class="cls-1" d="M30.55,309.6a3.2,3.2,0,0,1,1.82-.09,4.88,4.88,0,0,1,1.73.84,8.43,8.43,0,0,1,2.37,2.92,13.22,13.22,0,0,1,1.22,3.46,20,20,0,0,1,.3,3.61,19,19,0,0,1-.52,3.58,13.24,13.24,0,0,1-1.39,3.38,9.13,9.13,0,0,1-2.45,2.81,4.15,4.15,0,0,1-3.53.82A4.31,4.31,0,0,0,33,329.47a9.81,9.81,0,0,0,1.78-2.76,17.33,17.33,0,0,0,1.38-6.43,16.85,16.85,0,0,0-1-6.49A8.9,8.9,0,0,0,33.44,311,3.91,3.91,0,0,0,30.55,309.6Z"/><path class="cls-2" d="M15.77,318.89S29,314,29.78,315.2,30.21,317.25,15.77,318.89Z"/><path class="cls-2" d="M10,320.63s9.18-1,12.79-1.48,9-1.34,8.77,1.87S26,323.94,10,320.63Z"/><path class="cls-1" d="M157.62,313s-27.15-7.52-27.84-7.51c-3.18,0-5.81,4.22-5.86,9.33s2.5,9.21,5.69,9.16C130.53,324,157.62,313,157.62,313Z"/><path class="cls-2" d="M129.56,324.89a5.11,5.11,0,0,1-3.64-1.63c-1.86-1.85-3-5-2.92-8.47,0-5.69,3-10.19,6.77-10.24h0c.71,0,15.67,4.1,28.1,7.54l2.61.73-2.51,1c-12.43,5-27.44,11-28.35,11.05Zm.18-18.5c-2.62.1-4.85,3.93-4.89,8.42,0,2.92.88,5.66,2.37,7.14a3.36,3.36,0,0,0,2.31,1.09c1.38-.34,15-5.75,25.22-9.89C144.46,310.3,131,306.61,129.74,306.39Z"/><path class="cls-1" d="M128,302.84a4.65,4.65,0,0,0-3.14,1.62,10.79,10.79,0,0,0-1.91,3.06,19.41,19.41,0,0,0-1.46,7.06,19,19,0,0,0,1.08,7.12,9.91,9.91,0,0,0,1.81,3.11,4.24,4.24,0,0,0,3.15,1.55,3.47,3.47,0,0,1-2,0,5.47,5.47,0,0,1-1.85-1,9.54,9.54,0,0,1-2.49-3.21,15.07,15.07,0,0,1-1.26-3.77,22.46,22.46,0,0,1-.32-3.92,21.2,21.2,0,0,1,.54-3.88,15.15,15.15,0,0,1,1.45-3.69,10.2,10.2,0,0,1,2.57-3.1A4.49,4.49,0,0,1,128,302.84Z"/><path class="cls-2" d="M143.57,312.18s-14-4.57-15-3.21S128,311.26,143.57,312.18Z"/><path class="cls-2" d="M149.75,313.74s-9.9-.49-13.77-.84-9.65-.93-9.58,2.61S132.27,318.39,149.75,313.74Z"/><path class="cls-2" d="M115.74,100s7.51.51,11.85,2.27c0,0-6.45,1.83-6.63,3.19l14.1,20-9.19,2.67-11.05-13.59Z"/><path class="cls-2" d="M115,94.36a35,35,0,0,1,12.62,3,33.84,33.84,0,0,0-12.54-.64Z"/><path class="cls-2" d="M115.83,90.53a36,36,0,0,1,9,2.13,35.28,35.28,0,0,0-9,.19Z"/><path class="cls-2" d="M116.66,86.71a37.08,37.08,0,0,1,7.73,2,35.71,35.71,0,0,0-7.75.3Z"/><path class="cls-2" d="M117.5,82.91a36.47,36.47,0,0,1,7,2,36.45,36.45,0,0,0-7.1.29Z"/><path class="cls-2" d="M118.06,79.1a37.41,37.41,0,0,1,7.63,2.29,35.65,35.65,0,0,0-7.73,0Z"/><path class="cls-2" d="M118.62,75.31a36.7,36.7,0,0,1,8.79,2.74,35.73,35.73,0,0,0-8.92-.42Z"/><path class="cls-2" d="M119.19,71.52a36.92,36.92,0,0,1,10.3,3.41A35.46,35.46,0,0,0,119,73.84Z"/><path class="cls-2" d="M119.46,67.72a35.92,35.92,0,0,1,12.46,4.4A34.92,34.92,0,0,0,119.28,70Z"/><path class="cls-2" d="M131.3,60.6a22.51,22.51,0,0,0-5.21.44,12.74,12.74,0,0,0-4.59,1.85l-1.08-2.06a14.51,14.51,0,0,1,5.55-.94A22.45,22.45,0,0,1,131.3,60.6Z"/><path class="cls-2" d="M129.72,56.78a19.7,19.7,0,0,0-8.28,1.76l-.61-2.24A20.74,20.74,0,0,1,129.72,56.78Z"/><path class="cls-2" d="M128.34,53.18a19.79,19.79,0,0,0-6.27,1.17l-.31-2.3A21,21,0,0,1,128.34,53.18Z"/><path class="cls-2" d="M127.07,49.59a17.67,17.67,0,0,0-4.6.87l-.1-2.33A19,19,0,0,1,127.07,49.59Z"/><path class="cls-2" d="M126.48,46.22a13.38,13.38,0,0,0-3.86.53l.11-2.32A14.57,14.57,0,0,1,126.48,46.22Z"/><path class="cls-2" d="M124.08,35.88c1.12,10.87-4.49,57.74-7.79,71l-4.71-1.91L116,80.26l3-26.37,2.84-12.53Z"/><polygon class="cls-1" points="114.61 95.65 113.04 105.37 109.49 104.69 111.13 95.61 114.61 95.65"/><path class="cls-2" d="M35.65,255.15a24.29,24.29,0,0,0,3.1.34,24,24,0,0,0,3.17,0,28.63,28.63,0,0,0,6.37-1.15,28.87,28.87,0,0,1-6.12,2.52,25.77,25.77,0,0,1-3.29.76,27.71,27.71,0,0,1-3.42.35Z"/><path class="cls-2" d="M35.12,258.28a19.35,19.35,0,0,0,4.59-.18,37.09,37.09,0,0,0,4.7-1,44.12,44.12,0,0,0,9.08-3.53,44.41,44.41,0,0,1-8.62,4.85,42.11,42.11,0,0,1-4.72,1.72,22.18,22.18,0,0,1-5.14.92Z"/><path class="cls-2" d="M35.7,261.4l.51.06a4.27,4.27,0,0,0,.62,0,10.79,10.79,0,0,0,1.35-.13c.93-.14,1.87-.35,2.82-.59,1.89-.48,3.78-1.07,5.65-1.71s3.74-1.34,5.58-2.08,3.69-1.51,5.49-2.37c-1.69,1.06-3.43,2-5.19,3s-3.54,1.87-5.35,2.74-3.65,1.69-5.55,2.42c-1,.36-1.93.7-2.94,1a12.92,12.92,0,0,1-1.6.34,7.7,7.7,0,0,1-.87.1h-1Z"/><path class="cls-2" d="M33.9,266.63A18.44,18.44,0,0,1,37.14,265c1.06-.47,2.13-.87,3.2-1.26,2.14-.78,4.29-1.48,6.45-2.15,4.32-1.34,8.66-2.54,13-3.65-4.23,1.56-8.42,3.19-12.55,4.95-2.06.89-4.11,1.8-6.12,2.77-1,.5-2,1-2.94,1.53a16.8,16.8,0,0,0-2.61,1.68Z"/><path class="cls-2" d="M97,243.82a25.13,25.13,0,0,1,23.8,14.12s-.76-21.5.75-24.41,3.94-16.66,10.78-22.8,7.91-19.56,7.91-19.56-3,11.23-12,12.63a6.75,6.75,0,0,0,4,1.16,13.33,13.33,0,0,1-9.93,2.23s3.34,2.64,4.52,2.65c0,0-5.9.87-9.27-.28,0,0,3.88,4.14,5.68,4.63,0,0-8.41-.5-10.81-2.73,0,0,4.2,5.16,6.18,6.13,0,0-8.22-.84-11.71-4.06,0,0,3.55,5,6.74,7,0,0-12-3.93-15.46-7.44,0,0,6.58,7.48,10.71,10.36,0,0-10.43-1.63-15.62-7.44,0,0,5.25,6.91,8.91,9.24,0,0-9.47-2.48-12.1-5.51,0,0,4.62,6.59,9.23,9,0,0-5.42-.61-6.74-1.81l2.09,2.61s-3.93.5-5.52,1.58c0,0,15.25,0,19.64,6.7L95.06,238s11.45,1.34,12.3,2.68A36.5,36.5,0,0,0,97,243.82Z"/><path class="cls-2" d="M38.4,200.14c-1.08,1.25-6.39,10.2-5.77,19.41,0,0,16.08-18.53,20.75-20.63,0,0-15.39,15.39-16.36,26.62l17.24-22.4s-9.92,13.15-10.65,26.57c0,0,8.66-18.19,11.75-20.35C52,214.89,51,228.63,51,228.63s4.86-11,6.26-15.76c0,0-1.7,11.11.8,14.6l2-11.56s.5,9,1.82,10.9l1.66-6.89s.64,5.27,2,6.79l2.59-5.39.47,6.06a6.71,6.71,0,0,0,2.54-2.33s2.5,5.33-14.42,7a17.71,17.71,0,0,0-12.48,6.64s18.81-7.53,26.64-5.38c0,0-22.31,4.5-25.45,10.35,0,0,4,3.54,11.52,2.54l-2.3,3.49s-4.25,3.49-8.34,4-10.17-2.47-10.17-2.47l-4.82-4.63-2.76-4.67-1.46-8.74.1-7.15-.89-4.34-1-3.86,2.25-3.39,5.72-8.75L37.06,201Z"/><path class="cls-2" d="M33,190.82c-4.1,4.92-8.14,12.42-10.83,18.1l-2.41-4A77.3,77.3,0,0,1,33,190.82Z"/><path class="cls-2" d="M35.22,193.35a95.27,95.27,0,0,0-11.54,19.44l-2.43-3.67A81.33,81.33,0,0,1,35.22,193.35Z"/><path class="cls-2" d="M38,195.38c-4.93,6-9.12,14.38-12.18,21.36l-3-3.46A86,86,0,0,1,38,195.38Z"/><path class="cls-2" d="M41.65,196.44a63.54,63.54,0,0,0-8.54,11.23,35.37,35.37,0,0,0-4.67,12.77l-3.69-.77a38,38,0,0,1,6.8-13.06A64.35,64.35,0,0,1,41.65,196.44Z"/><path class="cls-2" d="M30.66,188.22c-4.38,4.94-7.5,10.69-10.58,16.47l-2.36-1.48C21.59,197.9,25.62,192.49,30.66,188.22Z"/><path class="cls-2" d="M29.19,185.77a71.12,71.12,0,0,0-5.62,6.9,77.49,77.49,0,0,0-4.7,7.48l-1.95-1.27a81.22,81.22,0,0,1,5.75-6.95A74.26,74.26,0,0,1,29.19,185.77Z"/><path class="cls-2" d="M29,182.5a82.69,82.69,0,0,0-11.13,14.17l-1.89-1.36A84.3,84.3,0,0,1,29,182.5Z"/><path class="cls-2" d="M29.14,179.29a85,85,0,0,0-12.51,14l-1.82-1.45A86.16,86.16,0,0,1,29.14,179.29Z"/><path class="cls-2" d="M29.32,176.26a86.54,86.54,0,0,0-13.67,13.37l-1.75-1.54A87.91,87.91,0,0,1,29.32,176.26Z"/><path class="cls-2" d="M29.49,173.25a98.9,98.9,0,0,0-14,11.92l-1.6-1.69A100.45,100.45,0,0,1,29.49,173.25Z"/><path class="cls-2" d="M29.66,170.22a123.79,123.79,0,0,0-13.95,10.35l-1.43-1.83A124.51,124.51,0,0,1,29.66,170.22Z"/><path class="cls-2" d="M30.57,166.83A156.17,156.17,0,0,0,16.31,176l-1.25-2A154.52,154.52,0,0,1,30.57,166.83Z"/><path class="cls-2" d="M30.4,164c-4.8,2.47-9.48,5.12-14,8l-1.12-2C20.26,167.71,25.3,165.74,30.4,164Z"/><path class="cls-2" d="M29,161.56c-4.25,2-8.37,4.21-12.42,6.55l-1-2.1C20,164.35,24.47,162.83,29,161.56Z"/><path class="cls-2" d="M27.21,159.08c-3.57,1.6-7,3.39-10.48,5.22l-.88-2.15C19.61,161,23.39,159.94,27.21,159.08Z"/><polygon class="cls-2" points="25.74 156.33 16.63 160.67 15.84 158.48 25.74 156.33"/><polygon class="cls-2" points="24.57 153.4 16.81 156.99 16.11 154.77 24.57 153.4"/><path class="cls-2" d="M29,125.31a38.52,38.52,0,0,0-7.61,7.75,22.44,22.44,0,0,0-4.2,9.51L14.5,142a24.48,24.48,0,0,1,5.85-9.79A39.11,39.11,0,0,1,29,125.31Z"/><path class="cls-2" d="M26.84,132.12a35.38,35.38,0,0,0-6.41,7.11A20.86,20.86,0,0,0,17,147.69l-2.72-.61a22.86,22.86,0,0,1,5.1-8.71A35.72,35.72,0,0,1,26.84,132.12Z"/><path class="cls-2" d="M25.53,138.27a33.51,33.51,0,0,0-5.75,6.7,19.91,19.91,0,0,0-3.09,7.84L14,152.2a21.9,21.9,0,0,1,4.7-8.07A34.36,34.36,0,0,1,25.53,138.27Z"/><path class="cls-2" d="M24.61,144.1a32.49,32.49,0,0,0-5.34,6.41,19.07,19.07,0,0,0-2.84,7.42l-2.72-.61a21.11,21.11,0,0,1,4.45-7.64A32.83,32.83,0,0,1,24.61,144.1Z"/><path class="cls-1" d="M44,254.6a11.39,11.39,0,0,1-7.14-2.29l.87-1.09a10.64,10.64,0,0,0,8.16,1.85,17.07,17.07,0,0,0,11.4-7.27l1.14.8a18.52,18.52,0,0,1-12.34,7.85A15,15,0,0,1,44,254.6Z"/><path class="cls-2" d="M17.44,113.32a36.48,36.48,0,0,1,6.8-4.08,35.57,35.57,0,0,0-4.77,6Z"/><path class="cls-2" d="M24.77,104.3a20.88,20.88,0,0,0-5.31,6.35l-1.89-1.35A22,22,0,0,1,24.77,104.3Z"/><path class="cls-2" d="M25.67,99.72a21.18,21.18,0,0,0-6.57,7l-1.89-1.35A22.4,22.4,0,0,1,25.67,99.72Z"/><path class="cls-2" d="M27.05,95a21,21,0,0,0-8.31,7.85l-1.89-1.35A22.1,22.1,0,0,1,27.05,95Z"/><path class="cls-2" d="M29.59,90.5a11.88,11.88,0,0,0-3.47,1.19,18,18,0,0,0-3,2A20.78,20.78,0,0,0,18.38,99l-1.89-1.34a22.29,22.29,0,0,1,5.94-4.93,18.3,18.3,0,0,1,3.47-1.57A11.71,11.71,0,0,1,29.59,90.5Z"/><path class="cls-2" d="M29,86.9a9.41,9.41,0,0,0-3.34,1.19,20.9,20.9,0,0,0-2.93,2,23.5,23.5,0,0,0-2.59,2.38A14.93,14.93,0,0,0,18,95.11l-1.9-1.33a17.26,17.26,0,0,1,2.8-2.63,25.21,25.21,0,0,1,3.11-2,22,22,0,0,1,3.34-1.55A9.62,9.62,0,0,1,29,86.9Z"/><path class="cls-2" d="M27.27,83.38a14.88,14.88,0,0,0-5.58,3.11,18.65,18.65,0,0,0-4,4.75l-1.9-1.34A20.51,20.51,0,0,1,21,85.54,15.5,15.5,0,0,1,27.27,83.38Z"/><path class="cls-2" d="M25.13,80.11a17.22,17.22,0,0,0-7.82,7.25L15.41,86a19.07,19.07,0,0,1,4.48-3.76A17,17,0,0,1,25.13,80.11Z"/><path class="cls-2" d="M23.15,77A17.61,17.61,0,0,0,17,83.47l-1.9-1.34A18.8,18.8,0,0,1,23.15,77Z"/><path class="cls-2" d="M21.69,73.75a17.43,17.43,0,0,0-5.1,5.84L14.7,78.25A18.28,18.28,0,0,1,21.69,73.75Z"/><path class="cls-2" d="M16.24,64.81s1.73,18,2.39,23.34c2.48,20.16,1.72,29.58-.42,37.33l-.89-10.78L16.25,95.51,14.9,84.65Z"/><path class="cls-2" d="M90.33,172.52C72.72,179,73.77,195.77,78.21,210.74c-9-12.49-5.82-27.11-.76-37C71.77,175,64.2,200.7,62.6,209,61,201.71,67,182.71,67,182.71c-4.37-2.15-31.73,29.86-31.73,29.86,11.38-20.17,25.47-31.3,26-33.29s-3.41-3.29-6.08-3.64S42.67,181,34.68,186.84C40,179.11,49.28,176,50.2,174.11s-2-7.63-4.13-9-7.72,1.94-11.31,4a22.31,22.31,0,0,1,10.46-6.88c-1-.32-6.56,1.12-6.56,1.12s2.65-2.69,5.44-3.28c-1.56-.86-8.37,1.19-11.23,3.36,5.22-6.8,11.79-6.81,11.92-8.17.24-2.53-7.38-5.14-20.63-5,5.26-2.2,12.38-1,16.5-3.4s4.48-18,3.89-21l1.24,0a49.72,49.72,0,0,1,1,7.07c0,2.37-.29,17.51,1.27,23.24S51.67,174,65.66,173.5c0,0,10.06.63,11.74-10,0,0-1.1,6.11,6.53,7.63l6.41.19Z"/><path class="cls-1" d="M14.58,138.16c-1,13.35-1.18,41.48-.56,53.44s8.77,23.87,10.2,30.7c1.75,8.38-2.8,19.43,10.83,30.88l-.78,18.93c1.14-.4,2.31-.76,3.5-1.05l.73-17.74.07-1.7-1.3-1.09c-8.89-7.47-9-14.49-9.08-21.28a39.31,39.31,0,0,0-.59-7.66c-.6-2.9-2.11-6.25-3.85-10.13-2.77-6.17-5.91-13.16-6.27-20-.61-11.48-.45-39.25.55-53S17.76,96.11,16.77,89c-.94-6.74-1-12.43-.38-27.68.77-18.68,3.85-28.58,9.16-29.42a9,9,0,0,1,1.67-.13,5.49,5.49,0,0,1,4.22,1.8c2.86,3,4.24,10,3.77,19.12a82.8,82.8,0,0,0,2.15,22.21c.43,2.05.79,3.81,1,5.31.22,1.79.33,4.44.45,7.24.32,7.71.67,13.42,2.24,16.67l1.1,2.27,2.5-.36L112,96.3l2.53-.36L115,93.4c0-.22,3.46-22.49,4.83-31.81.63-4.27,1.69-8.81,2.63-12.81,1.16-5,2.16-9.23,2.3-12.47,0-.6,0-1.38,0-2.38.06-4.21.17-12,1.64-18.77,1-4.77,3.14-10.51,7.17-10.75a8.29,8.29,0,0,1,.86,0h0a8.66,8.66,0,0,1,6.43,2.79c4.49,4.67,6.73,15.07,6.33,29.28-.66,23.35-3.16,43.19-7.44,59a116.2,116.2,0,0,0-3.55,35.72l.1,1.28.91.9c3.77,3.72,14,14.52,15.89,19.72,1.56,4.18,1.3,12.56-8.77,28.75a42.74,42.74,0,0,0-5.43,13.33,30.26,30.26,0,0,1-2.8,7.78c-1.34,2.45-3.08,5-4.92,7.67-3.3,4.83-6.71,9.81-8.51,15.21-2.32,6.93-4.37,15.37-2.47,34.71,1.16,0,2.32-.06,3.47-.06-1.87-18.61,0-26.64,2.28-33.56,2.61-7.82,9.32-15.28,13.18-22.3s2.52-11.91,8.14-21,12.52-22.52,9.07-31.79c-2.63-7.05-16.69-21-16.69-21a113.67,113.67,0,0,1,3.44-34.53c4.8-17.7,7-38.73,7.56-59.79.58-20.43-4.1-35.46-16.17-35.62-.37,0-.74,0-1.12,0-12.9.77-11.87,29.7-12.1,35.2s-3.51,15.52-4.89,24.93-4.83,31.79-4.83,31.79l-67.4,9.68c-2.06-4.27-1.66-17-2.37-22.82S38,65.39,38.67,52.82c.59-11.72-1.53-24.43-11.4-24.56a14,14,0,0,0-2.27.17c-8.69,1.39-11.34,15.24-12.07,32.69-.61,14.93-.59,21.06.41,28.3S15.54,124.86,14.58,138.16Z"/><path class="cls-2" d="M75.57,104.54c-.11-.83-.18-1.59-.21-2.33l1.38-.1c.08.69.15,1.46.21,2.29Z"/><path class="cls-2" d="M17.61,64.17a7.27,7.27,0,0,1,2.64-2.28,16.63,16.63,0,0,1,3.23-1.36,16.8,16.8,0,0,1,3.43-.68,9.32,9.32,0,0,1,3.49.25,19.8,19.8,0,0,0-3.38.47c-1.1.24-2.2.51-3.27.85a32.39,32.39,0,0,0-3.18,1.12A12.42,12.42,0,0,0,17.61,64.17Z"/><path class="cls-2" d="M20.75,64.87A7.13,7.13,0,0,1,23.83,63a17.74,17.74,0,0,1,3.53-.82A18.91,18.91,0,0,1,31,62a10.41,10.41,0,0,1,3.53.74,26,26,0,0,0-3.53,0c-1.17.08-2.34.17-3.49.33s-2.31.34-3.45.6A11.24,11.24,0,0,0,20.75,64.87Z"/><path class="cls-2" d="M131,30.89a9.65,9.65,0,0,1,3.5-.68,14.17,14.17,0,0,1,3.56.37,14.83,14.83,0,0,1,3.37,1.25,9.15,9.15,0,0,1,2.81,2.2,19.12,19.12,0,0,0-3.11-1.54,23.41,23.41,0,0,0-3.28-1,24.07,24.07,0,0,0-3.38-.56A21.11,21.11,0,0,0,131,30.89Z"/><path class="cls-2" d="M126.77,34.43a19.13,19.13,0,0,1,10-.54,18.46,18.46,0,0,1,9,4.41,29.14,29.14,0,0,0-9.16-3.5,30.42,30.42,0,0,0-4.86-.58A31.65,31.65,0,0,0,126.77,34.43Z"/><path class="cls-2" d="M37.89,87.35a12.43,12.43,0,0,0-5.14-.89,24.42,24.42,0,0,0-5.18.59,23.62,23.62,0,0,0-5,1.63A28,28,0,0,0,18,91.32,16.69,16.69,0,0,1,22.29,88a19.27,19.27,0,0,1,10.49-2.29,13.65,13.65,0,0,1,2.68.45A7.57,7.57,0,0,1,37.89,87.35Z"/><path class="cls-2" d="M38.1,119.06a19,19,0,0,0-5.31,1.11,30.57,30.57,0,0,0-4.92,2.21,26.45,26.45,0,0,0-4.45,3,16,16,0,0,0-3.51,4.11,11.85,11.85,0,0,1,3-4.64,20,20,0,0,1,4.49-3.32,22.86,22.86,0,0,1,5.16-2.08A13.23,13.23,0,0,1,38.1,119.06Z"/><path class="cls-2" d="M50.35,242.85a80.47,80.47,0,0,1,12.55-4.4c2.14-.6,4.31-1.08,6.47-1.57s4.36-.84,6.55-1.2a101.81,101.81,0,0,1,13.28-1.24c1.11,0,2.22-.06,3.34,0s2.23.08,3.34.21l1.66.18,1.65.3a23.88,23.88,0,0,1,3.22.86l-1.65-.21a11.22,11.22,0,0,0-1.64-.14l-1.64-.09H95.83c-1.09,0-2.18,0-3.28.1s-2.19.13-3.28.22-2.18.21-3.27.31-2.18.24-3.27.39-2.18.26-3.26.43-2.18.3-3.26.49c-4.34.66-8.66,1.47-13,2.35S54.64,241.71,50.35,242.85Z"/><path class="cls-2" d="M59.07,247.16a53.76,53.76,0,0,1,7.8-3.26c2.66-.92,5.37-1.7,8.11-2.38A75.3,75.3,0,0,1,83.3,240a37.28,37.28,0,0,1,4.23-.32,16.85,16.85,0,0,1,2.13.07,11.51,11.51,0,0,1,2.1.35,16.29,16.29,0,0,0-2.1,0c-.35,0-.69,0-1,.08l-1,.14c-.68.07-1.37.21-2.06.33s-1.37.25-2,.38q-4.09.84-8.16,1.85c-2.72.65-5.42,1.36-8.13,2.06S61.78,246.36,59.07,247.16Z"/><path class="cls-2" d="M97.21,247.67a11.45,11.45,0,0,1,5.55-.08,19.7,19.7,0,0,1,5.25,2,23.68,23.68,0,0,1,8.25,7.37,46.8,46.8,0,0,0-4.14-3.6,35.44,35.44,0,0,0-4.55-3,25.57,25.57,0,0,0-5-2.08A15,15,0,0,0,97.21,247.67Z"/><path class="cls-2" d="M84,184a24.25,24.25,0,0,0,5.43,8.31,28.68,28.68,0,0,0,8.26,5.37c3,1.42,6.21,2.57,9.25,4.15a25.28,25.28,0,0,1,4.34,2.76,15.41,15.41,0,0,1,3.41,3.8,22.79,22.79,0,0,0-8.22-5.58c-3.06-1.34-6.26-2.43-9.37-3.86a35.62,35.62,0,0,1-4.51-2.51,21.87,21.87,0,0,1-3.94-3.37,18.67,18.67,0,0,1-2.93-4.26A22.64,22.64,0,0,1,84,184Z"/><path class="cls-2" d="M82,190.39a20.56,20.56,0,0,0,4.24,6.52,35.69,35.69,0,0,0,6,4.91c2.15,1.48,4.42,2.83,6.63,4.31a25.81,25.81,0,0,1,6.07,5.19,46.8,46.8,0,0,0-6.64-4.26c-2.3-1.28-4.62-2.59-6.84-4.09a27.73,27.73,0,0,1-6-5.35A15.62,15.62,0,0,1,82,190.39Z"/><path class="cls-2" d="M80,196.73a18.87,18.87,0,0,0,3,5c1.19,1.53,2.45,3,3.78,4.42s2.68,2.82,4.07,4.19a46.71,46.71,0,0,0,4.39,3.89,19.25,19.25,0,0,1-5.11-3.07,40,40,0,0,1-4.38-4.06,32.55,32.55,0,0,1-3.65-4.75,13,13,0,0,1-.74-1.31,11.38,11.38,0,0,1-.64-1.37A8.73,8.73,0,0,1,80,196.73Z"/><path class="cls-2" d="M109.08,165a14.89,14.89,0,0,1,7.7,3.22c1.14.82,2.21,1.73,3.27,2.63l3.07,2.77a20.58,20.58,0,0,0,7,3.73,46.78,46.78,0,0,0,8,1.82,27.3,27.3,0,0,1-8.33-.79,18.6,18.6,0,0,1-7.66-3.71c-1.07-.95-2-1.9-3-2.83s-2-1.86-3.06-2.75A18.93,18.93,0,0,0,109.08,165Z"/><path class="cls-2" d="M105.5,168.61a40,40,0,0,0,4.17,4.17,45.72,45.72,0,0,0,9.73,6.38,39,39,0,0,0,5.49,2.13,17.7,17.7,0,0,1-5.91-1.13,25.36,25.36,0,0,1-5.41-2.71,26.68,26.68,0,0,1-4.65-3.88A18.16,18.16,0,0,1,105.5,168.61Z"/><path class="cls-2" d="M103.83,176c.75,1,1.49,2,2.29,2.94a25.81,25.81,0,0,0,2.54,2.58,18.15,18.15,0,0,0,2.9,2.1,21.06,21.06,0,0,0,3.36,1.53,9.69,9.69,0,0,1-7.18-2.58,13.21,13.21,0,0,1-2.5-3A10.35,10.35,0,0,1,103.83,176Z"/><path class="cls-2" d="M109.35,151.76a4.72,4.72,0,0,0,1.85.8c.37.07.76.13,1.14.18s.79.08,1.19.09a24.65,24.65,0,0,0,4.83-.34,29.3,29.3,0,0,0,4.76-1.18,18,18,0,0,0,4.43-2.15,18.27,18.27,0,0,1-4.26,2.58,30.25,30.25,0,0,1-4.74,1.66,25.32,25.32,0,0,1-5,.82c-.43,0-.86,0-1.29,0l-1.33-.09a6.15,6.15,0,0,1-2.74-1Z"/><path class="cls-2" d="M115.38,161.62c-2.53-2.24-7.11-5.09-10.73-4.32a10.81,10.81,0,0,1,6.79,5.21s-4.83-2.37-7.41-1.62c0,0,3.37,2.35,3.46,3.4a32.41,32.41,0,0,0-4.11-.84,11.16,11.16,0,0,1,1.14,3.68L102,166l.43,2.57-3.2-1.21s3.58-5.27,3.66-10.23-.21-12-.21-12,9.31,12.05,12.93,14.93Z"/><path class="cls-2" d="M125,171.12a25.61,25.61,0,0,0,4.35.62,22.62,22.62,0,0,0,4.28-.21,24.08,24.08,0,0,0,4.17-1,15.83,15.83,0,0,0,3.92-1.92,8.82,8.82,0,0,1-3.5,2.92,14.3,14.3,0,0,1-4.39,1.37,14,14,0,0,1-4.61-.1A11,11,0,0,1,125,171.12Z"/><path class="cls-2" d="M30.47,387.11,28.61,387,34.1,253.59C24,244.93,23.9,236.28,23.81,229.31a37.56,37.56,0,0,0-.5-6.82,52.57,52.57,0,0,0-3.57-9.23c-2.78-6.2-6.24-13.91-6.65-21.62-.6-11.59-.44-39.64.56-53.54,1-13.48-.26-41.54-1.23-48.55-1-7.53-1-14-.41-28.47.61-14.77,2.62-31.93,12.85-33.57A10.53,10.53,0,0,1,34,29.87c5.36,4.81,6,15.16,5.61,23A77.93,77.93,0,0,0,41.66,74c.44,2.14.82,4,1,5.67.24,2,.35,4.7.47,7.59.21,5.08.47,11.32,1.55,14.32l66-9.48c.59-3.83,3.49-22.73,4.72-31.11.65-4.45,1.74-9.08,2.7-13.17,1.11-4.74,2.06-8.82,2.18-11.66,0-.54,0-1.3.05-2.25.12-9,.45-33.09,12.93-33.84a13.16,13.16,0,0,1,10.33,3.72c7.13,6.91,8.25,21.67,7.94,32.83-.67,23.7-3.23,43.89-7.59,60a114,114,0,0,0-3.44,33.88c2,2,14.15,14.33,16.66,21.06,2.77,7.42-.31,18.39-9.15,32.6a38.49,38.49,0,0,0-4.91,12.1,34.54,34.54,0,0,1-3.2,8.81c-1.45,2.63-3.25,5.26-5.15,8-3.13,4.58-6.36,9.31-8,14.12-2.57,7.67-4.6,16.58-1.3,41.06,2,14.67,6.73,55.52,10.37,87.21,1.62,14.08,2.94,25.73,3.56,31.16l-1.85.21c-.61-5.43-1.94-17.08-3.56-31.16-3.64-31.68-8.39-72.51-10.37-87.17-3.35-24.88-1.26-34,1.38-41.9,1.7-5.06,5-9.9,8.21-14.58,1.87-2.73,3.64-5.32,5.05-7.88a32.87,32.87,0,0,0,3-8.37,40,40,0,0,1,5.13-12.62c8.52-13.7,11.54-24.12,9-31s-16.34-20.5-16.48-20.64l-.24-.24,0-.34a115.75,115.75,0,0,1,3.47-34.85c4.33-16,6.86-36,7.53-59.57.44-15.47-2.11-26.35-7.38-31.44a11.33,11.33,0,0,0-8.92-3.21c-10.76.65-11.08,24.26-11.18,32,0,1,0,1.76,0,2.31-.13,3-1.1,7.18-2.23,12-1,4.06-2,8.65-2.67,13-1.37,9.31-4.79,31.58-4.83,31.8l-.1.68-68.76,9.88L43.3,103c-1.47-3-1.75-9.75-2-15.68-.11-2.85-.23-5.54-.46-7.44-.19-1.6-.57-3.41-1-5.51a80.48,80.48,0,0,1-2.1-21.57c.31-6.08.07-17-5-21.52-2-1.78-4.45-2.4-7.58-1.9-6.85,1.09-10.43,11.2-11.29,31.81-.59,14.34-.62,20.75.4,28.13,1,7.08,2.23,35.36,1.25,48.94-1,13.84-1.16,41.77-.56,53.32.39,7.35,3.77,14.89,6.49,20.94a53.64,53.64,0,0,1,3.69,9.62,38.41,38.41,0,0,1,.54,7.18c.09,7,.2,15,10,23.18l.35.29,0,.46Z"/><path class="cls-2" d="M133.7,104.08a11.84,11.84,0,0,0-3.77-2.47,28.16,28.16,0,0,0-4.31-1.4c-1.47-.38-3-.66-4.47-.93l-4.56-.78a31.42,31.42,0,0,1,9.26.81,18.77,18.77,0,0,1,4.39,1.65A8.84,8.84,0,0,1,133.7,104.08Z"/><path class="cls-2" d="M127.18,67.2a19.55,19.55,0,0,0,3.33,1.21c1.13.32,2.28.58,3.44.8,2.31.49,4.65.83,7,1.32a20.73,20.73,0,0,1-3.61.06,25.76,25.76,0,0,1-3.59-.47,19.27,19.27,0,0,1-3.48-1A9.5,9.5,0,0,1,127.18,67.2Z"/><path class="cls-2" d="M141.62,68.45a7.28,7.28,0,0,0-2.2-1.59,18.82,18.82,0,0,0-2.52-1,32,32,0,0,0-5.32-1.1,33.82,33.82,0,0,0-5.42-.24,18.62,18.62,0,0,0-2.69.31,8.19,8.19,0,0,0-2.56.92,9.55,9.55,0,0,1,5.19-2,23.32,23.32,0,0,1,5.6,0,23.79,23.79,0,0,1,5.44,1.34,14.13,14.13,0,0,1,2.51,1.28A6.53,6.53,0,0,1,141.62,68.45Z"/><path class="cls-2" d="M26.72,283a10.49,10.49,0,0,1,3.41-7.16c9.69-8.78,30.23-16.2,46-18.49,16.53-2.4,39.47-1.48,53.8,9.34a9.26,9.26,0,0,1,3.61,6.36c1.42,12.77,6,55.23,4.71,62.67-1.48,8.78-4.6,8.53-4.6,8.53s3.22-7.29-5.91-13.7-22.12-11.61-45.56-11.92S37.16,327,31.64,336l-.47,11.52S26.75,345.9,26.1,342C24.26,330.76,26.07,294.65,26.72,283Z"/><path class="cls-1" d="M135.61,339.28a10.88,10.88,0,0,0-.45-3.68,14.83,14.83,0,0,0-1.43-3.41,19.3,19.3,0,0,0-4.87-5.47,36.2,36.2,0,0,0-6.16-4.09c-1.07-.61-2.2-1.1-3.31-1.63s-2.28-1-3.45-1.36c-.59-.2-1.16-.42-1.75-.61l-1.78-.54c-1.17-.39-2.38-.65-3.57-1s-2.42-.55-3.63-.8-2.44-.46-3.66-.63a129,129,0,0,0-14.83-1.4,100.14,100.14,0,0,0-29.53,2.76,70.87,70.87,0,0,0-14,5,43,43,0,0,0-6.43,3.75,27.08,27.08,0,0,0-2.88,2.35,17.38,17.38,0,0,0-2.48,2.8,21,21,0,0,1,5.06-5.54,43.32,43.32,0,0,1,6.31-4.17,71.44,71.44,0,0,1,14-5.6,88.2,88.2,0,0,1,14.86-2.85,104.62,104.62,0,0,1,15.12-.37,124.61,124.61,0,0,1,15,1.51,71.5,71.5,0,0,1,14.62,3.94c1.19.43,2.33,1,3.49,1.5s2.28,1.13,3.36,1.8a36.75,36.75,0,0,1,6.18,4.41,19.33,19.33,0,0,1,4.72,5.95A12.9,12.9,0,0,1,135.61,339.28Z"/><path class="cls-1" d="M75.21,259.08s-6,27.58-6,28.26c.19,3.18,4.32,5.52,9.23,5.23s8.74-3.11,8.55-6.28C87,285.37,75.21,259.08,75.21,259.08Z"/><path class="cls-1" d="M66.8,289.3a4.55,4.55,0,0,0,1.68,3,10.09,10.09,0,0,0,3,1.72,18.16,18.16,0,0,0,6.94,1,17.88,17.88,0,0,0,6.82-1.61,9.56,9.56,0,0,0,2.86-2,4.34,4.34,0,0,0,1.27-3.18,4.23,4.23,0,0,1-.6,3.8,9.4,9.4,0,0,1-2.9,2.72,14.47,14.47,0,0,1-3.57,1.55,20.45,20.45,0,0,1-3.8.6,19.64,19.64,0,0,1-3.83-.27A13.89,13.89,0,0,1,71,295.38a9.54,9.54,0,0,1-3.15-2.4A4.38,4.38,0,0,1,66.8,289.3Z"/><path class="cls-2" d="M75.07,273.15s-3.75,14.3-2.4,15.16S74.89,288.72,75.07,273.15Z"/><path class="cls-2" d="M76.29,266.88s0,9.9-.18,13.79-.46,9.68,2.94,9.38S81.55,284,76.29,266.88Z"/><path class="cls-1" d="M109.49,104.69c-1.31,6.65-8.19,24.57-6.7,42.67S99,171,89,171.38s-12.16-5.77-12.16-5.77a27.17,27.17,0,0,0,.54-3.13c.72-7.71-2.2-17.59-1.15-23.34,1.19-6.5,1-20.34.39-30.2a39,39,0,0,0-.28-4.2l0-.28c-.06-.83-.14-1.59-.21-2.28v0c-.63-11.09,4-18.85,9.37-22a13.86,13.86,0,0,1,7.18-1.82l5.67.08a10.6,10.6,0,0,1,8.63,4.64,42.73,42.73,0,0,1,4.63,9.79S111,97,109.49,104.69Z"/><path class="cls-2" d="M82.39,86.33c-1.87,4.46-2,21.9.89,27.05s-4.65,1.82-4.65,1.82L78,102.86l-.2-6.14Z"/><path class="cls-1" d="M76.05,102.18c.07.69.15,1.45.21,2.28l0,.28a39,39,0,0,1,.28,4.2c.21,3.44.37,7.36.44,11.29a5.7,5.7,0,0,1,.9-.33,6.18,6.18,0,0,1,2.55-.13c-.08-3.83-.23-7.62-.43-11a43.74,43.74,0,0,0-.31-4.47v0c0-.06,0-.11,0-.17-.06-.73-.12-1.47-.2-2.21-.39-7.11,1.59-12.31,4.15-15.57a6.5,6.5,0,0,1-1.74-3.29c-3.69,4-6.35,10.55-5.86,19.1Z"/><path class="cls-2" d="M88.15,172.32c-9.92,0-12.15-6.14-12.24-6.41l-.09-.28.07-.27c.1-.34.44-2.15.51-2.72v0l0-.22a59.47,59.47,0,0,0-.68-12c-.53-4.28-1-8.33-.46-11.39,1.13-6.19,1-19.51.37-30a37.38,37.38,0,0,0-.28-4.15l0-.28c-.07-.86-.14-1.61-.21-2.3v-.09C74.43,90,80,82.28,85,79.39a14.61,14.61,0,0,1,7.43-2h.22l5.67.07a11.55,11.55,0,0,1,9.39,5,43.18,43.18,0,0,1,4.75,10l.06.2,0,.2s-.55,4.25-2.06,11.87h0c-.3,1.52-.86,3.54-1.57,6.09-2.34,8.39-6.25,22.43-5.11,36.32.84,10.25-.39,16.84-3.87,20.75-2.42,2.71-6,4.11-10.87,4.28Zm-10.39-6.79c.48,1,2.94,5.2,11.16,4.92,4.42-.15,7.45-1.31,9.54-3.66,3.08-3.45,4.19-9.79,3.41-19.36-1.17-14.22,2.8-28.46,5.17-37,.67-2.41,1.25-4.5,1.54-5.95,1.31-6.62,1.88-10.62,2-11.54a41.69,41.69,0,0,0-4.46-9.36,9.65,9.65,0,0,0-7.88-4.23l-5.67-.08A12.93,12.93,0,0,0,85.89,81c-4.51,2.63-9.56,9.74-8.91,21.12.07.67.14,1.44.21,2.27l0,.25a40.67,40.67,0,0,1,.29,4.3c.63,10.53.75,24-.41,30.38-.5,2.78,0,6.69.48,10.83a60,60,0,0,1,.69,12.43h0A18.87,18.87,0,0,1,77.76,165.53Z"/><path class="cls-2" d="M87.31,165.59c-4.52,0-8.76-1.13-9.88-2.77l-.17-.24.06-.3c.11-.48,2.67-11.94,7.79-14.13a4.68,4.68,0,0,1,4.48.45c4.65,2.83,6.35,8.81,7,12.12a3.38,3.38,0,0,1-2.26,3.83A22.15,22.15,0,0,1,87.31,165.59Zm-8.55-3.34c1.63,1.54,9.29,2.95,15.07,1A2,2,0,0,0,95.16,161c-.55-3.08-2.11-8.64-6.3-11.18a3.31,3.31,0,0,0-3.2-.36C81.63,151.15,79.22,160.37,78.76,162.25Z"/><path class="cls-2" d="M79.92,149.2a11.13,11.13,0,0,1,4-1.37,21.78,21.78,0,0,1,8.31.24,10.68,10.68,0,0,1,3.87,1.55,31.07,31.07,0,0,0-4-.47c-1.34-.1-2.68-.16-4-.2s-2.67-.07-4,0A35.26,35.26,0,0,0,79.92,149.2Z"/><path class="cls-2" d="M85.31,84.49a7.2,7.2,0,0,1,3.49-2.14,15.65,15.65,0,0,1,4.07-.65,23.12,23.12,0,0,1,4.08.24,17.8,17.8,0,0,1,4,1c-1.35-.13-2.69-.24-4-.3s-2.66-.1-4,0a24.49,24.49,0,0,0-3.92.43A10.06,10.06,0,0,0,85.31,84.49Z"/><path class="cls-2" d="M91.91,85.3a17.88,17.88,0,0,0,2.9.27c1,0,1.92,0,2.89,0s1.93,0,2.9,0,1.94,0,2.94-.09a11.08,11.08,0,0,1-2.87.82,21,21,0,0,1-3,.25,16.56,16.56,0,0,1-3-.23A7.43,7.43,0,0,1,91.91,85.3Z"/><path class="cls-2" d="M81.31,151.47c-1.29,2-3.41,2.31-3.13-2.08s4.76-6.28,10.57-5.89,13.55,1.54,13.31,11.34l.94.06-.38-14s.3-9.68,1.18-11.43-14.41-2.76-14.41-2.76L77,127.31s-.13,11.17-1,13.12c0,0,.51,12.51,1.16,14.48s.19,7.14.19,7.14l-.58,3.56s1.37,5.1,10.9,5.78c0,0,1.76-.95,0-.95-2.31.06-6.84-1.37-6.39-3.3s4.47-1.36,4.47-1.36-7.08-1.66-7.78-3.35,3-8.5,3-8.5l1.11-2Z"/><path class="cls-1" d="M117,264.21s-18.61,22.69-18.9,23.34c-1.34,3,1.31,6.91,5.91,8.76s9.43.91,10.77-2.08C115.13,293.36,117,264.21,117,264.21Z"/><path class="cls-1" d="M94.9,288.29a4.52,4.52,0,0,0,.11,3.48,9.47,9.47,0,0,0,2,2.94A17.54,17.54,0,0,0,103,298.6a18,18,0,0,0,7,1.4,10,10,0,0,0,3.5-.66A4.7,4.7,0,0,0,116,297a4.51,4.51,0,0,1-2.23,3.2,9.66,9.66,0,0,1-3.83,1.28,14.12,14.12,0,0,1-4-.07,20.47,20.47,0,0,1-3.77-1.05,20.9,20.9,0,0,1-3.43-1.9,14,14,0,0,1-2.86-2.73,9.41,9.41,0,0,1-1.8-3.62A4.38,4.38,0,0,1,94.9,288.29Z"/><path class="cls-2" d="M110.13,277s-10.24,11.5-9.42,12.87S102.55,291.23,110.13,277Z"/><path class="cls-2" d="M114.23,271.82s-4.74,9.07-6.74,12.56-5,8.68-1.8,9.86S110.85,289.77,114.23,271.82Z"/><path class="cls-1" d="M151.64,281s-26,10.82-26.55,11.25c-2.48,2-2,6.9,1.14,11s7.64,5.72,10.12,3.72C137.07,306.36,151.64,281,151.64,281Z"/><path class="cls-2" d="M133.79,308.71a7,7,0,0,1-.78,0c-2.6-.31-5.41-2.13-7.52-4.87-3.46-4.52-3.89-9.89-1-12.24.53-.43,14.85-6.42,26.78-11.38l2.51-1-1.36,2.35c-6.69,11.63-14.8,25.61-15.51,26.17A4.88,4.88,0,0,1,133.79,308.71ZM125.63,293c-2,1.69-1.4,6.08,1.33,9.64,1.78,2.32,4.18,3.92,6.27,4.17a3.41,3.41,0,0,0,2.49-.57c.88-1.12,8.24-13.75,13.76-23.34C139.63,287,126.72,292.44,125.63,293Z"/><path class="cls-1" d="M122.06,291.29a4.68,4.68,0,0,0-1.47,3.22,11.09,11.09,0,0,0,.38,3.58,19.63,19.63,0,0,0,3.2,6.46,18.86,18.86,0,0,0,5.25,4.94,9.89,9.89,0,0,0,3.34,1.34,4.22,4.22,0,0,0,3.43-.73,3.38,3.38,0,0,1-1.53,1.24,5.56,5.56,0,0,1-2,.38,9.45,9.45,0,0,1-3.94-1,15.12,15.12,0,0,1-3.32-2.18,22.67,22.67,0,0,1-2.66-2.89,20.89,20.89,0,0,1-2-3.4,15,15,0,0,1-1.14-3.79,10.15,10.15,0,0,1,.12-4A4.52,4.52,0,0,1,122.06,291.29Z"/><path class="cls-2" d="M140.08,289.06s-13.87,5.05-13.78,6.71S127.27,297.91,140.08,289.06Z"/><path class="cls-2" d="M145.91,286.47s-8.1,5.72-11.36,7.83-8.17,5.22-5.93,8S135,300.9,145.91,286.47Z"/><path class="cls-1" d="M38.83,272.17s19.18,17.34,19.56,18c1.75,3-.09,7.08-4.12,9.12s-8.7,1.25-10.45-1.75C43.32,296.66,38.83,272.17,38.83,272.17Z"/><path class="cls-1" d="M61.48,290.81a4.68,4.68,0,0,1,1.41,3.46,8,8,0,0,1-1,3.77,11.42,11.42,0,0,1-2.37,3,15.68,15.68,0,0,1-3.13,2.18,15.14,15.14,0,0,1-3.59,1.25,12.06,12.06,0,0,1-3.84.17,8.48,8.48,0,0,1-3.66-1.27,4.89,4.89,0,0,1-2.19-3,5.37,5.37,0,0,0,2.55,2.18,8.79,8.79,0,0,0,3.33.66,14.43,14.43,0,0,0,6.56-1.62,13.83,13.83,0,0,0,5.15-4.39A7.91,7.91,0,0,0,62,294.11,5,5,0,0,0,61.48,290.81Z"/><path class="cls-2" d="M45.35,279.89s11.49,11.35,10.94,12.76S54.79,294.07,45.35,279.89Z"/><path class="cls-2" d="M40.66,274.71s5.92,9.07,8.37,12.55,6.14,8.67,3.29,10S46.75,292.86,40.66,274.71Z"/><path class="cls-1" d="M8,292.42s26.19,5.37,26.76,5.66c2.63,1.35,2.81,5.65.39,9.61s-6.49,6.08-9.12,4.73C25.25,312,8,292.42,8,292.42Z"/><path class="cls-2" d="M27.79,313.69a4.78,4.78,0,0,1-2.18-.5C24.86,312.81,15.26,302,7.33,293l-1.71-1.94,2.53.52c12,2.46,26.43,5.45,27,5.73a4.63,4.63,0,0,1,2.32,3,10.4,10.4,0,0,1-1.58,7.87C33.77,311.59,30.56,313.69,27.79,313.69Zm-1.33-2c2.2,1.06,5.81-1,7.94-4.44,1.35-2.23,1.88-4.72,1.38-6.5a3,3,0,0,0-1.39-1.87c-1.09-.33-14.11-3-24-5.08C16.86,301.18,25.47,310.83,26.46,311.68Z"/><path class="cls-1" d="M37.49,296.78a3.19,3.19,0,0,1,1.63.83,5,5,0,0,1,1.1,1.58,8.67,8.67,0,0,1,.62,3.71,13.29,13.29,0,0,1-.65,3.61,19.27,19.27,0,0,1-1.52,3.29,19.06,19.06,0,0,1-2.22,2.86,13.15,13.15,0,0,1-2.87,2.25,9.2,9.2,0,0,1-3.52,1.24,4.19,4.19,0,0,1-3.48-1,4.32,4.32,0,0,0,3.22.15,9.6,9.6,0,0,0,2.92-1.53,17.36,17.36,0,0,0,4.36-4.91,16.81,16.81,0,0,0,2.33-6.14,8.61,8.61,0,0,0-.08-3.28A3.92,3.92,0,0,0,37.49,296.78Z"/><path class="cls-2" d="M20.06,297.59s13.86,2.25,14,3.69S33.43,303.27,20.06,297.59Z"/><path class="cls-2" d="M14.17,296.25s8.46,3.69,11.85,5,8.47,3.26,6.71,6S26.47,307,14.17,296.25Z"/><path class="cls-2" d="M68.69,329.34s6.6,39.06.5,55.33c0,0-2-19.34-2-23S68.69,329.34,68.69,329.34Z"/><path class="cls-1" d="M63.19,86.81a15.33,15.33,0,0,0-6.25.36c-11.74,3.12-13.35,17-13.44,23.53-.1,7.12,2.73,14.92,3.28,21.42s-3.56,42.73,18.88,41.38c19.27-1.15,8.66-24.3,10.52-34.49s.29-38.39-.77-41.07C74.45,95.52,71.62,88.14,63.19,86.81Z"/><path class="cls-2" d="M51.55,160.09a24.89,24.89,0,0,1,1.88-6.81,14.82,14.82,0,0,1,4.28-5.67,10.9,10.9,0,0,1,6.53-2.31,17.4,17.4,0,0,1,6.55,1.31,16.86,16.86,0,0,0-6.46-.38A9.52,9.52,0,0,0,59,149,12.56,12.56,0,0,0,56,154.26a21.82,21.82,0,0,0-.78,6.08Z"/><path class="cls-2" d="M50.38,154.39a15.87,15.87,0,0,1,1.94-4.52,20.55,20.55,0,0,1,2.9-3.77A14.53,14.53,0,0,1,59,143.25a8.7,8.7,0,0,1,4.51-1,8.3,8.3,0,0,0-4.22,1.49,13.15,13.15,0,0,0-3.17,3.1,19.23,19.23,0,0,0-2.24,3.81,14.61,14.61,0,0,0-1.18,4.07Z"/><path class="cls-2" d="M49.7,147.71a17.22,17.22,0,0,1,5-6.28,12.2,12.2,0,0,1,3.49-1.89,9.62,9.62,0,0,1,3.86-.48,9.37,9.37,0,0,0-3.63,1,11.32,11.32,0,0,0-3,2.22,15.53,15.53,0,0,0-3.62,6.26Z"/><path class="cls-2" d="M48.81,143.15a19.09,19.09,0,0,1,5.24-5.6,13.34,13.34,0,0,1,3.39-1.71,9.33,9.33,0,0,1,3.69-.45,8.85,8.85,0,0,0-3.47,1,12.27,12.27,0,0,0-2.87,2.07,17.29,17.29,0,0,0-3.92,5.77Z"/><path class="cls-2" d="M49.62,136.82a18.93,18.93,0,0,1,4.85-3.7,13.53,13.53,0,0,1,2.8-1.12,8.14,8.14,0,0,1,2.94-.28,9.84,9.84,0,0,0-5.1,2.37,17.08,17.08,0,0,0-3.65,4.15Z"/><path class="cls-2" d="M50.32,131.13a15.2,15.2,0,0,1,4.25-2.49,10,10,0,0,1,4.71-.6,9.24,9.24,0,0,0-4.18,1.64A13.14,13.14,0,0,0,52,132.75Z"/><path class="cls-2" d="M49.83,127.23a13.87,13.87,0,0,1,4.05-2.36,9.44,9.44,0,0,1,4.47-.5,8.76,8.76,0,0,0-4,1.54,12,12,0,0,0-2.89,2.92Z"/><path class="cls-2" d="M48,124.37a16.47,16.47,0,0,1,4.43-2.88,9.93,9.93,0,0,1,5-.79A9.35,9.35,0,0,0,53,122.51a14.45,14.45,0,0,0-3.26,3.41Z"/><path class="cls-2" d="M47.33,120.68a18.87,18.87,0,0,1,4.28-2.79A9.13,9.13,0,0,1,56.5,117a8.63,8.63,0,0,0-4.3,1.87A17.06,17.06,0,0,0,49,122.28Z"/><path class="cls-2" d="M46.24,117.57a22.3,22.3,0,0,1,4.28-3.11,8.67,8.67,0,0,1,5.06-1.11,8,8,0,0,0-4.41,2.08A20.65,20.65,0,0,0,48,119.12Z"/><path class="cls-2" d="M46.17,113.2a24.16,24.16,0,0,1,3.93-2.61,7.9,7.9,0,0,1,4.55-.92,7.27,7.27,0,0,0-3.91,1.89,23,23,0,0,0-2.92,3.28Z"/><path class="cls-2" d="M45.6,109.22a28.43,28.43,0,0,1,3.81-2.32,7.67,7.67,0,0,1,4.32-.9A7.12,7.12,0,0,0,50,107.87,27.3,27.3,0,0,0,47.16,111Z"/><path class="cls-2" d="M51.05,94.81a47.4,47.4,0,0,0-2.37,16.51c.56,7.1,3.5,14.88,4.09,21.38s-4.4,40.76,17.75,35.09A28.89,28.89,0,0,0,75,166.31s-1.34,3.29-4.18,4.43-11.59,2.83-14.91-1.69-6-8.88-6.35-13.37-1.09-23.9-1.09-23.9l-3.37-18.6L46.93,99.3Z"/><path class="cls-1" d="M73.35,164.9A7.26,7.26,0,0,1,72,167.47c-1.29,1.55-3.45,2.39-6.59,2.58-.41,0-.8,0-1.19,0-3.83-.05-9.26-1.33-12.13-11.81-2-7.35-1.91-16.36-1.86-21.75,0-2.09,0-3.6-.05-4.69a74.73,74.73,0,0,0-1.57-9.16A56.2,56.2,0,0,1,47,110.75c.06-4.54.83-11.38,4.42-16a6.22,6.22,0,0,1-1.6-3.42c-5.3,5.53-6.22,14.44-6.28,19.32-.1,7.12,2.73,14.92,3.28,21.42s-3.37,41.14,17.43,41.42c.47,0,1,0,1.45,0,6.81-.41,9.88-3.56,11.1-7.92A7.88,7.88,0,0,1,73.35,164.9Z"/><path class="cls-2" d="M64.47,174.47a14.88,14.88,0,0,1-10.63-4c-8.23-7.84-8.05-24.83-8-34,0-1.9,0-3.4,0-4.28a70.87,70.87,0,0,0-1.49-8.61c-.91-4.26-1.85-8.67-1.79-12.9.08-6.24,1.63-21.09,14.13-24.42a16.21,16.21,0,0,1,6.63-.37h0C72.19,87.29,75.24,95,76.24,97.51l0,.08c1.23,3.1,2.68,31.47.83,41.59-.51,2.77,0,6.68.47,10.82.89,7.22,1.89,15.41-2.16,20.27-2.08,2.5-5.34,3.9-9.69,4.16C65.3,174.46,64.88,174.47,64.47,174.47Zm-3.54-86.9a15,15,0,0,0-3.75.49c-11.28,3-12.67,16.84-12.75,22.65-.06,4,.86,8.33,1.75,12.49A72.56,72.56,0,0,1,47.7,132c.08,1,.07,2.51,0,4.46-.09,8.21-.28,25.3,7.37,32.58a13.4,13.4,0,0,0,10.49,3.5c3.87-.24,6.61-1.38,8.37-3.5,3.54-4.24,2.59-12,1.75-18.85-.52-4.29-1-8.33-.46-11.39,1.86-10.16.27-38-.73-40.56l0-.08C73.51,95.67,70.86,89,63,87.73h0A13.35,13.35,0,0,0,60.93,87.57Z"/><path class="cls-2" d="M63.38,165.1a17,17,0,0,1-6.87-1.43,2.68,2.68,0,0,1-1.55-2.9c.78-4.71,2.79-12.68,7.51-13.15h0c5.82-.43,10.19,7.22,11,12.66a2.73,2.73,0,0,1-1.5,2.83A20.36,20.36,0,0,1,63.38,165.1ZM62.6,149c-4.05.41-5.82,9.28-6.26,12a1.27,1.27,0,0,0,.73,1.39c6.22,2.73,12.06.53,14.28-.54a1.31,1.31,0,0,0,.73-1.37C71.28,154.92,66.94,148.7,62.6,149Z"/><path class="cls-2" d="M53.51,94.41a7.56,7.56,0,0,1,2.5-2.2A11.06,11.06,0,0,1,59.16,91a10,10,0,0,1,3.37-.15,6.43,6.43,0,0,1,3.12,1.21,10.58,10.58,0,0,0-3.17-.49,14.36,14.36,0,0,0-3.13.34,17,17,0,0,0-3,.94A15,15,0,0,0,53.51,94.41Z"/><path class="cls-2" d="M56.79,95.82a6.57,6.57,0,0,1,3-1.69A13.64,13.64,0,0,1,66.72,94a6.28,6.28,0,0,1,3.09,1.56,9.67,9.67,0,0,0-3.22-.85,24.44,24.44,0,0,0-3.31-.14,23,23,0,0,0-3.31.3A10.77,10.77,0,0,0,56.79,95.82Z"/><path class="cls-1" d="M139.64,130.87s-23.83-28.61-29.32-30.54-15.12,3.54-19.54,5.06-14.31,1.18-19.71,4.5c0,0-8.84-1.85-10.64,5.46a18.69,18.69,0,0,0,8.83,20.87c8.2,4.82,30.28,5.22,30.28,5.22l11.63,13.92c4.22,5,12.5,14.36,27.21,10.84Z"/><path class="cls-2" d="M141.85,134.47a25.64,25.64,0,0,1-2-2l-1.86-2-3.64-4.08-7.24-8.17c-2.43-2.71-4.87-5.4-7.36-8a90.55,90.55,0,0,0-7.75-7.46,9.48,9.48,0,0,0-2-1.29,6.75,6.75,0,0,0-2.29-.35,18,18,0,0,0-5,.87,107.82,107.82,0,0,0-10,4c-.44.18-.87.35-1.33.51s-1,.31-1.42.42c-.94.22-1.87.37-2.78.51-1.84.27-3.64.47-5.43.72a49.45,49.45,0,0,0-5.24,1,17.39,17.39,0,0,0-4.75,1.84l-.37.23-.47-.08c-2.47-.42-5.39-.17-7.25,1.29a5.7,5.7,0,0,0-1.92,3,17.61,17.61,0,0,0-.61,3.94,17.92,17.92,0,0,0,1.42,7.86,17.27,17.27,0,0,0,4.78,6.39,18.57,18.57,0,0,0,3.34,2.24,24.85,24.85,0,0,0,3.81,1.47A62.39,62.39,0,0,0,82.63,139a143.06,143.06,0,0,0,16.93,1.48l.47,0,.29.35,7.87,9.47,3.94,4.74a45.44,45.44,0,0,0,4.11,4.42,26.27,26.27,0,0,0,10.14,6,24.31,24.31,0,0,0,5.89,1,34.89,34.89,0,0,0,6.11-.29,22.28,22.28,0,0,1-12.39.74,24.86,24.86,0,0,1-11-6.13,47.59,47.59,0,0,1-4.31-4.57l-4-4.72-7.93-9.43.75.37a145.9,145.9,0,0,1-17.21-1.41,63.5,63.5,0,0,1-8.53-1.81,26,26,0,0,1-4.18-1.59,21,21,0,0,1-3.78-2.5A19.61,19.61,0,0,1,60.38,128a20.18,20.18,0,0,1-1.64-8.87,19.44,19.44,0,0,1,.71-4.5,8,8,0,0,1,2.71-4.1,9.47,9.47,0,0,1,4.47-1.82,14.37,14.37,0,0,1,4.67.09l-.83.14a19.67,19.67,0,0,1,5.39-2.11,53.27,53.27,0,0,1,5.49-1c1.82-.26,3.63-.46,5.4-.72.88-.13,1.76-.27,2.59-.47a11.85,11.85,0,0,0,1.2-.35c.4-.14.81-.3,1.22-.47a109.26,109.26,0,0,1,10.25-4,20.14,20.14,0,0,1,5.7-1,9.09,9.09,0,0,1,3.07.52,10.51,10.51,0,0,1,2.58,1.65,87.82,87.82,0,0,1,7.93,7.72c2.5,2.67,4.93,5.39,7.35,8.12l7.18,8.24,3.59,4.11,1.8,2c.6.65,1.24,1.35,1.82,1.86Z"/><path class="cls-2" d="M70.91,128.12a11,11,0,0,1-7.07-2.61,11.7,11.7,0,0,1-4.37-8.91v0a6.71,6.71,0,0,1,2.55-5c3.43-2.67,9-1.76,9.26-1.72l12.29,1-.11.74c-.09.58-2.22,14.4-10.07,16.17A11.79,11.79,0,0,1,70.91,128.12Zm-10-11.46a10.32,10.32,0,0,0,3.87,7.78,9.59,9.59,0,0,0,8.35,2c6-1.35,8.33-11.46,8.87-14.29l-10.84-.92c-.11,0-5.29-.85-8.24,1.44A5.38,5.38,0,0,0,60.86,116.66Z"/><path class="cls-2" d="M92.79,107.82c-.3,1.76-.58,3.43-.75,5.13-.1.84-.16,1.69-.2,2.55a16,16,0,0,0,.08,2.58,6,6,0,0,1-.8-2.55,12.64,12.64,0,0,1,0-2.68,14.42,14.42,0,0,1,.55-2.61A9.37,9.37,0,0,1,92.79,107.82Z"/><path class="cls-2" d="M103.16,104.14c-.33,1.74-.61,3.4-.87,5.11s-.52,3.41-1,5.13a13.8,13.8,0,0,1-.19-2.64,19.3,19.3,0,0,1,.22-2.63,17.62,17.62,0,0,1,.62-2.58A9.15,9.15,0,0,1,103.16,104.14Z"/><path class="cls-2" d="M105.43,103a10.88,10.88,0,0,1,.54,4.81,27.44,27.44,0,0,1-.81,4.78c-.2.79-.44,1.55-.67,2.33s-.52,1.52-.83,2.27-.61,1.48-1,2.21-.7,1.45-1.09,2.15c.43-1.55.89-3.08,1.36-4.6s.9-3,1.28-4.59.73-3.08,1-4.63A15.62,15.62,0,0,0,105.43,103Z"/><path class="cls-2" d="M99,140.72a20.25,20.25,0,0,0,2.75-2.6,26.65,26.65,0,0,0,2.36-3.1,27.93,27.93,0,0,0,1.92-3.43,31,31,0,0,0,1.46-3.68,33.33,33.33,0,0,1-1,3.86,29.17,29.17,0,0,1-1.54,3.72A27.45,27.45,0,0,1,102.8,139a20.34,20.34,0,0,1-2.68,3.19Z"/><path class="cls-2" d="M103.78,145.39a15.34,15.34,0,0,0,3.5.35,15,15,0,0,0,3.58-.46,12.89,12.89,0,0,0,3.38-1.34,13.82,13.82,0,0,0,2.93-2.26,14,14,0,0,1-2.68,2.65,13.48,13.48,0,0,1-3.35,1.84,17.22,17.22,0,0,1-7.71,1.05Z"/><path class="cls-2" d="M113.44,156.63a16.72,16.72,0,0,0,7.31,2.66,20.52,20.52,0,0,0,8.06-.43,20.92,20.92,0,0,1-8.13,1.36,20.6,20.6,0,0,1-4.19-.51,15.54,15.54,0,0,1-4-1.51Z"/><path class="cls-2" d="M110.32,149.32c2.5,0,9.49-5.11,12-8.89,0,0-.76,3.9-1.64,5,0,0,5.35-2.29,7-3.92,0,0-2.2,3.82-3.67,5,0,0,5.58-2.36,6.54-3.76C130.52,142.7,127.43,151.72,110.32,149.32Z"/><path class="cls-2" d="M117.62,155.45s12.06-.71,15.52-9.37c0,0-1.11,4.81-3.23,7.09a12,12,0,0,0,6.55-4.28s-1.84,4.22-3.43,5.46c0,0,4.1-.56,5.53-2.22a17.22,17.22,0,0,1-5,7.08,18.4,18.4,0,0,0,5.53-2.21,5,5,0,0,0,.76-.66c1.7-1.87-2.48,4.78-5.63,5.58,0,0,5.87-.13,7.67-1.36,0,0-5.65,6.84-19.19,1.21a12,12,0,0,0,10.4-4.5S119.36,158.44,117.62,155.45Z"/><path class="cls-2" d="M104.39,141.56s2.68,2.16,5.49,1.33,6.93-3.6,8.05-10.81c0,0-2.74,5-5.35,6.28a21.45,21.45,0,0,0,2.2-5.92s-3.07,5-5.82,5.57l1.88-4.22S107.35,134.94,104.39,141.56Z"/><path class="cls-2" d="M66.73,128.88c1.85,2.62,7.38,7,21.42,8.36s14.06-2.6,15.69-8.6c0,0-2.12,4.61-3.54,5.35,0,0,1-2.49-.57-6.18,0,0-.35,4.55-2,6.15,0,0,.21-3.46-1-5.42,0,0-.52,4-2.36,6l-1.16-4.38-2.12,4.92L90,130.45s-1.24,4-4.16,4.58l.21-3.85s-1.69,3-4.21,3.21l.69-3.42s-2.09,2.86-4.53,2.72l1.34-3S76.39,135.37,66.73,128.88Z"/></g></g></svg>